<svg width="33" height="32" viewBox="0 0 33 32" fill="none" xmlns="http://www.w3.org/2000/svg">
<path d="M15.0613 3H14.4251H8.69762L4.24308 3.63636L2.33398 6.81818V18.2727L4.24308 22.0909L8.06126 23.3636H16.334H23.334L27.1522 20.8182L27.7885 15.7273C20.1522 18.7818 14.425 13.6061 12.516 10.6364C10.9887 9.10909 13.7885 4.27273 15.0613 3Z" fill="#B7FFFD"/>
<path d="M14.4307 3H12.5208C8.34513 3 6.25734 3 4.7774 4.03577C4.22986 4.41896 3.75364 4.89498 3.37025 5.44225C2.33398 6.92148 2.33398 9.00825 2.33398 13.1818C2.33398 17.3553 2.33398 19.4421 3.37025 20.9214C3.75364 21.4687 4.22986 21.9447 4.7774 22.3279C6.25734 23.3636 8.34513 23.3636 12.5208 23.3636H17.6141C21.7897 23.3636 23.8774 23.3636 25.3574 22.3279C25.9049 21.9447 26.3811 21.4687 26.7645 20.9214C27.5647 19.7793 27.747 18.2749 27.7885 15.7273" stroke="#1355FF" stroke-width="1.90909" stroke-linecap="round"/>
<path d="M15.0605 23.3636V28.4546" stroke="#1355FF" stroke-width="1.90909"/>
<path d="M9.9707 28.4546H20.1525" stroke="#1355FF" stroke-width="1.90909" stroke-linecap="round"/>
<path d="M13.7891 19.5455H16.3345" stroke="#1355FF" stroke-width="1.90909" stroke-linecap="round" stroke-linejoin="round"/>
<path d="M29.9573 8.00086C30.2088 8.35353 30.3345 8.5299 30.3345 8.79091C30.3345 9.05191 30.2088 9.22829 29.9573 9.58096C28.8271 11.1657 25.941 14.5818 22.0618 14.5818C18.1825 14.5818 15.2964 11.1657 14.1663 9.58096C13.9148 9.22829 13.7891 9.05191 13.7891 8.79091C13.7891 8.5299 13.9148 8.35353 14.1663 8.00086C15.2964 6.41614 18.1825 3 22.0618 3C25.941 3 28.8271 6.41614 29.9573 8.00086Z" fill="white" stroke="#1355FF" stroke-width="1.90909"/>
<path d="M24.5437 8.7909C24.5437 7.42019 23.4326 6.30908 22.0619 6.30908C20.6912 6.30908 19.5801 7.42019 19.5801 8.7909C19.5801 10.1616 20.6912 11.2727 22.0619 11.2727C23.4326 11.2727 24.5437 10.1616 24.5437 8.7909Z" fill="white" stroke="#1355FF" stroke-width="1.90909"/>
</svg>
