<svg width="33" height="33" viewBox="0 0 33 33" fill="none" xmlns="http://www.w3.org/2000/svg">
<path d="M12.135 2.75459L14.9303 6.24869L16.3279 8.34514H26.1114C30.0248 8.9042 30.5373 12.3051 30.3043 13.9357L26.8102 15.3333C25.1331 13.6562 22.8503 14.6345 21.9185 15.3333C15.7689 15.3333 17.4926 23.7192 19.1232 27.9121H12.135L5.84566 27.2133L3.05038 24.418L2.35156 20.2251V10.4416L3.05038 4.15223L6.54448 2.75459H12.135Z" fill="#B7FFFD"/>
<path d="M19.1278 27.9121H16.3317C9.74142 27.9121 6.44626 27.9121 4.39892 25.8652C2.35156 23.8185 2.35156 20.5242 2.35156 13.9357V9.66489C2.35156 7.12612 2.35156 5.85673 2.88325 4.90424C3.26226 4.22529 3.82265 3.66504 4.5018 3.28614C5.45456 2.75459 6.72428 2.75459 9.26375 2.75459C10.8907 2.75459 11.7042 2.75459 12.4163 3.02156C14.0421 3.63108 14.7126 5.10763 15.4462 6.57452L16.3317 8.34514M10.7397 8.34514H22.9723C25.9176 8.34514 27.3901 8.34514 28.448 9.05178C28.906 9.35769 29.2991 9.75078 29.6051 10.2086C30.1558 11.0326 30.2775 12.1082 30.3043 13.9357" stroke="#1355FF" stroke-width="2" stroke-linecap="round"/>
<path d="M28.9073 21.0681V18.7068C28.9073 18.3354 28.6345 18.0272 28.2808 17.9639C26.8551 17.709 25.6716 17.142 25.0942 16.8275C24.8578 16.6988 24.571 16.6988 24.3346 16.8275C23.7572 17.142 22.5737 17.709 21.148 17.9639C20.7943 18.0272 20.5215 18.3354 20.5215 18.7068V21.0681C20.5215 24.1486 23.5672 25.8289 24.467 26.258C24.6257 26.3337 24.803 26.3337 24.9618 26.258C25.8616 25.8289 28.9073 24.1486 28.9073 21.0681Z" fill="white" stroke="#1355FF" stroke-width="2" stroke-linecap="round"/>
<path d="M14.0261 15.3333H8.43555M11.2308 20.9239H8.43555" stroke="#1355FF" stroke-width="2" stroke-linecap="round" stroke-linejoin="round"/>
</svg>
