<svg width="33" height="33" viewBox="0 0 33 33" fill="none" xmlns="http://www.w3.org/2000/svg">
<path d="M10.734 28.2333L12.834 27.5333C11.714 12.4133 24.034 12.3667 30.334 14.2333V12.8333L27.534 11.4333L25.434 9.33333V5.13333L24.034 3.73333L21.234 2.33333L19.134 3.73333L17.034 5.13333L13.534 3.73333L10.734 2.33333L7.23398 4.43333V6.53333V10.0333L4.43398 12.1333L2.33398 13.5333V17.7333L4.43398 18.4333L7.23398 21.2333V26.1333L10.734 28.2333Z" fill="#B7FFFD"/>
<path d="M12.6776 26.434C12.1378 26.9247 11.5804 27.5301 11.3526 27.5607C11.1249 27.5914 10.8871 27.4473 10.3798 27.1593L7.78662 25.6979C7.1323 25.3707 7.09958 25.1253 7.09958 25.0435C7.09958 24.9617 7.09958 24.6155 7.31224 23.9045C7.99353 21.2812 6.3962 18.5004 3.68215 17.7914C2.97072 17.5996 2.61507 17.5036 2.47453 17.3202C2.33398 17.1368 2.33398 16.8417 2.33398 16.2516V13.6295C2.33398 13.0394 2.33398 12.7443 2.47453 12.5608C2.61507 12.3775 2.97072 12.2815 3.68215 12.0897C6.34126 11.3728 8.00663 8.67114 7.32069 6.02975C7.13216 5.30328 7.03783 4.94004 7.12794 4.72704C7.21804 4.51406 7.4765 4.36728 7.99354 4.07371L10.3446 2.73885C10.8521 2.45076 11.1058 2.30672 11.3334 2.33739C11.5612 2.36807 11.818 2.62435 12.3318 3.13691C14.321 5.12136 17.6123 5.12145 19.6014 3.13703C20.1153 2.62448 20.3721 2.36819 20.5998 2.33752C20.8275 2.30685 21.0812 2.4509 21.5887 2.73899L23.9398 4.07383C24.4568 4.36743 24.7153 4.51421 24.8054 4.72723C24.8955 4.94026 24.8011 5.30344 24.6125 6.02984C23.9263 8.67115 25.5903 11.3874 28.249 12.1044C28.9604 12.2963 29.3161 12.3953 29.4566 12.5788C29.5971 12.7622 29.5971 13.3464 29.5971 13.9365" stroke="#1355FF" stroke-width="2" stroke-linecap="round"/>
<path d="M22.7806 20.0544V22.7807V20.0544ZM22.7929 25.507H22.7806H22.7929ZM29.5964 22.7807C29.5964 26.5449 26.5449 29.5965 22.7806 29.5965C19.0164 29.5965 15.9648 26.5449 15.9648 22.7807C15.9648 19.0165 19.0164 15.9649 22.7806 15.9649C26.5449 15.9649 29.5964 19.0165 29.5964 22.7807Z" fill="white"/>
<path d="M22.7806 20.0544V22.7807M22.7929 25.507H22.7806M29.5964 22.7807C29.5964 26.5449 26.5449 29.5965 22.7806 29.5965C19.0164 29.5965 15.9648 26.5449 15.9648 22.7807C15.9648 19.0165 19.0164 15.9649 22.7806 15.9649C26.5449 15.9649 29.5964 19.0165 29.5964 22.7807Z" stroke="#1355FF" stroke-width="2" stroke-linecap="round"/>
</svg>
