<svg width="33" height="33" viewBox="0 0 33 33" fill="none" xmlns="http://www.w3.org/2000/svg">
<path d="M5.66732 24.9999H18.334C18.334 17.5333 24.1118 15.2222 27.0007 14.9999V8.99995L25.6673 4.99995L21.0007 4.33328H11.0007L5.00065 4.99995L3.00065 6.99995L2.33398 10.3333V14.9999L3.00065 22.3333L5.66732 24.9999Z" fill="#B7FFFD"/>
<path d="M25.6667 25.0999H25.6751H25.6667ZM25.6758 22.9999V20.8999V22.9999ZM30.3333 22.9999C30.3333 25.5773 28.244 27.6666 25.6667 27.6666C23.0893 27.6666 21 25.5773 21 22.9999C21 20.4226 23.0893 18.3333 25.6667 18.3333C28.244 18.3333 30.3333 20.4226 30.3333 22.9999Z" fill="white"/>
<path d="M25.6667 25.0999H25.6751M25.6758 22.9999V20.8999M30.3333 22.9999C30.3333 25.5773 28.244 27.6666 25.6667 27.6666C23.0893 27.6666 21 25.5773 21 22.9999C21 20.4226 23.0893 18.3333 25.6667 18.3333C28.244 18.3333 30.3333 20.4226 30.3333 22.9999Z" stroke="#1355FF" stroke-width="1.55556" stroke-linecap="round"/>
<path d="M18.3427 24.9999H12.4746C7.69426 24.9999 5.3041 24.9999 3.81904 23.4866C2.33398 21.9734 2.33398 19.5378 2.33398 14.6666C2.33398 9.79543 2.33398 7.35984 3.81904 5.84656C5.3041 4.33328 7.69426 4.33328 12.4746 4.33328H17.5449C22.3252 4.33328 24.7155 4.33328 26.2005 5.84656C27.3431 7.01087 27.201 11.7211 27.2618 14.6666" stroke="#1355FF" stroke-width="2" stroke-linecap="round" stroke-linejoin="round"/>
<path d="M8.1875 18.5124V16.8182M12.4229 18.5124V15.9711M16.6583 18.5124V14.277" stroke="#1355FF" stroke-width="2" stroke-linecap="round" stroke-linejoin="round"/>
<path d="M7.33398 12.9947C9.15953 13.0555 13.2991 12.78 15.6536 9.04307M14.1107 8.5916L15.6994 8.3359C15.8931 8.31124 16.1774 8.46412 16.2472 8.64635L16.6673 10.0342" stroke="#1355FF" stroke-width="2" stroke-linecap="round" stroke-linejoin="round"/>
</svg>
