<svg width="33" height="32" viewBox="0 0 33 32" fill="none" xmlns="http://www.w3.org/2000/svg">
<path d="M14.3888 10.2191L11.3751 7.20544H8.96412L4.74494 8.41092L2.93672 11.4246L2.33398 16.8493L2.93672 23.4794L5.95042 25.8904L11.9778 26.4931H19.2107L25.2381 25.2876L27.0463 22.2739V16.2465H21.6217C20.6573 16.2465 19.6125 15.4429 19.2107 15.0411C15.3532 16.0054 14.3888 12.2283 14.3888 10.2191Z" fill="#B7FFFD"/>
<path d="M13.7852 22.8767H16.1961" stroke="#1355FF" stroke-width="1.80822" stroke-linecap="round" stroke-linejoin="round"/>
<path d="M11.3759 7.20667C8.21092 7.21673 6.5015 7.31067 5.25071 8.18649C4.73235 8.54945 4.28149 9.0003 3.91854 9.51865C2.9375 10.9197 2.9375 12.8962 2.9375 16.8493C2.9375 20.8023 2.9375 22.7788 3.91854 24.18C4.28149 24.6983 4.73235 25.1492 5.25071 25.5121C6.65178 26.4932 8.62829 26.4932 12.5813 26.4932H17.4033C21.3563 26.4932 23.3328 26.4932 24.7339 25.5121C25.2523 25.1492 25.7031 24.6983 26.0661 24.18C26.9419 22.9292 27.0358 21.2197 27.0459 18.0548" stroke="#1355FF" stroke-width="1.80822" stroke-linecap="round"/>
<path d="M20.0329 13.321L19.6208 13.3668C19.0043 13.4353 18.696 13.4696 18.4504 13.443C17.2519 13.3131 16.3072 12.251 16.2035 10.9169C16.1823 10.6436 16.2165 10.3012 16.2849 9.61646" fill="white"/>
<path d="M20.0329 13.321L19.6208 13.3668C19.0043 13.4353 18.696 13.4696 18.4504 13.443C17.2519 13.3131 16.3072 12.251 16.2035 10.9169C16.1823 10.6436 16.2165 10.3012 16.2849 9.61646" stroke="#1355FF" stroke-width="1.80822" stroke-linejoin="round"/>
<path d="M23.9609 9.83557H23.9669H23.9609Z" fill="white"/>
<path d="M23.9609 9.83557H23.9669" stroke="#1355FF" stroke-width="1.80822" stroke-linecap="round" stroke-linejoin="round"/>
<path d="M26.5 9.83557H29.9521H26.5Z" fill="white"/>
<path d="M26.5 9.83557H29.9521" stroke="#1355FF" stroke-width="1.80822" stroke-linecap="round" stroke-linejoin="round"/>
<path d="M15.1809 7.7062C15.0106 7.01822 14.9254 6.67422 15.055 6.41816C15.099 6.33107 15.1591 6.25328 15.2321 6.189C15.4467 6 15.7978 6 16.5 6H26.1567C28.4641 6 30.3347 7.88899 30.3347 10.2192C30.3347 12.5494 28.4641 14.4384 26.1567 14.4384H22.5139C21.8881 14.4384 21.5751 14.4384 21.3063 14.3312C21.099 14.2486 20.9122 14.1208 20.7593 13.9571C20.5609 13.7449 20.4447 13.4515 20.2122 12.8646L19.7999 11.8237C19.5615 11.2218 19.4423 10.9209 19.2218 10.6982C19.0013 10.4755 18.7033 10.3551 18.1072 10.1143L16.8092 9.59001C16.2517 9.3648 15.9729 9.2522 15.7637 9.05383C15.6904 8.98428 15.624 8.90754 15.5657 8.82476C15.3993 8.5886 15.3265 8.29447 15.1809 7.7062Z" fill="white" stroke="#1355FF" stroke-width="1.80822" stroke-linejoin="round"/>
</svg>
