<svg width="33" height="33" viewBox="0 0 33 33" fill="none" xmlns="http://www.w3.org/2000/svg">
<path d="M14.4995 11.7621V4.01183H11.2363L6.34139 4.41973L3.48603 8.0909L3.07812 15.0253L3.48603 20.736L6.34139 23.9993L10.4205 24.8151H16.5391H23.0656L26.3289 24.4072L28.7763 22.3677L29.5921 18.2886V13.8016L27.5526 13.3937C27.2263 14.3727 26.3289 14.8894 25.921 15.0253H18.5786C15.6417 14.699 14.6355 12.7139 14.4995 11.7621Z" fill="#B7FFFD"/>
<path d="M14.8242 20.9808H17.4348" stroke="#1355FF" stroke-width="2" stroke-linecap="round" stroke-linejoin="round"/>
<path d="M16.1309 24.8967V30.1179" stroke="#1355FF" stroke-width="2"/>
<path d="M10.9102 30.118H21.3526" stroke="#1355FF" stroke-width="2" stroke-linecap="round"/>
<path d="M14.0916 4.01334H12.2153C8.78823 4.02424 6.93726 4.12596 5.58289 5.0743C5.02161 5.46732 4.53341 5.9555 4.14041 6.51678C3.07812 8.03387 3.07812 10.1741 3.07812 14.4545C3.07812 18.7348 3.07812 20.875 4.14041 22.3922C4.53341 22.9535 5.02161 23.4416 5.58289 23.8347C7.09998 24.8969 9.24017 24.8969 13.5206 24.8969H18.7418C23.0221 24.8969 25.1623 24.8969 26.6795 23.8347C27.2408 23.4416 27.7289 22.9535 28.122 22.3922C29.0703 21.0378 29.172 19.1867 29.1829 15.7598V13.8019" stroke="#1355FF" stroke-width="2" stroke-linecap="round"/>
<path d="M16.3359 7.56281C16.3359 4.99608 16.3359 3.71272 17.1333 2.91534C17.9307 2.11797 19.2141 2.11797 21.7808 2.11797C24.3475 2.11797 25.6309 2.11797 26.4283 2.91534C27.2256 3.71272 27.2256 4.99608 27.2256 7.56281C27.2256 10.1295 27.2256 11.4129 26.4283 12.2103C25.6309 13.0076 24.3475 13.0076 21.7808 13.0076C19.2141 13.0076 17.9307 13.0076 17.1333 12.2103C16.3359 11.4129 16.3359 10.1295 16.3359 7.56281Z" fill="white" stroke="#1355FF" stroke-width="1.8" stroke-linejoin="round"/>
<path d="M20.0605 5.84339L22.3532 8.13572L20.0605 5.84339ZM24.0725 5.27025L21.2068 8.13595L24.0725 5.27025Z" fill="white"/>
<path d="M20.0605 5.84339L22.3532 8.13572M24.0725 5.27025L21.2068 8.13595" stroke="#1355FF" stroke-width="1.8" stroke-linecap="round" stroke-linejoin="round"/>
</svg>
