<svg width="420" height="287" viewBox="0 0 420 287" fill="none" xmlns="http://www.w3.org/2000/svg">
<rect x="0.744214" y="1.18171" width="398.808" height="284.808" rx="15.4042" fill="white"/>
<rect x="0.744214" y="1.18171" width="398.808" height="284.808" rx="15.4042" stroke="#E7E7E7" stroke-width="1.19155"/>
<path d="M27.0044 35.3203V26.5703H24.3024V24.8903H31.5824V26.5703H28.9224V35.3203H27.0044ZM32.5903 35.3203V27.7043H34.4243V35.3203H32.5903ZM32.5903 26.8503V24.8903H34.4243V26.8503H32.5903ZM36.1177 35.3203V27.7043H37.8397V29.4683L37.6437 29.1743C37.7837 28.6236 38.0637 28.213 38.4837 27.9423C38.9037 27.6716 39.3983 27.5363 39.9677 27.5363C40.593 27.5363 41.1437 27.6996 41.6197 28.0263C42.0957 28.353 42.4037 28.7823 42.5437 29.3143L42.0257 29.3563C42.259 28.7496 42.609 28.297 43.0757 27.9983C43.5423 27.6903 44.079 27.5363 44.6857 27.5363C45.227 27.5363 45.7077 27.6576 46.1277 27.9003C46.557 28.143 46.893 28.4836 47.1357 28.9223C47.3783 29.3516 47.4997 29.851 47.4997 30.4203V35.3203H45.6657V30.8543C45.6657 30.5183 45.605 30.229 45.4837 29.9863C45.3623 29.7436 45.1943 29.557 44.9797 29.4263C44.765 29.2863 44.5037 29.2163 44.1957 29.2163C43.9063 29.2163 43.6497 29.2863 43.4257 29.4263C43.2017 29.557 43.029 29.7436 42.9077 29.9863C42.7863 30.229 42.7257 30.5183 42.7257 30.8543V35.3203H40.8917V30.8543C40.8917 30.5183 40.831 30.229 40.7097 29.9863C40.5883 29.7436 40.4157 29.557 40.1917 29.4263C39.977 29.2863 39.7203 29.2163 39.4217 29.2163C39.1323 29.2163 38.8757 29.2863 38.6517 29.4263C38.4277 29.557 38.255 29.7436 38.1337 29.9863C38.0123 30.229 37.9517 30.5183 37.9517 30.8543V35.3203H36.1177ZM52.6633 35.4883C51.8793 35.4883 51.1933 35.311 50.6053 34.9563C50.0173 34.6016 49.5599 34.121 49.2333 33.5143C48.9066 32.9076 48.7433 32.2356 48.7433 31.4983C48.7433 30.733 48.9066 30.0563 49.2333 29.4683C49.5693 28.871 50.0219 28.3996 50.5913 28.0543C51.1699 27.709 51.8139 27.5363 52.5233 27.5363C53.1206 27.5363 53.6433 27.6343 54.0913 27.8303C54.5486 28.0263 54.9359 28.297 55.2533 28.6423C55.5706 28.9876 55.8133 29.3843 55.9813 29.8323C56.1493 30.271 56.2333 30.747 56.2333 31.2603C56.2333 31.391 56.2239 31.5263 56.2053 31.6663C56.1959 31.8063 56.1726 31.9276 56.1353 32.0303H50.2553V30.6303H55.0993L54.2313 31.2883C54.3153 30.859 54.2919 30.4763 54.1613 30.1403C54.0399 29.8043 53.8346 29.5383 53.5453 29.3423C53.2653 29.1463 52.9246 29.0483 52.5233 29.0483C52.1406 29.0483 51.7999 29.1463 51.5013 29.3423C51.2026 29.529 50.9739 29.809 50.8153 30.1823C50.6659 30.5463 50.6099 30.9896 50.6473 31.5123C50.6099 31.979 50.6706 32.3943 50.8293 32.7583C50.9973 33.113 51.2399 33.3883 51.5573 33.5843C51.8839 33.7803 52.2573 33.8783 52.6773 33.8783C53.0973 33.8783 53.4519 33.7896 53.7413 33.6123C54.0399 33.435 54.2733 33.197 54.4413 32.8983L55.9253 33.6263C55.7759 33.9903 55.5426 34.3123 55.2253 34.5923C54.9079 34.8723 54.5299 35.0916 54.0913 35.2503C53.6619 35.409 53.1859 35.4883 52.6633 35.4883ZM60.2658 35.3203V24.8903H62.1698V33.6403H66.6358V35.3203H60.2658ZM71.4374 35.4883C70.6907 35.4883 70.0094 35.3156 69.3934 34.9703C68.7867 34.625 68.3014 34.1536 67.9374 33.5563C67.5827 32.959 67.4054 32.2776 67.4054 31.5123C67.4054 30.747 67.5827 30.0656 67.9374 29.4683C68.3014 28.871 68.7867 28.3996 69.3934 28.0543C70 27.709 70.6814 27.5363 71.4374 27.5363C72.184 27.5363 72.8607 27.709 73.4674 28.0543C74.074 28.3996 74.5547 28.871 74.9094 29.4683C75.2734 30.0563 75.4554 30.7376 75.4554 31.5123C75.4554 32.2776 75.2734 32.959 74.9094 33.5563C74.5454 34.1536 74.06 34.625 73.4534 34.9703C72.8467 35.3156 72.1747 35.4883 71.4374 35.4883ZM71.4374 33.8083C71.848 33.8083 72.2074 33.7103 72.5154 33.5143C72.8327 33.3183 73.08 33.0476 73.2574 32.7023C73.444 32.3476 73.5374 31.951 73.5374 31.5123C73.5374 31.0643 73.444 30.6723 73.2574 30.3363C73.08 29.991 72.8327 29.7203 72.5154 29.5243C72.2074 29.319 71.848 29.2163 71.4374 29.2163C71.0174 29.2163 70.6487 29.319 70.3314 29.5243C70.014 29.7203 69.762 29.991 69.5754 30.3363C69.398 30.6723 69.3094 31.0643 69.3094 31.5123C69.3094 31.951 69.398 32.3476 69.5754 32.7023C69.762 33.0476 70.014 33.3183 70.3314 33.5143C70.6487 33.7103 71.0174 33.8083 71.4374 33.8083ZM80.5422 38.4003C79.9729 38.4003 79.4455 38.307 78.9602 38.1203C78.4749 37.9336 78.0549 37.6723 77.7002 37.3363C77.3549 37.0096 77.1029 36.6223 76.9442 36.1743L78.6522 35.5303C78.7642 35.885 78.9835 36.1696 79.3102 36.3843C79.6462 36.6083 80.0569 36.7203 80.5422 36.7203C80.9155 36.7203 81.2422 36.6503 81.5222 36.5103C81.8115 36.3703 82.0355 36.165 82.1942 35.8943C82.3529 35.633 82.4322 35.3156 82.4322 34.9423V33.2063L82.7822 33.6263C82.5209 34.0836 82.1709 34.429 81.7322 34.6623C81.2935 34.8956 80.7942 35.0123 80.2342 35.0123C79.5249 35.0123 78.8902 34.849 78.3302 34.5223C77.7702 34.1956 77.3315 33.7476 77.0142 33.1783C76.6969 32.609 76.5382 31.9696 76.5382 31.2603C76.5382 30.5416 76.6969 29.9023 77.0142 29.3423C77.3315 28.7823 77.7655 28.3436 78.3162 28.0263C78.8669 27.6996 79.4922 27.5363 80.1922 27.5363C80.7615 27.5363 81.2609 27.6576 81.6902 27.9003C82.1289 28.1336 82.4929 28.4743 82.7822 28.9223L82.5302 29.3843V27.7043H84.2662V34.9423C84.2662 35.605 84.1029 36.1976 83.7762 36.7203C83.4589 37.243 83.0202 37.6536 82.4602 37.9523C81.9095 38.251 81.2702 38.4003 80.5422 38.4003ZM80.4582 33.3183C80.8502 33.3183 81.1909 33.2343 81.4802 33.0663C81.7789 32.889 82.0122 32.6463 82.1802 32.3383C82.3482 32.0303 82.4322 31.6756 82.4322 31.2743C82.4322 30.8823 82.3435 30.5323 82.1662 30.2243C81.9982 29.907 81.7649 29.6596 81.4662 29.4823C81.1769 29.305 80.8409 29.2163 80.4582 29.2163C80.0755 29.2163 79.7302 29.305 79.4222 29.4823C79.1142 29.6596 78.8715 29.907 78.6942 30.2243C78.5262 30.5323 78.4422 30.8823 78.4422 31.2743C78.4422 31.6663 78.5262 32.0163 78.6942 32.3243C78.8715 32.6323 79.1095 32.875 79.4082 33.0523C79.7162 33.2296 80.0662 33.3183 80.4582 33.3183Z" fill="#0C2459"/>
<line x1="24.1484" y1="45.6417" x2="376.148" y2="45.6416" stroke="#A2A2A2" stroke-width="0.357303"/>
<rect width="97" height="192.672" transform="translate(24.1484 65.8203)" fill="white"/>
<path d="M29.2484 78.9643C28.6084 78.9643 28.0164 78.8483 27.4724 78.6163C26.9284 78.3843 26.4524 78.0603 26.0444 77.6443C25.6364 77.2283 25.3164 76.7403 25.0844 76.1803C24.8604 75.6203 24.7484 75.0083 24.7484 74.3443C24.7484 73.6803 24.8564 73.0683 25.0724 72.5083C25.2964 71.9403 25.6084 71.4523 26.0084 71.0443C26.4164 70.6283 26.8924 70.3083 27.4364 70.0843C27.9804 69.8523 28.5724 69.7363 29.2124 69.7363C29.8524 69.7363 30.4244 69.8443 30.9284 70.0603C31.4404 70.2763 31.8724 70.5643 32.2244 70.9243C32.5764 71.2763 32.8284 71.6643 32.9804 72.0883L31.5284 72.7843C31.3604 72.3203 31.0764 71.9443 30.6764 71.6563C30.2764 71.3683 29.7884 71.2243 29.2124 71.2243C28.6524 71.2243 28.1564 71.3563 27.7244 71.6203C27.3004 71.8843 26.9684 72.2483 26.7284 72.7123C26.4964 73.1763 26.3804 73.7203 26.3804 74.3443C26.3804 74.9683 26.5004 75.5163 26.7404 75.9883C26.9884 76.4523 27.3284 76.8163 27.7604 77.0803C28.1924 77.3443 28.6884 77.4763 29.2484 77.4763C29.7044 77.4763 30.1244 77.3883 30.5084 77.2123C30.8924 77.0283 31.2004 76.7723 31.4324 76.4443C31.6644 76.1083 31.7804 75.7123 31.7804 75.2563V74.5723L32.5244 75.2203H29.2124V73.8403H33.4124V74.7403C33.4124 75.4283 33.2964 76.0363 33.0644 76.5643C32.8324 77.0923 32.5164 77.5363 32.1164 77.8963C31.7244 78.2483 31.2804 78.5163 30.7844 78.7003C30.2884 78.8763 29.7764 78.9643 29.2484 78.9643ZM38.1478 78.9643C37.4598 78.9643 36.8478 78.8203 36.3118 78.5323C35.7838 78.2443 35.3678 77.8483 35.0638 77.3443C34.7598 76.8403 34.6078 76.2683 34.6078 75.6283V69.8803H36.2398V75.5443C36.2398 75.9123 36.3198 76.2443 36.4798 76.5403C36.6478 76.8363 36.8758 77.0683 37.1638 77.2363C37.4518 77.3963 37.7798 77.4763 38.1478 77.4763C38.5238 77.4763 38.8518 77.3963 39.1318 77.2363C39.4198 77.0683 39.6438 76.8363 39.8038 76.5403C39.9718 76.2443 40.0558 75.9123 40.0558 75.5443V69.8803H41.6878V75.6283C41.6878 76.2683 41.5358 76.8403 41.2318 77.3443C40.9278 77.8483 40.5078 78.2443 39.9718 78.5323C39.4438 78.8203 38.8358 78.9643 38.1478 78.9643ZM42.3508 78.8203L45.4348 69.8803H47.5468L50.6308 78.8203H48.8548L48.2188 76.9003H44.7628L44.1148 78.8203H42.3508ZM45.2308 75.4603H47.7508L46.2628 71.0083H46.7188L45.2308 75.4603ZM51.6257 78.8203V69.8803H54.9497C55.5577 69.8803 56.0937 69.9923 56.5577 70.2163C57.0297 70.4323 57.3977 70.7523 57.6617 71.1763C57.9257 71.5923 58.0577 72.1003 58.0577 72.7003C58.0577 73.3163 57.9097 73.8403 57.6137 74.2723C57.3257 74.7043 56.9337 75.0243 56.4377 75.2323L58.4897 78.8203H56.6417L54.4457 74.8963L55.5017 75.5203H53.2577V78.8203H51.6257ZM53.2577 74.0803H54.9737C55.2697 74.0803 55.5257 74.0243 55.7417 73.9123C55.9577 73.7923 56.1257 73.6283 56.2457 73.4203C56.3657 73.2123 56.4257 72.9723 56.4257 72.7003C56.4257 72.4203 56.3657 72.1803 56.2457 71.9803C56.1257 71.7723 55.9577 71.6123 55.7417 71.5003C55.5257 71.3803 55.2697 71.3203 54.9737 71.3203H53.2577V74.0803ZM59.5593 78.8203V69.8803H62.4753C63.4193 69.8803 64.2393 70.0723 64.9353 70.4563C65.6393 70.8323 66.1833 71.3563 66.5673 72.0283C66.9513 72.6923 67.1433 73.4643 67.1433 74.3443C67.1433 75.2163 66.9513 75.9923 66.5673 76.6723C66.1833 77.3443 65.6393 77.8723 64.9353 78.2563C64.2393 78.6323 63.4193 78.8203 62.4753 78.8203H59.5593ZM61.1913 77.3803H62.5113C63.1193 77.3803 63.6433 77.2563 64.0833 77.0083C64.5313 76.7523 64.8793 76.4003 65.1273 75.9523C65.3753 75.4963 65.4993 74.9603 65.4993 74.3443C65.4993 73.7203 65.3753 73.1843 65.1273 72.7363C64.8793 72.2883 64.5313 71.9403 64.0833 71.6923C63.6433 71.4443 63.1193 71.3203 62.5113 71.3203H61.1913V77.3803Z" fill="#0C2459"/>
<path d="M29.2124 108.41C28.5724 108.41 27.9804 108.294 27.4364 108.062C26.9004 107.83 26.4284 107.506 26.0204 107.09C25.6204 106.674 25.3084 106.186 25.0844 105.626C24.8604 105.066 24.7484 104.454 24.7484 103.79C24.7484 103.126 24.8564 102.514 25.0724 101.954C25.2964 101.386 25.6084 100.898 26.0084 100.49C26.4164 100.074 26.8924 99.7536 27.4364 99.5296C27.9804 99.2976 28.5724 99.1816 29.2124 99.1816C29.8524 99.1816 30.4244 99.2896 30.9284 99.5056C31.4404 99.7216 31.8724 100.01 32.2244 100.37C32.5764 100.722 32.8284 101.11 32.9804 101.534L31.5164 102.218C31.3484 101.77 31.0644 101.402 30.6644 101.114C30.2644 100.818 29.7804 100.67 29.2124 100.67C28.6524 100.67 28.1564 100.802 27.7244 101.066C27.3004 101.33 26.9684 101.694 26.7284 102.158C26.4964 102.622 26.3804 103.166 26.3804 103.79C26.3804 104.414 26.4964 104.962 26.7284 105.434C26.9684 105.898 27.3004 106.262 27.7244 106.526C28.1564 106.79 28.6524 106.922 29.2124 106.922C29.7804 106.922 30.2644 106.778 30.6644 106.49C31.0644 106.194 31.3484 105.822 31.5164 105.374L32.9804 106.058C32.8284 106.482 32.5764 106.874 32.2244 107.234C31.8724 107.586 31.4404 107.87 30.9284 108.086C30.4244 108.302 29.8524 108.41 29.2124 108.41ZM34.3054 108.266V99.3256H35.9374V106.826H39.7654V108.266H34.3054ZM40.821 108.266V99.3256H42.453V108.266H40.821ZM44.1726 108.266V99.3256H50.1126V100.766H45.8046V103.058H49.8726V104.498H45.8046V106.826H50.1126V108.266H44.1726ZM51.3093 108.266V99.3256H52.5813L57.5013 105.95L56.8413 106.082V99.3256H58.4733V108.266H57.1893L52.3413 101.594L52.9413 101.462V108.266H51.3093ZM61.7878 108.266V100.766H59.4718V99.3256H65.7118V100.766H63.4318V108.266H61.7878Z" fill="#0C2459"/>
<path d="M25.0124 137.711V128.771H28.3484C28.9564 128.771 29.4924 128.883 29.9564 129.107C30.4284 129.323 30.7964 129.643 31.0604 130.067C31.3244 130.483 31.4564 130.991 31.4564 131.591C31.4564 132.183 31.3204 132.691 31.0484 133.115C30.7844 133.531 30.4204 133.851 29.9564 134.075C29.4924 134.299 28.9564 134.411 28.3484 134.411H26.6444V137.711H25.0124ZM26.6444 132.971H28.3724C28.6684 132.971 28.9244 132.915 29.1404 132.803C29.3564 132.683 29.5244 132.519 29.6444 132.311C29.7644 132.103 29.8244 131.863 29.8244 131.591C29.8244 131.311 29.7644 131.071 29.6444 130.871C29.5244 130.663 29.3564 130.503 29.1404 130.391C28.9244 130.271 28.6684 130.211 28.3724 130.211H26.6444V132.971ZM37.1977 137.855C36.5417 137.855 35.9297 137.739 35.3617 137.507C34.7937 137.275 34.2977 136.951 33.8737 136.535C33.4497 136.119 33.1177 135.631 32.8777 135.071C32.6457 134.503 32.5297 133.891 32.5297 133.235C32.5297 132.571 32.6457 131.959 32.8777 131.399C33.1097 130.839 33.4377 130.351 33.8617 129.935C34.2857 129.519 34.7817 129.199 35.3497 128.975C35.9177 128.743 36.5337 128.627 37.1977 128.627C37.8617 128.627 38.4777 128.743 39.0457 128.975C39.6137 129.207 40.1097 129.531 40.5337 129.947C40.9577 130.355 41.2857 130.839 41.5177 131.399C41.7577 131.959 41.8777 132.571 41.8777 133.235C41.8777 133.891 41.7577 134.503 41.5177 135.071C41.2777 135.631 40.9457 136.119 40.5217 136.535C40.0977 136.951 39.6017 137.275 39.0337 137.507C38.4737 137.739 37.8617 137.855 37.1977 137.855ZM37.1977 136.367C37.6377 136.367 38.0417 136.291 38.4097 136.139C38.7777 135.979 39.0977 135.759 39.3697 135.479C39.6497 135.199 39.8617 134.867 40.0057 134.483C40.1577 134.099 40.2337 133.683 40.2337 133.235C40.2337 132.787 40.1577 132.375 40.0057 131.999C39.8617 131.615 39.6497 131.283 39.3697 131.003C39.0977 130.715 38.7777 130.495 38.4097 130.343C38.0417 130.191 37.6377 130.115 37.1977 130.115C36.7657 130.115 36.3657 130.191 35.9977 130.343C35.6297 130.495 35.3057 130.715 35.0257 131.003C34.7537 131.283 34.5417 131.615 34.3897 131.999C34.2377 132.375 34.1617 132.787 34.1617 133.235C34.1617 133.683 34.2377 134.099 34.3897 134.483C34.5417 134.867 34.7537 135.199 35.0257 135.479C35.3057 135.759 35.6297 135.979 35.9977 136.139C36.3657 136.291 36.7657 136.367 37.1977 136.367ZM46.5208 137.855C45.9528 137.855 45.4248 137.751 44.9368 137.543C44.4568 137.335 44.0408 137.047 43.6888 136.679C43.3448 136.303 43.0928 135.867 42.9328 135.371L44.2888 134.783C44.5048 135.295 44.8168 135.699 45.2248 135.995C45.6328 136.283 46.0928 136.427 46.6048 136.427C46.8928 136.427 47.1408 136.383 47.3488 136.295C47.5648 136.199 47.7288 136.071 47.8408 135.911C47.9608 135.751 48.0208 135.559 48.0208 135.335C48.0208 135.071 47.9408 134.855 47.7808 134.687C47.6288 134.511 47.3968 134.375 47.0848 134.279L45.3688 133.727C44.6728 133.511 44.1488 133.187 43.7968 132.755C43.4448 132.323 43.2688 131.815 43.2688 131.231C43.2688 130.719 43.3928 130.267 43.6408 129.875C43.8968 129.483 44.2488 129.179 44.6968 128.963C45.1528 128.739 45.6728 128.627 46.2568 128.627C46.7928 128.627 47.2848 128.723 47.7328 128.915C48.1808 129.099 48.5648 129.359 48.8848 129.695C49.2128 130.023 49.4568 130.411 49.6168 130.859L48.2728 131.459C48.0968 131.011 47.8328 130.667 47.4808 130.427C47.1288 130.179 46.7208 130.055 46.2568 130.055C45.9848 130.055 45.7448 130.103 45.5368 130.199C45.3288 130.287 45.1648 130.415 45.0448 130.583C44.9328 130.743 44.8768 130.935 44.8768 131.159C44.8768 131.407 44.9568 131.627 45.1168 131.819C45.2768 132.003 45.5208 132.147 45.8488 132.251L47.4928 132.767C48.2048 132.999 48.7368 133.319 49.0888 133.727C49.4488 134.135 49.6288 134.639 49.6288 135.239C49.6288 135.751 49.4968 136.203 49.2328 136.595C48.9688 136.987 48.6048 137.295 48.1408 137.519C47.6768 137.743 47.1368 137.855 46.5208 137.855ZM52.6824 137.711V130.211H50.3664V128.771H56.6064V130.211H54.3264V137.711H52.6824ZM62.9271 137.855C62.3591 137.855 61.8311 137.751 61.3431 137.543C60.8631 137.335 60.4471 137.047 60.0951 136.679C59.7511 136.303 59.4991 135.867 59.3391 135.371L60.6951 134.783C60.9111 135.295 61.2231 135.699 61.6311 135.995C62.0391 136.283 62.4991 136.427 63.0111 136.427C63.2991 136.427 63.5471 136.383 63.7551 136.295C63.9711 136.199 64.1351 136.071 64.2471 135.911C64.3671 135.751 64.4271 135.559 64.4271 135.335C64.4271 135.071 64.3471 134.855 64.1871 134.687C64.0351 134.511 63.8031 134.375 63.4911 134.279L61.7751 133.727C61.0791 133.511 60.5551 133.187 60.2031 132.755C59.8511 132.323 59.6751 131.815 59.6751 131.231C59.6751 130.719 59.7991 130.267 60.0471 129.875C60.3031 129.483 60.6551 129.179 61.1031 128.963C61.5591 128.739 62.0791 128.627 62.6631 128.627C63.1991 128.627 63.6911 128.723 64.1391 128.915C64.5871 129.099 64.9711 129.359 65.2911 129.695C65.6191 130.023 65.8631 130.411 66.0231 130.859L64.6791 131.459C64.5031 131.011 64.2391 130.667 63.8871 130.427C63.5351 130.179 63.1271 130.055 62.6631 130.055C62.3911 130.055 62.1511 130.103 61.9431 130.199C61.7351 130.287 61.5711 130.415 61.4511 130.583C61.3391 130.743 61.2831 130.935 61.2831 131.159C61.2831 131.407 61.3631 131.627 61.5231 131.819C61.6831 132.003 61.9271 132.147 62.2551 132.251L63.8991 132.767C64.6111 132.999 65.1431 133.319 65.4951 133.727C65.8551 134.135 66.0351 134.639 66.0351 135.239C66.0351 135.751 65.9031 136.203 65.6391 136.595C65.3751 136.987 65.0111 137.295 64.5471 137.519C64.0831 137.743 63.5431 137.855 62.9271 137.855ZM67.5046 137.711V128.771H69.1366V137.711H67.5046ZM72.4402 137.711V130.211H70.1242V128.771H76.3642V130.211H74.0842V137.711H72.4402ZM77.3601 137.711V128.771H83.3001V130.211H78.9921V132.503H83.0601V133.943H78.9921V136.271H83.3001V137.711H77.3601Z" fill="#0C2459"/>
<path d="M26.5964 167.156V159.656H24.2804V158.216H30.5204V159.656H28.2404V167.156H26.5964ZM33.7963 167.156V163.196L30.7843 158.216H32.6443L34.9483 162.104H34.2883L36.5803 158.216H38.4403L35.4403 163.184V167.156H33.7963ZM39.4382 167.156V158.216H42.7742C43.3822 158.216 43.9182 158.328 44.3822 158.552C44.8542 158.768 45.2222 159.088 45.4862 159.512C45.7502 159.928 45.8822 160.436 45.8822 161.036C45.8822 161.628 45.7462 162.136 45.4742 162.56C45.2102 162.976 44.8462 163.296 44.3822 163.52C43.9182 163.744 43.3822 163.856 42.7742 163.856H41.0702V167.156H39.4382ZM41.0702 162.416H42.7982C43.0942 162.416 43.3502 162.36 43.5662 162.248C43.7822 162.128 43.9502 161.964 44.0702 161.756C44.1902 161.548 44.2502 161.308 44.2502 161.036C44.2502 160.756 44.1902 160.516 44.0702 160.316C43.9502 160.108 43.7822 159.948 43.5662 159.836C43.3502 159.716 43.0942 159.656 42.7982 159.656H41.0702V162.416ZM47.2195 167.156V158.216H53.1595V159.656H48.8515V161.948H52.9195V163.388H48.8515V165.716H53.1595V167.156H47.2195Z" fill="#0C2459"/>
<path d="M29.2124 196.746C28.5724 196.746 27.9804 196.63 27.4364 196.398C26.9004 196.166 26.4284 195.842 26.0204 195.426C25.6204 195.01 25.3084 194.522 25.0844 193.962C24.8604 193.402 24.7484 192.79 24.7484 192.126C24.7484 191.462 24.8564 190.85 25.0724 190.29C25.2964 189.722 25.6084 189.234 26.0084 188.826C26.4164 188.41 26.8924 188.09 27.4364 187.866C27.9804 187.634 28.5724 187.518 29.2124 187.518C29.8524 187.518 30.4244 187.626 30.9284 187.842C31.4404 188.058 31.8724 188.346 32.2244 188.706C32.5764 189.058 32.8284 189.446 32.9804 189.87L31.5164 190.554C31.3484 190.106 31.0644 189.738 30.6644 189.45C30.2644 189.154 29.7804 189.006 29.2124 189.006C28.6524 189.006 28.1564 189.138 27.7244 189.402C27.3004 189.666 26.9684 190.03 26.7284 190.494C26.4964 190.958 26.3804 191.502 26.3804 192.126C26.3804 192.75 26.4964 193.298 26.7284 193.77C26.9684 194.234 27.3004 194.598 27.7244 194.862C28.1564 195.126 28.6524 195.258 29.2124 195.258C29.7804 195.258 30.2644 195.114 30.6644 194.826C31.0644 194.53 31.3484 194.158 31.5164 193.71L32.9804 194.394C32.8284 194.818 32.5764 195.21 32.2244 195.57C31.8724 195.922 31.4404 196.206 30.9284 196.422C30.4244 196.638 29.8524 196.746 29.2124 196.746ZM34.3054 196.602V187.662H35.9374V195.162H39.7654V196.602H34.3054ZM44.9907 196.746C44.3347 196.746 43.7227 196.63 43.1547 196.398C42.5867 196.166 42.0907 195.842 41.6667 195.426C41.2427 195.01 40.9107 194.522 40.6707 193.962C40.4387 193.394 40.3227 192.782 40.3227 192.126C40.3227 191.462 40.4387 190.85 40.6707 190.29C40.9027 189.73 41.2307 189.242 41.6547 188.826C42.0787 188.41 42.5747 188.09 43.1427 187.866C43.7107 187.634 44.3267 187.518 44.9907 187.518C45.6547 187.518 46.2707 187.634 46.8387 187.866C47.4067 188.098 47.9027 188.422 48.3267 188.838C48.7507 189.246 49.0787 189.73 49.3107 190.29C49.5507 190.85 49.6707 191.462 49.6707 192.126C49.6707 192.782 49.5507 193.394 49.3107 193.962C49.0707 194.522 48.7387 195.01 48.3147 195.426C47.8907 195.842 47.3947 196.166 46.8267 196.398C46.2667 196.63 45.6547 196.746 44.9907 196.746ZM44.9907 195.258C45.4307 195.258 45.8347 195.182 46.2027 195.03C46.5707 194.87 46.8907 194.65 47.1627 194.37C47.4427 194.09 47.6547 193.758 47.7987 193.374C47.9507 192.99 48.0267 192.574 48.0267 192.126C48.0267 191.678 47.9507 191.266 47.7987 190.89C47.6547 190.506 47.4427 190.174 47.1627 189.894C46.8907 189.606 46.5707 189.386 46.2027 189.234C45.8347 189.082 45.4307 189.006 44.9907 189.006C44.5587 189.006 44.1587 189.082 43.7907 189.234C43.4227 189.386 43.0987 189.606 42.8187 189.894C42.5467 190.174 42.3347 190.506 42.1827 190.89C42.0307 191.266 41.9547 191.678 41.9547 192.126C41.9547 192.574 42.0307 192.99 42.1827 193.374C42.3347 193.758 42.5467 194.09 42.8187 194.37C43.0987 194.65 43.4227 194.87 43.7907 195.03C44.1587 195.182 44.5587 195.258 44.9907 195.258ZM55.3218 196.746C54.6818 196.746 54.0898 196.63 53.5458 196.398C53.0098 196.166 52.5378 195.842 52.1298 195.426C51.7298 195.01 51.4178 194.522 51.1938 193.962C50.9698 193.402 50.8578 192.79 50.8578 192.126C50.8578 191.462 50.9658 190.85 51.1818 190.29C51.4058 189.722 51.7178 189.234 52.1178 188.826C52.5258 188.41 53.0018 188.09 53.5458 187.866C54.0898 187.634 54.6818 187.518 55.3218 187.518C55.9618 187.518 56.5338 187.626 57.0378 187.842C57.5498 188.058 57.9818 188.346 58.3338 188.706C58.6858 189.058 58.9378 189.446 59.0898 189.87L57.6258 190.554C57.4578 190.106 57.1738 189.738 56.7738 189.45C56.3738 189.154 55.8898 189.006 55.3218 189.006C54.7618 189.006 54.2658 189.138 53.8338 189.402C53.4098 189.666 53.0778 190.03 52.8378 190.494C52.6058 190.958 52.4898 191.502 52.4898 192.126C52.4898 192.75 52.6058 193.298 52.8378 193.77C53.0778 194.234 53.4098 194.598 53.8338 194.862C54.2658 195.126 54.7618 195.258 55.3218 195.258C55.8898 195.258 56.3738 195.114 56.7738 194.826C57.1738 194.53 57.4578 194.158 57.6258 193.71L59.0898 194.394C58.9378 194.818 58.6858 195.21 58.3338 195.57C57.9818 195.922 57.5498 196.206 57.0378 196.422C56.5338 196.638 55.9618 196.746 55.3218 196.746ZM60.4148 196.602V187.662H62.0468V192.318L61.6028 192.162L65.4068 187.662H67.4588L63.8948 191.886L63.9908 190.734L67.5668 196.602H65.6468L63.2468 192.666L62.0468 194.094V196.602H60.4148ZM68.5593 196.602V187.662H74.4993V189.102H70.1913V191.394H74.2593V192.834H70.1913V195.162H74.4993V196.602H68.5593ZM75.696 196.602V187.662H78.612C79.556 187.662 80.376 187.854 81.072 188.238C81.776 188.614 82.32 189.138 82.704 189.81C83.088 190.474 83.28 191.246 83.28 192.126C83.28 192.998 83.088 193.774 82.704 194.454C82.32 195.126 81.776 195.654 81.072 196.038C80.376 196.414 79.556 196.602 78.612 196.602H75.696ZM77.328 195.162H78.648C79.256 195.162 79.78 195.038 80.22 194.79C80.668 194.534 81.016 194.182 81.264 193.734C81.512 193.278 81.636 192.742 81.636 192.126C81.636 191.502 81.512 190.966 81.264 190.518C81.016 190.07 80.668 189.722 80.22 189.474C79.78 189.226 79.256 189.102 78.648 189.102H77.328V195.162ZM86.9037 194.034V192.654H92.0037V194.034H86.9037ZM96.0398 196.602V187.662H97.6718V196.602H96.0398ZM99.3913 196.602V187.662H100.663L105.583 194.286L104.923 194.418V187.662H106.555V196.602H105.271L100.423 189.93L101.023 189.798V196.602H99.3913Z" fill="#0C2459"/>
<path d="M29.2124 226.191C28.5724 226.191 27.9804 226.075 27.4364 225.843C26.9004 225.611 26.4284 225.287 26.0204 224.871C25.6204 224.455 25.3084 223.967 25.0844 223.407C24.8604 222.847 24.7484 222.235 24.7484 221.571C24.7484 220.907 24.8564 220.295 25.0724 219.735C25.2964 219.167 25.6084 218.679 26.0084 218.271C26.4164 217.855 26.8924 217.535 27.4364 217.311C27.9804 217.079 28.5724 216.963 29.2124 216.963C29.8524 216.963 30.4244 217.071 30.9284 217.287C31.4404 217.503 31.8724 217.791 32.2244 218.151C32.5764 218.503 32.8284 218.891 32.9804 219.315L31.5164 219.999C31.3484 219.551 31.0644 219.183 30.6644 218.895C30.2644 218.599 29.7804 218.451 29.2124 218.451C28.6524 218.451 28.1564 218.583 27.7244 218.847C27.3004 219.111 26.9684 219.475 26.7284 219.939C26.4964 220.403 26.3804 220.947 26.3804 221.571C26.3804 222.195 26.4964 222.743 26.7284 223.215C26.9684 223.679 27.3004 224.043 27.7244 224.307C28.1564 224.571 28.6524 224.703 29.2124 224.703C29.7804 224.703 30.2644 224.559 30.6644 224.271C31.0644 223.975 31.3484 223.603 31.5164 223.155L32.9804 223.839C32.8284 224.263 32.5764 224.655 32.2244 225.015C31.8724 225.367 31.4404 225.651 30.9284 225.867C30.4244 226.083 29.8524 226.191 29.2124 226.191ZM34.3054 226.047V217.107H35.9374V224.607H39.7654V226.047H34.3054ZM44.9907 226.191C44.3347 226.191 43.7227 226.075 43.1547 225.843C42.5867 225.611 42.0907 225.287 41.6667 224.871C41.2427 224.455 40.9107 223.967 40.6707 223.407C40.4387 222.839 40.3227 222.227 40.3227 221.571C40.3227 220.907 40.4387 220.295 40.6707 219.735C40.9027 219.175 41.2307 218.687 41.6547 218.271C42.0787 217.855 42.5747 217.535 43.1427 217.311C43.7107 217.079 44.3267 216.963 44.9907 216.963C45.6547 216.963 46.2707 217.079 46.8387 217.311C47.4067 217.543 47.9027 217.867 48.3267 218.283C48.7507 218.691 49.0787 219.175 49.3107 219.735C49.5507 220.295 49.6707 220.907 49.6707 221.571C49.6707 222.227 49.5507 222.839 49.3107 223.407C49.0707 223.967 48.7387 224.455 48.3147 224.871C47.8907 225.287 47.3947 225.611 46.8267 225.843C46.2667 226.075 45.6547 226.191 44.9907 226.191ZM44.9907 224.703C45.4307 224.703 45.8347 224.627 46.2027 224.475C46.5707 224.315 46.8907 224.095 47.1627 223.815C47.4427 223.535 47.6547 223.203 47.7987 222.819C47.9507 222.435 48.0267 222.019 48.0267 221.571C48.0267 221.123 47.9507 220.711 47.7987 220.335C47.6547 219.951 47.4427 219.619 47.1627 219.339C46.8907 219.051 46.5707 218.831 46.2027 218.679C45.8347 218.527 45.4307 218.451 44.9907 218.451C44.5587 218.451 44.1587 218.527 43.7907 218.679C43.4227 218.831 43.0987 219.051 42.8187 219.339C42.5467 219.619 42.3347 219.951 42.1827 220.335C42.0307 220.711 41.9547 221.123 41.9547 221.571C41.9547 222.019 42.0307 222.435 42.1827 222.819C42.3347 223.203 42.5467 223.535 42.8187 223.815C43.0987 224.095 43.4227 224.315 43.7907 224.475C44.1587 224.627 44.5587 224.703 44.9907 224.703ZM55.3218 226.191C54.6818 226.191 54.0898 226.075 53.5458 225.843C53.0098 225.611 52.5378 225.287 52.1298 224.871C51.7298 224.455 51.4178 223.967 51.1938 223.407C50.9698 222.847 50.8578 222.235 50.8578 221.571C50.8578 220.907 50.9658 220.295 51.1818 219.735C51.4058 219.167 51.7178 218.679 52.1178 218.271C52.5258 217.855 53.0018 217.535 53.5458 217.311C54.0898 217.079 54.6818 216.963 55.3218 216.963C55.9618 216.963 56.5338 217.071 57.0378 217.287C57.5498 217.503 57.9818 217.791 58.3338 218.151C58.6858 218.503 58.9378 218.891 59.0898 219.315L57.6258 219.999C57.4578 219.551 57.1738 219.183 56.7738 218.895C56.3738 218.599 55.8898 218.451 55.3218 218.451C54.7618 218.451 54.2658 218.583 53.8338 218.847C53.4098 219.111 53.0778 219.475 52.8378 219.939C52.6058 220.403 52.4898 220.947 52.4898 221.571C52.4898 222.195 52.6058 222.743 52.8378 223.215C53.0778 223.679 53.4098 224.043 53.8338 224.307C54.2658 224.571 54.7618 224.703 55.3218 224.703C55.8898 224.703 56.3738 224.559 56.7738 224.271C57.1738 223.975 57.4578 223.603 57.6258 223.155L59.0898 223.839C58.9378 224.263 58.6858 224.655 58.3338 225.015C57.9818 225.367 57.5498 225.651 57.0378 225.867C56.5338 226.083 55.9618 226.191 55.3218 226.191ZM60.4148 226.047V217.107H62.0468V221.763L61.6028 221.607L65.4068 217.107H67.4588L63.8948 221.331L63.9908 220.179L67.5668 226.047H65.6468L63.2468 222.111L62.0468 223.539V226.047H60.4148ZM68.5593 226.047V217.107H74.4993V218.547H70.1913V220.839H74.2593V222.279H70.1913V224.607H74.4993V226.047H68.5593ZM75.696 226.047V217.107H78.612C79.556 217.107 80.376 217.299 81.072 217.683C81.776 218.059 82.32 218.583 82.704 219.255C83.088 219.919 83.28 220.691 83.28 221.571C83.28 222.443 83.088 223.219 82.704 223.899C82.32 224.571 81.776 225.099 81.072 225.483C80.376 225.859 79.556 226.047 78.612 226.047H75.696ZM77.328 224.607H78.648C79.256 224.607 79.78 224.483 80.22 224.235C80.668 223.979 81.016 223.627 81.264 223.179C81.512 222.723 81.636 222.187 81.636 221.571C81.636 220.947 81.512 220.411 81.264 219.963C81.016 219.515 80.668 219.167 80.22 218.919C79.78 218.671 79.256 218.547 78.648 218.547H77.328V224.607ZM86.9037 223.479V222.099H92.0037V223.479H86.9037ZM100.444 226.191C99.7878 226.191 99.1758 226.075 98.6078 225.843C98.0398 225.611 97.5438 225.287 97.1198 224.871C96.6958 224.455 96.3638 223.967 96.1238 223.407C95.8918 222.839 95.7758 222.227 95.7758 221.571C95.7758 220.907 95.8918 220.295 96.1238 219.735C96.3558 219.175 96.6838 218.687 97.1078 218.271C97.5318 217.855 98.0278 217.535 98.5958 217.311C99.1638 217.079 99.7798 216.963 100.444 216.963C101.108 216.963 101.724 217.079 102.292 217.311C102.86 217.543 103.356 217.867 103.78 218.283C104.204 218.691 104.532 219.175 104.764 219.735C105.004 220.295 105.124 220.907 105.124 221.571C105.124 222.227 105.004 222.839 104.764 223.407C104.524 223.967 104.192 224.455 103.768 224.871C103.344 225.287 102.848 225.611 102.28 225.843C101.72 226.075 101.108 226.191 100.444 226.191ZM100.444 224.703C100.884 224.703 101.288 224.627 101.656 224.475C102.024 224.315 102.344 224.095 102.616 223.815C102.896 223.535 103.108 223.203 103.252 222.819C103.404 222.435 103.48 222.019 103.48 221.571C103.48 221.123 103.404 220.711 103.252 220.335C103.108 219.951 102.896 219.619 102.616 219.339C102.344 219.051 102.024 218.831 101.656 218.679C101.288 218.527 100.884 218.451 100.444 218.451C100.012 218.451 99.6118 218.527 99.2438 218.679C98.8758 218.831 98.5518 219.051 98.2718 219.339C97.9998 219.619 97.7878 219.951 97.6358 220.335C97.4838 220.711 97.4078 221.123 97.4078 221.571C97.4078 222.019 97.4838 222.435 97.6358 222.819C97.7878 223.203 97.9998 223.535 98.2718 223.815C98.5518 224.095 98.8758 224.315 99.2438 224.475C99.6118 224.627 100.012 224.703 100.444 224.703ZM110.019 226.191C109.331 226.191 108.719 226.047 108.183 225.759C107.655 225.471 107.239 225.075 106.935 224.571C106.631 224.067 106.479 223.495 106.479 222.855V217.107H108.111V222.771C108.111 223.139 108.191 223.471 108.351 223.767C108.519 224.063 108.747 224.295 109.035 224.463C109.323 224.623 109.651 224.703 110.019 224.703C110.395 224.703 110.723 224.623 111.003 224.463C111.291 224.295 111.515 224.063 111.675 223.767C111.843 223.471 111.927 223.139 111.927 222.771V217.107H113.559V222.855C113.559 223.495 113.407 224.067 113.103 224.571C112.799 225.075 112.379 225.471 111.843 225.759C111.315 226.047 110.707 226.191 110.019 226.191ZM116.772 226.047V218.547H114.456V217.107H120.696V218.547H118.416V226.047H116.772Z" fill="#0C2459"/>
<path d="M25.0124 255.492V246.552H27.9284C28.8724 246.552 29.6924 246.744 30.3884 247.128C31.0924 247.504 31.6364 248.028 32.0204 248.7C32.4044 249.364 32.5964 250.136 32.5964 251.016C32.5964 251.888 32.4044 252.664 32.0204 253.344C31.6364 254.016 31.0924 254.544 30.3884 254.928C29.6924 255.304 28.8724 255.492 27.9284 255.492H25.0124ZM26.6444 254.052H27.9644C28.5724 254.052 29.0964 253.928 29.5364 253.68C29.9844 253.424 30.3324 253.072 30.5804 252.624C30.8284 252.168 30.9524 251.632 30.9524 251.016C30.9524 250.392 30.8284 249.856 30.5804 249.408C30.3324 248.96 29.9844 248.612 29.5364 248.364C29.0964 248.116 28.5724 247.992 27.9644 247.992H26.6444V254.052ZM37.3393 255.636C36.6513 255.636 36.0393 255.492 35.5033 255.204C34.9753 254.916 34.5593 254.52 34.2553 254.016C33.9513 253.512 33.7993 252.94 33.7993 252.3V246.552H35.4313V252.216C35.4313 252.584 35.5113 252.916 35.6713 253.212C35.8393 253.508 36.0673 253.74 36.3553 253.908C36.6433 254.068 36.9713 254.148 37.3393 254.148C37.7153 254.148 38.0433 254.068 38.3233 253.908C38.6113 253.74 38.8353 253.508 38.9953 253.212C39.1633 252.916 39.2473 252.584 39.2473 252.216V246.552H40.8793V252.3C40.8793 252.94 40.7273 253.512 40.4233 254.016C40.1193 254.52 39.6993 254.916 39.1633 255.204C38.6353 255.492 38.0273 255.636 37.3393 255.636ZM42.5085 255.492V246.552H45.8325C46.4405 246.552 46.9765 246.664 47.4405 246.888C47.9125 247.104 48.2805 247.424 48.5445 247.848C48.8085 248.264 48.9405 248.772 48.9405 249.372C48.9405 249.988 48.7925 250.512 48.4965 250.944C48.2085 251.376 47.8165 251.696 47.3205 251.904L49.3725 255.492H47.5245L45.3285 251.568L46.3845 252.192H44.1405V255.492H42.5085ZM44.1405 250.752H45.8565C46.1525 250.752 46.4085 250.696 46.6245 250.584C46.8405 250.464 47.0085 250.3 47.1285 250.092C47.2485 249.884 47.3085 249.644 47.3085 249.372C47.3085 249.092 47.2485 248.852 47.1285 248.652C47.0085 248.444 46.8405 248.284 46.6245 248.172C46.4085 248.052 46.1525 247.992 45.8565 247.992H44.1405V250.752ZM49.7101 255.492L52.7941 246.552H54.9061L57.9901 255.492H56.2141L55.5781 253.572H52.1221L51.4741 255.492H49.7101ZM52.5901 252.132H55.1101L53.6221 247.68H54.0781L52.5901 252.132ZM59.9714 255.492V247.992H57.6554V246.552H63.8954V247.992H61.6154V255.492H59.9714ZM64.8913 255.492V246.552H66.5233V255.492H64.8913ZM72.6469 255.636C71.9909 255.636 71.3789 255.52 70.8109 255.288C70.2429 255.056 69.7469 254.732 69.3229 254.316C68.8989 253.9 68.5669 253.412 68.3269 252.852C68.0949 252.284 67.9789 251.672 67.9789 251.016C67.9789 250.352 68.0949 249.74 68.3269 249.18C68.5589 248.62 68.8869 248.132 69.3109 247.716C69.7349 247.3 70.2309 246.98 70.7989 246.756C71.3669 246.524 71.9829 246.408 72.6469 246.408C73.3109 246.408 73.9269 246.524 74.4949 246.756C75.0629 246.988 75.5589 247.312 75.9829 247.728C76.4069 248.136 76.7349 248.62 76.9669 249.18C77.2069 249.74 77.3269 250.352 77.3269 251.016C77.3269 251.672 77.2069 252.284 76.9669 252.852C76.7269 253.412 76.3949 253.9 75.9709 254.316C75.5469 254.732 75.0509 255.056 74.4829 255.288C73.9229 255.52 73.3109 255.636 72.6469 255.636ZM72.6469 254.148C73.0869 254.148 73.4909 254.072 73.8589 253.92C74.2269 253.76 74.5469 253.54 74.8189 253.26C75.0989 252.98 75.3109 252.648 75.4549 252.264C75.6069 251.88 75.6829 251.464 75.6829 251.016C75.6829 250.568 75.6069 250.156 75.4549 249.78C75.3109 249.396 75.0989 249.064 74.8189 248.784C74.5469 248.496 74.2269 248.276 73.8589 248.124C73.4909 247.972 73.0869 247.896 72.6469 247.896C72.2149 247.896 71.8149 247.972 71.4469 248.124C71.0789 248.276 70.7549 248.496 70.4749 248.784C70.2029 249.064 69.9909 249.396 69.8389 249.78C69.6869 250.156 69.6109 250.568 69.6109 251.016C69.6109 251.464 69.6869 251.88 69.8389 252.264C69.9909 252.648 70.2029 252.98 70.4749 253.26C70.7549 253.54 71.0789 253.76 71.4469 253.92C71.8149 254.072 72.2149 254.148 72.6469 254.148ZM78.7781 255.492V246.552H80.0501L84.9701 253.176L84.3101 253.308V246.552H85.9421V255.492H84.6581L79.8101 248.82L80.4101 248.688V255.492H78.7781Z" fill="#0C2459"/>
<rect width="6" height="199.672" transform="translate(197.148 65.8203)" fill="white"/>
<path d="M198.802 79.8203V77.938H200.577V79.8203H198.802ZM198.802 74.3884V72.506H200.577V74.3884H198.802Z" fill="#0C2459"/>
<path d="M198.802 110.266V108.383H200.577V110.266H198.802ZM198.802 104.834V102.951H200.577V104.834H198.802Z" fill="#0C2459"/>
<path d="M198.802 140.711V138.829H200.577V140.711H198.802ZM198.802 135.279V133.397H200.577V135.279H198.802Z" fill="#0C2459"/>
<path d="M198.802 171.156V169.274H200.577V171.156H198.802ZM198.802 165.724V163.842H200.577V165.724H198.802Z" fill="#0C2459"/>
<path d="M198.802 201.602V199.719H200.577V201.602H198.802ZM198.802 196.17V194.287H200.577V196.17H198.802Z" fill="#0C2459"/>
<path d="M198.802 232.047V230.165H200.577V232.047H198.802ZM198.802 226.615V224.733H200.577V226.615H198.802Z" fill="#0C2459"/>
<path d="M198.802 262.492V260.61H200.577V262.492H198.802ZM198.802 257.06V255.178H200.577V257.06H198.802Z" fill="#0C2459"/>
<rect width="158" height="192.672" transform="translate(216.594 69.3203)" fill="white"/>
<path d="M217.59 82.3203V73.3803H218.766V78.4083L218.478 78.2883L222.75 73.3803H224.226L220.638 77.5203L220.698 76.6803L224.406 82.3203H223.002L220.17 78.0723L218.766 79.6803V82.3203H217.59ZM227.182 82.4643C226.758 82.4643 226.382 82.3883 226.054 82.2363C225.734 82.0763 225.482 81.8603 225.298 81.5883C225.114 81.3083 225.022 80.9883 225.022 80.6283C225.022 80.2843 225.094 79.9763 225.238 79.7043C225.39 79.4243 225.622 79.1883 225.934 78.9963C226.254 78.8043 226.654 78.6683 227.134 78.5883L229.534 78.1923V79.1283L227.386 79.4883C226.97 79.5603 226.666 79.6923 226.474 79.8843C226.29 80.0763 226.198 80.3123 226.198 80.5923C226.198 80.8563 226.302 81.0763 226.51 81.2523C226.726 81.4283 226.994 81.5163 227.314 81.5163C227.722 81.5163 228.074 81.4323 228.37 81.2643C228.674 81.0883 228.91 80.8523 229.078 80.5563C229.254 80.2603 229.342 79.9323 229.342 79.5723V77.9283C229.342 77.5763 229.21 77.2923 228.946 77.0763C228.69 76.8523 228.35 76.7403 227.926 76.7403C227.558 76.7403 227.23 76.8363 226.942 77.0283C226.662 77.2123 226.454 77.4603 226.318 77.7723L225.346 77.2683C225.466 76.9723 225.658 76.7083 225.922 76.4763C226.186 76.2363 226.494 76.0483 226.846 75.9123C227.198 75.7763 227.566 75.7083 227.95 75.7083C228.446 75.7083 228.882 75.8043 229.258 75.9963C229.634 76.1803 229.926 76.4403 230.134 76.7763C230.35 77.1043 230.458 77.4883 230.458 77.9283V82.3203H229.366V81.0963L229.57 81.1683C229.434 81.4243 229.25 81.6483 229.018 81.8403C228.786 82.0323 228.514 82.1843 228.202 82.2963C227.89 82.4083 227.55 82.4643 227.182 82.4643ZM234.699 82.3923C234.067 82.3923 233.579 82.2123 233.235 81.8523C232.899 81.4923 232.731 80.9843 232.731 80.3283V76.9203H231.555V75.8523H231.795C232.083 75.8523 232.311 75.7643 232.479 75.5883C232.647 75.4123 232.731 75.1803 232.731 74.8923V74.3643H233.847V75.8523H235.299V76.9203H233.847V80.2923C233.847 80.5083 233.879 80.6963 233.943 80.8563C234.015 81.0163 234.131 81.1443 234.291 81.2403C234.451 81.3283 234.663 81.3723 234.927 81.3723C234.983 81.3723 235.051 81.3683 235.131 81.3603C235.219 81.3523 235.299 81.3443 235.371 81.3363V82.3203C235.267 82.3443 235.151 82.3603 235.023 82.3683C234.895 82.3843 234.787 82.3923 234.699 82.3923ZM236.829 82.3203V73.2363H237.945V77.1123L237.741 77.0043C237.901 76.5963 238.157 76.2803 238.509 76.0563C238.869 75.8243 239.289 75.7083 239.769 75.7083C240.233 75.7083 240.645 75.8123 241.005 76.0203C241.373 76.2283 241.661 76.5163 241.869 76.8843C242.085 77.2523 242.193 77.6683 242.193 78.1323V82.3203H241.065V78.4923C241.065 78.1323 240.997 77.8283 240.861 77.5803C240.733 77.3323 240.553 77.1403 240.321 77.0043C240.089 76.8603 239.821 76.7883 239.517 76.7883C239.221 76.7883 238.953 76.8603 238.713 77.0043C238.473 77.1403 238.285 77.3363 238.149 77.5923C238.013 77.8403 237.945 78.1403 237.945 78.4923V82.3203H236.829ZM243.79 82.3203V75.8523H244.882V77.0403L244.762 76.8723C244.914 76.5043 245.146 76.2323 245.458 76.0563C245.77 75.8723 246.15 75.7803 246.598 75.7803H246.994V76.8363H246.43C245.974 76.8363 245.606 76.9803 245.326 77.2683C245.046 77.5483 244.906 77.9483 244.906 78.4683V82.3203H243.79ZM248.333 84.9603C248.189 84.9603 248.045 84.9483 247.901 84.9243C247.757 84.9003 247.621 84.8603 247.493 84.8043V83.8083C247.581 83.8243 247.689 83.8403 247.817 83.8563C247.953 83.8803 248.085 83.8923 248.213 83.8923C248.589 83.8923 248.873 83.8083 249.065 83.6403C249.265 83.4803 249.453 83.2003 249.629 82.8003L250.037 81.8283L250.013 82.8003L247.253 75.8523H248.465L250.613 81.3723H250.253L252.389 75.8523H253.625L250.709 83.0883C250.573 83.4323 250.397 83.7443 250.181 84.0243C249.973 84.3123 249.717 84.5403 249.413 84.7083C249.109 84.8763 248.749 84.9603 248.333 84.9603ZM254.618 82.3203V75.8523H255.71V77.1123L255.53 77.0043C255.69 76.5963 255.946 76.2803 256.298 76.0563C256.658 75.8243 257.078 75.7083 257.558 75.7083C258.022 75.7083 258.434 75.8123 258.794 76.0203C259.162 76.2283 259.45 76.5163 259.658 76.8843C259.874 77.2523 259.982 77.6683 259.982 78.1323V82.3203H258.854V78.4923C258.854 78.1323 258.79 77.8283 258.662 77.5803C258.534 77.3323 258.35 77.1403 258.11 77.0043C257.878 76.8603 257.61 76.7883 257.306 76.7883C257.002 76.7883 256.73 76.8603 256.49 77.0043C256.258 77.1403 256.074 77.3363 255.938 77.5923C255.802 77.8403 255.734 78.1403 255.734 78.4923V82.3203H254.618ZM263.785 82.3203V73.3803H264.865L268.213 78.1443H267.661L270.985 73.3803H272.065V82.3203H270.877V74.8683L271.297 75.0003L267.973 79.6803H267.877L264.589 75.0003L264.961 74.8683V82.3203H263.785ZM276.211 82.4643C275.747 82.4643 275.327 82.3563 274.951 82.1403C274.583 81.9243 274.295 81.6243 274.087 81.2403C273.887 80.8483 273.787 80.4003 273.787 79.8963V75.8523H274.903V79.7763C274.903 80.0963 274.967 80.3763 275.095 80.6163C275.231 80.8563 275.415 81.0443 275.647 81.1803C275.887 81.3163 276.159 81.3843 276.463 81.3843C276.767 81.3843 277.035 81.3163 277.267 81.1803C277.507 81.0443 277.691 80.8483 277.819 80.5923C277.955 80.3363 278.023 80.0323 278.023 79.6803V75.8523H279.151V82.3203H278.059V81.0603L278.239 81.1683C278.087 81.5763 277.827 81.8963 277.459 82.1283C277.099 82.3523 276.683 82.4643 276.211 82.4643ZM280.88 82.3203V75.8523H281.972V77.0403L281.852 76.8723C282.004 76.5043 282.236 76.2323 282.548 76.0563C282.86 75.8723 283.24 75.7803 283.688 75.7803H284.084V76.8363H283.52C283.064 76.8363 282.696 76.9803 282.416 77.2683C282.136 77.5483 281.996 77.9483 281.996 78.4683V82.3203H280.88ZM285.075 84.7203V75.8523H286.167V77.2443L286.023 76.9683C286.263 76.5843 286.591 76.2803 287.007 76.0563C287.423 75.8243 287.899 75.7083 288.435 75.7083C289.043 75.7083 289.587 75.8563 290.067 76.1523C290.555 76.4483 290.939 76.8523 291.219 77.3643C291.499 77.8683 291.639 78.4443 291.639 79.0923C291.639 79.7243 291.499 80.2963 291.219 80.8083C290.939 81.3203 290.555 81.7243 290.067 82.0203C289.587 82.3163 289.039 82.4643 288.423 82.4643C287.903 82.4643 287.427 82.3483 286.995 82.1163C286.571 81.8843 286.243 81.5563 286.011 81.1323L286.191 80.9403V84.7203H285.075ZM288.339 81.3843C288.747 81.3843 289.111 81.2843 289.431 81.0843C289.751 80.8843 289.999 80.6123 290.175 80.2683C290.359 79.9163 290.451 79.5243 290.451 79.0923C290.451 78.6443 290.359 78.2523 290.175 77.9163C289.999 77.5723 289.751 77.3003 289.431 77.1003C289.111 76.8923 288.747 76.7883 288.339 76.7883C287.931 76.7883 287.563 76.8883 287.235 77.0883C286.915 77.2883 286.659 77.5643 286.467 77.9163C286.283 78.2603 286.191 78.6523 286.191 79.0923C286.191 79.5243 286.283 79.9163 286.467 80.2683C286.659 80.6123 286.915 80.8843 287.235 81.0843C287.563 81.2843 287.931 81.3843 288.339 81.3843ZM293.102 82.3203V73.2363H294.218V77.1123L294.014 77.0043C294.174 76.5963 294.43 76.2803 294.782 76.0563C295.142 75.8243 295.562 75.7083 296.042 75.7083C296.506 75.7083 296.918 75.8123 297.278 76.0203C297.646 76.2283 297.934 76.5163 298.142 76.8843C298.358 77.2523 298.466 77.6683 298.466 78.1323V82.3203H297.338V78.4923C297.338 78.1323 297.27 77.8283 297.134 77.5803C297.006 77.3323 296.826 77.1403 296.594 77.0043C296.362 76.8603 296.094 76.7883 295.79 76.7883C295.494 76.7883 295.226 76.8603 294.986 77.0043C294.746 77.1403 294.558 77.3363 294.422 77.5923C294.286 77.8403 294.218 78.1403 294.218 78.4923V82.3203H293.102ZM300.294 84.9603C300.15 84.9603 300.006 84.9483 299.862 84.9243C299.718 84.9003 299.582 84.8603 299.454 84.8043V83.8083C299.542 83.8243 299.65 83.8403 299.778 83.8563C299.914 83.8803 300.046 83.8923 300.174 83.8923C300.55 83.8923 300.834 83.8083 301.026 83.6403C301.226 83.4803 301.414 83.2003 301.59 82.8003L301.998 81.8283L301.974 82.8003L299.214 75.8523H300.426L302.574 81.3723H302.214L304.35 75.8523H305.586L302.67 83.0883C302.534 83.4323 302.358 83.7443 302.142 84.0243C301.934 84.3123 301.678 84.5403 301.374 84.7083C301.07 84.8763 300.71 84.9603 300.294 84.9603Z" fill="#0C2459"/>
<path d="M219.234 111.766L216.726 102.826H217.962L220.062 110.698H219.774L221.958 102.826H223.194L225.366 110.698H225.066L227.178 102.826H228.414L225.906 111.766H224.598L222.414 103.93H222.726L220.542 111.766H219.234ZM233.969 111.91C233.465 111.91 233.017 111.818 232.625 111.634C232.233 111.442 231.925 111.174 231.701 110.83C231.485 110.478 231.377 110.074 231.377 109.618C231.377 109.226 231.449 108.882 231.593 108.586C231.737 108.282 231.913 108.022 232.121 107.806C232.337 107.59 232.553 107.41 232.769 107.266C232.993 107.114 233.177 106.994 233.321 106.906L234.005 106.51C234.237 106.374 234.461 106.226 234.677 106.066C234.893 105.906 235.073 105.722 235.217 105.514C235.361 105.298 235.433 105.058 235.433 104.794C235.433 104.482 235.329 104.222 235.121 104.014C234.913 103.806 234.653 103.702 234.341 103.702C234.029 103.702 233.769 103.806 233.561 104.014C233.353 104.222 233.249 104.486 233.249 104.806C233.249 105.022 233.301 105.234 233.405 105.442C233.509 105.65 233.637 105.85 233.789 106.042C233.941 106.226 234.093 106.398 234.245 106.558L239.105 111.766H237.629L233.369 107.278C233.177 107.078 232.985 106.858 232.793 106.618C232.601 106.378 232.437 106.114 232.301 105.826C232.173 105.53 232.109 105.206 232.109 104.854C232.109 104.422 232.209 104.046 232.409 103.726C232.617 103.398 232.889 103.142 233.225 102.958C233.561 102.774 233.933 102.682 234.341 102.682C234.741 102.682 235.105 102.774 235.433 102.958C235.769 103.134 236.037 103.382 236.237 103.702C236.437 104.022 236.537 104.39 236.537 104.806C236.537 105.23 236.437 105.602 236.237 105.922C236.037 106.234 235.797 106.502 235.517 106.726C235.237 106.942 234.973 107.122 234.725 107.266L234.053 107.674C233.853 107.802 233.641 107.954 233.417 108.13C233.193 108.298 233.001 108.502 232.841 108.742C232.681 108.974 232.601 109.258 232.601 109.594C232.601 109.994 232.729 110.306 232.985 110.53C233.249 110.754 233.589 110.866 234.005 110.866C234.269 110.866 234.505 110.822 234.713 110.734C234.921 110.646 235.105 110.53 235.265 110.386C235.433 110.242 235.581 110.086 235.709 109.918C235.837 109.742 235.957 109.57 236.069 109.402L237.449 107.35H238.733L237.113 109.822C236.993 110.022 236.841 110.242 236.657 110.482C236.473 110.722 236.257 110.95 236.009 111.166C235.761 111.382 235.469 111.562 235.133 111.706C234.805 111.842 234.417 111.91 233.969 111.91ZM246.854 111.91C246.222 111.91 245.638 111.798 245.102 111.574C244.574 111.342 244.11 111.018 243.71 110.602C243.318 110.186 243.014 109.698 242.798 109.138C242.582 108.578 242.474 107.966 242.474 107.302C242.474 106.63 242.582 106.014 242.798 105.454C243.014 104.894 243.318 104.406 243.71 103.99C244.102 103.574 244.566 103.254 245.102 103.03C245.638 102.798 246.222 102.682 246.854 102.682C247.47 102.682 248.022 102.79 248.51 103.006C249.006 103.222 249.422 103.502 249.758 103.846C250.102 104.19 250.346 104.558 250.49 104.95L249.41 105.442C249.202 104.946 248.878 104.546 248.438 104.242C247.998 103.93 247.47 103.774 246.854 103.774C246.23 103.774 245.674 103.922 245.186 104.218C244.706 104.514 244.33 104.926 244.058 105.454C243.786 105.982 243.65 106.598 243.65 107.302C243.65 107.998 243.786 108.61 244.058 109.138C244.33 109.666 244.706 110.078 245.186 110.374C245.674 110.67 246.23 110.818 246.854 110.818C247.47 110.818 247.998 110.666 248.438 110.362C248.878 110.05 249.202 109.646 249.41 109.15L250.49 109.642C250.346 110.034 250.102 110.402 249.758 110.746C249.422 111.09 249.006 111.37 248.51 111.586C248.022 111.802 247.47 111.91 246.854 111.91ZM254.913 111.91C254.289 111.91 253.725 111.766 253.221 111.478C252.717 111.182 252.317 110.778 252.021 110.266C251.725 109.754 251.577 109.174 251.577 108.526C251.577 107.878 251.721 107.302 252.009 106.798C252.305 106.294 252.705 105.894 253.209 105.598C253.713 105.302 254.281 105.154 254.913 105.154C255.537 105.154 256.101 105.302 256.605 105.598C257.109 105.886 257.505 106.282 257.793 106.786C258.089 107.29 258.237 107.87 258.237 108.526C258.237 109.182 258.085 109.766 257.781 110.278C257.477 110.782 257.073 111.182 256.569 111.478C256.073 111.766 255.521 111.91 254.913 111.91ZM254.913 110.83C255.313 110.83 255.673 110.73 255.993 110.53C256.321 110.33 256.577 110.054 256.761 109.702C256.953 109.35 257.049 108.958 257.049 108.526C257.049 108.086 256.953 107.698 256.761 107.362C256.577 107.018 256.321 106.746 255.993 106.546C255.673 106.338 255.313 106.234 254.913 106.234C254.505 106.234 254.137 106.338 253.809 106.546C253.489 106.746 253.233 107.018 253.041 107.362C252.849 107.698 252.753 108.086 252.753 108.526C252.753 108.958 252.849 109.35 253.041 109.702C253.233 110.054 253.489 110.33 253.809 110.53C254.137 110.73 254.505 110.83 254.913 110.83Z" fill="#0C2459"/>
<path d="M219.234 141.211L216.726 132.271H217.962L220.062 140.143H219.774L221.958 132.271H223.194L225.366 140.143H225.066L227.178 132.271H228.414L225.906 141.211H224.598L222.414 133.375H222.726L220.542 141.211H219.234ZM233.969 141.355C233.465 141.355 233.017 141.263 232.625 141.079C232.233 140.887 231.925 140.619 231.701 140.275C231.485 139.923 231.377 139.519 231.377 139.063C231.377 138.671 231.449 138.327 231.593 138.031C231.737 137.727 231.913 137.467 232.121 137.251C232.337 137.035 232.553 136.855 232.769 136.711C232.993 136.559 233.177 136.439 233.321 136.351L234.005 135.955C234.237 135.819 234.461 135.671 234.677 135.511C234.893 135.351 235.073 135.167 235.217 134.959C235.361 134.743 235.433 134.503 235.433 134.239C235.433 133.927 235.329 133.667 235.121 133.459C234.913 133.251 234.653 133.147 234.341 133.147C234.029 133.147 233.769 133.251 233.561 133.459C233.353 133.667 233.249 133.931 233.249 134.251C233.249 134.467 233.301 134.679 233.405 134.887C233.509 135.095 233.637 135.295 233.789 135.487C233.941 135.671 234.093 135.843 234.245 136.003L239.105 141.211H237.629L233.369 136.723C233.177 136.523 232.985 136.303 232.793 136.063C232.601 135.823 232.437 135.559 232.301 135.271C232.173 134.975 232.109 134.651 232.109 134.299C232.109 133.867 232.209 133.491 232.409 133.171C232.617 132.843 232.889 132.587 233.225 132.403C233.561 132.219 233.933 132.127 234.341 132.127C234.741 132.127 235.105 132.219 235.433 132.403C235.769 132.579 236.037 132.827 236.237 133.147C236.437 133.467 236.537 133.835 236.537 134.251C236.537 134.675 236.437 135.047 236.237 135.367C236.037 135.679 235.797 135.947 235.517 136.171C235.237 136.387 234.973 136.567 234.725 136.711L234.053 137.119C233.853 137.247 233.641 137.399 233.417 137.575C233.193 137.743 233.001 137.947 232.841 138.187C232.681 138.419 232.601 138.703 232.601 139.039C232.601 139.439 232.729 139.751 232.985 139.975C233.249 140.199 233.589 140.311 234.005 140.311C234.269 140.311 234.505 140.267 234.713 140.179C234.921 140.091 235.105 139.975 235.265 139.831C235.433 139.687 235.581 139.531 235.709 139.363C235.837 139.187 235.957 139.015 236.069 138.847L237.449 136.795H238.733L237.113 139.267C236.993 139.467 236.841 139.687 236.657 139.927C236.473 140.167 236.257 140.395 236.009 140.611C235.761 140.827 235.469 141.007 235.133 141.151C234.805 141.287 234.417 141.355 233.969 141.355ZM246.854 141.355C246.222 141.355 245.638 141.243 245.102 141.019C244.574 140.787 244.11 140.463 243.71 140.047C243.318 139.631 243.014 139.143 242.798 138.583C242.582 138.023 242.474 137.411 242.474 136.747C242.474 136.075 242.582 135.459 242.798 134.899C243.014 134.339 243.318 133.851 243.71 133.435C244.102 133.019 244.566 132.699 245.102 132.475C245.638 132.243 246.222 132.127 246.854 132.127C247.47 132.127 248.022 132.235 248.51 132.451C249.006 132.667 249.422 132.947 249.758 133.291C250.102 133.635 250.346 134.003 250.49 134.395L249.41 134.887C249.202 134.391 248.878 133.991 248.438 133.687C247.998 133.375 247.47 133.219 246.854 133.219C246.23 133.219 245.674 133.367 245.186 133.663C244.706 133.959 244.33 134.371 244.058 134.899C243.786 135.427 243.65 136.043 243.65 136.747C243.65 137.443 243.786 138.055 244.058 138.583C244.33 139.111 244.706 139.523 245.186 139.819C245.674 140.115 246.23 140.263 246.854 140.263C247.47 140.263 247.998 140.111 248.438 139.807C248.878 139.495 249.202 139.091 249.41 138.595L250.49 139.087C250.346 139.479 250.102 139.847 249.758 140.191C249.422 140.535 249.006 140.815 248.51 141.031C248.022 141.247 247.47 141.355 246.854 141.355ZM254.913 141.355C254.289 141.355 253.725 141.211 253.221 140.923C252.717 140.627 252.317 140.223 252.021 139.711C251.725 139.199 251.577 138.619 251.577 137.971C251.577 137.323 251.721 136.747 252.009 136.243C252.305 135.739 252.705 135.339 253.209 135.043C253.713 134.747 254.281 134.599 254.913 134.599C255.537 134.599 256.101 134.747 256.605 135.043C257.109 135.331 257.505 135.727 257.793 136.231C258.089 136.735 258.237 137.315 258.237 137.971C258.237 138.627 258.085 139.211 257.781 139.723C257.477 140.227 257.073 140.627 256.569 140.923C256.073 141.211 255.521 141.355 254.913 141.355ZM254.913 140.275C255.313 140.275 255.673 140.175 255.993 139.975C256.321 139.775 256.577 139.499 256.761 139.147C256.953 138.795 257.049 138.403 257.049 137.971C257.049 137.531 256.953 137.143 256.761 136.807C256.577 136.463 256.321 136.191 255.993 135.991C255.673 135.783 255.313 135.679 254.913 135.679C254.505 135.679 254.137 135.783 253.809 135.991C253.489 136.191 253.233 136.463 253.041 136.807C252.849 137.143 252.753 137.531 252.753 137.971C252.753 138.403 252.849 138.795 253.041 139.147C253.233 139.499 253.489 139.775 253.809 139.975C254.137 140.175 254.505 140.275 254.913 140.275Z" fill="#0C2459"/>
<path d="M220.662 170.8C220.094 170.8 219.574 170.696 219.102 170.488C218.63 170.272 218.23 169.98 217.902 169.612C217.574 169.244 217.338 168.832 217.194 168.376L218.214 167.956C218.43 168.532 218.75 168.976 219.174 169.288C219.606 169.592 220.11 169.744 220.686 169.744C221.038 169.744 221.346 169.688 221.61 169.576C221.874 169.464 222.078 169.308 222.222 169.108C222.374 168.9 222.45 168.66 222.45 168.388C222.45 168.012 222.342 167.716 222.126 167.5C221.918 167.276 221.61 167.108 221.202 166.996L219.558 166.492C218.91 166.292 218.414 165.976 218.07 165.544C217.726 165.112 217.554 164.616 217.554 164.056C217.554 163.568 217.67 163.14 217.902 162.772C218.142 162.396 218.47 162.104 218.886 161.896C219.31 161.68 219.79 161.572 220.326 161.572C220.862 161.572 221.346 161.668 221.778 161.86C222.218 162.052 222.59 162.312 222.894 162.64C223.198 162.96 223.422 163.328 223.566 163.744L222.558 164.164C222.366 163.66 222.078 163.28 221.694 163.024C221.31 162.76 220.858 162.628 220.338 162.628C220.018 162.628 219.734 162.684 219.486 162.796C219.246 162.9 219.058 163.056 218.922 163.264C218.794 163.464 218.73 163.704 218.73 163.984C218.73 164.312 218.834 164.604 219.042 164.86C219.25 165.116 219.566 165.312 219.99 165.448L221.49 165.892C222.194 166.108 222.726 166.416 223.086 166.816C223.446 167.216 223.626 167.712 223.626 168.304C223.626 168.792 223.498 169.224 223.242 169.6C222.994 169.976 222.646 170.272 222.198 170.488C221.758 170.696 221.246 170.8 220.662 170.8ZM225.216 170.656V161.572H226.332V165.448L226.128 165.34C226.288 164.932 226.544 164.616 226.896 164.392C227.256 164.16 227.676 164.044 228.156 164.044C228.62 164.044 229.032 164.148 229.392 164.356C229.76 164.564 230.048 164.852 230.256 165.22C230.472 165.588 230.58 166.004 230.58 166.468V170.656H229.452V166.828C229.452 166.468 229.384 166.164 229.248 165.916C229.12 165.668 228.94 165.476 228.708 165.34C228.476 165.196 228.208 165.124 227.904 165.124C227.608 165.124 227.34 165.196 227.1 165.34C226.86 165.476 226.672 165.672 226.536 165.928C226.4 166.176 226.332 166.476 226.332 166.828V170.656H225.216ZM232.177 170.656V164.188H233.293V170.656H232.177ZM232.177 163.156V161.716H233.293V163.156H232.177ZM235.708 170.656V165.256H234.472V164.188H235.708V163.732C235.708 163.268 235.808 162.876 236.008 162.556C236.216 162.236 236.488 161.992 236.824 161.824C237.168 161.656 237.548 161.572 237.964 161.572C238.052 161.572 238.148 161.58 238.252 161.596C238.364 161.604 238.456 161.616 238.528 161.632V162.628C238.464 162.612 238.388 162.604 238.3 162.604C238.212 162.596 238.144 162.592 238.096 162.592C237.728 162.592 237.424 162.68 237.184 162.856C236.952 163.032 236.836 163.324 236.836 163.732V164.188H238.372V165.256H236.836V170.656H235.708ZM242.597 170.728C241.965 170.728 241.477 170.548 241.133 170.188C240.797 169.828 240.629 169.32 240.629 168.664V165.256H239.453V164.188H239.693C239.981 164.188 240.209 164.1 240.377 163.924C240.545 163.748 240.629 163.516 240.629 163.228V162.7H241.745V164.188H243.197V165.256H241.745V168.628C241.745 168.844 241.777 169.032 241.841 169.192C241.913 169.352 242.029 169.48 242.189 169.576C242.349 169.664 242.561 169.708 242.825 169.708C242.881 169.708 242.949 169.704 243.029 169.696C243.117 169.688 243.197 169.68 243.269 169.672V170.656C243.165 170.68 243.049 170.696 242.921 170.704C242.793 170.72 242.685 170.728 242.597 170.728Z" fill="#0C2459"/>
<path d="M217.59 200.102V191.162H218.574L223.71 198.386L223.266 198.434V191.162H224.454V200.102H223.47L218.358 192.83L218.766 192.782V200.102H217.59ZM229.389 200.246C228.765 200.246 228.201 200.102 227.697 199.814C227.193 199.518 226.793 199.114 226.497 198.602C226.201 198.09 226.053 197.51 226.053 196.862C226.053 196.214 226.197 195.638 226.485 195.134C226.781 194.63 227.181 194.23 227.685 193.934C228.189 193.638 228.757 193.49 229.389 193.49C230.013 193.49 230.577 193.638 231.081 193.934C231.585 194.222 231.981 194.618 232.269 195.122C232.565 195.626 232.713 196.206 232.713 196.862C232.713 197.518 232.561 198.102 232.257 198.614C231.953 199.118 231.549 199.518 231.045 199.814C230.549 200.102 229.997 200.246 229.389 200.246ZM229.389 199.166C229.789 199.166 230.149 199.066 230.469 198.866C230.797 198.666 231.053 198.39 231.237 198.038C231.429 197.686 231.525 197.294 231.525 196.862C231.525 196.422 231.429 196.034 231.237 195.698C231.053 195.354 230.797 195.082 230.469 194.882C230.149 194.674 229.789 194.57 229.389 194.57C228.981 194.57 228.613 194.674 228.285 194.882C227.965 195.082 227.709 195.354 227.517 195.698C227.325 196.034 227.229 196.422 227.229 196.862C227.229 197.294 227.325 197.686 227.517 198.038C227.709 198.39 227.965 198.666 228.285 198.866C228.613 199.066 228.981 199.166 229.389 199.166ZM235.852 200.102L233.32 193.634H234.568L236.596 199.106H236.164L238.204 193.634H239.452L236.908 200.102H235.852ZM246.016 200.246C245.304 200.246 244.68 200.054 244.144 199.67C243.616 199.278 243.204 198.738 242.908 198.05C242.612 197.354 242.464 196.546 242.464 195.626C242.464 194.706 242.612 193.902 242.908 193.214C243.204 192.518 243.616 191.978 244.144 191.594C244.672 191.21 245.292 191.018 246.004 191.018C246.716 191.018 247.336 191.21 247.864 191.594C248.392 191.978 248.804 192.518 249.1 193.214C249.404 193.902 249.556 194.706 249.556 195.626C249.556 196.546 249.408 197.354 249.112 198.05C248.816 198.746 248.4 199.286 247.864 199.67C247.336 200.054 246.72 200.246 246.016 200.246ZM246.016 199.154C246.496 199.154 246.912 199.01 247.264 198.722C247.616 198.426 247.888 198.014 248.08 197.486C248.28 196.958 248.38 196.338 248.38 195.626C248.38 194.914 248.28 194.294 248.08 193.766C247.888 193.238 247.612 192.83 247.252 192.542C246.9 192.254 246.484 192.11 246.004 192.11C245.524 192.11 245.108 192.254 244.756 192.542C244.404 192.83 244.128 193.238 243.928 193.766C243.736 194.294 243.64 194.914 243.64 195.626C243.64 196.33 243.736 196.946 243.928 197.474C244.128 198.002 244.404 198.414 244.756 198.71C245.116 199.006 245.536 199.154 246.016 199.154ZM250.992 200.102V199.286L253.464 196.61C253.952 196.09 254.34 195.662 254.628 195.326C254.924 194.99 255.14 194.69 255.276 194.426C255.412 194.162 255.48 193.882 255.48 193.586C255.48 193.098 255.336 192.722 255.048 192.458C254.76 192.194 254.38 192.062 253.908 192.062C253.428 192.062 253.02 192.202 252.684 192.482C252.348 192.754 252.116 193.142 251.988 193.646L250.92 193.37C251.024 192.89 251.216 192.474 251.496 192.122C251.776 191.77 252.124 191.498 252.54 191.306C252.956 191.114 253.412 191.018 253.908 191.018C254.452 191.018 254.928 191.126 255.336 191.342C255.752 191.55 256.076 191.842 256.308 192.218C256.548 192.594 256.668 193.03 256.668 193.526C256.668 193.854 256.6 194.174 256.464 194.486C256.328 194.798 256.128 195.13 255.864 195.482C255.6 195.826 255.256 196.226 254.832 196.682L252.624 199.082H256.86V200.102H250.992ZM258.583 201.77V201.23C258.831 201.166 259.019 201.042 259.147 200.858C259.275 200.674 259.347 200.422 259.363 200.102H258.823V198.662H259.987V199.682C259.987 200.258 259.867 200.722 259.627 201.074C259.395 201.426 259.047 201.658 258.583 201.77ZM263.836 200.102V199.286L266.308 196.61C266.796 196.09 267.184 195.662 267.472 195.326C267.768 194.99 267.984 194.69 268.12 194.426C268.256 194.162 268.324 193.882 268.324 193.586C268.324 193.098 268.18 192.722 267.892 192.458C267.604 192.194 267.224 192.062 266.752 192.062C266.272 192.062 265.864 192.202 265.528 192.482C265.192 192.754 264.96 193.142 264.832 193.646L263.764 193.37C263.868 192.89 264.06 192.474 264.34 192.122C264.62 191.77 264.968 191.498 265.384 191.306C265.8 191.114 266.256 191.018 266.752 191.018C267.296 191.018 267.772 191.126 268.18 191.342C268.596 191.55 268.92 191.842 269.152 192.218C269.392 192.594 269.512 193.03 269.512 193.526C269.512 193.854 269.444 194.174 269.308 194.486C269.172 194.798 268.972 195.13 268.708 195.482C268.444 195.826 268.1 196.226 267.676 196.682L265.468 199.082H269.704V200.102H263.836ZM274.727 200.246C274.015 200.246 273.391 200.054 272.855 199.67C272.327 199.278 271.915 198.738 271.619 198.05C271.323 197.354 271.175 196.546 271.175 195.626C271.175 194.706 271.323 193.902 271.619 193.214C271.915 192.518 272.327 191.978 272.855 191.594C273.383 191.21 274.003 191.018 274.715 191.018C275.427 191.018 276.047 191.21 276.575 191.594C277.103 191.978 277.515 192.518 277.811 193.214C278.115 193.902 278.267 194.706 278.267 195.626C278.267 196.546 278.119 197.354 277.823 198.05C277.527 198.746 277.111 199.286 276.575 199.67C276.047 200.054 275.431 200.246 274.727 200.246ZM274.727 199.154C275.207 199.154 275.623 199.01 275.975 198.722C276.327 198.426 276.599 198.014 276.791 197.486C276.991 196.958 277.091 196.338 277.091 195.626C277.091 194.914 276.991 194.294 276.791 193.766C276.599 193.238 276.323 192.83 275.963 192.542C275.611 192.254 275.195 192.11 274.715 192.11C274.235 192.11 273.819 192.254 273.467 192.542C273.115 192.83 272.839 193.238 272.639 193.766C272.447 194.294 272.351 194.914 272.351 195.626C272.351 196.33 272.447 196.946 272.639 197.474C272.839 198.002 273.115 198.414 273.467 198.71C273.827 199.006 274.247 199.154 274.727 199.154ZM279.703 200.102V199.286L282.175 196.61C282.663 196.09 283.051 195.662 283.339 195.326C283.635 194.99 283.851 194.69 283.987 194.426C284.123 194.162 284.191 193.882 284.191 193.586C284.191 193.098 284.047 192.722 283.759 192.458C283.471 192.194 283.091 192.062 282.619 192.062C282.139 192.062 281.731 192.202 281.395 192.482C281.059 192.754 280.827 193.142 280.699 193.646L279.631 193.37C279.735 192.89 279.927 192.474 280.207 192.122C280.487 191.77 280.835 191.498 281.251 191.306C281.667 191.114 282.123 191.018 282.619 191.018C283.163 191.018 283.639 191.126 284.047 191.342C284.463 191.55 284.787 191.842 285.019 192.218C285.259 192.594 285.379 193.03 285.379 193.526C285.379 193.854 285.311 194.174 285.175 194.486C285.039 194.798 284.839 195.13 284.575 195.482C284.311 195.826 283.967 196.226 283.543 196.682L281.335 199.082H285.571V200.102H279.703ZM289.766 200.246C289.294 200.246 288.854 200.162 288.446 199.994C288.038 199.826 287.686 199.59 287.39 199.286C287.094 198.974 286.874 198.606 286.73 198.182L287.726 197.774C287.894 198.222 288.158 198.57 288.518 198.818C288.878 199.066 289.294 199.19 289.766 199.19C290.134 199.19 290.462 199.118 290.75 198.974C291.038 198.83 291.262 198.622 291.422 198.35C291.59 198.078 291.674 197.75 291.674 197.366C291.674 196.974 291.59 196.646 291.422 196.382C291.262 196.11 291.038 195.902 290.75 195.758C290.462 195.614 290.13 195.542 289.754 195.542C289.634 195.542 289.502 195.55 289.358 195.566C289.222 195.582 289.106 195.606 289.01 195.638L288.758 195.098L291.146 192.182H287.186V191.162H292.478V192.146L290.198 194.954L290.126 194.642C290.662 194.658 291.134 194.782 291.542 195.014C291.95 195.246 292.27 195.562 292.502 195.962C292.734 196.354 292.85 196.814 292.85 197.342C292.85 197.886 292.718 198.378 292.454 198.818C292.19 199.258 291.826 199.606 291.362 199.862C290.898 200.118 290.366 200.246 289.766 200.246ZM299.993 200.246C299.281 200.246 298.657 200.054 298.121 199.67C297.593 199.278 297.181 198.738 296.885 198.05C296.589 197.354 296.441 196.546 296.441 195.626C296.441 194.706 296.589 193.902 296.885 193.214C297.181 192.518 297.593 191.978 298.121 191.594C298.649 191.21 299.269 191.018 299.981 191.018C300.693 191.018 301.313 191.21 301.841 191.594C302.369 191.978 302.781 192.518 303.077 193.214C303.381 193.902 303.533 194.706 303.533 195.626C303.533 196.546 303.385 197.354 303.089 198.05C302.793 198.746 302.377 199.286 301.841 199.67C301.313 200.054 300.697 200.246 299.993 200.246ZM299.993 199.154C300.473 199.154 300.889 199.01 301.241 198.722C301.593 198.426 301.865 198.014 302.057 197.486C302.257 196.958 302.357 196.338 302.357 195.626C302.357 194.914 302.257 194.294 302.057 193.766C301.865 193.238 301.589 192.83 301.229 192.542C300.877 192.254 300.461 192.11 299.981 192.11C299.501 192.11 299.085 192.254 298.733 192.542C298.381 192.83 298.105 193.238 297.905 193.766C297.713 194.294 297.617 194.914 297.617 195.626C297.617 196.33 297.713 196.946 297.905 197.474C298.105 198.002 298.381 198.414 298.733 198.71C299.093 199.006 299.513 199.154 299.993 199.154ZM307.932 200.246C307.356 200.246 306.844 200.118 306.396 199.862C305.956 199.606 305.608 199.258 305.352 198.818C305.096 198.37 304.968 197.862 304.968 197.294C304.968 196.982 305.004 196.674 305.076 196.37C305.148 196.066 305.264 195.758 305.424 195.446C305.584 195.134 305.788 194.81 306.036 194.474L308.556 191.162H309.972L306.888 195.17L306.672 195.146C306.792 194.986 306.924 194.862 307.068 194.774C307.22 194.686 307.38 194.622 307.548 194.582C307.724 194.542 307.908 194.522 308.1 194.522C308.628 194.522 309.1 194.646 309.516 194.894C309.94 195.134 310.272 195.466 310.512 195.89C310.76 196.314 310.884 196.802 310.884 197.354C310.884 197.906 310.756 198.402 310.5 198.842C310.244 199.274 309.892 199.618 309.444 199.874C309.004 200.122 308.5 200.246 307.932 200.246ZM307.932 199.19C308.268 199.19 308.568 199.114 308.832 198.962C309.096 198.802 309.304 198.582 309.456 198.302C309.616 198.022 309.696 197.71 309.696 197.366C309.696 197.006 309.62 196.694 309.468 196.43C309.316 196.158 309.108 195.942 308.844 195.782C308.58 195.622 308.276 195.542 307.932 195.542C307.596 195.542 307.292 195.622 307.02 195.782C306.748 195.942 306.536 196.158 306.384 196.43C306.232 196.694 306.156 197.006 306.156 197.366C306.156 197.71 306.232 198.022 306.384 198.302C306.544 198.582 306.756 198.802 307.02 198.962C307.292 199.114 307.596 199.19 307.932 199.19ZM312.824 200.102V198.662H313.988V200.102H312.824ZM312.824 195.074V193.634H313.988V195.074H312.824ZM319.669 200.246C318.957 200.246 318.333 200.054 317.797 199.67C317.269 199.278 316.857 198.738 316.561 198.05C316.265 197.354 316.117 196.546 316.117 195.626C316.117 194.706 316.265 193.902 316.561 193.214C316.857 192.518 317.269 191.978 317.797 191.594C318.325 191.21 318.945 191.018 319.657 191.018C320.369 191.018 320.989 191.21 321.517 191.594C322.045 191.978 322.457 192.518 322.753 193.214C323.057 193.902 323.209 194.706 323.209 195.626C323.209 196.546 323.061 197.354 322.765 198.05C322.469 198.746 322.053 199.286 321.517 199.67C320.989 200.054 320.373 200.246 319.669 200.246ZM319.669 199.154C320.149 199.154 320.565 199.01 320.917 198.722C321.269 198.426 321.541 198.014 321.733 197.486C321.933 196.958 322.033 196.338 322.033 195.626C322.033 194.914 321.933 194.294 321.733 193.766C321.541 193.238 321.265 192.83 320.905 192.542C320.553 192.254 320.137 192.11 319.657 192.11C319.177 192.11 318.761 192.254 318.409 192.542C318.057 192.83 317.781 193.238 317.581 193.766C317.389 194.294 317.293 194.914 317.293 195.626C317.293 196.33 317.389 196.946 317.581 197.474C317.781 198.002 318.057 198.414 318.409 198.71C318.769 199.006 319.189 199.154 319.669 199.154ZM328.352 200.246C327.64 200.246 327.016 200.054 326.48 199.67C325.952 199.278 325.54 198.738 325.244 198.05C324.948 197.354 324.8 196.546 324.8 195.626C324.8 194.706 324.948 193.902 325.244 193.214C325.54 192.518 325.952 191.978 326.48 191.594C327.008 191.21 327.628 191.018 328.34 191.018C329.052 191.018 329.672 191.21 330.2 191.594C330.728 191.978 331.14 192.518 331.436 193.214C331.74 193.902 331.892 194.706 331.892 195.626C331.892 196.546 331.744 197.354 331.448 198.05C331.152 198.746 330.736 199.286 330.2 199.67C329.672 200.054 329.056 200.246 328.352 200.246ZM328.352 199.154C328.832 199.154 329.248 199.01 329.6 198.722C329.952 198.426 330.224 198.014 330.416 197.486C330.616 196.958 330.716 196.338 330.716 195.626C330.716 194.914 330.616 194.294 330.416 193.766C330.224 193.238 329.948 192.83 329.588 192.542C329.236 192.254 328.82 192.11 328.34 192.11C327.86 192.11 327.444 192.254 327.092 192.542C326.74 192.83 326.464 193.238 326.264 193.766C326.072 194.294 325.976 194.914 325.976 195.626C325.976 196.33 326.072 196.946 326.264 197.474C326.464 198.002 326.74 198.414 327.092 198.71C327.452 199.006 327.872 199.154 328.352 199.154ZM334 200.102V198.662H335.164V200.102H334ZM334 195.074V193.634H335.164V195.074H334ZM340.844 200.246C340.132 200.246 339.508 200.054 338.972 199.67C338.444 199.278 338.032 198.738 337.736 198.05C337.44 197.354 337.292 196.546 337.292 195.626C337.292 194.706 337.44 193.902 337.736 193.214C338.032 192.518 338.444 191.978 338.972 191.594C339.5 191.21 340.12 191.018 340.832 191.018C341.544 191.018 342.164 191.21 342.692 191.594C343.22 191.978 343.632 192.518 343.928 193.214C344.232 193.902 344.384 194.706 344.384 195.626C344.384 196.546 344.236 197.354 343.94 198.05C343.644 198.746 343.228 199.286 342.692 199.67C342.164 200.054 341.548 200.246 340.844 200.246ZM340.844 199.154C341.324 199.154 341.74 199.01 342.092 198.722C342.444 198.426 342.716 198.014 342.908 197.486C343.108 196.958 343.208 196.338 343.208 195.626C343.208 194.914 343.108 194.294 342.908 193.766C342.716 193.238 342.44 192.83 342.08 192.542C341.728 192.254 341.312 192.11 340.832 192.11C340.352 192.11 339.936 192.254 339.584 192.542C339.232 192.83 338.956 193.238 338.756 193.766C338.564 194.294 338.468 194.914 338.468 195.626C338.468 196.33 338.564 196.946 338.756 197.474C338.956 198.002 339.232 198.414 339.584 198.71C339.944 199.006 340.364 199.154 340.844 199.154ZM349.528 200.246C348.816 200.246 348.192 200.054 347.656 199.67C347.128 199.278 346.716 198.738 346.42 198.05C346.124 197.354 345.976 196.546 345.976 195.626C345.976 194.706 346.124 193.902 346.42 193.214C346.716 192.518 347.128 191.978 347.656 191.594C348.184 191.21 348.804 191.018 349.516 191.018C350.228 191.018 350.848 191.21 351.376 191.594C351.904 191.978 352.316 192.518 352.612 193.214C352.916 193.902 353.068 194.706 353.068 195.626C353.068 196.546 352.92 197.354 352.624 198.05C352.328 198.746 351.912 199.286 351.376 199.67C350.848 200.054 350.232 200.246 349.528 200.246ZM349.528 199.154C350.008 199.154 350.424 199.01 350.776 198.722C351.128 198.426 351.4 198.014 351.592 197.486C351.792 196.958 351.892 196.338 351.892 195.626C351.892 194.914 351.792 194.294 351.592 193.766C351.4 193.238 351.124 192.83 350.764 192.542C350.412 192.254 349.996 192.11 349.516 192.11C349.036 192.11 348.62 192.254 348.268 192.542C347.916 192.83 347.64 193.238 347.44 193.766C347.248 194.294 347.152 194.914 347.152 195.626C347.152 196.33 347.248 196.946 347.44 197.474C347.64 198.002 347.916 198.414 348.268 198.71C348.628 199.006 349.048 199.154 349.528 199.154ZM356.926 200.102V191.162H360.082C360.674 191.162 361.194 191.274 361.642 191.498C362.09 191.722 362.438 192.042 362.686 192.458C362.942 192.874 363.07 193.362 363.07 193.922C363.07 194.482 362.942 194.97 362.686 195.386C362.438 195.794 362.09 196.114 361.642 196.346C361.202 196.57 360.682 196.682 360.082 196.682H358.102V200.102H356.926ZM358.102 195.602H360.118C360.478 195.602 360.79 195.534 361.054 195.398C361.318 195.262 361.522 195.066 361.666 194.81C361.81 194.554 361.882 194.258 361.882 193.922C361.882 193.578 361.81 193.282 361.666 193.034C361.522 192.778 361.318 192.582 361.054 192.446C360.79 192.31 360.478 192.242 360.118 192.242H358.102V195.602ZM364.66 200.102V191.162H365.74L369.088 195.926H368.536L371.86 191.162H372.94V200.102H371.752V192.65L372.172 192.782L368.848 197.462H368.752L365.464 192.782L365.836 192.65V200.102H364.66Z" fill="#0C2459"/>
<path d="M217.59 229.547V220.607H218.574L223.71 227.831L223.266 227.879V220.607H224.454V229.547H223.47L218.358 222.275L218.766 222.227V229.547H217.59ZM229.389 229.691C228.765 229.691 228.201 229.547 227.697 229.259C227.193 228.963 226.793 228.559 226.497 228.047C226.201 227.535 226.053 226.955 226.053 226.307C226.053 225.659 226.197 225.083 226.485 224.579C226.781 224.075 227.181 223.675 227.685 223.379C228.189 223.083 228.757 222.935 229.389 222.935C230.013 222.935 230.577 223.083 231.081 223.379C231.585 223.667 231.981 224.063 232.269 224.567C232.565 225.071 232.713 225.651 232.713 226.307C232.713 226.963 232.561 227.547 232.257 228.059C231.953 228.563 231.549 228.963 231.045 229.259C230.549 229.547 229.997 229.691 229.389 229.691ZM229.389 228.611C229.789 228.611 230.149 228.511 230.469 228.311C230.797 228.111 231.053 227.835 231.237 227.483C231.429 227.131 231.525 226.739 231.525 226.307C231.525 225.867 231.429 225.479 231.237 225.143C231.053 224.799 230.797 224.527 230.469 224.327C230.149 224.119 229.789 224.015 229.389 224.015C228.981 224.015 228.613 224.119 228.285 224.327C227.965 224.527 227.709 224.799 227.517 225.143C227.325 225.479 227.229 225.867 227.229 226.307C227.229 226.739 227.325 227.131 227.517 227.483C227.709 227.835 227.965 228.111 228.285 228.311C228.613 228.511 228.981 228.611 229.389 228.611ZM235.852 229.547L233.32 223.079H234.568L236.596 228.551H236.164L238.204 223.079H239.452L236.908 229.547H235.852ZM246.016 229.691C245.304 229.691 244.68 229.499 244.144 229.115C243.616 228.723 243.204 228.183 242.908 227.495C242.612 226.799 242.464 225.991 242.464 225.071C242.464 224.151 242.612 223.347 242.908 222.659C243.204 221.963 243.616 221.423 244.144 221.039C244.672 220.655 245.292 220.463 246.004 220.463C246.716 220.463 247.336 220.655 247.864 221.039C248.392 221.423 248.804 221.963 249.1 222.659C249.404 223.347 249.556 224.151 249.556 225.071C249.556 225.991 249.408 226.799 249.112 227.495C248.816 228.191 248.4 228.731 247.864 229.115C247.336 229.499 246.72 229.691 246.016 229.691ZM246.016 228.599C246.496 228.599 246.912 228.455 247.264 228.167C247.616 227.871 247.888 227.459 248.08 226.931C248.28 226.403 248.38 225.783 248.38 225.071C248.38 224.359 248.28 223.739 248.08 223.211C247.888 222.683 247.612 222.275 247.252 221.987C246.9 221.699 246.484 221.555 246.004 221.555C245.524 221.555 245.108 221.699 244.756 221.987C244.404 222.275 244.128 222.683 243.928 223.211C243.736 223.739 243.64 224.359 243.64 225.071C243.64 225.775 243.736 226.391 243.928 226.919C244.128 227.447 244.404 227.859 244.756 228.155C245.116 228.451 245.536 228.599 246.016 228.599ZM250.992 229.547V228.731L253.464 226.055C253.952 225.535 254.34 225.107 254.628 224.771C254.924 224.435 255.14 224.135 255.276 223.871C255.412 223.607 255.48 223.327 255.48 223.031C255.48 222.543 255.336 222.167 255.048 221.903C254.76 221.639 254.38 221.507 253.908 221.507C253.428 221.507 253.02 221.647 252.684 221.927C252.348 222.199 252.116 222.587 251.988 223.091L250.92 222.815C251.024 222.335 251.216 221.919 251.496 221.567C251.776 221.215 252.124 220.943 252.54 220.751C252.956 220.559 253.412 220.463 253.908 220.463C254.452 220.463 254.928 220.571 255.336 220.787C255.752 220.995 256.076 221.287 256.308 221.663C256.548 222.039 256.668 222.475 256.668 222.971C256.668 223.299 256.6 223.619 256.464 223.931C256.328 224.243 256.128 224.575 255.864 224.927C255.6 225.271 255.256 225.671 254.832 226.127L252.624 228.527H256.86V229.547H250.992ZM258.583 231.215V230.675C258.831 230.611 259.019 230.487 259.147 230.303C259.275 230.119 259.347 229.867 259.363 229.547H258.823V228.107H259.987V229.127C259.987 229.703 259.867 230.167 259.627 230.519C259.395 230.871 259.047 231.103 258.583 231.215ZM263.836 229.547V228.731L266.308 226.055C266.796 225.535 267.184 225.107 267.472 224.771C267.768 224.435 267.984 224.135 268.12 223.871C268.256 223.607 268.324 223.327 268.324 223.031C268.324 222.543 268.18 222.167 267.892 221.903C267.604 221.639 267.224 221.507 266.752 221.507C266.272 221.507 265.864 221.647 265.528 221.927C265.192 222.199 264.96 222.587 264.832 223.091L263.764 222.815C263.868 222.335 264.06 221.919 264.34 221.567C264.62 221.215 264.968 220.943 265.384 220.751C265.8 220.559 266.256 220.463 266.752 220.463C267.296 220.463 267.772 220.571 268.18 220.787C268.596 220.995 268.92 221.287 269.152 221.663C269.392 222.039 269.512 222.475 269.512 222.971C269.512 223.299 269.444 223.619 269.308 223.931C269.172 224.243 268.972 224.575 268.708 224.927C268.444 225.271 268.1 225.671 267.676 226.127L265.468 228.527H269.704V229.547H263.836ZM274.727 229.691C274.015 229.691 273.391 229.499 272.855 229.115C272.327 228.723 271.915 228.183 271.619 227.495C271.323 226.799 271.175 225.991 271.175 225.071C271.175 224.151 271.323 223.347 271.619 222.659C271.915 221.963 272.327 221.423 272.855 221.039C273.383 220.655 274.003 220.463 274.715 220.463C275.427 220.463 276.047 220.655 276.575 221.039C277.103 221.423 277.515 221.963 277.811 222.659C278.115 223.347 278.267 224.151 278.267 225.071C278.267 225.991 278.119 226.799 277.823 227.495C277.527 228.191 277.111 228.731 276.575 229.115C276.047 229.499 275.431 229.691 274.727 229.691ZM274.727 228.599C275.207 228.599 275.623 228.455 275.975 228.167C276.327 227.871 276.599 227.459 276.791 226.931C276.991 226.403 277.091 225.783 277.091 225.071C277.091 224.359 276.991 223.739 276.791 223.211C276.599 222.683 276.323 222.275 275.963 221.987C275.611 221.699 275.195 221.555 274.715 221.555C274.235 221.555 273.819 221.699 273.467 221.987C273.115 222.275 272.839 222.683 272.639 223.211C272.447 223.739 272.351 224.359 272.351 225.071C272.351 225.775 272.447 226.391 272.639 226.919C272.839 227.447 273.115 227.859 273.467 228.155C273.827 228.451 274.247 228.599 274.727 228.599ZM279.703 229.547V228.731L282.175 226.055C282.663 225.535 283.051 225.107 283.339 224.771C283.635 224.435 283.851 224.135 283.987 223.871C284.123 223.607 284.191 223.327 284.191 223.031C284.191 222.543 284.047 222.167 283.759 221.903C283.471 221.639 283.091 221.507 282.619 221.507C282.139 221.507 281.731 221.647 281.395 221.927C281.059 222.199 280.827 222.587 280.699 223.091L279.631 222.815C279.735 222.335 279.927 221.919 280.207 221.567C280.487 221.215 280.835 220.943 281.251 220.751C281.667 220.559 282.123 220.463 282.619 220.463C283.163 220.463 283.639 220.571 284.047 220.787C284.463 220.995 284.787 221.287 285.019 221.663C285.259 222.039 285.379 222.475 285.379 222.971C285.379 223.299 285.311 223.619 285.175 223.931C285.039 224.243 284.839 224.575 284.575 224.927C284.311 225.271 283.967 225.671 283.543 226.127L281.335 228.527H285.571V229.547H279.703ZM289.766 229.691C289.294 229.691 288.854 229.607 288.446 229.439C288.038 229.271 287.686 229.035 287.39 228.731C287.094 228.419 286.874 228.051 286.73 227.627L287.726 227.219C287.894 227.667 288.158 228.015 288.518 228.263C288.878 228.511 289.294 228.635 289.766 228.635C290.134 228.635 290.462 228.563 290.75 228.419C291.038 228.275 291.262 228.067 291.422 227.795C291.59 227.523 291.674 227.195 291.674 226.811C291.674 226.419 291.59 226.091 291.422 225.827C291.262 225.555 291.038 225.347 290.75 225.203C290.462 225.059 290.13 224.987 289.754 224.987C289.634 224.987 289.502 224.995 289.358 225.011C289.222 225.027 289.106 225.051 289.01 225.083L288.758 224.543L291.146 221.627H287.186V220.607H292.478V221.591L290.198 224.399L290.126 224.087C290.662 224.103 291.134 224.227 291.542 224.459C291.95 224.691 292.27 225.007 292.502 225.407C292.734 225.799 292.85 226.259 292.85 226.787C292.85 227.331 292.718 227.823 292.454 228.263C292.19 228.703 291.826 229.051 291.362 229.307C290.898 229.563 290.366 229.691 289.766 229.691ZM299.993 229.691C299.281 229.691 298.657 229.499 298.121 229.115C297.593 228.723 297.181 228.183 296.885 227.495C296.589 226.799 296.441 225.991 296.441 225.071C296.441 224.151 296.589 223.347 296.885 222.659C297.181 221.963 297.593 221.423 298.121 221.039C298.649 220.655 299.269 220.463 299.981 220.463C300.693 220.463 301.313 220.655 301.841 221.039C302.369 221.423 302.781 221.963 303.077 222.659C303.381 223.347 303.533 224.151 303.533 225.071C303.533 225.991 303.385 226.799 303.089 227.495C302.793 228.191 302.377 228.731 301.841 229.115C301.313 229.499 300.697 229.691 299.993 229.691ZM299.993 228.599C300.473 228.599 300.889 228.455 301.241 228.167C301.593 227.871 301.865 227.459 302.057 226.931C302.257 226.403 302.357 225.783 302.357 225.071C302.357 224.359 302.257 223.739 302.057 223.211C301.865 222.683 301.589 222.275 301.229 221.987C300.877 221.699 300.461 221.555 299.981 221.555C299.501 221.555 299.085 221.699 298.733 221.987C298.381 222.275 298.105 222.683 297.905 223.211C297.713 223.739 297.617 224.359 297.617 225.071C297.617 225.775 297.713 226.391 297.905 226.919C298.105 227.447 298.381 227.859 298.733 228.155C299.093 228.451 299.513 228.599 299.993 228.599ZM305.244 229.547L309.168 221.627H304.788V220.607H310.404V221.627L306.516 229.547H305.244ZM312.215 229.547V228.107H313.379V229.547H312.215ZM312.215 224.519V223.079H313.379V224.519H312.215ZM319.059 229.691C318.347 229.691 317.723 229.499 317.187 229.115C316.659 228.723 316.247 228.183 315.951 227.495C315.655 226.799 315.507 225.991 315.507 225.071C315.507 224.151 315.655 223.347 315.951 222.659C316.247 221.963 316.659 221.423 317.187 221.039C317.715 220.655 318.335 220.463 319.047 220.463C319.759 220.463 320.379 220.655 320.907 221.039C321.435 221.423 321.847 221.963 322.143 222.659C322.447 223.347 322.599 224.151 322.599 225.071C322.599 225.991 322.451 226.799 322.155 227.495C321.859 228.191 321.443 228.731 320.907 229.115C320.379 229.499 319.763 229.691 319.059 229.691ZM319.059 228.599C319.539 228.599 319.955 228.455 320.307 228.167C320.659 227.871 320.931 227.459 321.123 226.931C321.323 226.403 321.423 225.783 321.423 225.071C321.423 224.359 321.323 223.739 321.123 223.211C320.931 222.683 320.655 222.275 320.295 221.987C319.943 221.699 319.527 221.555 319.047 221.555C318.567 221.555 318.151 221.699 317.799 221.987C317.447 222.275 317.171 222.683 316.971 223.211C316.779 223.739 316.683 224.359 316.683 225.071C316.683 225.775 316.779 226.391 316.971 226.919C317.171 227.447 317.447 227.859 317.799 228.155C318.159 228.451 318.579 228.599 319.059 228.599ZM327.743 229.691C327.031 229.691 326.407 229.499 325.871 229.115C325.343 228.723 324.931 228.183 324.635 227.495C324.339 226.799 324.191 225.991 324.191 225.071C324.191 224.151 324.339 223.347 324.635 222.659C324.931 221.963 325.343 221.423 325.871 221.039C326.399 220.655 327.019 220.463 327.731 220.463C328.443 220.463 329.063 220.655 329.591 221.039C330.119 221.423 330.531 221.963 330.827 222.659C331.131 223.347 331.283 224.151 331.283 225.071C331.283 225.991 331.135 226.799 330.839 227.495C330.543 228.191 330.127 228.731 329.591 229.115C329.063 229.499 328.447 229.691 327.743 229.691ZM327.743 228.599C328.223 228.599 328.639 228.455 328.991 228.167C329.343 227.871 329.615 227.459 329.807 226.931C330.007 226.403 330.107 225.783 330.107 225.071C330.107 224.359 330.007 223.739 329.807 223.211C329.615 222.683 329.339 222.275 328.979 221.987C328.627 221.699 328.211 221.555 327.731 221.555C327.251 221.555 326.835 221.699 326.483 221.987C326.131 222.275 325.855 222.683 325.655 223.211C325.463 223.739 325.367 224.359 325.367 225.071C325.367 225.775 325.463 226.391 325.655 226.919C325.855 227.447 326.131 227.859 326.483 228.155C326.843 228.451 327.263 228.599 327.743 228.599ZM333.39 229.547V228.107H334.554V229.547H333.39ZM333.39 224.519V223.079H334.554V224.519H333.39ZM340.235 229.691C339.523 229.691 338.899 229.499 338.363 229.115C337.835 228.723 337.423 228.183 337.127 227.495C336.831 226.799 336.683 225.991 336.683 225.071C336.683 224.151 336.831 223.347 337.127 222.659C337.423 221.963 337.835 221.423 338.363 221.039C338.891 220.655 339.511 220.463 340.223 220.463C340.935 220.463 341.555 220.655 342.083 221.039C342.611 221.423 343.023 221.963 343.319 222.659C343.623 223.347 343.775 224.151 343.775 225.071C343.775 225.991 343.627 226.799 343.331 227.495C343.035 228.191 342.619 228.731 342.083 229.115C341.555 229.499 340.939 229.691 340.235 229.691ZM340.235 228.599C340.715 228.599 341.131 228.455 341.483 228.167C341.835 227.871 342.107 227.459 342.299 226.931C342.499 226.403 342.599 225.783 342.599 225.071C342.599 224.359 342.499 223.739 342.299 223.211C342.107 222.683 341.831 222.275 341.471 221.987C341.119 221.699 340.703 221.555 340.223 221.555C339.743 221.555 339.327 221.699 338.975 221.987C338.623 222.275 338.347 222.683 338.147 223.211C337.955 223.739 337.859 224.359 337.859 225.071C337.859 225.775 337.955 226.391 338.147 226.919C338.347 227.447 338.623 227.859 338.975 228.155C339.335 228.451 339.755 228.599 340.235 228.599ZM348.919 229.691C348.207 229.691 347.583 229.499 347.047 229.115C346.519 228.723 346.107 228.183 345.811 227.495C345.515 226.799 345.367 225.991 345.367 225.071C345.367 224.151 345.515 223.347 345.811 222.659C346.107 221.963 346.519 221.423 347.047 221.039C347.575 220.655 348.195 220.463 348.907 220.463C349.619 220.463 350.239 220.655 350.767 221.039C351.295 221.423 351.707 221.963 352.003 222.659C352.307 223.347 352.459 224.151 352.459 225.071C352.459 225.991 352.311 226.799 352.015 227.495C351.719 228.191 351.303 228.731 350.767 229.115C350.239 229.499 349.623 229.691 348.919 229.691ZM348.919 228.599C349.399 228.599 349.815 228.455 350.167 228.167C350.519 227.871 350.791 227.459 350.983 226.931C351.183 226.403 351.283 225.783 351.283 225.071C351.283 224.359 351.183 223.739 350.983 223.211C350.791 222.683 350.515 222.275 350.155 221.987C349.803 221.699 349.387 221.555 348.907 221.555C348.427 221.555 348.011 221.699 347.659 221.987C347.307 222.275 347.031 222.683 346.831 223.211C346.639 223.739 346.543 224.359 346.543 225.071C346.543 225.775 346.639 226.391 346.831 226.919C347.031 227.447 347.307 227.859 347.659 228.155C348.019 228.451 348.439 228.599 348.919 228.599ZM356.316 229.547V220.607H359.472C360.064 220.607 360.584 220.719 361.032 220.943C361.48 221.167 361.828 221.487 362.076 221.903C362.332 222.319 362.46 222.807 362.46 223.367C362.46 223.927 362.332 224.415 362.076 224.831C361.828 225.239 361.48 225.559 361.032 225.791C360.592 226.015 360.072 226.127 359.472 226.127H357.492V229.547H356.316ZM357.492 225.047H359.508C359.868 225.047 360.18 224.979 360.444 224.843C360.708 224.707 360.912 224.511 361.056 224.255C361.2 223.999 361.272 223.703 361.272 223.367C361.272 223.023 361.2 222.727 361.056 222.479C360.912 222.223 360.708 222.027 360.444 221.891C360.18 221.755 359.868 221.687 359.508 221.687H357.492V225.047ZM364.051 229.547V220.607H365.131L368.479 225.371H367.927L371.251 220.607H372.331V229.547H371.143V222.095L371.563 222.227L368.239 226.907H368.143L364.855 222.227L365.227 222.095V229.547H364.051Z" fill="#0C2459"/>
<path d="M220.95 259.136C220.238 259.136 219.614 258.944 219.078 258.56C218.55 258.168 218.138 257.628 217.842 256.94C217.546 256.244 217.398 255.436 217.398 254.516C217.398 253.596 217.546 252.792 217.842 252.104C218.138 251.408 218.55 250.868 219.078 250.484C219.606 250.1 220.226 249.908 220.938 249.908C221.65 249.908 222.27 250.1 222.798 250.484C223.326 250.868 223.738 251.408 224.034 252.104C224.338 252.792 224.49 253.596 224.49 254.516C224.49 255.436 224.342 256.244 224.046 256.94C223.75 257.636 223.334 258.176 222.798 258.56C222.27 258.944 221.654 259.136 220.95 259.136ZM220.95 258.044C221.43 258.044 221.846 257.9 222.198 257.612C222.55 257.316 222.822 256.904 223.014 256.376C223.214 255.848 223.314 255.228 223.314 254.516C223.314 253.804 223.214 253.184 223.014 252.656C222.822 252.128 222.546 251.72 222.186 251.432C221.834 251.144 221.418 251 220.938 251C220.458 251 220.042 251.144 219.69 251.432C219.338 251.72 219.062 252.128 218.862 252.656C218.67 253.184 218.574 253.804 218.574 254.516C218.574 255.22 218.67 255.836 218.862 256.364C219.062 256.892 219.338 257.304 219.69 257.6C220.05 257.896 220.47 258.044 220.95 258.044ZM230.185 258.992V256.928H225.793V255.956L230.161 250.052H231.289V255.956H232.453V256.928H231.289V258.992H230.185ZM226.681 256.376L226.513 255.956H230.185V251.036L230.533 251.132L226.681 256.376ZM234.25 258.992V257.552H235.414V258.992H234.25ZM234.25 253.964V252.524H235.414V253.964H234.25ZM241.094 259.136C240.382 259.136 239.758 258.944 239.222 258.56C238.694 258.168 238.282 257.628 237.986 256.94C237.69 256.244 237.542 255.436 237.542 254.516C237.542 253.596 237.69 252.792 237.986 252.104C238.282 251.408 238.694 250.868 239.222 250.484C239.75 250.1 240.37 249.908 241.082 249.908C241.794 249.908 242.414 250.1 242.942 250.484C243.47 250.868 243.882 251.408 244.178 252.104C244.482 252.792 244.634 253.596 244.634 254.516C244.634 255.436 244.486 256.244 244.19 256.94C243.894 257.636 243.478 258.176 242.942 258.56C242.414 258.944 241.798 259.136 241.094 259.136ZM241.094 258.044C241.574 258.044 241.99 257.9 242.342 257.612C242.694 257.316 242.966 256.904 243.158 256.376C243.358 255.848 243.458 255.228 243.458 254.516C243.458 253.804 243.358 253.184 243.158 252.656C242.966 252.128 242.69 251.72 242.33 251.432C241.978 251.144 241.562 251 241.082 251C240.602 251 240.186 251.144 239.834 251.432C239.482 251.72 239.206 252.128 239.006 252.656C238.814 253.184 238.718 253.804 238.718 254.516C238.718 255.22 238.814 255.836 239.006 256.364C239.206 256.892 239.482 257.304 239.834 257.6C240.194 257.896 240.614 258.044 241.094 258.044ZM249.778 259.136C249.066 259.136 248.442 258.944 247.906 258.56C247.378 258.168 246.966 257.628 246.67 256.94C246.374 256.244 246.226 255.436 246.226 254.516C246.226 253.596 246.374 252.792 246.67 252.104C246.966 251.408 247.378 250.868 247.906 250.484C248.434 250.1 249.054 249.908 249.766 249.908C250.478 249.908 251.098 250.1 251.626 250.484C252.154 250.868 252.566 251.408 252.862 252.104C253.166 252.792 253.318 253.596 253.318 254.516C253.318 255.436 253.17 256.244 252.874 256.94C252.578 257.636 252.162 258.176 251.626 258.56C251.098 258.944 250.482 259.136 249.778 259.136ZM249.778 258.044C250.258 258.044 250.674 257.9 251.026 257.612C251.378 257.316 251.65 256.904 251.842 256.376C252.042 255.848 252.142 255.228 252.142 254.516C252.142 253.804 252.042 253.184 251.842 252.656C251.65 252.128 251.374 251.72 251.014 251.432C250.662 251.144 250.246 251 249.766 251C249.286 251 248.87 251.144 248.518 251.432C248.166 251.72 247.89 252.128 247.69 252.656C247.498 253.184 247.402 253.804 247.402 254.516C247.402 255.22 247.498 255.836 247.69 256.364C247.89 256.892 248.166 257.304 248.518 257.6C248.878 257.896 249.298 258.044 249.778 258.044ZM255.425 258.992V257.552H256.589V258.992H255.425ZM255.425 253.964V252.524H256.589V253.964H255.425ZM262.27 259.136C261.558 259.136 260.934 258.944 260.398 258.56C259.87 258.168 259.458 257.628 259.162 256.94C258.866 256.244 258.718 255.436 258.718 254.516C258.718 253.596 258.866 252.792 259.162 252.104C259.458 251.408 259.87 250.868 260.398 250.484C260.926 250.1 261.546 249.908 262.258 249.908C262.97 249.908 263.59 250.1 264.118 250.484C264.646 250.868 265.058 251.408 265.354 252.104C265.658 252.792 265.81 253.596 265.81 254.516C265.81 255.436 265.662 256.244 265.366 256.94C265.07 257.636 264.654 258.176 264.118 258.56C263.59 258.944 262.974 259.136 262.27 259.136ZM262.27 258.044C262.75 258.044 263.166 257.9 263.518 257.612C263.87 257.316 264.142 256.904 264.334 256.376C264.534 255.848 264.634 255.228 264.634 254.516C264.634 253.804 264.534 253.184 264.334 252.656C264.142 252.128 263.866 251.72 263.506 251.432C263.154 251.144 262.738 251 262.258 251C261.778 251 261.362 251.144 261.01 251.432C260.658 251.72 260.382 252.128 260.182 252.656C259.99 253.184 259.894 253.804 259.894 254.516C259.894 255.22 259.99 255.836 260.182 256.364C260.382 256.892 260.658 257.304 261.01 257.6C261.37 257.896 261.79 258.044 262.27 258.044ZM270.954 259.136C270.242 259.136 269.618 258.944 269.082 258.56C268.554 258.168 268.142 257.628 267.846 256.94C267.55 256.244 267.402 255.436 267.402 254.516C267.402 253.596 267.55 252.792 267.846 252.104C268.142 251.408 268.554 250.868 269.082 250.484C269.61 250.1 270.23 249.908 270.942 249.908C271.654 249.908 272.274 250.1 272.802 250.484C273.33 250.868 273.742 251.408 274.038 252.104C274.342 252.792 274.494 253.596 274.494 254.516C274.494 255.436 274.346 256.244 274.05 256.94C273.754 257.636 273.338 258.176 272.802 258.56C272.274 258.944 271.658 259.136 270.954 259.136ZM270.954 258.044C271.434 258.044 271.85 257.9 272.202 257.612C272.554 257.316 272.826 256.904 273.018 256.376C273.218 255.848 273.318 255.228 273.318 254.516C273.318 253.804 273.218 253.184 273.018 252.656C272.826 252.128 272.55 251.72 272.19 251.432C271.838 251.144 271.422 251 270.942 251C270.462 251 270.046 251.144 269.694 251.432C269.342 251.72 269.066 252.128 268.866 252.656C268.674 253.184 268.578 253.804 268.578 254.516C268.578 255.22 268.674 255.836 268.866 256.364C269.066 256.892 269.342 257.304 269.694 257.6C270.054 257.896 270.474 258.044 270.954 258.044Z" fill="#0C2459"/>
<rect x="289.039" y="246.979" width="53.7986" height="14.0293" rx="7.01463" fill="#12B76A"/>
<path d="M296.202 256.992L298.339 250.915H299.53L301.667 256.992H300.639L300.174 255.63H297.703L297.23 256.992H296.202ZM297.98 254.774H299.881L298.804 251.592H299.073L297.98 254.774ZM302.298 258.624V252.579H303.179V253.493L303.073 253.281C303.236 253.031 303.454 252.835 303.726 252.694C303.997 252.552 304.307 252.482 304.655 252.482C305.074 252.482 305.449 252.582 305.781 252.783C306.118 252.985 306.382 253.259 306.572 253.607C306.768 253.955 306.866 254.347 306.866 254.782C306.866 255.217 306.768 255.608 306.572 255.956C306.382 256.304 306.121 256.582 305.789 256.788C305.458 256.989 305.08 257.09 304.655 257.09C304.313 257.09 304 257.019 303.717 256.878C303.44 256.737 303.225 256.533 303.073 256.266L303.22 256.095V258.624H302.298ZM304.566 256.234C304.827 256.234 305.058 256.171 305.259 256.046C305.46 255.921 305.618 255.75 305.732 255.532C305.852 255.309 305.912 255.059 305.912 254.782C305.912 254.504 305.852 254.257 305.732 254.039C305.618 253.822 305.46 253.651 305.259 253.526C305.058 253.401 304.827 253.338 304.566 253.338C304.31 253.338 304.079 253.401 303.872 253.526C303.671 253.651 303.511 253.822 303.391 254.039C303.277 254.257 303.22 254.504 303.22 254.782C303.22 255.059 303.277 255.309 303.391 255.532C303.511 255.75 303.671 255.921 303.872 256.046C304.079 256.171 304.31 256.234 304.566 256.234ZM307.763 258.624V252.579H308.643V253.493L308.537 253.281C308.701 253.031 308.918 252.835 309.19 252.694C309.462 252.552 309.772 252.482 310.12 252.482C310.539 252.482 310.914 252.582 311.245 252.783C311.583 252.985 311.846 253.259 312.037 253.607C312.232 253.955 312.33 254.347 312.33 254.782C312.33 255.217 312.232 255.608 312.037 255.956C311.846 256.304 311.585 256.582 311.254 256.788C310.922 256.989 310.544 257.09 310.12 257.09C309.777 257.09 309.465 257.019 309.182 256.878C308.904 256.737 308.69 256.533 308.537 256.266L308.684 256.095V258.624H307.763ZM310.03 256.234C310.291 256.234 310.522 256.171 310.723 256.046C310.925 255.921 311.082 255.75 311.196 255.532C311.316 255.309 311.376 255.059 311.376 254.782C311.376 254.504 311.316 254.257 311.196 254.039C311.082 253.822 310.925 253.651 310.723 253.526C310.522 253.401 310.291 253.338 310.03 253.338C309.775 253.338 309.543 253.401 309.337 253.526C309.136 253.651 308.975 253.822 308.856 254.039C308.741 254.257 308.684 254.504 308.684 254.782C308.684 255.059 308.741 255.309 308.856 255.532C308.975 255.75 309.136 255.921 309.337 256.046C309.543 256.171 309.775 256.234 310.03 256.234ZM313.227 256.992V252.579H314.108V253.468L314.026 253.338C314.124 253.05 314.282 252.843 314.499 252.718C314.717 252.588 314.978 252.522 315.282 252.522H315.552V253.362H315.168C314.864 253.362 314.616 253.458 314.426 253.648C314.241 253.833 314.149 254.099 314.149 254.447V256.992H313.227ZM318.311 257.09C317.887 257.09 317.498 256.989 317.145 256.788C316.797 256.587 316.519 256.312 316.313 255.964C316.106 255.616 316.003 255.222 316.003 254.782C316.003 254.336 316.106 253.942 316.313 253.599C316.519 253.251 316.797 252.979 317.145 252.783C317.493 252.582 317.881 252.482 318.311 252.482C318.746 252.482 319.135 252.582 319.477 252.783C319.825 252.979 320.1 253.251 320.301 253.599C320.508 253.942 320.611 254.336 320.611 254.782C320.611 255.228 320.508 255.625 320.301 255.973C320.095 256.321 319.817 256.595 319.469 256.796C319.121 256.992 318.735 257.09 318.311 257.09ZM318.311 256.234C318.572 256.234 318.803 256.171 319.004 256.046C319.206 255.921 319.363 255.75 319.477 255.532C319.597 255.309 319.657 255.059 319.657 254.782C319.657 254.504 319.597 254.257 319.477 254.039C319.363 253.822 319.206 253.651 319.004 253.526C318.803 253.401 318.572 253.338 318.311 253.338C318.055 253.338 317.824 253.401 317.618 253.526C317.416 253.651 317.256 253.822 317.136 254.039C317.022 254.257 316.965 254.504 316.965 254.782C316.965 255.059 317.022 255.309 317.136 255.532C317.256 255.75 317.416 255.921 317.618 256.046C317.824 256.171 318.055 256.234 318.311 256.234ZM322.712 256.992L320.983 252.579H321.986L323.316 256.177H322.949L324.278 252.579H325.29L323.552 256.992H322.712ZM327.908 257.09C327.468 257.09 327.076 256.989 326.734 256.788C326.396 256.582 326.133 256.304 325.942 255.956C325.752 255.603 325.657 255.209 325.657 254.774C325.657 254.328 325.752 253.933 325.942 253.591C326.138 253.248 326.399 252.979 326.725 252.783C327.052 252.582 327.421 252.482 327.835 252.482C328.166 252.482 328.463 252.539 328.724 252.653C328.985 252.767 329.205 252.925 329.385 253.126C329.564 253.322 329.7 253.547 329.792 253.803C329.89 254.058 329.939 254.33 329.939 254.619C329.939 254.689 329.936 254.763 329.931 254.839C329.926 254.915 329.915 254.986 329.898 255.051H326.383V254.317H329.376L328.936 254.651C328.99 254.385 328.971 254.148 328.879 253.942C328.792 253.73 328.656 253.564 328.471 253.444C328.292 253.319 328.079 253.256 327.835 253.256C327.59 253.256 327.373 253.319 327.182 253.444C326.992 253.564 326.845 253.738 326.742 253.966C326.638 254.189 326.598 254.461 326.619 254.782C326.592 255.081 326.633 255.342 326.742 255.565C326.856 255.788 327.014 255.962 327.215 256.087C327.421 256.212 327.655 256.274 327.916 256.274C328.183 256.274 328.408 256.215 328.593 256.095C328.784 255.975 328.933 255.82 329.042 255.63L329.792 255.997C329.705 256.204 329.569 256.391 329.385 256.56C329.205 256.723 328.988 256.854 328.732 256.951C328.482 257.044 328.207 257.09 327.908 257.09ZM332.878 257.09C332.454 257.09 332.073 256.989 331.736 256.788C331.404 256.582 331.14 256.304 330.945 255.956C330.754 255.608 330.659 255.217 330.659 254.782C330.659 254.347 330.757 253.955 330.953 253.607C331.149 253.259 331.412 252.985 331.744 252.783C332.076 252.582 332.451 252.482 332.87 252.482C333.223 252.482 333.536 252.552 333.808 252.694C334.08 252.835 334.294 253.031 334.452 253.281L334.313 253.493V250.818H335.227V256.992H334.354V256.095L334.46 256.266C334.308 256.533 334.091 256.737 333.808 256.878C333.525 257.019 333.215 257.09 332.878 257.09ZM332.968 256.234C333.223 256.234 333.452 256.171 333.653 256.046C333.859 255.921 334.02 255.75 334.134 255.532C334.254 255.309 334.313 255.059 334.313 254.782C334.313 254.504 334.254 254.257 334.134 254.039C334.02 253.822 333.859 253.651 333.653 253.526C333.452 253.401 333.223 253.338 332.968 253.338C332.712 253.338 332.481 253.401 332.274 253.526C332.068 253.651 331.907 253.822 331.793 254.039C331.679 254.257 331.622 254.504 331.622 254.782C331.622 255.059 331.679 255.309 331.793 255.532C331.907 255.75 332.065 255.921 332.266 256.046C332.473 256.171 332.707 256.234 332.968 256.234Z" fill="white"/>
</svg>
