<svg width="33" height="32" viewBox="0 0 33 32" fill="none" xmlns="http://www.w3.org/2000/svg">
<path d="M26.3338 14.5V13V10L25.334 8L22.8338 9.5L22.334 5L20.834 4.5L18.834 5.5V3.5L16.834 2L14.834 3L14.334 6H11.834L10.334 8.5V15.5L9.83398 17L6.83398 14L4.33398 13.5L2.33398 15L3.33398 18L7.33398 24.5L11.834 29L17.334 30L17.834 28.5C17.034 27.3 16.5007 25.3333 16.334 24.5L16.3338 20.5C15.9338 17.7 17.8338 16.3333 18.8338 16L22.8338 14.5C24.4338 14.1 25.8338 14.3333 26.3338 14.5Z" fill="#B7FFFD"/>
<path d="M22.4344 23L22.7282 23.2939C23.2444 23.81 23.5026 24.0682 23.8151 24.0508C24.1275 24.0336 24.3555 23.7484 24.8114 23.1784L26.6338 20.9M18.2344 20.836V21.3764C18.2344 23.0591 18.2344 23.9003 18.4421 24.6703C18.6986 25.6212 19.1851 26.498 19.8606 27.2276C20.4075 27.8182 21.1293 28.2781 22.5727 29.1979C23.2189 29.6097 23.5421 29.8156 23.8855 29.9114C24.3097 30.0295 24.7591 30.0295 25.1833 29.9114C25.5267 29.8156 25.8498 29.6097 26.4961 29.1979C27.9395 28.2781 28.6613 27.8182 29.2081 27.2276C29.8836 26.498 30.3701 25.6212 30.6266 24.6703C30.8344 23.9003 30.8344 23.0591 30.8344 21.3764V20.836C30.8344 19.7883 30.8344 19.2644 30.6359 18.822C30.5134 18.5491 30.3379 18.302 30.1193 18.0944C29.7646 17.7577 29.2622 17.5737 28.257 17.2058L26.1934 16.4505C25.373 16.1502 24.9628 16 24.5344 16C24.106 16 23.6958 16.1502 22.8754 16.4505L20.8118 17.2058C19.8066 17.5737 19.3041 17.7577 18.9495 18.0944C18.7308 18.302 18.5554 18.5491 18.4329 18.822C18.2344 19.2644 18.2344 19.7883 18.2344 20.836Z" fill="white"/>
<path d="M22.4344 23L22.7282 23.2939C23.2444 23.81 23.5026 24.0682 23.8151 24.0508C24.1275 24.0336 24.3555 23.7484 24.8114 23.1784L26.6338 20.9M18.2344 20.836V21.3764C18.2344 23.0591 18.2344 23.9003 18.4421 24.6703C18.6986 25.6212 19.1851 26.498 19.8606 27.2276C20.4075 27.8182 21.1293 28.2781 22.5727 29.1979C23.2189 29.6097 23.5421 29.8156 23.8855 29.9114C24.3097 30.0295 24.7591 30.0295 25.1833 29.9114C25.5267 29.8156 25.8498 29.6097 26.4961 29.1979C27.9395 28.2781 28.6613 27.8182 29.2081 27.2276C29.8836 26.498 30.3701 25.6212 30.6266 24.6703C30.8344 23.9003 30.8344 23.0591 30.8344 21.3764V20.836C30.8344 19.7883 30.8344 19.2644 30.6359 18.822C30.5134 18.5491 30.3379 18.302 30.1193 18.0944C29.7646 17.7577 29.2622 17.5737 28.257 17.2058L26.1934 16.4505C25.373 16.1502 24.9628 16 24.5344 16C24.106 16 23.6958 16.1502 22.8754 16.4505L20.8118 17.2058C19.8066 17.5737 19.3041 17.7577 18.9495 18.0944C18.7308 18.302 18.5554 18.5491 18.4329 18.822C18.2344 19.2644 18.2344 19.7883 18.2344 20.836Z" stroke="#1355FF" stroke-width="1.5" stroke-linecap="round" stroke-linejoin="round"/>
<path d="M22.6737 10.2727V12.5M22.6737 10.2727C22.6737 9.21839 23.5603 8.36364 24.6538 8.36364C25.7475 8.36364 26.634 9.21839 26.634 10.2727V12.5M22.6737 10.2727V6.45456C22.6737 5.40019 21.7872 4.54547 20.6935 4.54547C19.6 4.54547 18.7133 5.40019 18.7133 6.45456M18.7133 6.45456V12.5M18.7133 6.45456V3.9091C18.7133 2.85473 17.8269 2 16.7332 2C15.6396 2 14.753 2.85473 14.753 3.9091V7.72729M14.753 7.72729C14.753 6.67292 13.8665 5.81819 12.7729 5.81819C11.6793 5.81819 10.7928 6.67292 10.7928 7.72729V16.8932C10.7928 17.4756 10.0472 17.752 9.64135 17.3201L6.43355 13.906C5.88813 13.2619 4.9663 13.0438 4.17362 13.3714C2.76196 13.9546 2.43076 16.0144 3.34828 17.2018C4.91826 19.2337 6.52688 22.0081 7.82552 24.4543C9.58792 27.7743 13.0664 30 16.9346 30M14.753 7.72729V12.5" stroke="#1355FF" stroke-width="1.5" stroke-linecap="round" stroke-linejoin="round"/>
</svg>
