<svg width="33" height="32" viewBox="0 0 33 32" fill="none" xmlns="http://www.w3.org/2000/svg">
<path d="M9.33398 4.5H16.834L17.834 8.5C19.834 9.3 20.334 11.5 20.334 12.5L22.834 14.5C24.834 12.9 27.0007 14.1667 27.834 15V15.5V19.5L26.834 27L24.334 29.5L20.834 30H14.334H7.83398L4.33398 28.5L2.83398 26L2.33398 19.5V14V10L3.83398 7L5.33398 5.5L9.33398 4.5Z" fill="#B7FFFD"/>
<path d="M17.0007 4.66971C16.3739 4.66663 15.7083 4.66663 15.0007 4.66663C9.02953 4.66663 6.04397 4.66663 4.18897 6.52161C2.33398 8.37661 2.33398 11.3622 2.33398 17.3333C2.33398 23.3044 2.33398 26.29 4.18897 28.145C6.04397 30 9.02953 30 15.0007 30C20.9717 30 23.9573 30 25.8124 28.145C27.6673 26.29 27.6673 23.3044 27.6673 17.3333C27.6673 16.6257 27.6673 15.9601 27.6643 15.3333" stroke="#1355FF" stroke-width="2" stroke-linecap="round"/>
<path d="M9 24C12.1089 20.7437 17.8576 20.5904 21 24M18.3268 14C18.3268 15.8409 16.8323 17.3333 14.9887 17.3333C13.1452 17.3333 11.6506 15.8409 11.6506 14C11.6506 12.159 13.1452 10.6666 14.9887 10.6666C16.8323 10.6666 18.3268 12.159 18.3268 14Z" stroke="#1355FF" stroke-width="2" stroke-linecap="round"/>
<path d="M29.9116 8.17886C30.4145 7.94752 30.6659 7.83189 30.7392 7.71738C30.8126 7.60287 30.8126 7.42047 30.8126 7.05557V6.79795C30.8126 6.43315 30.8126 6.25065 30.7392 6.13614C30.6659 6.02163 30.4144 5.906 29.9116 5.67475C29.1659 5.33187 28.687 4.58156 28.7127 3.79639C28.7323 3.19644 28.7421 2.89647 28.677 2.78242C28.6119 2.66837 28.4544 2.58205 28.1393 2.40941L27.8396 2.24526C27.5341 2.07789 27.3814 1.99421 27.2509 2.00037C27.1204 2.00654 26.8985 2.15693 26.4548 2.4577C25.7331 2.94683 24.7484 2.94681 24.0267 2.45766C23.5829 2.15688 23.361 2.00648 23.2306 2.00032C23.1001 1.99415 22.9473 2.07784 22.6418 2.2452L22.3422 2.40935C22.0271 2.58197 21.8696 2.66827 21.8045 2.78229C21.7395 2.89631 21.7492 3.19632 21.7687 3.79636C21.7942 4.58156 21.3149 5.33187 20.5691 5.67475C20.0662 5.90591 19.8148 6.02154 19.7414 6.13605C19.668 6.25056 19.668 6.43305 19.668 6.79795V7.05557C19.668 7.42047 19.668 7.60296 19.7414 7.71747C19.8147 7.83198 20.0662 7.94761 20.569 8.17886C21.3147 8.52174 21.7935 9.27206 21.7679 10.0572C21.7483 10.6571 21.7385 10.9571 21.8036 11.0712C21.8686 11.1852 22.0262 11.2715 22.3413 11.4441L22.641 11.6083C22.9465 11.7757 23.0993 11.8594 23.2298 11.8532C23.3603 11.847 23.5821 11.6967 24.0257 11.3958C24.748 10.906 25.7335 10.906 26.4557 11.3958C26.8994 11.6966 27.1212 11.847 27.2517 11.8532C27.3822 11.8594 27.535 11.7757 27.8405 11.6083L28.1401 11.4441C28.4553 11.2714 28.6129 11.1851 28.6779 11.071C28.743 10.9569 28.7332 10.6571 28.7134 10.0572C28.6876 9.27206 29.1662 8.52174 29.9116 8.17886Z" fill="white" stroke="#1355FF" stroke-width="1.8" stroke-linecap="round"/>
<path d="M25.2405 8.55191C26.1381 8.55191 26.8658 7.82426 26.8658 6.92665C26.8658 6.02905 26.1381 5.30139 25.2405 5.30139C24.3429 5.30139 23.6152 6.02905 23.6152 6.92665C23.6152 7.82426 24.3429 8.55191 25.2405 8.55191Z" fill="white" stroke="#1355FF" stroke-width="1.5"/>
</svg>
