<svg width="400" height="287" viewBox="0 0 400 287" fill="none" xmlns="http://www.w3.org/2000/svg">
<rect x="0.595777" y="1.33113" width="398.808" height="284.808" rx="15.4042" fill="white"/>
<rect x="0.595777" y="1.33113" width="398.808" height="284.808" rx="15.4042" stroke="#E7E7E7" stroke-width="1.19155"/>
<path d="M28.336 36.4697L24.176 24.5497H26.544L29.808 34.4217H29.344L32.608 24.5497H34.976L30.832 36.4697H28.336ZM36.1323 36.4697V27.7657H38.2283V36.4697H36.1323ZM36.1323 26.7897V24.5497H38.2283V26.7897H36.1323ZM43.4755 36.6617C42.5475 36.6617 41.7368 36.4431 41.0435 36.0057C40.3608 35.5577 39.8915 34.9551 39.6355 34.1977L41.2035 33.4457C41.4275 33.9364 41.7368 34.3204 42.1315 34.5977C42.5368 34.8751 42.9848 35.0137 43.4755 35.0137C43.8595 35.0137 44.1635 34.9284 44.3875 34.7577C44.6115 34.5871 44.7235 34.3631 44.7235 34.0857C44.7235 33.9151 44.6755 33.7764 44.5795 33.6697C44.4942 33.5524 44.3715 33.4564 44.2115 33.3817C44.0622 33.2964 43.8968 33.2271 43.7155 33.1737L42.2915 32.7737C41.5555 32.5604 40.9955 32.2351 40.6115 31.7977C40.2382 31.3604 40.0515 30.8431 40.0515 30.2457C40.0515 29.7124 40.1848 29.2484 40.4515 28.8537C40.7288 28.4484 41.1075 28.1337 41.5875 27.9097C42.0782 27.6857 42.6382 27.5737 43.2675 27.5737C44.0888 27.5737 44.8142 27.7711 45.4435 28.1657C46.0728 28.5604 46.5208 29.1151 46.7875 29.8297L45.1875 30.5817C45.0382 30.1871 44.7875 29.8724 44.4355 29.6377C44.0835 29.4031 43.6888 29.2857 43.2515 29.2857C42.8995 29.2857 42.6222 29.3657 42.4195 29.5257C42.2168 29.6857 42.1155 29.8937 42.1155 30.1497C42.1155 30.3097 42.1582 30.4484 42.2435 30.5657C42.3288 30.6831 42.4462 30.7791 42.5955 30.8537C42.7555 30.9284 42.9368 30.9977 43.1395 31.0617L44.5315 31.4777C45.2462 31.6911 45.7955 32.0111 46.1795 32.4377C46.5742 32.8644 46.7715 33.3871 46.7715 34.0057C46.7715 34.5284 46.6328 34.9924 46.3555 35.3977C46.0782 35.7924 45.6942 36.1017 45.2035 36.3257C44.7128 36.5497 44.1368 36.6617 43.4755 36.6617ZM48.3823 36.4697V27.7657H50.4783V36.4697H48.3823ZM48.3823 26.7897V24.5497H50.4783V26.7897H48.3823ZM56.3815 36.5657C55.4002 36.5657 54.6375 36.2991 54.0935 35.7657C53.5602 35.2217 53.2935 34.4591 53.2935 33.4777V29.6377H51.7895V27.7657H51.9495C52.3762 27.7657 52.7068 27.6537 52.9415 27.4297C53.1762 27.2057 53.2935 26.8804 53.2935 26.4537V25.7817H55.3895V27.7657H57.3895V29.6377H55.3895V33.3657C55.3895 33.6537 55.4375 33.8991 55.5335 34.1017C55.6402 34.3044 55.8002 34.4591 56.0135 34.5657C56.2375 34.6724 56.5202 34.7257 56.8615 34.7257C56.9362 34.7257 57.0215 34.7204 57.1175 34.7097C57.2242 34.6991 57.3255 34.6884 57.4215 34.6777V36.4697C57.2722 36.4911 57.1015 36.5124 56.9095 36.5337C56.7175 36.5551 56.5415 36.5657 56.3815 36.5657ZM63.2008 36.6617C62.3474 36.6617 61.5688 36.4644 60.8648 36.0697C60.1714 35.6751 59.6168 35.1364 59.2008 34.4537C58.7954 33.7711 58.5928 32.9924 58.5928 32.1177C58.5928 31.2431 58.7954 30.4644 59.2008 29.7817C59.6168 29.0991 60.1714 28.5604 60.8648 28.1657C61.5581 27.7711 62.3368 27.5737 63.2008 27.5737C64.0541 27.5737 64.8274 27.7711 65.5208 28.1657C66.2141 28.5604 66.7634 29.0991 67.1688 29.7817C67.5848 30.4537 67.7928 31.2324 67.7928 32.1177C67.7928 32.9924 67.5848 33.7711 67.1688 34.4537C66.7528 35.1364 66.1981 35.6751 65.5048 36.0697C64.8114 36.4644 64.0434 36.6617 63.2008 36.6617ZM63.2008 34.7417C63.6701 34.7417 64.0808 34.6297 64.4328 34.4057C64.7954 34.1817 65.0781 33.8724 65.2808 33.4777C65.4941 33.0724 65.6008 32.6191 65.6008 32.1177C65.6008 31.6057 65.4941 31.1577 65.2808 30.7737C65.0781 30.3791 64.7954 30.0697 64.4328 29.8457C64.0808 29.6111 63.6701 29.4937 63.2008 29.4937C62.7208 29.4937 62.2994 29.6111 61.9368 29.8457C61.5741 30.0697 61.2861 30.3791 61.0728 30.7737C60.8701 31.1577 60.7688 31.6057 60.7688 32.1177C60.7688 32.6191 60.8701 33.0724 61.0728 33.4777C61.2861 33.8724 61.5741 34.1817 61.9368 34.4057C62.2994 34.6297 62.7208 34.7417 63.2008 34.7417ZM69.3823 36.4697V27.7657H71.3503V29.7017L71.1903 29.4137C71.3929 28.7631 71.7076 28.3097 72.1343 28.0537C72.5716 27.7977 73.0943 27.6697 73.7023 27.6697H74.2143V29.5257H73.4623C72.8649 29.5257 72.3849 29.7124 72.0223 30.0857C71.6596 30.4484 71.4783 30.9604 71.4783 31.6217V36.4697H69.3823ZM78.3864 36.4697V24.5497H80.4664L84.9304 30.6137H83.9384L88.3064 24.5497H90.3864V36.4697H88.1944V27.0297L89.0424 27.2377L84.5144 33.2697H84.2584L79.8424 27.2377L80.5624 27.0297V36.4697H78.3864ZM95.1316 36.6617C94.5236 36.6617 93.9956 36.5604 93.5476 36.3577C93.0996 36.1551 92.753 35.8671 92.5076 35.4937C92.2623 35.1097 92.1396 34.6671 92.1396 34.1657C92.1396 33.6857 92.2463 33.2591 92.4596 32.8857C92.673 32.5017 93.0036 32.1817 93.4516 31.9257C93.8996 31.6697 94.465 31.4884 95.1476 31.3817L97.9956 30.9177V32.5177L95.5476 32.9337C95.1316 33.0084 94.8223 33.1417 94.6196 33.3337C94.417 33.5257 94.3156 33.7764 94.3156 34.0857C94.3156 34.3844 94.4276 34.6244 94.6516 34.8057C94.8863 34.9764 95.1743 35.0617 95.5156 35.0617C95.953 35.0617 96.337 34.9711 96.6676 34.7897C97.009 34.5977 97.2703 34.3364 97.4516 34.0057C97.6436 33.6751 97.7396 33.3124 97.7396 32.9177V30.6777C97.7396 30.3044 97.5903 29.9951 97.2916 29.7497C97.0036 29.4937 96.6196 29.3657 96.1396 29.3657C95.6916 29.3657 95.2916 29.4884 94.9396 29.7337C94.5983 29.9684 94.3476 30.2831 94.1876 30.6777L92.4756 29.8457C92.6463 29.3871 92.913 28.9924 93.2756 28.6617C93.649 28.3204 94.0863 28.0537 94.5876 27.8617C95.089 27.6697 95.633 27.5737 96.2196 27.5737C96.9343 27.5737 97.5636 27.7071 98.1076 27.9737C98.6516 28.2297 99.073 28.5924 99.3716 29.0617C99.681 29.5204 99.8356 30.0591 99.8356 30.6777V36.4697H97.8516V34.9817L98.2996 34.9497C98.0756 35.3231 97.809 35.6377 97.4996 35.8937C97.1903 36.1391 96.8383 36.3311 96.4436 36.4697C96.049 36.5977 95.6116 36.6617 95.1316 36.6617ZM101.773 36.4697V27.7657H103.741V29.4777L103.581 29.1737C103.784 28.6511 104.114 28.2564 104.573 27.9897C105.042 27.7124 105.586 27.5737 106.205 27.5737C106.845 27.5737 107.41 27.7124 107.901 27.9897C108.402 28.2671 108.792 28.6564 109.069 29.1577C109.346 29.6484 109.485 30.2191 109.485 30.8697V36.4697H107.389V31.3657C107.389 30.9817 107.314 30.6511 107.165 30.3737C107.016 30.0964 106.808 29.8831 106.541 29.7337C106.285 29.5737 105.981 29.4937 105.629 29.4937C105.288 29.4937 104.984 29.5737 104.717 29.7337C104.45 29.8831 104.242 30.0964 104.093 30.3737C103.944 30.6511 103.869 30.9817 103.869 31.3657V36.4697H101.773ZM113.897 36.6617C113.289 36.6617 112.761 36.5604 112.313 36.3577C111.865 36.1551 111.519 35.8671 111.273 35.4937C111.028 35.1097 110.905 34.6671 110.905 34.1657C110.905 33.6857 111.012 33.2591 111.225 32.8857C111.439 32.5017 111.769 32.1817 112.217 31.9257C112.665 31.6697 113.231 31.4884 113.913 31.3817L116.761 30.9177V32.5177L114.313 32.9337C113.897 33.0084 113.588 33.1417 113.385 33.3337C113.183 33.5257 113.081 33.7764 113.081 34.0857C113.081 34.3844 113.193 34.6244 113.417 34.8057C113.652 34.9764 113.94 35.0617 114.281 35.0617C114.719 35.0617 115.103 34.9711 115.433 34.7897C115.775 34.5977 116.036 34.3364 116.217 34.0057C116.409 33.6751 116.505 33.3124 116.505 32.9177V30.6777C116.505 30.3044 116.356 29.9951 116.057 29.7497C115.769 29.4937 115.385 29.3657 114.905 29.3657C114.457 29.3657 114.057 29.4884 113.705 29.7337C113.364 29.9684 113.113 30.2831 112.953 30.6777L111.241 29.8457C111.412 29.3871 111.679 28.9924 112.041 28.6617C112.415 28.3204 112.852 28.0537 113.353 27.8617C113.855 27.6697 114.399 27.5737 114.985 27.5737C115.7 27.5737 116.329 27.7071 116.873 27.9737C117.417 28.2297 117.839 28.5924 118.137 29.0617C118.447 29.5204 118.601 30.0591 118.601 30.6777V36.4697H116.617V34.9817L117.065 34.9497C116.841 35.3231 116.575 35.6377 116.265 35.8937C115.956 36.1391 115.604 36.3311 115.209 36.4697C114.815 36.5977 114.377 36.6617 113.897 36.6617ZM124.763 39.9897C124.112 39.9897 123.509 39.8831 122.955 39.6697C122.4 39.4564 121.92 39.1577 121.515 38.7737C121.12 38.4004 120.832 37.9577 120.651 37.4457L122.603 36.7097C122.731 37.1151 122.981 37.4404 123.355 37.6857C123.739 37.9417 124.208 38.0697 124.763 38.0697C125.189 38.0697 125.563 37.9897 125.883 37.8297C126.213 37.6697 126.469 37.4351 126.651 37.1257C126.832 36.8271 126.923 36.4644 126.923 36.0377V34.0537L127.323 34.5337C127.024 35.0564 126.624 35.4511 126.123 35.7177C125.621 35.9844 125.051 36.1177 124.411 36.1177C123.6 36.1177 122.875 35.9311 122.235 35.5577C121.595 35.1844 121.093 34.6724 120.731 34.0217C120.368 33.3711 120.187 32.6404 120.187 31.8297C120.187 31.0084 120.368 30.2777 120.731 29.6377C121.093 28.9977 121.589 28.4964 122.219 28.1337C122.848 27.7604 123.563 27.5737 124.363 27.5737C125.013 27.5737 125.584 27.7124 126.075 27.9897C126.576 28.2564 126.992 28.6457 127.323 29.1577L127.035 29.6857V27.7657H129.019V36.0377C129.019 36.7951 128.832 37.4724 128.459 38.0697C128.096 38.6671 127.595 39.1364 126.955 39.4777C126.325 39.8191 125.595 39.9897 124.763 39.9897ZM124.667 34.1817C125.115 34.1817 125.504 34.0857 125.835 33.8937C126.176 33.6911 126.443 33.4137 126.635 33.0617C126.827 32.7097 126.923 32.3044 126.923 31.8457C126.923 31.3977 126.821 30.9977 126.619 30.6457C126.427 30.2831 126.16 30.0004 125.819 29.7977C125.488 29.5951 125.104 29.4937 124.667 29.4937C124.229 29.4937 123.835 29.5951 123.483 29.7977C123.131 30.0004 122.853 30.2831 122.651 30.6457C122.459 30.9977 122.363 31.3977 122.363 31.8457C122.363 32.2937 122.459 32.6937 122.651 33.0457C122.853 33.3977 123.125 33.6751 123.467 33.8777C123.819 34.0804 124.219 34.1817 124.667 34.1817ZM135.104 36.6617C134.208 36.6617 133.424 36.4591 132.752 36.0537C132.08 35.6484 131.557 35.0991 131.184 34.4057C130.811 33.7124 130.624 32.9444 130.624 32.1017C130.624 31.2271 130.811 30.4537 131.184 29.7817C131.568 29.0991 132.085 28.5604 132.736 28.1657C133.397 27.7711 134.133 27.5737 134.944 27.5737C135.627 27.5737 136.224 27.6857 136.736 27.9097C137.259 28.1337 137.701 28.4431 138.064 28.8377C138.427 29.2324 138.704 29.6857 138.896 30.1977C139.088 30.6991 139.184 31.2431 139.184 31.8297C139.184 31.9791 139.173 32.1337 139.152 32.2937C139.141 32.4537 139.115 32.5924 139.072 32.7097H132.352V31.1097H137.888L136.896 31.8617C136.992 31.3711 136.965 30.9337 136.816 30.5497C136.677 30.1657 136.443 29.8617 136.112 29.6377C135.792 29.4137 135.403 29.3017 134.944 29.3017C134.507 29.3017 134.117 29.4137 133.776 29.6377C133.435 29.8511 133.173 30.1711 132.992 30.5977C132.821 31.0137 132.757 31.5204 132.8 32.1177C132.757 32.6511 132.827 33.1257 133.008 33.5417C133.2 33.9471 133.477 34.2617 133.84 34.4857C134.213 34.7097 134.64 34.8217 135.12 34.8217C135.6 34.8217 136.005 34.7204 136.336 34.5177C136.677 34.3151 136.944 34.0431 137.136 33.7017L138.832 34.5337C138.661 34.9497 138.395 35.3177 138.032 35.6377C137.669 35.9577 137.237 36.2084 136.736 36.3897C136.245 36.5711 135.701 36.6617 135.104 36.6617ZM140.773 36.4697V27.7657H142.741V29.7017L142.581 29.4137C142.784 28.7631 143.098 28.3097 143.525 28.0537C143.962 27.7977 144.485 27.6697 145.093 27.6697H145.605V29.5257H144.853C144.256 29.5257 143.776 29.7124 143.413 30.0857C143.05 30.4484 142.869 30.9604 142.869 31.6217V36.4697H140.773Z" fill="#0C2459"/>
<line x1="24" y1="54.0264" x2="376" y2="54.0264" stroke="#A2A2A2" stroke-width="0.357303"/>
<rect width="105" height="176" transform="translate(24 74.2051)" fill="white"/>
<path d="M24.864 87.2051V78.2651H26.136L31.056 84.8891L30.396 85.0211V78.2651H32.028V87.2051H30.744L25.896 80.5331L26.496 80.4011V87.2051H24.864ZM33.0265 87.2051L36.1105 78.2651H38.2225L41.3065 87.2051H39.5305L38.8945 85.2851H35.4385L34.7905 87.2051H33.0265ZM35.9065 83.8451H38.4265L36.9385 79.3931H37.3945L35.9065 83.8451ZM42.3015 87.2051V78.2651H43.8615L47.2095 82.8131H46.4655L49.7415 78.2651H51.3015V87.2051H49.6575V80.1251L50.2935 80.2811L46.8975 84.8051H46.7055L43.3935 80.2811L43.9335 80.1251V87.2051H42.3015ZM53.0124 87.2051V78.2651H58.9524V79.7051H54.6444V81.9971H58.7124V83.4371H54.6444V85.7651H58.9524V87.2051H53.0124Z" fill="#0C2459"/>
<path d="M29.064 119.349C28.424 119.349 27.832 119.233 27.288 119.001C26.752 118.769 26.28 118.445 25.872 118.029C25.472 117.613 25.16 117.125 24.936 116.565C24.712 116.005 24.6 115.393 24.6 114.729C24.6 114.065 24.708 113.453 24.924 112.893C25.148 112.325 25.46 111.837 25.86 111.429C26.268 111.013 26.744 110.693 27.288 110.469C27.832 110.237 28.424 110.121 29.064 110.121C29.704 110.121 30.276 110.229 30.78 110.445C31.292 110.661 31.724 110.949 32.076 111.309C32.428 111.661 32.68 112.049 32.832 112.473L31.368 113.157C31.2 112.709 30.916 112.341 30.516 112.053C30.116 111.757 29.632 111.609 29.064 111.609C28.504 111.609 28.008 111.741 27.576 112.005C27.152 112.269 26.82 112.633 26.58 113.097C26.348 113.561 26.232 114.105 26.232 114.729C26.232 115.353 26.348 115.901 26.58 116.373C26.82 116.837 27.152 117.201 27.576 117.465C28.008 117.729 28.504 117.861 29.064 117.861C29.632 117.861 30.116 117.717 30.516 117.429C30.916 117.133 31.2 116.761 31.368 116.313L32.832 116.997C32.68 117.421 32.428 117.813 32.076 118.173C31.724 118.525 31.292 118.809 30.78 119.025C30.276 119.241 29.704 119.349 29.064 119.349ZM38.561 119.349C37.905 119.349 37.293 119.233 36.725 119.001C36.157 118.769 35.661 118.445 35.237 118.029C34.813 117.613 34.481 117.125 34.241 116.565C34.009 115.997 33.893 115.385 33.893 114.729C33.893 114.065 34.009 113.453 34.241 112.893C34.473 112.333 34.801 111.845 35.225 111.429C35.649 111.013 36.145 110.693 36.713 110.469C37.281 110.237 37.897 110.121 38.561 110.121C39.225 110.121 39.841 110.237 40.409 110.469C40.977 110.701 41.473 111.025 41.897 111.441C42.321 111.849 42.649 112.333 42.881 112.893C43.121 113.453 43.241 114.065 43.241 114.729C43.241 115.385 43.121 115.997 42.881 116.565C42.641 117.125 42.309 117.613 41.885 118.029C41.461 118.445 40.965 118.769 40.397 119.001C39.837 119.233 39.225 119.349 38.561 119.349ZM38.561 117.861C39.001 117.861 39.405 117.785 39.773 117.633C40.141 117.473 40.461 117.253 40.733 116.973C41.013 116.693 41.225 116.361 41.369 115.977C41.521 115.593 41.597 115.177 41.597 114.729C41.597 114.281 41.521 113.869 41.369 113.493C41.225 113.109 41.013 112.777 40.733 112.497C40.461 112.209 40.141 111.989 39.773 111.837C39.405 111.685 39.001 111.609 38.561 111.609C38.129 111.609 37.729 111.685 37.361 111.837C36.993 111.989 36.669 112.209 36.389 112.497C36.117 112.777 35.905 113.109 35.753 113.493C35.601 113.869 35.525 114.281 35.525 114.729C35.525 115.177 35.601 115.593 35.753 115.977C35.905 116.361 36.117 116.693 36.389 116.973C36.669 117.253 36.993 117.473 37.361 117.633C37.729 117.785 38.129 117.861 38.561 117.861ZM44.6921 119.205V110.265H46.2521L49.6001 114.813H48.8561L52.1321 110.265H53.6921V119.205H52.0481V112.125L52.6841 112.281L49.2881 116.805H49.0961L45.7841 112.281L46.3241 112.125V119.205H44.6921ZM55.4031 119.205V110.265H58.7391C59.3471 110.265 59.8831 110.377 60.3471 110.601C60.8191 110.817 61.1871 111.137 61.4511 111.561C61.7151 111.977 61.8471 112.485 61.8471 113.085C61.8471 113.677 61.7111 114.185 61.4391 114.609C61.1751 115.025 60.8111 115.345 60.3471 115.569C59.8831 115.793 59.3471 115.905 58.7391 115.905H57.0351V119.205H55.4031ZM57.0351 114.465H58.7631C59.0591 114.465 59.3151 114.409 59.5311 114.297C59.7471 114.177 59.9151 114.013 60.0351 113.805C60.1551 113.597 60.2151 113.357 60.2151 113.085C60.2151 112.805 60.1551 112.565 60.0351 112.365C59.9151 112.157 59.7471 111.997 59.5311 111.885C59.3151 111.765 59.0591 111.705 58.7631 111.705H57.0351V114.465ZM61.7375 119.205L64.8215 110.265H66.9335L70.0175 119.205H68.2415L67.6055 117.285H64.1495L63.5015 119.205H61.7375ZM64.6175 115.845H67.1375L65.6495 111.393H66.1055L64.6175 115.845ZM71.0124 119.205V110.265H72.2844L77.2044 116.889L76.5444 117.021V110.265H78.1764V119.205H76.8924L72.0444 112.533L72.6444 112.401V119.205H71.0124ZM82.187 119.205V115.245L79.175 110.265H81.035L83.339 114.153H82.679L84.971 110.265H86.831L83.831 115.233V119.205H82.187Z" fill="#0C2459"/>
<path d="M24.864 151.205V142.265H30.804V143.705H26.496V145.997H30.564V147.437H26.496V149.765H30.804V151.205H24.864ZM32.0007 151.205V142.265H33.5607L36.9087 146.813H36.1647L39.4407 142.265H41.0007V151.205H39.3567V144.125L39.9927 144.281L36.5967 148.805H36.4047L33.0927 144.281L33.6327 144.125V151.205H32.0007ZM41.9797 151.205L45.0637 142.265H47.1757L50.2597 151.205H48.4837L47.8477 149.285H44.3917L43.7437 151.205H41.9797ZM44.8597 147.845H47.3797L45.8917 143.393H46.3477L44.8597 147.845ZM51.2546 151.205V142.265H52.8866V151.205H51.2546ZM54.6062 151.205V142.265H56.2382V149.765H60.0662V151.205H54.6062Z" fill="#0C2459"/>
<path d="M24.864 183.205V174.265H26.424L29.772 178.813H29.028L32.304 174.265H33.864V183.205H32.22V176.125L32.856 176.281L29.46 180.805H29.268L25.956 176.281L26.496 176.125V183.205H24.864ZM39.9789 183.349C39.3229 183.349 38.7109 183.233 38.1429 183.001C37.5749 182.769 37.0789 182.445 36.6549 182.029C36.2309 181.613 35.8989 181.125 35.6589 180.565C35.4269 179.997 35.3109 179.385 35.3109 178.729C35.3109 178.065 35.4269 177.453 35.6589 176.893C35.8909 176.333 36.2189 175.845 36.6429 175.429C37.0669 175.013 37.5629 174.693 38.1309 174.469C38.6989 174.237 39.3149 174.121 39.9789 174.121C40.6429 174.121 41.2589 174.237 41.8269 174.469C42.3949 174.701 42.8909 175.025 43.3149 175.441C43.7389 175.849 44.0669 176.333 44.2989 176.893C44.5389 177.453 44.6589 178.065 44.6589 178.729C44.6589 179.385 44.5389 179.997 44.2989 180.565C44.0589 181.125 43.7269 181.613 43.3029 182.029C42.8789 182.445 42.3829 182.769 41.8149 183.001C41.2549 183.233 40.6429 183.349 39.9789 183.349ZM39.9789 181.861C40.4189 181.861 40.8229 181.785 41.1909 181.633C41.5589 181.473 41.8789 181.253 42.1509 180.973C42.4309 180.693 42.6429 180.361 42.7869 179.977C42.9389 179.593 43.0149 179.177 43.0149 178.729C43.0149 178.281 42.9389 177.869 42.7869 177.493C42.6429 177.109 42.4309 176.777 42.1509 176.497C41.8789 176.209 41.5589 175.989 41.1909 175.837C40.8229 175.685 40.4189 175.609 39.9789 175.609C39.5469 175.609 39.1469 175.685 38.7789 175.837C38.4109 175.989 38.0869 176.209 37.8069 176.497C37.5349 176.777 37.3229 177.109 37.1709 177.493C37.0189 177.869 36.9429 178.281 36.9429 178.729C36.9429 179.177 37.0189 179.593 37.1709 179.977C37.3229 180.361 37.5349 180.693 37.8069 180.973C38.0869 181.253 38.4109 181.473 38.7789 181.633C39.1469 181.785 39.5469 181.861 39.9789 181.861ZM46.1101 183.205V174.265H49.8781C50.4701 174.265 50.9741 174.369 51.3901 174.577C51.8141 174.777 52.1381 175.065 52.3621 175.441C52.5941 175.809 52.7101 176.257 52.7101 176.785C52.7101 177.193 52.5981 177.577 52.3741 177.937C52.1581 178.289 51.8101 178.581 51.3301 178.813V178.057C51.7701 178.225 52.1181 178.433 52.3741 178.681C52.6301 178.929 52.8101 179.205 52.9141 179.509C53.0181 179.813 53.0701 180.133 53.0701 180.469C53.0701 181.325 52.7861 181.997 52.2181 182.485C51.6581 182.965 50.8781 183.205 49.8781 183.205H46.1101ZM47.7421 181.765H50.0461C50.4701 181.765 50.8061 181.649 51.0541 181.417C51.3101 181.177 51.4381 180.861 51.4381 180.469C51.4381 180.077 51.3101 179.761 51.0541 179.521C50.8061 179.281 50.4701 179.161 50.0461 179.161H47.7421V181.765ZM47.7421 177.733H49.9621C50.2981 177.733 50.5661 177.637 50.7661 177.445C50.9661 177.245 51.0661 176.989 51.0661 176.677C51.0661 176.365 50.9661 176.117 50.7661 175.933C50.5661 175.749 50.2981 175.657 49.9621 175.657H47.7421V177.733ZM54.407 183.205V174.265H56.039V183.205H54.407ZM57.7585 183.205V174.265H59.3905V181.765H63.2185V183.205H57.7585ZM64.2742 183.205V174.265H70.2142V175.705H65.9062V177.997H69.9742V179.437H65.9062V181.765H70.2142V183.205H64.2742ZM73.5437 183.205V174.265H74.8157L79.7357 180.889L79.0757 181.021V174.265H80.7077V183.205H79.4237L74.5757 176.533L75.1757 176.401V183.205H73.5437ZM85.8822 183.349C85.1942 183.349 84.5822 183.205 84.0462 182.917C83.5182 182.629 83.1022 182.233 82.7982 181.729C82.4942 181.225 82.3422 180.653 82.3422 180.013V174.265H83.9742V179.929C83.9742 180.297 84.0542 180.629 84.2142 180.925C84.3822 181.221 84.6102 181.453 84.8982 181.621C85.1862 181.781 85.5142 181.861 85.8822 181.861C86.2582 181.861 86.5862 181.781 86.8662 181.621C87.1542 181.453 87.3782 181.221 87.5382 180.925C87.7062 180.629 87.7902 180.297 87.7902 179.929V174.265H89.4222V180.013C89.4222 180.653 89.2702 181.225 88.9662 181.729C88.6622 182.233 88.2422 182.629 87.7062 182.917C87.1782 183.205 86.5702 183.349 85.8822 183.349ZM91.0515 183.205V174.265H92.6115L95.9595 178.813H95.2155L98.4915 174.265H100.052V183.205H98.4075V176.125L99.0435 176.281L95.6475 180.805H95.4555L92.1435 176.281L92.6835 176.125V183.205H91.0515ZM101.762 183.205V174.265H105.53C106.122 174.265 106.626 174.369 107.042 174.577C107.466 174.777 107.79 175.065 108.014 175.441C108.246 175.809 108.362 176.257 108.362 176.785C108.362 177.193 108.25 177.577 108.026 177.937C107.81 178.289 107.462 178.581 106.982 178.813V178.057C107.422 178.225 107.77 178.433 108.026 178.681C108.282 178.929 108.462 179.205 108.566 179.509C108.67 179.813 108.722 180.133 108.722 180.469C108.722 181.325 108.438 181.997 107.87 182.485C107.31 182.965 106.53 183.205 105.53 183.205H101.762ZM103.394 181.765H105.698C106.122 181.765 106.458 181.649 106.706 181.417C106.962 181.177 107.09 180.861 107.09 180.469C107.09 180.077 106.962 179.761 106.706 179.521C106.458 179.281 106.122 179.161 105.698 179.161H103.394V181.765ZM103.394 177.733H105.614C105.95 177.733 106.218 177.637 106.418 177.445C106.618 177.245 106.718 176.989 106.718 176.677C106.718 176.365 106.618 176.117 106.418 175.933C106.218 175.749 105.95 175.657 105.614 175.657H103.394V177.733ZM110.059 183.205V174.265H115.999V175.705H111.691V177.997H115.759V179.437H111.691V181.765H115.999V183.205H110.059ZM117.196 183.205V174.265H120.52C121.128 174.265 121.664 174.377 122.128 174.601C122.6 174.817 122.968 175.137 123.232 175.561C123.496 175.977 123.628 176.485 123.628 177.085C123.628 177.701 123.48 178.225 123.184 178.657C122.896 179.089 122.504 179.409 122.008 179.617L124.06 183.205H122.212L120.016 179.281L121.072 179.905H118.828V183.205H117.196ZM118.828 178.465H120.544C120.84 178.465 121.096 178.409 121.312 178.297C121.528 178.177 121.696 178.013 121.816 177.805C121.936 177.597 121.996 177.357 121.996 177.085C121.996 176.805 121.936 176.565 121.816 176.365C121.696 176.157 121.528 175.997 121.312 175.885C121.096 175.765 120.84 175.705 120.544 175.705H118.828V178.465Z" fill="#0C2459"/>
<path d="M24.864 215.205V206.265H26.496V213.765H30.324V215.205H24.864ZM30.6476 215.205L33.7316 206.265H35.8436L38.9276 215.205H37.1516L36.5156 213.285H33.0596L32.4116 215.205H30.6476ZM33.5276 211.845H36.0476L34.5596 207.393H35.0156L33.5276 211.845ZM42.9974 215.349C42.4294 215.349 41.9014 215.245 41.4134 215.037C40.9334 214.829 40.5174 214.541 40.1654 214.173C39.8214 213.797 39.5694 213.361 39.4094 212.865L40.7654 212.277C40.9814 212.789 41.2934 213.193 41.7014 213.489C42.1094 213.777 42.5694 213.921 43.0814 213.921C43.3694 213.921 43.6174 213.877 43.8254 213.789C44.0414 213.693 44.2054 213.565 44.3174 213.405C44.4374 213.245 44.4974 213.053 44.4974 212.829C44.4974 212.565 44.4174 212.349 44.2574 212.181C44.1054 212.005 43.8734 211.869 43.5614 211.773L41.8454 211.221C41.1494 211.005 40.6254 210.681 40.2734 210.249C39.9214 209.817 39.7454 209.309 39.7454 208.725C39.7454 208.213 39.8694 207.761 40.1174 207.369C40.3734 206.977 40.7254 206.673 41.1734 206.457C41.6294 206.233 42.1494 206.121 42.7334 206.121C43.2694 206.121 43.7614 206.217 44.2094 206.409C44.6574 206.593 45.0414 206.853 45.3614 207.189C45.6894 207.517 45.9334 207.905 46.0934 208.353L44.7494 208.953C44.5734 208.505 44.3094 208.161 43.9574 207.921C43.6054 207.673 43.1974 207.549 42.7334 207.549C42.4614 207.549 42.2214 207.597 42.0134 207.693C41.8054 207.781 41.6414 207.909 41.5214 208.077C41.4094 208.237 41.3534 208.429 41.3534 208.653C41.3534 208.901 41.4334 209.121 41.5934 209.313C41.7534 209.497 41.9974 209.641 42.3254 209.745L43.9694 210.261C44.6814 210.493 45.2134 210.813 45.5654 211.221C45.9254 211.629 46.1054 212.133 46.1054 212.733C46.1054 213.245 45.9734 213.697 45.7094 214.089C45.4454 214.481 45.0814 214.789 44.6174 215.013C44.1534 215.237 43.6134 215.349 42.9974 215.349ZM49.1589 215.205V207.705H46.8429V206.265H53.0829V207.705H50.8029V215.205H49.1589ZM60.4117 215.349C59.7717 215.349 59.1797 215.233 58.6357 215.001C58.0997 214.769 57.6277 214.445 57.2197 214.029C56.8197 213.613 56.5077 213.125 56.2837 212.565C56.0597 212.005 55.9477 211.393 55.9477 210.729C55.9477 210.065 56.0557 209.453 56.2717 208.893C56.4957 208.325 56.8077 207.837 57.2077 207.429C57.6157 207.013 58.0917 206.693 58.6357 206.469C59.1797 206.237 59.7717 206.121 60.4117 206.121C61.0517 206.121 61.6237 206.229 62.1277 206.445C62.6397 206.661 63.0717 206.949 63.4237 207.309C63.7757 207.661 64.0277 208.049 64.1797 208.473L62.7157 209.157C62.5477 208.709 62.2637 208.341 61.8637 208.053C61.4637 207.757 60.9797 207.609 60.4117 207.609C59.8517 207.609 59.3557 207.741 58.9237 208.005C58.4997 208.269 58.1677 208.633 57.9277 209.097C57.6957 209.561 57.5797 210.105 57.5797 210.729C57.5797 211.353 57.6957 211.901 57.9277 212.373C58.1677 212.837 58.4997 213.201 58.9237 213.465C59.3557 213.729 59.8517 213.861 60.4117 213.861C60.9797 213.861 61.4637 213.717 61.8637 213.429C62.2637 213.133 62.5477 212.761 62.7157 212.313L64.1797 212.997C64.0277 213.421 63.7757 213.813 63.4237 214.173C63.0717 214.525 62.6397 214.809 62.1277 215.025C61.6237 215.241 61.0517 215.349 60.4117 215.349ZM65.5046 215.205V206.265H67.1366V210.165H70.9406V206.265H72.5846V215.205H70.9406V211.605H67.1366V215.205H65.5046ZM74.3054 215.205V206.265H80.2454V207.705H75.9374V209.997H80.0054V211.437H75.9374V213.765H80.2454V215.205H74.3054ZM85.6421 215.349C85.0021 215.349 84.4101 215.233 83.8661 215.001C83.3301 214.769 82.8581 214.445 82.4501 214.029C82.0501 213.613 81.7381 213.125 81.5141 212.565C81.2901 212.005 81.1781 211.393 81.1781 210.729C81.1781 210.065 81.2861 209.453 81.5021 208.893C81.7261 208.325 82.0381 207.837 82.4381 207.429C82.8461 207.013 83.3221 206.693 83.8661 206.469C84.4101 206.237 85.0021 206.121 85.6421 206.121C86.2821 206.121 86.8541 206.229 87.3581 206.445C87.8701 206.661 88.3021 206.949 88.6541 207.309C89.0061 207.661 89.2581 208.049 89.4101 208.473L87.9461 209.157C87.7781 208.709 87.4941 208.341 87.0941 208.053C86.6941 207.757 86.2101 207.609 85.6421 207.609C85.0821 207.609 84.5861 207.741 84.1541 208.005C83.7301 208.269 83.3981 208.633 83.1581 209.097C82.9261 209.561 82.8101 210.105 82.8101 210.729C82.8101 211.353 82.9261 211.901 83.1581 212.373C83.3981 212.837 83.7301 213.201 84.1541 213.465C84.5861 213.729 85.0821 213.861 85.6421 213.861C86.2101 213.861 86.6941 213.717 87.0941 213.429C87.4941 213.133 87.7781 212.761 87.9461 212.313L89.4101 212.997C89.2581 213.421 89.0061 213.813 88.6541 214.173C88.3021 214.525 87.8701 214.809 87.3581 215.025C86.8541 215.241 86.2821 215.349 85.6421 215.349ZM90.7351 215.205V206.265H92.3671V210.921L91.9231 210.765L95.7271 206.265H97.7791L94.2151 210.489L94.3111 209.337L97.8871 215.205H95.9671L93.5671 211.269L92.3671 212.697V215.205H90.7351ZM98.8796 215.205V206.265H104.82V207.705H100.512V209.997H104.58V211.437H100.512V213.765H104.82V215.205H98.8796ZM106.016 215.205V206.265H108.932C109.876 206.265 110.696 206.457 111.392 206.841C112.096 207.217 112.64 207.741 113.024 208.413C113.408 209.077 113.6 209.849 113.6 210.729C113.6 211.601 113.408 212.377 113.024 213.057C112.64 213.729 112.096 214.257 111.392 214.641C110.696 215.017 109.876 215.205 108.932 215.205H106.016ZM107.648 213.765H108.968C109.576 213.765 110.1 213.641 110.54 213.393C110.988 213.137 111.336 212.785 111.584 212.337C111.832 211.881 111.956 211.345 111.956 210.729C111.956 210.105 111.832 209.569 111.584 209.121C111.336 208.673 110.988 208.325 110.54 208.077C110.1 207.829 109.576 207.705 108.968 207.705H107.648V213.765ZM117.032 215.205V206.265H118.664V215.205H117.032ZM120.384 215.205V206.265H121.656L126.576 212.889L125.916 213.021V206.265H127.548V215.205H126.264L121.416 208.533L122.016 208.401V215.205H120.384Z" fill="#0C2459"/>
<path d="M28.056 247.349C27.488 247.349 26.96 247.245 26.472 247.037C25.992 246.829 25.576 246.541 25.224 246.173C24.88 245.797 24.628 245.361 24.468 244.865L25.824 244.277C26.04 244.789 26.352 245.193 26.76 245.489C27.168 245.777 27.628 245.921 28.14 245.921C28.428 245.921 28.676 245.877 28.884 245.789C29.1 245.693 29.264 245.565 29.376 245.405C29.496 245.245 29.556 245.053 29.556 244.829C29.556 244.565 29.476 244.349 29.316 244.181C29.164 244.005 28.932 243.869 28.62 243.773L26.904 243.221C26.208 243.005 25.684 242.681 25.332 242.249C24.98 241.817 24.804 241.309 24.804 240.725C24.804 240.213 24.928 239.761 25.176 239.369C25.432 238.977 25.784 238.673 26.232 238.457C26.688 238.233 27.208 238.121 27.792 238.121C28.328 238.121 28.82 238.217 29.268 238.409C29.716 238.593 30.1 238.853 30.42 239.189C30.748 239.517 30.992 239.905 31.152 240.353L29.808 240.953C29.632 240.505 29.368 240.161 29.016 239.921C28.664 239.673 28.256 239.549 27.792 239.549C27.52 239.549 27.28 239.597 27.072 239.693C26.864 239.781 26.7 239.909 26.58 240.077C26.468 240.237 26.412 240.429 26.412 240.653C26.412 240.901 26.492 241.121 26.652 241.313C26.812 241.497 27.056 241.641 27.384 241.745L29.028 242.261C29.74 242.493 30.272 242.813 30.624 243.221C30.984 243.629 31.164 244.133 31.164 244.733C31.164 245.245 31.032 245.697 30.768 246.089C30.504 246.481 30.14 246.789 29.676 247.013C29.212 247.237 28.672 247.349 28.056 247.349ZM34.2175 247.205V239.705H31.9015V238.265H38.1415V239.705H35.8615V247.205H34.2175ZM37.8078 247.205L40.8918 238.265H43.0038L46.0878 247.205H44.3118L43.6758 245.285H40.2198L39.5718 247.205H37.8078ZM40.6878 243.845H43.2078L41.7198 239.393H42.1758L40.6878 243.845ZM48.0691 247.205V239.705H45.7531V238.265H51.9931V239.705H49.7131V247.205H48.0691ZM56.433 247.349C55.745 247.349 55.133 247.205 54.597 246.917C54.069 246.629 53.653 246.233 53.349 245.729C53.045 245.225 52.893 244.653 52.893 244.013V238.265H54.525V243.929C54.525 244.297 54.605 244.629 54.765 244.925C54.933 245.221 55.161 245.453 55.449 245.621C55.737 245.781 56.065 245.861 56.433 245.861C56.809 245.861 57.137 245.781 57.417 245.621C57.705 245.453 57.929 245.221 58.089 244.925C58.257 244.629 58.341 244.297 58.341 243.929V238.265H59.973V244.013C59.973 244.653 59.821 245.225 59.517 245.729C59.213 246.233 58.793 246.629 58.257 246.917C57.729 247.205 57.121 247.349 56.433 247.349ZM64.7943 247.349C64.2263 247.349 63.6983 247.245 63.2103 247.037C62.7303 246.829 62.3143 246.541 61.9623 246.173C61.6183 245.797 61.3663 245.361 61.2063 244.865L62.5623 244.277C62.7783 244.789 63.0903 245.193 63.4983 245.489C63.9063 245.777 64.3663 245.921 64.8783 245.921C65.1663 245.921 65.4143 245.877 65.6223 245.789C65.8383 245.693 66.0023 245.565 66.1143 245.405C66.2343 245.245 66.2943 245.053 66.2943 244.829C66.2943 244.565 66.2143 244.349 66.0543 244.181C65.9023 244.005 65.6703 243.869 65.3583 243.773L63.6423 243.221C62.9463 243.005 62.4223 242.681 62.0703 242.249C61.7183 241.817 61.5423 241.309 61.5423 240.725C61.5423 240.213 61.6663 239.761 61.9143 239.369C62.1703 238.977 62.5223 238.673 62.9703 238.457C63.4263 238.233 63.9463 238.121 64.5303 238.121C65.0663 238.121 65.5583 238.217 66.0063 238.409C66.4543 238.593 66.8383 238.853 67.1583 239.189C67.4863 239.517 67.7303 239.905 67.8903 240.353L66.5463 240.953C66.3703 240.505 66.1063 240.161 65.7543 239.921C65.4023 239.673 64.9943 239.549 64.5303 239.549C64.2583 239.549 64.0183 239.597 63.8103 239.693C63.6023 239.781 63.4383 239.909 63.3183 240.077C63.2063 240.237 63.1503 240.429 63.1503 240.653C63.1503 240.901 63.2303 241.121 63.3903 241.313C63.5503 241.497 63.7943 241.641 64.1223 241.745L65.7663 242.261C66.4783 242.493 67.0103 242.813 67.3623 243.221C67.7223 243.629 67.9023 244.133 67.9023 244.733C67.9023 245.245 67.7703 245.697 67.5063 246.089C67.2423 246.481 66.8783 246.789 66.4143 247.013C65.9503 247.237 65.4103 247.349 64.7943 247.349Z" fill="#0C2459"/>
<rect width="6" height="182" transform="translate(192 74.2051)" fill="white"/>
<path d="M193.654 88.2051V86.3227H195.429V88.2051H193.654ZM193.654 82.7731V80.8908H195.429V82.7731H193.654Z" fill="#0C2459"/>
<path d="M193.654 121.205V119.323H195.429V121.205H193.654ZM193.654 115.773V113.891H195.429V115.773H193.654Z" fill="#0C2459"/>
<path d="M193.654 154.205V152.323H195.429V154.205H193.654ZM193.654 148.773V146.891H195.429V148.773H193.654Z" fill="#0C2459"/>
<path d="M193.654 187.205V185.323H195.429V187.205H193.654ZM193.654 181.773V179.891H195.429V181.773H193.654Z" fill="#0C2459"/>
<path d="M193.654 220.205V218.323H195.429V220.205H193.654ZM193.654 214.773V212.891H195.429V214.773H193.654Z" fill="#0C2459"/>
<path d="M193.654 253.205V251.323H195.429V253.205H193.654ZM193.654 247.773V245.891H195.429V247.773H193.654Z" fill="#0C2459"/>
<rect width="157" height="180.446" transform="translate(214 74.9814)" fill="white"/>
<path d="M214.132 87.9814L217.336 79.0414H218.728L221.932 87.9814H220.672L219.94 85.8814H216.124L215.392 87.9814H214.132ZM216.496 84.8014H219.568L217.864 79.8934H218.2L216.496 84.8014ZM226.275 88.1254C225.755 88.1254 225.279 88.0094 224.847 87.7774C224.423 87.5454 224.095 87.2174 223.863 86.7934L224.019 86.6014V87.9814H222.927V78.8974H224.043V82.9054L223.875 82.6294C224.115 82.2454 224.443 81.9414 224.859 81.7174C225.275 81.4854 225.751 81.3694 226.287 81.3694C226.895 81.3694 227.439 81.5174 227.919 81.8134C228.407 82.1094 228.791 82.5134 229.071 83.0254C229.351 83.5294 229.491 84.1054 229.491 84.7534C229.491 85.3854 229.351 85.9574 229.071 86.4694C228.791 86.9814 228.407 87.3854 227.919 87.6814C227.439 87.9774 226.891 88.1254 226.275 88.1254ZM226.191 87.0454C226.599 87.0454 226.963 86.9454 227.283 86.7454C227.603 86.5454 227.851 86.2734 228.027 85.9294C228.211 85.5774 228.303 85.1854 228.303 84.7534C228.303 84.3054 228.211 83.9134 228.027 83.5774C227.851 83.2334 227.603 82.9614 227.283 82.7614C226.963 82.5534 226.599 82.4494 226.191 82.4494C225.783 82.4494 225.415 82.5494 225.087 82.7494C224.767 82.9494 224.511 83.2254 224.319 83.5774C224.135 83.9214 224.043 84.3134 224.043 84.7534C224.043 85.1854 224.135 85.5774 224.319 85.9294C224.511 86.2734 224.767 86.5454 225.087 86.7454C225.415 86.9454 225.783 87.0454 226.191 87.0454ZM233.27 88.1254C232.622 88.1254 232.058 87.9654 231.578 87.6454C231.098 87.3254 230.758 86.8934 230.558 86.3494L231.446 85.9174C231.63 86.3014 231.882 86.6054 232.202 86.8294C232.522 87.0534 232.878 87.1654 233.27 87.1654C233.622 87.1654 233.914 87.0814 234.146 86.9134C234.378 86.7454 234.494 86.5254 234.494 86.2534C234.494 86.0614 234.438 85.9094 234.326 85.7974C234.222 85.6774 234.094 85.5854 233.942 85.5214C233.79 85.4494 233.65 85.3974 233.522 85.3654L232.55 85.0894C231.966 84.9214 231.538 84.6814 231.266 84.3694C231.002 84.0574 230.87 83.6934 230.87 83.2774C230.87 82.8934 230.966 82.5614 231.158 82.2814C231.358 81.9934 231.626 81.7694 231.962 81.6094C232.306 81.4494 232.69 81.3694 233.114 81.3694C233.682 81.3694 234.19 81.5134 234.638 81.8014C235.094 82.0894 235.418 82.4934 235.61 83.0134L234.698 83.4334C234.554 83.0974 234.338 82.8334 234.05 82.6414C233.762 82.4414 233.438 82.3414 233.078 82.3414C232.75 82.3414 232.49 82.4254 232.298 82.5934C232.106 82.7534 232.01 82.9574 232.01 83.2054C232.01 83.3894 232.058 83.5414 232.154 83.6614C232.25 83.7734 232.366 83.8614 232.502 83.9254C232.638 83.9814 232.77 84.0294 232.898 84.0694L233.954 84.3814C234.482 84.5334 234.89 84.7694 235.178 85.0894C235.474 85.4094 235.622 85.7934 235.622 86.2414C235.622 86.6014 235.522 86.9254 235.322 87.2134C235.122 87.5014 234.846 87.7254 234.494 87.8854C234.142 88.0454 233.734 88.1254 233.27 88.1254ZM239.711 88.0534C239.079 88.0534 238.591 87.8734 238.247 87.5134C237.911 87.1534 237.743 86.6454 237.743 85.9894V82.5814H236.567V81.5134H236.807C237.095 81.5134 237.323 81.4254 237.491 81.2494C237.659 81.0734 237.743 80.8414 237.743 80.5534V80.0254H238.859V81.5134H240.311V82.5814H238.859V85.9534C238.859 86.1694 238.891 86.3574 238.955 86.5174C239.027 86.6774 239.143 86.8054 239.303 86.9014C239.463 86.9894 239.675 87.0334 239.939 87.0334C239.995 87.0334 240.063 87.0294 240.143 87.0214C240.231 87.0134 240.311 87.0054 240.383 86.9974V87.9814C240.279 88.0054 240.163 88.0214 240.035 88.0294C239.907 88.0454 239.799 88.0534 239.711 88.0534ZM244.641 88.1254C244.017 88.1254 243.461 87.9774 242.973 87.6814C242.485 87.3854 242.101 86.9814 241.821 86.4694C241.541 85.9494 241.401 85.3694 241.401 84.7294C241.401 84.0814 241.537 83.5054 241.809 83.0014C242.089 82.4974 242.465 82.1014 242.937 81.8134C243.417 81.5174 243.953 81.3694 244.545 81.3694C245.025 81.3694 245.449 81.4574 245.817 81.6334C246.193 81.8014 246.509 82.0334 246.765 82.3294C247.029 82.6174 247.229 82.9494 247.365 83.3254C247.509 83.6934 247.581 84.0774 247.581 84.4774C247.581 84.5654 247.573 84.6654 247.557 84.7774C247.549 84.8814 247.537 84.9814 247.521 85.0774H242.217V84.1174H246.873L246.345 84.5494C246.417 84.1334 246.377 83.7614 246.225 83.4334C246.073 83.1054 245.849 82.8454 245.553 82.6534C245.257 82.4614 244.921 82.3654 244.545 82.3654C244.169 82.3654 243.825 82.4614 243.513 82.6534C243.201 82.8454 242.957 83.1214 242.781 83.4814C242.613 83.8334 242.545 84.2534 242.577 84.7414C242.545 85.2134 242.617 85.6294 242.793 85.9894C242.977 86.3414 243.233 86.6174 243.561 86.8174C243.897 87.0094 244.261 87.1054 244.653 87.1054C245.085 87.1054 245.449 87.0054 245.745 86.8054C246.041 86.6054 246.281 86.3494 246.465 86.0374L247.401 86.5174C247.273 86.8134 247.073 87.0854 246.801 87.3334C246.537 87.5734 246.221 87.7654 245.853 87.9094C245.493 88.0534 245.089 88.1254 244.641 88.1254ZM249.036 87.9814V81.5134H250.128V82.7014L250.008 82.5334C250.16 82.1654 250.392 81.8934 250.704 81.7174C251.016 81.5334 251.396 81.4414 251.844 81.4414H252.24V82.4974H251.676C251.22 82.4974 250.852 82.6414 250.572 82.9294C250.292 83.2094 250.152 83.6094 250.152 84.1294V87.9814H249.036ZM256.315 90.6214C255.859 90.6214 255.435 90.5494 255.043 90.4054C254.659 90.2614 254.327 90.0614 254.047 89.8054C253.775 89.5574 253.567 89.2654 253.423 88.9294L254.467 88.4494C254.579 88.7534 254.791 89.0094 255.103 89.2174C255.423 89.4334 255.823 89.5414 256.303 89.5414C256.671 89.5414 257.003 89.4694 257.299 89.3254C257.603 89.1894 257.843 88.9814 258.019 88.7014C258.195 88.4294 258.283 88.0974 258.283 87.7054V86.2534L258.487 86.4694C258.263 86.9094 257.939 87.2454 257.515 87.4774C257.099 87.7094 256.639 87.8254 256.135 87.8254C255.527 87.8254 254.983 87.6854 254.503 87.4054C254.023 87.1174 253.647 86.7294 253.375 86.2414C253.103 85.7454 252.967 85.1974 252.967 84.5974C252.967 83.9894 253.103 83.4414 253.375 82.9534C253.647 82.4654 254.019 82.0814 254.491 81.8014C254.971 81.5134 255.515 81.3694 256.123 81.3694C256.627 81.3694 257.083 81.4854 257.491 81.7174C257.907 81.9414 258.239 82.2534 258.487 82.6534L258.319 82.9534V81.5134H259.411V87.7054C259.411 88.2654 259.279 88.7654 259.015 89.2054C258.751 89.6454 258.383 89.9894 257.911 90.2374C257.447 90.4934 256.915 90.6214 256.315 90.6214ZM256.231 86.7454C256.615 86.7454 256.959 86.6494 257.263 86.4574C257.575 86.2654 257.823 86.0094 258.007 85.6894C258.191 85.3614 258.283 84.9974 258.283 84.5974C258.283 84.2054 258.191 83.8454 258.007 83.5174C257.823 83.1894 257.575 82.9294 257.263 82.7374C256.959 82.5454 256.615 82.4494 256.231 82.4494C255.839 82.4494 255.483 82.5454 255.163 82.7374C254.843 82.9294 254.591 83.1894 254.407 83.5174C254.231 83.8374 254.143 84.1974 254.143 84.5974C254.143 84.9974 254.231 85.3614 254.407 85.6894C254.591 86.0094 254.839 86.2654 255.151 86.4574C255.471 86.6494 255.831 86.7454 256.231 86.7454ZM264.213 88.1254C263.589 88.1254 263.025 87.9814 262.521 87.6934C262.017 87.3974 261.617 86.9934 261.321 86.4814C261.025 85.9694 260.877 85.3894 260.877 84.7414C260.877 84.0934 261.021 83.5174 261.309 83.0134C261.605 82.5094 262.005 82.1094 262.509 81.8134C263.013 81.5174 263.581 81.3694 264.213 81.3694C264.837 81.3694 265.401 81.5174 265.905 81.8134C266.409 82.1014 266.805 82.4974 267.093 83.0014C267.389 83.5054 267.537 84.0854 267.537 84.7414C267.537 85.3974 267.385 85.9814 267.081 86.4934C266.777 86.9974 266.373 87.3974 265.869 87.6934C265.373 87.9814 264.821 88.1254 264.213 88.1254ZM264.213 87.0454C264.613 87.0454 264.973 86.9454 265.293 86.7454C265.621 86.5454 265.877 86.2694 266.061 85.9174C266.253 85.5654 266.349 85.1734 266.349 84.7414C266.349 84.3014 266.253 83.9134 266.061 83.5774C265.877 83.2334 265.621 82.9614 265.293 82.7614C264.973 82.5534 264.613 82.4494 264.213 82.4494C263.805 82.4494 263.437 82.5534 263.109 82.7614C262.789 82.9614 262.533 83.2334 262.341 83.5774C262.149 83.9134 262.053 84.3014 262.053 84.7414C262.053 85.1734 262.149 85.5654 262.341 85.9174C262.533 86.2694 262.789 86.5454 263.109 86.7454C263.437 86.9454 263.805 87.0454 264.213 87.0454ZM271.199 87.9814V79.0414H272.375V86.9014H276.299V87.9814H271.199ZM279.754 88.0534C279.122 88.0534 278.634 87.8734 278.29 87.5134C277.954 87.1534 277.786 86.6454 277.786 85.9894V82.5814H276.61V81.5134H276.85C277.138 81.5134 277.366 81.4254 277.534 81.2494C277.702 81.0734 277.786 80.8414 277.786 80.5534V80.0254H278.902V81.5134H280.354V82.5814H278.902V85.9534C278.902 86.1694 278.934 86.3574 278.998 86.5174C279.07 86.6774 279.186 86.8054 279.346 86.9014C279.506 86.9894 279.718 87.0334 279.982 87.0334C280.038 87.0334 280.106 87.0294 280.186 87.0214C280.274 87.0134 280.354 87.0054 280.426 86.9974V87.9814C280.322 88.0054 280.206 88.0214 280.078 88.0294C279.95 88.0454 279.842 88.0534 279.754 88.0534ZM284.648 88.1254C284.04 88.1254 283.492 87.9774 283.004 87.6814C282.524 87.3854 282.144 86.9814 281.864 86.4694C281.584 85.9574 281.444 85.3854 281.444 84.7534C281.444 84.1054 281.584 83.5294 281.864 83.0254C282.144 82.5134 282.524 82.1094 283.004 81.8134C283.492 81.5174 284.04 81.3694 284.648 81.3694C285.184 81.3694 285.66 81.4854 286.076 81.7174C286.492 81.9414 286.82 82.2454 287.06 82.6294L286.88 82.9054V78.8974H288.008V87.9814H286.916V86.6014L287.06 86.7934C286.836 87.2174 286.508 87.5454 286.076 87.7774C285.652 88.0094 285.176 88.1254 284.648 88.1254ZM284.744 87.0454C285.152 87.0454 285.516 86.9454 285.836 86.7454C286.156 86.5454 286.408 86.2734 286.592 85.9294C286.784 85.5774 286.88 85.1854 286.88 84.7534C286.88 84.3134 286.784 83.9214 286.592 83.5774C286.408 83.2254 286.156 82.9494 285.836 82.7494C285.516 82.5494 285.152 82.4494 284.744 82.4494C284.344 82.4494 283.98 82.5534 283.652 82.7614C283.332 82.9614 283.08 83.2334 282.896 83.5774C282.712 83.9134 282.62 84.3054 282.62 84.7534C282.62 85.1854 282.712 85.5774 282.896 85.9294C283.08 86.2734 283.332 86.5454 283.652 86.7454C283.972 86.9454 284.336 87.0454 284.744 87.0454ZM290.191 87.9814V86.5414H291.355V87.9814H290.191Z" fill="#0C2459"/>
<path d="M214.996 119.981V111.041H218.752C219.288 111.041 219.748 111.137 220.132 111.329C220.524 111.521 220.824 111.793 221.032 112.145C221.248 112.489 221.356 112.901 221.356 113.381C221.356 113.821 221.24 114.221 221.008 114.581C220.784 114.933 220.452 115.209 220.012 115.409L220 114.965C220.384 115.109 220.7 115.301 220.948 115.541C221.204 115.773 221.396 116.045 221.524 116.357C221.652 116.661 221.716 116.985 221.716 117.329C221.716 118.153 221.452 118.801 220.924 119.273C220.396 119.745 219.676 119.981 218.764 119.981H214.996ZM216.172 118.901H218.812C219.332 118.901 219.748 118.761 220.06 118.481C220.372 118.201 220.528 117.821 220.528 117.341C220.528 116.861 220.372 116.481 220.06 116.201C219.748 115.913 219.332 115.769 218.812 115.769H216.172V118.901ZM216.172 114.713H218.728C219.16 114.713 219.508 114.589 219.772 114.341C220.036 114.085 220.168 113.761 220.168 113.369C220.168 112.961 220.036 112.649 219.772 112.433C219.508 112.217 219.16 112.109 218.728 112.109H216.172V114.713ZM225.069 120.125C224.645 120.125 224.269 120.049 223.941 119.897C223.621 119.737 223.369 119.521 223.185 119.249C223.001 118.969 222.909 118.649 222.909 118.289C222.909 117.945 222.981 117.637 223.125 117.365C223.277 117.085 223.509 116.849 223.821 116.657C224.141 116.465 224.541 116.329 225.021 116.249L227.421 115.853V116.789L225.273 117.149C224.857 117.221 224.553 117.353 224.361 117.545C224.177 117.737 224.085 117.973 224.085 118.253C224.085 118.517 224.189 118.737 224.397 118.913C224.613 119.089 224.881 119.177 225.201 119.177C225.609 119.177 225.961 119.093 226.257 118.925C226.561 118.749 226.797 118.513 226.965 118.217C227.141 117.921 227.229 117.593 227.229 117.233V115.589C227.229 115.237 227.097 114.953 226.833 114.737C226.577 114.513 226.237 114.401 225.813 114.401C225.445 114.401 225.117 114.497 224.829 114.689C224.549 114.873 224.341 115.121 224.205 115.433L223.233 114.929C223.353 114.633 223.545 114.369 223.809 114.137C224.073 113.897 224.381 113.709 224.733 113.573C225.085 113.437 225.453 113.369 225.837 113.369C226.333 113.369 226.769 113.465 227.145 113.657C227.521 113.841 227.813 114.101 228.021 114.437C228.237 114.765 228.345 115.149 228.345 115.589V119.981H227.253V118.757L227.457 118.829C227.321 119.085 227.137 119.309 226.905 119.501C226.673 119.693 226.401 119.845 226.089 119.957C225.777 120.069 225.437 120.125 225.069 120.125ZM230.075 119.981V113.513H231.167V114.701L231.047 114.533C231.199 114.165 231.431 113.893 231.743 113.717C232.055 113.533 232.435 113.441 232.883 113.441H233.279V114.497H232.715C232.259 114.497 231.891 114.641 231.611 114.929C231.331 115.209 231.191 115.609 231.191 116.129V119.981H230.075ZM237.342 120.125C236.718 120.125 236.154 119.981 235.65 119.693C235.146 119.397 234.746 118.993 234.45 118.481C234.154 117.969 234.006 117.389 234.006 116.741C234.006 116.093 234.15 115.517 234.438 115.013C234.734 114.509 235.134 114.109 235.638 113.813C236.142 113.517 236.71 113.369 237.342 113.369C237.966 113.369 238.53 113.517 239.034 113.813C239.538 114.101 239.934 114.497 240.222 115.001C240.518 115.505 240.666 116.085 240.666 116.741C240.666 117.397 240.514 117.981 240.21 118.493C239.906 118.997 239.502 119.397 238.998 119.693C238.502 119.981 237.95 120.125 237.342 120.125ZM237.342 119.045C237.742 119.045 238.102 118.945 238.422 118.745C238.75 118.545 239.006 118.269 239.19 117.917C239.382 117.565 239.478 117.173 239.478 116.741C239.478 116.301 239.382 115.913 239.19 115.577C239.006 115.233 238.75 114.961 238.422 114.761C238.102 114.553 237.742 114.449 237.342 114.449C236.934 114.449 236.566 114.553 236.238 114.761C235.918 114.961 235.662 115.233 235.47 115.577C235.278 115.913 235.182 116.301 235.182 116.741C235.182 117.173 235.278 117.565 235.47 117.917C235.662 118.269 235.918 118.545 236.238 118.745C236.566 118.945 236.934 119.045 237.342 119.045ZM242.122 119.981V113.513H243.214V114.773L243.034 114.665C243.194 114.257 243.45 113.941 243.802 113.717C244.162 113.485 244.582 113.369 245.062 113.369C245.526 113.369 245.938 113.473 246.298 113.681C246.666 113.889 246.954 114.177 247.162 114.545C247.378 114.913 247.486 115.329 247.486 115.793V119.981H246.358V116.153C246.358 115.793 246.294 115.489 246.166 115.241C246.038 114.993 245.854 114.801 245.614 114.665C245.382 114.521 245.114 114.449 244.81 114.449C244.506 114.449 244.234 114.521 243.994 114.665C243.762 114.801 243.578 114.997 243.442 115.253C243.306 115.501 243.238 115.801 243.238 116.153V119.981H242.122ZM252.059 120.125C251.435 120.125 250.879 119.977 250.391 119.681C249.903 119.385 249.519 118.981 249.239 118.469C248.959 117.949 248.819 117.369 248.819 116.729C248.819 116.081 248.955 115.505 249.227 115.001C249.507 114.497 249.883 114.101 250.355 113.813C250.835 113.517 251.371 113.369 251.963 113.369C252.443 113.369 252.867 113.457 253.235 113.633C253.611 113.801 253.927 114.033 254.183 114.329C254.447 114.617 254.647 114.949 254.783 115.325C254.927 115.693 254.999 116.077 254.999 116.477C254.999 116.565 254.991 116.665 254.975 116.777C254.967 116.881 254.955 116.981 254.939 117.077H249.635V116.117H254.291L253.763 116.549C253.835 116.133 253.795 115.761 253.643 115.433C253.491 115.105 253.267 114.845 252.971 114.653C252.675 114.461 252.339 114.365 251.963 114.365C251.587 114.365 251.243 114.461 250.931 114.653C250.619 114.845 250.375 115.121 250.199 115.481C250.031 115.833 249.963 116.253 249.995 116.741C249.963 117.213 250.035 117.629 250.211 117.989C250.395 118.341 250.651 118.617 250.979 118.817C251.315 119.009 251.679 119.105 252.071 119.105C252.503 119.105 252.867 119.005 253.163 118.805C253.459 118.605 253.699 118.349 253.883 118.037L254.819 118.517C254.691 118.813 254.491 119.085 254.219 119.333C253.955 119.573 253.639 119.765 253.271 119.909C252.911 120.053 252.507 120.125 252.059 120.125ZM258.66 119.981V111.041H259.836V118.901H263.76V119.981H258.66ZM265.082 119.981V111.041H266.258V118.901H270.182V119.981H265.082ZM275.385 120.125C274.753 120.125 274.169 120.013 273.633 119.789C273.105 119.557 272.641 119.233 272.241 118.817C271.849 118.401 271.545 117.913 271.329 117.353C271.113 116.793 271.005 116.181 271.005 115.517C271.005 114.845 271.113 114.229 271.329 113.669C271.545 113.109 271.849 112.621 272.241 112.205C272.633 111.789 273.097 111.469 273.633 111.245C274.169 111.013 274.753 110.897 275.385 110.897C276.001 110.897 276.553 111.005 277.041 111.221C277.537 111.437 277.953 111.717 278.289 112.061C278.633 112.405 278.877 112.773 279.021 113.165L277.941 113.657C277.733 113.161 277.409 112.761 276.969 112.457C276.529 112.145 276.001 111.989 275.385 111.989C274.761 111.989 274.205 112.137 273.717 112.433C273.237 112.729 272.861 113.141 272.589 113.669C272.317 114.197 272.181 114.813 272.181 115.517C272.181 116.213 272.317 116.825 272.589 117.353C272.861 117.881 273.237 118.293 273.717 118.589C274.205 118.885 274.761 119.033 275.385 119.033C276.001 119.033 276.529 118.881 276.969 118.577C277.409 118.265 277.733 117.861 277.941 117.365L279.021 117.857C278.877 118.249 278.633 118.617 278.289 118.961C277.953 119.305 277.537 119.585 277.041 119.801C276.553 120.017 276.001 120.125 275.385 120.125ZM280.945 119.981V118.541H282.109V119.981H280.945Z" fill="#0C2459"/>
<path d="M214.6 151.981V150.841H215.092C215.516 150.841 215.852 150.717 216.1 150.469C216.348 150.213 216.472 149.869 216.472 149.437V143.041H217.66V149.413C217.66 149.933 217.552 150.385 217.336 150.769C217.128 151.153 216.832 151.453 216.448 151.669C216.064 151.877 215.612 151.981 215.092 151.981H214.6ZM222.565 152.125C221.941 152.125 221.377 151.981 220.873 151.693C220.369 151.397 219.969 150.993 219.673 150.481C219.377 149.969 219.229 149.389 219.229 148.741C219.229 148.093 219.373 147.517 219.661 147.013C219.957 146.509 220.357 146.109 220.861 145.813C221.365 145.517 221.933 145.369 222.565 145.369C223.189 145.369 223.753 145.517 224.257 145.813C224.761 146.101 225.157 146.497 225.445 147.001C225.741 147.505 225.889 148.085 225.889 148.741C225.889 149.397 225.737 149.981 225.433 150.493C225.129 150.997 224.725 151.397 224.221 151.693C223.725 151.981 223.173 152.125 222.565 152.125ZM222.565 151.045C222.965 151.045 223.325 150.945 223.645 150.745C223.973 150.545 224.229 150.269 224.413 149.917C224.605 149.565 224.701 149.173 224.701 148.741C224.701 148.301 224.605 147.913 224.413 147.577C224.229 147.233 223.973 146.961 223.645 146.761C223.325 146.553 222.965 146.449 222.565 146.449C222.157 146.449 221.789 146.553 221.461 146.761C221.141 146.961 220.885 147.233 220.693 147.577C220.501 147.913 220.405 148.301 220.405 148.741C220.405 149.173 220.501 149.565 220.693 149.917C220.885 150.269 221.141 150.545 221.461 150.745C221.789 150.945 222.157 151.045 222.565 151.045ZM227.344 151.981V142.897H228.46V146.773L228.256 146.665C228.416 146.257 228.672 145.941 229.024 145.717C229.384 145.485 229.804 145.369 230.284 145.369C230.748 145.369 231.16 145.473 231.52 145.681C231.888 145.889 232.176 146.177 232.384 146.545C232.6 146.913 232.708 147.329 232.708 147.793V151.981H231.58V148.153C231.58 147.793 231.512 147.489 231.376 147.241C231.248 146.993 231.068 146.801 230.836 146.665C230.604 146.521 230.336 146.449 230.032 146.449C229.736 146.449 229.468 146.521 229.228 146.665C228.988 146.801 228.8 146.997 228.664 147.253C228.528 147.501 228.46 147.801 228.46 148.153V151.981H227.344ZM234.305 151.981V145.513H235.397V146.773L235.217 146.665C235.377 146.257 235.633 145.941 235.985 145.717C236.345 145.485 236.765 145.369 237.245 145.369C237.709 145.369 238.121 145.473 238.481 145.681C238.849 145.889 239.137 146.177 239.345 146.545C239.561 146.913 239.669 147.329 239.669 147.793V151.981H238.541V148.153C238.541 147.793 238.477 147.489 238.349 147.241C238.221 146.993 238.037 146.801 237.797 146.665C237.565 146.521 237.297 146.449 236.993 146.449C236.689 146.449 236.417 146.521 236.177 146.665C235.945 146.801 235.761 146.997 235.625 147.253C235.489 147.501 235.421 147.801 235.421 148.153V151.981H234.305ZM241.722 151.981V150.541H242.886V151.981H241.722ZM244.811 151.981V150.841H245.303C245.727 150.841 246.063 150.717 246.311 150.469C246.559 150.213 246.683 149.869 246.683 149.437V143.041H247.871V149.413C247.871 149.933 247.763 150.385 247.547 150.769C247.339 151.153 247.043 151.453 246.659 151.669C246.275 151.877 245.823 151.981 245.303 151.981H244.811ZM251.6 152.125C251.176 152.125 250.8 152.049 250.472 151.897C250.152 151.737 249.9 151.521 249.716 151.249C249.532 150.969 249.44 150.649 249.44 150.289C249.44 149.945 249.512 149.637 249.656 149.365C249.808 149.085 250.04 148.849 250.352 148.657C250.672 148.465 251.072 148.329 251.552 148.249L253.952 147.853V148.789L251.804 149.149C251.388 149.221 251.084 149.353 250.892 149.545C250.708 149.737 250.616 149.973 250.616 150.253C250.616 150.517 250.72 150.737 250.928 150.913C251.144 151.089 251.412 151.177 251.732 151.177C252.14 151.177 252.492 151.093 252.788 150.925C253.092 150.749 253.328 150.513 253.496 150.217C253.672 149.921 253.76 149.593 253.76 149.233V147.589C253.76 147.237 253.628 146.953 253.364 146.737C253.108 146.513 252.768 146.401 252.344 146.401C251.976 146.401 251.648 146.497 251.36 146.689C251.08 146.873 250.872 147.121 250.736 147.433L249.764 146.929C249.884 146.633 250.076 146.369 250.34 146.137C250.604 145.897 250.912 145.709 251.264 145.573C251.616 145.437 251.984 145.369 252.368 145.369C252.864 145.369 253.3 145.465 253.676 145.657C254.052 145.841 254.344 146.101 254.552 146.437C254.768 146.765 254.876 147.149 254.876 147.589V151.981H253.784V150.757L253.988 150.829C253.852 151.085 253.668 151.309 253.436 151.501C253.204 151.693 252.932 151.845 252.62 151.957C252.308 152.069 251.968 152.125 251.6 152.125ZM259.606 152.125C258.974 152.125 258.41 151.977 257.914 151.681C257.426 151.385 257.042 150.981 256.762 150.469C256.482 149.957 256.342 149.381 256.342 148.741C256.342 148.093 256.482 147.517 256.762 147.013C257.042 146.509 257.426 146.109 257.914 145.813C258.41 145.517 258.974 145.369 259.606 145.369C260.03 145.369 260.426 145.445 260.794 145.597C261.162 145.749 261.486 145.953 261.766 146.209C262.046 146.465 262.25 146.765 262.378 147.109L261.382 147.589C261.23 147.253 260.998 146.981 260.686 146.773C260.374 146.557 260.014 146.449 259.606 146.449C259.214 146.449 258.858 146.549 258.538 146.749C258.226 146.949 257.978 147.221 257.794 147.565C257.61 147.909 257.518 148.305 257.518 148.753C257.518 149.185 257.61 149.577 257.794 149.929C257.978 150.273 258.226 150.545 258.538 150.745C258.858 150.945 259.214 151.045 259.606 151.045C260.014 151.045 260.374 150.941 260.686 150.733C260.998 150.517 261.23 150.233 261.382 149.881L262.378 150.385C262.25 150.721 262.046 151.021 261.766 151.285C261.486 151.541 261.162 151.745 260.794 151.897C260.426 152.049 260.03 152.125 259.606 152.125ZM266.909 152.125C266.285 152.125 265.721 151.981 265.217 151.693C264.713 151.397 264.313 150.993 264.017 150.481C263.721 149.969 263.573 149.389 263.573 148.741C263.573 148.093 263.717 147.517 264.005 147.013C264.301 146.509 264.701 146.109 265.205 145.813C265.709 145.517 266.277 145.369 266.909 145.369C267.533 145.369 268.097 145.517 268.601 145.813C269.105 146.101 269.501 146.497 269.789 147.001C270.085 147.505 270.233 148.085 270.233 148.741C270.233 149.397 270.081 149.981 269.777 150.493C269.473 150.997 269.069 151.397 268.565 151.693C268.069 151.981 267.517 152.125 266.909 152.125ZM266.909 151.045C267.309 151.045 267.669 150.945 267.989 150.745C268.317 150.545 268.573 150.269 268.757 149.917C268.949 149.565 269.045 149.173 269.045 148.741C269.045 148.301 268.949 147.913 268.757 147.577C268.573 147.233 268.317 146.961 267.989 146.761C267.669 146.553 267.309 146.449 266.909 146.449C266.501 146.449 266.133 146.553 265.805 146.761C265.485 146.961 265.229 147.233 265.037 147.577C264.845 147.913 264.749 148.301 264.749 148.741C264.749 149.173 264.845 149.565 265.037 149.917C265.229 150.269 265.485 150.545 265.805 150.745C266.133 150.945 266.501 151.045 266.909 151.045ZM275.036 152.125C274.516 152.125 274.04 152.009 273.608 151.777C273.184 151.545 272.856 151.217 272.624 150.793L272.78 150.601V151.981H271.688V142.897H272.804V146.905L272.636 146.629C272.876 146.245 273.204 145.941 273.62 145.717C274.036 145.485 274.512 145.369 275.048 145.369C275.656 145.369 276.2 145.517 276.68 145.813C277.168 146.109 277.552 146.513 277.832 147.025C278.112 147.529 278.252 148.105 278.252 148.753C278.252 149.385 278.112 149.957 277.832 150.469C277.552 150.981 277.168 151.385 276.68 151.681C276.2 151.977 275.652 152.125 275.036 152.125ZM274.952 151.045C275.36 151.045 275.724 150.945 276.044 150.745C276.364 150.545 276.612 150.273 276.788 149.929C276.972 149.577 277.064 149.185 277.064 148.753C277.064 148.305 276.972 147.913 276.788 147.577C276.612 147.233 276.364 146.961 276.044 146.761C275.724 146.553 275.36 146.449 274.952 146.449C274.544 146.449 274.176 146.549 273.848 146.749C273.528 146.949 273.272 147.225 273.08 147.577C272.896 147.921 272.804 148.313 272.804 148.753C272.804 149.185 272.896 149.577 273.08 149.929C273.272 150.273 273.528 150.545 273.848 150.745C274.176 150.945 274.544 151.045 274.952 151.045ZM284.648 154.513C283.928 154.513 283.26 154.385 282.644 154.129C282.028 153.881 281.488 153.529 281.024 153.073C280.568 152.617 280.212 152.085 279.956 151.477C279.708 150.861 279.584 150.193 279.584 149.473C279.584 148.761 279.712 148.101 279.968 147.493C280.224 146.885 280.58 146.357 281.036 145.909C281.492 145.453 282.028 145.101 282.644 144.853C283.26 144.597 283.924 144.469 284.636 144.469C285.372 144.469 286.044 144.601 286.652 144.865C287.26 145.129 287.784 145.493 288.224 145.957C288.672 146.413 289.016 146.941 289.256 147.541C289.504 148.133 289.628 148.765 289.628 149.437C289.628 149.949 289.544 150.397 289.376 150.781C289.216 151.157 288.984 151.453 288.68 151.669C288.376 151.877 288.016 151.981 287.6 151.981C287.344 151.981 287.096 151.933 286.856 151.837C286.616 151.741 286.412 151.597 286.244 151.405C286.084 151.213 285.984 150.977 285.944 150.697L286.172 150.997C286.06 151.213 285.908 151.393 285.716 151.537C285.532 151.681 285.32 151.793 285.08 151.873C284.848 151.945 284.596 151.981 284.324 151.981C283.86 151.981 283.44 151.869 283.064 151.645C282.696 151.421 282.4 151.117 282.176 150.733C281.96 150.349 281.852 149.913 281.852 149.425C281.852 148.937 281.96 148.501 282.176 148.117C282.392 147.725 282.688 147.413 283.064 147.181C283.448 146.949 283.876 146.833 284.348 146.833C284.74 146.833 285.096 146.913 285.416 147.073C285.736 147.225 285.976 147.437 286.136 147.709L286.04 147.949V146.953H286.928V150.169C286.928 150.465 286.988 150.685 287.108 150.829C287.236 150.965 287.408 151.033 287.624 151.033C287.936 151.033 288.176 150.905 288.344 150.649C288.512 150.385 288.596 149.981 288.596 149.437C288.596 148.869 288.5 148.345 288.308 147.865C288.124 147.377 287.86 146.953 287.516 146.593C287.172 146.225 286.756 145.941 286.268 145.741C285.788 145.533 285.248 145.429 284.648 145.429C284.064 145.429 283.524 145.533 283.028 145.741C282.54 145.941 282.112 146.221 281.744 146.581C281.384 146.941 281.104 147.365 280.904 147.853C280.712 148.341 280.616 148.877 280.616 149.461C280.616 150.037 280.712 150.573 280.904 151.069C281.104 151.565 281.384 151.997 281.744 152.365C282.104 152.741 282.528 153.033 283.016 153.241C283.512 153.449 284.06 153.553 284.66 153.553C285.028 153.553 285.38 153.509 285.716 153.421C286.06 153.341 286.368 153.221 286.64 153.061L287.084 153.889C286.38 154.305 285.568 154.513 284.648 154.513ZM284.396 151.033C284.692 151.033 284.956 150.961 285.188 150.817C285.42 150.673 285.6 150.481 285.728 150.241C285.864 149.993 285.932 149.713 285.932 149.401C285.932 148.937 285.788 148.557 285.5 148.261C285.212 147.957 284.844 147.801 284.396 147.793C284.108 147.793 283.844 147.865 283.604 148.009C283.372 148.145 283.188 148.337 283.052 148.585C282.924 148.825 282.86 149.101 282.86 149.413C282.86 149.717 282.928 149.993 283.064 150.241C283.2 150.481 283.384 150.673 283.616 150.817C283.848 150.961 284.108 151.033 284.396 151.033ZM295.108 152.125C294.476 152.125 293.892 152.013 293.356 151.789C292.82 151.557 292.356 151.233 291.964 150.817C291.572 150.401 291.264 149.913 291.04 149.353C290.824 148.793 290.716 148.181 290.716 147.517C290.716 146.845 290.824 146.229 291.04 145.669C291.256 145.109 291.56 144.621 291.952 144.205C292.344 143.789 292.808 143.469 293.344 143.245C293.88 143.013 294.464 142.897 295.096 142.897C295.712 142.897 296.264 143.005 296.752 143.221C297.248 143.437 297.664 143.717 298 144.061C298.344 144.405 298.588 144.773 298.732 145.165L297.676 145.681C297.468 145.161 297.144 144.749 296.704 144.445C296.264 144.141 295.728 143.989 295.096 143.989C294.472 143.989 293.916 144.137 293.428 144.433C292.948 144.729 292.572 145.141 292.3 145.669C292.028 146.197 291.892 146.813 291.892 147.517C291.892 148.213 292.028 148.825 292.3 149.353C292.58 149.881 292.96 150.293 293.44 150.589C293.928 150.885 294.484 151.033 295.108 151.033C295.652 151.033 296.144 150.917 296.584 150.685C297.024 150.453 297.372 150.133 297.628 149.725C297.884 149.317 298.012 148.845 298.012 148.309V147.757L298.552 148.261H295.096V147.241H299.2V148.033C299.2 148.657 299.092 149.221 298.876 149.725C298.66 150.229 298.364 150.661 297.988 151.021C297.612 151.373 297.176 151.645 296.68 151.837C296.184 152.029 295.66 152.125 295.108 152.125ZM300.657 151.981V145.513H301.749V146.833L301.593 146.629C301.753 146.221 302.009 145.909 302.361 145.693C302.713 145.477 303.109 145.369 303.549 145.369C304.053 145.369 304.505 145.509 304.905 145.789C305.313 146.069 305.593 146.437 305.745 146.893L305.433 146.905C305.601 146.401 305.885 146.021 306.285 145.765C306.685 145.501 307.129 145.369 307.617 145.369C308.065 145.369 308.469 145.473 308.829 145.681C309.197 145.889 309.489 146.177 309.705 146.545C309.921 146.913 310.029 147.329 310.029 147.793V151.981H308.901V148.153C308.901 147.793 308.837 147.489 308.709 147.241C308.581 146.993 308.405 146.801 308.181 146.665C307.965 146.521 307.709 146.449 307.413 146.449C307.125 146.449 306.865 146.521 306.633 146.665C306.409 146.801 306.229 146.997 306.093 147.253C305.965 147.501 305.901 147.801 305.901 148.153V151.981H304.773V148.153C304.773 147.793 304.709 147.489 304.581 147.241C304.453 146.993 304.277 146.801 304.053 146.665C303.837 146.521 303.581 146.449 303.285 146.449C302.997 146.449 302.737 146.521 302.505 146.665C302.281 146.801 302.101 146.997 301.965 147.253C301.837 147.501 301.773 147.801 301.773 148.153V151.981H300.657ZM313.51 152.125C313.086 152.125 312.71 152.049 312.382 151.897C312.062 151.737 311.81 151.521 311.626 151.249C311.442 150.969 311.35 150.649 311.35 150.289C311.35 149.945 311.422 149.637 311.566 149.365C311.718 149.085 311.95 148.849 312.262 148.657C312.582 148.465 312.982 148.329 313.462 148.249L315.862 147.853V148.789L313.714 149.149C313.298 149.221 312.994 149.353 312.802 149.545C312.618 149.737 312.526 149.973 312.526 150.253C312.526 150.517 312.63 150.737 312.838 150.913C313.054 151.089 313.322 151.177 313.642 151.177C314.05 151.177 314.402 151.093 314.698 150.925C315.002 150.749 315.238 150.513 315.406 150.217C315.582 149.921 315.67 149.593 315.67 149.233V147.589C315.67 147.237 315.538 146.953 315.274 146.737C315.018 146.513 314.678 146.401 314.254 146.401C313.886 146.401 313.558 146.497 313.27 146.689C312.99 146.873 312.782 147.121 312.646 147.433L311.674 146.929C311.794 146.633 311.986 146.369 312.25 146.137C312.514 145.897 312.822 145.709 313.174 145.573C313.526 145.437 313.894 145.369 314.278 145.369C314.774 145.369 315.21 145.465 315.586 145.657C315.962 145.841 316.254 146.101 316.462 146.437C316.678 146.765 316.786 147.149 316.786 147.589V151.981H315.694V150.757L315.898 150.829C315.762 151.085 315.578 151.309 315.346 151.501C315.114 151.693 314.842 151.845 314.53 151.957C314.218 152.069 313.878 152.125 313.51 152.125ZM318.516 151.981V145.513H319.632V151.981H318.516ZM318.516 144.481V143.041H319.632V144.481H318.516ZM321.364 151.981V142.897H322.48V151.981H321.364ZM324.668 151.981V150.541H325.832V151.981H324.668ZM332.268 152.125C331.636 152.125 331.052 152.013 330.516 151.789C329.988 151.557 329.524 151.233 329.124 150.817C328.732 150.401 328.428 149.913 328.212 149.353C327.996 148.793 327.888 148.181 327.888 147.517C327.888 146.845 327.996 146.229 328.212 145.669C328.428 145.109 328.732 144.621 329.124 144.205C329.516 143.789 329.98 143.469 330.516 143.245C331.052 143.013 331.636 142.897 332.268 142.897C332.884 142.897 333.436 143.005 333.924 143.221C334.42 143.437 334.836 143.717 335.172 144.061C335.516 144.405 335.76 144.773 335.904 145.165L334.824 145.657C334.616 145.161 334.292 144.761 333.852 144.457C333.412 144.145 332.884 143.989 332.268 143.989C331.644 143.989 331.088 144.137 330.6 144.433C330.12 144.729 329.744 145.141 329.472 145.669C329.2 146.197 329.064 146.813 329.064 147.517C329.064 148.213 329.2 148.825 329.472 149.353C329.744 149.881 330.12 150.293 330.6 150.589C331.088 150.885 331.644 151.033 332.268 151.033C332.884 151.033 333.412 150.881 333.852 150.577C334.292 150.265 334.616 149.861 334.824 149.365L335.904 149.857C335.76 150.249 335.516 150.617 335.172 150.961C334.836 151.305 334.42 151.585 333.924 151.801C333.436 152.017 332.884 152.125 332.268 152.125ZM340.327 152.125C339.703 152.125 339.139 151.981 338.635 151.693C338.131 151.397 337.731 150.993 337.435 150.481C337.139 149.969 336.991 149.389 336.991 148.741C336.991 148.093 337.135 147.517 337.423 147.013C337.719 146.509 338.119 146.109 338.623 145.813C339.127 145.517 339.695 145.369 340.327 145.369C340.951 145.369 341.515 145.517 342.019 145.813C342.523 146.101 342.919 146.497 343.207 147.001C343.503 147.505 343.651 148.085 343.651 148.741C343.651 149.397 343.499 149.981 343.195 150.493C342.891 150.997 342.487 151.397 341.983 151.693C341.487 151.981 340.935 152.125 340.327 152.125ZM340.327 151.045C340.727 151.045 341.087 150.945 341.407 150.745C341.735 150.545 341.991 150.269 342.175 149.917C342.367 149.565 342.463 149.173 342.463 148.741C342.463 148.301 342.367 147.913 342.175 147.577C341.991 147.233 341.735 146.961 341.407 146.761C341.087 146.553 340.727 146.449 340.327 146.449C339.919 146.449 339.551 146.553 339.223 146.761C338.903 146.961 338.647 147.233 338.455 147.577C338.263 147.913 338.167 148.301 338.167 148.741C338.167 149.173 338.263 149.565 338.455 149.917C338.647 150.269 338.903 150.545 339.223 150.745C339.551 150.945 339.919 151.045 340.327 151.045ZM345.106 151.981V145.513H346.198V146.833L346.042 146.629C346.202 146.221 346.458 145.909 346.81 145.693C347.162 145.477 347.558 145.369 347.998 145.369C348.502 145.369 348.954 145.509 349.354 145.789C349.762 146.069 350.042 146.437 350.194 146.893L349.882 146.905C350.05 146.401 350.334 146.021 350.734 145.765C351.134 145.501 351.578 145.369 352.066 145.369C352.514 145.369 352.918 145.473 353.278 145.681C353.646 145.889 353.938 146.177 354.154 146.545C354.37 146.913 354.478 147.329 354.478 147.793V151.981H353.35V148.153C353.35 147.793 353.286 147.489 353.158 147.241C353.03 146.993 352.854 146.801 352.63 146.665C352.414 146.521 352.158 146.449 351.862 146.449C351.574 146.449 351.314 146.521 351.082 146.665C350.858 146.801 350.678 146.997 350.542 147.253C350.414 147.501 350.35 147.801 350.35 148.153V151.981H349.222V148.153C349.222 147.793 349.158 147.489 349.03 147.241C348.902 146.993 348.726 146.801 348.502 146.665C348.286 146.521 348.03 146.449 347.734 146.449C347.446 146.449 347.186 146.521 346.954 146.665C346.73 146.801 346.55 146.997 346.414 147.253C346.286 147.501 346.222 147.801 346.222 148.153V151.981H345.106Z" fill="#0C2459"/>
<path d="M217.228 183.981V181.497H214.744V180.453H217.228V177.981H218.272V180.453H220.744V181.497H218.272V183.981H217.228ZM223.624 183.981V176.061H221.932V175.041H224.812V183.981H223.624ZM233.053 183.981V181.917H228.661V180.945L233.029 175.041H234.157V180.945H235.321V181.917H234.157V183.981H233.053ZM229.549 181.365L229.381 180.945H233.053V176.025L233.401 176.121L229.549 181.365ZM236.721 183.981L240.645 176.061H236.265V175.041H241.881V176.061L237.993 183.981H236.721ZM243.295 183.981L247.219 176.061H242.839V175.041H248.455V176.061L244.567 183.981H243.295ZM253.301 184.125C252.589 184.125 251.965 183.933 251.429 183.549C250.901 183.157 250.489 182.617 250.193 181.929C249.897 181.233 249.749 180.425 249.749 179.505C249.749 178.585 249.897 177.781 250.193 177.093C250.489 176.397 250.901 175.857 251.429 175.473C251.957 175.089 252.577 174.897 253.289 174.897C254.001 174.897 254.621 175.089 255.149 175.473C255.677 175.857 256.089 176.397 256.385 177.093C256.689 177.781 256.841 178.585 256.841 179.505C256.841 180.425 256.693 181.233 256.397 181.929C256.101 182.625 255.685 183.165 255.149 183.549C254.621 183.933 254.005 184.125 253.301 184.125ZM253.301 183.033C253.781 183.033 254.197 182.889 254.549 182.601C254.901 182.305 255.173 181.893 255.365 181.365C255.565 180.837 255.665 180.217 255.665 179.505C255.665 178.793 255.565 178.173 255.365 177.645C255.173 177.117 254.897 176.709 254.537 176.421C254.185 176.133 253.769 175.989 253.289 175.989C252.809 175.989 252.393 176.133 252.041 176.421C251.689 176.709 251.413 177.117 251.213 177.645C251.021 178.173 250.925 178.793 250.925 179.505C250.925 180.209 251.021 180.825 251.213 181.353C251.413 181.881 251.689 182.293 252.041 182.589C252.401 182.885 252.821 183.033 253.301 183.033ZM261.985 184.125C261.273 184.125 260.649 183.933 260.113 183.549C259.585 183.157 259.173 182.617 258.877 181.929C258.581 181.233 258.433 180.425 258.433 179.505C258.433 178.585 258.581 177.781 258.877 177.093C259.173 176.397 259.585 175.857 260.113 175.473C260.641 175.089 261.261 174.897 261.973 174.897C262.685 174.897 263.305 175.089 263.833 175.473C264.361 175.857 264.773 176.397 265.069 177.093C265.373 177.781 265.525 178.585 265.525 179.505C265.525 180.425 265.377 181.233 265.081 181.929C264.785 182.625 264.369 183.165 263.833 183.549C263.305 183.933 262.689 184.125 261.985 184.125ZM261.985 183.033C262.465 183.033 262.881 182.889 263.233 182.601C263.585 182.305 263.857 181.893 264.049 181.365C264.249 180.837 264.349 180.217 264.349 179.505C264.349 178.793 264.249 178.173 264.049 177.645C263.857 177.117 263.581 176.709 263.221 176.421C262.869 176.133 262.453 175.989 261.973 175.989C261.493 175.989 261.077 176.133 260.725 176.421C260.373 176.709 260.097 177.117 259.897 177.645C259.705 178.173 259.609 178.793 259.609 179.505C259.609 180.209 259.705 180.825 259.897 181.353C260.097 181.881 260.373 182.293 260.725 182.589C261.085 182.885 261.505 183.033 261.985 183.033ZM267.849 183.981L270.933 179.961L271.149 179.985C271.029 180.145 270.897 180.273 270.753 180.369C270.609 180.457 270.449 180.521 270.273 180.561C270.105 180.601 269.921 180.621 269.721 180.621C269.193 180.621 268.717 180.501 268.293 180.261C267.877 180.013 267.545 179.677 267.297 179.253C267.057 178.821 266.937 178.329 266.937 177.777C266.937 177.225 267.065 176.733 267.321 176.301C267.577 175.869 267.929 175.529 268.377 175.281C268.825 175.025 269.329 174.897 269.889 174.897C270.465 174.897 270.973 175.025 271.413 175.281C271.861 175.529 272.213 175.877 272.469 176.325C272.725 176.765 272.853 177.273 272.853 177.849C272.853 178.161 272.817 178.469 272.745 178.773C272.673 179.077 272.557 179.385 272.397 179.697C272.245 180.009 272.041 180.333 271.785 180.669L269.265 183.981H267.849ZM269.889 179.589C270.233 179.589 270.537 179.513 270.801 179.361C271.073 179.201 271.285 178.985 271.437 178.713C271.589 178.433 271.665 178.121 271.665 177.777C271.665 177.417 271.585 177.101 271.425 176.829C271.273 176.557 271.065 176.341 270.801 176.181C270.537 176.021 270.233 175.941 269.889 175.941C269.553 175.941 269.253 176.021 268.989 176.181C268.725 176.341 268.513 176.557 268.353 176.829C268.201 177.101 268.125 177.417 268.125 177.777C268.125 178.121 268.201 178.433 268.353 178.713C268.505 178.985 268.713 179.201 268.977 179.361C269.249 179.513 269.553 179.589 269.889 179.589ZM276.874 184.125C276.298 184.125 275.786 183.997 275.338 183.741C274.898 183.485 274.55 183.137 274.294 182.697C274.038 182.249 273.91 181.741 273.91 181.173C273.91 180.861 273.946 180.553 274.018 180.249C274.09 179.945 274.206 179.637 274.366 179.325C274.526 179.013 274.73 178.689 274.978 178.353L277.498 175.041H278.914L275.83 179.049L275.614 179.025C275.734 178.865 275.866 178.741 276.01 178.653C276.162 178.565 276.322 178.501 276.49 178.461C276.666 178.421 276.85 178.401 277.042 178.401C277.57 178.401 278.042 178.525 278.458 178.773C278.882 179.013 279.214 179.345 279.454 179.769C279.702 180.193 279.826 180.681 279.826 181.233C279.826 181.785 279.698 182.281 279.442 182.721C279.186 183.153 278.834 183.497 278.386 183.753C277.946 184.001 277.442 184.125 276.874 184.125ZM276.874 183.069C277.21 183.069 277.51 182.993 277.774 182.841C278.038 182.681 278.246 182.461 278.398 182.181C278.558 181.901 278.638 181.589 278.638 181.245C278.638 180.885 278.562 180.573 278.41 180.309C278.258 180.037 278.05 179.821 277.786 179.661C277.522 179.501 277.218 179.421 276.874 179.421C276.538 179.421 276.234 179.501 275.962 179.661C275.69 179.821 275.478 180.037 275.326 180.309C275.174 180.573 275.098 180.885 275.098 181.245C275.098 181.589 275.174 181.901 275.326 182.181C275.486 182.461 275.698 182.681 275.962 182.841C276.234 182.993 276.538 183.069 276.874 183.069ZM284.801 184.125C284.089 184.125 283.465 183.933 282.929 183.549C282.401 183.157 281.989 182.617 281.693 181.929C281.397 181.233 281.249 180.425 281.249 179.505C281.249 178.585 281.397 177.781 281.693 177.093C281.989 176.397 282.401 175.857 282.929 175.473C283.457 175.089 284.077 174.897 284.789 174.897C285.501 174.897 286.121 175.089 286.649 175.473C287.177 175.857 287.589 176.397 287.885 177.093C288.189 177.781 288.341 178.585 288.341 179.505C288.341 180.425 288.193 181.233 287.897 181.929C287.601 182.625 287.185 183.165 286.649 183.549C286.121 183.933 285.505 184.125 284.801 184.125ZM284.801 183.033C285.281 183.033 285.697 182.889 286.049 182.601C286.401 182.305 286.673 181.893 286.865 181.365C287.065 180.837 287.165 180.217 287.165 179.505C287.165 178.793 287.065 178.173 286.865 177.645C286.673 177.117 286.397 176.709 286.037 176.421C285.685 176.133 285.269 175.989 284.789 175.989C284.309 175.989 283.893 176.133 283.541 176.421C283.189 176.709 282.913 177.117 282.713 177.645C282.521 178.173 282.425 178.793 282.425 179.505C282.425 180.209 282.521 180.825 282.713 181.353C282.913 181.881 283.189 182.293 283.541 182.589C283.901 182.885 284.321 183.033 284.801 183.033ZM292.741 184.125C292.165 184.125 291.653 183.997 291.205 183.741C290.765 183.485 290.417 183.137 290.161 182.697C289.905 182.249 289.777 181.741 289.777 181.173C289.777 180.861 289.813 180.553 289.885 180.249C289.957 179.945 290.073 179.637 290.233 179.325C290.393 179.013 290.597 178.689 290.845 178.353L293.365 175.041H294.781L291.697 179.049L291.481 179.025C291.601 178.865 291.733 178.741 291.877 178.653C292.029 178.565 292.189 178.501 292.357 178.461C292.533 178.421 292.717 178.401 292.909 178.401C293.437 178.401 293.909 178.525 294.325 178.773C294.749 179.013 295.081 179.345 295.321 179.769C295.569 180.193 295.693 180.681 295.693 181.233C295.693 181.785 295.565 182.281 295.309 182.721C295.053 183.153 294.701 183.497 294.253 183.753C293.813 184.001 293.309 184.125 292.741 184.125ZM292.741 183.069C293.077 183.069 293.377 182.993 293.641 182.841C293.905 182.681 294.113 182.461 294.265 182.181C294.425 181.901 294.505 181.589 294.505 181.245C294.505 180.885 294.429 180.573 294.277 180.309C294.125 180.037 293.917 179.821 293.653 179.661C293.389 179.501 293.085 179.421 292.741 179.421C292.405 179.421 292.101 179.501 291.829 179.661C291.557 179.821 291.345 180.037 291.193 180.309C291.041 180.573 290.965 180.885 290.965 181.245C290.965 181.589 291.041 181.901 291.193 182.181C291.353 182.461 291.565 182.681 291.829 182.841C292.101 182.993 292.405 183.069 292.741 183.069ZM298.449 183.981V176.061H296.757V175.041H299.637V183.981H298.449ZM301.819 183.981L305.743 176.061H301.363V175.041H306.979V176.061L303.091 183.981H301.819Z" fill="#0C2459"/>
<path d="M214.996 215.981V207.041H215.98L221.116 214.265L220.672 214.313V207.041H221.86V215.981H220.876L215.764 208.709L216.172 208.661V215.981H214.996ZM226.795 216.125C226.171 216.125 225.607 215.981 225.103 215.693C224.599 215.397 224.199 214.993 223.903 214.481C223.607 213.969 223.459 213.389 223.459 212.741C223.459 212.093 223.603 211.517 223.891 211.013C224.187 210.509 224.587 210.109 225.091 209.813C225.595 209.517 226.163 209.369 226.795 209.369C227.419 209.369 227.983 209.517 228.487 209.813C228.991 210.101 229.387 210.497 229.675 211.001C229.971 211.505 230.119 212.085 230.119 212.741C230.119 213.397 229.967 213.981 229.663 214.493C229.359 214.997 228.955 215.397 228.451 215.693C227.955 215.981 227.403 216.125 226.795 216.125ZM226.795 215.045C227.195 215.045 227.555 214.945 227.875 214.745C228.203 214.545 228.459 214.269 228.643 213.917C228.835 213.565 228.931 213.173 228.931 212.741C228.931 212.301 228.835 211.913 228.643 211.577C228.459 211.233 228.203 210.961 227.875 210.761C227.555 210.553 227.195 210.449 226.795 210.449C226.387 210.449 226.019 210.553 225.691 210.761C225.371 210.961 225.115 211.233 224.923 211.577C224.731 211.913 224.635 212.301 224.635 212.741C224.635 213.173 224.731 213.565 224.923 213.917C225.115 214.269 225.371 214.545 225.691 214.745C226.019 214.945 226.387 215.045 226.795 215.045ZM233.258 215.981L230.726 209.513H231.974L234.002 214.985H233.57L235.61 209.513H236.858L234.314 215.981H233.258ZM243.422 216.125C242.71 216.125 242.086 215.933 241.55 215.549C241.022 215.157 240.61 214.617 240.314 213.929C240.018 213.233 239.87 212.425 239.87 211.505C239.87 210.585 240.018 209.781 240.314 209.093C240.61 208.397 241.022 207.857 241.55 207.473C242.078 207.089 242.698 206.897 243.41 206.897C244.122 206.897 244.742 207.089 245.27 207.473C245.798 207.857 246.21 208.397 246.506 209.093C246.81 209.781 246.962 210.585 246.962 211.505C246.962 212.425 246.814 213.233 246.518 213.929C246.222 214.625 245.806 215.165 245.27 215.549C244.742 215.933 244.126 216.125 243.422 216.125ZM243.422 215.033C243.902 215.033 244.318 214.889 244.67 214.601C245.022 214.305 245.294 213.893 245.486 213.365C245.686 212.837 245.786 212.217 245.786 211.505C245.786 210.793 245.686 210.173 245.486 209.645C245.294 209.117 245.018 208.709 244.658 208.421C244.306 208.133 243.89 207.989 243.41 207.989C242.93 207.989 242.514 208.133 242.162 208.421C241.81 208.709 241.534 209.117 241.334 209.645C241.142 210.173 241.046 210.793 241.046 211.505C241.046 212.209 241.142 212.825 241.334 213.353C241.534 213.881 241.81 214.293 242.162 214.589C242.522 214.885 242.942 215.033 243.422 215.033ZM248.398 215.981V215.165L250.87 212.489C251.358 211.969 251.746 211.541 252.034 211.205C252.33 210.869 252.546 210.569 252.682 210.305C252.818 210.041 252.886 209.761 252.886 209.465C252.886 208.977 252.742 208.601 252.454 208.337C252.166 208.073 251.786 207.941 251.314 207.941C250.834 207.941 250.426 208.081 250.09 208.361C249.754 208.633 249.522 209.021 249.394 209.525L248.326 209.249C248.43 208.769 248.622 208.353 248.902 208.001C249.182 207.649 249.53 207.377 249.946 207.185C250.362 206.993 250.818 206.897 251.314 206.897C251.858 206.897 252.334 207.005 252.742 207.221C253.158 207.429 253.482 207.721 253.714 208.097C253.954 208.473 254.074 208.909 254.074 209.405C254.074 209.733 254.006 210.053 253.87 210.365C253.734 210.677 253.534 211.009 253.27 211.361C253.006 211.705 252.662 212.105 252.238 212.561L250.03 214.961H254.266V215.981H248.398ZM255.99 217.649V217.109C256.238 217.045 256.426 216.921 256.554 216.737C256.682 216.553 256.754 216.301 256.77 215.981H256.23V214.541H257.394V215.561C257.394 216.137 257.274 216.601 257.034 216.953C256.802 217.305 256.454 217.537 255.99 217.649ZM261.242 215.981V215.165L263.714 212.489C264.202 211.969 264.59 211.541 264.878 211.205C265.174 210.869 265.39 210.569 265.526 210.305C265.662 210.041 265.73 209.761 265.73 209.465C265.73 208.977 265.586 208.601 265.298 208.337C265.01 208.073 264.63 207.941 264.158 207.941C263.678 207.941 263.27 208.081 262.934 208.361C262.598 208.633 262.366 209.021 262.238 209.525L261.17 209.249C261.274 208.769 261.466 208.353 261.746 208.001C262.026 207.649 262.374 207.377 262.79 207.185C263.206 206.993 263.662 206.897 264.158 206.897C264.702 206.897 265.178 207.005 265.586 207.221C266.002 207.429 266.326 207.721 266.558 208.097C266.798 208.473 266.918 208.909 266.918 209.405C266.918 209.733 266.85 210.053 266.714 210.365C266.578 210.677 266.378 211.009 266.114 211.361C265.85 211.705 265.506 212.105 265.082 212.561L262.874 214.961H267.11V215.981H261.242ZM272.133 216.125C271.421 216.125 270.797 215.933 270.261 215.549C269.733 215.157 269.321 214.617 269.025 213.929C268.729 213.233 268.581 212.425 268.581 211.505C268.581 210.585 268.729 209.781 269.025 209.093C269.321 208.397 269.733 207.857 270.261 207.473C270.789 207.089 271.409 206.897 272.121 206.897C272.833 206.897 273.453 207.089 273.981 207.473C274.509 207.857 274.921 208.397 275.217 209.093C275.521 209.781 275.673 210.585 275.673 211.505C275.673 212.425 275.525 213.233 275.229 213.929C274.933 214.625 274.517 215.165 273.981 215.549C273.453 215.933 272.837 216.125 272.133 216.125ZM272.133 215.033C272.613 215.033 273.029 214.889 273.381 214.601C273.733 214.305 274.005 213.893 274.197 213.365C274.397 212.837 274.497 212.217 274.497 211.505C274.497 210.793 274.397 210.173 274.197 209.645C274.005 209.117 273.729 208.709 273.369 208.421C273.017 208.133 272.601 207.989 272.121 207.989C271.641 207.989 271.225 208.133 270.873 208.421C270.521 208.709 270.245 209.117 270.045 209.645C269.853 210.173 269.757 210.793 269.757 211.505C269.757 212.209 269.853 212.825 270.045 213.353C270.245 213.881 270.521 214.293 270.873 214.589C271.233 214.885 271.653 215.033 272.133 215.033ZM277.109 215.981V215.165L279.581 212.489C280.069 211.969 280.457 211.541 280.745 211.205C281.041 210.869 281.257 210.569 281.393 210.305C281.529 210.041 281.597 209.761 281.597 209.465C281.597 208.977 281.453 208.601 281.165 208.337C280.877 208.073 280.497 207.941 280.025 207.941C279.545 207.941 279.137 208.081 278.801 208.361C278.465 208.633 278.233 209.021 278.105 209.525L277.037 209.249C277.141 208.769 277.333 208.353 277.613 208.001C277.893 207.649 278.241 207.377 278.657 207.185C279.073 206.993 279.529 206.897 280.025 206.897C280.569 206.897 281.045 207.005 281.453 207.221C281.869 207.429 282.193 207.721 282.425 208.097C282.665 208.473 282.785 208.909 282.785 209.405C282.785 209.733 282.717 210.053 282.581 210.365C282.445 210.677 282.245 211.009 281.981 211.361C281.717 211.705 281.373 212.105 280.949 212.561L278.741 214.961H282.977V215.981H277.109ZM287.173 216.125C286.701 216.125 286.261 216.041 285.853 215.873C285.445 215.705 285.093 215.469 284.797 215.165C284.501 214.853 284.281 214.485 284.137 214.061L285.133 213.653C285.301 214.101 285.565 214.449 285.925 214.697C286.285 214.945 286.701 215.069 287.173 215.069C287.541 215.069 287.869 214.997 288.157 214.853C288.445 214.709 288.669 214.501 288.829 214.229C288.997 213.957 289.081 213.629 289.081 213.245C289.081 212.853 288.997 212.525 288.829 212.261C288.669 211.989 288.445 211.781 288.157 211.637C287.869 211.493 287.537 211.421 287.161 211.421C287.041 211.421 286.909 211.429 286.765 211.445C286.629 211.461 286.513 211.485 286.417 211.517L286.165 210.977L288.553 208.061H284.593V207.041H289.885V208.025L287.605 210.833L287.533 210.521C288.069 210.537 288.541 210.661 288.949 210.893C289.357 211.125 289.677 211.441 289.909 211.841C290.141 212.233 290.257 212.693 290.257 213.221C290.257 213.765 290.125 214.257 289.861 214.697C289.597 215.137 289.233 215.485 288.769 215.741C288.305 215.997 287.773 216.125 287.173 216.125ZM297.399 216.125C296.687 216.125 296.063 215.933 295.527 215.549C294.999 215.157 294.587 214.617 294.291 213.929C293.995 213.233 293.847 212.425 293.847 211.505C293.847 210.585 293.995 209.781 294.291 209.093C294.587 208.397 294.999 207.857 295.527 207.473C296.055 207.089 296.675 206.897 297.387 206.897C298.099 206.897 298.719 207.089 299.247 207.473C299.775 207.857 300.187 208.397 300.483 209.093C300.787 209.781 300.939 210.585 300.939 211.505C300.939 212.425 300.791 213.233 300.495 213.929C300.199 214.625 299.783 215.165 299.247 215.549C298.719 215.933 298.103 216.125 297.399 216.125ZM297.399 215.033C297.879 215.033 298.295 214.889 298.647 214.601C298.999 214.305 299.271 213.893 299.463 213.365C299.663 212.837 299.763 212.217 299.763 211.505C299.763 210.793 299.663 210.173 299.463 209.645C299.271 209.117 298.995 208.709 298.635 208.421C298.283 208.133 297.867 207.989 297.387 207.989C296.907 207.989 296.491 208.133 296.139 208.421C295.787 208.709 295.511 209.117 295.311 209.645C295.119 210.173 295.023 210.793 295.023 211.505C295.023 212.209 295.119 212.825 295.311 213.353C295.511 213.881 295.787 214.293 296.139 214.589C296.499 214.885 296.919 215.033 297.399 215.033ZM302.651 215.981L306.575 208.061H302.195V207.041H307.811V208.061L303.923 215.981H302.651ZM309.621 215.981V214.541H310.785V215.981H309.621ZM309.621 210.953V209.513H310.785V210.953H309.621ZM316.465 216.125C315.753 216.125 315.129 215.933 314.593 215.549C314.065 215.157 313.653 214.617 313.357 213.929C313.061 213.233 312.913 212.425 312.913 211.505C312.913 210.585 313.061 209.781 313.357 209.093C313.653 208.397 314.065 207.857 314.593 207.473C315.121 207.089 315.741 206.897 316.453 206.897C317.165 206.897 317.785 207.089 318.313 207.473C318.841 207.857 319.253 208.397 319.549 209.093C319.853 209.781 320.005 210.585 320.005 211.505C320.005 212.425 319.857 213.233 319.561 213.929C319.265 214.625 318.849 215.165 318.313 215.549C317.785 215.933 317.169 216.125 316.465 216.125ZM316.465 215.033C316.945 215.033 317.361 214.889 317.713 214.601C318.065 214.305 318.337 213.893 318.529 213.365C318.729 212.837 318.829 212.217 318.829 211.505C318.829 210.793 318.729 210.173 318.529 209.645C318.337 209.117 318.061 208.709 317.701 208.421C317.349 208.133 316.933 207.989 316.453 207.989C315.973 207.989 315.557 208.133 315.205 208.421C314.853 208.709 314.577 209.117 314.377 209.645C314.185 210.173 314.089 210.793 314.089 211.505C314.089 212.209 314.185 212.825 314.377 213.353C314.577 213.881 314.853 214.293 315.205 214.589C315.565 214.885 315.985 215.033 316.465 215.033ZM325.149 216.125C324.437 216.125 323.813 215.933 323.277 215.549C322.749 215.157 322.337 214.617 322.041 213.929C321.745 213.233 321.597 212.425 321.597 211.505C321.597 210.585 321.745 209.781 322.041 209.093C322.337 208.397 322.749 207.857 323.277 207.473C323.805 207.089 324.425 206.897 325.137 206.897C325.849 206.897 326.469 207.089 326.997 207.473C327.525 207.857 327.937 208.397 328.233 209.093C328.537 209.781 328.689 210.585 328.689 211.505C328.689 212.425 328.541 213.233 328.245 213.929C327.949 214.625 327.533 215.165 326.997 215.549C326.469 215.933 325.853 216.125 325.149 216.125ZM325.149 215.033C325.629 215.033 326.045 214.889 326.397 214.601C326.749 214.305 327.021 213.893 327.213 213.365C327.413 212.837 327.513 212.217 327.513 211.505C327.513 210.793 327.413 210.173 327.213 209.645C327.021 209.117 326.745 208.709 326.385 208.421C326.033 208.133 325.617 207.989 325.137 207.989C324.657 207.989 324.241 208.133 323.889 208.421C323.537 208.709 323.261 209.117 323.061 209.645C322.869 210.173 322.773 210.793 322.773 211.505C322.773 212.209 322.869 212.825 323.061 213.353C323.261 213.881 323.537 214.293 323.889 214.589C324.249 214.885 324.669 215.033 325.149 215.033ZM330.797 215.981V214.541H331.961V215.981H330.797ZM330.797 210.953V209.513H331.961V210.953H330.797ZM337.641 216.125C336.929 216.125 336.305 215.933 335.769 215.549C335.241 215.157 334.829 214.617 334.533 213.929C334.237 213.233 334.089 212.425 334.089 211.505C334.089 210.585 334.237 209.781 334.533 209.093C334.829 208.397 335.241 207.857 335.769 207.473C336.297 207.089 336.917 206.897 337.629 206.897C338.341 206.897 338.961 207.089 339.489 207.473C340.017 207.857 340.429 208.397 340.725 209.093C341.029 209.781 341.181 210.585 341.181 211.505C341.181 212.425 341.033 213.233 340.737 213.929C340.441 214.625 340.025 215.165 339.489 215.549C338.961 215.933 338.345 216.125 337.641 216.125ZM337.641 215.033C338.121 215.033 338.537 214.889 338.889 214.601C339.241 214.305 339.513 213.893 339.705 213.365C339.905 212.837 340.005 212.217 340.005 211.505C340.005 210.793 339.905 210.173 339.705 209.645C339.513 209.117 339.237 208.709 338.877 208.421C338.525 208.133 338.109 207.989 337.629 207.989C337.149 207.989 336.733 208.133 336.381 208.421C336.029 208.709 335.753 209.117 335.553 209.645C335.361 210.173 335.265 210.793 335.265 211.505C335.265 212.209 335.361 212.825 335.553 213.353C335.753 213.881 336.029 214.293 336.381 214.589C336.741 214.885 337.161 215.033 337.641 215.033ZM346.325 216.125C345.613 216.125 344.989 215.933 344.453 215.549C343.925 215.157 343.513 214.617 343.217 213.929C342.921 213.233 342.773 212.425 342.773 211.505C342.773 210.585 342.921 209.781 343.217 209.093C343.513 208.397 343.925 207.857 344.453 207.473C344.981 207.089 345.601 206.897 346.313 206.897C347.025 206.897 347.645 207.089 348.173 207.473C348.701 207.857 349.113 208.397 349.409 209.093C349.713 209.781 349.865 210.585 349.865 211.505C349.865 212.425 349.717 213.233 349.421 213.929C349.125 214.625 348.709 215.165 348.173 215.549C347.645 215.933 347.029 216.125 346.325 216.125ZM346.325 215.033C346.805 215.033 347.221 214.889 347.573 214.601C347.925 214.305 348.197 213.893 348.389 213.365C348.589 212.837 348.689 212.217 348.689 211.505C348.689 210.793 348.589 210.173 348.389 209.645C348.197 209.117 347.921 208.709 347.561 208.421C347.209 208.133 346.793 207.989 346.313 207.989C345.833 207.989 345.417 208.133 345.065 208.421C344.713 208.709 344.437 209.117 344.237 209.645C344.045 210.173 343.949 210.793 343.949 211.505C343.949 212.209 344.045 212.825 344.237 213.353C344.437 213.881 344.713 214.293 345.065 214.589C345.425 214.885 345.845 215.033 346.325 215.033ZM353.723 215.981V207.041H356.879C357.471 207.041 357.991 207.153 358.439 207.377C358.887 207.601 359.235 207.921 359.483 208.337C359.739 208.753 359.867 209.241 359.867 209.801C359.867 210.361 359.739 210.849 359.483 211.265C359.235 211.673 358.887 211.993 358.439 212.225C357.999 212.449 357.479 212.561 356.879 212.561H354.899V215.981H353.723ZM354.899 211.481H356.915C357.275 211.481 357.587 211.413 357.851 211.277C358.115 211.141 358.319 210.945 358.463 210.689C358.607 210.433 358.679 210.137 358.679 209.801C358.679 209.457 358.607 209.161 358.463 208.913C358.319 208.657 358.115 208.461 357.851 208.325C357.587 208.189 357.275 208.121 356.915 208.121H354.899V211.481ZM361.457 215.981V207.041H362.537L365.885 211.805H365.333L368.657 207.041H369.737V215.981H368.549V208.529L368.969 208.661L365.645 213.341H365.549L362.261 208.661L362.633 208.529V215.981H361.457Z" fill="#0C2459"/>
<rect x="214" y="234.981" width="55.6225" height="20.4465" rx="10.2232" fill="#ECFDF3"/>
<path d="M224.015 249.705L227.061 241.042H228.759L231.805 249.705H230.34L229.678 247.763H226.154L225.48 249.705H224.015ZM226.55 246.542H229.259L227.724 242.007H228.108L226.55 246.542ZM235.467 249.845C234.839 249.845 234.281 249.701 233.792 249.414C233.312 249.12 232.928 248.724 232.641 248.228C232.362 247.732 232.222 247.17 232.222 246.542C232.222 245.922 232.362 245.364 232.641 244.868C232.92 244.372 233.304 243.984 233.792 243.705C234.281 243.418 234.839 243.275 235.467 243.275C235.893 243.275 236.292 243.352 236.664 243.507C237.036 243.655 237.358 243.86 237.629 244.124C237.909 244.387 238.114 244.693 238.246 245.042L237.095 245.577C236.963 245.251 236.75 244.992 236.455 244.798C236.168 244.596 235.839 244.496 235.467 244.496C235.11 244.496 234.788 244.585 234.501 244.763C234.222 244.934 234.001 245.178 233.839 245.496C233.676 245.806 233.594 246.158 233.594 246.554C233.594 246.949 233.676 247.306 233.839 247.624C234.001 247.934 234.222 248.178 234.501 248.356C234.788 248.535 235.11 248.624 235.467 248.624C235.846 248.624 236.176 248.527 236.455 248.333C236.742 248.131 236.955 247.864 237.095 247.531L238.246 248.077C238.122 248.41 237.92 248.713 237.641 248.984C237.37 249.248 237.048 249.457 236.676 249.612C236.304 249.767 235.901 249.845 235.467 249.845ZM242.251 249.775C241.592 249.775 241.08 249.589 240.716 249.217C240.352 248.845 240.17 248.321 240.17 247.647V244.6H239.065V243.414H239.239C239.534 243.414 239.763 243.329 239.925 243.158C240.088 242.988 240.17 242.755 240.17 242.461V241.972H241.484V243.414H242.914V244.6H241.484V247.589C241.484 247.806 241.518 247.992 241.588 248.147C241.658 248.294 241.77 248.41 241.925 248.496C242.08 248.573 242.282 248.612 242.53 248.612C242.592 248.612 242.662 248.608 242.739 248.6C242.817 248.593 242.891 248.585 242.96 248.577V249.705C242.852 249.721 242.732 249.736 242.6 249.752C242.468 249.767 242.352 249.775 242.251 249.775ZM244.243 249.705V243.414H245.557V249.705H244.243ZM244.243 242.554V241.042H245.557V242.554H244.243ZM248.918 249.705L246.453 243.414H247.884L249.779 248.542H249.256L251.151 243.414H252.593L250.116 249.705H248.918ZM256.326 249.845C255.698 249.845 255.14 249.701 254.652 249.414C254.171 249.12 253.795 248.724 253.524 248.228C253.252 247.724 253.117 247.162 253.117 246.542C253.117 245.907 253.252 245.345 253.524 244.856C253.803 244.368 254.175 243.984 254.64 243.705C255.105 243.418 255.632 243.275 256.221 243.275C256.694 243.275 257.117 243.356 257.489 243.519C257.861 243.682 258.175 243.907 258.431 244.193C258.687 244.472 258.88 244.794 259.012 245.158C259.152 245.523 259.221 245.91 259.221 246.321C259.221 246.422 259.218 246.527 259.21 246.635C259.202 246.744 259.187 246.845 259.163 246.938H254.152V245.891H258.419L257.791 246.368C257.869 245.988 257.842 245.651 257.71 245.356C257.586 245.054 257.392 244.817 257.128 244.647C256.873 244.469 256.57 244.379 256.221 244.379C255.873 244.379 255.562 244.469 255.291 244.647C255.02 244.817 254.811 245.065 254.663 245.391C254.516 245.709 254.458 246.096 254.489 246.554C254.45 246.98 254.508 247.352 254.663 247.67C254.826 247.988 255.051 248.236 255.338 248.414C255.632 248.593 255.966 248.682 256.338 248.682C256.718 248.682 257.039 248.597 257.303 248.426C257.574 248.255 257.787 248.035 257.942 247.763L259.012 248.286C258.888 248.581 258.694 248.848 258.431 249.089C258.175 249.321 257.865 249.507 257.5 249.647C257.144 249.779 256.752 249.845 256.326 249.845Z" fill="#12B76A"/>
</svg>
