<svg width="33" height="33" viewBox="0 0 33 33" fill="none" xmlns="http://www.w3.org/2000/svg">
<path d="M21.5846 22.9443C24.6478 22.672 25.8105 21.4411 26.0089 20.8597V22.9443V25.1978L25.2354 27.6303L22.7372 28.1562H14.8483H7.63063L3.80382 27.6303L2.62048 25.1978L2.16016 20.333V11.458L3.08091 7.38202L6.302 6.90759C7.62122 6.919 10.2597 6.93497 10.2597 6.90759C9.95851 7.56468 10.2711 9.16632 10.465 9.88501C8.65803 10.2409 7.82251 12.3014 7.63063 13.2871C7.61645 15.1874 7.59659 18.9963 7.63063 19.0304C7.73273 21.3447 9.74354 22.6039 10.7362 22.9443H11.7996C15.0187 22.9868 21.4823 23.0464 21.5846 22.9443Z" fill="#B7FFFD"/>
<path d="M26.0532 22.851V23.9142C26.0532 25.9189 26.0532 26.9213 25.3635 27.5441C24.6738 28.1669 23.5638 28.1669 21.3438 28.1669H9.57008C6.23997 28.1669 4.57492 28.1669 3.54039 27.2327C2.50586 26.2985 2.50586 24.7949 2.50586 21.7878V11.1559C2.50586 9.15118 2.50586 8.14879 3.19555 7.526C3.88523 6.9032 4.99527 6.9032 7.21534 6.9032H8.39271" stroke="#1355FF" stroke-width="1.59478" stroke-linecap="round" stroke-linejoin="round"/>
<path d="M14.5587 10.8789C16.3202 10.8789 17.7483 9.45084 17.7483 7.6893C17.7483 5.92775 16.3202 4.49974 14.5587 4.49974C12.7972 4.49974 11.3691 5.92775 11.3691 7.6893C11.3691 9.45084 12.7972 10.8789 14.5587 10.8789Z" fill="white" stroke="#1355FF" stroke-width="1.59478"/>
<path d="M20.406 10.8788C21.874 10.8788 23.064 9.68877 23.064 8.22082C23.064 6.75286 21.874 5.56285 20.406 5.56285C18.9381 5.56285 17.748 6.75286 17.748 8.22082C17.748 9.68877 18.9381 10.8788 20.406 10.8788Z" fill="white" stroke="#1355FF" stroke-width="1.59478"/>
<path d="M9.24219 15.5302C9.24219 13.3375 9.24219 12.2412 10.3321 11.56C11.422 10.8788 13.1762 10.8788 16.6845 10.8788H17.7477C21.256 10.8788 23.0101 10.8788 24.1001 11.56C25.19 12.2412 25.19 13.3375 25.19 15.5302V16.8592C25.19 19.0519 25.19 20.1483 24.1001 20.8295C23.0101 21.5106 21.256 21.5106 17.7477 21.5106H16.6845C13.1762 21.5106 11.422 21.5106 10.3321 20.8295C9.24219 20.1483 9.24219 19.0519 9.24219 16.8592V15.5302Z" fill="white" stroke="#1355FF" stroke-width="1.59478"/>
<path d="M25.1895 13.8021L25.3233 13.7219C27.5728 12.372 28.6975 11.6971 29.6015 12.0229C30.5054 12.3488 30.5054 13.4292 30.5054 15.5901V16.7993C30.5054 18.9601 30.5054 20.0405 29.6015 20.3663C28.6975 20.6922 27.5728 20.0173 25.3233 18.6675L25.1895 18.5871" fill="white"/>
<path d="M25.1895 13.8021L25.3233 13.7219C27.5728 12.372 28.6975 11.6971 29.6015 12.0229C30.5054 12.3488 30.5054 13.4292 30.5054 15.5901V16.7993C30.5054 18.9601 30.5054 20.0405 29.6015 20.3663C28.6975 20.6922 27.5728 20.0173 25.3233 18.6675L25.1895 18.5871" stroke="#1355FF" stroke-width="1.59478" stroke-linecap="round"/>
</svg>
