<svg width="33" height="32" viewBox="0 0 33 32" fill="none" xmlns="http://www.w3.org/2000/svg">
<path d="M6.81713 27.6557L13.4549 29.2416C16.424 29.4323 16.3635 29.6646 16.4943 29.6646C18.0634 29.6646 26.621 27.3016 28.5551 26.2665L29.454 22.8341V19.5652V11.4747L28.5551 4.77343L26.0217 2.97553L16.4601 1.91309L8.77821 2.48517L5.26414 3.71104L3.5482 7.06164L2.89453 12.5371V16.9501L3.5482 24.3868L6.81713 27.6557Z" fill="#B7FFFD"/>
<path d="M24.8757 27.987C26.12 27.7074 27.065 27.2481 27.828 26.4928C29.7757 24.5644 29.7757 21.4609 29.7757 15.2541C29.7757 9.04705 29.7757 5.94355 27.828 4.01529C25.8802 2.08704 22.7453 2.08704 16.4757 2.08704C10.2061 2.08704 7.07126 2.08704 5.12351 4.01529C3.17578 5.94355 3.17578 9.04705 3.17578 15.2541C3.17578 21.4609 3.17578 24.5644 5.12351 26.4928C5.88644 27.2481 6.83151 27.7074 8.07577 27.987" stroke="#1355FF" stroke-width="1.5" stroke-linecap="round"/>
<path d="M3.17578 11.187H29.7757" stroke="#1355FF" stroke-width="1.5" stroke-linejoin="round"/>
<path d="M9.47656 6.98694H9.48913" stroke="#1355FF" stroke-width="1.5" stroke-linecap="round" stroke-linejoin="round"/>
<path d="M15.0762 6.98694H15.0888" stroke="#1355FF" stroke-width="1.5" stroke-linecap="round" stroke-linejoin="round"/>
<path d="M21.3761 23.7871V20.2871C18.5762 20.2871 16.4762 18.8871 16.4762 18.8871C16.4762 18.8871 14.3762 20.2871 11.5762 20.2871V23.7871C11.5762 28.6871 16.4762 30.087 16.4762 30.087C16.4762 30.087 21.3761 28.6871 21.3761 23.7871Z" fill="white" stroke="#1355FF" stroke-width="1.5" stroke-linecap="round" stroke-linejoin="round"/>
</svg>
