<svg width="33" height="32" viewBox="0 0 33 32" fill="none" xmlns="http://www.w3.org/2000/svg">
<path d="M12.7913 12.5486V2.55603H7.4664L4.50805 3.93655L2.20703 7.15786V15.7699V24.119L3.39054 27.2089L6.54598 29.0496H10.3588L19.1681 29.4441L23.4413 28.4579L25.808 24.8422L26.1367 20.9635V17.1505C23.8138 17.2162 19.1681 17.3083 19.1681 17.1505C14.6977 17.5712 13.0543 14.2579 12.7913 12.5486Z" fill="#B7FFFD"/>
<path d="M13.0285 2.69432C9.72603 2.55451 7.17462 2.93494 7.17462 2.93494C5.56355 3.05014 2.47609 3.95335 2.47611 9.22822C2.47614 14.4582 2.44196 20.906 2.47611 23.4763C2.47611 25.0468 3.44845 28.7098 6.81395 28.9061C10.9047 29.1448 18.2732 29.1956 21.654 28.9061C22.559 28.8551 25.572 28.1446 25.9534 24.8665C26.3485 21.4704 26.2698 19.1102 26.2698 18.5484" stroke="#1355FF" stroke-width="1.98269" stroke-linecap="round" stroke-linejoin="round"/>
<path d="M9.04492 18.5485H14.3321" stroke="#1355FF" stroke-width="1.98269" stroke-linecap="round"/>
<path d="M9.04492 23.8356H19.6192" stroke="#1355FF" stroke-width="1.98269" stroke-linecap="round"/>
<path d="M15.3242 9.42531C15.3242 7.29956 15.3242 6.23668 15.8344 5.47316C16.0552 5.14263 16.339 4.85883 16.6696 4.63797C17.4331 4.12781 18.496 4.12781 20.6217 4.12781H25.1624C27.2882 4.12781 28.3511 4.12781 29.1146 4.63797C29.4451 4.85883 29.7289 5.14263 29.9498 5.47316C30.46 6.23668 30.46 7.29956 30.46 9.42531C30.46 11.5511 30.46 12.614 29.9498 13.3775C29.7289 13.708 29.4451 13.9918 29.1146 14.2127C28.3511 14.7228 27.2882 14.7228 25.1624 14.7228H20.6217C18.496 14.7228 17.4331 14.7228 16.6696 14.2127C16.339 13.9918 16.0552 13.708 15.8344 13.3775C15.3242 12.614 15.3242 11.5511 15.3242 9.42531Z" fill="white" stroke="#1355FF" stroke-width="1.98269" stroke-linecap="round" stroke-linejoin="round"/>
<path d="M21.3789 9.42529H24.4061" stroke="#1355FF" stroke-width="1.98269" stroke-linecap="round" stroke-linejoin="round"/>
</svg>
