<svg width="33" height="32" viewBox="0 0 33 32" fill="none" xmlns="http://www.w3.org/2000/svg">
<path d="M16.8145 26.1194L19.149 30.1528H8.70914L4.87875 28.7856L3.40035 25.6944L2.72852 16.6224V6.34083L6.22282 2.51043L22.3374 2.04004L25.9796 3.78724L26.8532 12.3215L26.3817 16.9437H22.3374L21.5111 19.0745L19.149 18.2048L16.8145 22.5969L18.3366 24.1625L16.8145 26.1194Z" fill="#B7FFFD"/>
<path d="M9.41992 21.3962H15.0042M9.41992 14.4192H20.5885" stroke="#1355FF" stroke-width="2.09409" stroke-linecap="round"/>
<path d="M13.6074 29.7684H15.0035" stroke="#1355FF" stroke-width="2.09409" stroke-linecap="round"/>
<path d="M10.1138 29.7684C8.47816 29.7335 7.36131 29.6289 6.27936 29.3149C4.81447 28.9312 3.74528 27.6405 3.43139 25.8265C3.03352 24.1171 3.17312 19.8961 3.13815 14.8728C3.14104 10.9757 2.9637 7.23308 3.59193 5.10514C3.97584 4.40744 4.28996 1.86088 9.49031 1.89577C10.3628 1.86088 19.6118 1.7911 21.0776 1.93064C25.9638 2.0353 26.4525 4.54697 26.7317 6.91912C26.9087 8.66334 26.8713 11.4541 26.8713 14.4192M9.42051 1.86088C9.83932 4.12837 9.80442 5.59351 11.3401 5.94235C12.0032 6.047 13.5184 6.04421 15.1443 6.047C16.5957 6.0495 18.0761 6.0626 18.7392 5.90747C20.3796 5.52374 20.2051 3.50044 20.6239 1.86088" stroke="#1355FF" stroke-width="2.09409" stroke-linecap="round"/>
<path d="M29.6629 21.5506L29.3874 21.0726C29.1791 20.711 29.0749 20.5302 28.8977 20.4582C28.7205 20.3861 28.52 20.443 28.1191 20.5567L27.4382 20.7485C27.1822 20.8075 26.9137 20.7741 26.68 20.654L26.492 20.5455C26.2916 20.4172 26.1375 20.2279 26.0521 20.0055L25.8658 19.4489C25.7432 19.0805 25.682 18.8964 25.5361 18.791C25.3902 18.6857 25.1965 18.6857 24.809 18.6857H24.1868C23.7993 18.6857 23.6056 18.6857 23.4597 18.791C23.3138 18.8964 23.2526 19.0805 23.13 19.4489L22.9437 20.0055C22.8583 20.2279 22.7042 20.4172 22.5038 20.5455L22.3158 20.654C22.0821 20.7741 21.8136 20.8075 21.5576 20.7485L20.8767 20.5567C20.4758 20.443 20.2753 20.3861 20.0981 20.4582C19.9209 20.5302 19.8167 20.711 19.6084 21.0726L19.3329 21.5506C19.1377 21.8895 19.04 22.0589 19.059 22.2393C19.0779 22.4197 19.2086 22.5651 19.47 22.8558L20.0454 23.4991C20.1861 23.6771 20.2859 23.9874 20.2859 24.2664C20.2859 24.5455 20.1861 24.8556 20.0455 25.0337L19.47 25.677C19.2086 25.9678 19.0779 26.1131 19.059 26.2935C19.04 26.4739 19.1377 26.6433 19.3329 26.9822L19.6084 27.4602C19.8167 27.8218 19.9209 28.0026 20.0981 28.0746C20.2753 28.1467 20.4758 28.0899 20.8767 27.9761L21.5576 27.7843C21.8136 27.7252 22.0822 27.7588 22.3159 27.8789L22.5039 27.9873C22.7042 28.1157 22.8583 28.3049 22.9436 28.5273L23.13 29.084C23.2526 29.4524 23.3138 29.6365 23.4597 29.7419C23.6056 29.8472 23.7993 29.8472 24.1868 29.8472H24.809C25.1965 29.8472 25.3902 29.8472 25.5361 29.7419C25.682 29.6365 25.7432 29.4524 25.8658 29.084L26.0522 28.5273C26.1375 28.3049 26.2915 28.1157 26.4919 27.9873L26.6799 27.8789C26.9136 27.7588 27.1822 27.7252 27.4382 27.7843L28.1191 27.9761C28.52 28.0899 28.7205 28.1467 28.8977 28.0746C29.0749 28.0026 29.1791 27.8218 29.3874 27.4602L29.6629 26.9822C29.8581 26.6433 29.9558 26.4739 29.9368 26.2935C29.9179 26.1131 29.7872 25.9678 29.5258 25.677L28.9503 25.0337C28.8097 24.8556 28.7099 24.5455 28.7099 24.2664C28.7099 23.9874 28.8097 23.6771 28.9503 23.4991L29.5258 22.8558C29.7872 22.5651 29.9179 22.4197 29.9368 22.2393C29.9558 22.0589 29.8581 21.8895 29.6629 21.5506Z" fill="white" stroke="#1355FF" stroke-width="2.09409" stroke-linecap="round"/>
<path d="M24.4922 24.2665H24.5048" stroke="#1355FF" stroke-width="2.79213" stroke-linecap="round" stroke-linejoin="round"/>
</svg>
