<svg width="33" height="33" viewBox="0 0 33 33" fill="none" xmlns="http://www.w3.org/2000/svg">
<path d="M17.834 16.8333C13.034 21.6333 5.50065 18.8333 2.33398 16.8333V22.3333L3.83398 27.8333L7.33398 29.8333L13.334 30.3333H24.334L28.834 27.8333L29.834 23.8333V16.3333L30.334 10.8333L28.834 5.83333L26.334 3.33333L21.834 2.33333H17.834C22.234 9.93333 19.6673 15.1667 17.834 16.8333Z" fill="#B7FFFD"/>
<path d="M11.334 7.53333L11.334 10.3333L11.334 7.53333ZM11.3466 13.1333H11.334H11.3466ZM18.334 10.3333C18.334 14.1993 15.1999 17.3333 11.334 17.3333C7.46802 17.3333 4.33398 14.1993 4.33398 10.3333C4.33398 6.46737 7.46802 3.33333 11.334 3.33333C15.1999 3.33333 18.334 6.46737 18.334 10.3333Z" fill="white"/>
<path d="M11.334 7.53333L11.334 10.3333M11.3466 13.1333H11.334M18.334 10.3333C18.334 14.1993 15.1999 17.3333 11.334 17.3333C7.46802 17.3333 4.33398 14.1993 4.33398 10.3333C4.33398 6.46737 7.46802 3.33333 11.334 3.33333C15.1999 3.33333 18.334 6.46737 18.334 10.3333Z" stroke="#1355FF" stroke-width="1.5" stroke-linecap="round"/>
<path d="M21.0013 25.6667H11.668" stroke="#1355FF" stroke-width="1.5" stroke-linecap="round"/>
<path d="M2.33398 16.3333C2.33657 22.7915 2.40787 26.0943 4.38414 28.1748C6.4344 30.3333 9.73423 30.3333 16.3339 30.3333H17.0339C22.9556 30.3333 25.9163 30.3333 27.88 28.5676C28.1589 28.317 28.4185 28.0436 28.6567 27.75C30.3339 25.6827 30.3339 22.5657 30.3339 16.3316C30.3339 10.0975 30.3339 6.98046 28.6567 4.91314C28.4185 4.61959 28.1589 4.34619 27.88 4.09546C26.1636 2.55213 23.6853 2.3578 19.1339 2.33333H17.8894" stroke="#1355FF" stroke-width="1.5" stroke-linecap="round"/>
</svg>
