<svg width="33" height="32" viewBox="0 0 33 32" fill="none" xmlns="http://www.w3.org/2000/svg">
<path d="M28.7689 19.3223C15.885 21.9393 13.7008 11.9469 14.2192 6.62366H9.82441L4.55971 7.5782L2.33398 10.8893V23.3193L4.55971 26.9561L9.11917 27.9874H22.4177L27.3572 26.2504L28.7689 23.3193C28.741 21.987 28.702 19.3223 28.7689 19.3223Z" fill="#B7FFFD"/>
<path d="M18.9863 6.1919C19.0705 6.09735 19.1579 6.00468 19.2486 5.91402C21.7842 3.37843 25.8952 3.37843 28.4307 5.91402C30.9663 8.44961 30.9663 12.5606 28.4307 15.0962C28.3401 15.1868 28.2474 15.2743 28.1529 15.3584" stroke="#1355FF" stroke-width="1.5" stroke-linecap="round"/>
<path d="M28.4414 15.0699C28.3573 15.1645 28.2698 15.2572 28.1791 15.3478C25.6435 17.8834 21.5326 17.8834 18.997 15.3478C16.4614 12.8122 16.4614 8.70125 18.997 6.16568C19.0877 6.07501 19.1803 5.98755 19.2749 5.9034" stroke="#1355FF" stroke-width="1.5" stroke-linecap="round"/>
<path d="M14.4485 6.65979H13.1248C8.78408 6.65979 6.61372 6.65979 5.07523 7.73705C4.50604 8.13559 4.01096 8.63067 3.61242 9.19987C2.53516 10.7383 2.53516 12.9087 2.53516 17.2495C2.53516 21.5902 2.53516 23.7605 3.61242 25.2991C4.01096 25.8683 4.50604 26.3633 5.07523 26.7619C6.61372 27.8391 8.78408 27.8391 13.1248 27.8391H18.4197C22.7604 27.8391 24.9307 27.8391 26.4693 26.7619C27.0385 26.3633 27.5335 25.8683 27.9321 25.2991C28.8309 24.0155 28.9798 22.292 29.0044 19.235" stroke="#1355FF" stroke-width="1.5" stroke-linecap="round"/>
<path d="M14.4492 23.868H17.0966" stroke="#1355FF" stroke-width="1.5" stroke-linecap="round" stroke-linejoin="round"/>
<path d="M20.877 8.73999H21.6873C22.0694 8.73999 22.2604 8.73999 22.3792 8.85538C22.4978 8.97077 22.4978 9.15649 22.4978 9.52791C22.4978 10.2708 22.4978 10.6422 22.2604 10.873C22.0799 11.0485 21.8157 11.0905 21.3634 11.1006C21.1315 11.1058 21.0155 11.1083 20.9462 11.1772C20.877 11.2461 20.877 11.3563 20.877 11.5765V12.6796C20.877 13.051 20.877 13.2367 20.9956 13.3522C21.1144 13.4675 21.3054 13.4675 21.6873 13.4675H22.4978M26.55 8.73999V11.1038M26.55 11.1038H25.1723C24.8666 11.1038 24.7138 11.1038 24.6189 11.0115C24.5239 10.9191 24.5239 10.7706 24.5239 10.4734V8.73999M26.55 11.1038V13.4675" stroke="#1355FF" stroke-width="1.5" stroke-linecap="round" stroke-linejoin="round"/>
</svg>
