<svg width="33" height="33" viewBox="0 0 33 33" fill="none" xmlns="http://www.w3.org/2000/svg">
<path d="M9.33398 4.83333H16.834L17.834 8.83333C19.834 9.63333 20.334 11.8333 20.334 12.8333L22.834 14.8333C24.834 13.2333 27.0007 14.5 27.834 15.3333V15.8333V19.8333L26.834 27.3333L24.334 29.8333L20.834 30.3333H14.334H7.83398L4.33398 28.8333L2.83398 26.3333L2.33398 19.8333V14.3333V10.3333L3.83398 7.33333L5.33398 5.83333L9.33398 4.83333Z" fill="#B7FFFD"/>
<path d="M17.0007 5.00308C16.3739 5 15.7083 5 15.0007 5C9.02953 5 6.04397 5 4.18897 6.85499C2.33398 8.70999 2.33398 11.6955 2.33398 17.6667C2.33398 23.6377 2.33398 26.6233 4.18897 28.4784C6.04397 30.3333 9.02953 30.3333 15.0007 30.3333C20.9717 30.3333 23.9573 30.3333 25.8124 28.4784C27.6673 26.6233 27.6673 23.6377 27.6673 17.6667C27.6673 16.9591 27.6673 16.2935 27.6643 15.6667" stroke="#1355FF" stroke-width="2" stroke-linecap="round"/>
<path d="M9 24.3333C12.1089 21.0771 17.8576 20.9237 21 24.3333M18.3268 14.3333C18.3268 16.1743 16.8323 17.6667 14.9887 17.6667C13.1452 17.6667 11.6506 16.1743 11.6506 14.3333C11.6506 12.4924 13.1452 11 14.9887 11C16.8323 11 18.3268 12.4924 18.3268 14.3333Z" stroke="#1355FF" stroke-width="2" stroke-linecap="round"/>
<path d="M29.9116 8.51219C30.4145 8.28084 30.6659 8.16522 30.7392 8.05071C30.8126 7.9362 30.8126 7.75379 30.8126 7.3889V7.13127C30.8126 6.76647 30.8126 6.58398 30.7392 6.46947C30.6659 6.35496 30.4144 6.23933 29.9116 6.00808C29.1659 5.6652 28.687 4.91488 28.7127 4.12972C28.7323 3.52977 28.7421 3.2298 28.677 3.11575C28.6119 3.0017 28.4544 2.91538 28.1393 2.74274L27.8396 2.57859C27.5341 2.41122 27.3814 2.32754 27.2509 2.3337C27.1204 2.33987 26.8985 2.49026 26.4548 2.79103C25.7331 3.28016 24.7484 3.28014 24.0267 2.79098C23.5829 2.49021 23.361 2.33981 23.2306 2.33365C23.1001 2.32748 22.9473 2.41117 22.6418 2.57853L22.3422 2.74268C22.0271 2.91529 21.8696 3.0016 21.8045 3.11562C21.7395 3.22964 21.7492 3.52965 21.7687 4.12969C21.7942 4.91489 21.3149 5.6652 20.5691 6.00808C20.0662 6.23924 19.8148 6.35486 19.7414 6.46937C19.668 6.58389 19.668 6.76638 19.668 7.13127V7.3889C19.668 7.75379 19.668 7.93629 19.7414 8.0508C19.8147 8.16531 20.0662 8.28094 20.569 8.51219C21.3147 8.85507 21.7935 9.60538 21.7679 10.3905C21.7483 10.9905 21.7385 11.2905 21.8036 11.4045C21.8686 11.5185 22.0262 11.6048 22.3413 11.7775L22.641 11.9417C22.9465 12.109 23.0993 12.1927 23.2298 12.1866C23.3603 12.1804 23.5821 12.03 24.0257 11.7291C24.748 11.2394 25.7335 11.2394 26.4557 11.7291C26.8994 12.0299 27.1212 12.1804 27.2517 12.1865C27.3822 12.1927 27.535 12.109 27.8405 11.9416L28.1401 11.7775C28.4553 11.6047 28.6129 11.5185 28.6779 11.4043C28.743 11.2903 28.7332 10.9904 28.7134 10.3905C28.6876 9.60538 29.1662 8.85507 29.9116 8.51219Z" fill="white" stroke="#1355FF" stroke-width="1.8" stroke-linecap="round"/>
<path d="M25.2405 8.88529C26.1381 8.88529 26.8658 8.15763 26.8658 7.26003C26.8658 6.36242 26.1381 5.63477 25.2405 5.63477C24.3429 5.63477 23.6152 6.36242 23.6152 7.26003C23.6152 8.15763 24.3429 8.88529 25.2405 8.88529Z" fill="white" stroke="#1355FF" stroke-width="1.5"/>
</svg>
