<?xml version="1.0" ?><svg xmlns="http://www.w3.org/2000/svg" width="400.0" height="323.0" viewBox="0.0 0.0 400.0 323.0" fill="none">
<rect x="8.59578" y="1.47273" width="398.808" height="284.808" rx="15.4042" fill="white"/>
<rect x="8.59578" y="1.47273" width="398.808" height="284.808" rx="15.4042" stroke="#E7E7E7" stroke-width="1.19155"/>
<path d="M32.154 68.6113L35.752 58.1813H38.216L41.814 68.6113H39.742L39 66.3713H34.968L34.212 68.6113H32.154ZM35.514 64.6913H38.454L36.718 59.4973H37.25L35.514 64.6913ZM46.2154 68.7793C45.4594 68.7793 44.778 68.6067 44.1714 68.2613C43.574 67.9067 43.1027 67.4307 42.7574 66.8333C42.412 66.2267 42.2394 65.5453 42.2394 64.7893C42.2394 64.0333 42.412 63.3567 42.7574 62.7593C43.1027 62.162 43.574 61.6907 44.1714 61.3453C44.778 61 45.4594 60.8273 46.2154 60.8273C46.7567 60.8273 47.2607 60.9253 47.7274 61.1213C48.194 61.308 48.5954 61.5693 48.9314 61.9053C49.2767 62.232 49.524 62.624 49.6734 63.0813L48.0634 63.7813C47.9234 63.3987 47.6854 63.0907 47.3494 62.8573C47.0227 62.624 46.6447 62.5073 46.2154 62.5073C45.814 62.5073 45.4547 62.6053 45.1374 62.8013C44.8294 62.9973 44.5867 63.268 44.4094 63.6133C44.232 63.9587 44.1434 64.3553 44.1434 64.8033C44.1434 65.2513 44.232 65.648 44.4094 65.9933C44.5867 66.3387 44.8294 66.6093 45.1374 66.8053C45.4547 67.0013 45.814 67.0993 46.2154 67.0993C46.654 67.0993 47.0367 66.9827 47.3634 66.7493C47.69 66.516 47.9234 66.2033 48.0634 65.8113L49.6734 66.5393C49.524 66.9687 49.2814 67.356 48.9454 67.7013C48.6094 68.0373 48.208 68.3033 47.7414 68.4993C47.2747 68.686 46.766 68.7793 46.2154 68.7793ZM54.7329 68.7793C53.9769 68.7793 53.2956 68.6067 52.6889 68.2613C52.0916 67.9067 51.6203 67.4307 51.2749 66.8333C50.9296 66.2267 50.7569 65.5453 50.7569 64.7893C50.7569 64.0333 50.9296 63.3567 51.2749 62.7593C51.6203 62.162 52.0916 61.6907 52.6889 61.3453C53.2956 61 53.9769 60.8273 54.7329 60.8273C55.2743 60.8273 55.7783 60.9253 56.2449 61.1213C56.7116 61.308 57.1129 61.5693 57.4489 61.9053C57.7943 62.232 58.0416 62.624 58.1909 63.0813L56.5809 63.7813C56.4409 63.3987 56.2029 63.0907 55.8669 62.8573C55.5403 62.624 55.1623 62.5073 54.7329 62.5073C54.3316 62.5073 53.9723 62.6053 53.6549 62.8013C53.3469 62.9973 53.1043 63.268 52.9269 63.6133C52.7496 63.9587 52.6609 64.3553 52.6609 64.8033C52.6609 65.2513 52.7496 65.648 52.9269 65.9933C53.1043 66.3387 53.3469 66.6093 53.6549 66.8053C53.9723 67.0013 54.3316 67.0993 54.7329 67.0993C55.1716 67.0993 55.5543 66.9827 55.8809 66.7493C56.2076 66.516 56.4409 66.2033 56.5809 65.8113L58.1909 66.5393C58.0416 66.9687 57.7989 67.356 57.4629 67.7013C57.1269 68.0373 56.7256 68.3033 56.2589 68.4993C55.7923 68.686 55.2836 68.7793 54.7329 68.7793ZM63.1945 68.7793C62.4105 68.7793 61.7245 68.602 61.1365 68.2473C60.5485 67.8927 60.0912 67.412 59.7645 66.8053C59.4378 66.1987 59.2745 65.5267 59.2745 64.7893C59.2745 64.024 59.4378 63.3473 59.7645 62.7593C60.1005 62.162 60.5532 61.6907 61.1225 61.3453C61.7012 61 62.3452 60.8273 63.0545 60.8273C63.6518 60.8273 64.1745 60.9253 64.6225 61.1213C65.0798 61.3173 65.4672 61.588 65.7845 61.9333C66.1018 62.2787 66.3445 62.6753 66.5125 63.1233C66.6805 63.562 66.7645 64.038 66.7645 64.5513C66.7645 64.682 66.7552 64.8173 66.7365 64.9573C66.7272 65.0973 66.7038 65.2187 66.6665 65.3213H60.7865V63.9213H65.6305L64.7625 64.5793C64.8465 64.15 64.8232 63.7673 64.6925 63.4313C64.5712 63.0953 64.3658 62.8293 64.0765 62.6333C63.7965 62.4373 63.4558 62.3393 63.0545 62.3393C62.6718 62.3393 62.3312 62.4373 62.0325 62.6333C61.7338 62.82 61.5052 63.1 61.3465 63.4733C61.1972 63.8373 61.1412 64.2807 61.1785 64.8033C61.1412 65.27 61.2018 65.6853 61.3605 66.0493C61.5285 66.404 61.7712 66.6793 62.0885 66.8753C62.4152 67.0713 62.7885 67.1693 63.2085 67.1693C63.6285 67.1693 63.9832 67.0807 64.2725 66.9033C64.5712 66.726 64.8045 66.488 64.9725 66.1893L66.4565 66.9173C66.3072 67.2813 66.0738 67.6033 65.7565 67.8833C65.4392 68.1633 65.0612 68.3827 64.6225 68.5413C64.1932 68.7 63.7172 68.7793 63.1945 68.7793ZM71.0528 68.7793C70.2408 68.7793 69.5314 68.588 68.9248 68.2053C68.3274 67.8133 67.9168 67.286 67.6928 66.6233L69.0648 65.9653C69.2608 66.3947 69.5314 66.7307 69.8768 66.9733C70.2314 67.216 70.6234 67.3373 71.0528 67.3373C71.3888 67.3373 71.6548 67.2627 71.8508 67.1133C72.0468 66.964 72.1448 66.768 72.1448 66.5253C72.1448 66.376 72.1028 66.2547 72.0188 66.1613C71.9441 66.0587 71.8368 65.9747 71.6968 65.9093C71.5661 65.8347 71.4214 65.774 71.2628 65.7273L70.0168 65.3773C69.3728 65.1907 68.8828 64.906 68.5468 64.5233C68.2201 64.1407 68.0568 63.688 68.0568 63.1653C68.0568 62.6987 68.1734 62.2927 68.4068 61.9473C68.6494 61.5927 68.9808 61.3173 69.4008 61.1213C69.8301 60.9253 70.3201 60.8273 70.8708 60.8273C71.5894 60.8273 72.2241 61 72.7748 61.3453C73.3254 61.6907 73.7174 62.176 73.9508 62.8013L72.5508 63.4593C72.4201 63.114 72.2008 62.8387 71.8928 62.6333C71.5848 62.428 71.2394 62.3253 70.8568 62.3253C70.5488 62.3253 70.3061 62.3953 70.1288 62.5353C69.9514 62.6753 69.8628 62.8573 69.8628 63.0813C69.8628 63.2213 69.9001 63.3427 69.9748 63.4453C70.0494 63.548 70.1521 63.632 70.2828 63.6973C70.4228 63.7627 70.5814 63.8233 70.7588 63.8793L71.9768 64.2433C72.6021 64.43 73.0828 64.71 73.4188 65.0833C73.7641 65.4567 73.9368 65.914 73.9368 66.4553C73.9368 66.9127 73.8154 67.3187 73.5728 67.6733C73.3301 68.0187 72.9941 68.2893 72.5648 68.4853C72.1354 68.6813 71.6314 68.7793 71.0528 68.7793ZM78.2442 68.7793C77.4322 68.7793 76.7229 68.588 76.1162 68.2053C75.5189 67.8133 75.1082 67.286 74.8842 66.6233L76.2562 65.9653C76.4522 66.3947 76.7229 66.7307 77.0682 66.9733C77.4229 67.216 77.8149 67.3373 78.2442 67.3373C78.5802 67.3373 78.8462 67.2627 79.0422 67.1133C79.2382 66.964 79.3362 66.768 79.3362 66.5253C79.3362 66.376 79.2942 66.2547 79.2102 66.1613C79.1355 66.0587 79.0282 65.9747 78.8882 65.9093C78.7575 65.8347 78.6129 65.774 78.4542 65.7273L77.2082 65.3773C76.5642 65.1907 76.0742 64.906 75.7382 64.5233C75.4115 64.1407 75.2482 63.688 75.2482 63.1653C75.2482 62.6987 75.3649 62.2927 75.5982 61.9473C75.8409 61.5927 76.1722 61.3173 76.5922 61.1213C77.0215 60.9253 77.5115 60.8273 78.0622 60.8273C78.7809 60.8273 79.4155 61 79.9662 61.3453C80.5169 61.6907 80.9089 62.176 81.1422 62.8013L79.7422 63.4593C79.6115 63.114 79.3922 62.8387 79.0842 62.6333C78.7762 62.428 78.4309 62.3253 78.0482 62.3253C77.7402 62.3253 77.4975 62.3953 77.3202 62.5353C77.1429 62.6753 77.0542 62.8573 77.0542 63.0813C77.0542 63.2213 77.0915 63.3427 77.1662 63.4453C77.2409 63.548 77.3435 63.632 77.4742 63.6973C77.6142 63.7627 77.7729 63.8233 77.9502 63.8793L79.1682 64.2433C79.7935 64.43 80.2742 64.71 80.6102 65.0833C80.9555 65.4567 81.1282 65.914 81.1282 66.4553C81.1282 66.9127 81.0069 67.3187 80.7642 67.6733C80.5215 68.0187 80.1855 68.2893 79.7562 68.4853C79.3269 68.6813 78.8229 68.7793 78.2442 68.7793ZM90.0799 68.7793C89.3332 68.7793 88.6425 68.644 88.0079 68.3733C87.3825 68.1027 86.8319 67.7247 86.3559 67.2393C85.8892 66.754 85.5252 66.1847 85.2639 65.5313C85.0025 64.878 84.8719 64.164 84.8719 63.3893C84.8719 62.6147 84.9979 61.9007 85.2499 61.2473C85.5112 60.5847 85.8752 60.0153 86.3419 59.5393C86.8179 59.054 87.3732 58.6807 88.0079 58.4193C88.6425 58.1487 89.3332 58.0133 90.0799 58.0133C90.8265 58.0133 91.4939 58.1393 92.0819 58.3913C92.6792 58.6433 93.1832 58.9793 93.5939 59.3993C94.0045 59.81 94.2985 60.2627 94.4759 60.7573L92.7679 61.5553C92.5719 61.0327 92.2405 60.6033 91.7739 60.2673C91.3072 59.922 90.7425 59.7493 90.0799 59.7493C89.4265 59.7493 88.8479 59.9033 88.3439 60.2113C87.8492 60.5193 87.4619 60.944 87.1819 61.4853C86.9112 62.0267 86.7759 62.6613 86.7759 63.3893C86.7759 64.1173 86.9112 64.7567 87.1819 65.3073C87.4619 65.8487 87.8492 66.2733 88.3439 66.5813C88.8479 66.8893 89.4265 67.0433 90.0799 67.0433C90.7425 67.0433 91.3072 66.8753 91.7739 66.5393C92.2405 66.194 92.5719 65.76 92.7679 65.2373L94.4759 66.0353C94.2985 66.53 94.0045 66.9873 93.5939 67.4073C93.1832 67.818 92.6792 68.1493 92.0819 68.4013C91.4939 68.6533 90.8265 68.7793 90.0799 68.7793ZM99.455 68.7793C98.7083 68.7793 98.027 68.6067 97.411 68.2613C96.8043 67.916 96.319 67.4447 95.955 66.8473C95.6003 66.25 95.423 65.5687 95.423 64.8033C95.423 64.038 95.6003 63.3567 95.955 62.7593C96.319 62.162 96.8043 61.6907 97.411 61.3453C98.0176 61 98.699 60.8273 99.455 60.8273C100.202 60.8273 100.878 61 101.485 61.3453C102.092 61.6907 102.572 62.162 102.927 62.7593C103.291 63.3473 103.473 64.0287 103.473 64.8033C103.473 65.5687 103.291 66.25 102.927 66.8473C102.563 67.4447 102.078 67.916 101.471 68.2613C100.864 68.6067 100.192 68.7793 99.455 68.7793ZM99.455 67.0993C99.8656 67.0993 100.225 67.0013 100.533 66.8053C100.85 66.6093 101.098 66.3387 101.275 65.9933C101.462 65.6387 101.555 65.242 101.555 64.8033C101.555 64.3553 101.462 63.9633 101.275 63.6273C101.098 63.282 100.85 63.0113 100.533 62.8153C100.225 62.61 99.8656 62.5073 99.455 62.5073C99.035 62.5073 98.6663 62.61 98.349 62.8153C98.0316 63.0113 97.7796 63.282 97.593 63.6273C97.4156 63.9633 97.327 64.3553 97.327 64.8033C97.327 65.242 97.4156 65.6387 97.593 65.9933C97.7796 66.3387 98.0316 66.6093 98.349 66.8053C98.6663 67.0013 99.035 67.0993 99.455 67.0993ZM104.864 68.6113V60.9953H106.586V62.4933L106.446 62.2273C106.623 61.77 106.912 61.4247 107.314 61.1913C107.724 60.9487 108.2 60.8273 108.742 60.8273C109.302 60.8273 109.796 60.9487 110.226 61.1913C110.664 61.434 111.005 61.7747 111.248 62.2133C111.49 62.6427 111.612 63.142 111.612 63.7113V68.6113H109.778V64.1453C109.778 63.8093 109.712 63.52 109.582 63.2773C109.451 63.0347 109.269 62.848 109.036 62.7173C108.812 62.5773 108.546 62.5073 108.238 62.5073C107.939 62.5073 107.673 62.5773 107.44 62.7173C107.206 62.848 107.024 63.0347 106.894 63.2773C106.763 63.52 106.698 63.8093 106.698 64.1453V68.6113H104.864ZM116.635 68.6953C115.776 68.6953 115.109 68.462 114.633 67.9953C114.166 67.5193 113.933 66.852 113.933 65.9933V62.6333H112.617V60.9953H112.757C113.13 60.9953 113.419 60.8973 113.625 60.7013C113.83 60.5053 113.933 60.2207 113.933 59.8473V59.2593H115.767V60.9953H117.517V62.6333H115.767V65.8953C115.767 66.1473 115.809 66.362 115.893 66.5393C115.986 66.7167 116.126 66.852 116.313 66.9453C116.509 67.0387 116.756 67.0853 117.055 67.0853C117.12 67.0853 117.195 67.0807 117.279 67.0713C117.372 67.062 117.461 67.0527 117.545 67.0433V68.6113C117.414 68.63 117.265 68.6487 117.097 68.6673C116.929 68.686 116.775 68.6953 116.635 68.6953ZM118.946 68.6113V60.9953H120.668V62.6893L120.528 62.4373C120.705 61.868 120.98 61.4713 121.354 61.2473C121.736 61.0233 122.194 60.9113 122.726 60.9113H123.174V62.5353H122.516C121.993 62.5353 121.573 62.6987 121.256 63.0253C120.938 63.3427 120.78 63.7907 120.78 64.3693V68.6113H118.946ZM127.906 68.7793C127.159 68.7793 126.478 68.6067 125.862 68.2613C125.255 67.916 124.77 67.4447 124.406 66.8473C124.051 66.25 123.874 65.5687 123.874 64.8033C123.874 64.038 124.051 63.3567 124.406 62.7593C124.77 62.162 125.255 61.6907 125.862 61.3453C126.469 61 127.15 60.8273 127.906 60.8273C128.653 60.8273 129.329 61 129.936 61.3453C130.543 61.6907 131.023 62.162 131.378 62.7593C131.742 63.3473 131.924 64.0287 131.924 64.8033C131.924 65.5687 131.742 66.25 131.378 66.8473C131.014 67.4447 130.529 67.916 129.922 68.2613C129.315 68.6067 128.643 68.7793 127.906 68.7793ZM127.906 67.0993C128.317 67.0993 128.676 67.0013 128.984 66.8053C129.301 66.6093 129.549 66.3387 129.726 65.9933C129.913 65.6387 130.006 65.242 130.006 64.8033C130.006 64.3553 129.913 63.9633 129.726 63.6273C129.549 63.282 129.301 63.0113 128.984 62.8153C128.676 62.61 128.317 62.5073 127.906 62.5073C127.486 62.5073 127.117 62.61 126.8 62.8153C126.483 63.0113 126.231 63.282 126.044 63.6273C125.867 63.9633 125.778 64.3553 125.778 64.8033C125.778 65.242 125.867 65.6387 126.044 65.9933C126.231 66.3387 126.483 66.6093 126.8 66.8053C127.117 67.0013 127.486 67.0993 127.906 67.0993ZM133.315 68.6113V58.0133H135.149V68.6113H133.315Z" fill="#0C2459"/>
<line x1="32" y1="79.1671" x2="376" y2="79.167" stroke="#A2A2A2" stroke-width="0.357303"/>
<rect width="94" height="165" transform="translate(32 91.3457)" fill="white"/>
<path d="M32.864 115.846V106.906H36.2C36.808 106.906 37.344 107.018 37.808 107.242C38.28 107.458 38.648 107.778 38.912 108.202C39.176 108.618 39.308 109.126 39.308 109.726C39.308 110.318 39.172 110.826 38.9 111.25C38.636 111.666 38.272 111.986 37.808 112.21C37.344 112.434 36.808 112.546 36.2 112.546H34.496V115.846H32.864ZM34.496 111.106H36.224C36.52 111.106 36.776 111.05 36.992 110.938C37.208 110.818 37.376 110.654 37.496 110.446C37.616 110.238 37.676 109.998 37.676 109.726C37.676 109.446 37.616 109.206 37.496 109.006C37.376 108.798 37.208 108.638 36.992 108.526C36.776 108.406 36.52 108.346 36.224 108.346H34.496V111.106ZM45.0493 115.99C44.3933 115.99 43.7813 115.874 43.2133 115.642C42.6453 115.41 42.1493 115.086 41.7253 114.67C41.3013 114.254 40.9693 113.766 40.7293 113.206C40.4973 112.638 40.3813 112.026 40.3813 111.37C40.3813 110.706 40.4973 110.094 40.7293 109.534C40.9613 108.974 41.2893 108.486 41.7133 108.07C42.1373 107.654 42.6333 107.334 43.2013 107.11C43.7693 106.878 44.3853 106.762 45.0493 106.762C45.7133 106.762 46.3293 106.878 46.8973 107.11C47.4653 107.342 47.9613 107.666 48.3853 108.082C48.8093 108.49 49.1373 108.974 49.3693 109.534C49.6093 110.094 49.7293 110.706 49.7293 111.37C49.7293 112.026 49.6093 112.638 49.3693 113.206C49.1293 113.766 48.7973 114.254 48.3733 114.67C47.9493 115.086 47.4533 115.41 46.8853 115.642C46.3253 115.874 45.7133 115.99 45.0493 115.99ZM45.0493 114.502C45.4893 114.502 45.8933 114.426 46.2613 114.274C46.6293 114.114 46.9493 113.894 47.2213 113.614C47.5013 113.334 47.7133 113.002 47.8573 112.618C48.0093 112.234 48.0853 111.818 48.0853 111.37C48.0853 110.922 48.0093 110.51 47.8573 110.134C47.7133 109.75 47.5013 109.418 47.2213 109.138C46.9493 108.85 46.6293 108.63 46.2613 108.478C45.8933 108.326 45.4893 108.25 45.0493 108.25C44.6173 108.25 44.2173 108.326 43.8493 108.478C43.4813 108.63 43.1573 108.85 42.8773 109.138C42.6053 109.418 42.3933 109.75 42.2413 110.134C42.0893 110.51 42.0133 110.922 42.0133 111.37C42.0133 111.818 42.0893 112.234 42.2413 112.618C42.3933 113.002 42.6053 113.334 42.8773 113.614C43.1573 113.894 43.4813 114.114 43.8493 114.274C44.2173 114.426 44.6173 114.502 45.0493 114.502ZM54.3724 115.99C53.8044 115.99 53.2764 115.886 52.7884 115.678C52.3084 115.47 51.8924 115.182 51.5404 114.814C51.1964 114.438 50.9444 114.002 50.7844 113.506L52.1404 112.918C52.3564 113.43 52.6684 113.834 53.0764 114.13C53.4844 114.418 53.9444 114.562 54.4564 114.562C54.7444 114.562 54.9924 114.518 55.2004 114.43C55.4164 114.334 55.5804 114.206 55.6924 114.046C55.8124 113.886 55.8724 113.694 55.8724 113.47C55.8724 113.206 55.7924 112.99 55.6324 112.822C55.4804 112.646 55.2484 112.51 54.9364 112.414L53.2204 111.862C52.5244 111.646 52.0004 111.322 51.6484 110.89C51.2964 110.458 51.1204 109.95 51.1204 109.366C51.1204 108.854 51.2444 108.402 51.4924 108.01C51.7484 107.618 52.1004 107.314 52.5484 107.098C53.0044 106.874 53.5244 106.762 54.1084 106.762C54.6444 106.762 55.1364 106.858 55.5844 107.05C56.0324 107.234 56.4164 107.494 56.7364 107.83C57.0644 108.158 57.3084 108.546 57.4684 108.994L56.1244 109.594C55.9484 109.146 55.6844 108.802 55.3324 108.562C54.9804 108.314 54.5724 108.19 54.1084 108.19C53.8364 108.19 53.5964 108.238 53.3884 108.334C53.1804 108.422 53.0164 108.55 52.8964 108.718C52.7844 108.878 52.7284 109.07 52.7284 109.294C52.7284 109.542 52.8084 109.762 52.9684 109.954C53.1284 110.138 53.3724 110.282 53.7004 110.386L55.3444 110.902C56.0564 111.134 56.5884 111.454 56.9404 111.862C57.3004 112.27 57.4804 112.774 57.4804 113.374C57.4804 113.886 57.3484 114.338 57.0844 114.73C56.8204 115.122 56.4564 115.43 55.9924 115.654C55.5284 115.878 54.9884 115.99 54.3724 115.99ZM60.5339 115.846V108.346H58.2179V106.906H64.4579V108.346H62.1779V115.846H60.5339ZM70.7787 115.99C70.2107 115.99 69.6827 115.886 69.1947 115.678C68.7147 115.47 68.2987 115.182 67.9467 114.814C67.6027 114.438 67.3507 114.002 67.1907 113.506L68.5467 112.918C68.7627 113.43 69.0747 113.834 69.4827 114.13C69.8907 114.418 70.3507 114.562 70.8627 114.562C71.1507 114.562 71.3987 114.518 71.6067 114.43C71.8227 114.334 71.9867 114.206 72.0987 114.046C72.2187 113.886 72.2787 113.694 72.2787 113.47C72.2787 113.206 72.1987 112.99 72.0387 112.822C71.8867 112.646 71.6547 112.51 71.3427 112.414L69.6267 111.862C68.9307 111.646 68.4067 111.322 68.0547 110.89C67.7027 110.458 67.5267 109.95 67.5267 109.366C67.5267 108.854 67.6507 108.402 67.8987 108.01C68.1547 107.618 68.5067 107.314 68.9547 107.098C69.4107 106.874 69.9307 106.762 70.5147 106.762C71.0507 106.762 71.5427 106.858 71.9907 107.05C72.4387 107.234 72.8227 107.494 73.1427 107.83C73.4707 108.158 73.7147 108.546 73.8747 108.994L72.5307 109.594C72.3547 109.146 72.0907 108.802 71.7387 108.562C71.3867 108.314 70.9787 108.19 70.5147 108.19C70.2427 108.19 70.0027 108.238 69.7947 108.334C69.5867 108.422 69.4227 108.55 69.3027 108.718C69.1907 108.878 69.1347 109.07 69.1347 109.294C69.1347 109.542 69.2147 109.762 69.3747 109.954C69.5347 110.138 69.7787 110.282 70.1067 110.386L71.7507 110.902C72.4627 111.134 72.9947 111.454 73.3467 111.862C73.7067 112.27 73.8867 112.774 73.8867 113.374C73.8867 113.886 73.7547 114.338 73.4907 114.73C73.2267 115.122 72.8627 115.43 72.3987 115.654C71.9347 115.878 71.3947 115.99 70.7787 115.99ZM75.3562 115.846V106.906H76.9882V115.846H75.3562ZM80.2918 115.846V108.346H77.9758V106.906H84.2158V108.346H81.9358V115.846H80.2918ZM85.2117 115.846V106.906H91.1517V108.346H86.8437V110.638H90.9117V112.078H86.8437V114.406H91.1517V115.846H85.2117ZM95.5404 115.99C94.9724 115.99 94.4444 115.886 93.9564 115.678C93.4764 115.47 93.0604 115.182 92.7084 114.814C92.3644 114.438 92.1124 114.002 91.9524 113.506L93.3084 112.918C93.5244 113.43 93.8364 113.834 94.2444 114.13C94.6524 114.418 95.1124 114.562 95.6244 114.562C95.9124 114.562 96.1604 114.518 96.3684 114.43C96.5844 114.334 96.7484 114.206 96.8604 114.046C96.9804 113.886 97.0404 113.694 97.0404 113.47C97.0404 113.206 96.9604 112.99 96.8004 112.822C96.6484 112.646 96.4164 112.51 96.1044 112.414L94.3884 111.862C93.6924 111.646 93.1684 111.322 92.8164 110.89C92.4644 110.458 92.2884 109.95 92.2884 109.366C92.2884 108.854 92.4124 108.402 92.6604 108.01C92.9164 107.618 93.2684 107.314 93.7164 107.098C94.1724 106.874 94.6924 106.762 95.2764 106.762C95.8124 106.762 96.3044 106.858 96.7524 107.05C97.2004 107.234 97.5844 107.494 97.9044 107.83C98.2324 108.158 98.4764 108.546 98.6364 108.994L97.2924 109.594C97.1164 109.146 96.8524 108.802 96.5004 108.562C96.1484 108.314 95.7404 108.19 95.2764 108.19C95.0044 108.19 94.7644 108.238 94.5564 108.334C94.3484 108.422 94.1844 108.55 94.0644 108.718C93.9524 108.878 93.8964 109.07 93.8964 109.294C93.8964 109.542 93.9764 109.762 94.1364 109.954C94.2964 110.138 94.5404 110.282 94.8684 110.386L96.5124 110.902C97.2244 111.134 97.7564 111.454 98.1084 111.862C98.4684 112.27 98.6484 112.774 98.6484 113.374C98.6484 113.886 98.5164 114.338 98.2524 114.73C97.9884 115.122 97.6244 115.43 97.1604 115.654C96.6964 115.878 96.1564 115.99 95.5404 115.99Z" fill="#0C2459"/>
<g filter="url(#filter0_d_40000190_21724)">
<mask id="path-5-inside-1_40000190_21724" fill="white">
<path d="M32 136.846H354V176.846H32V136.846Z"/>
</mask>
<path d="M32 136.846H354V176.846H32V136.846Z" fill="url(#paint0_linear_40000190_21724)" fill-opacity="0.2" shape-rendering="crispEdges"/>
<path d="M32 176.846H34V136.846H32H30V176.846H32Z" fill="#1355FF" mask="url(#path-5-inside-1_40000190_21724)"/>
<path d="M56.308 161.99C55.62 161.99 55.008 161.846 54.472 161.558C53.944 161.27 53.528 160.874 53.224 160.37C52.92 159.866 52.768 159.294 52.768 158.654V152.906H54.4V158.57C54.4 158.938 54.48 159.27 54.64 159.566C54.808 159.862 55.036 160.094 55.324 160.262C55.612 160.422 55.94 160.502 56.308 160.502C56.684 160.502 57.012 160.422 57.292 160.262C57.58 160.094 57.804 159.862 57.964 159.566C58.132 159.27 58.216 158.938 58.216 158.57V152.906H59.848V158.654C59.848 159.294 59.696 159.866 59.392 160.37C59.088 160.874 58.668 161.27 58.132 161.558C57.604 161.846 56.996 161.99 56.308 161.99ZM63.8293 161.99C63.1333 161.99 62.5253 161.826 62.0053 161.498C61.4933 161.162 61.1413 160.71 60.9493 160.142L62.1253 159.578C62.2933 159.946 62.5253 160.234 62.8213 160.442C63.1253 160.65 63.4613 160.754 63.8293 160.754C64.1173 160.754 64.3453 160.69 64.5133 160.562C64.6813 160.434 64.7653 160.266 64.7653 160.058C64.7653 159.93 64.7293 159.826 64.6573 159.746C64.5933 159.658 64.5013 159.586 64.3813 159.53C64.2693 159.466 64.1453 159.414 64.0093 159.374L62.9413 159.074C62.3893 158.914 61.9693 158.67 61.6813 158.342C61.4013 158.014 61.2613 157.626 61.2613 157.178C61.2613 156.778 61.3613 156.43 61.5613 156.134C61.7693 155.83 62.0533 155.594 62.4133 155.426C62.7813 155.258 63.2013 155.174 63.6733 155.174C64.2893 155.174 64.8333 155.322 65.3053 155.618C65.7773 155.914 66.1133 156.33 66.3133 156.866L65.1133 157.43C65.0013 157.134 64.8133 156.898 64.5493 156.722C64.2853 156.546 63.9893 156.458 63.6613 156.458C63.3973 156.458 63.1893 156.518 63.0373 156.638C62.8853 156.758 62.8093 156.914 62.8093 157.106C62.8093 157.226 62.8413 157.33 62.9053 157.418C62.9693 157.506 63.0573 157.578 63.1693 157.634C63.2893 157.69 63.4253 157.742 63.5773 157.79L64.6213 158.102C65.1573 158.262 65.5693 158.502 65.8573 158.822C66.1533 159.142 66.3013 159.534 66.3013 159.998C66.3013 160.39 66.1973 160.738 65.9893 161.042C65.7813 161.338 65.4933 161.57 65.1253 161.738C64.7573 161.906 64.3253 161.99 63.8293 161.99ZM70.6053 161.99C69.9333 161.99 69.3453 161.838 68.8413 161.534C68.3373 161.23 67.9453 160.818 67.6653 160.298C67.3853 159.778 67.2453 159.202 67.2453 158.57C67.2453 157.914 67.3853 157.334 67.6653 156.83C67.9533 156.318 68.3413 155.914 68.8293 155.618C69.3253 155.322 69.8773 155.174 70.4853 155.174C70.9973 155.174 71.4453 155.258 71.8293 155.426C72.2213 155.594 72.5533 155.826 72.8253 156.122C73.0973 156.418 73.3053 156.758 73.4493 157.142C73.5933 157.518 73.6653 157.926 73.6653 158.366C73.6653 158.478 73.6573 158.594 73.6413 158.714C73.6333 158.834 73.6133 158.938 73.5813 159.026H68.5413V157.826H72.6933L71.9493 158.39C72.0213 158.022 72.0013 157.694 71.8893 157.406C71.7853 157.118 71.6093 156.89 71.3613 156.722C71.1213 156.554 70.8293 156.47 70.4853 156.47C70.1573 156.47 69.8653 156.554 69.6093 156.722C69.3533 156.882 69.1573 157.122 69.0213 157.442C68.8933 157.754 68.8453 158.134 68.8773 158.582C68.8453 158.982 68.8973 159.338 69.0333 159.65C69.1773 159.954 69.3853 160.19 69.6573 160.358C69.9373 160.526 70.2573 160.61 70.6173 160.61C70.9773 160.61 71.2813 160.534 71.5293 160.382C71.7853 160.23 71.9853 160.026 72.1293 159.77L73.4013 160.394C73.2733 160.706 73.0733 160.982 72.8013 161.222C72.5293 161.462 72.2053 161.65 71.8293 161.786C71.4613 161.922 71.0533 161.99 70.6053 161.99ZM74.857 161.846V155.318H76.333V156.77L76.213 156.554C76.365 156.066 76.601 155.726 76.921 155.534C77.249 155.342 77.641 155.246 78.097 155.246H78.481V156.638H77.917C77.469 156.638 77.109 156.778 76.837 157.058C76.565 157.33 76.429 157.714 76.429 158.21V161.846H74.857ZM80.8781 161.846L83.9621 152.906H86.0741L89.1581 161.846H87.3821L86.7461 159.926H83.2901L82.6421 161.846H80.8781ZM83.7581 158.486H86.2781L84.7901 154.034H85.2461L83.7581 158.486ZM92.9307 161.99C92.2827 161.99 91.6987 161.842 91.1787 161.546C90.6667 161.242 90.2627 160.834 89.9667 160.322C89.6707 159.802 89.5227 159.218 89.5227 158.57C89.5227 157.922 89.6707 157.342 89.9667 156.83C90.2627 156.318 90.6667 155.914 91.1787 155.618C91.6987 155.322 92.2827 155.174 92.9307 155.174C93.3947 155.174 93.8267 155.258 94.2267 155.426C94.6267 155.586 94.9707 155.81 95.2587 156.098C95.5547 156.378 95.7667 156.714 95.8947 157.106L94.5147 157.706C94.3947 157.378 94.1907 157.114 93.9027 156.914C93.6227 156.714 93.2987 156.614 92.9307 156.614C92.5867 156.614 92.2787 156.698 92.0067 156.866C91.7427 157.034 91.5347 157.266 91.3827 157.562C91.2307 157.858 91.1547 158.198 91.1547 158.582C91.1547 158.966 91.2307 159.306 91.3827 159.602C91.5347 159.898 91.7427 160.13 92.0067 160.298C92.2787 160.466 92.5867 160.55 92.9307 160.55C93.3067 160.55 93.6347 160.45 93.9147 160.25C94.1947 160.05 94.3947 159.782 94.5147 159.446L95.8947 160.07C95.7667 160.438 95.5587 160.77 95.2707 161.066C94.9827 161.354 94.6387 161.582 94.2387 161.75C93.8387 161.91 93.4027 161.99 92.9307 161.99ZM100.231 161.99C99.5835 161.99 98.9995 161.842 98.4795 161.546C97.9675 161.242 97.5635 160.834 97.2675 160.322C96.9715 159.802 96.8235 159.218 96.8235 158.57C96.8235 157.922 96.9715 157.342 97.2675 156.83C97.5635 156.318 97.9675 155.914 98.4795 155.618C98.9995 155.322 99.5835 155.174 100.231 155.174C100.695 155.174 101.127 155.258 101.527 155.426C101.927 155.586 102.271 155.81 102.559 156.098C102.855 156.378 103.067 156.714 103.195 157.106L101.815 157.706C101.695 157.378 101.491 157.114 101.203 156.914C100.923 156.714 100.599 156.614 100.231 156.614C99.8875 156.614 99.5795 156.698 99.3075 156.866C99.0435 157.034 98.8355 157.266 98.6835 157.562C98.5315 157.858 98.4555 158.198 98.4555 158.582C98.4555 158.966 98.5315 159.306 98.6835 159.602C98.8355 159.898 99.0435 160.13 99.3075 160.298C99.5795 160.466 99.8875 160.55 100.231 160.55C100.607 160.55 100.935 160.45 101.215 160.25C101.495 160.05 101.695 159.782 101.815 159.446L103.195 160.07C103.067 160.438 102.859 160.77 102.571 161.066C102.283 161.354 101.939 161.582 101.539 161.75C101.139 161.91 100.703 161.99 100.231 161.99ZM107.484 161.99C106.812 161.99 106.224 161.838 105.72 161.534C105.216 161.23 104.824 160.818 104.544 160.298C104.264 159.778 104.124 159.202 104.124 158.57C104.124 157.914 104.264 157.334 104.544 156.83C104.832 156.318 105.22 155.914 105.708 155.618C106.204 155.322 106.756 155.174 107.364 155.174C107.876 155.174 108.324 155.258 108.708 155.426C109.1 155.594 109.432 155.826 109.704 156.122C109.976 156.418 110.184 156.758 110.328 157.142C110.472 157.518 110.544 157.926 110.544 158.366C110.544 158.478 110.536 158.594 110.52 158.714C110.512 158.834 110.492 158.938 110.46 159.026H105.42V157.826H109.572L108.828 158.39C108.9 158.022 108.88 157.694 108.768 157.406C108.664 157.118 108.488 156.89 108.24 156.722C108 156.554 107.708 156.47 107.364 156.47C107.036 156.47 106.744 156.554 106.488 156.722C106.232 156.882 106.036 157.122 105.9 157.442C105.772 157.754 105.724 158.134 105.756 158.582C105.724 158.982 105.776 159.338 105.912 159.65C106.056 159.954 106.264 160.19 106.536 160.358C106.816 160.526 107.136 160.61 107.496 160.61C107.856 160.61 108.16 160.534 108.408 160.382C108.664 160.23 108.864 160.026 109.008 159.77L110.28 160.394C110.152 160.706 109.952 160.982 109.68 161.222C109.408 161.462 109.084 161.65 108.708 161.786C108.34 161.922 107.932 161.99 107.484 161.99ZM114.22 161.99C113.524 161.99 112.916 161.826 112.396 161.498C111.884 161.162 111.532 160.71 111.34 160.142L112.516 159.578C112.684 159.946 112.916 160.234 113.212 160.442C113.516 160.65 113.852 160.754 114.22 160.754C114.508 160.754 114.736 160.69 114.904 160.562C115.072 160.434 115.156 160.266 115.156 160.058C115.156 159.93 115.12 159.826 115.048 159.746C114.984 159.658 114.892 159.586 114.772 159.53C114.66 159.466 114.536 159.414 114.4 159.374L113.332 159.074C112.78 158.914 112.36 158.67 112.072 158.342C111.792 158.014 111.652 157.626 111.652 157.178C111.652 156.778 111.752 156.43 111.952 156.134C112.16 155.83 112.444 155.594 112.804 155.426C113.172 155.258 113.592 155.174 114.064 155.174C114.68 155.174 115.224 155.322 115.696 155.618C116.168 155.914 116.504 156.33 116.704 156.866L115.504 157.43C115.392 157.134 115.204 156.898 114.94 156.722C114.676 156.546 114.38 156.458 114.052 156.458C113.788 156.458 113.58 156.518 113.428 156.638C113.276 156.758 113.2 156.914 113.2 157.106C113.2 157.226 113.232 157.33 113.296 157.418C113.36 157.506 113.448 157.578 113.56 157.634C113.68 157.69 113.816 157.742 113.968 157.79L115.012 158.102C115.548 158.262 115.96 158.502 116.248 158.822C116.544 159.142 116.692 159.534 116.692 159.998C116.692 160.39 116.588 160.738 116.38 161.042C116.172 161.338 115.884 161.57 115.516 161.738C115.148 161.906 114.716 161.99 114.22 161.99ZM120.384 161.99C119.688 161.99 119.08 161.826 118.56 161.498C118.048 161.162 117.696 160.71 117.504 160.142L118.68 159.578C118.848 159.946 119.08 160.234 119.376 160.442C119.68 160.65 120.016 160.754 120.384 160.754C120.672 160.754 120.9 160.69 121.068 160.562C121.236 160.434 121.32 160.266 121.32 160.058C121.32 159.93 121.284 159.826 121.212 159.746C121.148 159.658 121.056 159.586 120.936 159.53C120.824 159.466 120.7 159.414 120.564 159.374L119.496 159.074C118.944 158.914 118.524 158.67 118.236 158.342C117.956 158.014 117.816 157.626 117.816 157.178C117.816 156.778 117.916 156.43 118.116 156.134C118.324 155.83 118.608 155.594 118.968 155.426C119.336 155.258 119.756 155.174 120.228 155.174C120.844 155.174 121.388 155.322 121.86 155.618C122.332 155.914 122.668 156.33 122.868 156.866L121.668 157.43C121.556 157.134 121.368 156.898 121.104 156.722C120.84 156.546 120.544 156.458 120.216 156.458C119.952 156.458 119.744 156.518 119.592 156.638C119.44 156.758 119.364 156.914 119.364 157.106C119.364 157.226 119.396 157.33 119.46 157.418C119.524 157.506 119.612 157.578 119.724 157.634C119.844 157.69 119.98 157.742 120.132 157.79L121.176 158.102C121.712 158.262 122.124 158.502 122.412 158.822C122.708 159.142 122.856 159.534 122.856 159.998C122.856 160.39 122.752 160.738 122.544 161.042C122.336 161.338 122.048 161.57 121.68 161.738C121.312 161.906 120.88 161.99 120.384 161.99Z" fill="#0C2459"/>
</g>
<path d="M37.064 207.99C36.424 207.99 35.832 207.874 35.288 207.642C34.752 207.41 34.28 207.086 33.872 206.67C33.472 206.254 33.16 205.766 32.936 205.206C32.712 204.646 32.6 204.034 32.6 203.37C32.6 202.706 32.708 202.094 32.924 201.534C33.148 200.966 33.46 200.478 33.86 200.07C34.268 199.654 34.744 199.334 35.288 199.11C35.832 198.878 36.424 198.762 37.064 198.762C37.704 198.762 38.276 198.87 38.78 199.086C39.292 199.302 39.724 199.59 40.076 199.95C40.428 200.302 40.68 200.69 40.832 201.114L39.368 201.798C39.2 201.35 38.916 200.982 38.516 200.694C38.116 200.398 37.632 200.25 37.064 200.25C36.504 200.25 36.008 200.382 35.576 200.646C35.152 200.91 34.82 201.274 34.58 201.738C34.348 202.202 34.232 202.746 34.232 203.37C34.232 203.994 34.348 204.542 34.58 205.014C34.82 205.478 35.152 205.842 35.576 206.106C36.008 206.37 36.504 206.502 37.064 206.502C37.632 206.502 38.116 206.358 38.516 206.07C38.916 205.774 39.2 205.402 39.368 204.954L40.832 205.638C40.68 206.062 40.428 206.454 40.076 206.814C39.724 207.166 39.292 207.45 38.78 207.666C38.276 207.882 37.704 207.99 37.064 207.99ZM42.157 207.846V198.906H43.789V206.406H47.617V207.846H42.157ZM48.6726 207.846V198.906H50.3046V207.846H48.6726ZM52.0242 207.846V198.906H57.9642V200.346H53.6562V202.638H57.7242V204.078H53.6562V206.406H57.9642V207.846H52.0242ZM59.1609 207.846V198.906H60.4329L65.3529 205.53L64.6929 205.662V198.906H66.3249V207.846H65.0409L60.1929 201.174L60.7929 201.042V207.846H59.1609ZM69.6394 207.846V200.346H67.3234V198.906H73.5634V200.346H71.2834V207.846H69.6394ZM76.6921 207.846V198.906H80.0281C80.6361 198.906 81.1721 199.018 81.6361 199.242C82.1081 199.458 82.4761 199.778 82.7401 200.202C83.0041 200.618 83.1361 201.126 83.1361 201.726C83.1361 202.318 83.0001 202.826 82.7281 203.25C82.4641 203.666 82.1001 203.986 81.6361 204.21C81.1721 204.434 80.6361 204.546 80.0281 204.546H78.3241V207.846H76.6921ZM78.3241 203.106H80.0521C80.3481 203.106 80.6041 203.05 80.8201 202.938C81.0361 202.818 81.2041 202.654 81.3241 202.446C81.4441 202.238 81.5041 201.998 81.5041 201.726C81.5041 201.446 81.4441 201.206 81.3241 201.006C81.2041 200.798 81.0361 200.638 80.8201 200.526C80.6041 200.406 80.3481 200.346 80.0521 200.346H78.3241V203.106ZM88.8774 207.99C88.2214 207.99 87.6094 207.874 87.0414 207.642C86.4734 207.41 85.9774 207.086 85.5534 206.67C85.1294 206.254 84.7974 205.766 84.5574 205.206C84.3254 204.638 84.2094 204.026 84.2094 203.37C84.2094 202.706 84.3254 202.094 84.5574 201.534C84.7894 200.974 85.1174 200.486 85.5414 200.07C85.9654 199.654 86.4614 199.334 87.0294 199.11C87.5974 198.878 88.2134 198.762 88.8774 198.762C89.5414 198.762 90.1574 198.878 90.7254 199.11C91.2934 199.342 91.7894 199.666 92.2134 200.082C92.6374 200.49 92.9654 200.974 93.1974 201.534C93.4374 202.094 93.5574 202.706 93.5574 203.37C93.5574 204.026 93.4374 204.638 93.1974 205.206C92.9574 205.766 92.6254 206.254 92.2014 206.67C91.7774 207.086 91.2814 207.41 90.7134 207.642C90.1534 207.874 89.5414 207.99 88.8774 207.99ZM88.8774 206.502C89.3174 206.502 89.7214 206.426 90.0894 206.274C90.4574 206.114 90.7774 205.894 91.0494 205.614C91.3294 205.334 91.5414 205.002 91.6854 204.618C91.8374 204.234 91.9134 203.818 91.9134 203.37C91.9134 202.922 91.8374 202.51 91.6854 202.134C91.5414 201.75 91.3294 201.418 91.0494 201.138C90.7774 200.85 90.4574 200.63 90.0894 200.478C89.7214 200.326 89.3174 200.25 88.8774 200.25C88.4454 200.25 88.0454 200.326 87.6774 200.478C87.3094 200.63 86.9854 200.85 86.7054 201.138C86.4334 201.418 86.2214 201.75 86.0694 202.134C85.9174 202.51 85.8414 202.922 85.8414 203.37C85.8414 203.818 85.9174 204.234 86.0694 204.618C86.2214 205.002 86.4334 205.334 86.7054 205.614C86.9854 205.894 87.3094 206.114 87.6774 206.274C88.0454 206.426 88.4454 206.502 88.8774 206.502ZM95.0085 207.846V198.906H98.3325C98.9405 198.906 99.4765 199.018 99.9405 199.242C100.413 199.458 100.781 199.778 101.045 200.202C101.309 200.618 101.441 201.126 101.441 201.726C101.441 202.342 101.293 202.866 100.997 203.298C100.709 203.73 100.317 204.05 99.8205 204.258L101.873 207.846H100.025L97.8285 203.922L98.8845 204.546H96.6405V207.846H95.0085ZM96.6405 203.106H98.3565C98.6525 203.106 98.9085 203.05 99.1245 202.938C99.3405 202.818 99.5085 202.654 99.6285 202.446C99.7485 202.238 99.8085 201.998 99.8085 201.726C99.8085 201.446 99.7485 201.206 99.6285 201.006C99.5085 200.798 99.3405 200.638 99.1245 200.526C98.9085 200.406 98.6525 200.346 98.3565 200.346H96.6405V203.106ZM104.292 207.846V200.346H101.976V198.906H108.216V200.346H105.936V207.846H104.292ZM107.882 207.846L110.966 198.906H113.078L116.162 207.846H114.386L113.75 205.926H110.294L109.646 207.846H107.882ZM110.762 204.486H113.282L111.794 200.034H112.25L110.762 204.486ZM117.157 207.846V198.906H118.789V206.406H122.617V207.846H117.157Z" fill="#0C2459"/>
<path d="M32.864 241.846V232.906H38.804V234.346H34.496V236.638H38.564V238.078H34.496V240.406H38.804V241.846H32.864ZM40.0007 241.846V232.906H41.5607L44.9087 237.454H44.1647L47.4407 232.906H49.0007V241.846H47.3567V234.766L47.9927 234.922L44.5967 239.446H44.4047L41.0927 234.922L41.6327 234.766V241.846H40.0007ZM49.9797 241.846L53.0637 232.906H55.1757L58.2597 241.846H56.4837L55.8477 239.926H52.3917L51.7437 241.846H49.9797ZM52.8597 238.486H55.3797L53.8917 234.034H54.3477L52.8597 238.486ZM59.2546 241.846V232.906H60.8866V241.846H59.2546ZM62.6062 241.846V232.906H64.2382V240.406H68.0662V241.846H62.6062ZM71.2546 241.846V232.906H74.5786C75.1866 232.906 75.7226 233.018 76.1866 233.242C76.6586 233.458 77.0266 233.778 77.2906 234.202C77.5546 234.618 77.6866 235.126 77.6866 235.726C77.6866 236.342 77.5386 236.866 77.2426 237.298C76.9546 237.73 76.5626 238.05 76.0666 238.258L78.1186 241.846H76.2706L74.0746 237.922L75.1306 238.546H72.8866V241.846H71.2546ZM72.8866 237.106H74.6026C74.8986 237.106 75.1546 237.05 75.3706 236.938C75.5866 236.818 75.7546 236.654 75.8746 236.446C75.9946 236.238 76.0546 235.998 76.0546 235.726C76.0546 235.446 75.9946 235.206 75.8746 235.006C75.7546 234.798 75.5866 234.638 75.3706 234.526C75.1546 234.406 74.8986 234.346 74.6026 234.346H72.8866V237.106ZM79.1882 241.846V232.906H85.1282V234.346H80.8202V236.638H84.8882V238.078H80.8202V240.406H85.1282V241.846H79.1882ZM86.3249 241.846V232.906H89.6609C90.2689 232.906 90.8049 233.018 91.2689 233.242C91.7409 233.458 92.1089 233.778 92.3729 234.202C92.6369 234.618 92.7689 235.126 92.7689 235.726C92.7689 236.318 92.6329 236.826 92.3609 237.25C92.0969 237.666 91.7329 237.986 91.2689 238.21C90.8049 238.434 90.2689 238.546 89.6609 238.546H87.9569V241.846H86.3249ZM87.9569 237.106H89.6849C89.9809 237.106 90.2369 237.05 90.4529 236.938C90.6689 236.818 90.8369 236.654 90.9569 236.446C91.0769 236.238 91.1369 235.998 91.1369 235.726C91.1369 235.446 91.0769 235.206 90.9569 235.006C90.8369 234.798 90.6689 234.638 90.4529 234.526C90.2369 234.406 89.9809 234.346 89.6849 234.346H87.9569V237.106ZM98.5102 241.99C97.8542 241.99 97.2422 241.874 96.6742 241.642C96.1062 241.41 95.6102 241.086 95.1862 240.67C94.7622 240.254 94.4302 239.766 94.1902 239.206C93.9582 238.638 93.8422 238.026 93.8422 237.37C93.8422 236.706 93.9582 236.094 94.1902 235.534C94.4222 234.974 94.7502 234.486 95.1742 234.07C95.5982 233.654 96.0942 233.334 96.6622 233.11C97.2302 232.878 97.8462 232.762 98.5102 232.762C99.1742 232.762 99.7902 232.878 100.358 233.11C100.926 233.342 101.422 233.666 101.846 234.082C102.27 234.49 102.598 234.974 102.83 235.534C103.07 236.094 103.19 236.706 103.19 237.37C103.19 238.026 103.07 238.638 102.83 239.206C102.59 239.766 102.258 240.254 101.834 240.67C101.41 241.086 100.914 241.41 100.346 241.642C99.7862 241.874 99.1742 241.99 98.5102 241.99ZM98.5102 240.502C98.9502 240.502 99.3542 240.426 99.7222 240.274C100.09 240.114 100.41 239.894 100.682 239.614C100.962 239.334 101.174 239.002 101.318 238.618C101.47 238.234 101.546 237.818 101.546 237.37C101.546 236.922 101.47 236.51 101.318 236.134C101.174 235.75 100.962 235.418 100.682 235.138C100.41 234.85 100.09 234.63 99.7222 234.478C99.3542 234.326 98.9502 234.25 98.5102 234.25C98.0782 234.25 97.6782 234.326 97.3102 234.478C96.9422 234.63 96.6182 234.85 96.3382 235.138C96.0662 235.418 95.8542 235.75 95.7022 236.134C95.5502 236.51 95.4742 236.922 95.4742 237.37C95.4742 237.818 95.5502 238.234 95.7022 238.618C95.8542 239.002 96.0662 239.334 96.3382 239.614C96.6182 239.894 96.9422 240.114 97.3102 240.274C97.6782 240.426 98.0782 240.502 98.5102 240.502ZM104.641 241.846V232.906H107.965C108.573 232.906 109.109 233.018 109.573 233.242C110.045 233.458 110.413 233.778 110.677 234.202C110.941 234.618 111.073 235.126 111.073 235.726C111.073 236.342 110.925 236.866 110.629 237.298C110.341 237.73 109.949 238.05 109.453 238.258L111.505 241.846H109.657L107.461 237.922L108.517 238.546H106.273V241.846H104.641ZM106.273 237.106H107.989C108.285 237.106 108.541 237.05 108.757 236.938C108.973 236.818 109.141 236.654 109.261 236.446C109.381 236.238 109.441 235.998 109.441 235.726C109.441 235.446 109.381 235.206 109.261 235.006C109.141 234.798 108.973 234.638 108.757 234.526C108.541 234.406 108.285 234.346 107.989 234.346H106.273V237.106ZM113.925 241.846V234.346H111.609V232.906H117.849V234.346H115.569V241.846H113.925ZM122.036 241.99C121.468 241.99 120.94 241.886 120.452 241.678C119.972 241.47 119.556 241.182 119.204 240.814C118.86 240.438 118.608 240.002 118.448 239.506L119.804 238.918C120.02 239.43 120.332 239.834 120.74 240.13C121.148 240.418 121.608 240.562 122.12 240.562C122.408 240.562 122.656 240.518 122.864 240.43C123.08 240.334 123.244 240.206 123.356 240.046C123.476 239.886 123.536 239.694 123.536 239.47C123.536 239.206 123.456 238.99 123.296 238.822C123.144 238.646 122.912 238.51 122.6 238.414L120.884 237.862C120.188 237.646 119.664 237.322 119.312 236.89C118.96 236.458 118.784 235.95 118.784 235.366C118.784 234.854 118.908 234.402 119.156 234.01C119.412 233.618 119.764 233.314 120.212 233.098C120.668 232.874 121.188 232.762 121.772 232.762C122.308 232.762 122.8 232.858 123.248 233.05C123.696 233.234 124.08 233.494 124.4 233.83C124.728 234.158 124.972 234.546 125.132 234.994L123.788 235.594C123.612 235.146 123.348 234.802 122.996 234.562C122.644 234.314 122.236 234.19 121.772 234.19C121.5 234.19 121.26 234.238 121.052 234.334C120.844 234.422 120.68 234.55 120.56 234.718C120.448 234.878 120.392 235.07 120.392 235.294C120.392 235.542 120.472 235.762 120.632 235.954C120.792 236.138 121.036 236.282 121.364 236.386L123.008 236.902C123.72 237.134 124.252 237.454 124.604 237.862C124.964 238.27 125.144 238.774 125.144 239.374C125.144 239.886 125.012 240.338 124.748 240.73C124.484 241.122 124.12 241.43 123.656 241.654C123.192 241.878 122.652 241.99 122.036 241.99Z" fill="#0C2459"/>
<path d="M157.476 114.678V112.998H159.06V114.678H157.476ZM157.476 109.83V108.15H159.06V109.83H157.476Z" fill="#0C2459"/>
<path d="M157.476 164.123V162.443H159.06V164.123H157.476ZM157.476 159.275V157.595H159.06V159.275H157.476Z" fill="#0C2459"/>
<path d="M157.476 213.568V211.888H159.06V213.568H157.476ZM157.476 208.72V207.04H159.06V208.72H157.476Z" fill="#0C2459"/>
<path d="M157.476 243.014V241.334H159.06V243.014H157.476ZM157.476 238.166V236.486H159.06V238.166H157.476Z" fill="#0C2459"/>
<path d="M217.996 114.678V105.738H219.172V110.766L218.884 110.646L223.156 105.738H224.632L221.044 109.878L221.104 109.038L224.812 114.678H223.408L220.576 110.43L219.172 112.038V114.678H217.996ZM227.588 114.822C227.164 114.822 226.788 114.746 226.46 114.594C226.14 114.434 225.888 114.218 225.704 113.946C225.52 113.666 225.428 113.346 225.428 112.986C225.428 112.642 225.5 112.334 225.644 112.062C225.796 111.782 226.028 111.546 226.34 111.354C226.66 111.162 227.06 111.026 227.54 110.946L229.94 110.55V111.486L227.792 111.846C227.376 111.918 227.072 112.05 226.88 112.242C226.696 112.434 226.604 112.67 226.604 112.95C226.604 113.214 226.708 113.434 226.916 113.61C227.132 113.786 227.4 113.874 227.72 113.874C228.128 113.874 228.48 113.79 228.776 113.622C229.08 113.446 229.316 113.21 229.484 112.914C229.66 112.618 229.748 112.29 229.748 111.93V110.286C229.748 109.934 229.616 109.65 229.352 109.434C229.096 109.21 228.756 109.098 228.332 109.098C227.964 109.098 227.636 109.194 227.348 109.386C227.068 109.57 226.86 109.818 226.724 110.13L225.752 109.626C225.872 109.33 226.064 109.066 226.328 108.834C226.592 108.594 226.9 108.406 227.252 108.27C227.604 108.134 227.972 108.066 228.356 108.066C228.852 108.066 229.288 108.162 229.664 108.354C230.04 108.538 230.332 108.798 230.54 109.134C230.756 109.462 230.864 109.846 230.864 110.286V114.678H229.772V113.454L229.976 113.526C229.84 113.782 229.656 114.006 229.424 114.198C229.192 114.39 228.92 114.542 228.608 114.654C228.296 114.766 227.956 114.822 227.588 114.822ZM235.105 114.75C234.473 114.75 233.985 114.57 233.641 114.21C233.305 113.85 233.137 113.342 233.137 112.686V109.278H231.961V108.21H232.201C232.489 108.21 232.717 108.122 232.885 107.946C233.053 107.77 233.137 107.538 233.137 107.25V106.722H234.253V108.21H235.705V109.278H234.253V112.65C234.253 112.866 234.285 113.054 234.349 113.214C234.421 113.374 234.537 113.502 234.697 113.598C234.857 113.686 235.069 113.73 235.333 113.73C235.389 113.73 235.457 113.726 235.537 113.718C235.625 113.71 235.705 113.702 235.777 113.694V114.678C235.673 114.702 235.557 114.718 235.429 114.726C235.301 114.742 235.193 114.75 235.105 114.75ZM237.235 114.678V105.594H238.351V109.47L238.147 109.362C238.307 108.954 238.563 108.638 238.915 108.414C239.275 108.182 239.695 108.066 240.175 108.066C240.639 108.066 241.051 108.17 241.411 108.378C241.779 108.586 242.067 108.874 242.275 109.242C242.491 109.61 242.599 110.026 242.599 110.49V114.678H241.471V110.85C241.471 110.49 241.403 110.186 241.267 109.938C241.139 109.69 240.959 109.498 240.727 109.362C240.495 109.218 240.227 109.146 239.923 109.146C239.627 109.146 239.359 109.218 239.119 109.362C238.879 109.498 238.691 109.694 238.555 109.95C238.419 110.198 238.351 110.498 238.351 110.85V114.678H237.235ZM244.196 114.678V108.21H245.288V109.398L245.168 109.23C245.32 108.862 245.552 108.59 245.864 108.414C246.176 108.23 246.556 108.138 247.004 108.138H247.4V109.194H246.836C246.38 109.194 246.012 109.338 245.732 109.626C245.452 109.906 245.312 110.306 245.312 110.826V114.678H244.196ZM248.739 117.318C248.595 117.318 248.451 117.306 248.307 117.282C248.163 117.258 248.027 117.218 247.899 117.162V116.166C247.987 116.182 248.095 116.198 248.223 116.214C248.359 116.238 248.491 116.25 248.619 116.25C248.995 116.25 249.279 116.166 249.471 115.998C249.671 115.838 249.859 115.558 250.035 115.158L250.443 114.186L250.419 115.158L247.659 108.21H248.871L251.019 113.73H250.659L252.795 108.21H254.031L251.115 115.446C250.979 115.79 250.803 116.102 250.587 116.382C250.379 116.67 250.123 116.898 249.819 117.066C249.515 117.234 249.155 117.318 248.739 117.318ZM255.024 114.678V108.21H256.116V109.47L255.936 109.362C256.096 108.954 256.352 108.638 256.704 108.414C257.064 108.182 257.484 108.066 257.964 108.066C258.428 108.066 258.84 108.17 259.2 108.378C259.568 108.586 259.856 108.874 260.064 109.242C260.28 109.61 260.388 110.026 260.388 110.49V114.678H259.26V110.85C259.26 110.49 259.196 110.186 259.068 109.938C258.94 109.69 258.756 109.498 258.516 109.362C258.284 109.218 258.016 109.146 257.712 109.146C257.408 109.146 257.136 109.218 256.896 109.362C256.664 109.498 256.48 109.694 256.344 109.95C256.208 110.198 256.14 110.498 256.14 110.85V114.678H255.024ZM264.191 114.678V105.738H265.271L268.619 110.502H268.067L271.391 105.738H272.471V114.678H271.283V107.226L271.703 107.358L268.379 112.038H268.283L264.995 107.358L265.367 107.226V114.678H264.191ZM276.617 114.822C276.153 114.822 275.733 114.714 275.357 114.498C274.989 114.282 274.701 113.982 274.493 113.598C274.293 113.206 274.193 112.758 274.193 112.254V108.21H275.309V112.134C275.309 112.454 275.373 112.734 275.501 112.974C275.637 113.214 275.821 113.402 276.053 113.538C276.293 113.674 276.565 113.742 276.869 113.742C277.173 113.742 277.441 113.674 277.673 113.538C277.913 113.402 278.097 113.206 278.225 112.95C278.361 112.694 278.429 112.39 278.429 112.038V108.21H279.557V114.678H278.465V113.418L278.645 113.526C278.493 113.934 278.233 114.254 277.865 114.486C277.505 114.71 277.089 114.822 276.617 114.822ZM281.286 114.678V108.21H282.378V109.398L282.258 109.23C282.41 108.862 282.642 108.59 282.954 108.414C283.266 108.23 283.646 108.138 284.094 108.138H284.49V109.194H283.926C283.47 109.194 283.102 109.338 282.822 109.626C282.542 109.906 282.402 110.306 282.402 110.826V114.678H281.286ZM285.481 117.078V108.21H286.573V109.602L286.429 109.326C286.669 108.942 286.997 108.638 287.413 108.414C287.829 108.182 288.305 108.066 288.841 108.066C289.449 108.066 289.993 108.214 290.473 108.51C290.961 108.806 291.345 109.21 291.625 109.722C291.905 110.226 292.045 110.802 292.045 111.45C292.045 112.082 291.905 112.654 291.625 113.166C291.345 113.678 290.961 114.082 290.473 114.378C289.993 114.674 289.445 114.822 288.829 114.822C288.309 114.822 287.833 114.706 287.401 114.474C286.977 114.242 286.649 113.914 286.417 113.49L286.597 113.298V117.078H285.481ZM288.745 113.742C289.153 113.742 289.517 113.642 289.837 113.442C290.157 113.242 290.405 112.97 290.581 112.626C290.765 112.274 290.857 111.882 290.857 111.45C290.857 111.002 290.765 110.61 290.581 110.274C290.405 109.93 290.157 109.658 289.837 109.458C289.517 109.25 289.153 109.146 288.745 109.146C288.337 109.146 287.969 109.246 287.641 109.446C287.321 109.646 287.065 109.922 286.873 110.274C286.689 110.618 286.597 111.01 286.597 111.45C286.597 111.882 286.689 112.274 286.873 112.626C287.065 112.97 287.321 113.242 287.641 113.442C287.969 113.642 288.337 113.742 288.745 113.742ZM293.509 114.678V105.594H294.625V109.47L294.421 109.362C294.581 108.954 294.837 108.638 295.189 108.414C295.549 108.182 295.969 108.066 296.449 108.066C296.913 108.066 297.325 108.17 297.685 108.378C298.053 108.586 298.341 108.874 298.549 109.242C298.765 109.61 298.873 110.026 298.873 110.49V114.678H297.745V110.85C297.745 110.49 297.677 110.186 297.541 109.938C297.413 109.69 297.233 109.498 297.001 109.362C296.769 109.218 296.501 109.146 296.197 109.146C295.901 109.146 295.633 109.218 295.393 109.362C295.153 109.498 294.965 109.694 294.829 109.95C294.693 110.198 294.625 110.498 294.625 110.85V114.678H293.509ZM300.7 117.318C300.556 117.318 300.412 117.306 300.268 117.282C300.124 117.258 299.988 117.218 299.86 117.162V116.166C299.948 116.182 300.056 116.198 300.184 116.214C300.32 116.238 300.452 116.25 300.58 116.25C300.956 116.25 301.24 116.166 301.432 115.998C301.632 115.838 301.82 115.558 301.996 115.158L302.404 114.186L302.38 115.158L299.62 108.21H300.832L302.98 113.73H302.62L304.756 108.21H305.992L303.076 115.446C302.94 115.79 302.764 116.102 302.548 116.382C302.34 116.67 302.084 116.898 301.78 117.066C301.476 117.234 301.116 117.318 300.7 117.318Z" fill="#0C2459"/>
<path d="M221.068 164.267C220.5 164.267 219.98 164.163 219.508 163.955C219.036 163.739 218.636 163.447 218.308 163.079C217.98 162.711 217.744 162.299 217.6 161.843L218.62 161.423C218.836 161.999 219.156 162.443 219.58 162.755C220.012 163.059 220.516 163.211 221.092 163.211C221.444 163.211 221.752 163.155 222.016 163.043C222.28 162.931 222.484 162.775 222.628 162.575C222.78 162.367 222.856 162.127 222.856 161.855C222.856 161.479 222.748 161.183 222.532 160.967C222.324 160.743 222.016 160.575 221.608 160.463L219.964 159.959C219.316 159.759 218.82 159.443 218.476 159.011C218.132 158.579 217.96 158.083 217.96 157.523C217.96 157.035 218.076 156.607 218.308 156.239C218.548 155.863 218.876 155.571 219.292 155.363C219.716 155.147 220.196 155.039 220.732 155.039C221.268 155.039 221.752 155.135 222.184 155.327C222.624 155.519 222.996 155.779 223.3 156.107C223.604 156.427 223.828 156.795 223.972 157.211L222.964 157.631C222.772 157.127 222.484 156.747 222.1 156.491C221.716 156.227 221.264 156.095 220.744 156.095C220.424 156.095 220.14 156.151 219.892 156.263C219.652 156.367 219.464 156.523 219.328 156.731C219.2 156.931 219.136 157.171 219.136 157.451C219.136 157.779 219.24 158.071 219.448 158.327C219.656 158.583 219.972 158.779 220.396 158.915L221.896 159.359C222.6 159.575 223.132 159.883 223.492 160.283C223.852 160.683 224.032 161.179 224.032 161.771C224.032 162.259 223.904 162.691 223.648 163.067C223.4 163.443 223.052 163.739 222.604 163.955C222.164 164.163 221.652 164.267 221.068 164.267ZM227.914 164.267C227.45 164.267 227.03 164.159 226.654 163.943C226.286 163.727 225.998 163.427 225.79 163.043C225.59 162.651 225.49 162.203 225.49 161.699V157.655H226.606V161.579C226.606 161.899 226.67 162.179 226.798 162.419C226.934 162.659 227.118 162.847 227.35 162.983C227.59 163.119 227.862 163.187 228.166 163.187C228.47 163.187 228.738 163.119 228.97 162.983C229.21 162.847 229.394 162.651 229.522 162.395C229.658 162.139 229.726 161.835 229.726 161.483V157.655H230.854V164.123H229.762V162.863L229.942 162.971C229.79 163.379 229.53 163.699 229.162 163.931C228.802 164.155 228.386 164.267 227.914 164.267ZM232.583 166.523V157.655H233.675V159.047L233.531 158.771C233.771 158.387 234.099 158.083 234.515 157.859C234.931 157.627 235.407 157.511 235.943 157.511C236.551 157.511 237.095 157.659 237.575 157.955C238.063 158.251 238.447 158.655 238.727 159.167C239.007 159.671 239.147 160.247 239.147 160.895C239.147 161.527 239.007 162.099 238.727 162.611C238.447 163.123 238.063 163.527 237.575 163.823C237.095 164.119 236.547 164.267 235.931 164.267C235.411 164.267 234.935 164.151 234.503 163.919C234.079 163.687 233.751 163.359 233.519 162.935L233.699 162.743V166.523H232.583ZM235.847 163.187C236.255 163.187 236.619 163.087 236.939 162.887C237.259 162.687 237.507 162.415 237.683 162.071C237.867 161.719 237.959 161.327 237.959 160.895C237.959 160.447 237.867 160.055 237.683 159.719C237.507 159.375 237.259 159.103 236.939 158.903C236.619 158.695 236.255 158.591 235.847 158.591C235.439 158.591 235.071 158.691 234.743 158.891C234.423 159.091 234.167 159.367 233.975 159.719C233.791 160.063 233.699 160.455 233.699 160.895C233.699 161.327 233.791 161.719 233.975 162.071C234.167 162.415 234.423 162.687 234.743 162.887C235.071 163.087 235.439 163.187 235.847 163.187ZM243.586 164.267C242.962 164.267 242.406 164.119 241.918 163.823C241.43 163.527 241.046 163.123 240.766 162.611C240.486 162.091 240.346 161.511 240.346 160.871C240.346 160.223 240.482 159.647 240.754 159.143C241.034 158.639 241.41 158.243 241.882 157.955C242.362 157.659 242.898 157.511 243.49 157.511C243.97 157.511 244.394 157.599 244.762 157.775C245.138 157.943 245.454 158.175 245.71 158.471C245.974 158.759 246.174 159.091 246.31 159.467C246.454 159.835 246.526 160.219 246.526 160.619C246.526 160.707 246.518 160.807 246.502 160.919C246.494 161.023 246.482 161.123 246.466 161.219H241.162V160.259H245.818L245.29 160.691C245.362 160.275 245.322 159.903 245.17 159.575C245.018 159.247 244.794 158.987 244.498 158.795C244.202 158.603 243.866 158.507 243.49 158.507C243.114 158.507 242.77 158.603 242.458 158.795C242.146 158.987 241.902 159.263 241.726 159.623C241.558 159.975 241.49 160.395 241.522 160.883C241.49 161.355 241.562 161.771 241.738 162.131C241.922 162.483 242.178 162.759 242.506 162.959C242.842 163.151 243.206 163.247 243.598 163.247C244.03 163.247 244.394 163.147 244.69 162.947C244.986 162.747 245.226 162.491 245.41 162.179L246.346 162.659C246.218 162.955 246.018 163.227 245.746 163.475C245.482 163.715 245.166 163.907 244.798 164.051C244.438 164.195 244.034 164.267 243.586 164.267ZM247.981 164.123V157.655H249.073V158.843L248.953 158.675C249.105 158.307 249.337 158.035 249.649 157.859C249.961 157.675 250.341 157.583 250.789 157.583H251.185V158.639H250.621C250.165 158.639 249.797 158.783 249.517 159.071C249.237 159.351 249.097 159.751 249.097 160.271V164.123H247.981ZM255.593 164.123L258.797 155.183H260.189L263.393 164.123H262.133L261.401 162.023H257.585L256.853 164.123H255.593ZM257.957 160.943H261.029L259.325 156.035H259.661L257.957 160.943ZM267.093 164.267C266.485 164.267 265.937 164.119 265.449 163.823C264.969 163.527 264.589 163.123 264.309 162.611C264.029 162.099 263.889 161.527 263.889 160.895C263.889 160.247 264.029 159.671 264.309 159.167C264.589 158.655 264.969 158.251 265.449 157.955C265.937 157.659 266.485 157.511 267.093 157.511C267.629 157.511 268.105 157.627 268.521 157.859C268.937 158.083 269.265 158.387 269.505 158.771L269.325 159.047V155.039H270.453V164.123H269.361V162.743L269.505 162.935C269.281 163.359 268.953 163.687 268.521 163.919C268.097 164.151 267.621 164.267 267.093 164.267ZM267.189 163.187C267.597 163.187 267.961 163.087 268.281 162.887C268.601 162.687 268.853 162.415 269.037 162.071C269.229 161.719 269.325 161.327 269.325 160.895C269.325 160.455 269.229 160.063 269.037 159.719C268.853 159.367 268.601 159.091 268.281 158.891C267.961 158.691 267.597 158.591 267.189 158.591C266.789 158.591 266.425 158.695 266.097 158.903C265.777 159.103 265.525 159.375 265.341 159.719C265.157 160.055 265.065 160.447 265.065 160.895C265.065 161.327 265.157 161.719 265.341 162.071C265.525 162.415 265.777 162.687 266.097 162.887C266.417 163.087 266.781 163.187 267.189 163.187ZM272.18 164.123V157.655H273.272V158.975L273.116 158.771C273.276 158.363 273.532 158.051 273.884 157.835C274.236 157.619 274.632 157.511 275.072 157.511C275.576 157.511 276.028 157.651 276.428 157.931C276.836 158.211 277.116 158.579 277.268 159.035L276.956 159.047C277.124 158.543 277.408 158.163 277.808 157.907C278.208 157.643 278.652 157.511 279.14 157.511C279.588 157.511 279.992 157.615 280.352 157.823C280.72 158.031 281.012 158.319 281.228 158.687C281.444 159.055 281.552 159.471 281.552 159.935V164.123H280.424V160.295C280.424 159.935 280.36 159.631 280.232 159.383C280.104 159.135 279.928 158.943 279.704 158.807C279.488 158.663 279.232 158.591 278.936 158.591C278.648 158.591 278.388 158.663 278.156 158.807C277.932 158.943 277.752 159.139 277.616 159.395C277.488 159.643 277.424 159.943 277.424 160.295V164.123H276.296V160.295C276.296 159.935 276.232 159.631 276.104 159.383C275.976 159.135 275.8 158.943 275.576 158.807C275.36 158.663 275.104 158.591 274.808 158.591C274.52 158.591 274.26 158.663 274.028 158.807C273.804 158.943 273.624 159.139 273.488 159.395C273.36 159.643 273.296 159.943 273.296 160.295V164.123H272.18ZM283.137 164.123V157.655H284.253V164.123H283.137ZM283.137 156.623V155.183H284.253V156.623H283.137ZM285.985 164.123V157.655H287.077V158.915L286.897 158.807C287.057 158.399 287.313 158.083 287.665 157.859C288.025 157.627 288.445 157.511 288.925 157.511C289.389 157.511 289.801 157.615 290.161 157.823C290.529 158.031 290.817 158.319 291.025 158.687C291.241 159.055 291.349 159.471 291.349 159.935V164.123H290.221V160.295C290.221 159.935 290.157 159.631 290.029 159.383C289.901 159.135 289.717 158.943 289.477 158.807C289.245 158.663 288.977 158.591 288.673 158.591C288.369 158.591 288.097 158.663 287.857 158.807C287.625 158.943 287.441 159.139 287.305 159.395C287.169 159.643 287.101 159.943 287.101 160.295V164.123H285.985Z" fill="#0C2459"/>
<path d="M217.6 213.568V212.428H218.092C218.516 212.428 218.852 212.304 219.1 212.056C219.348 211.8 219.472 211.456 219.472 211.024V204.628H220.66V211C220.66 211.52 220.552 211.972 220.336 212.356C220.128 212.74 219.832 213.04 219.448 213.256C219.064 213.464 218.612 213.568 218.092 213.568H217.6ZM225.565 213.712C224.941 213.712 224.377 213.568 223.873 213.28C223.369 212.984 222.969 212.58 222.673 212.068C222.377 211.556 222.229 210.976 222.229 210.328C222.229 209.68 222.373 209.104 222.661 208.6C222.957 208.096 223.357 207.696 223.861 207.4C224.365 207.104 224.933 206.956 225.565 206.956C226.189 206.956 226.753 207.104 227.257 207.4C227.761 207.688 228.157 208.084 228.445 208.588C228.741 209.092 228.889 209.672 228.889 210.328C228.889 210.984 228.737 211.568 228.433 212.08C228.129 212.584 227.725 212.984 227.221 213.28C226.725 213.568 226.173 213.712 225.565 213.712ZM225.565 212.632C225.965 212.632 226.325 212.532 226.645 212.332C226.973 212.132 227.229 211.856 227.413 211.504C227.605 211.152 227.701 210.76 227.701 210.328C227.701 209.888 227.605 209.5 227.413 209.164C227.229 208.82 226.973 208.548 226.645 208.348C226.325 208.14 225.965 208.036 225.565 208.036C225.157 208.036 224.789 208.14 224.461 208.348C224.141 208.548 223.885 208.82 223.693 209.164C223.501 209.5 223.405 209.888 223.405 210.328C223.405 210.76 223.501 211.152 223.693 211.504C223.885 211.856 224.141 212.132 224.461 212.332C224.789 212.532 225.157 212.632 225.565 212.632ZM230.344 213.568V204.484H231.46V208.36L231.256 208.252C231.416 207.844 231.672 207.528 232.024 207.304C232.384 207.072 232.804 206.956 233.284 206.956C233.748 206.956 234.16 207.06 234.52 207.268C234.888 207.476 235.176 207.764 235.384 208.132C235.6 208.5 235.708 208.916 235.708 209.38V213.568H234.58V209.74C234.58 209.38 234.512 209.076 234.376 208.828C234.248 208.58 234.068 208.388 233.836 208.252C233.604 208.108 233.336 208.036 233.032 208.036C232.736 208.036 232.468 208.108 232.228 208.252C231.988 208.388 231.8 208.584 231.664 208.84C231.528 209.088 231.46 209.388 231.46 209.74V213.568H230.344ZM237.305 213.568V207.1H238.397V208.36L238.217 208.252C238.377 207.844 238.633 207.528 238.985 207.304C239.345 207.072 239.765 206.956 240.245 206.956C240.709 206.956 241.121 207.06 241.481 207.268C241.849 207.476 242.137 207.764 242.345 208.132C242.561 208.5 242.669 208.916 242.669 209.38V213.568H241.541V209.74C241.541 209.38 241.477 209.076 241.349 208.828C241.221 208.58 241.037 208.388 240.797 208.252C240.565 208.108 240.297 208.036 239.993 208.036C239.689 208.036 239.417 208.108 239.177 208.252C238.945 208.388 238.761 208.584 238.625 208.84C238.489 209.088 238.421 209.388 238.421 209.74V213.568H237.305ZM246.473 213.568V204.628H247.457L252.593 211.852L252.149 211.9V204.628H253.337V213.568H252.353L247.241 206.296L247.649 206.248V213.568H246.473ZM255.656 213.568V212.128H256.82V213.568H255.656ZM261.215 213.568V204.628H262.391V208.612H266.867V204.628H268.055V213.568H266.867V209.692H262.391V213.568H261.215ZM271.803 213.712C271.379 213.712 271.003 213.636 270.675 213.484C270.355 213.324 270.103 213.108 269.919 212.836C269.735 212.556 269.643 212.236 269.643 211.876C269.643 211.532 269.715 211.224 269.859 210.952C270.011 210.672 270.243 210.436 270.555 210.244C270.875 210.052 271.275 209.916 271.755 209.836L274.155 209.44V210.376L272.007 210.736C271.591 210.808 271.287 210.94 271.095 211.132C270.911 211.324 270.819 211.56 270.819 211.84C270.819 212.104 270.923 212.324 271.131 212.5C271.347 212.676 271.615 212.764 271.935 212.764C272.343 212.764 272.695 212.68 272.991 212.512C273.295 212.336 273.531 212.1 273.699 211.804C273.875 211.508 273.963 211.18 273.963 210.82V209.176C273.963 208.824 273.831 208.54 273.567 208.324C273.311 208.1 272.971 207.988 272.547 207.988C272.179 207.988 271.851 208.084 271.563 208.276C271.283 208.46 271.075 208.708 270.939 209.02L269.967 208.516C270.087 208.22 270.279 207.956 270.543 207.724C270.807 207.484 271.115 207.296 271.467 207.16C271.819 207.024 272.187 206.956 272.571 206.956C273.067 206.956 273.503 207.052 273.879 207.244C274.255 207.428 274.547 207.688 274.755 208.024C274.971 208.352 275.079 208.736 275.079 209.176V213.568H273.987V212.344L274.191 212.416C274.055 212.672 273.871 212.896 273.639 213.088C273.407 213.28 273.135 213.432 272.823 213.544C272.511 213.656 272.171 213.712 271.803 213.712ZM276.809 213.568V207.1H277.901V208.288L277.781 208.12C277.933 207.752 278.165 207.48 278.477 207.304C278.789 207.12 279.169 207.028 279.617 207.028H280.013V208.084H279.449C278.993 208.084 278.625 208.228 278.345 208.516C278.065 208.796 277.925 209.196 277.925 209.716V213.568H276.809ZM281.005 213.568V207.1H282.097V208.288L281.977 208.12C282.129 207.752 282.361 207.48 282.673 207.304C282.985 207.12 283.365 207.028 283.813 207.028H284.209V208.084H283.645C283.189 208.084 282.821 208.228 282.541 208.516C282.261 208.796 282.121 209.196 282.121 209.716V213.568H281.005ZM285.2 213.568V207.1H286.316V213.568H285.2ZM285.2 206.068V204.628H286.316V206.068H285.2ZM290.364 213.712C289.716 213.712 289.152 213.552 288.672 213.232C288.192 212.912 287.852 212.48 287.652 211.936L288.54 211.504C288.724 211.888 288.976 212.192 289.296 212.416C289.616 212.64 289.972 212.752 290.364 212.752C290.716 212.752 291.008 212.668 291.24 212.5C291.472 212.332 291.588 212.112 291.588 211.84C291.588 211.648 291.532 211.496 291.42 211.384C291.316 211.264 291.188 211.172 291.036 211.108C290.884 211.036 290.744 210.984 290.616 210.952L289.644 210.676C289.06 210.508 288.632 210.268 288.36 209.956C288.096 209.644 287.964 209.28 287.964 208.864C287.964 208.48 288.06 208.148 288.252 207.868C288.452 207.58 288.72 207.356 289.056 207.196C289.4 207.036 289.784 206.956 290.208 206.956C290.776 206.956 291.284 207.1 291.732 207.388C292.188 207.676 292.512 208.08 292.704 208.6L291.792 209.02C291.648 208.684 291.432 208.42 291.144 208.228C290.856 208.028 290.532 207.928 290.172 207.928C289.844 207.928 289.584 208.012 289.392 208.18C289.2 208.34 289.104 208.544 289.104 208.792C289.104 208.976 289.152 209.128 289.248 209.248C289.344 209.36 289.46 209.448 289.596 209.512C289.732 209.568 289.864 209.616 289.992 209.656L291.048 209.968C291.576 210.12 291.984 210.356 292.272 210.676C292.568 210.996 292.716 211.38 292.716 211.828C292.716 212.188 292.616 212.512 292.416 212.8C292.216 213.088 291.94 213.312 291.588 213.472C291.236 213.632 290.828 213.712 290.364 213.712Z" fill="#0C2459"/>
<path d="M217.6 243.014V241.874H218.092C218.516 241.874 218.852 241.75 219.1 241.502C219.348 241.246 219.472 240.902 219.472 240.47V234.074H220.66V240.446C220.66 240.966 220.552 241.418 220.336 241.802C220.128 242.186 219.832 242.486 219.448 242.702C219.064 242.91 218.612 243.014 218.092 243.014H217.6ZM225.565 243.158C224.941 243.158 224.377 243.014 223.873 242.726C223.369 242.43 222.969 242.026 222.673 241.514C222.377 241.002 222.229 240.422 222.229 239.774C222.229 239.126 222.373 238.55 222.661 238.046C222.957 237.542 223.357 237.142 223.861 236.846C224.365 236.55 224.933 236.402 225.565 236.402C226.189 236.402 226.753 236.55 227.257 236.846C227.761 237.134 228.157 237.53 228.445 238.034C228.741 238.538 228.889 239.118 228.889 239.774C228.889 240.43 228.737 241.014 228.433 241.526C228.129 242.03 227.725 242.43 227.221 242.726C226.725 243.014 226.173 243.158 225.565 243.158ZM225.565 242.078C225.965 242.078 226.325 241.978 226.645 241.778C226.973 241.578 227.229 241.302 227.413 240.95C227.605 240.598 227.701 240.206 227.701 239.774C227.701 239.334 227.605 238.946 227.413 238.61C227.229 238.266 226.973 237.994 226.645 237.794C226.325 237.586 225.965 237.482 225.565 237.482C225.157 237.482 224.789 237.586 224.461 237.794C224.141 237.994 223.885 238.266 223.693 238.61C223.501 238.946 223.405 239.334 223.405 239.774C223.405 240.206 223.501 240.598 223.693 240.95C223.885 241.302 224.141 241.578 224.461 241.778C224.789 241.978 225.157 242.078 225.565 242.078ZM230.344 243.014V233.93H231.46V237.806L231.256 237.698C231.416 237.29 231.672 236.974 232.024 236.75C232.384 236.518 232.804 236.402 233.284 236.402C233.748 236.402 234.16 236.506 234.52 236.714C234.888 236.922 235.176 237.21 235.384 237.578C235.6 237.946 235.708 238.362 235.708 238.826V243.014H234.58V239.186C234.58 238.826 234.512 238.522 234.376 238.274C234.248 238.026 234.068 237.834 233.836 237.698C233.604 237.554 233.336 237.482 233.032 237.482C232.736 237.482 232.468 237.554 232.228 237.698C231.988 237.834 231.8 238.03 231.664 238.286C231.528 238.534 231.46 238.834 231.46 239.186V243.014H230.344ZM237.305 243.014V236.546H238.397V237.806L238.217 237.698C238.377 237.29 238.633 236.974 238.985 236.75C239.345 236.518 239.765 236.402 240.245 236.402C240.709 236.402 241.121 236.506 241.481 236.714C241.849 236.922 242.137 237.21 242.345 237.578C242.561 237.946 242.669 238.362 242.669 238.826V243.014H241.541V239.186C241.541 238.826 241.477 238.522 241.349 238.274C241.221 238.026 241.037 237.834 240.797 237.698C240.565 237.554 240.297 237.482 239.993 237.482C239.689 237.482 239.417 237.554 239.177 237.698C238.945 237.834 238.761 238.03 238.625 238.286C238.489 238.534 238.421 238.834 238.421 239.186V243.014H237.305ZM244.398 243.014V234.074H245.382L250.518 241.298L250.074 241.346V234.074H251.262V243.014H250.278L245.166 235.742L245.574 235.694V243.014H244.398ZM253.258 243.014V234.074H254.434V238.058H258.91V234.074H260.098V243.014H258.91V239.138H254.434V243.014H253.258ZM263.846 243.158C263.422 243.158 263.046 243.082 262.718 242.93C262.398 242.77 262.146 242.554 261.962 242.282C261.778 242.002 261.686 241.682 261.686 241.322C261.686 240.978 261.758 240.67 261.902 240.398C262.054 240.118 262.286 239.882 262.598 239.69C262.918 239.498 263.318 239.362 263.798 239.282L266.198 238.886V239.822L264.05 240.182C263.634 240.254 263.33 240.386 263.138 240.578C262.954 240.77 262.862 241.006 262.862 241.286C262.862 241.55 262.966 241.77 263.174 241.946C263.39 242.122 263.658 242.21 263.978 242.21C264.386 242.21 264.738 242.126 265.034 241.958C265.338 241.782 265.574 241.546 265.742 241.25C265.918 240.954 266.006 240.626 266.006 240.266V238.622C266.006 238.27 265.874 237.986 265.61 237.77C265.354 237.546 265.014 237.434 264.59 237.434C264.222 237.434 263.894 237.53 263.606 237.722C263.326 237.906 263.118 238.154 262.982 238.466L262.01 237.962C262.13 237.666 262.322 237.402 262.586 237.17C262.85 236.93 263.158 236.742 263.51 236.606C263.862 236.47 264.23 236.402 264.614 236.402C265.11 236.402 265.546 236.498 265.922 236.69C266.298 236.874 266.59 237.134 266.798 237.47C267.014 237.798 267.122 238.182 267.122 238.622V243.014H266.03V241.79L266.234 241.862C266.098 242.118 265.914 242.342 265.682 242.534C265.45 242.726 265.178 242.878 264.866 242.99C264.554 243.102 264.214 243.158 263.846 243.158ZM268.852 243.014V236.546H269.944V237.734L269.824 237.566C269.976 237.198 270.208 236.926 270.52 236.75C270.832 236.566 271.212 236.474 271.66 236.474H272.056V237.53H271.492C271.036 237.53 270.668 237.674 270.388 237.962C270.108 238.242 269.968 238.642 269.968 239.162V243.014H268.852ZM273.048 243.014V236.546H274.14V237.734L274.02 237.566C274.172 237.198 274.404 236.926 274.716 236.75C275.028 236.566 275.408 236.474 275.856 236.474H276.252V237.53H275.688C275.232 237.53 274.864 237.674 274.584 237.962C274.304 238.242 274.164 238.642 274.164 239.162V243.014H273.048ZM277.243 243.014V236.546H278.359V243.014H277.243ZM277.243 235.514V234.074H278.359V235.514H277.243ZM282.407 243.158C281.759 243.158 281.195 242.998 280.715 242.678C280.235 242.358 279.895 241.926 279.695 241.382L280.583 240.95C280.767 241.334 281.019 241.638 281.339 241.862C281.659 242.086 282.015 242.198 282.407 242.198C282.759 242.198 283.051 242.114 283.283 241.946C283.515 241.778 283.631 241.558 283.631 241.286C283.631 241.094 283.575 240.942 283.463 240.83C283.359 240.71 283.231 240.618 283.079 240.554C282.927 240.482 282.787 240.43 282.659 240.398L281.687 240.122C281.103 239.954 280.675 239.714 280.403 239.402C280.139 239.09 280.007 238.726 280.007 238.31C280.007 237.926 280.103 237.594 280.295 237.314C280.495 237.026 280.763 236.802 281.099 236.642C281.443 236.482 281.827 236.402 282.251 236.402C282.819 236.402 283.327 236.546 283.775 236.834C284.231 237.122 284.555 237.526 284.747 238.046L283.835 238.466C283.691 238.13 283.475 237.866 283.187 237.674C282.899 237.474 282.575 237.374 282.215 237.374C281.887 237.374 281.627 237.458 281.435 237.626C281.243 237.786 281.147 237.99 281.147 238.238C281.147 238.422 281.195 238.574 281.291 238.694C281.387 238.806 281.503 238.894 281.639 238.958C281.775 239.014 281.907 239.062 282.035 239.102L283.091 239.414C283.619 239.566 284.027 239.802 284.315 240.122C284.611 240.442 284.759 240.826 284.759 241.274C284.759 241.634 284.659 241.958 284.459 242.246C284.259 242.534 283.983 242.758 283.631 242.918C283.279 243.078 282.871 243.158 282.407 243.158ZM291.151 245.546C290.431 245.546 289.763 245.418 289.147 245.162C288.531 244.914 287.991 244.562 287.527 244.106C287.071 243.65 286.715 243.118 286.459 242.51C286.211 241.894 286.087 241.226 286.087 240.506C286.087 239.794 286.215 239.134 286.471 238.526C286.727 237.918 287.083 237.39 287.539 236.942C287.995 236.486 288.531 236.134 289.147 235.886C289.763 235.63 290.427 235.502 291.139 235.502C291.875 235.502 292.547 235.634 293.155 235.898C293.763 236.162 294.287 236.526 294.727 236.99C295.175 237.446 295.519 237.974 295.759 238.574C296.007 239.166 296.131 239.798 296.131 240.47C296.131 240.982 296.047 241.43 295.879 241.814C295.719 242.19 295.487 242.486 295.183 242.702C294.879 242.91 294.519 243.014 294.103 243.014C293.847 243.014 293.599 242.966 293.359 242.87C293.119 242.774 292.915 242.63 292.747 242.438C292.587 242.246 292.487 242.01 292.447 241.73L292.675 242.03C292.563 242.246 292.411 242.426 292.219 242.57C292.035 242.714 291.823 242.826 291.583 242.906C291.351 242.978 291.099 243.014 290.827 243.014C290.363 243.014 289.943 242.902 289.567 242.678C289.199 242.454 288.903 242.15 288.679 241.766C288.463 241.382 288.355 240.946 288.355 240.458C288.355 239.97 288.463 239.534 288.679 239.15C288.895 238.758 289.191 238.446 289.567 238.214C289.951 237.982 290.379 237.866 290.851 237.866C291.243 237.866 291.599 237.946 291.919 238.106C292.239 238.258 292.479 238.47 292.639 238.742L292.543 238.982V237.986H293.431V241.202C293.431 241.498 293.491 241.718 293.611 241.862C293.739 241.998 293.911 242.066 294.127 242.066C294.439 242.066 294.679 241.938 294.847 241.682C295.015 241.418 295.099 241.014 295.099 240.47C295.099 239.902 295.003 239.378 294.811 238.898C294.627 238.41 294.363 237.986 294.019 237.626C293.675 237.258 293.259 236.974 292.771 236.774C292.291 236.566 291.751 236.462 291.151 236.462C290.567 236.462 290.027 236.566 289.531 236.774C289.043 236.974 288.615 237.254 288.247 237.614C287.887 237.974 287.607 238.398 287.407 238.886C287.215 239.374 287.119 239.91 287.119 240.494C287.119 241.07 287.215 241.606 287.407 242.102C287.607 242.598 287.887 243.03 288.247 243.398C288.607 243.774 289.031 244.066 289.519 244.274C290.015 244.482 290.563 244.586 291.163 244.586C291.531 244.586 291.883 244.542 292.219 244.454C292.563 244.374 292.871 244.254 293.143 244.094L293.587 244.922C292.883 245.338 292.071 245.546 291.151 245.546ZM290.899 242.066C291.195 242.066 291.459 241.994 291.691 241.85C291.923 241.706 292.103 241.514 292.231 241.274C292.367 241.026 292.435 240.746 292.435 240.434C292.435 239.97 292.291 239.59 292.003 239.294C291.715 238.99 291.347 238.834 290.899 238.826C290.611 238.826 290.347 238.898 290.107 239.042C289.875 239.178 289.691 239.37 289.555 239.618C289.427 239.858 289.363 240.134 289.363 240.446C289.363 240.75 289.431 241.026 289.567 241.274C289.703 241.514 289.887 241.706 290.119 241.85C290.351 241.994 290.611 242.066 290.899 242.066ZM296.248 245.654C296.176 245.654 296.088 245.65 295.984 245.642C295.88 245.634 295.796 245.622 295.732 245.606V244.598C295.892 244.622 296.052 244.634 296.212 244.634C296.54 244.634 296.812 244.542 297.028 244.358C297.244 244.174 297.352 243.894 297.352 243.518V236.546H298.468V243.518C298.468 243.982 298.372 244.37 298.18 244.682C297.988 245.002 297.724 245.242 297.388 245.402C297.052 245.57 296.672 245.654 296.248 245.654ZM297.352 235.514V234.074H298.468V235.514H297.352ZM303.272 243.158C302.648 243.158 302.084 243.014 301.58 242.726C301.076 242.43 300.676 242.026 300.38 241.514C300.084 241.002 299.936 240.422 299.936 239.774C299.936 239.126 300.08 238.55 300.368 238.046C300.664 237.542 301.064 237.142 301.568 236.846C302.072 236.55 302.64 236.402 303.272 236.402C303.896 236.402 304.46 236.55 304.964 236.846C305.468 237.134 305.864 237.53 306.152 238.034C306.448 238.538 306.596 239.118 306.596 239.774C306.596 240.43 306.444 241.014 306.14 241.526C305.836 242.03 305.432 242.43 304.928 242.726C304.432 243.014 303.88 243.158 303.272 243.158ZM303.272 242.078C303.672 242.078 304.032 241.978 304.352 241.778C304.68 241.578 304.936 241.302 305.12 240.95C305.312 240.598 305.408 240.206 305.408 239.774C305.408 239.334 305.312 238.946 305.12 238.61C304.936 238.266 304.68 237.994 304.352 237.794C304.032 237.586 303.672 237.482 303.272 237.482C302.864 237.482 302.496 237.586 302.168 237.794C301.848 237.994 301.592 238.266 301.4 238.61C301.208 238.946 301.112 239.334 301.112 239.774C301.112 240.206 301.208 240.598 301.4 240.95C301.592 241.302 301.848 241.578 302.168 241.778C302.496 241.978 302.864 242.078 303.272 242.078ZM310.344 243.158C309.88 243.158 309.46 243.05 309.084 242.834C308.716 242.618 308.428 242.318 308.22 241.934C308.02 241.542 307.92 241.094 307.92 240.59V236.546H309.036V240.47C309.036 240.79 309.1 241.07 309.228 241.31C309.364 241.55 309.548 241.738 309.78 241.874C310.02 242.01 310.292 242.078 310.596 242.078C310.9 242.078 311.168 242.01 311.4 241.874C311.64 241.738 311.824 241.542 311.952 241.286C312.088 241.03 312.156 240.726 312.156 240.374V236.546H313.284V243.014H312.192V241.754L312.372 241.862C312.22 242.27 311.96 242.59 311.592 242.822C311.232 243.046 310.816 243.158 310.344 243.158ZM315.012 243.014V236.546H316.104V237.734L315.984 237.566C316.136 237.198 316.368 236.926 316.68 236.75C316.992 236.566 317.372 236.474 317.82 236.474H318.216V237.53H317.652C317.196 237.53 316.828 237.674 316.548 237.962C316.268 238.242 316.128 238.642 316.128 239.162V243.014H315.012ZM319.208 243.014V236.546H320.3V237.734L320.18 237.566C320.332 237.198 320.564 236.926 320.876 236.75C321.188 236.566 321.568 236.474 322.016 236.474H322.412V237.53H321.848C321.392 237.53 321.024 237.674 320.744 237.962C320.464 238.242 320.324 238.642 320.324 239.162V243.014H319.208ZM325.299 243.158C324.875 243.158 324.499 243.082 324.171 242.93C323.851 242.77 323.599 242.554 323.415 242.282C323.231 242.002 323.139 241.682 323.139 241.322C323.139 240.978 323.211 240.67 323.355 240.398C323.507 240.118 323.739 239.882 324.051 239.69C324.371 239.498 324.771 239.362 325.251 239.282L327.651 238.886V239.822L325.503 240.182C325.087 240.254 324.783 240.386 324.591 240.578C324.407 240.77 324.315 241.006 324.315 241.286C324.315 241.55 324.419 241.77 324.627 241.946C324.843 242.122 325.111 242.21 325.431 242.21C325.839 242.21 326.191 242.126 326.487 241.958C326.791 241.782 327.027 241.546 327.195 241.25C327.371 240.954 327.459 240.626 327.459 240.266V238.622C327.459 238.27 327.327 237.986 327.063 237.77C326.807 237.546 326.467 237.434 326.043 237.434C325.675 237.434 325.347 237.53 325.059 237.722C324.779 237.906 324.571 238.154 324.435 238.466L323.463 237.962C323.583 237.666 323.775 237.402 324.039 237.17C324.303 236.93 324.611 236.742 324.963 236.606C325.315 236.47 325.683 236.402 326.067 236.402C326.563 236.402 326.999 236.498 327.375 236.69C327.751 236.874 328.043 237.134 328.251 237.47C328.467 237.798 328.575 238.182 328.575 238.622V243.014H327.483V241.79L327.687 241.862C327.551 242.118 327.367 242.342 327.135 242.534C326.903 242.726 326.631 242.878 326.319 242.99C326.007 243.102 325.667 243.158 325.299 243.158ZM330.305 245.414V236.546H331.397V237.938L331.253 237.662C331.493 237.278 331.821 236.974 332.237 236.75C332.653 236.518 333.129 236.402 333.665 236.402C334.273 236.402 334.817 236.55 335.297 236.846C335.785 237.142 336.169 237.546 336.449 238.058C336.729 238.562 336.869 239.138 336.869 239.786C336.869 240.418 336.729 240.99 336.449 241.502C336.169 242.014 335.785 242.418 335.297 242.714C334.817 243.01 334.269 243.158 333.653 243.158C333.133 243.158 332.657 243.042 332.225 242.81C331.801 242.578 331.473 242.25 331.241 241.826L331.421 241.634V245.414H330.305ZM333.569 242.078C333.977 242.078 334.341 241.978 334.661 241.778C334.981 241.578 335.229 241.306 335.405 240.962C335.589 240.61 335.681 240.218 335.681 239.786C335.681 239.338 335.589 238.946 335.405 238.61C335.229 238.266 334.981 237.994 334.661 237.794C334.341 237.586 333.977 237.482 333.569 237.482C333.161 237.482 332.793 237.582 332.465 237.782C332.145 237.982 331.889 238.258 331.697 238.61C331.513 238.954 331.421 239.346 331.421 239.786C331.421 240.218 331.513 240.61 331.697 240.962C331.889 241.306 332.145 241.578 332.465 241.778C332.793 241.978 333.161 242.078 333.569 242.078ZM338.333 243.014V236.546H339.449V243.014H338.333ZM338.333 235.514V234.074H339.449V235.514H338.333ZM344.12 243.158C343.512 243.158 342.964 243.01 342.476 242.714C341.996 242.418 341.616 242.014 341.336 241.502C341.056 240.99 340.916 240.418 340.916 239.786C340.916 239.138 341.056 238.562 341.336 238.058C341.616 237.546 341.996 237.142 342.476 236.846C342.964 236.55 343.512 236.402 344.12 236.402C344.656 236.402 345.132 236.518 345.548 236.75C345.964 236.974 346.292 237.278 346.532 237.662L346.352 237.938V233.93H347.48V243.014H346.388V241.634L346.532 241.826C346.308 242.25 345.98 242.578 345.548 242.81C345.124 243.042 344.648 243.158 344.12 243.158ZM344.216 242.078C344.624 242.078 344.988 241.978 345.308 241.778C345.628 241.578 345.88 241.306 346.064 240.962C346.256 240.61 346.352 240.218 346.352 239.786C346.352 239.346 346.256 238.954 346.064 238.61C345.88 238.258 345.628 237.982 345.308 237.782C344.988 237.582 344.624 237.482 344.216 237.482C343.816 237.482 343.452 237.586 343.124 237.794C342.804 237.994 342.552 238.266 342.368 238.61C342.184 238.946 342.092 239.338 342.092 239.786C342.092 240.218 342.184 240.61 342.368 240.962C342.552 241.306 342.804 241.578 343.124 241.778C343.444 241.978 343.808 242.078 344.216 242.078ZM352.184 243.158C351.56 243.158 351.004 243.01 350.516 242.714C350.028 242.418 349.644 242.014 349.364 241.502C349.084 240.982 348.944 240.402 348.944 239.762C348.944 239.114 349.08 238.538 349.352 238.034C349.632 237.53 350.008 237.134 350.48 236.846C350.96 236.55 351.496 236.402 352.088 236.402C352.568 236.402 352.992 236.49 353.36 236.666C353.736 236.834 354.052 237.066 354.308 237.362C354.572 237.65 354.772 237.982 354.908 238.358C355.052 238.726 355.124 239.11 355.124 239.51C355.124 239.598 355.116 239.698 355.1 239.81C355.092 239.914 355.08 240.014 355.064 240.11H349.76V239.15H354.416L353.888 239.582C353.96 239.166 353.92 238.794 353.768 238.466C353.616 238.138 353.392 237.878 353.096 237.686C352.8 237.494 352.464 237.398 352.088 237.398C351.712 237.398 351.368 237.494 351.056 237.686C350.744 237.878 350.5 238.154 350.324 238.514C350.156 238.866 350.088 239.286 350.12 239.774C350.088 240.246 350.16 240.662 350.336 241.022C350.52 241.374 350.776 241.65 351.104 241.85C351.44 242.042 351.804 242.138 352.196 242.138C352.628 242.138 352.992 242.038 353.288 241.838C353.584 241.638 353.824 241.382 354.008 241.07L354.944 241.55C354.816 241.846 354.616 242.118 354.344 242.366C354.08 242.606 353.764 242.798 353.396 242.942C353.036 243.086 352.632 243.158 352.184 243.158ZM357.035 243.014V241.574H358.199V243.014H357.035ZM363.387 243.158C362.755 243.158 362.191 243.01 361.695 242.714C361.207 242.418 360.823 242.014 360.543 241.502C360.263 240.99 360.123 240.414 360.123 239.774C360.123 239.126 360.263 238.55 360.543 238.046C360.823 237.542 361.207 237.142 361.695 236.846C362.191 236.55 362.755 236.402 363.387 236.402C363.811 236.402 364.207 236.478 364.575 236.63C364.943 236.782 365.267 236.986 365.547 237.242C365.827 237.498 366.031 237.798 366.159 238.142L365.163 238.622C365.011 238.286 364.779 238.014 364.467 237.806C364.155 237.59 363.795 237.482 363.387 237.482C362.995 237.482 362.639 237.582 362.319 237.782C362.007 237.982 361.759 238.254 361.575 238.598C361.391 238.942 361.299 239.338 361.299 239.786C361.299 240.218 361.391 240.61 361.575 240.962C361.759 241.306 362.007 241.578 362.319 241.778C362.639 241.978 362.995 242.078 363.387 242.078C363.795 242.078 364.155 241.974 364.467 241.766C364.779 241.55 365.011 241.266 365.163 240.914L366.159 241.418C366.031 241.754 365.827 242.054 365.547 242.318C365.267 242.574 364.943 242.778 364.575 242.93C364.207 243.082 363.811 243.158 363.387 243.158ZM370.69 243.158C370.066 243.158 369.502 243.014 368.998 242.726C368.494 242.43 368.094 242.026 367.798 241.514C367.502 241.002 367.354 240.422 367.354 239.774C367.354 239.126 367.498 238.55 367.786 238.046C368.082 237.542 368.482 237.142 368.986 236.846C369.49 236.55 370.058 236.402 370.69 236.402C371.314 236.402 371.878 236.55 372.382 236.846C372.886 237.134 373.282 237.53 373.57 238.034C373.866 238.538 374.014 239.118 374.014 239.774C374.014 240.43 373.862 241.014 373.558 241.526C373.254 242.03 372.85 242.43 372.346 242.726C371.85 243.014 371.298 243.158 370.69 243.158ZM370.69 242.078C371.09 242.078 371.45 241.978 371.77 241.778C372.098 241.578 372.354 241.302 372.538 240.95C372.73 240.598 372.826 240.206 372.826 239.774C372.826 239.334 372.73 238.946 372.538 238.61C372.354 238.266 372.098 237.994 371.77 237.794C371.45 237.586 371.09 237.482 370.69 237.482C370.282 237.482 369.914 237.586 369.586 237.794C369.266 237.994 369.01 238.266 368.818 238.61C368.626 238.946 368.53 239.334 368.53 239.774C368.53 240.206 368.626 240.598 368.818 240.95C369.01 241.302 369.266 241.578 369.586 241.778C369.914 241.978 370.282 242.078 370.69 242.078ZM375.469 243.014V236.546H376.561V237.866L376.405 237.662C376.565 237.254 376.821 236.942 377.173 236.726C377.525 236.51 377.921 236.402 378.361 236.402C378.865 236.402 379.317 236.542 379.717 236.822C380.125 237.102 380.405 237.47 380.557 237.926L380.245 237.938C380.413 237.434 380.697 237.054 381.097 236.798C381.497 236.534 381.941 236.402 382.429 236.402C382.877 236.402 383.281 236.506 383.641 236.714C384.009 236.922 384.301 237.21 384.517 237.578C384.733 237.946 384.841 238.362 384.841 238.826V243.014H383.713V239.186C383.713 238.826 383.649 238.522 383.521 238.274C383.393 238.026 383.217 237.834 382.993 237.698C382.777 237.554 382.521 237.482 382.225 237.482C381.937 237.482 381.677 237.554 381.445 237.698C381.221 237.834 381.041 238.03 380.905 238.286C380.777 238.534 380.713 238.834 380.713 239.186V243.014H379.585V239.186C379.585 238.826 379.521 238.522 379.393 238.274C379.265 238.026 379.089 237.834 378.865 237.698C378.649 237.554 378.393 237.482 378.097 237.482C377.809 237.482 377.549 237.554 377.317 237.698C377.093 237.834 376.913 238.03 376.777 238.286C376.649 238.534 376.585 238.834 376.585 239.186V243.014H375.469Z" fill="#0C2459"/>
<defs>
<filter id="filter0_d_40000190_21724" x="0" y="120.846" width="386" height="104" filterUnits="userSpaceOnUse" color-interpolation-filters="sRGB">
<feFlood flood-opacity="0" result="BackgroundImageFix"/>
<feColorMatrix in="SourceAlpha" type="matrix" values="0 0 0 0 0 0 0 0 0 0 0 0 0 0 0 0 0 0 127 0" result="hardAlpha"/>
<feOffset dy="16"/>
<feGaussianBlur stdDeviation="16"/>
<feComposite in2="hardAlpha" operator="out"/>
<feColorMatrix type="matrix" values="0 0 0 0 0.845833 0 0 0 0 0.845833 0 0 0 0 0.845833 0 0 0 0.09 0"/>
<feBlend mode="normal" in2="BackgroundImageFix" result="effect1_dropShadow_40000190_21724"/>
<feBlend mode="normal" in="SourceGraphic" in2="effect1_dropShadow_40000190_21724" result="shape"/>
</filter>
<linearGradient id="paint0_linear_40000190_21724" x1="354" y1="156.846" x2="32" y2="156.846" gradientUnits="userSpaceOnUse">
<stop stop-color="#B7FFFD"/>
<stop offset="1" stop-color="#1355FF"/>
</linearGradient>
</defs>
</svg>