<svg width="400" height="323" viewBox="0 0 400 323" fill="none" xmlns="http://www.w3.org/2000/svg">
<rect x="0.595777" y="1.47273" width="398.808" height="284.808" rx="15.4042" fill="white"/>
<rect x="0.595777" y="1.47273" width="398.808" height="284.808" rx="15.4042" stroke="#E7E7E7" stroke-width="1.19155"/>
<path d="M25.008 40.377V29.947H26.912V40.377H25.008ZM28.7642 40.377V32.761H30.4862V34.259L30.3462 33.993C30.5235 33.5356 30.8128 33.1903 31.2142 32.957C31.6248 32.7143 32.1008 32.593 32.6422 32.593C33.2022 32.593 33.6968 32.7143 34.1262 32.957C34.5648 33.1996 34.9055 33.5403 35.1482 33.979C35.3908 34.4083 35.5122 34.9076 35.5122 35.477V40.377H33.6782V35.911C33.6782 35.575 33.6128 35.2856 33.4822 35.043C33.3515 34.8003 33.1695 34.6136 32.9362 34.483C32.7122 34.343 32.4462 34.273 32.1382 34.273C31.8395 34.273 31.5735 34.343 31.3402 34.483C31.1068 34.6136 30.9248 34.8003 30.7942 35.043C30.6635 35.2856 30.5982 35.575 30.5982 35.911V40.377H28.7642ZM39.2223 40.377L36.2263 32.761H38.2283L40.3983 38.753H39.6563L41.8403 32.761H43.8423L40.8463 40.377H39.2223ZM44.856 40.377V32.761H46.69V40.377H44.856ZM44.856 31.907V29.947H46.69V31.907H44.856ZM51.8553 40.461C50.9966 40.461 50.3293 40.2276 49.8533 39.761C49.3866 39.285 49.1533 38.6176 49.1533 37.759V34.399H47.8373V32.761H47.9773C48.3506 32.761 48.64 32.663 48.8453 32.467C49.0506 32.271 49.1533 31.9863 49.1533 31.613V31.025H50.9873V32.761H52.7373V34.399H50.9873V37.661C50.9873 37.913 51.0293 38.1276 51.1133 38.305C51.2066 38.4823 51.3466 38.6176 51.5333 38.711C51.7293 38.8043 51.9766 38.851 52.2753 38.851C52.3406 38.851 52.4153 38.8463 52.4993 38.837C52.5926 38.8276 52.6813 38.8183 52.7653 38.809V40.377C52.6346 40.3956 52.4853 40.4143 52.3173 40.433C52.1493 40.4516 51.9953 40.461 51.8553 40.461ZM57.7101 40.545C56.9261 40.545 56.2401 40.3676 55.6521 40.013C55.0641 39.6583 54.6068 39.1776 54.2801 38.571C53.9535 37.9643 53.7901 37.2923 53.7901 36.555C53.7901 35.7896 53.9535 35.113 54.2801 34.525C54.6161 33.9276 55.0688 33.4563 55.6381 33.111C56.2168 32.7656 56.8608 32.593 57.5701 32.593C58.1675 32.593 58.6901 32.691 59.1381 32.887C59.5955 33.083 59.9828 33.3536 60.3001 33.699C60.6175 34.0443 60.8601 34.441 61.0281 34.889C61.1961 35.3276 61.2801 35.8036 61.2801 36.317C61.2801 36.4476 61.2708 36.583 61.2521 36.723C61.2428 36.863 61.2195 36.9843 61.1821 37.087H55.3021V35.687H60.1461L59.2781 36.345C59.3621 35.9156 59.3388 35.533 59.2081 35.197C59.0868 34.861 58.8815 34.595 58.5921 34.399C58.3121 34.203 57.9715 34.105 57.5701 34.105C57.1875 34.105 56.8468 34.203 56.5481 34.399C56.2495 34.5856 56.0208 34.8656 55.8621 35.239C55.7128 35.603 55.6568 36.0463 55.6941 36.569C55.6568 37.0356 55.7175 37.451 55.8761 37.815C56.0441 38.1696 56.2868 38.445 56.6041 38.641C56.9308 38.837 57.3041 38.935 57.7241 38.935C58.1441 38.935 58.4988 38.8463 58.7881 38.669C59.0868 38.4916 59.3201 38.2536 59.4881 37.955L60.9721 38.683C60.8228 39.047 60.5895 39.369 60.2721 39.649C59.9548 39.929 59.5768 40.1483 59.1381 40.307C58.7088 40.4656 58.2328 40.545 57.7101 40.545ZM69.3307 40.545C68.528 40.545 67.814 40.377 67.1887 40.041C66.5727 39.705 66.0874 39.243 65.7327 38.655C65.378 38.067 65.2007 37.3996 65.2007 36.653V29.947H67.1047V36.555C67.1047 36.9843 67.198 37.3716 67.3847 37.717C67.5807 38.0623 67.8467 38.333 68.1827 38.529C68.5187 38.7156 68.9014 38.809 69.3307 38.809C69.7694 38.809 70.152 38.7156 70.4787 38.529C70.8147 38.333 71.076 38.0623 71.2627 37.717C71.4587 37.3716 71.5567 36.9843 71.5567 36.555V29.947H73.4607V36.653C73.4607 37.3996 73.2834 38.067 72.9287 38.655C72.574 39.243 72.084 39.705 71.4587 40.041C70.8427 40.377 70.1334 40.545 69.3307 40.545ZM78.1055 40.545C77.2935 40.545 76.5842 40.3536 75.9775 39.971C75.3802 39.579 74.9695 39.0516 74.7455 38.389L76.1175 37.731C76.3135 38.1603 76.5842 38.4963 76.9295 38.739C77.2842 38.9816 77.6762 39.103 78.1055 39.103C78.4415 39.103 78.7075 39.0283 78.9035 38.879C79.0995 38.7296 79.1975 38.5336 79.1975 38.291C79.1975 38.1416 79.1555 38.0203 79.0715 37.927C78.9968 37.8243 78.8895 37.7403 78.7495 37.675C78.6188 37.6003 78.4742 37.5396 78.3155 37.493L77.0695 37.143C76.4255 36.9563 75.9355 36.6716 75.5995 36.289C75.2728 35.9063 75.1095 35.4536 75.1095 34.931C75.1095 34.4643 75.2262 34.0583 75.4595 33.713C75.7022 33.3583 76.0335 33.083 76.4535 32.887C76.8828 32.691 77.3728 32.593 77.9235 32.593C78.6422 32.593 79.2768 32.7656 79.8275 33.111C80.3782 33.4563 80.7702 33.9416 81.0035 34.567L79.6035 35.225C79.4728 34.8796 79.2535 34.6043 78.9455 34.399C78.6375 34.1936 78.2922 34.091 77.9095 34.091C77.6015 34.091 77.3588 34.161 77.1815 34.301C77.0042 34.441 76.9155 34.623 76.9155 34.847C76.9155 34.987 76.9528 35.1083 77.0275 35.211C77.1022 35.3136 77.2048 35.3976 77.3355 35.463C77.4755 35.5283 77.6342 35.589 77.8115 35.645L79.0295 36.009C79.6548 36.1956 80.1355 36.4756 80.4715 36.849C80.8168 37.2223 80.9895 37.6796 80.9895 38.221C80.9895 38.6783 80.8682 39.0843 80.6255 39.439C80.3828 39.7843 80.0468 40.055 79.6175 40.251C79.1882 40.447 78.6842 40.545 78.1055 40.545ZM86.0109 40.545C85.2269 40.545 84.5409 40.3676 83.9529 40.013C83.3649 39.6583 82.9076 39.1776 82.5809 38.571C82.2543 37.9643 82.0909 37.2923 82.0909 36.555C82.0909 35.7896 82.2543 35.113 82.5809 34.525C82.9169 33.9276 83.3696 33.4563 83.9389 33.111C84.5176 32.7656 85.1616 32.593 85.8709 32.593C86.4683 32.593 86.9909 32.691 87.4389 32.887C87.8963 33.083 88.2836 33.3536 88.6009 33.699C88.9183 34.0443 89.1609 34.441 89.3289 34.889C89.4969 35.3276 89.5809 35.8036 89.5809 36.317C89.5809 36.4476 89.5716 36.583 89.5529 36.723C89.5436 36.863 89.5203 36.9843 89.4829 37.087H83.6029V35.687H88.4469L87.5789 36.345C87.6629 35.9156 87.6396 35.533 87.5089 35.197C87.3876 34.861 87.1823 34.595 86.8929 34.399C86.6129 34.203 86.2723 34.105 85.8709 34.105C85.4883 34.105 85.1476 34.203 84.8489 34.399C84.5503 34.5856 84.3216 34.8656 84.1629 35.239C84.0136 35.603 83.9576 36.0463 83.9949 36.569C83.9576 37.0356 84.0183 37.451 84.1769 37.815C84.3449 38.1696 84.5876 38.445 84.9049 38.641C85.2316 38.837 85.6049 38.935 86.0249 38.935C86.4449 38.935 86.7996 38.8463 87.0889 38.669C87.3876 38.4916 87.6209 38.2536 87.7889 37.955L89.2729 38.683C89.1236 39.047 88.8903 39.369 88.5729 39.649C88.2556 39.929 87.8776 40.1483 87.4389 40.307C87.0096 40.4656 86.5336 40.545 86.0109 40.545ZM90.9712 40.377V32.761H92.6932V34.455L92.5532 34.203C92.7305 33.6336 93.0059 33.237 93.3792 33.013C93.7619 32.789 94.2192 32.677 94.7512 32.677H95.1992V34.301H94.5412C94.0185 34.301 93.5985 34.4643 93.2812 34.791C92.9639 35.1083 92.8052 35.5563 92.8052 36.135V40.377H90.9712Z" fill="#0C2459"/>
<line x1="24.0007" y1="53.1058" x2="376" y2="53.7199" stroke="#E7E9EE" stroke-width="0.542353"/>
<rect x="24.2712" y="63.0036" width="351.458" height="34.9824" rx="6.23706" stroke="#DBDBDB" stroke-width="0.542353"/>
<path d="M36.7457 85.6381C36.1777 85.6381 35.6577 85.5341 35.1857 85.3261C34.7137 85.1101 34.3137 84.8181 33.9857 84.4501C33.6577 84.0821 33.4217 83.6701 33.2777 83.2141L34.2977 82.7941C34.5137 83.3701 34.8337 83.8141 35.2577 84.1261C35.6897 84.4301 36.1937 84.5821 36.7697 84.5821C37.1217 84.5821 37.4297 84.5261 37.6937 84.4141C37.9577 84.3021 38.1617 84.1461 38.3057 83.9461C38.4577 83.7381 38.5337 83.4981 38.5337 83.2261C38.5337 82.8501 38.4257 82.5541 38.2097 82.3381C38.0017 82.1141 37.6937 81.9461 37.2857 81.8341L35.6417 81.3301C34.9937 81.1301 34.4977 80.8141 34.1537 80.3821C33.8097 79.9501 33.6377 79.4541 33.6377 78.8941C33.6377 78.4061 33.7537 77.9781 33.9857 77.6101C34.2257 77.2341 34.5537 76.9421 34.9697 76.7341C35.3937 76.5181 35.8737 76.4101 36.4097 76.4101C36.9457 76.4101 37.4297 76.5061 37.8617 76.6981C38.3017 76.8901 38.6737 77.1501 38.9777 77.4781C39.2817 77.7981 39.5057 78.1661 39.6497 78.5821L38.6417 79.0021C38.4497 78.4981 38.1617 78.1181 37.7777 77.8621C37.3937 77.5981 36.9417 77.4661 36.4217 77.4661C36.1017 77.4661 35.8177 77.5221 35.5697 77.6341C35.3297 77.7381 35.1417 77.8941 35.0057 78.1021C34.8777 78.3021 34.8137 78.5421 34.8137 78.8221C34.8137 79.1501 34.9177 79.4421 35.1257 79.6981C35.3337 79.9541 35.6497 80.1501 36.0737 80.2861L37.5737 80.7301C38.2777 80.9461 38.8097 81.2541 39.1697 81.6541C39.5297 82.0541 39.7097 82.5501 39.7097 83.1421C39.7097 83.6301 39.5817 84.0621 39.3257 84.4381C39.0777 84.8141 38.7297 85.1101 38.2817 85.3261C37.8417 85.5341 37.3297 85.6381 36.7457 85.6381ZM44.2755 85.6381C43.6515 85.6381 43.0955 85.4901 42.6075 85.1941C42.1195 84.8981 41.7355 84.4941 41.4555 83.9821C41.1755 83.4621 41.0355 82.8821 41.0355 82.2421C41.0355 81.5941 41.1715 81.0181 41.4435 80.5141C41.7235 80.0101 42.0995 79.6141 42.5715 79.3261C43.0515 79.0301 43.5875 78.8821 44.1795 78.8821C44.6595 78.8821 45.0835 78.9701 45.4515 79.1461C45.8275 79.3141 46.1435 79.5461 46.3995 79.8421C46.6635 80.1301 46.8635 80.4621 46.9995 80.8381C47.1435 81.2061 47.2155 81.5901 47.2155 81.9901C47.2155 82.0781 47.2075 82.1781 47.1915 82.2901C47.1835 82.3941 47.1715 82.4941 47.1555 82.5901H41.8515V81.6301H46.5075L45.9795 82.0621C46.0515 81.6461 46.0115 81.2741 45.8595 80.9461C45.7075 80.6181 45.4835 80.3581 45.1875 80.1661C44.8915 79.9741 44.5555 79.8781 44.1795 79.8781C43.8035 79.8781 43.4595 79.9741 43.1475 80.1661C42.8355 80.3581 42.5915 80.6341 42.4155 80.9941C42.2475 81.3461 42.1795 81.7661 42.2115 82.2541C42.1795 82.7261 42.2515 83.1421 42.4275 83.5021C42.6115 83.8541 42.8675 84.1301 43.1955 84.3301C43.5315 84.5221 43.8955 84.6181 44.2875 84.6181C44.7195 84.6181 45.0835 84.5181 45.3795 84.3181C45.6755 84.1181 45.9155 83.8621 46.0995 83.5501L47.0355 84.0301C46.9075 84.3261 46.7075 84.5981 46.4355 84.8461C46.1715 85.0861 45.8555 85.2781 45.4875 85.4221C45.1275 85.5661 44.7235 85.6381 44.2755 85.6381ZM48.6706 85.4941V76.4101H49.7866V85.4941H48.6706ZM54.4943 85.6381C53.8703 85.6381 53.3143 85.4901 52.8263 85.1941C52.3383 84.8981 51.9543 84.4941 51.6743 83.9821C51.3943 83.4621 51.2543 82.8821 51.2543 82.2421C51.2543 81.5941 51.3903 81.0181 51.6623 80.5141C51.9423 80.0101 52.3183 79.6141 52.7903 79.3261C53.2703 79.0301 53.8063 78.8821 54.3983 78.8821C54.8783 78.8821 55.3023 78.9701 55.6703 79.1461C56.0463 79.3141 56.3623 79.5461 56.6183 79.8421C56.8823 80.1301 57.0823 80.4621 57.2183 80.8381C57.3623 81.2061 57.4343 81.5901 57.4343 81.9901C57.4343 82.0781 57.4263 82.1781 57.4103 82.2901C57.4023 82.3941 57.3903 82.4941 57.3743 82.5901H52.0703V81.6301H56.7263L56.1983 82.0621C56.2703 81.6461 56.2303 81.2741 56.0783 80.9461C55.9263 80.6181 55.7023 80.3581 55.4063 80.1661C55.1103 79.9741 54.7743 79.8781 54.3983 79.8781C54.0223 79.8781 53.6783 79.9741 53.3663 80.1661C53.0543 80.3581 52.8103 80.6341 52.6343 80.9941C52.4663 81.3461 52.3983 81.7661 52.4303 82.2541C52.3983 82.7261 52.4703 83.1421 52.6463 83.5021C52.8303 83.8541 53.0863 84.1301 53.4143 84.3301C53.7503 84.5221 54.1143 84.6181 54.5063 84.6181C54.9383 84.6181 55.3023 84.5181 55.5983 84.3181C55.8943 84.1181 56.1343 83.8621 56.3183 83.5501L57.2543 84.0301C57.1263 84.3261 56.9263 84.5981 56.6543 84.8461C56.3903 85.0861 56.0743 85.2781 55.7063 85.4221C55.3463 85.5661 54.9423 85.6381 54.4943 85.6381ZM61.8894 85.6381C61.2574 85.6381 60.6934 85.4901 60.1974 85.1941C59.7094 84.8981 59.3254 84.4941 59.0454 83.9821C58.7654 83.4701 58.6254 82.8941 58.6254 82.2541C58.6254 81.6061 58.7654 81.0301 59.0454 80.5261C59.3254 80.0221 59.7094 79.6221 60.1974 79.3261C60.6934 79.0301 61.2574 78.8821 61.8894 78.8821C62.3134 78.8821 62.7094 78.9581 63.0774 79.1101C63.4454 79.2621 63.7694 79.4661 64.0494 79.7221C64.3294 79.9781 64.5334 80.2781 64.6614 80.6221L63.6654 81.1021C63.5134 80.7661 63.2814 80.4941 62.9694 80.2861C62.6574 80.0701 62.2974 79.9621 61.8894 79.9621C61.4974 79.9621 61.1414 80.0621 60.8214 80.2621C60.5094 80.4621 60.2614 80.7341 60.0774 81.0781C59.8934 81.4221 59.8014 81.8181 59.8014 82.2661C59.8014 82.6981 59.8934 83.0901 60.0774 83.4421C60.2614 83.7861 60.5094 84.0581 60.8214 84.2581C61.1414 84.4581 61.4974 84.5581 61.8894 84.5581C62.2974 84.5581 62.6574 84.4541 62.9694 84.2461C63.2814 84.0301 63.5134 83.7461 63.6654 83.3941L64.6614 83.8981C64.5334 84.2341 64.3294 84.5341 64.0494 84.7981C63.7694 85.0541 63.4454 85.2581 63.0774 85.4101C62.7094 85.5621 62.3134 85.6381 61.8894 85.6381ZM68.7479 85.5661C68.1159 85.5661 67.6279 85.3861 67.2839 85.0261C66.9479 84.6661 66.7799 84.1581 66.7799 83.5021V80.0941H65.6039V79.0261H65.8439C66.1319 79.0261 66.3599 78.9381 66.5279 78.7621C66.6959 78.5861 66.7799 78.3541 66.7799 78.0661V77.5381H67.8959V79.0261H69.3479V80.0941H67.8959V83.4661C67.8959 83.6821 67.9279 83.8701 67.9919 84.0301C68.0639 84.1901 68.1799 84.3181 68.3399 84.4141C68.4999 84.5021 68.7119 84.5461 68.9759 84.5461C69.0319 84.5461 69.0999 84.5421 69.1799 84.5341C69.2679 84.5261 69.3479 84.5181 69.4199 84.5101V85.4941C69.3159 85.5181 69.1999 85.5341 69.0719 85.5421C68.9439 85.5581 68.8359 85.5661 68.7479 85.5661ZM73.0839 85.4941V76.5541H78.9039V77.6341H74.2599V80.4661H78.6639V81.5461H74.2599V84.4141H78.9039V85.4941H73.0839ZM79.4972 85.4941L81.7652 82.2541L79.5092 79.0261H80.8532L82.7852 81.8341H82.1012L84.0092 79.0261H85.3652L83.1092 82.2541L85.3532 85.4941H84.0092L82.1012 82.6861H82.7732L80.8652 85.4941H79.4972ZM86.3581 85.4941V79.0261H87.4741V85.4941H86.3581ZM86.3581 77.9941V76.5541H87.4741V77.9941H86.3581ZM91.5218 85.6381C90.8738 85.6381 90.3098 85.4781 89.8298 85.1581C89.3498 84.8381 89.0098 84.4061 88.8098 83.8621L89.6978 83.4301C89.8818 83.8141 90.1338 84.1181 90.4538 84.3421C90.7738 84.5661 91.1298 84.6781 91.5218 84.6781C91.8738 84.6781 92.1658 84.5941 92.3978 84.4261C92.6298 84.2581 92.7458 84.0381 92.7458 83.7661C92.7458 83.5741 92.6898 83.4221 92.5778 83.3101C92.4738 83.1901 92.3458 83.0981 92.1938 83.0341C92.0418 82.9621 91.9018 82.9101 91.7738 82.8781L90.8018 82.6021C90.2178 82.4341 89.7898 82.1941 89.5178 81.8821C89.2538 81.5701 89.1218 81.2061 89.1218 80.7901C89.1218 80.4061 89.2178 80.0741 89.4098 79.7941C89.6098 79.5061 89.8778 79.2821 90.2138 79.1221C90.5578 78.9621 90.9418 78.8821 91.3658 78.8821C91.9338 78.8821 92.4418 79.0261 92.8898 79.3141C93.3458 79.6021 93.6698 80.0061 93.8618 80.5261L92.9498 80.9461C92.8058 80.6101 92.5898 80.3461 92.3018 80.1541C92.0138 79.9541 91.6898 79.8541 91.3298 79.8541C91.0018 79.8541 90.7418 79.9381 90.5498 80.1061C90.3578 80.2661 90.2618 80.4701 90.2618 80.7181C90.2618 80.9021 90.3098 81.0541 90.4058 81.1741C90.5018 81.2861 90.6178 81.3741 90.7538 81.4381C90.8898 81.4941 91.0218 81.5421 91.1498 81.5821L92.2058 81.8941C92.7338 82.0461 93.1418 82.2821 93.4298 82.6021C93.7258 82.9221 93.8738 83.3061 93.8738 83.7541C93.8738 84.1141 93.7738 84.4381 93.5738 84.7261C93.3738 85.0141 93.0978 85.2381 92.7458 85.3981C92.3938 85.5581 91.9858 85.6381 91.5218 85.6381ZM97.9627 85.5661C97.3307 85.5661 96.8427 85.3861 96.4987 85.0261C96.1627 84.6661 95.9947 84.1581 95.9947 83.5021V80.0941H94.8187V79.0261H95.0587C95.3467 79.0261 95.5747 78.9381 95.7427 78.7621C95.9107 78.5861 95.9947 78.3541 95.9947 78.0661V77.5381H97.1107V79.0261H98.5627V80.0941H97.1107V83.4661C97.1107 83.6821 97.1427 83.8701 97.2067 84.0301C97.2787 84.1901 97.3947 84.3181 97.5547 84.4141C97.7147 84.5021 97.9267 84.5461 98.1907 84.5461C98.2467 84.5461 98.3147 84.5421 98.3947 84.5341C98.4827 84.5261 98.5627 84.5181 98.6347 84.5101V85.4941C98.5307 85.5181 98.4147 85.5341 98.2867 85.5421C98.1587 85.5581 98.0507 85.5661 97.9627 85.5661ZM100.093 85.4941V79.0261H101.209V85.4941H100.093ZM100.093 77.9941V76.5541H101.209V77.9941H100.093ZM102.94 85.4941V79.0261H104.032V80.2861L103.852 80.1781C104.012 79.7701 104.268 79.4541 104.62 79.2301C104.98 78.9981 105.4 78.8821 105.88 78.8821C106.344 78.8821 106.756 78.9861 107.116 79.1941C107.484 79.4021 107.772 79.6901 107.98 80.0581C108.196 80.4261 108.304 80.8421 108.304 81.3061V85.4941H107.176V81.6661C107.176 81.3061 107.112 81.0021 106.984 80.7541C106.856 80.5061 106.672 80.3141 106.432 80.1781C106.2 80.0341 105.932 79.9621 105.628 79.9621C105.324 79.9621 105.052 80.0341 104.812 80.1781C104.58 80.3141 104.396 80.5101 104.26 80.7661C104.124 81.0141 104.056 81.3141 104.056 81.6661V85.4941H102.94ZM112.985 88.1341C112.529 88.1341 112.105 88.0621 111.713 87.9181C111.329 87.7741 110.997 87.5741 110.717 87.3181C110.445 87.0701 110.237 86.7781 110.093 86.4421L111.137 85.9621C111.249 86.2661 111.461 86.5221 111.773 86.7301C112.093 86.9461 112.493 87.0541 112.973 87.0541C113.341 87.0541 113.673 86.9821 113.969 86.8381C114.273 86.7021 114.513 86.4941 114.689 86.2141C114.865 85.9421 114.953 85.6101 114.953 85.2181V83.7661L115.157 83.9821C114.933 84.4221 114.609 84.7581 114.185 84.9901C113.769 85.2221 113.309 85.3381 112.805 85.3381C112.197 85.3381 111.653 85.1981 111.173 84.9181C110.693 84.6301 110.317 84.2421 110.045 83.7541C109.773 83.2581 109.637 82.7101 109.637 82.1101C109.637 81.5021 109.773 80.9541 110.045 80.4661C110.317 79.9781 110.689 79.5941 111.161 79.3141C111.641 79.0261 112.185 78.8821 112.793 78.8821C113.297 78.8821 113.753 78.9981 114.161 79.2301C114.577 79.4541 114.909 79.7661 115.157 80.1661L114.989 80.4661V79.0261H116.081V85.2181C116.081 85.7781 115.949 86.2781 115.685 86.7181C115.421 87.1581 115.053 87.5021 114.581 87.7501C114.117 88.0061 113.585 88.1341 112.985 88.1341ZM112.901 84.2581C113.285 84.2581 113.629 84.1621 113.933 83.9701C114.245 83.7781 114.493 83.5221 114.677 83.2021C114.861 82.8741 114.953 82.5101 114.953 82.1101C114.953 81.7181 114.861 81.3581 114.677 81.0301C114.493 80.7021 114.245 80.4421 113.933 80.2501C113.629 80.0581 113.285 79.9621 112.901 79.9621C112.509 79.9621 112.153 80.0581 111.833 80.2501C111.513 80.4421 111.261 80.7021 111.077 81.0301C110.901 81.3501 110.813 81.7101 110.813 82.1101C110.813 82.5101 110.901 82.8741 111.077 83.2021C111.261 83.5221 111.509 83.7781 111.821 83.9701C112.141 84.1621 112.501 84.2581 112.901 84.2581ZM123.257 85.6381C122.609 85.6381 122.033 85.5021 121.529 85.2301C121.033 84.9581 120.645 84.5861 120.365 84.1141C120.093 83.6341 119.957 83.0901 119.957 82.4821V76.5541H121.145V82.4581C121.145 82.8661 121.233 83.2301 121.409 83.5501C121.593 83.8621 121.841 84.1061 122.153 84.2821C122.473 84.4581 122.841 84.5461 123.257 84.5461C123.673 84.5461 124.037 84.4581 124.349 84.2821C124.669 84.1061 124.917 83.8621 125.093 83.5501C125.277 83.2301 125.369 82.8661 125.369 82.4581V76.5541H126.557V82.4821C126.557 83.0901 126.417 83.6341 126.137 84.1141C125.865 84.5861 125.481 84.9581 124.985 85.2301C124.489 85.5021 123.913 85.6381 123.257 85.6381ZM130.674 85.6381C130.026 85.6381 129.462 85.4781 128.982 85.1581C128.502 84.8381 128.162 84.4061 127.962 83.8621L128.85 83.4301C129.034 83.8141 129.286 84.1181 129.606 84.3421C129.926 84.5661 130.282 84.6781 130.674 84.6781C131.026 84.6781 131.318 84.5941 131.55 84.4261C131.782 84.2581 131.898 84.0381 131.898 83.7661C131.898 83.5741 131.842 83.4221 131.73 83.3101C131.626 83.1901 131.498 83.0981 131.346 83.0341C131.194 82.9621 131.054 82.9101 130.926 82.8781L129.954 82.6021C129.37 82.4341 128.942 82.1941 128.67 81.8821C128.406 81.5701 128.274 81.2061 128.274 80.7901C128.274 80.4061 128.37 80.0741 128.562 79.7941C128.762 79.5061 129.03 79.2821 129.366 79.1221C129.71 78.9621 130.094 78.8821 130.518 78.8821C131.086 78.8821 131.594 79.0261 132.042 79.3141C132.498 79.6021 132.822 80.0061 133.014 80.5261L132.102 80.9461C131.958 80.6101 131.742 80.3461 131.454 80.1541C131.166 79.9541 130.842 79.8541 130.482 79.8541C130.154 79.8541 129.894 79.9381 129.702 80.1061C129.51 80.2661 129.414 80.4701 129.414 80.7181C129.414 80.9021 129.462 81.0541 129.558 81.1741C129.654 81.2861 129.77 81.3741 129.906 81.4381C130.042 81.4941 130.174 81.5421 130.302 81.5821L131.358 81.8941C131.886 82.0461 132.294 82.2821 132.582 82.6021C132.878 82.9221 133.026 83.3061 133.026 83.7541C133.026 84.1141 132.926 84.4381 132.726 84.7261C132.526 85.0141 132.25 85.2381 131.898 85.3981C131.546 85.5581 131.138 85.6381 130.674 85.6381ZM137.463 85.6381C136.839 85.6381 136.283 85.4901 135.795 85.1941C135.307 84.8981 134.923 84.4941 134.643 83.9821C134.363 83.4621 134.223 82.8821 134.223 82.2421C134.223 81.5941 134.359 81.0181 134.631 80.5141C134.911 80.0101 135.287 79.6141 135.759 79.3261C136.239 79.0301 136.775 78.8821 137.367 78.8821C137.847 78.8821 138.271 78.9701 138.639 79.1461C139.015 79.3141 139.331 79.5461 139.587 79.8421C139.851 80.1301 140.051 80.4621 140.187 80.8381C140.331 81.2061 140.403 81.5901 140.403 81.9901C140.403 82.0781 140.395 82.1781 140.379 82.2901C140.371 82.3941 140.359 82.4941 140.343 82.5901H135.039V81.6301H139.695L139.167 82.0621C139.239 81.6461 139.199 81.2741 139.047 80.9461C138.895 80.6181 138.671 80.3581 138.375 80.1661C138.079 79.9741 137.743 79.8781 137.367 79.8781C136.991 79.8781 136.647 79.9741 136.335 80.1661C136.023 80.3581 135.779 80.6341 135.603 80.9941C135.435 81.3461 135.367 81.7661 135.399 82.2541C135.367 82.7261 135.439 83.1421 135.615 83.5021C135.799 83.8541 136.055 84.1301 136.383 84.3301C136.719 84.5221 137.083 84.6181 137.475 84.6181C137.907 84.6181 138.271 84.5181 138.567 84.3181C138.863 84.1181 139.103 83.8621 139.287 83.5501L140.223 84.0301C140.095 84.3261 139.895 84.5981 139.623 84.8461C139.359 85.0861 139.043 85.2781 138.675 85.4221C138.315 85.5661 137.911 85.6381 137.463 85.6381ZM141.858 85.4941V79.0261H142.95V80.2141L142.83 80.0461C142.982 79.6781 143.214 79.4061 143.526 79.2301C143.838 79.0461 144.218 78.9541 144.666 78.9541H145.062V80.0101H144.498C144.042 80.0101 143.674 80.1541 143.394 80.4421C143.114 80.7221 142.974 81.1221 142.974 81.6421V85.4941H141.858Z" fill="#0C2459"/>
<path d="M360.814 79.4102L362.983 81.5796L365.153 79.4102" stroke="#34373A" stroke-width="1.08471" stroke-linecap="round" stroke-linejoin="round"/>
<path d="M29.268 125.902C28.612 125.902 28 125.786 27.432 125.554C26.864 125.322 26.368 124.998 25.944 124.582C25.52 124.166 25.188 123.678 24.948 123.118C24.716 122.55 24.6 121.938 24.6 121.282C24.6 120.618 24.716 120.006 24.948 119.446C25.18 118.886 25.508 118.398 25.932 117.982C26.356 117.566 26.852 117.246 27.42 117.022C27.988 116.79 28.604 116.674 29.268 116.674C29.932 116.674 30.548 116.79 31.116 117.022C31.684 117.254 32.18 117.578 32.604 117.994C33.028 118.402 33.356 118.886 33.588 119.446C33.828 120.006 33.948 120.618 33.948 121.282C33.948 121.938 33.828 122.55 33.588 123.118C33.348 123.678 33.016 124.166 32.592 124.582C32.168 124.998 31.672 125.322 31.104 125.554C30.544 125.786 29.932 125.902 29.268 125.902ZM29.268 124.414C29.708 124.414 30.112 124.338 30.48 124.186C30.848 124.026 31.168 123.806 31.44 123.526C31.72 123.246 31.932 122.914 32.076 122.53C32.228 122.146 32.304 121.73 32.304 121.282C32.304 120.834 32.228 120.422 32.076 120.046C31.932 119.662 31.72 119.33 31.44 119.05C31.168 118.762 30.848 118.542 30.48 118.39C30.112 118.238 29.708 118.162 29.268 118.162C28.836 118.162 28.436 118.238 28.068 118.39C27.7 118.542 27.376 118.762 27.096 119.05C26.824 119.33 26.612 119.662 26.46 120.046C26.308 120.422 26.232 120.834 26.232 121.282C26.232 121.73 26.308 122.146 26.46 122.53C26.612 122.914 26.824 123.246 27.096 123.526C27.376 123.806 27.7 124.026 28.068 124.186C28.436 124.338 28.836 124.414 29.268 124.414ZM35.2672 125.758V119.23H36.7432V120.682L36.6232 120.466C36.7752 119.978 37.0112 119.638 37.3312 119.446C37.6592 119.254 38.0512 119.158 38.5072 119.158H38.8912V120.55H38.3272C37.8792 120.55 37.5192 120.69 37.2472 120.97C36.9752 121.242 36.8392 121.626 36.8392 122.122V125.758H35.2672ZM41.2883 125.758L44.3723 116.818H46.4843L49.5683 125.758H47.7923L47.1562 123.838H43.7003L43.0523 125.758H41.2883ZM44.1683 122.398H46.6883L45.2003 117.946H45.6563L44.1683 122.398ZM53.2328 125.902C52.6008 125.902 52.0368 125.754 51.5408 125.458C51.0448 125.154 50.6528 124.742 50.3648 124.222C50.0768 123.702 49.9328 123.126 49.9328 122.494C49.9328 121.854 50.0768 121.278 50.3648 120.766C50.6528 120.254 51.0448 119.846 51.5408 119.542C52.0448 119.238 52.6048 119.086 53.2208 119.086C53.7168 119.086 54.1568 119.186 54.5408 119.386C54.9328 119.578 55.2408 119.85 55.4648 120.202L55.2248 120.526V116.674H56.7968V125.758H55.3088V124.498L55.4768 124.81C55.2528 125.162 54.9408 125.434 54.5408 125.626C54.1408 125.81 53.7048 125.902 53.2328 125.902ZM53.4008 124.462C53.7608 124.462 54.0768 124.378 54.3488 124.21C54.6208 124.042 54.8328 123.81 54.9848 123.514C55.1448 123.218 55.2248 122.878 55.2248 122.494C55.2248 122.118 55.1448 121.782 54.9848 121.486C54.8328 121.182 54.6208 120.946 54.3488 120.778C54.0768 120.61 53.7608 120.526 53.4008 120.526C53.0488 120.526 52.7328 120.614 52.4528 120.79C52.1728 120.958 51.9528 121.19 51.7928 121.486C51.6408 121.774 51.5648 122.11 51.5648 122.494C51.5648 122.878 51.6408 123.218 51.7928 123.514C51.9528 123.81 52.1728 124.042 52.4528 124.21C52.7328 124.378 53.0488 124.462 53.4008 124.462ZM61.2953 125.902C60.6633 125.902 60.0993 125.754 59.6033 125.458C59.1073 125.154 58.7153 124.742 58.4273 124.222C58.1393 123.702 57.9953 123.126 57.9953 122.494C57.9953 121.854 58.1393 121.278 58.4273 120.766C58.7153 120.254 59.1073 119.846 59.6033 119.542C60.1073 119.238 60.6673 119.086 61.2833 119.086C61.7793 119.086 62.2193 119.186 62.6033 119.386C62.9953 119.578 63.3033 119.85 63.5273 120.202L63.2873 120.526V116.674H64.8593V125.758H63.3713V124.498L63.5393 124.81C63.3153 125.162 63.0033 125.434 62.6033 125.626C62.2033 125.81 61.7673 125.902 61.2953 125.902ZM61.4633 124.462C61.8233 124.462 62.1393 124.378 62.4113 124.21C62.6833 124.042 62.8953 123.81 63.0473 123.514C63.2073 123.218 63.2873 122.878 63.2873 122.494C63.2873 122.118 63.2073 121.782 63.0473 121.486C62.8953 121.182 62.6833 120.946 62.4113 120.778C62.1393 120.61 61.8233 120.526 61.4633 120.526C61.1113 120.526 60.7953 120.614 60.5153 120.79C60.2353 120.958 60.0153 121.19 59.8553 121.486C59.7033 121.774 59.6273 122.11 59.6273 122.494C59.6273 122.878 59.7033 123.218 59.8553 123.514C60.0153 123.81 60.2353 124.042 60.5153 124.21C60.7953 124.378 61.1113 124.462 61.4633 124.462ZM68.5867 125.758V116.818H69.8587L74.7787 123.442L74.1187 123.574V116.818H75.7507V125.758H74.4667L69.6187 119.086L70.2187 118.954V125.758H68.5867ZM80.4452 125.902C79.7732 125.902 79.1852 125.75 78.6812 125.446C78.1772 125.142 77.7852 124.73 77.5052 124.21C77.2252 123.69 77.0852 123.114 77.0852 122.482C77.0852 121.826 77.2252 121.246 77.5052 120.742C77.7932 120.23 78.1812 119.826 78.6692 119.53C79.1652 119.234 79.7172 119.086 80.3252 119.086C80.8372 119.086 81.2852 119.17 81.6692 119.338C82.0612 119.506 82.3932 119.738 82.6652 120.034C82.9372 120.33 83.1452 120.67 83.2892 121.054C83.4332 121.43 83.5052 121.838 83.5052 122.278C83.5052 122.39 83.4972 122.506 83.4812 122.626C83.4732 122.746 83.4532 122.85 83.4212 122.938H78.3812V121.738H82.5332L81.7892 122.302C81.8612 121.934 81.8412 121.606 81.7292 121.318C81.6252 121.03 81.4492 120.802 81.2012 120.634C80.9612 120.466 80.6692 120.382 80.3252 120.382C79.9972 120.382 79.7052 120.466 79.4492 120.634C79.1932 120.794 78.9972 121.034 78.8612 121.354C78.7332 121.666 78.6852 122.046 78.7172 122.494C78.6852 122.894 78.7372 123.25 78.8732 123.562C79.0172 123.866 79.2252 124.102 79.4972 124.27C79.7772 124.438 80.0972 124.522 80.4572 124.522C80.8172 124.522 81.1212 124.446 81.3692 124.294C81.6252 124.142 81.8252 123.938 81.9692 123.682L83.2412 124.306C83.1132 124.618 82.9132 124.894 82.6412 125.134C82.3692 125.374 82.0452 125.562 81.6692 125.698C81.3012 125.834 80.8932 125.902 80.4452 125.902ZM86.3408 125.758L84.0968 119.23H85.7528L87.3968 124.186L86.8208 124.174L88.5728 119.23H89.9648L91.7048 124.174L91.1288 124.186L92.7728 119.23H94.4288L92.1848 125.758H90.7808L89.0048 120.586H89.5328L87.7328 125.758H86.3408ZM100.999 125.902C100.311 125.902 99.6994 125.758 99.1634 125.47C98.6354 125.182 98.2194 124.786 97.9154 124.282C97.6114 123.778 97.4594 123.206 97.4594 122.566V116.818H99.0914V122.482C99.0914 122.85 99.1714 123.182 99.3314 123.478C99.4994 123.774 99.7274 124.006 100.015 124.174C100.303 124.334 100.631 124.414 100.999 124.414C101.375 124.414 101.703 124.334 101.983 124.174C102.271 124.006 102.495 123.774 102.655 123.478C102.823 123.182 102.907 122.85 102.907 122.482V116.818H104.539V122.566C104.539 123.206 104.387 123.778 104.083 124.282C103.779 124.786 103.359 125.182 102.823 125.47C102.295 125.758 101.687 125.902 100.999 125.902ZM108.521 125.902C107.825 125.902 107.217 125.738 106.697 125.41C106.185 125.074 105.833 124.622 105.641 124.054L106.817 123.49C106.985 123.858 107.217 124.146 107.513 124.354C107.817 124.562 108.153 124.666 108.521 124.666C108.809 124.666 109.037 124.602 109.205 124.474C109.373 124.346 109.457 124.178 109.457 123.97C109.457 123.842 109.421 123.738 109.349 123.658C109.285 123.57 109.193 123.498 109.073 123.442C108.961 123.378 108.837 123.326 108.701 123.286L107.633 122.986C107.081 122.826 106.661 122.582 106.373 122.254C106.093 121.926 105.953 121.538 105.953 121.09C105.953 120.69 106.053 120.342 106.253 120.046C106.461 119.742 106.745 119.506 107.105 119.338C107.473 119.17 107.893 119.086 108.365 119.086C108.981 119.086 109.525 119.234 109.997 119.53C110.469 119.826 110.805 120.242 111.005 120.778L109.805 121.342C109.693 121.046 109.505 120.81 109.241 120.634C108.977 120.458 108.681 120.37 108.353 120.37C108.089 120.37 107.881 120.43 107.729 120.55C107.577 120.67 107.501 120.826 107.501 121.018C107.501 121.138 107.533 121.242 107.597 121.33C107.661 121.418 107.749 121.49 107.861 121.546C107.981 121.602 108.117 121.654 108.269 121.702L109.313 122.014C109.849 122.174 110.261 122.414 110.549 122.734C110.845 123.054 110.993 123.446 110.993 123.91C110.993 124.302 110.889 124.65 110.681 124.954C110.473 125.25 110.185 125.482 109.817 125.65C109.449 125.818 109.017 125.902 108.521 125.902ZM115.297 125.902C114.625 125.902 114.037 125.75 113.533 125.446C113.029 125.142 112.637 124.73 112.357 124.21C112.077 123.69 111.937 123.114 111.937 122.482C111.937 121.826 112.077 121.246 112.357 120.742C112.645 120.23 113.033 119.826 113.521 119.53C114.017 119.234 114.569 119.086 115.177 119.086C115.689 119.086 116.137 119.17 116.521 119.338C116.913 119.506 117.245 119.738 117.517 120.034C117.789 120.33 117.997 120.67 118.141 121.054C118.285 121.43 118.357 121.838 118.357 122.278C118.357 122.39 118.349 122.506 118.333 122.626C118.325 122.746 118.305 122.85 118.273 122.938H113.233V121.738H117.385L116.641 122.302C116.713 121.934 116.693 121.606 116.581 121.318C116.477 121.03 116.301 120.802 116.053 120.634C115.813 120.466 115.521 120.382 115.177 120.382C114.849 120.382 114.557 120.466 114.301 120.634C114.045 120.794 113.849 121.034 113.713 121.354C113.585 121.666 113.537 122.046 113.569 122.494C113.537 122.894 113.589 123.25 113.725 123.562C113.869 123.866 114.077 124.102 114.349 124.27C114.629 124.438 114.949 124.522 115.309 124.522C115.669 124.522 115.973 124.446 116.221 124.294C116.477 124.142 116.677 123.938 116.821 123.682L118.093 124.306C117.965 124.618 117.765 124.894 117.493 125.134C117.221 125.374 116.897 125.562 116.521 125.698C116.153 125.834 115.745 125.902 115.297 125.902ZM119.548 125.758V119.23H121.024V120.682L120.904 120.466C121.056 119.978 121.292 119.638 121.612 119.446C121.94 119.254 122.332 119.158 122.788 119.158H123.172V120.55H122.608C122.16 120.55 121.8 120.69 121.528 120.97C121.256 121.242 121.12 121.626 121.12 122.122V125.758H119.548Z" fill="#0C2459"/>
<rect x="24.2712" y="137.529" width="351.458" height="34.9824" rx="6.23706" stroke="#DBDBDB" stroke-width="0.542353"/>
<path d="M33.6737 160.02V151.08H34.6577L39.7937 158.304L39.3497 158.352V151.08H40.5377V160.02H39.5537L34.4417 152.748L34.8497 152.7V160.02H33.6737ZM44.2971 160.164C43.8731 160.164 43.4971 160.088 43.1691 159.936C42.8491 159.776 42.5971 159.56 42.4131 159.288C42.2291 159.008 42.1371 158.688 42.1371 158.328C42.1371 157.984 42.2091 157.676 42.3531 157.404C42.5051 157.124 42.7371 156.888 43.0491 156.696C43.3691 156.504 43.7691 156.368 44.2491 156.288L46.6491 155.892V156.828L44.5011 157.188C44.0851 157.26 43.7811 157.392 43.5891 157.584C43.4051 157.776 43.3131 158.012 43.3131 158.292C43.3131 158.556 43.4171 158.776 43.6251 158.952C43.8411 159.128 44.1091 159.216 44.4291 159.216C44.8371 159.216 45.1891 159.132 45.4851 158.964C45.7891 158.788 46.0251 158.552 46.1931 158.256C46.3691 157.96 46.4571 157.632 46.4571 157.272V155.628C46.4571 155.276 46.3251 154.992 46.0611 154.776C45.8051 154.552 45.4651 154.44 45.0411 154.44C44.6731 154.44 44.3451 154.536 44.0571 154.728C43.7771 154.912 43.5691 155.16 43.4331 155.472L42.4611 154.968C42.5811 154.672 42.7731 154.408 43.0371 154.176C43.3011 153.936 43.6091 153.748 43.9611 153.612C44.3131 153.476 44.6811 153.408 45.0651 153.408C45.5611 153.408 45.9971 153.504 46.3731 153.696C46.7491 153.88 47.0411 154.14 47.2491 154.476C47.4651 154.804 47.5731 155.188 47.5731 155.628V160.02H46.4811V158.796L46.6851 158.868C46.5491 159.124 46.3651 159.348 46.1331 159.54C45.9011 159.732 45.6291 159.884 45.3171 159.996C45.0051 160.108 44.6651 160.164 44.2971 160.164ZM49.3035 160.02V153.552H50.3955V154.872L50.2395 154.668C50.3995 154.26 50.6555 153.948 51.0075 153.732C51.3595 153.516 51.7555 153.408 52.1955 153.408C52.6995 153.408 53.1515 153.548 53.5515 153.828C53.9595 154.108 54.2395 154.476 54.3915 154.932L54.0795 154.944C54.2475 154.44 54.5315 154.06 54.9315 153.804C55.3315 153.54 55.7755 153.408 56.2635 153.408C56.7115 153.408 57.1155 153.512 57.4755 153.72C57.8435 153.928 58.1355 154.216 58.3515 154.584C58.5675 154.952 58.6755 155.368 58.6755 155.832V160.02H57.5475V156.192C57.5475 155.832 57.4835 155.528 57.3555 155.28C57.2275 155.032 57.0515 154.84 56.8275 154.704C56.6115 154.56 56.3555 154.488 56.0595 154.488C55.7715 154.488 55.5115 154.56 55.2795 154.704C55.0555 154.84 54.8755 155.036 54.7395 155.292C54.6115 155.54 54.5475 155.84 54.5475 156.192V160.02H53.4195V156.192C53.4195 155.832 53.3555 155.528 53.2275 155.28C53.0995 155.032 52.9235 154.84 52.6995 154.704C52.4835 154.56 52.2275 154.488 51.9315 154.488C51.6435 154.488 51.3835 154.56 51.1515 154.704C50.9275 154.84 50.7475 155.036 50.6115 155.292C50.4835 155.54 50.4195 155.84 50.4195 156.192V160.02H49.3035ZM63.2365 160.164C62.6125 160.164 62.0565 160.016 61.5685 159.72C61.0805 159.424 60.6965 159.02 60.4165 158.508C60.1365 157.988 59.9965 157.408 59.9965 156.768C59.9965 156.12 60.1325 155.544 60.4045 155.04C60.6845 154.536 61.0605 154.14 61.5325 153.852C62.0125 153.556 62.5485 153.408 63.1405 153.408C63.6205 153.408 64.0445 153.496 64.4125 153.672C64.7885 153.84 65.1045 154.072 65.3605 154.368C65.6245 154.656 65.8245 154.988 65.9605 155.364C66.1045 155.732 66.1765 156.116 66.1765 156.516C66.1765 156.604 66.1685 156.704 66.1525 156.816C66.1445 156.92 66.1325 157.02 66.1165 157.116H60.8125V156.156H65.4685L64.9405 156.588C65.0125 156.172 64.9725 155.8 64.8205 155.472C64.6685 155.144 64.4445 154.884 64.1485 154.692C63.8525 154.5 63.5165 154.404 63.1405 154.404C62.7645 154.404 62.4205 154.5 62.1085 154.692C61.7965 154.884 61.5525 155.16 61.3765 155.52C61.2085 155.872 61.1405 156.292 61.1725 156.78C61.1405 157.252 61.2125 157.668 61.3885 158.028C61.5725 158.38 61.8285 158.656 62.1565 158.856C62.4925 159.048 62.8565 159.144 63.2485 159.144C63.6805 159.144 64.0445 159.044 64.3405 158.844C64.6365 158.644 64.8765 158.388 65.0605 158.076L65.9965 158.556C65.8685 158.852 65.6685 159.124 65.3965 159.372C65.1325 159.612 64.8165 159.804 64.4485 159.948C64.0885 160.092 63.6845 160.164 63.2365 160.164ZM68.7716 155.496L67.9796 154.932L68.9636 153.624L67.4876 153.12L67.7876 152.196L69.2756 152.688V151.08H70.2476V152.688L71.7356 152.196L72.0356 153.12L70.5596 153.624L71.5316 154.932L70.7516 155.496L69.7556 154.188L68.7716 155.496Z" fill="#0C2459"/>
<path d="M360.814 153.936L362.983 156.105L365.153 153.936" stroke="#34373A" stroke-width="1.08471" stroke-linecap="round" stroke-linejoin="round"/>
<rect x="24.2712" y="182.054" width="351.458" height="34.9824" rx="6.23706" stroke="#DBDBDB" stroke-width="0.542353"/>
<path d="M33.6737 204.545V195.605H39.4937V196.685H34.8497V199.517H39.2537V200.597H34.8497V203.465H39.4937V204.545H33.6737ZM40.8191 204.545V198.077H41.9111V199.397L41.7551 199.193C41.9151 198.785 42.1711 198.473 42.5231 198.257C42.8751 198.041 43.2711 197.933 43.7111 197.933C44.2151 197.933 44.6671 198.073 45.0671 198.353C45.4751 198.633 45.7551 199.001 45.9071 199.457L45.5951 199.469C45.7631 198.965 46.0471 198.585 46.4471 198.329C46.8471 198.065 47.2911 197.933 47.7791 197.933C48.2271 197.933 48.6311 198.037 48.9911 198.245C49.3591 198.453 49.6511 198.741 49.8671 199.109C50.0831 199.477 50.1911 199.893 50.1911 200.357V204.545H49.0631V200.717C49.0631 200.357 48.9991 200.053 48.8711 199.805C48.7431 199.557 48.5671 199.365 48.3431 199.229C48.1271 199.085 47.8711 199.013 47.5751 199.013C47.2871 199.013 47.0271 199.085 46.7951 199.229C46.5711 199.365 46.3911 199.561 46.2551 199.817C46.1271 200.065 46.0631 200.365 46.0631 200.717V204.545H44.9351V200.717C44.9351 200.357 44.8711 200.053 44.7431 199.805C44.6151 199.557 44.4391 199.365 44.2151 199.229C43.9991 199.085 43.7431 199.013 43.4471 199.013C43.1591 199.013 42.8991 199.085 42.6671 199.229C42.4431 199.365 42.2631 199.561 42.1271 199.817C41.9991 200.065 41.9351 200.365 41.9351 200.717V204.545H40.8191ZM53.6721 204.689C53.2481 204.689 52.8721 204.613 52.5441 204.461C52.2241 204.301 51.9721 204.085 51.7881 203.813C51.6041 203.533 51.5121 203.213 51.5121 202.853C51.5121 202.509 51.5841 202.201 51.7281 201.929C51.8801 201.649 52.1121 201.413 52.4241 201.221C52.7441 201.029 53.1441 200.893 53.6241 200.813L56.0241 200.417V201.353L53.8761 201.713C53.4601 201.785 53.1561 201.917 52.9641 202.109C52.7801 202.301 52.6881 202.537 52.6881 202.817C52.6881 203.081 52.7921 203.301 53.0001 203.477C53.2161 203.653 53.4841 203.741 53.8041 203.741C54.2121 203.741 54.5641 203.657 54.8601 203.489C55.1641 203.313 55.4001 203.077 55.5681 202.781C55.7441 202.485 55.8321 202.157 55.8321 201.797V200.153C55.8321 199.801 55.7001 199.517 55.4361 199.301C55.1801 199.077 54.8401 198.965 54.4161 198.965C54.0481 198.965 53.7201 199.061 53.4321 199.253C53.1521 199.437 52.9441 199.685 52.8081 199.997L51.8361 199.493C51.9561 199.197 52.1481 198.933 52.4121 198.701C52.6761 198.461 52.9841 198.273 53.3361 198.137C53.6881 198.001 54.0561 197.933 54.4401 197.933C54.9361 197.933 55.3721 198.029 55.7481 198.221C56.1241 198.405 56.4161 198.665 56.6241 199.001C56.8401 199.329 56.9481 199.713 56.9481 200.153V204.545H55.8561V203.321L56.0601 203.393C55.9241 203.649 55.7401 203.873 55.5081 204.065C55.2761 204.257 55.0041 204.409 54.6921 204.521C54.3801 204.633 54.0401 204.689 53.6721 204.689ZM58.6785 204.545V198.077H59.7945V204.545H58.6785ZM58.6785 197.045V195.605H59.7945V197.045H58.6785ZM61.5261 204.545V195.461H62.6421V204.545H61.5261ZM65.5138 200.021L64.7218 199.457L65.7058 198.149L64.2298 197.645L64.5298 196.721L66.0178 197.213V195.605H66.9898V197.213L68.4778 196.721L68.7778 197.645L67.3018 198.149L68.2738 199.457L67.4938 200.021L66.4978 198.713L65.5138 200.021Z" fill="#0C2459"/>
<path d="M360.814 198.461L362.983 200.63L365.153 198.461" stroke="#34373A" stroke-width="1.08471" stroke-linecap="round" stroke-linejoin="round"/>
<rect x="24.2712" y="226.578" width="351.458" height="34.9824" rx="6.23706" stroke="#DBDBDB" stroke-width="0.542353"/>
<path d="M32.8097 249.068L36.0137 240.128H37.4057L40.6097 249.068H39.3497L38.6177 246.968H34.8017L34.0697 249.068H32.8097ZM35.1737 245.888H38.2457L36.5417 240.98H36.8777L35.1737 245.888ZM44.3699 249.212C43.7379 249.212 43.1739 249.064 42.6779 248.768C42.1899 248.472 41.8059 248.068 41.5259 247.556C41.2459 247.044 41.1059 246.468 41.1059 245.828C41.1059 245.18 41.2459 244.604 41.5259 244.1C41.8059 243.596 42.1899 243.196 42.6779 242.9C43.1739 242.604 43.7379 242.456 44.3699 242.456C44.7939 242.456 45.1899 242.532 45.5579 242.684C45.9259 242.836 46.2499 243.04 46.5299 243.296C46.8099 243.552 47.0139 243.852 47.1419 244.196L46.1459 244.676C45.9939 244.34 45.7619 244.068 45.4499 243.86C45.1379 243.644 44.7779 243.536 44.3699 243.536C43.9779 243.536 43.6219 243.636 43.3019 243.836C42.9899 244.036 42.7419 244.308 42.5579 244.652C42.3739 244.996 42.2819 245.392 42.2819 245.84C42.2819 246.272 42.3739 246.664 42.5579 247.016C42.7419 247.36 42.9899 247.632 43.3019 247.832C43.6219 248.032 43.9779 248.132 44.3699 248.132C44.7779 248.132 45.1379 248.028 45.4499 247.82C45.7619 247.604 45.9939 247.32 46.1459 246.968L47.1419 247.472C47.0139 247.808 46.8099 248.108 46.5299 248.372C46.2499 248.628 45.9259 248.832 45.5579 248.984C45.1899 249.136 44.7939 249.212 44.3699 249.212ZM51.6003 249.212C50.9683 249.212 50.4043 249.064 49.9083 248.768C49.4203 248.472 49.0363 248.068 48.7563 247.556C48.4763 247.044 48.3363 246.468 48.3363 245.828C48.3363 245.18 48.4763 244.604 48.7563 244.1C49.0363 243.596 49.4203 243.196 49.9083 242.9C50.4043 242.604 50.9683 242.456 51.6003 242.456C52.0243 242.456 52.4203 242.532 52.7883 242.684C53.1563 242.836 53.4803 243.04 53.7603 243.296C54.0403 243.552 54.2443 243.852 54.3723 244.196L53.3763 244.676C53.2243 244.34 52.9923 244.068 52.6803 243.86C52.3683 243.644 52.0083 243.536 51.6003 243.536C51.2083 243.536 50.8523 243.636 50.5323 243.836C50.2203 244.036 49.9723 244.308 49.7883 244.652C49.6043 244.996 49.5123 245.392 49.5123 245.84C49.5123 246.272 49.6043 246.664 49.7883 247.016C49.9723 247.36 50.2203 247.632 50.5323 247.832C50.8523 248.032 51.2083 248.132 51.6003 248.132C52.0083 248.132 52.3683 248.028 52.6803 247.82C52.9923 247.604 53.2243 247.32 53.3763 246.968L54.3723 247.472C54.2443 247.808 54.0403 248.108 53.7603 248.372C53.4803 248.628 53.1563 248.832 52.7883 248.984C52.4203 249.136 52.0243 249.212 51.6003 249.212ZM58.8068 249.212C58.1828 249.212 57.6268 249.064 57.1388 248.768C56.6508 248.472 56.2668 248.068 55.9868 247.556C55.7068 247.036 55.5668 246.456 55.5668 245.816C55.5668 245.168 55.7028 244.592 55.9748 244.088C56.2548 243.584 56.6308 243.188 57.1028 242.9C57.5828 242.604 58.1188 242.456 58.7108 242.456C59.1908 242.456 59.6148 242.544 59.9828 242.72C60.3588 242.888 60.6748 243.12 60.9308 243.416C61.1948 243.704 61.3948 244.036 61.5308 244.412C61.6748 244.78 61.7468 245.164 61.7468 245.564C61.7468 245.652 61.7388 245.752 61.7228 245.864C61.7148 245.968 61.7028 246.068 61.6868 246.164H56.3828V245.204H61.0388L60.5108 245.636C60.5828 245.22 60.5428 244.848 60.3908 244.52C60.2388 244.192 60.0148 243.932 59.7188 243.74C59.4228 243.548 59.0868 243.452 58.7108 243.452C58.3348 243.452 57.9908 243.548 57.6788 243.74C57.3668 243.932 57.1228 244.208 56.9468 244.568C56.7788 244.92 56.7108 245.34 56.7428 245.828C56.7108 246.3 56.7828 246.716 56.9588 247.076C57.1428 247.428 57.3988 247.704 57.7268 247.904C58.0628 248.096 58.4268 248.192 58.8188 248.192C59.2508 248.192 59.6148 248.092 59.9108 247.892C60.2068 247.692 60.4468 247.436 60.6308 247.124L61.5668 247.604C61.4388 247.9 61.2388 248.172 60.9668 248.42C60.7028 248.66 60.3868 248.852 60.0188 248.996C59.6588 249.14 59.2548 249.212 58.8068 249.212ZM65.5179 249.212C64.8699 249.212 64.3059 249.052 63.8259 248.732C63.3459 248.412 63.0059 247.98 62.8059 247.436L63.6939 247.004C63.8779 247.388 64.1299 247.692 64.4499 247.916C64.7699 248.14 65.1259 248.252 65.5179 248.252C65.8699 248.252 66.1619 248.168 66.3939 248C66.6259 247.832 66.7419 247.612 66.7419 247.34C66.7419 247.148 66.6859 246.996 66.5739 246.884C66.4699 246.764 66.3419 246.672 66.1899 246.608C66.0379 246.536 65.8979 246.484 65.7699 246.452L64.7979 246.176C64.2139 246.008 63.7859 245.768 63.5139 245.456C63.2499 245.144 63.1179 244.78 63.1179 244.364C63.1179 243.98 63.2139 243.648 63.4059 243.368C63.6059 243.08 63.8739 242.856 64.2099 242.696C64.5539 242.536 64.9379 242.456 65.3619 242.456C65.9299 242.456 66.4379 242.6 66.8859 242.888C67.3419 243.176 67.6659 243.58 67.8579 244.1L66.9459 244.52C66.8019 244.184 66.5859 243.92 66.2979 243.728C66.0099 243.528 65.6859 243.428 65.3259 243.428C64.9979 243.428 64.7379 243.512 64.5459 243.68C64.3539 243.84 64.2579 244.044 64.2579 244.292C64.2579 244.476 64.3059 244.628 64.4019 244.748C64.4979 244.86 64.6139 244.948 64.7499 245.012C64.8859 245.068 65.0179 245.116 65.1459 245.156L66.2019 245.468C66.7299 245.62 67.1379 245.856 67.4259 246.176C67.7219 246.496 67.8699 246.88 67.8699 247.328C67.8699 247.688 67.7699 248.012 67.5699 248.3C67.3699 248.588 67.0939 248.812 66.7419 248.972C66.3899 249.132 65.9819 249.212 65.5179 249.212ZM71.6468 249.212C70.9988 249.212 70.4348 249.052 69.9548 248.732C69.4748 248.412 69.1348 247.98 68.9348 247.436L69.8228 247.004C70.0068 247.388 70.2588 247.692 70.5788 247.916C70.8988 248.14 71.2548 248.252 71.6468 248.252C71.9988 248.252 72.2908 248.168 72.5228 248C72.7548 247.832 72.8708 247.612 72.8708 247.34C72.8708 247.148 72.8148 246.996 72.7028 246.884C72.5988 246.764 72.4708 246.672 72.3188 246.608C72.1668 246.536 72.0268 246.484 71.8988 246.452L70.9268 246.176C70.3428 246.008 69.9148 245.768 69.6428 245.456C69.3788 245.144 69.2468 244.78 69.2468 244.364C69.2468 243.98 69.3428 243.648 69.5348 243.368C69.7348 243.08 70.0028 242.856 70.3388 242.696C70.6828 242.536 71.0668 242.456 71.4908 242.456C72.0588 242.456 72.5668 242.6 73.0148 242.888C73.4708 243.176 73.7948 243.58 73.9868 244.1L73.0748 244.52C72.9308 244.184 72.7148 243.92 72.4268 243.728C72.1388 243.528 71.8148 243.428 71.4548 243.428C71.1268 243.428 70.8668 243.512 70.6748 243.68C70.4828 243.84 70.3868 244.044 70.3868 244.292C70.3868 244.476 70.4348 244.628 70.5308 244.748C70.6268 244.86 70.7428 244.948 70.8788 245.012C71.0148 245.068 71.1468 245.116 71.2748 245.156L72.3308 245.468C72.8588 245.62 73.2668 245.856 73.5548 246.176C73.8508 246.496 73.9988 246.88 73.9988 247.328C73.9988 247.688 73.8988 248.012 73.6988 248.3C73.4988 248.588 73.2228 248.812 72.8708 248.972C72.5188 249.132 72.1108 249.212 71.6468 249.212ZM77.6659 249.068V240.128H78.8419V247.988H82.7659V249.068H77.6659ZM86.9318 249.212C86.3078 249.212 85.7518 249.064 85.2638 248.768C84.7758 248.472 84.3918 248.068 84.1118 247.556C83.8318 247.036 83.6918 246.456 83.6918 245.816C83.6918 245.168 83.8278 244.592 84.0998 244.088C84.3798 243.584 84.7558 243.188 85.2278 242.9C85.7078 242.604 86.2438 242.456 86.8358 242.456C87.3158 242.456 87.7398 242.544 88.1078 242.72C88.4838 242.888 88.7998 243.12 89.0558 243.416C89.3198 243.704 89.5198 244.036 89.6558 244.412C89.7998 244.78 89.8718 245.164 89.8718 245.564C89.8718 245.652 89.8638 245.752 89.8478 245.864C89.8398 245.968 89.8278 246.068 89.8118 246.164H84.5078V245.204H89.1638L88.6358 245.636C88.7078 245.22 88.6678 244.848 88.5158 244.52C88.3638 244.192 88.1398 243.932 87.8438 243.74C87.5478 243.548 87.2118 243.452 86.8358 243.452C86.4598 243.452 86.1158 243.548 85.8038 243.74C85.4918 243.932 85.2478 244.208 85.0718 244.568C84.9038 244.92 84.8358 245.34 84.8678 245.828C84.8358 246.3 84.9078 246.716 85.0838 247.076C85.2678 247.428 85.5238 247.704 85.8518 247.904C86.1878 248.096 86.5518 248.192 86.9438 248.192C87.3758 248.192 87.7398 248.092 88.0358 247.892C88.3318 247.692 88.5718 247.436 88.7558 247.124L89.6918 247.604C89.5638 247.9 89.3638 248.172 89.0918 248.42C88.8278 248.66 88.5118 248.852 88.1438 248.996C87.7838 249.14 87.3798 249.212 86.9318 249.212ZM93.0097 249.068L90.4777 242.6H91.7257L93.7537 248.072H93.3217L95.3617 242.6H96.6097L94.0657 249.068H93.0097ZM100.467 249.212C99.843 249.212 99.287 249.064 98.799 248.768C98.311 248.472 97.927 248.068 97.647 247.556C97.367 247.036 97.227 246.456 97.227 245.816C97.227 245.168 97.363 244.592 97.635 244.088C97.915 243.584 98.291 243.188 98.763 242.9C99.243 242.604 99.779 242.456 100.371 242.456C100.851 242.456 101.275 242.544 101.643 242.72C102.019 242.888 102.335 243.12 102.591 243.416C102.855 243.704 103.055 244.036 103.191 244.412C103.335 244.78 103.407 245.164 103.407 245.564C103.407 245.652 103.399 245.752 103.383 245.864C103.375 245.968 103.363 246.068 103.347 246.164H98.043V245.204H102.699L102.171 245.636C102.243 245.22 102.203 244.848 102.051 244.52C101.899 244.192 101.675 243.932 101.379 243.74C101.083 243.548 100.747 243.452 100.371 243.452C99.995 243.452 99.651 243.548 99.339 243.74C99.027 243.932 98.783 244.208 98.607 244.568C98.439 244.92 98.371 245.34 98.403 245.828C98.371 246.3 98.443 246.716 98.619 247.076C98.803 247.428 99.059 247.704 99.387 247.904C99.723 248.096 100.087 248.192 100.479 248.192C100.911 248.192 101.275 248.092 101.571 247.892C101.867 247.692 102.107 247.436 102.291 247.124L103.227 247.604C103.099 247.9 102.899 248.172 102.627 248.42C102.363 248.66 102.047 248.852 101.679 248.996C101.319 249.14 100.915 249.212 100.467 249.212ZM104.862 249.068V239.984H105.978V249.068H104.862ZM108.85 244.544L108.058 243.98L109.042 242.672L107.566 242.168L107.866 241.244L109.354 241.736V240.128H110.326V241.736L111.814 241.244L112.114 242.168L110.638 242.672L111.61 243.98L110.83 244.544L109.834 243.236L108.85 244.544Z" fill="#0C2459"/>
<path d="M360.814 242.984L362.983 245.154L365.153 242.984" stroke="#34373A" stroke-width="1.08471" stroke-linecap="round" stroke-linejoin="round"/>
</svg>
