<svg width="33" height="33" viewBox="0 0 33 33" fill="none" xmlns="http://www.w3.org/2000/svg">
<path d="M3.33398 23.3334L2.33398 21.3334L3.83398 19.3333L5.33398 16.3333L3.83398 13.8333L2.33398 10.8333L4.83398 6.83334L7.83398 7.33334H10.334L11.834 5.33334L13.834 2.33334H15.834L18.334 2.83334L19.334 5.33334L21.334 7.33334H23.834L26.334 6.83334L27.334 7.33334L28.834 9.33336L29.834 11.3333L28.334 13.3333L26.334 15.8333L26.834 17.8334L28.834 20.3333L29.334 22.3333L28.334 24.3333L26.834 25.8333L24.334 25.3333H22.334L20.334 26.3333L18.834 29.3333L17.834 30.3333H14.334L12.834 28.8333L11.334 27.3333L14.834 23.8333H17.334C21.334 23.4333 23.0007 21 23.334 19.8333V15.3333C23.334 11.3333 20.6673 12.3333 19.334 13.3333C21.334 10.1333 18.834 9.33335 17.334 9.33336C8.93398 7.73336 8.16732 14.3334 8.83398 17.8334L3.33398 23.3334Z" fill="#B7FFFD"/>
<path d="M2.34567 21.4184C2.39321 20.9659 2.7211 20.6012 3.37691 19.872L4.8204 18.2582C5.17325 17.8115 5.42364 17.0333 5.42364 16.3331C5.42364 15.6333 5.17316 14.8549 4.82036 14.4083L3.37691 12.7946C2.7211 12.0653 2.3932 11.7006 2.34567 11.2481C2.29812 10.7956 2.54307 10.3705 3.03294 9.52036L3.72395 8.32112C4.24657 7.41415 4.50787 6.96067 4.95248 6.77984C5.39709 6.599 5.89992 6.74171 6.90559 7.02708L8.61391 7.50826C9.25597 7.65631 9.92958 7.57233 10.5158 7.27112L10.9875 6.999C11.4902 6.67701 11.8769 6.20227 12.0909 5.64425L12.5584 4.2479C12.8658 3.32389 13.0195 2.86187 13.3854 2.59761C13.7514 2.33334 14.2374 2.33334 15.2095 2.33334H16.7702C17.7423 2.33334 18.2284 2.33334 18.5942 2.59761C18.9602 2.86187 19.1139 3.32389 19.4214 4.2479L19.8888 5.64425C20.1029 6.20227 20.4896 6.67701 20.9923 6.999L21.464 7.27112C22.0501 7.57233 22.7238 7.65631 23.3659 7.50826L25.0741 7.02708C26.0798 6.74171 26.5826 6.599 27.0273 6.77984C27.4719 6.96067 27.7332 7.41415 28.2558 8.32112L28.9468 9.52036C29.4367 10.3705 29.6815 10.7956 29.6341 11.2481C29.5865 11.7006 29.2586 12.0653 28.6028 12.7946L27.1593 14.4083C26.8066 14.8549 26.556 15.6333 26.556 16.3331C26.556 17.0333 26.8065 17.8115 27.1593 18.2582L28.6028 19.872C29.2586 20.6012 29.5865 20.9659 29.6341 21.4184C29.6815 21.871 29.4367 22.2961 28.9468 23.1462L28.2558 24.3454C27.7332 25.2523 27.4719 25.7059 27.0273 25.8867C26.5826 26.0675 26.0798 25.9249 25.0741 25.6394L23.3659 25.1582C22.7237 25.0101 22.05 25.0943 21.4637 25.3955L20.9922 25.6677C20.4894 25.9897 20.1029 26.4643 19.889 27.0223L19.4214 28.4188C19.1139 29.3428 18.9602 29.8048 18.5942 30.069C18.2284 30.3333 17.7423 30.3333 16.7702 30.3333H15.2095C14.2374 30.3333 13.7514 30.3333 13.3854 30.069C13.0195 29.8048 12.8658 29.3428 12.5584 28.4188" stroke="#1355FF" stroke-width="1.5" stroke-linecap="round"/>
<path d="M3.01846 25.8251C4.53046 24.3131 9.67126 19.2227 10.1753 18.6347C10.7081 18.0131 10.2761 17.1731 10.5331 14.5691C10.6575 13.3091 10.9285 12.3651 11.7041 11.6627C12.6281 10.7891 13.3841 10.7891 15.9881 10.7303C18.2561 10.7891 18.5249 10.5371 18.7601 11.1251C18.9281 11.5451 18.4241 11.7971 17.8193 12.4691C16.4753 13.8131 15.6857 14.4851 15.6101 14.9051C15.0641 16.7531 17.2145 17.8451 18.3905 16.6691C18.8352 16.2243 20.8937 14.1491 21.0953 13.9811C21.2465 13.8467 21.6084 13.8531 21.7841 14.0651C21.9353 14.2136 21.9521 14.2331 21.9353 14.9051C21.9198 15.5271 21.9266 16.4201 21.9286 17.3411C21.931 18.5343 21.8681 19.8611 21.3641 20.5331C20.3561 22.0451 18.6761 22.1291 17.1641 22.1963C15.7361 22.2803 14.5601 22.1291 14.1905 22.3979C13.8881 22.5491 12.2921 24.2291 10.3601 26.1611L6.91606 29.6051C4.06006 31.8731 0.918458 28.3451 3.01846 25.8251Z" fill="white" stroke="#1355FF" stroke-width="1.5" stroke-linecap="round"/>
</svg>
