<svg width="33" height="32" viewBox="0 0 33 32" fill="none" xmlns="http://www.w3.org/2000/svg">
<path d="M11.334 26.5L7.83398 27L4.83398 25L3.33398 21.5V15V8.5L4.33398 4L7.83398 2.5L12.334 2H18.834L24.334 2.5L27.334 5L28.334 9.5L28.834 17.5L27.334 24.5L24.334 26.5L21.334 27L20.834 24L21.834 22L20.834 21H18.834L17.834 19.5H15.834L14.334 21.5L12.334 21L11.334 22L12.334 24.5L11.334 26.5Z" fill="#B7FFFD"/>
<path d="M9.83398 26L8.33398 27L5.83398 25.5L3.33398 22.5V17V9L3.83398 5L9.83398 2H18.334L24.334 2.5L27.834 4.5L28.334 8.5L28.834 17.5L28.334 21L27.334 25L24.334 26.5L21.834 25C21.434 25 21.6673 24.6667 21.834 24.5C22.234 24.1 22.6673 23.3333 22.834 23C22.834 22.2 22.1673 21 21.834 20.5C21.434 19.7 20.334 19.8333 19.834 20C19.034 20.8 18.5007 19.6667 18.334 19C18.334 18.2 16.6673 18 15.834 18C14.634 18.4 14.334 19.1667 14.334 19.5C14.334 20.7 13.334 20.3333 12.834 20H12.334C11.534 20 11.0007 20.6667 10.834 21C10.034 22.2 10.1673 23.1667 10.334 23.5C11.934 24.7 10.6673 25.6667 9.83398 26Z" fill="#B7FFFD"/>
<path d="M24.0007 26.6667C25.1857 26.4005 26.0857 25.963 26.8124 25.2437C28.6673 23.4071 28.6673 20.4514 28.6673 14.5401C28.6673 8.6286 28.6673 5.67288 26.8124 3.83644C24.9573 2 21.9717 2 16.0007 2C10.0295 2 7.04397 2 5.18897 3.83644C3.33398 5.67288 3.33398 8.6286 3.33398 14.5401C3.33398 20.4514 3.33398 23.4071 5.18897 25.2437C5.91557 25.963 6.81564 26.4005 8.00065 26.6667" stroke="#1355FF" stroke-width="1.5" stroke-linecap="round"/>
<path d="M3.33398 10.6666H28.6673" stroke="#1355FF" stroke-width="1.5" stroke-linejoin="round"/>
<path d="M9.33398 6.66663H9.34596" stroke="#1355FF" stroke-width="1.5" stroke-linecap="round" stroke-linejoin="round"/>
<path d="M14.668 6.66663H14.68" stroke="#1355FF" stroke-width="1.5" stroke-linecap="round" stroke-linejoin="round"/>
<path d="M21.2967 22.0713L21.0379 21.6144C20.8423 21.2689 20.7444 21.0962 20.5779 21.0273C20.4115 20.9584 20.2231 21.0128 19.8466 21.1215L19.207 21.3048C18.9665 21.3612 18.7143 21.3292 18.4948 21.2144L18.3182 21.1108C18.13 20.9881 17.9852 20.8072 17.905 20.5947L17.73 20.0627C17.6149 19.7107 17.5573 19.5347 17.4203 19.434C17.2833 19.3334 17.1013 19.3334 16.7373 19.3334H16.1529C15.7889 19.3334 15.6069 19.3334 15.4699 19.434C15.3329 19.5347 15.2753 19.7107 15.1602 20.0627L14.9852 20.5947C14.905 20.8072 14.7602 20.9881 14.572 21.1108L14.3954 21.2144C14.1759 21.3292 13.9237 21.3612 13.6832 21.3048L13.0436 21.1215C12.667 21.0128 12.4787 20.9584 12.3123 21.0273C12.1458 21.0962 12.0479 21.2689 11.8523 21.6144L11.5935 22.0713C11.4101 22.3952 11.3184 22.5571 11.3362 22.7295C11.354 22.9018 11.4767 23.0408 11.7223 23.3186L12.2628 23.9334C12.3949 24.1035 12.4887 24.4 12.4887 24.6666C12.4887 24.9334 12.3949 25.2298 12.2628 25.4L11.7223 26.0148C11.4767 26.2926 11.354 26.4315 11.3362 26.6039C11.3184 26.7763 11.4101 26.9383 11.5935 27.2621L11.8522 27.7189C12.0479 28.0644 12.1458 28.2372 12.3123 28.3061C12.4787 28.375 12.667 28.3206 13.0436 28.2119L13.6832 28.0286C13.9237 27.9721 14.1759 28.0042 14.3955 28.119L14.5721 28.2226C14.7603 28.3453 14.905 28.5262 14.9852 28.7387L15.1602 29.2707C15.2753 29.6227 15.3329 29.7987 15.4699 29.8993C15.6069 30 15.7889 30 16.1529 30H16.7373C17.1013 30 17.2833 30 17.4203 29.8993C17.5573 29.7987 17.6149 29.6227 17.73 29.2707L17.905 28.7387C17.9852 28.5262 18.1299 28.3453 18.3182 28.2226L18.4947 28.119C18.7143 28.0042 18.9665 27.9721 19.207 28.0286L19.8466 28.2119C20.2231 28.3206 20.4114 28.375 20.5779 28.3061C20.7444 28.2372 20.8423 28.0644 21.038 27.719L21.2967 27.2621C21.4801 26.9383 21.5719 26.7763 21.554 26.6039C21.5362 26.4315 21.4135 26.2926 21.1679 26.0148L20.6274 25.4C20.4952 25.2298 20.4015 24.9334 20.4015 24.6666C20.4015 24.4 20.4953 24.1035 20.6274 23.9334L21.1679 23.3186C21.4135 23.0408 21.5362 22.9018 21.554 22.7295C21.5719 22.5571 21.4801 22.3952 21.2967 22.0713Z" fill="white" stroke="#1355FF" stroke-width="1.5" stroke-linecap="round"/>
<path d="M16.668 24.6666H16.68" stroke="#1355FF" stroke-width="1.5" stroke-linecap="round" stroke-linejoin="round"/>
</svg>
