<svg width="33" height="33" viewBox="0 0 33 33" fill="none" xmlns="http://www.w3.org/2000/svg">
<path d="M26.334 18.3333V19.8333L25.834 20.8333H19.834H10.834L4.83398 20.3333V14.8333V6.33334L6.83398 4.83334H11.834H16.834C15.634 5.23334 15.334 7.00001 15.334 7.83334V14.8333C15.334 17.2333 17.0007 18.1667 17.834 18.3333H19.334H26.334Z" fill="#B7FFFD"/>
<path d="M27 6.00009C28.5637 6.00009 29.0123 6.00009 29.5509 6.41338C29.6895 6.51978 29.8137 6.6439 29.9201 6.78257C30.3333 7.32118 30.3333 8.10304 30.3333 9.66676V12.6668C30.3333 14.5524 30.3333 15.4952 29.7475 16.081C29.1617 16.6668 28.2189 16.6668 26.3333 16.6668H21C19.1144 16.6668 18.1716 16.6668 17.5858 16.081C17 15.4952 17 14.5524 17 12.6668V9.66676C17 8.10304 17 7.32118 17.4133 6.78257C17.5197 6.6439 17.6438 6.51978 17.7825 6.41338C18.3211 6.00009 18.7696 6.00009 20.3333 6.00009" fill="white"/>
<path d="M27 6.00009C28.5637 6.00009 29.0123 6.00009 29.5509 6.41338C29.6895 6.51978 29.8137 6.6439 29.9201 6.78257C30.3333 7.32118 30.3333 8.10304 30.3333 9.66676V12.6668C30.3333 14.5524 30.3333 15.4952 29.7475 16.081C29.1617 16.6668 28.2189 16.6668 26.3333 16.6668H21C19.1144 16.6668 18.1716 16.6668 17.5858 16.081C17 15.4952 17 14.5524 17 12.6668V9.66676C17 8.10304 17 7.32118 17.4133 6.78257C17.5197 6.6439 17.6438 6.51978 17.7825 6.41338C18.3211 6.00009 18.7696 6.00009 20.3333 6.00009" stroke="#286AFE" stroke-width="1.5" stroke-linecap="round"/>
<path d="M27.0007 6.66674L26.4101 5.19036C26.1553 4.55338 25.9336 3.8308 25.2784 3.50644C24.9289 3.3334 24.5084 3.3334 23.6673 3.3334C22.8263 3.3334 22.4057 3.3334 22.0562 3.50644C21.4011 3.8308 21.1793 4.55338 20.9245 5.19036L20.334 6.66674" fill="white"/>
<path d="M27.0007 6.66674L26.4101 5.19036C26.1553 4.55338 25.9336 3.8308 25.2784 3.50644C24.9289 3.3334 24.5084 3.3334 23.6673 3.3334C22.8263 3.3334 22.4057 3.3334 22.0562 3.50644C21.4011 3.8308 21.1793 4.55338 20.9245 5.19036L20.334 6.66674" stroke="#286AFE" stroke-width="1.5" stroke-linecap="round" stroke-linejoin="round"/>
<path d="M26.0007 11.3334C26.0007 12.6221 24.956 13.6668 23.6673 13.6668C22.3787 13.6668 21.334 12.6221 21.334 11.3334C21.334 10.0448 22.3787 9.00009 23.6673 9.00009C24.956 9.00009 26.0007 10.0448 26.0007 11.3334Z" fill="white" stroke="#286AFE" stroke-width="1.5"/>
<path d="M5 20.6667V10.0001C5 7.48589 5 6.22881 5.78105 5.44777C6.56209 4.66672 7.81917 4.66672 10.3333 4.66672H16.3333M26.3333 20.6667V19.0001" stroke="#286AFE" stroke-width="1.5" stroke-linecap="round" stroke-linejoin="round"/>
<path d="M4.33081 22.0206L5.02669 20.6667H26.2697L27.0037 22.0206C28.9276 25.5694 29.4068 27.3437 28.6754 28.6719C27.9442 30.0001 26.0054 30.0001 22.1278 30.0001H9.20681C5.32921 30.0001 3.3904 30.0001 2.65914 28.6719C1.92789 27.3437 2.40697 25.5694 4.33081 22.0206Z" stroke="#286AFE" stroke-width="1.5" stroke-linecap="round" stroke-linejoin="round"/>
</svg>
