<svg width="33" height="32" viewBox="0 0 33 32" fill="none" xmlns="http://www.w3.org/2000/svg">
<path d="M6.33398 11.5V8.5L7.83398 3L11.334 2H18.334H23.834L27.834 2.5L29.334 5.5L29.834 12.5L29.334 18L28.834 20.5L25.834 22L21.334 21.5L16.334 22.5C16.734 19.3 13.834 20.1667 12.334 21C15.534 13.8 9.66732 11.6667 6.33398 11.5Z" fill="#B7FFFD"/>
<path d="M14.8634 21.7646C11.0888 31.647 7.1085 20.1176 3.33398 29.9999" stroke="#1355FF" stroke-width="1.5" stroke-linecap="round" stroke-linejoin="round"/>
<path d="M18.9813 21.7647H21.454C25.3361 21.7647 27.2772 21.7647 28.4833 20.5587C29.6893 19.3526 29.6893 17.4115 29.6893 13.5294V10.2353C29.6893 6.35314 29.6893 4.41207 28.4833 3.20603C27.2772 2 25.3361 2 21.454 2H14.8658C10.9836 2 9.04252 2 7.83649 3.20603C6.81464 4.22788 6.6586 5.77743 6.63477 8.58824" stroke="#1355FF" stroke-width="1.5" stroke-linecap="round" stroke-linejoin="round"/>
<path d="M7.45163 21.7647C9.72575 21.7647 11.5693 19.9212 11.5693 17.6471C11.5693 15.373 9.72575 13.5294 7.45163 13.5294C5.17752 13.5294 3.33398 15.373 3.33398 17.6471C3.33398 19.9212 5.17752 21.7647 7.45163 21.7647Z" fill="white" stroke="#1355FF" stroke-width="1.5" stroke-linecap="round" stroke-linejoin="round"/>
<path d="M13.2168 8.58826H23.0991M23.0991 15.1765H18.158" stroke="#1355FF" stroke-width="1.5" stroke-linecap="round" stroke-linejoin="round"/>
</svg>
