<svg width="33" height="33" viewBox="0 0 33 33" fill="none" xmlns="http://www.w3.org/2000/svg">
<path d="M14.8339 27.8333C12.8339 13.4333 23.6672 13.5 29.3339 15.3333L28.834 11.3333L26.834 7.83334L24.334 3.83334L21.834 2.33334H14.8339H10.334L8.33398 3.83334L5.83398 7.33334L2.33398 13.3333V16.8333L4.83398 19.8333L7.83398 26.3333L11.334 27.8333H14.8339Z" fill="#B7FFFD"/>
<path d="M23.334 20.5333V23.3333V20.5333ZM23.3466 26.1333H23.334H23.3466ZM30.334 23.3333C30.334 27.1993 27.1999 30.3333 23.334 30.3333C19.468 30.3333 16.334 27.1993 16.334 23.3333C16.334 19.4674 19.468 16.3333 23.334 16.3333C27.1999 16.3333 30.334 19.4674 30.334 23.3333Z" fill="white"/>
<path d="M23.334 20.5333V23.3333M23.3466 26.1333H23.334M30.334 23.3333C30.334 27.1993 27.1999 30.3333 23.334 30.3333C19.468 30.3333 16.334 27.1993 16.334 23.3333C16.334 19.4674 19.468 16.3333 23.334 16.3333C27.1999 16.3333 30.334 19.4674 30.334 23.3333Z" stroke="#3C80FE" stroke-width="1.5" stroke-linecap="round"/>
<path d="M20.5738 12.4759C19.7255 11.0154 18.1442 10.0334 16.3336 10.0334C13.6274 10.0334 11.4336 12.2272 11.4336 14.9334C11.4336 16.4253 12.1003 17.7615 13.1521 18.6602" stroke="#3C80FE" stroke-width="1.5" stroke-linecap="round"/>
<path d="M29.3116 15.5693C29.278 14.8133 29.7696 12.8919 28.6408 10.9462L25.9476 6.30405C24.8233 4.3661 24.2612 3.39712 23.3366 2.86523C22.4122 2.33334 21.2903 2.33334 19.0462 2.33334H13.6218C11.3777 2.33334 10.2557 2.33334 9.33128 2.86523C8.40682 3.39712 7.84465 4.36609 6.72034 6.30404L4.02717 10.9461C2.89838 12.8919 2.33398 13.8646 2.33398 14.9333C2.33398 16.0021 2.89838 16.9748 4.02717 18.9205L6.72034 23.5627C7.84465 25.5005 8.40682 26.4696 9.33128 27.0015C10.202 27.4213 12.73 27.5333 14.974 27.5333" stroke="#3C80FE" stroke-width="1.5" stroke-linecap="round"/>
</svg>
