<svg width="33" height="32" viewBox="0 0 33 32" fill="none" xmlns="http://www.w3.org/2000/svg">
<path d="M16.7571 16.8049L29.334 17.5L28.834 24.5L26.834 27.5L23.9687 29H8.58402L3.7763 27.0488L2.81476 22.1707L2.33398 14.3659L3.7763 11.439L6.18016 9.4878L13.3917 9V12.4146C13.0071 16.3171 15.4751 16.4797 16.7571 16.8049Z" fill="#B7FFFD"/>
<path d="M30.0116 17.7627C30.0107 17.2293 29.5777 16.7978 29.0445 16.7988C28.5112 16.7997 28.0797 17.2328 28.0806 17.766L30.0116 17.7627ZM13.3955 9.40584C13.9288 9.40282 14.3586 8.96811 14.3556 8.4349C14.3525 7.90167 13.9178 7.47186 13.3846 7.47487L13.3955 9.40584ZM18.1038 28.0689H14.2418V29.9999H18.1038V28.0689ZM14.2418 28.0689C11.7999 28.0689 10.0497 28.0675 8.70493 27.9156C7.37796 27.7656 6.57393 27.4802 5.96721 27.0011L4.77043 28.5165C5.77889 29.313 6.99209 29.6653 8.48818 29.8344C9.96653 30.0013 11.8452 29.9999 14.2418 29.9999V28.0689ZM2.33399 18.7358C2.33399 20.9872 2.33214 22.7673 2.51115 24.1711C2.69356 25.6015 3.07653 26.7674 3.93411 27.7293L5.37546 26.4443C4.87774 25.886 4.58306 25.1534 4.42665 23.9268C4.26683 22.6736 4.26498 21.0383 4.26498 18.7358H2.33399ZM5.96721 27.0011C5.75243 26.8315 5.55451 26.6451 5.37546 26.4443L3.93411 27.7293C4.18862 28.0149 4.46852 28.2781 4.77043 28.5165L5.96721 27.0011ZM28.0806 18.7358C28.0806 21.0383 28.0788 22.6736 27.9189 23.9268C27.7625 25.1534 27.4679 25.886 26.9702 26.4443L28.4115 27.7293C29.2691 26.7674 29.6521 25.6015 29.8345 24.1711C30.0134 22.7673 30.0116 20.9872 30.0116 18.7358H28.0806ZM18.1038 29.9999C20.5004 29.9999 22.379 30.0013 23.8574 29.8344C25.3536 29.6653 26.5667 29.313 27.5752 28.5165L26.3784 27.0011C25.7717 27.4802 24.9676 27.7656 23.6406 27.9156C22.296 28.0675 20.5458 28.0689 18.1038 28.0689V29.9999ZM26.9702 26.4443C26.7911 26.6451 26.5933 26.8315 26.3784 27.0011L27.5752 28.5165C27.8771 28.2781 28.157 28.0149 28.4115 27.7293L26.9702 26.4443ZM4.26498 18.7358C4.26498 16.4332 4.26683 14.7979 4.42665 13.5447C4.58306 12.3181 4.87774 11.5855 5.37546 11.0272L3.93411 9.7422C3.07653 10.7041 2.69356 11.87 2.51115 13.3004C2.33214 14.7042 2.33399 16.4843 2.33399 18.7358H4.26498ZM4.77043 8.95497C4.46852 9.19339 4.18862 9.45673 3.93411 9.7422L5.37546 11.0272C5.55451 10.8264 5.75243 10.64 5.96721 10.4704L4.77043 8.95497ZM30.0116 18.7358C30.0116 18.4021 30.0122 18.0755 30.0116 17.7627L28.0806 17.766C28.0812 18.0768 28.0806 18.3974 28.0806 18.7358H30.0116ZM13.3846 7.47487C11.5726 7.48513 9.09777 7.52686 7.88957 7.71753C6.6633 7.91107 5.64065 8.26771 4.77043 8.95497L5.96721 10.4704C6.4915 10.0563 7.16308 9.78709 8.1906 9.62493C9.2362 9.45991 11.5747 9.41614 13.3955 9.40584L13.3846 7.47487Z" fill="#1355FF"/>
<path d="M3.94336 14.8733H13.5984" stroke="#1355FF" stroke-width="1.5" stroke-linecap="round" stroke-linejoin="round"/>
<path d="M25.8269 4.57458C27.3367 4.57458 27.7697 4.57458 28.2897 4.97362C28.4236 5.07635 28.5435 5.19619 28.6462 5.33007C29.0452 5.8501 29.0452 6.60498 29.0452 8.11475V11.0112C29.0452 12.8318 29.0452 13.7421 28.4796 14.3077C27.914 14.8732 27.0037 14.8732 25.1832 14.8732H20.0339C18.2133 14.8732 17.303 14.8732 16.7375 14.3077C16.1719 13.7421 16.1719 12.8318 16.1719 11.0112V8.11475C16.1719 6.60498 16.1719 5.8501 16.5709 5.33007C16.6736 5.19619 16.7935 5.07635 16.9274 4.97362C17.4474 4.57458 17.8804 4.57458 19.3902 4.57458" fill="white"/>
<path d="M25.8269 4.57458C27.3367 4.57458 27.7697 4.57458 28.2897 4.97362C28.4236 5.07635 28.5435 5.19619 28.6462 5.33007C29.0452 5.8501 29.0452 6.60498 29.0452 8.11475V11.0112C29.0452 12.8318 29.0452 13.7421 28.4796 14.3077C27.914 14.8732 27.0037 14.8732 25.1832 14.8732H20.0339C18.2133 14.8732 17.303 14.8732 16.7375 14.3077C16.1719 13.7421 16.1719 12.8318 16.1719 11.0112V8.11475C16.1719 6.60498 16.1719 5.8501 16.5709 5.33007C16.6736 5.19619 16.7935 5.07635 16.9274 4.97362C17.4474 4.57458 17.8804 4.57458 19.3902 4.57458" stroke="#1355FF" stroke-width="1.5" stroke-linecap="round"/>
<path d="M25.8273 5.21833L25.2571 3.79289C25.0111 3.17788 24.797 2.48024 24.1644 2.16706C23.827 2 23.421 2 22.609 2C21.7969 2 21.3909 2 21.0534 2.16706C20.4209 2.48024 20.2068 3.17788 19.9608 3.79289L19.3906 5.21833" fill="white"/>
<path d="M25.8273 5.21833L25.2571 3.79289C25.0111 3.17788 24.797 2.48024 24.1644 2.16706C23.827 2 23.421 2 22.609 2C21.7969 2 21.3909 2 21.0534 2.16706C20.4209 2.48024 20.2068 3.17788 19.9608 3.79289L19.3906 5.21833" stroke="#1355FF" stroke-width="1.5" stroke-linecap="round" stroke-linejoin="round"/>
<path d="M24.8611 9.7239C24.8611 10.9681 23.8525 11.9767 22.6083 11.9767C21.3641 11.9767 20.3555 10.9681 20.3555 9.7239C20.3555 8.47969 21.3641 7.47107 22.6083 7.47107C23.8525 7.47107 24.8611 8.47969 24.8611 9.7239Z" fill="white" stroke="#1355FF" stroke-width="1.5"/>
<path d="M22.6094 4.57458H22.6161H22.6094Z" fill="white"/>
<path d="M22.6094 4.57458H22.6161" stroke="#1355FF" stroke-width="1.5" stroke-linecap="round" stroke-linejoin="round"/>
</svg>
