<svg width="33" height="33" viewBox="0 0 33 33" fill="none" xmlns="http://www.w3.org/2000/svg">
<path d="M21.1005 20.5612C17.9752 22.0629 19.4602 27.4438 20.5934 29.9466H14.9621L8.58072 29.4904L3.81157 27.0722L2.73681 22.0343L2.33398 15.9216L3.07286 6.45036L5.08832 3.49479L8.58072 2.35278H15.8356H23.3588L27.3892 3.49479L29.6237 5.84578L30.334 12.8988V18.4811L29.6237 20.5612C28.7106 20.2568 26.8741 19.6379 26.8335 19.5973C25.8188 18.8262 24.6182 19.1068 24.1447 19.3436C23.1977 19.7494 21.263 20.5611 21.1005 20.5612Z" fill="#B7FFFD"/>
<path d="M19.4408 29.8128C12.9639 29.8128 6.83285 29.8128 4.82071 27.8008C2.80859 25.7886 2.80859 22.5501 2.80859 16.0732C2.80859 9.59627 2.80859 6.35781 4.82071 4.34568C6.83285 2.33356 10.0713 2.33356 16.5482 2.33356C23.0251 2.33356 26.2636 2.33356 28.2758 4.34568C30.2879 6.35781 30.2879 12.4888 30.2879 18.9658" stroke="#1355FF" stroke-width="2.16942" stroke-linecap="round"/>
<path d="M2.80859 9.56497H30.2879" stroke="#1355FF" stroke-width="2.16942" stroke-linejoin="round"/>
<path d="M14.3789 22.5815H15.8251M8.59375 22.5815H10.04M14.3789 16.7964H20.164M8.59375 16.7964H10.04" stroke="#1355FF" stroke-width="2.16942" stroke-linecap="round" stroke-linejoin="round"/>
<path d="M29.5904 25.2989V23.9478C29.5904 23.1845 29.5904 22.8029 29.4024 22.5539C29.2143 22.3049 28.789 22.184 27.9385 21.9422C27.3574 21.7771 26.8452 21.5781 26.436 21.3964C25.878 21.1487 25.599 21.0248 25.4017 21.0248C25.2043 21.0248 24.9254 21.1487 24.3674 21.3964C23.9581 21.5781 23.4459 21.777 22.8648 21.9422C22.0143 22.184 21.5891 22.3049 21.401 22.5539C21.2129 22.8029 21.2129 23.1845 21.2129 23.9478V25.2989C21.2129 27.917 23.5692 29.4878 24.7473 30.1095C25.0298 30.2587 25.1711 30.3332 25.4017 30.3332C25.6322 30.3332 25.7735 30.2587 26.056 30.1095C27.2341 29.4878 29.5904 27.917 29.5904 25.2989Z" fill="white" stroke="#1355FF" stroke-width="2.16942" stroke-linecap="round"/>
</svg>
