<svg width="33" height="32" viewBox="0 0 33 32" fill="none" xmlns="http://www.w3.org/2000/svg">
<path d="M26.0731 9.91304L24.8557 11.7391L24.834 12.5L21.8122 12.3478L18.334 13.5C14.9253 14.4739 15.7253 16.9855 16.334 18C15.3601 19.4609 16.334 20.058 16.9427 20.2609C16.4557 21.2348 17.4282 22.9855 17.834 24C16.8601 23.513 14.305 25.5362 13.2905 26.3478H12.6818L11.4644 25.1304L10.8557 23.3043L9.02964 22.087H6.59485H4.16007L2.33398 19.6522L2.94268 17.2174L4.76877 15.3913V12.9565L2.94268 10.5217L2.33398 8.69565L4.16007 5.65217L7.20355 6.26087L9.63833 6.86957L10.8557 3.82609L12.6818 2H16.334L17.5514 4.43478L19.3775 6.26087H21.2035L23.6383 5.65217L24.8557 7.47826L26.0731 9.91304Z" fill="#B7FFFD"/>
<path d="M30.3339 30H15.1165L14.5078 29.3913L15.7252 27.5653L19.3774 25.7392L19.9861 23.9131L18.7687 22.087L18.16 19.0435L16.9426 16.6087L19.3774 14.7826L23.0296 14.174L27.2904 16L26.6817 18.4348L26.073 21.4783L24.8556 23.9131L25.4643 26.3479L29.1165 27.5653L30.3339 30Z" fill="white"/>
<path d="M24.5295 11.8072C25.1138 11.1499 26.1218 10.1565 26.068 9.75196C26.1094 9.35847 25.8963 8.98884 25.4704 8.24958L24.8696 7.20676C24.4151 6.4181 24.1879 6.02376 23.8012 5.86652C23.4147 5.70927 22.9774 5.83336 22.103 6.08151L20.6174 6.49993C20.0591 6.62867 19.4734 6.55564 18.9635 6.29372L18.5534 6.05709C18.1164 5.7771 17.7801 5.36429 17.594 4.87905L17.1874 3.66483C16.9202 2.86134 16.7865 2.45959 16.4683 2.22979C16.15 2 15.7274 2 14.8821 2H13.525C12.6796 2 12.2569 2 11.9389 2.22979C11.6206 2.45959 11.487 2.86134 11.2196 3.66483L10.8131 4.87905C10.627 5.36429 10.2908 5.7771 9.8536 6.05709L9.44346 6.29372C8.93374 6.55564 8.34793 6.62867 7.78963 6.49993L6.30418 6.08151C5.42973 5.83336 4.99245 5.70927 4.6058 5.86652C4.21916 6.02376 3.99199 6.4181 3.53754 7.20676L2.93664 8.24958C2.51068 8.98884 2.29776 9.35847 2.33903 9.75196C2.38042 10.1454 2.66554 10.4625 3.23575 11.0967L4.491 12.4999C4.79766 12.8883 5.01558 13.5652 5.01558 14.1736C5.01558 14.7825 4.79779 15.4592 4.491 15.8476L3.23575 17.2509C2.66554 17.8851 2.38042 18.2022 2.33903 18.5957C2.29776 18.9892 2.51068 19.3588 2.93664 20.098L3.53754 21.1409C3.99199 21.9295 4.21916 22.3239 4.6058 22.4811C4.99245 22.6384 5.42973 22.5143 6.30418 22.2661L7.78963 21.8477C8.34805 21.7189 8.93386 21.792 9.4437 22.054L9.85372 22.2907C10.2909 22.5707 10.627 22.9834 10.813 23.4686L11.2196 24.683C11.487 25.4865 11.6348 25.9041 11.8783 26.0799C11.9514 26.1328 12.2435 26.3721 12.9594 26.3502" stroke="#1355FF" stroke-width="1.82609" stroke-linecap="round"/>
<path d="M27.1695 18.9218C25.8471 18.4249 24.2031 18.1305 22.4217 18.1305C20.6402 18.1305 18.9963 18.4249 17.6738 18.9218" stroke="#1355FF" stroke-width="1.82609" stroke-linecap="round"/>
<path d="M18.4403 18.9218L17.863 17.804C17.405 16.9172 17.176 16.4737 17.3202 16.0818C17.4645 15.6899 17.9083 15.5496 18.7959 15.269L21.9379 14.2757C22.1524 14.2079 22.2597 14.174 22.3697 14.174C22.4797 14.174 22.587 14.2079 22.8015 14.2757L26.155 15.3358C26.9546 15.5886 27.3544 15.715 27.5068 16.0698C27.6593 16.4246 27.4955 16.8475 27.168 17.6931L26.6921 18.9218" stroke="#1355FF" stroke-width="1.82609" stroke-linecap="round"/>
<path d="M18.4648 18.9218V20.2869C18.4648 21.7059 19.194 23.0209 20.3858 23.7509L20.7929 24.0003C21.7952 24.6144 23.0475 24.6144 24.0499 24.0003L24.457 23.7509C25.6487 23.0209 26.3779 21.7059 26.3779 20.2869V18.9218" stroke="#1355FF" stroke-width="1.82609" stroke-linecap="round"/>
<path d="M24.7948 23.6697L25.5861 26.0436L26.9583 26.501C27.7481 26.7642 28.1429 26.8959 28.4935 27.0993C28.8367 27.2985 29.1479 27.5482 29.4168 27.8399C29.6914 28.138 30.3339 29.2088 30.3339 30.0001M20.0469 23.6697L19.2556 26.0436L17.8834 26.501C17.0936 26.7642 16.6988 26.8959 16.3482 27.0993C16.0051 27.2985 15.6938 27.5482 15.425 27.8399C15.1503 28.138 14.5078 29.2088 14.5078 30.0001" stroke="#1355FF" stroke-width="1.82609" stroke-linecap="round" stroke-linejoin="round"/>
<path d="M13.291 14.174H13.302" stroke="#1355FF" stroke-width="1.82609" stroke-linecap="round" stroke-linejoin="round"/>
</svg>
