<svg width="20" height="21" viewBox="0 0 20 21" fill="none" xmlns="http://www.w3.org/2000/svg">
<path d="M9.71643 2.146C4.88457 2.146 0.966797 6.06377 0.966797 10.8956C0.966797 15.7275 4.88457 19.646 9.71643 19.646C14.5483 19.646 18.4668 15.7275 18.4668 10.8956C18.4668 6.06377 14.5483 2.146 9.71643 2.146ZM11.5379 15.7067C11.0875 15.8845 10.729 16.0193 10.4601 16.1127C10.192 16.206 9.88013 16.2527 9.52532 16.2527C8.98013 16.2527 8.55569 16.1193 8.25346 15.8534C7.95124 15.5875 7.80087 15.2504 7.80087 14.8408C7.80087 14.6816 7.81198 14.5186 7.8342 14.3527C7.85717 14.1867 7.89346 14.0001 7.94309 13.7904L8.5068 11.7993C8.55643 11.6082 8.59939 11.4267 8.63346 11.2578C8.66754 11.0875 8.68383 10.9312 8.68383 10.789C8.68383 10.5356 8.63124 10.3578 8.5268 10.2578C8.42087 10.1578 8.22161 10.109 7.92457 10.109C7.77939 10.109 7.62976 10.1304 7.47643 10.1756C7.32457 10.2223 7.19272 10.2645 7.08457 10.306L7.23346 9.69266C7.60235 9.54229 7.95569 9.4134 8.29272 9.30674C8.62976 9.19859 8.94828 9.14526 9.24828 9.14526C9.78976 9.14526 10.2075 9.27711 10.5016 9.53785C10.7942 9.79933 10.9416 10.1393 10.9416 10.5571C10.9416 10.6438 10.9312 10.7964 10.9112 11.0141C10.8912 11.2327 10.8535 11.4319 10.7986 11.6149L10.2379 13.6001C10.192 13.7593 10.1512 13.9416 10.1142 14.1453C10.0779 14.349 10.0601 14.5045 10.0601 14.609C10.0601 14.8727 10.1186 15.0527 10.2372 15.1482C10.3542 15.2438 10.5594 15.2919 10.8498 15.2919C10.9868 15.2919 11.1401 15.2675 11.3135 15.2201C11.4853 15.1727 11.6098 15.1304 11.6883 15.0941L11.5379 15.7067ZM11.4386 7.64896C11.1772 7.89192 10.8624 8.0134 10.4942 8.0134C10.1268 8.0134 9.80976 7.89192 9.54606 7.64896C9.28383 7.406 9.15124 7.11044 9.15124 6.76526C9.15124 6.42081 9.28457 6.12451 9.54606 5.87933C9.80976 5.6334 10.1268 5.51118 10.4942 5.51118C10.8624 5.51118 11.1779 5.6334 11.4386 5.87933C11.7001 6.12451 11.8312 6.42081 11.8312 6.76526C11.8312 7.11118 11.7001 7.406 11.4386 7.64896Z" fill="#1355FF"/>
</svg>
