<svg width="24" height="25" viewBox="0 0 24 25" fill="none" xmlns="http://www.w3.org/2000/svg">
<path d="M4 8.10103C4 7.02632 4.89543 6.15509 6 6.15509H18C19.1046 6.15509 20 7.02632 20 8.10103V19.7767C20 20.8514 19.1046 21.7227 18 21.7227H6C4.89543 21.7227 4 20.8514 4 19.7767V8.10103Z" fill="#3448FF"/>
<path d="M7 9.07401C7 8.53665 7.44772 8.10103 8 8.10103H16C16.5523 8.10103 17 8.53665 17 9.07401C17 9.61137 16.5523 10.047 16 10.047H8C7.44772 10.047 7 9.61137 7 9.07401Z" fill="white"/>
<path d="M8 3.72266C6.89543 3.72266 6 4.59389 6 5.6686V6.15509H18V5.6686C18 4.59389 17.1046 3.72266 16 3.72266H8Z" fill="#52B9F3"/>
</svg>
