<svg width="33" height="32" viewBox="0 0 33 32" fill="none" xmlns="http://www.w3.org/2000/svg">
<path d="M28.334 14.911V11.0403C28.334 8.85368 28.334 7.76033 27.7952 7.04701C27.2564 6.33368 26.0381 5.98737 23.6016 5.29476C21.9368 4.82156 20.4695 4.25147 19.2971 3.73101C17.6985 3.02143 16.8992 2.66663 16.334 2.66663C15.7687 2.66663 14.9695 3.02143 13.3709 3.73101C12.1985 4.25147 10.7311 4.82155 9.06642 5.29476C6.62989 5.98737 5.41162 6.33368 4.87281 7.04701C4.33398 7.76033 4.33398 8.85368 4.33398 11.0403V14.911C4.33398 22.4113 11.0844 26.9113 14.4592 28.6925C15.2687 29.1197 15.6735 29.3333 16.334 29.3333C16.9945 29.3333 17.3992 29.1197 18.2087 28.6925C21.5836 26.9113 28.334 22.4113 28.334 14.911Z" fill="#B7FFFD" stroke="#1355FF" stroke-width="2" stroke-linecap="round"/>
<path d="M14.2817 8.66797V11.3067V8.66797ZM9.66699 13.3352H12.3826H9.66699ZM20.2848 13.3352H23.0004H20.2848ZM20.2848 17.2995H23.0004H20.2848ZM9.66699 17.2995H12.3826H9.66699ZM14.2817 19.3603V21.9989V19.3603ZM18.2857 19.3603V21.9989V19.3603ZM18.2714 8.66797V11.3067V8.66797ZM13.706 19.2913H18.9613C19.6922 19.2913 20.2848 18.6944 20.2848 17.958V12.64C20.2848 11.9036 19.6922 11.3067 18.9613 11.3067H13.706C12.9751 11.3067 12.3826 11.9036 12.3826 12.64V17.958C12.3826 18.6944 12.9751 19.2913 13.706 19.2913Z" fill="white"/>
<path d="M14.2817 8.66797V11.3067M9.66699 13.3352H12.3826M20.2848 13.3352H23.0004M20.2848 17.2995H23.0004M9.66699 17.2995H12.3826M14.2817 19.3603V21.9989M18.2857 19.3603V21.9989M18.2714 8.66797V11.3067M13.706 19.2913H18.9613C19.6922 19.2913 20.2848 18.6944 20.2848 17.958V12.64C20.2848 11.9036 19.6922 11.3067 18.9613 11.3067H13.706C12.9751 11.3067 12.3826 11.9036 12.3826 12.64V17.958C12.3826 18.6944 12.9751 19.2913 13.706 19.2913Z" stroke="#1355FF" stroke-width="2" stroke-linecap="round"/>
</svg>
