<svg width="24" height="25" viewBox="0 0 24 25" fill="none" xmlns="http://www.w3.org/2000/svg">
<path d="M5 8.72266C5 7.0658 6.34315 5.72266 8 5.72266H16C17.6569 5.72266 19 7.0658 19 8.72266V16.7227C19 18.3795 17.6569 19.7227 16 19.7227H8C6.34315 19.7227 5 18.3795 5 16.7227V8.72266Z" fill="#3448FF"/>
<path d="M9.5 11.2227C9.5 10.6704 9.94772 10.2227 10.5 10.2227H13.5C14.0523 10.2227 14.5 10.6704 14.5 11.2227V14.2227C14.5 14.7749 14.0523 15.2227 13.5 15.2227H10.5C9.94772 15.2227 9.5 14.7749 9.5 14.2227V11.2227Z" fill="white"/>
<path fill-rule="evenodd" clip-rule="evenodd" d="M10 3.72266C10.5523 3.72266 11 4.17037 11 4.72266V6.72266C11 7.27494 10.5523 7.72266 10 7.72266C9.44772 7.72266 9 7.27494 9 6.72266V4.72266C9 4.17037 9.44772 3.72266 10 3.72266Z" fill="#52B9F3"/>
<path fill-rule="evenodd" clip-rule="evenodd" d="M10 17.7227C10.5523 17.7227 11 18.1704 11 18.7227V20.7227C11 21.2749 10.5523 21.7227 10 21.7227C9.44772 21.7227 9 21.2749 9 20.7227V18.7227C9 18.1704 9.44772 17.7227 10 17.7227Z" fill="#52B9F3"/>
<path fill-rule="evenodd" clip-rule="evenodd" d="M3 14.7227C3 14.1704 3.44772 13.7227 4 13.7227H6C6.55228 13.7227 7 14.1704 7 14.7227C7 15.2749 6.55228 15.7227 6 15.7227H4C3.44772 15.7227 3 15.2749 3 14.7227Z" fill="#52B9F3"/>
<path fill-rule="evenodd" clip-rule="evenodd" d="M17 14.7227C17 14.1704 17.4477 13.7227 18 13.7227H20C20.5523 13.7227 21 14.1704 21 14.7227C21 15.2749 20.5523 15.7227 20 15.7227H18C17.4477 15.7227 17 15.2749 17 14.7227Z" fill="#52B9F3"/>
<path fill-rule="evenodd" clip-rule="evenodd" d="M14 3.72266C14.5523 3.72266 15 4.17037 15 4.72266V6.72266C15 7.27494 14.5523 7.72266 14 7.72266C13.4477 7.72266 13 7.27494 13 6.72266V4.72266C13 4.17037 13.4477 3.72266 14 3.72266Z" fill="#52B9F3"/>
<path fill-rule="evenodd" clip-rule="evenodd" d="M14 17.7227C14.5523 17.7227 15 18.1704 15 18.7227V20.7227C15 21.2749 14.5523 21.7227 14 21.7227C13.4477 21.7227 13 21.2749 13 20.7227V18.7227C13 18.1704 13.4477 17.7227 14 17.7227Z" fill="#52B9F3"/>
<path fill-rule="evenodd" clip-rule="evenodd" d="M3 10.7227C3 10.1704 3.44772 9.72266 4 9.72266H6C6.55228 9.72266 7 10.1704 7 10.7227C7 11.2749 6.55228 11.7227 6 11.7227H4C3.44772 11.7227 3 11.2749 3 10.7227Z" fill="#52B9F3"/>
<path fill-rule="evenodd" clip-rule="evenodd" d="M17 10.7227C17 10.1704 17.4477 9.72266 18 9.72266H20C20.5523 9.72266 21 10.1704 21 10.7227C21 11.2749 20.5523 11.7227 20 11.7227H18C17.4477 11.7227 17 11.2749 17 10.7227Z" fill="#52B9F3"/>
</svg>
