<svg width="20" height="21" viewBox="0 0 20 21" fill="none" xmlns="http://www.w3.org/2000/svg">
<path d="M14.7747 19.4727H5.22923C5.01826 19.4727 4.81593 19.3889 4.66675 19.2397C4.51758 19.0905 4.43377 18.8882 4.43377 18.6772C4.43377 18.4662 4.51758 18.2639 4.66675 18.1147C4.81593 17.9656 5.01826 17.8817 5.22923 17.8817H14.7747C14.9856 17.8817 15.188 17.9656 15.3372 18.1147C15.4863 18.2639 15.5701 18.4662 15.5701 18.6772C15.5701 18.8882 15.4863 19.0905 15.3372 19.2397C15.188 19.3889 14.9856 19.4727 14.7747 19.4727ZM18.752 5.94993V12.3136C18.752 12.8359 18.6491 13.3531 18.4492 13.8356C18.2493 14.3181 17.9564 14.7566 17.587 15.1259C17.2177 15.4952 16.7793 15.7882 16.2967 15.9881C15.8142 16.188 15.297 16.2908 14.7747 16.2908H5.22923C4.70692 16.2908 4.18973 16.188 3.70719 15.9881C3.22464 15.7882 2.78619 15.4952 2.41687 15.1259C1.67099 14.38 1.25195 13.3684 1.25195 12.3136V5.94993C1.25195 4.89509 1.67099 3.88346 2.41687 3.13757C3.16275 2.39169 4.17439 1.97266 5.22923 1.97266H14.7747C15.297 1.97266 15.8142 2.07553 16.2967 2.27541C16.7793 2.47528 17.2177 2.76825 17.587 3.13757C17.9564 3.5069 18.2493 3.94535 18.4492 4.42789C18.6491 4.91044 18.752 5.42763 18.752 5.94993ZM4.43377 7.54084C4.43377 7.75181 4.51758 7.95413 4.66675 8.10331C4.81593 8.25249 5.01826 8.33629 5.22923 8.33629H10.002C10.2129 8.33629 10.4152 8.25249 10.5644 8.10331C10.7136 7.95413 10.7974 7.75181 10.7974 7.54084C10.7974 7.32987 10.7136 7.12754 10.5644 6.97837C10.4152 6.82919 10.2129 6.74538 10.002 6.74538H5.22923C5.01826 6.74538 4.81593 6.82919 4.66675 6.97837C4.51758 7.12754 4.43377 7.32987 4.43377 7.54084ZM15.5701 10.7227C15.5701 10.5117 15.4863 10.3094 15.3372 10.1602C15.188 10.011 14.9856 9.9272 14.7747 9.9272H5.22923C5.01826 9.9272 4.81593 10.011 4.66675 10.1602C4.51758 10.3094 4.43377 10.5117 4.43377 10.7227C4.43377 10.9336 4.51758 11.136 4.66675 11.2851C4.81593 11.4343 5.01826 11.5181 5.22923 11.5181H14.7747C14.9856 11.5181 15.188 11.4343 15.3372 11.2851C15.4863 11.136 15.5701 10.9336 15.5701 10.7227Z" fill="#1355FF"/>
</svg>
