<svg width="17" height="17" viewBox="0 0 17 17" fill="none" xmlns="http://www.w3.org/2000/svg">
<path d="M8.20898 2.05591H4.20898C2.55432 2.05591 2.20898 2.40124 2.20898 4.05591V15.3892H10.209V4.05591C10.209 2.40124 9.86365 2.05591 8.20898 2.05591Z" stroke="#666666" stroke-linejoin="round"/>
<path d="M12.209 6.05591H10.209V15.3892H14.209V8.05591C14.209 6.40124 13.8637 6.05591 12.209 6.05591Z" stroke="#666666" stroke-linejoin="round"/>
<path d="M5.54199 4.72266H6.87533M5.54199 6.72266H6.87533M5.54199 8.72266H6.87533" stroke="#666666" stroke-linecap="round" stroke-linejoin="round"/>
<path d="M7.87533 15.3894V12.7227C7.87533 12.0942 7.87533 11.7799 7.68006 11.5847C7.48479 11.3894 7.17053 11.3894 6.54199 11.3894H5.87533C5.24679 11.3894 4.93252 11.3894 4.73725 11.5847C4.54199 11.7799 4.54199 12.0942 4.54199 12.7227V15.3894" stroke="#666666" stroke-linejoin="round"/>
</svg>
