<svg width="20" height="20" viewBox="0 0 20 20" fill="none" xmlns="http://www.w3.org/2000/svg">
<path d="M11.5156 3.18182V5.45455M15.3035 4.69698L13.7884 6.21213M16.8187 8.48485H14.5459" stroke="#1355FF" stroke-width="1.5" stroke-linecap="round" stroke-linejoin="round"/>
<path d="M7.84698 5.23654L7.54194 4.55019C7.34249 4.10143 7.24276 3.87704 7.09361 3.70532C6.90669 3.49011 6.66306 3.33178 6.39048 3.24838C6.17299 3.18182 5.92744 3.18182 5.43635 3.18182C4.71794 3.18182 4.35872 3.18182 4.05719 3.31992C3.702 3.4826 3.38121 3.83582 3.25341 4.20501C3.14491 4.51841 3.17598 4.84048 3.23814 5.48463C3.89975 12.3411 7.65877 16.1001 14.5152 16.7617C15.1594 16.8239 15.4814 16.8549 15.7948 16.7464C16.164 16.6186 16.5172 16.2978 16.6799 15.9427C16.818 15.6411 16.818 15.2819 16.818 14.5635C16.818 14.0724 16.818 13.8268 16.7515 13.6093C16.6681 13.3367 16.5097 13.0931 16.2945 12.9062C16.1228 12.757 15.8984 12.6574 15.4496 12.4579L14.7633 12.1528C14.2772 11.9368 14.0343 11.8289 13.7873 11.8054C13.551 11.7829 13.3128 11.8161 13.0916 11.9022C12.8604 11.9922 12.6561 12.1624 12.2476 12.5029C11.8408 12.8418 11.6375 13.0113 11.389 13.102C11.1688 13.1825 10.8775 13.2124 10.6455 13.1781C10.3838 13.1396 10.1834 13.0325 9.78263 12.8183C8.53558 12.1519 7.84795 11.4642 7.18154 10.2172C6.96735 9.81644 6.86026 9.61599 6.82169 9.35432C6.7875 9.12228 6.81731 8.83107 6.89778 8.61084C6.98855 8.36234 7.15801 8.15899 7.49694 7.75228C7.83741 7.3437 8.00766 7.13941 8.09766 6.90827C8.1838 6.68708 8.21695 6.44879 8.19447 6.21249C8.17099 5.96555 8.06299 5.72255 7.84698 5.23654Z" stroke="#1355FF" stroke-width="1.5" stroke-linecap="round"/>
</svg>
