<svg width="33" height="33" viewBox="0 0 33 33" fill="none" xmlns="http://www.w3.org/2000/svg">
<path d="M4.82216 16.2534C3.49494 13.939 2.85408 12.0493 2.46767 10.1337C1.89616 7.3006 3.20403 4.53312 5.37063 2.76724C6.28633 2.02092 7.33602 2.27591 7.8775 3.24735L9.09995 5.44046C10.0689 7.17879 10.5534 8.04794 10.4573 8.96942C10.3612 9.8909 9.70782 10.6414 8.40106 12.1424L4.82216 16.2534ZM4.82216 16.2534C7.50861 20.9376 11.7245 25.1558 16.4141 27.8454L4.82216 16.2534ZM16.4141 27.8454C18.7285 29.1726 20.6182 29.8135 22.5338 30.1999C25.3669 30.7714 28.1344 29.4635 29.9002 27.2968C30.6465 26.3812 30.3916 25.3315 29.4201 24.79L27.227 23.5675C25.4887 22.5986 24.6195 22.1142 23.6981 22.2102C22.7766 22.3063 22.026 22.9596 20.5251 24.2664L16.4141 27.8454Z" fill="#B7FFFD"/>
<path d="M4.82216 16.2534C3.49494 13.939 2.85408 12.0493 2.46767 10.1337C1.89616 7.3006 3.20403 4.53312 5.37063 2.76724C6.28633 2.02092 7.33602 2.27591 7.8775 3.24735L9.09995 5.44046C10.0689 7.17879 10.5534 8.04793 10.4573 8.96942C10.3612 9.8909 9.70782 10.6414 8.40106 12.1424L4.82216 16.2534ZM4.82216 16.2534C7.50861 20.9376 11.7245 25.1558 16.4141 27.8454M16.4141 27.8454C18.7285 29.1726 20.6182 29.8135 22.5338 30.1999C25.3669 30.7714 28.1344 29.4635 29.9002 27.2968C30.6465 26.3812 30.3916 25.3315 29.4201 24.79L27.227 23.5675C25.4887 22.5986 24.6195 22.1142 23.6981 22.2102C22.7766 22.3063 22.026 22.9596 20.5251 24.2664L16.4141 27.8454Z" stroke="#1355FF" stroke-width="1.9" stroke-linejoin="round"/>
<path d="M16.3335 9.33398H17.5334C18.0992 9.33398 18.382 9.33398 18.5578 9.50484C18.7335 9.6757 18.7335 9.95068 18.7335 10.5006C18.7335 11.6006 18.7335 12.1506 18.382 12.4923C18.1147 12.7522 17.7236 12.8144 17.0538 12.8293C16.7104 12.8369 16.5386 12.8408 16.436 12.9428C16.3335 13.0448 16.3335 13.2078 16.3335 13.534V15.1674C16.3335 15.7173 16.3335 15.9922 16.5092 16.1632C16.685 16.334 16.9678 16.334 17.5334 16.334H18.7335M24.7335 9.33398V12.834M24.7335 12.834H22.6936C22.2409 12.834 22.0147 12.834 21.8741 12.6973C21.7334 12.5606 21.7334 12.3406 21.7334 11.9006V9.33398M24.7335 12.834V16.334" stroke="#1355FF" stroke-width="1.9" stroke-linecap="round" stroke-linejoin="round"/>
<path d="M13.5337 5.56124C13.6583 5.42124 13.7878 5.28402 13.9221 5.14979C17.6764 1.39538 23.7635 1.39538 27.5179 5.14979C31.2723 8.90419 31.2723 14.9913 27.5179 18.7456C27.3836 18.8799 27.2464 19.0094 27.1064 19.134" stroke="#1355FF" stroke-width="1.9" stroke-linecap="round"/>
</svg>
