<svg width="24" height="25" viewBox="0 0 24 25" fill="none" xmlns="http://www.w3.org/2000/svg">
<path d="M2.00683 10.1665H18.0068H2.00683ZM2.00683 10.1665C2.00683 10.9465 1.98684 13.2065 2.01083 15.4265C2.0468 16.1465 2.16671 16.7465 5.00854 17.1665M2.00683 10.1665C2.22267 8.4265 3.16195 6.3665 3.64158 5.5865L2.00683 10.1665ZM9.00683 10.1665V5.1665V10.1665ZM14.9969 17.1665H9.0015H14.9969ZM2.02282 5.1665H12.239C12.239 5.1665 12.7786 5.1665 13.2582 5.2145C14.1576 5.2985 14.913 5.7065 15.6684 6.7265C16.4683 7.8065 17.0833 9.1745 17.8987 9.9065C19.2537 11.1229 21.8317 10.7465 21.9756 13.3265C22.0116 14.6465 22.0116 16.0865 21.9516 16.3265C21.8553 17.0332 21.3104 17.1486 20.6326 17.1665C20.0444 17.1821 4.8454 16.2986 4.5 16.3265" fill="#B7FFFD"/>
<path d="M2.00683 10.1665H18.0068M2.00683 10.1665C2.00683 10.9465 1.98684 13.2065 2.01083 15.4265C2.0468 16.1465 2.16671 16.7465 5.00854 17.1665M2.00683 10.1665C2.22267 8.4265 3.16195 6.3665 3.64158 5.5865M9.00683 10.1665V5.1665M14.9969 17.1665H9.0015M2.02282 5.1665H12.239C12.239 5.1665 12.7786 5.1665 13.2582 5.2145C14.1576 5.2985 14.913 5.7065 15.6684 6.7265C16.4683 7.8065 17.0833 9.1745 17.8987 9.9065C19.2537 11.1229 21.8317 10.7465 21.9756 13.3265C22.0116 14.6465 22.0116 16.0865 21.9516 16.3265C21.8553 17.0332 21.3104 17.1486 20.6326 17.1665C20.0444 17.1821 4.8454 16.2986 4.5 16.3265" stroke="#1355FF" stroke-width="1.5" stroke-linecap="round"/>
<path d="M9.00684 17.1665C9.00684 18.2711 8.11141 19.1665 7.00684 19.1665C5.90227 19.1665 5.00684 18.2711 5.00684 17.1665C5.00684 16.0619 5.90227 15.1665 7.00684 15.1665C8.11141 15.1665 9.00684 16.0619 9.00684 17.1665Z" fill="#B7FFFD" stroke="#1355FF" stroke-width="1.5"/>
<path d="M19.0068 17.1665C19.0068 18.2711 18.1114 19.1665 17.0068 19.1665C15.9022 19.1665 15.0068 18.2711 15.0068 17.1665C15.0068 16.0619 15.9022 15.1665 17.0068 15.1665C18.1114 15.1665 19.0068 16.0619 19.0068 17.1665Z" fill="#B7FFFD" stroke="#1355FF" stroke-width="1.5"/>
</svg>
