<svg width="24" height="25" viewBox="0 0 24 25" fill="none" xmlns="http://www.w3.org/2000/svg">
<path d="M2.00683 10.5H18.0068H2.00683ZM2.00683 10.5C2.00683 11.28 1.98684 13.54 2.01083 15.76C2.0468 16.48 2.16671 17.08 5.00854 17.5M2.00683 10.5C2.22267 8.76 3.16195 6.7 3.64158 5.92L2.00683 10.5ZM9.00683 10.5V5.5V10.5ZM14.9969 17.5H9.0015H14.9969ZM2.02282 5.5H12.239C12.239 5.5 12.7786 5.5 13.2582 5.548C14.1576 5.632 14.913 6.04 15.6684 7.06C16.4683 8.14 17.0833 9.508 17.8987 10.24C19.2537 11.4564 21.8317 11.08 21.9756 13.66C22.0116 14.98 22.0116 16.42 21.9516 16.66C21.8553 17.3667 21.3104 17.4821 20.6326 17.5C20.0444 17.5156 19.3353 17.4721 18.9899 17.5" fill="white"/>
<path d="M2.00683 10.5H18.0068M2.00683 10.5C2.00683 11.28 1.98684 13.54 2.01083 15.76C2.0468 16.48 2.16671 17.08 5.00854 17.5M2.00683 10.5C2.22267 8.76 3.16195 6.7 3.64158 5.92M9.00683 10.5V5.5M14.9969 17.5H9.0015M2.02282 5.5H12.239C12.239 5.5 12.7786 5.5 13.2582 5.548C14.1576 5.632 14.913 6.04 15.6684 7.06C16.4683 8.14 17.0833 9.508 17.8987 10.24C19.2537 11.4564 21.8317 11.08 21.9756 13.66C22.0116 14.98 22.0116 16.42 21.9516 16.66C21.8553 17.3667 21.3104 17.4821 20.6326 17.5C20.0444 17.5156 19.3353 17.4721 18.9899 17.5" stroke="white" stroke-width="1.5" stroke-linecap="round"/>
<path d="M9.00684 17.5C9.00684 18.6046 8.11141 19.5 7.00684 19.5C5.90227 19.5 5.00684 18.6046 5.00684 17.5C5.00684 16.3954 5.90227 15.5 7.00684 15.5C8.11141 15.5 9.00684 16.3954 9.00684 17.5Z" fill="white" stroke="white" stroke-width="1.5"/>
<path d="M19.0068 17.5C19.0068 18.6046 18.1114 19.5 17.0068 19.5C15.9022 19.5 15.0068 18.6046 15.0068 17.5C15.0068 16.3954 15.9022 15.5 17.0068 15.5C18.1114 15.5 19.0068 16.3954 19.0068 17.5Z" fill="white" stroke="white" stroke-width="1.5"/>
</svg>
