<svg width="163" height="62" viewBox="0 0 163 62" fill="none" xmlns="http://www.w3.org/2000/svg">
<path d="M56.0825 29.7351C56.3653 29.5306 56.7252 29.4539 57.1107 29.4539C57.3164 29.4539 57.522 29.4795 57.7277 29.5562C57.9076 29.6073 58.0876 29.7095 58.2161 29.8117C58.3703 29.9395 58.4732 30.0673 58.576 30.2206C58.6788 30.374 58.7302 30.5784 58.7559 30.7829H60.3754C60.324 30.3484 60.1955 29.9651 60.0155 29.6073C59.8356 29.275 59.6042 28.9939 59.2958 28.7383C59.013 28.5083 58.6788 28.3294 58.2932 28.2016C57.9076 28.0738 57.4963 28.0227 57.0593 28.0227C56.391 28.0227 55.7997 28.1761 55.2599 28.4827C54.7201 28.7894 54.3088 29.2239 54.0003 29.8117C53.6918 30.3995 53.5376 31.0896 53.5376 31.9074C53.5376 32.7253 53.6918 33.4153 54.0003 34.0031C54.3088 34.591 54.7201 35.0254 55.2599 35.3321C55.7997 35.6388 56.391 35.7922 57.085 35.7922C57.5735 35.7922 58.0105 35.7155 58.3961 35.5621C58.7816 35.4088 59.1158 35.2299 59.3986 34.9743C59.6814 34.7188 59.9127 34.4376 60.067 34.1054C60.2212 33.7731 60.3497 33.4409 60.3754 33.1086H58.7559C58.7302 33.3131 58.6531 33.492 58.5503 33.6453C58.4475 33.7987 58.3446 33.9265 58.1904 34.0543C58.0362 34.1565 57.8819 34.2587 57.702 34.3098C57.522 34.3609 57.3164 34.3865 57.1107 34.3865C56.7252 34.3865 56.391 34.2843 56.1082 34.1054C55.8254 33.9265 55.5941 33.6453 55.4398 33.2875C55.2856 32.9297 55.2085 32.4697 55.2085 31.933C55.2085 31.4218 55.2856 30.9618 55.4398 30.604C55.5684 30.2206 55.7997 29.9395 56.0825 29.7351Z" fill="#231F20"/>
<path d="M65.4654 30.3996C65.2341 30.2462 64.977 30.1184 64.6942 30.0673C64.4115 29.9906 64.103 29.9651 63.7945 29.9651C63.3318 29.9651 62.9462 30.0418 62.5863 30.1695C62.2522 30.2973 61.9694 30.5018 61.738 30.7574C61.5324 31.0129 61.3782 31.2941 61.301 31.6519L62.7663 31.7797C62.8177 31.6008 62.9205 31.4474 63.1005 31.3196C63.2804 31.1918 63.4861 31.1407 63.7688 31.1407C64.0259 31.1407 64.2572 31.1918 64.3858 31.3196C64.54 31.4474 64.6171 31.6263 64.6171 31.8563V31.8819C64.6171 32.0097 64.5657 32.0864 64.4886 32.163C64.3858 32.2141 64.2572 32.2653 64.0516 32.2908C63.8459 32.3164 63.5889 32.3419 63.2547 32.393C62.9719 32.4186 62.7149 32.4697 62.4578 32.5208C62.2008 32.5719 61.9694 32.6742 61.7637 32.8275C61.5581 32.9553 61.4039 33.1342 61.301 33.3387C61.1725 33.5431 61.1211 33.8243 61.1211 34.1309C61.1211 34.5143 61.1982 34.821 61.3782 35.0766C61.5324 35.3321 61.7637 35.511 62.0465 35.6388C62.3293 35.7666 62.6635 35.8177 63.0233 35.8177C63.3061 35.8177 63.5632 35.7922 63.7688 35.7155C63.9745 35.6388 64.1801 35.5366 64.3087 35.4088C64.4629 35.281 64.5914 35.1277 64.6685 34.9488H64.72V35.7411H66.2109V31.933C66.2109 31.6008 66.1338 31.3196 66.0053 31.0641C65.8767 30.7574 65.6968 30.5785 65.4654 30.3996ZM64.6428 33.6709C64.6428 33.8754 64.5914 34.0543 64.4886 34.2076C64.3858 34.361 64.2572 34.4887 64.0773 34.591C63.8974 34.6932 63.6917 34.7188 63.4603 34.7188C63.229 34.7188 63.0233 34.6677 62.8691 34.5399C62.7149 34.4376 62.6378 34.2587 62.6378 34.0543C62.6378 33.9009 62.6635 33.7731 62.7406 33.6965C62.8177 33.5942 62.9205 33.5176 63.0748 33.4665C63.2033 33.4153 63.3832 33.3642 63.5632 33.3387C63.6403 33.3387 63.7431 33.3131 63.8459 33.2876C63.9488 33.262 64.0516 33.262 64.1544 33.2364C64.2572 33.2109 64.3601 33.1853 64.4372 33.1598C64.5143 33.1342 64.5914 33.1087 64.6428 33.0831V33.6709Z" fill="#231F20"/>
<path d="M70.2728 29.9395C69.9643 29.9395 69.6815 30.0417 69.4245 30.2206C69.1674 30.3995 69.0132 30.6551 68.9104 31.0129H68.8589V30.0161H67.3423V35.6643H68.9104V32.4696C68.9104 32.2396 68.9618 32.0352 69.0646 31.8563C69.1674 31.6774 69.3217 31.5496 69.5016 31.4473C69.6815 31.3451 69.8872 31.294 70.1185 31.294C70.2214 31.294 70.3499 31.294 70.4784 31.3196C70.607 31.3451 70.7098 31.3451 70.7869 31.3707V30.0161C70.7098 29.9906 70.6327 29.9906 70.5556 29.965C70.4527 29.965 70.3756 29.9395 70.2728 29.9395Z" fill="#231F20"/>
<path d="M75.8001 30.2207C75.5173 30.0418 75.1574 29.9651 74.7718 29.9651C74.3605 29.9651 74.0006 30.0673 73.6922 30.2462C73.3837 30.4507 73.1781 30.7063 73.0495 31.0385H72.9724V30.0418H71.4814V35.6899H73.0495V32.4186C73.0495 32.163 73.1009 31.9586 73.1781 31.8052C73.2809 31.6263 73.3837 31.4985 73.5636 31.4219C73.7179 31.3196 73.9235 31.2941 74.1292 31.2941C74.4376 31.2941 74.6947 31.3963 74.8746 31.5752C75.0546 31.7797 75.1317 32.0352 75.1317 32.393V35.7155H76.6998V32.1119C76.6998 31.6774 76.6227 31.2941 76.4427 30.9874C76.3142 30.6296 76.1085 30.3996 75.8001 30.2207Z" fill="#231F20"/>
<path d="M82.3032 30.6807C82.0718 30.4507 81.7634 30.2718 81.4549 30.144C81.1207 30.0162 80.7865 29.9651 80.4009 29.9651C79.8354 29.9651 79.347 30.0929 78.9357 30.3229C78.5244 30.5529 78.1902 30.9107 77.9846 31.3452C77.7532 31.7797 77.6504 32.2908 77.6504 32.8786C77.6504 33.4665 77.7532 34.0032 77.9846 34.4376C78.2159 34.8721 78.5244 35.2044 78.9614 35.4344C79.3727 35.6644 79.8868 35.7922 80.4781 35.7922C80.9408 35.7922 81.3521 35.7155 81.712 35.5877C82.0718 35.4344 82.3546 35.2555 82.586 34.9743C82.8173 34.7188 82.9716 34.4121 83.0487 34.0543L81.5834 33.952C81.532 34.1054 81.4549 34.2076 81.3521 34.3099C81.2492 34.4121 81.1207 34.4888 80.9665 34.5399C80.8122 34.591 80.658 34.6165 80.4781 34.6165C80.221 34.6165 79.9896 34.5654 79.784 34.4632C79.6041 34.361 79.4498 34.2076 79.347 34.0032C79.2442 33.7987 79.1928 33.5687 79.1928 33.2876H83.0744V32.8275C83.0744 32.3419 82.9973 31.933 82.8687 31.5752C82.7402 31.2174 82.5346 30.9107 82.3032 30.6807ZM79.1928 32.2908C79.1928 32.0864 79.2442 31.9075 79.347 31.7285C79.4498 31.5496 79.6041 31.3963 79.784 31.2941C79.9639 31.1918 80.1696 31.1407 80.4266 31.1407C80.658 31.1407 80.8637 31.1918 81.0436 31.2941C81.2235 31.3963 81.3521 31.5241 81.4549 31.703C81.5577 31.8819 81.6091 32.0864 81.6091 32.2908H79.1928Z" fill="#231F20"/>
<path d="M87.7784 30.9874H87.727C87.6499 30.834 87.547 30.6807 87.4185 30.5274C87.29 30.374 87.11 30.2462 86.9044 30.1184C86.6987 30.0162 86.416 29.9651 86.1075 29.9651C85.6962 29.9651 85.3106 30.0673 84.9507 30.2973C84.5908 30.5018 84.3338 30.834 84.1024 31.2685C83.8968 31.703 83.7939 32.2397 83.7939 32.8786C83.7939 33.492 83.8968 34.0287 84.1024 34.4376C84.3081 34.8466 84.5908 35.1532 84.925 35.3577C85.2849 35.5622 85.6705 35.6644 86.0818 35.6644C86.3903 35.6644 86.6473 35.6133 86.853 35.5366C87.0586 35.4599 87.2386 35.3321 87.3928 35.2044C87.5213 35.0766 87.6242 34.9232 87.7013 34.7699H87.7784V35.7922C87.7784 36.1755 87.6756 36.4567 87.4442 36.61C87.2129 36.7634 86.9301 36.8656 86.5959 36.8656C86.3646 36.8656 86.1846 36.84 86.0047 36.7634C85.8504 36.7122 85.7219 36.6356 85.6191 36.5333C85.5163 36.4311 85.4648 36.3289 85.4134 36.2267L83.9482 36.4311C83.9996 36.7378 84.1538 36.9934 84.3595 37.2234C84.5651 37.4534 84.8736 37.6579 85.2335 37.7857C85.5934 37.9134 86.0304 37.9901 86.5445 37.9901C87.0843 37.9901 87.5727 37.9134 87.984 37.7345C88.3953 37.5812 88.7295 37.3256 88.9609 36.9934C89.1922 36.6611 89.3208 36.2778 89.3208 35.7922V30.0929H87.7784V30.9874ZM87.6499 33.6965C87.547 33.9265 87.4185 34.1054 87.2386 34.2332C87.0586 34.361 86.853 34.4121 86.5959 34.4121C86.3389 34.4121 86.1075 34.3354 85.9533 34.2076C85.7733 34.0798 85.6448 33.9009 85.542 33.6709C85.4391 33.4409 85.4134 33.1598 85.4134 32.8275C85.4134 32.4953 85.4648 32.2141 85.542 31.9841C85.6448 31.7285 85.7733 31.5496 85.9533 31.3963C86.1332 31.2685 86.3389 31.1918 86.5959 31.1918C86.853 31.1918 87.0586 31.2685 87.2386 31.3963C87.4185 31.5241 87.547 31.7285 87.6499 31.9586C87.7527 32.2141 87.7784 32.4953 87.7784 32.8275C87.7784 33.1853 87.727 33.4665 87.6499 33.6965Z" fill="#231F20"/>
<path d="M91.2741 27.7158C91.0427 27.7158 90.8371 27.7925 90.6828 27.9458C90.5286 28.0992 90.4258 28.2781 90.4258 28.5081C90.4258 28.7381 90.5029 28.917 90.6828 29.0704C90.8371 29.2237 91.0427 29.3004 91.2741 29.3004C91.5054 29.3004 91.7111 29.2237 91.8653 29.0704C92.0196 28.917 92.1224 28.7381 92.1224 28.5081C92.1224 28.3036 92.0453 28.0992 91.8653 27.9458C91.7111 27.7925 91.5311 27.7158 91.2741 27.7158Z" fill="#231F20"/>
<path d="M92.072 30.0417H90.5039V35.6899H92.072V30.0417Z" fill="#231F20"/>
<path d="M97.6494 30.6807C97.418 30.4507 97.1096 30.2718 96.8011 30.144C96.4669 30.0162 96.1327 29.9651 95.7471 29.9651C95.1816 29.9651 94.6932 30.0929 94.2819 30.3229C93.8706 30.5785 93.5364 30.9107 93.3308 31.3452C93.0994 31.7797 92.9966 32.2908 92.9966 32.8786C92.9966 33.4665 93.0994 34.0032 93.3308 34.4376C93.5621 34.8721 93.8706 35.2044 94.3076 35.4344C94.7189 35.6644 95.233 35.7922 95.8243 35.7922C96.287 35.7922 96.6983 35.7155 97.0582 35.5877C97.418 35.4344 97.7008 35.2555 97.9322 34.9743C98.1635 34.7188 98.3177 34.4121 98.3949 34.0543L96.9296 33.952C96.8782 34.1054 96.8011 34.2076 96.6983 34.3099C96.5954 34.4121 96.4669 34.4888 96.3127 34.5399C96.1584 34.591 96.0042 34.6165 95.8243 34.6165C95.5672 34.6165 95.3358 34.5654 95.1302 34.4632C94.9503 34.361 94.796 34.2076 94.6932 34.0032C94.5904 33.7987 94.5389 33.5687 94.5389 33.2876H98.4206V32.8275C98.4206 32.3419 98.3435 31.933 98.2149 31.5752C98.0864 31.2174 97.9065 30.9107 97.6494 30.6807ZM94.5647 32.2908C94.5647 32.0864 94.6161 31.9075 94.7189 31.7285C94.8217 31.5496 94.976 31.3963 95.1559 31.2941C95.3358 31.1918 95.5415 31.1407 95.7986 31.1407C96.0299 31.1407 96.2356 31.1918 96.4155 31.2941C96.5954 31.3963 96.724 31.5241 96.8268 31.703C96.9296 31.8819 96.981 32.0864 96.981 32.2908H94.5647Z" fill="#231F20"/>
<path d="M101.686 35.6898H103.306V32.5718H106.39V31.2684H103.306V29.4538H106.724V28.1504H101.686V35.6898Z" fill="#231F20"/>
<path d="M111.3 30.3229C110.888 30.0673 110.374 29.9651 109.809 29.9651C109.243 29.9651 108.729 30.0929 108.318 30.3229C107.907 30.5785 107.572 30.9107 107.341 31.3452C107.11 31.7797 107.007 32.2908 107.007 32.8786C107.007 33.4665 107.11 33.9776 107.341 34.4121C107.572 34.8466 107.881 35.1788 108.318 35.4344C108.729 35.6899 109.243 35.7922 109.809 35.7922C110.374 35.7922 110.888 35.6644 111.3 35.4344C111.711 35.1788 112.045 34.8466 112.277 34.4121C112.508 33.9776 112.611 33.4665 112.611 32.8786C112.611 32.2908 112.508 31.7797 112.277 31.3452C112.045 30.9107 111.737 30.5785 111.3 30.3229ZM110.888 33.7476C110.786 34.0032 110.657 34.2076 110.503 34.361C110.323 34.5143 110.117 34.591 109.835 34.591C109.577 34.591 109.346 34.5143 109.166 34.361C108.986 34.2076 108.858 34.0032 108.755 33.7476C108.652 33.492 108.626 33.1853 108.626 32.8786C108.626 32.5464 108.678 32.2653 108.755 32.0097C108.858 31.7541 108.986 31.5496 109.166 31.3963C109.346 31.243 109.577 31.1663 109.835 31.1663C110.092 31.1663 110.323 31.243 110.503 31.3963C110.683 31.5496 110.811 31.7541 110.888 32.0097C110.966 32.2653 111.017 32.5719 111.017 32.8786C111.017 33.2109 110.966 33.492 110.888 33.7476Z" fill="#231F20"/>
<path d="M117.187 33.2875C117.187 33.5431 117.135 33.7476 117.032 33.9265C116.93 34.1054 116.801 34.2332 116.621 34.3098C116.467 34.3865 116.287 34.4376 116.081 34.4376C115.773 34.4376 115.542 34.3354 115.362 34.1565C115.182 33.952 115.105 33.6965 115.079 33.3642V30.0417H113.511V33.6453C113.511 34.0798 113.588 34.4632 113.768 34.7954C113.922 35.1021 114.153 35.3577 114.436 35.5366C114.719 35.7155 115.053 35.7922 115.439 35.7922C115.876 35.7922 116.236 35.6899 116.518 35.4855C116.827 35.281 117.032 35.0254 117.161 34.6932H117.212V35.7155H118.729V30.0673H117.161V33.2875H117.187Z" fill="#231F20"/>
<path d="M124.23 30.2207C123.947 30.0418 123.587 29.9651 123.202 29.9651C122.79 29.9651 122.43 30.0673 122.122 30.2462C121.813 30.4507 121.608 30.7063 121.479 31.0385H121.402V30.0418H119.911V35.6899H121.479V32.4186C121.479 32.163 121.531 31.9586 121.608 31.8052C121.685 31.6263 121.813 31.4985 121.993 31.4219C122.148 31.3196 122.353 31.2941 122.559 31.2941C122.867 31.2941 123.124 31.3963 123.304 31.5752C123.484 31.7797 123.561 32.0352 123.561 32.393V35.7155H125.129V32.1119C125.129 31.6774 125.052 31.2941 124.872 30.9874C124.77 30.6296 124.538 30.3996 124.23 30.2207Z" fill="#231F20"/>
<path d="M130.066 30.9874H130.014C129.937 30.8341 129.834 30.6807 129.706 30.5274C129.577 30.3741 129.397 30.2463 129.191 30.1185C128.986 30.0163 128.703 29.9651 128.395 29.9651C127.983 29.9651 127.598 30.0674 127.238 30.2974C126.878 30.5018 126.621 30.8341 126.39 31.2686C126.184 31.703 126.081 32.2397 126.081 32.8787C126.081 33.5176 126.184 34.0288 126.39 34.4632C126.595 34.8977 126.878 35.23 127.212 35.4344C127.572 35.6644 127.958 35.7667 128.395 35.7667C128.703 35.7667 128.96 35.7156 129.166 35.6133C129.371 35.5111 129.551 35.3833 129.68 35.23C129.808 35.0766 129.911 34.9233 129.988 34.7699H130.066V35.6644H131.634V28.125H130.066V30.9874ZM129.963 33.7476C129.86 34.0032 129.731 34.1821 129.551 34.3355C129.371 34.4632 129.166 34.5399 128.909 34.5399C128.652 34.5399 128.42 34.4632 128.266 34.3355C128.086 34.1821 127.958 34.0032 127.855 33.7476C127.752 33.4921 127.726 33.2109 127.726 32.8787C127.726 32.5464 127.778 32.2653 127.855 32.0097C127.958 31.7542 128.086 31.5753 128.266 31.4219C128.446 31.2941 128.652 31.2174 128.909 31.2174C129.166 31.2174 129.371 31.2941 129.551 31.4219C129.731 31.5497 129.86 31.7542 129.963 31.9842C130.066 32.2397 130.091 32.5209 130.091 32.8531C130.091 33.1854 130.04 33.4921 129.963 33.7476Z" fill="#231F20"/>
<path d="M136.904 30.3996C136.673 30.2462 136.415 30.1184 136.133 30.0673C135.85 29.9906 135.541 29.9651 135.233 29.9651C134.77 29.9651 134.385 30.0418 134.025 30.1695C133.691 30.2973 133.408 30.5018 133.177 30.7574C132.971 31.0129 132.817 31.2941 132.74 31.6519L134.205 31.7797C134.256 31.6008 134.359 31.4474 134.539 31.3196C134.719 31.1918 134.925 31.1407 135.207 31.1407C135.464 31.1407 135.696 31.1918 135.824 31.3196C135.978 31.4474 136.056 31.6263 136.056 31.8563V31.8819C136.056 32.0097 136.004 32.0864 135.927 32.163C135.824 32.2141 135.696 32.2653 135.49 32.2908C135.284 32.3164 135.027 32.3419 134.693 32.393C134.41 32.4186 134.153 32.4697 133.896 32.5208C133.639 32.5975 133.408 32.6742 133.202 32.8275C132.997 32.9553 132.842 33.1342 132.74 33.3387C132.611 33.5431 132.56 33.8243 132.56 34.1309C132.56 34.5143 132.637 34.821 132.817 35.0766C132.971 35.3321 133.202 35.511 133.485 35.6388C133.768 35.7666 134.102 35.8177 134.462 35.8177C134.745 35.8177 135.002 35.7922 135.207 35.7155C135.413 35.6388 135.619 35.5366 135.747 35.4088C135.901 35.281 136.03 35.1277 136.107 34.9488H136.158V35.7411H137.649V31.933C137.649 31.6008 137.572 31.3196 137.444 31.0641C137.315 30.7574 137.135 30.5785 136.904 30.3996ZM136.081 33.6709C136.081 33.8754 136.03 34.0543 135.927 34.2076C135.824 34.361 135.696 34.4887 135.516 34.591C135.336 34.6932 135.13 34.7188 134.899 34.7188C134.667 34.7188 134.462 34.6677 134.308 34.5399C134.153 34.4376 134.076 34.2587 134.076 34.0543C134.076 33.9009 134.102 33.7731 134.179 33.6965C134.256 33.5942 134.359 33.5176 134.513 33.4665C134.642 33.4153 134.822 33.3642 135.002 33.3387C135.079 33.3387 135.182 33.3131 135.284 33.2876C135.387 33.262 135.49 33.262 135.593 33.2364C135.696 33.2109 135.799 33.1853 135.876 33.1598C135.953 33.1342 136.03 33.1087 136.081 33.0831V33.6709Z" fill="#231F20"/>
<path d="M141.479 34.4885C141.402 34.5141 141.325 34.5141 141.248 34.5141C141.145 34.5141 141.042 34.4885 140.965 34.463C140.888 34.4374 140.811 34.3863 140.785 34.2841C140.734 34.2074 140.708 34.0796 140.708 33.9518V31.2172H141.788V30.0416H140.734V28.687H139.166V30.0416H138.395V31.2172H139.166V34.1563C139.166 34.5141 139.243 34.8464 139.397 35.0764C139.551 35.3319 139.783 35.5108 140.065 35.6131C140.348 35.7409 140.682 35.7664 141.068 35.7664C141.274 35.7664 141.454 35.7409 141.582 35.7153C141.736 35.6897 141.839 35.6642 141.916 35.6386L141.659 34.463C141.608 34.463 141.556 34.463 141.479 34.4885Z" fill="#231F20"/>
<path d="M144.28 30.0417H142.712V35.6899H144.28V30.0417Z" fill="#231F20"/>
<path d="M143.509 27.7158C143.278 27.7158 143.072 27.7925 142.918 27.9458C142.764 28.0992 142.661 28.2781 142.661 28.5081C142.661 28.7381 142.738 28.917 142.918 29.0704C143.072 29.2237 143.278 29.3004 143.509 29.3004C143.741 29.3004 143.946 29.2237 144.101 29.0704C144.255 28.917 144.358 28.7381 144.358 28.5081C144.358 28.3036 144.281 28.0992 144.101 27.9458C143.946 27.7925 143.741 27.7158 143.509 27.7158Z" fill="#231F20"/>
<path d="M149.499 30.3229C149.088 30.0673 148.574 29.9651 148.008 29.9651C147.442 29.9651 146.928 30.0929 146.517 30.3229C146.106 30.5785 145.772 30.9107 145.54 31.3452C145.309 31.7797 145.206 32.2908 145.206 32.8786C145.206 33.4665 145.309 33.9776 145.54 34.4121C145.772 34.8466 146.08 35.1788 146.517 35.4344C146.928 35.6899 147.442 35.7922 148.008 35.7922C148.574 35.7922 149.088 35.6644 149.499 35.4344C149.91 35.1788 150.244 34.8466 150.476 34.4121C150.707 33.9776 150.81 33.4665 150.81 32.8786C150.81 32.2908 150.707 31.7797 150.476 31.3452C150.244 30.9107 149.936 30.5785 149.499 30.3229ZM149.088 33.7476C148.985 34.0032 148.856 34.2076 148.702 34.361C148.522 34.5143 148.316 34.591 148.034 34.591C147.777 34.591 147.545 34.5143 147.365 34.361C147.185 34.2076 147.057 34.0032 146.954 33.7476C146.851 33.492 146.826 33.1853 146.826 32.8786C146.826 32.5464 146.877 32.2653 146.954 32.0097C147.057 31.7541 147.185 31.5496 147.365 31.3963C147.545 31.243 147.777 31.1663 148.034 31.1663C148.291 31.1663 148.522 31.243 148.702 31.3963C148.882 31.5496 149.011 31.7541 149.088 32.0097C149.165 32.2653 149.216 32.5719 149.216 32.8786C149.216 33.2109 149.165 33.492 149.088 33.7476Z" fill="#231F20"/>
<path d="M156.749 30.9618C156.595 30.6551 156.363 30.3996 156.055 30.2207C155.772 30.0418 155.412 29.9651 155.027 29.9651C154.615 29.9651 154.256 30.0673 153.947 30.2462C153.639 30.4507 153.433 30.7063 153.304 31.0385H153.227V30.0418H151.736V35.6899H153.304V32.4186C153.304 32.163 153.356 31.9586 153.433 31.8052C153.51 31.6263 153.639 31.4985 153.819 31.4219C153.973 31.3196 154.178 31.2941 154.384 31.2941C154.693 31.2941 154.95 31.3963 155.13 31.5752C155.309 31.7797 155.387 32.0352 155.387 32.393V35.7155H156.955V32.1119C156.98 31.6519 156.903 31.2685 156.749 30.9618Z" fill="#231F20"/>
<path d="M55.6727 39.1655C55.4928 39.1655 55.3385 39.1911 55.1843 39.2678C55.0301 39.3444 54.9015 39.4467 54.7987 39.5744C54.6959 39.7022 54.6445 39.8811 54.6445 40.0856V40.5712H54.0532V41.0312H54.6445V44.1748H55.21V41.0312H56.0326V40.5712H55.21V40.2389C55.21 40.06 55.2614 39.9322 55.3385 39.83C55.4156 39.7278 55.5442 39.7022 55.7241 39.7022C55.8012 39.7022 55.8784 39.7022 55.9298 39.7278C55.9812 39.7533 56.0069 39.7533 56.0583 39.7533L56.2125 39.2678C56.1611 39.2422 56.1097 39.2166 56.0069 39.2166C55.9298 39.1911 55.8269 39.1655 55.6727 39.1655Z" fill="#231F20"/>
<path d="M58.937 40.7759C58.68 40.6226 58.3972 40.5459 58.0887 40.5459C57.7545 40.5459 57.4718 40.6226 57.2404 40.7759C56.9834 40.9293 56.8034 41.1593 56.6749 41.4404C56.5464 41.7215 56.4692 42.0538 56.4692 42.4116C56.4692 42.795 56.5464 43.1016 56.6749 43.3828C56.8034 43.6639 57.0091 43.8684 57.2404 44.0217C57.4975 44.1751 57.7803 44.2517 58.0887 44.2517C58.4229 44.2517 58.7057 44.1751 58.937 44.0217C59.1941 43.8684 59.374 43.6383 59.5026 43.3828C59.6311 43.1016 59.7082 42.7694 59.7082 42.4116C59.7082 42.0282 59.6311 41.696 59.5026 41.4404C59.374 41.1593 59.1941 40.9548 58.937 40.7759ZM59.0656 43.1016C58.9884 43.3061 58.8599 43.485 58.7057 43.6128C58.5514 43.7406 58.3458 43.7917 58.0887 43.7917C57.8317 43.7917 57.626 43.7406 57.4718 43.6128C57.3175 43.485 57.189 43.3317 57.1119 43.1016C57.0348 42.8972 56.9834 42.6672 56.9834 42.4372C56.9834 42.2071 57.0348 41.9771 57.1119 41.7727C57.189 41.5682 57.3175 41.3893 57.4718 41.2615C57.626 41.1337 57.8317 41.057 58.0887 41.057C58.3458 41.057 58.5514 41.1337 58.7057 41.2615C58.8599 41.3893 58.9884 41.5682 59.0656 41.7727C59.1427 41.9771 59.1941 42.2071 59.1941 42.4372C59.1684 42.6672 59.1427 42.8972 59.0656 43.1016Z" fill="#231F20"/>
<path d="M62.0484 40.5459C61.8427 40.5459 61.6371 40.597 61.4572 40.7248C61.2772 40.827 61.1744 40.9804 61.0973 41.1593H61.0716V40.6226H60.5317V44.2262H61.0973V41.9516C61.0973 41.7982 61.1487 41.6449 61.2258 41.5171C61.3029 41.3893 61.4057 41.2871 61.56 41.2104C61.6885 41.1337 61.8428 41.1082 62.0227 41.1082C62.0998 41.1082 62.1769 41.1082 62.2283 41.1337C62.3055 41.1337 62.3312 41.1593 62.3569 41.1593V40.597C62.3312 40.597 62.2798 40.597 62.2283 40.597C62.1512 40.5459 62.0998 40.5459 62.0484 40.5459Z" fill="#231F20"/>
<path d="M66.2119 43.715C66.1605 43.715 66.1348 43.715 66.0576 43.715C65.9805 43.715 65.9034 43.6894 65.8263 43.6639C65.7492 43.6383 65.6978 43.5872 65.6463 43.5105C65.5949 43.4339 65.5692 43.3061 65.5692 43.1527V41.057H66.3404V40.597H65.5692V39.728H65.0037V40.597H64.4639V41.057H65.0037V43.3061C65.0037 43.5105 65.0551 43.6894 65.1579 43.8172C65.2608 43.945 65.3893 44.0472 65.5435 44.1239C65.6978 44.2006 65.852 44.2261 66.0062 44.2261C66.1091 44.2261 66.1862 44.2261 66.2633 44.2006C66.3404 44.175 66.3918 44.175 66.4175 44.1495L66.3147 43.6639C66.289 43.6894 66.2633 43.6894 66.2119 43.715Z" fill="#231F20"/>
<path d="M69.5536 40.6991C69.3737 40.5969 69.1423 40.5458 68.911 40.5458C68.6282 40.5458 68.3968 40.5969 68.2169 40.6991C68.0369 40.8013 67.9084 40.9547 67.8313 41.1336H67.7799V39.3701H67.2144V44.1749H67.7799V42.0281C67.7799 41.8236 67.8313 41.6447 67.9084 41.4914C67.9855 41.338 68.1141 41.2358 68.2426 41.1591C68.3968 41.0825 68.5511 41.0313 68.731 41.0313C68.9881 41.0313 69.1937 41.108 69.348 41.2614C69.5022 41.4147 69.5793 41.6447 69.5793 41.9259V44.1749H70.1449V41.8747C70.1449 41.5681 70.0934 41.3125 69.9906 41.108C69.8878 40.9547 69.7336 40.8013 69.5536 40.6991Z" fill="#231F20"/>
<path d="M73.6415 40.9548C73.4873 40.827 73.3331 40.7248 73.1274 40.6481C72.9475 40.597 72.7675 40.5459 72.5619 40.5459C72.2277 40.5459 71.9449 40.6226 71.7136 40.7759C71.4565 40.9293 71.2766 41.1593 71.148 41.4404C71.0195 41.7215 70.9424 42.0538 70.9424 42.4116C70.9424 42.7694 71.0195 43.1016 71.148 43.3828C71.2766 43.6639 71.4822 43.8684 71.7393 44.0217C71.9963 44.1751 72.3048 44.2517 72.639 44.2517C72.896 44.2517 73.1017 44.2262 73.3073 44.1495C73.513 44.0728 73.6672 43.9706 73.7958 43.8428C73.9243 43.715 74.0271 43.5361 74.0785 43.3572L73.5387 43.2039C73.4873 43.3317 73.4359 43.4339 73.333 43.5106C73.2559 43.5872 73.1531 43.6639 73.0246 43.6895C72.896 43.7406 72.7675 43.7406 72.639 43.7406C72.4076 43.7406 72.2277 43.6895 72.0477 43.5872C71.8678 43.485 71.7393 43.3572 71.6622 43.1528C71.585 42.9739 71.5336 42.7694 71.5336 42.5394H74.1556V42.3094C74.1556 41.9771 74.1042 41.696 74.0271 41.466C73.8986 41.2871 73.7958 41.0826 73.6415 40.9548ZM71.5079 42.1049C71.5079 41.926 71.5593 41.7727 71.6365 41.6193C71.7136 41.4404 71.8421 41.3126 71.9963 41.1848C72.1506 41.057 72.3562 41.0315 72.5619 41.0315C72.7675 41.0315 72.9475 41.0826 73.076 41.1593C73.2302 41.2615 73.3331 41.3893 73.4102 41.5426C73.4873 41.696 73.5387 41.8749 73.5387 42.0793H71.5079V42.1049Z" fill="#231F20"/>
<path d="M78.1912 39.3958L76.4175 44.2005H77.0344L77.5228 42.846H79.4765L79.9649 44.2005H80.5819L78.8082 39.3958H78.1912ZM77.7028 42.3349L78.474 40.1625H78.4997L79.2709 42.3349H77.7028Z" fill="#231F20"/>
<path d="M83.6917 41.1848H83.6403C83.5889 41.1337 83.5374 41.0315 83.4603 40.9548C83.3832 40.8526 83.2804 40.7759 83.1519 40.6993C83.0233 40.6226 82.8177 40.5715 82.5863 40.5715C82.2778 40.5715 82.0208 40.6481 81.7894 40.8015C81.5581 40.9548 81.3781 41.1593 81.2496 41.4404C81.1211 41.7216 81.0439 42.0538 81.0439 42.4372C81.0439 42.8205 81.1211 43.1528 81.2496 43.4339C81.3781 43.715 81.5581 43.9195 81.7894 44.0728C82.0208 44.2262 82.2778 44.3029 82.5863 44.3029C82.8177 44.3029 82.9976 44.2517 83.1519 44.1751C83.2804 44.0984 83.4089 44.0217 83.486 43.9195C83.5631 43.8173 83.6146 43.7406 83.666 43.6639H83.7431V44.2262H84.2829V39.4214H83.7174V41.1848H83.6917ZM83.5632 43.1272C83.486 43.3317 83.3575 43.485 83.2033 43.6128C83.049 43.7406 82.8691 43.7917 82.6377 43.7917C82.4064 43.7917 82.2007 43.7406 82.0465 43.6128C81.8923 43.485 81.7637 43.3317 81.6866 43.1272C81.6095 42.9228 81.5581 42.6927 81.5581 42.4372C81.5581 42.1816 81.6095 41.9516 81.6866 41.7471C81.7637 41.5427 81.8923 41.3893 82.0465 41.2615C82.2007 41.1337 82.4064 41.0826 82.6377 41.0826C82.8691 41.0826 83.049 41.1337 83.2033 41.2615C83.3575 41.3638 83.486 41.5427 83.5632 41.7471C83.6403 41.9516 83.6917 42.1816 83.6917 42.4627C83.6917 42.6672 83.6403 42.9228 83.5632 43.1272Z" fill="#231F20"/>
<path d="M86.6486 43.4849H86.6229L85.6204 40.5969H85.0034L86.3401 44.2005H86.9057L88.2424 40.5969H87.6511L86.6486 43.4849Z" fill="#231F20"/>
<path d="M91.0701 40.7759C90.9159 40.6992 90.7874 40.6481 90.6331 40.597C90.4789 40.5715 90.3504 40.5459 90.2219 40.5459C90.0419 40.5459 89.862 40.5715 89.6563 40.6226C89.4764 40.6737 89.2964 40.7504 89.1422 40.8781C88.988 41.0059 88.8594 41.1593 88.7566 41.3893L89.2964 41.5682C89.3478 41.4404 89.4764 41.3126 89.6049 41.1848C89.7591 41.057 89.9648 41.0059 90.2219 41.0059C90.4789 41.0059 90.6589 41.0826 90.7874 41.2104C90.9159 41.3382 90.9673 41.5171 90.9673 41.7471V41.7727C90.9673 41.8493 90.9416 41.926 90.8645 41.9516C90.8131 41.9771 90.7103 42.0027 90.556 42.0282C90.4275 42.0538 90.2476 42.0538 90.0162 42.1049C89.8363 42.1305 89.682 42.156 89.5021 42.1816C89.3478 42.2071 89.1936 42.2838 89.0394 42.3349C88.9108 42.4116 88.7823 42.5138 88.7052 42.6416C88.6281 42.7694 88.5767 42.9483 88.5767 43.1528C88.5767 43.3828 88.6281 43.5872 88.7309 43.7406C88.8337 43.8939 88.988 44.0217 89.1679 44.1239C89.3478 44.2006 89.5535 44.2517 89.7848 44.2517C89.9905 44.2517 90.1704 44.2262 90.3247 44.1495C90.4789 44.0984 90.5817 44.0217 90.6846 43.9195C90.7617 43.8428 90.8388 43.7406 90.8645 43.6639H90.8902V44.1495H91.4557V41.7727C91.4557 41.4915 91.4043 41.2615 91.3015 41.0826C91.3272 40.9804 91.1987 40.8526 91.0701 40.7759ZM90.993 42.8972C90.993 43.0505 90.9416 43.1783 90.8645 43.3317C90.7874 43.4594 90.6589 43.5872 90.5303 43.6639C90.3761 43.7406 90.1961 43.7917 89.9648 43.7917C89.7334 43.7917 89.5535 43.7406 89.425 43.6383C89.2707 43.5361 89.2193 43.4083 89.2193 43.2039C89.2193 43.0505 89.245 42.9483 89.3221 42.8716C89.3993 42.795 89.5021 42.7183 89.6306 42.6927C89.7591 42.6416 89.8877 42.6161 90.0419 42.5905C90.0933 42.5905 90.1704 42.5649 90.2733 42.5649C90.3761 42.5649 90.4789 42.5394 90.5817 42.5138C90.6846 42.4883 90.7874 42.4883 90.8645 42.4627C90.9416 42.4371 90.993 42.4116 91.0187 42.386V42.8972H90.993Z" fill="#231F20"/>
<path d="M94.8235 40.6992C94.6435 40.597 94.4122 40.5459 94.1808 40.5459C93.8981 40.5459 93.6924 40.597 93.5125 40.7248C93.3325 40.827 93.204 40.9804 93.1269 41.1593H93.0755V40.597H92.5356V44.2006H93.1012V42.0282C93.1012 41.8238 93.1526 41.6449 93.2297 41.4915C93.3068 41.3382 93.4097 41.236 93.5639 41.1593C93.6924 41.0826 93.8724 41.0315 94.0523 41.0315C94.3094 41.0315 94.515 41.1082 94.6692 41.2615C94.8235 41.4149 94.9006 41.6449 94.9006 41.926V44.1751H95.4661V41.8749C95.4661 41.5682 95.4147 41.3126 95.3119 41.1082C95.2091 40.9037 95.0034 40.8015 94.8235 40.6992Z" fill="#231F20"/>
<path d="M97.2913 41.2103C97.4455 41.1081 97.6511 41.0314 97.8568 41.0314C98.1139 41.0314 98.2938 41.0825 98.448 41.2103C98.6023 41.3381 98.6794 41.4914 98.7308 41.6448H99.2963C99.2706 41.4148 99.1935 41.2103 99.065 41.057C98.9364 40.8781 98.7565 40.7503 98.5509 40.6736C98.3452 40.5714 98.1139 40.5203 97.8568 40.5203C97.5226 40.5203 97.2398 40.5969 97.0085 40.7503C96.7514 40.9036 96.5715 41.1336 96.443 41.4148C96.3144 41.6959 96.2373 42.0281 96.2373 42.386C96.2373 42.7438 96.3144 43.076 96.443 43.3571C96.5715 43.6383 96.7514 43.8683 97.0085 44.0216C97.2655 44.175 97.5483 44.2516 97.8825 44.2516C98.1396 44.2516 98.3966 44.2005 98.5766 44.0983C98.7822 43.9961 98.9364 43.8683 99.065 43.6894C99.1935 43.5105 99.2706 43.3316 99.2963 43.1271H98.7308C98.7051 43.2549 98.628 43.3827 98.5509 43.4594C98.4737 43.5616 98.3709 43.6127 98.2424 43.6638C98.1139 43.7149 97.9853 43.7405 97.8568 43.7405C97.6254 43.7405 97.4455 43.6894 97.2913 43.5616C97.137 43.4338 97.0085 43.2805 96.9057 43.076C96.8285 42.8715 96.7771 42.616 96.7771 42.3604C96.7771 42.0793 96.8285 41.8492 96.9057 41.6448C96.9828 41.4914 97.1113 41.3381 97.2913 41.2103Z" fill="#231F20"/>
<path d="M102.56 40.9548C102.406 40.827 102.252 40.7248 102.046 40.6481C101.866 40.597 101.686 40.5459 101.481 40.5459C101.147 40.5459 100.864 40.6226 100.633 40.7759C100.375 40.9293 100.196 41.1593 100.067 41.4404C99.9384 41.7215 99.8613 42.0538 99.8613 42.4116C99.8613 42.7694 99.9384 43.1016 100.067 43.3828C100.196 43.6639 100.401 43.8684 100.658 44.0217C100.915 44.1751 101.224 44.2517 101.558 44.2517C101.815 44.2517 102.021 44.2262 102.226 44.1495C102.432 44.0728 102.586 43.9706 102.715 43.8428C102.843 43.715 102.946 43.5361 102.997 43.3572L102.458 43.2039C102.406 43.3317 102.355 43.4339 102.252 43.5106C102.175 43.5872 102.072 43.6639 101.944 43.6895C101.815 43.7406 101.686 43.7406 101.558 43.7406C101.327 43.7406 101.147 43.6895 100.967 43.5872C100.787 43.485 100.658 43.3572 100.581 43.1528C100.504 42.9739 100.453 42.7694 100.453 42.5394H103.075V42.3094C103.075 41.9771 103.023 41.696 102.946 41.466C102.843 41.2871 102.715 41.0826 102.56 40.9548ZM100.427 42.1049C100.427 41.926 100.478 41.7727 100.555 41.6193C100.633 41.4404 100.761 41.3126 100.915 41.1848C101.07 41.057 101.275 41.0315 101.481 41.0315C101.686 41.0315 101.866 41.0826 101.995 41.1593C102.149 41.2615 102.252 41.3893 102.329 41.5426C102.406 41.696 102.458 41.8749 102.458 42.0793H100.427V42.1049Z" fill="#231F20"/>
<path d="M107.522 40.5458C107.265 40.5458 107.034 40.5969 106.854 40.6992C106.674 40.8014 106.52 40.9547 106.443 41.1336H106.417C106.34 40.9292 106.211 40.8014 106.031 40.6736C105.877 40.5714 105.672 40.5203 105.44 40.5203C105.209 40.5203 105.003 40.5714 104.823 40.6736C104.643 40.7758 104.54 40.9292 104.463 41.1336H104.412V40.5714H103.872V44.175H104.438V41.9259C104.438 41.747 104.463 41.5937 104.54 41.4659C104.618 41.3381 104.72 41.2359 104.849 41.1592C104.977 41.0825 105.106 41.0314 105.26 41.0314C105.466 41.0314 105.646 41.0825 105.774 41.2103C105.903 41.3381 105.98 41.4914 105.98 41.6959V44.175H106.546V41.8237C106.546 41.5937 106.623 41.3892 106.751 41.2359C106.88 41.0825 107.085 41.0059 107.342 41.0059C107.548 41.0059 107.702 41.057 107.857 41.1848C108.011 41.287 108.088 41.4914 108.088 41.747V44.1494H108.653V41.747C108.653 41.3125 108.551 41.0059 108.345 40.8014C108.114 40.648 107.857 40.5458 107.522 40.5458Z" fill="#231F20"/>
<path d="M112.123 40.9548C111.969 40.827 111.814 40.7248 111.609 40.6481C111.429 40.597 111.249 40.5459 111.043 40.5459C110.709 40.5459 110.426 40.6226 110.195 40.7759C109.938 40.9293 109.758 41.1593 109.629 41.4404C109.501 41.7215 109.424 42.0538 109.424 42.4116C109.424 42.7694 109.501 43.1016 109.629 43.3828C109.758 43.6639 109.964 43.8684 110.221 44.0217C110.478 44.1751 110.786 44.2517 111.12 44.2517C111.377 44.2517 111.583 44.2262 111.789 44.1495C111.994 44.0728 112.149 43.9706 112.277 43.8428C112.406 43.715 112.509 43.5361 112.56 43.3572L112.02 43.2039C111.969 43.3317 111.917 43.4339 111.814 43.5106C111.737 43.5872 111.635 43.6639 111.506 43.6895C111.377 43.7406 111.249 43.7406 111.12 43.7406C110.889 43.7406 110.709 43.6895 110.529 43.5872C110.349 43.485 110.221 43.3572 110.144 43.1528C110.066 42.9739 110.015 42.7694 110.015 42.5394H112.637V42.3094C112.637 41.9771 112.586 41.696 112.509 41.466C112.406 41.2871 112.277 41.0826 112.123 40.9548ZM109.989 42.1049C109.989 41.926 110.041 41.7727 110.118 41.6193C110.195 41.4404 110.324 41.3126 110.478 41.1848C110.632 41.057 110.838 41.0315 111.043 41.0315C111.249 41.0315 111.429 41.0826 111.557 41.1593C111.712 41.2615 111.814 41.3893 111.892 41.5426C111.969 41.696 112.02 41.8749 112.02 42.0793H109.989V42.1049Z" fill="#231F20"/>
<path d="M115.722 40.6992C115.542 40.597 115.311 40.5459 115.08 40.5459C114.797 40.5459 114.591 40.597 114.411 40.7248C114.231 40.827 114.103 40.9804 114.026 41.1593H113.974V40.597H113.435V44.2006H114V42.0282C114 41.8238 114.052 41.6449 114.129 41.4915C114.206 41.3382 114.309 41.236 114.463 41.1593C114.591 41.0826 114.771 41.0315 114.951 41.0315C115.208 41.0315 115.414 41.1082 115.568 41.2615C115.722 41.4149 115.8 41.6449 115.8 41.926V44.1751H116.365V41.8749C116.365 41.5682 116.314 41.3126 116.211 41.1082C116.108 40.9037 115.902 40.8015 115.722 40.6992Z" fill="#231F20"/>
<path d="M118.705 43.715C118.653 43.715 118.627 43.715 118.55 43.715C118.473 43.715 118.396 43.6894 118.319 43.6639C118.242 43.6383 118.19 43.5872 118.139 43.5105C118.088 43.4339 118.062 43.3061 118.062 43.1527V41.057H118.833V40.597H118.062V39.728H117.496V40.597H116.957V41.057H117.496V43.3061C117.496 43.5105 117.548 43.6894 117.651 43.8172C117.753 43.945 117.882 44.0472 118.036 44.1239C118.19 44.2006 118.345 44.2261 118.499 44.2261C118.602 44.2261 118.679 44.2261 118.756 44.2006C118.833 44.175 118.885 44.175 118.91 44.1495L118.807 43.6639C118.782 43.6894 118.73 43.6894 118.705 43.715Z" fill="#231F20"/>
<path d="M123.793 40.7759C123.536 40.6226 123.254 40.5459 122.945 40.5459C122.637 40.5459 122.328 40.6226 122.097 40.7759C121.84 40.9293 121.66 41.1593 121.531 41.4404C121.403 41.7215 121.326 42.0538 121.326 42.4116C121.326 42.795 121.403 43.1016 121.531 43.3828C121.66 43.6639 121.866 43.8684 122.097 44.0217C122.354 44.1751 122.637 44.2517 122.945 44.2517C123.254 44.2517 123.562 44.1751 123.793 44.0217C124.051 43.8684 124.23 43.6383 124.359 43.3828C124.488 43.1016 124.565 42.7694 124.565 42.4116C124.565 42.0282 124.488 41.696 124.359 41.4404C124.23 41.1593 124.051 40.9548 123.793 40.7759ZM123.896 43.1016C123.819 43.3061 123.691 43.485 123.536 43.6128C123.382 43.7406 123.177 43.7917 122.919 43.7917C122.662 43.7917 122.457 43.7406 122.303 43.6128C122.148 43.485 122.02 43.3317 121.943 43.1016C121.866 42.8972 121.84 42.6672 121.84 42.4372C121.84 42.2071 121.866 41.9771 121.943 41.7727C122.02 41.5682 122.148 41.3893 122.303 41.2615C122.457 41.1337 122.662 41.057 122.919 41.057C123.177 41.057 123.382 41.1337 123.536 41.2615C123.691 41.3893 123.819 41.5682 123.896 41.7727C123.973 41.9771 124.025 42.2071 124.025 42.4372C124.025 42.6672 123.973 42.8972 123.896 43.1016Z" fill="#231F20"/>
<path d="M126.647 39.1655C126.467 39.1655 126.313 39.1911 126.158 39.2678C126.004 39.3444 125.876 39.4467 125.773 39.5744C125.67 39.7022 125.619 39.8811 125.619 40.0856V40.5712H125.027V41.0312H125.619V44.1748H126.184V41.0312H127.007V40.5712H126.184V40.2389C126.184 40.06 126.236 39.9322 126.313 39.83C126.39 39.7278 126.518 39.7022 126.698 39.7022C126.775 39.7022 126.852 39.7022 126.904 39.7278C126.955 39.7533 126.981 39.7533 127.032 39.7533L127.187 39.2678C127.135 39.2422 127.084 39.2166 126.981 39.2166C126.904 39.1911 126.775 39.1655 126.647 39.1655Z" fill="#231F20"/>
<path d="M129.372 39.9069H130.889V44.2005H131.48V39.9069H132.997V39.3958H129.372V39.9069Z" fill="#231F20"/>
<path d="M135.773 40.9548C135.619 40.827 135.464 40.7248 135.259 40.6481C135.079 40.597 134.899 40.5459 134.693 40.5459C134.359 40.5459 134.076 40.6226 133.845 40.7759C133.588 40.9293 133.408 41.1593 133.279 41.4404C133.151 41.7215 133.074 42.0538 133.074 42.4116C133.074 42.7694 133.151 43.1016 133.279 43.3828C133.408 43.6639 133.614 43.8684 133.871 44.0217C134.128 44.1751 134.436 44.2517 134.77 44.2517C135.027 44.2517 135.233 44.2262 135.439 44.1495C135.644 44.0728 135.799 43.9706 135.927 43.8428C136.056 43.715 136.158 43.5361 136.21 43.3572L135.67 43.2039C135.619 43.3317 135.567 43.4339 135.464 43.5106C135.387 43.5872 135.284 43.6639 135.156 43.6895C135.027 43.7406 134.899 43.7406 134.77 43.7406C134.539 43.7406 134.359 43.6895 134.179 43.5872C133.999 43.485 133.871 43.3572 133.793 43.1528C133.716 42.9739 133.665 42.7694 133.665 42.5394H136.287V42.3094C136.287 41.9771 136.236 41.696 136.158 41.466C136.056 41.2871 135.927 41.0826 135.773 40.9548ZM133.639 42.1049C133.639 41.926 133.691 41.7727 133.768 41.6193C133.845 41.4404 133.973 41.3126 134.128 41.1848C134.282 41.0826 134.488 41.0315 134.693 41.0315C134.899 41.0315 135.079 41.0826 135.207 41.1593C135.362 41.2615 135.464 41.3893 135.542 41.5426C135.619 41.696 135.67 41.8749 135.67 42.0793H133.639V42.1049Z" fill="#231F20"/>
<path d="M139.295 40.7759C139.141 40.6992 139.012 40.6481 138.858 40.597C138.704 40.5715 138.575 40.5459 138.446 40.5459C138.267 40.5459 138.087 40.5715 137.881 40.6226C137.701 40.6737 137.521 40.7504 137.367 40.8781C137.213 41.0059 137.084 41.1593 136.981 41.3893L137.521 41.5682C137.572 41.4404 137.701 41.3126 137.83 41.1848C137.984 41.057 138.189 41.0059 138.446 41.0059C138.704 41.0059 138.883 41.0826 139.012 41.2104C139.141 41.3382 139.192 41.5171 139.192 41.7471V41.7727C139.192 41.8493 139.166 41.926 139.089 41.9516C139.038 41.9771 138.935 42.0027 138.781 42.0282C138.652 42.0538 138.472 42.0538 138.241 42.1049C138.061 42.1305 137.907 42.156 137.727 42.1816C137.572 42.2071 137.418 42.2838 137.264 42.3349C137.135 42.4116 137.007 42.5138 136.93 42.6416C136.853 42.7694 136.801 42.9483 136.801 43.1528C136.801 43.3828 136.853 43.5872 136.955 43.7406C137.058 43.8939 137.213 44.0217 137.393 44.1239C137.572 44.2006 137.778 44.2517 138.009 44.2517C138.215 44.2517 138.395 44.2262 138.549 44.1495C138.704 44.0984 138.806 44.0217 138.909 43.9195C138.986 43.8428 139.063 43.7406 139.089 43.6639H139.115V44.1495H139.68V41.7727C139.68 41.4915 139.629 41.2615 139.526 41.0826C139.578 40.9804 139.449 40.8526 139.295 40.7759ZM139.243 42.8972C139.243 43.0505 139.192 43.1783 139.115 43.3317C139.038 43.485 138.909 43.5872 138.781 43.6639C138.626 43.7406 138.446 43.7917 138.215 43.7917C137.984 43.7917 137.804 43.7406 137.675 43.6383C137.521 43.5361 137.47 43.4083 137.47 43.2039C137.47 43.0505 137.495 42.9483 137.572 42.8716C137.65 42.795 137.752 42.7183 137.881 42.6927C138.009 42.6416 138.138 42.6161 138.292 42.5905C138.344 42.5905 138.421 42.5649 138.524 42.5649C138.626 42.5649 138.729 42.5394 138.832 42.5138C138.935 42.4883 139.038 42.4883 139.115 42.4627C139.192 42.4371 139.243 42.4116 139.269 42.386V42.8972H139.243Z" fill="#231F20"/>
<path d="M141.685 41.2103C141.84 41.1081 142.045 41.0314 142.251 41.0314C142.508 41.0314 142.688 41.0825 142.842 41.2103C142.996 41.3381 143.073 41.4914 143.125 41.6448H143.69C143.665 41.4148 143.588 41.2103 143.459 41.057C143.33 40.8781 143.151 40.7503 142.945 40.6736C142.739 40.5714 142.508 40.5203 142.251 40.5203C141.917 40.5203 141.634 40.5969 141.403 40.7503C141.145 40.9036 140.966 41.1336 140.837 41.4148C140.708 41.6959 140.631 42.0281 140.631 42.386C140.631 42.7438 140.708 43.076 140.837 43.3571C140.966 43.6383 141.145 43.8683 141.403 44.0216C141.66 44.175 141.942 44.2516 142.277 44.2516C142.534 44.2516 142.791 44.2005 142.971 44.0983C143.176 43.9961 143.33 43.8683 143.459 43.6894C143.588 43.5105 143.665 43.3316 143.69 43.1271H143.125C143.099 43.2549 143.022 43.3827 142.945 43.4594C142.868 43.5616 142.765 43.6127 142.636 43.6638C142.508 43.7149 142.379 43.7405 142.251 43.7405C142.019 43.7405 141.84 43.6894 141.685 43.5616C141.531 43.4338 141.403 43.2805 141.3 43.076C141.223 42.8715 141.171 42.616 141.171 42.3604C141.171 42.0793 141.223 41.8492 141.3 41.6448C141.377 41.4914 141.505 41.3381 141.685 41.2103Z" fill="#231F20"/>
<path d="M146.749 40.6991C146.569 40.5969 146.338 40.5458 146.107 40.5458C145.824 40.5458 145.593 40.5969 145.413 40.6991C145.233 40.8013 145.104 40.9547 145.027 41.1336H144.976V39.3701H144.41V44.1749H144.976V42.0281C144.976 41.8236 145.027 41.6447 145.104 41.4914C145.181 41.338 145.31 41.2358 145.438 41.1591C145.593 41.0825 145.747 41.0313 145.927 41.0313C146.184 41.0313 146.39 41.108 146.544 41.2614C146.698 41.4147 146.775 41.6447 146.775 41.9259V44.1749H147.341V41.8747C147.341 41.5681 147.289 41.3125 147.186 41.108C147.084 40.9547 146.955 40.8013 146.749 40.6991Z" fill="#231F20"/>
<path d="M148.601 39.2424C148.498 39.2424 148.395 39.268 148.318 39.3447C148.241 39.4213 148.189 39.498 148.189 39.6002C148.189 39.7025 148.241 39.7791 148.318 39.8558C148.395 39.9325 148.498 39.958 148.601 39.958C148.704 39.958 148.806 39.9325 148.884 39.8558C148.961 39.7791 149.012 39.7025 149.012 39.6002C149.012 39.498 148.961 39.3958 148.884 39.3447C148.806 39.2935 148.704 39.2424 148.601 39.2424Z" fill="#231F20"/>
<path d="M148.884 40.5969H148.318V44.2005H148.884V40.5969Z" fill="#231F20"/>
<path d="M152.148 40.6992C151.968 40.597 151.736 40.5459 151.505 40.5459C151.222 40.5459 151.017 40.597 150.837 40.7248C150.657 40.8526 150.528 40.9804 150.451 41.1593H150.4V40.597H149.86V44.2006H150.425V42.0282C150.425 41.8238 150.477 41.6449 150.554 41.4915C150.631 41.3382 150.734 41.236 150.888 41.1593C151.017 41.0826 151.197 41.0315 151.351 41.0315C151.608 41.0315 151.814 41.1082 151.968 41.2615C152.122 41.4149 152.199 41.6449 152.199 41.926V44.1751H152.765V41.8749C152.765 41.5682 152.713 41.3126 152.61 41.1082C152.508 40.9037 152.328 40.8015 152.148 40.6992Z" fill="#231F20"/>
<path d="M156.183 40.597V41.1593H156.132C156.081 41.1082 156.029 41.0059 155.952 40.9293C155.875 40.827 155.772 40.7504 155.644 40.6737C155.515 40.597 155.309 40.5459 155.078 40.5459C154.77 40.5459 154.512 40.6226 154.281 40.7759C154.05 40.9293 153.87 41.1337 153.741 41.4149C153.613 41.696 153.536 42.0027 153.536 42.386C153.536 42.7694 153.613 43.0761 153.741 43.3317C153.87 43.5872 154.05 43.7917 154.281 43.945C154.512 44.0728 154.77 44.1495 155.078 44.1495C155.309 44.1495 155.489 44.1239 155.644 44.0473C155.798 43.9706 155.901 43.8939 155.952 43.7917C156.029 43.6895 156.081 43.6128 156.132 43.5617H156.183V44.3028C156.183 44.6095 156.081 44.814 155.901 44.9673C155.721 45.1207 155.464 45.1718 155.181 45.1718C154.949 45.1718 154.795 45.1462 154.641 45.0696C154.512 45.0184 154.41 44.9418 154.333 44.8395C154.255 44.7629 154.204 44.6862 154.153 44.6095L153.716 44.9162C153.793 45.044 153.896 45.1718 154.024 45.274C154.153 45.3763 154.307 45.4785 154.512 45.5296C154.718 45.6063 154.949 45.6318 155.207 45.6318C155.489 45.6318 155.772 45.5807 156.003 45.504C156.235 45.4018 156.44 45.274 156.569 45.0696C156.697 44.8651 156.775 44.6351 156.775 44.3028V40.597H156.183ZM156.055 43.0505C155.978 43.2294 155.849 43.3828 155.695 43.485C155.541 43.5872 155.361 43.6383 155.129 43.6383C154.898 43.6383 154.692 43.5872 154.538 43.485C154.384 43.3828 154.255 43.2294 154.178 43.025C154.101 42.8461 154.05 42.6161 154.05 42.3605C154.05 42.1049 154.101 41.9004 154.178 41.696C154.255 41.4915 154.384 41.3382 154.538 41.2104C154.692 41.0826 154.898 41.0315 155.129 41.0315C155.361 41.0315 155.541 41.0826 155.695 41.2104C155.849 41.3126 155.978 41.466 156.055 41.6704C156.132 41.8749 156.183 42.1049 156.183 42.3605C156.183 42.6416 156.132 42.8716 156.055 43.0505Z" fill="#231F20"/>
<path d="M31.2259 55.2412C29.3236 54.2956 28.938 51.9698 28.938 50.8964C28.938 49.5674 28.938 48.8263 28.938 43.4081C28.938 37.9899 29.4779 36.7121 30.1462 35.4853C30.3005 35.2042 30.5318 34.9741 30.8146 34.7441C32.6654 36.1242 34.542 36.3287 34.542 36.3287C34.542 36.3287 34.9276 35.6386 35.1846 34.5397C35.236 34.5397 35.2874 34.5397 35.3389 34.5397C38.9377 35.7153 42.7679 35.5364 42.7679 35.5364C42.7679 35.5364 42.6651 32.5206 41.6111 29.3771C46.1868 30.6038 49.7086 28.3803 49.7086 28.3803C49.7086 28.3803 48.9888 23.7033 44.3103 21.1476C44.0275 20.9942 43.7191 20.8664 43.3849 20.7387C45.5442 18.1829 46.6238 14.9882 46.6238 14.9882C46.6238 14.9882 43.9247 14.0426 40.8914 13.9659C41.7911 11.3335 41.971 8.93113 41.971 8.93113C41.971 8.93113 37.6524 8.57333 34.0021 9.95343C33.4366 7.4488 32.3569 5.45532 32.3569 5.45532C32.3569 5.45532 29.3493 7.01432 27.2928 9.46784C26.0075 7.75549 24.2595 6.60541 24.2595 6.60541C24.2595 6.60541 23.1799 8.18997 22.5886 10.1579C19.5039 8.08774 15.8793 7.19323 15.8793 7.19323C15.8793 7.19323 14.9539 10.8224 15.3909 14.5027C11.7149 12.867 6.34235 14.8093 6.34235 14.8093C6.34235 14.8093 7.3963 17.8251 9.45279 20.0742C7.42201 20.7642 6.00817 21.5309 6.00817 21.5309C6.00817 21.5309 7.55054 24.3678 10.0183 26.7191C8.70732 28.3292 8.29602 29.8371 8.29602 29.8371C8.29602 29.8371 10.8152 31.8561 14.5426 31.6772C13.7457 33.8496 14.5169 35.7153 14.5169 35.7153C14.5169 35.7153 17.1646 35.792 19.0669 33.4918C19.4268 36.4309 20.8149 38.3477 20.8149 38.3477C20.8149 38.3477 23.0256 37.8621 25.2364 36.0476C26.5988 38.3733 26.8044 41.568 26.8044 43.4337C26.8044 43.817 26.8044 44.2259 26.8044 44.6604V45.9383C26.8044 49.133 26.8044 49.823 26.8044 50.922C26.8044 51.9954 26.4188 54.3211 24.5166 55.2667H5.2627V56.5702H50.5055V55.2667H31.2259V55.2412ZM29.5036 34.8464C29.5036 34.8464 29.555 34.4119 29.7092 33.7474C29.8892 33.9263 30.0434 34.1052 30.2233 34.2585C29.7863 34.5652 29.5036 34.8464 29.5036 34.8464ZM26.3674 34.9741C27.0615 34.2074 27.7298 33.2618 28.2697 32.1373C28.3211 32.035 28.3725 31.9328 28.3982 31.8306C28.501 32.0606 28.6039 32.2906 28.7324 32.4951C27.9098 34.9486 27.6527 37.1721 27.6527 37.1721C27.6527 37.1721 27.3443 36.2776 26.3674 34.9741Z" fill="white"/>
<path d="M26.6241 18.5918C26.6241 18.5918 23.4623 17.314 22.434 13.6081C21.5857 10.5412 24.2849 6.57983 24.2849 6.57983C24.2849 6.57983 28.2693 9.21225 28.6549 12.4069C29.0919 16.215 26.6241 18.5918 26.6241 18.5918Z" fill="#6A3276"/>
<path d="M34.5668 36.3544C34.5668 36.3544 30.9422 35.9966 28.7572 32.5208C26.932 29.6072 28.5258 24.7769 28.5258 24.7769C28.5258 24.7769 33.41 26.2847 34.7724 29.4283C36.3662 33.1852 34.5668 36.3544 34.5668 36.3544Z" fill="#6CA54D"/>
<path d="M27.3691 21.6331C27.3691 21.6331 24.3357 18.0039 25.5182 12.8158C26.4951 8.49658 32.3818 5.42969 32.3818 5.42969C32.3818 5.42969 35.5179 11.2568 33.8727 15.3715C31.9448 20.3297 27.3691 21.6331 27.3691 21.6331Z" fill="#72BF9A"/>
<path d="M30.2222 22.911C30.2222 22.911 30.8648 17.9018 35.8261 15.0138C39.9648 12.6114 46.6998 14.9626 46.6998 14.9626C46.6998 14.9626 44.4119 21.6843 39.9391 23.4222C34.5922 25.5179 30.2222 22.911 30.2222 22.911Z" fill="#3298BB"/>
<path d="M49.7592 28.3803C49.7592 28.3803 45.7491 30.9105 40.7107 29.0959C36.5206 27.5624 34.207 21.352 34.207 21.352C34.207 21.352 40.4279 19.0007 44.361 21.1475C49.0395 23.7033 49.7592 28.3803 49.7592 28.3803Z" fill="#EDCF40"/>
<path d="M27.3952 21.3522C27.3952 21.3522 33.0763 19.9466 38.2175 24.0102C42.5361 27.4093 42.7932 35.5366 42.7932 35.5366C42.7932 35.5366 34.6186 35.8944 30.8655 31.8819C26.4184 27.0771 27.3952 21.3522 27.3952 21.3522Z" fill="#1DA47C"/>
<path d="M20.8143 38.3477C20.8143 38.3477 17.8323 34.233 19.4775 28.7637C20.84 24.1889 27.395 21.3521 27.395 21.3521C27.395 21.3521 30.3255 27.8181 28.269 32.1373C25.8012 37.2743 20.8143 38.3477 20.8143 38.3477Z" fill="#92C651"/>
<path d="M25.3896 27.2049C25.3896 27.2049 21.0966 30.834 14.9015 29.5306C9.73454 28.4316 5.98145 21.5311 5.98145 21.5311C5.98145 21.5311 12.9221 17.7486 17.8577 19.6143C23.7701 21.8378 25.4153 27.2049 25.3896 27.2049Z" fill="#EDCF40"/>
<path d="M27.3944 21.3521C27.3944 21.3521 26.7003 16.0873 30.9675 11.8448C34.5407 8.31785 42.0211 8.93123 42.0211 8.93123C42.0211 8.93123 41.4813 16.3684 37.4197 19.3331C32.5356 22.8345 27.3944 21.3521 27.3944 21.3521Z" fill="#92C651"/>
<path d="M20.9169 21.6588C20.9169 21.6588 17.0866 23.9846 12.3824 22.1955C8.44938 20.6876 6.36719 14.8094 6.36719 14.8094C6.36719 14.8094 12.2796 12.6882 15.9299 14.7583C20.2999 17.2374 20.9169 21.6588 20.9169 21.6588Z" fill="#6CA54D"/>
<path d="M8.29541 29.8114C8.29541 29.8114 9.42648 25.6456 13.9508 23.8055C17.7296 22.272 23.1278 25.0578 23.1278 25.0578C23.1278 25.0578 20.3773 30.4504 16.4185 31.396C11.6629 32.5205 8.29541 29.8114 8.29541 29.8114Z" fill="#3298BB"/>
<path d="M14.5164 35.7156C14.5164 35.7156 13.5138 33.2621 15.0305 30.6808C16.2901 28.534 19.9918 27.895 19.9918 27.895C19.9918 27.895 20.6859 31.5497 19.0921 33.4921C17.1898 35.7923 14.5164 35.7156 14.5164 35.7156Z" fill="#6A3276"/>
<path d="M26.4952 24.6491C26.4952 24.6491 20.7885 24.4446 17.0611 19.2565C13.925 14.9117 15.9043 7.19336 15.9043 7.19336C15.9043 7.19336 23.6933 9.05905 26.1097 13.8383C28.9887 19.5376 26.521 24.6491 26.4952 24.6491Z" fill="#1DA47C"/>
<path d="M22.9733 55.6248C26.2379 55.4203 26.8035 52.2256 26.8035 50.8966C26.8035 49.8232 26.8035 49.1076 26.8035 45.9129V44.6351C26.8035 44.2006 26.8035 43.7917 26.8035 43.4083C26.8035 41.2615 26.5464 37.4279 24.5928 35.0766C22.6391 32.7253 21.9193 31.2685 18.6289 30.3485C18.6289 30.3485 17.9349 31.2174 16.5467 31.2174C14.0532 31.2174 12.0225 28.3294 12.0225 28.3294C12.0225 28.3294 13.3849 27.486 15.9555 27.5371C18.3205 27.5883 18.6289 29.8373 18.6289 29.8373C18.6289 29.8373 19.5801 30.0673 20.1456 30.1951C20.7111 30.3229 21.2253 30.5274 21.2253 30.5274C21.2253 30.5274 20.5826 29.4539 20.5826 26.8982C20.5826 25.2881 21.3024 23.7035 21.3024 23.7035C21.3024 23.7035 21.1738 22.8346 20.9682 22.2979C20.7625 21.7867 20.2741 21.5056 20.2741 21.5056C20.2741 21.5056 18.6803 22.4768 17.0094 21.0967C15.3128 19.7166 14.7216 17.2631 14.7216 17.2631C14.7216 17.2631 17.2151 17.0842 18.886 18.132C20.9682 19.4099 20.3512 21.2756 20.3512 21.2756C20.3512 21.2756 20.8911 21.5056 21.2253 21.9656C21.5594 22.4257 21.7137 22.7579 21.7137 22.7579C21.7137 22.7579 22.999 20.1766 25.7238 19.0776C28.4487 17.9787 30.7879 18.7198 30.7879 18.7198C30.7879 18.7198 31.5334 18.0809 32.5359 18.1065C35.2865 18.1831 36.8289 22.0679 36.8289 22.0679C36.8289 22.0679 34.0012 22.7579 32.1761 21.6078C30.3509 20.4577 30.608 18.9243 30.608 18.9243C30.608 18.9243 27.112 18.0042 24.2586 20.6622C21.4052 23.3202 21.1738 27.5627 22.1764 29.7862C23.3332 32.3164 24.6442 32.8275 25.9552 34.4376C27.2662 36.0478 27.6775 37.1723 27.6775 37.1723C27.6775 37.1723 28.5258 29.914 31.9961 27.1538C35.3893 24.4703 39.3738 25.9526 39.3738 25.9526C39.3738 25.9526 40.1707 25.1347 41.456 25.1347C44.0266 25.1347 45.9802 27.9972 45.9802 27.9972C45.9802 27.9972 44.3351 28.9428 41.9187 28.7639C39.5023 28.585 39.2452 26.2082 39.2452 26.2082C39.2452 26.2082 35.415 24.9814 32.4845 27.8949C30.0682 30.2973 29.5026 34.8466 29.5026 34.8466C29.5026 34.8466 30.4538 33.9265 31.482 33.6454C32.5359 33.3642 33.1272 33.2876 33.1272 33.2876C33.1272 33.2876 33.2814 31.3196 35.158 30.9363C37.8571 30.374 39.7594 31.3452 39.7594 31.3452C39.7594 31.3452 38.0885 34.2587 35.4664 34.5399C34.1554 34.6932 33.2557 33.6198 33.2557 33.6198C33.2557 33.6198 30.8393 34.2843 30.171 35.5111C29.5026 36.7378 28.9628 38.0157 28.9628 43.4339C28.9628 48.852 28.9628 49.5932 28.9628 50.9222C28.9628 52.2512 29.5283 55.4714 32.793 55.6503L27.4204 55.5736L22.9733 55.6248Z" fill="#211E1F"/>
<path d="M50.5312 55.2412H5.2627V56.5446H50.5312V55.2412Z" fill="#211E1F"/>
</svg>
