<svg width="33" height="33" viewBox="0 0 33 33" fill="none" xmlns="http://www.w3.org/2000/svg">
<path d="M3.76624 7.50314L2.40039 4.08851L3.08332 2.72266H6.49795H15.376H24.937L28.3516 4.77144L30.4004 10.9178L26.9858 17.0641L19.4736 18.43L14.0101 17.0641L11.9614 15.0153L11.2784 12.2836L7.18088 9.55192L3.76624 7.50314Z" fill="#B7FFFD"/>
<path d="M20.8389 17.7471V19.1129C20.8389 22.9761 20.8389 24.9077 22.039 26.1079C23.2392 27.308 25.1708 27.308 29.034 27.308" stroke="#1355FF" stroke-width="1.9" stroke-linejoin="round"/>
<path d="M28.6123 24.5762V30.0396" stroke="#1355FF" stroke-width="1.9" stroke-linecap="round" stroke-linejoin="round"/>
<path d="M12.6437 14.782L11.91 14.8636C10.8123 14.9855 10.2634 15.0466 9.82621 14.9992C7.6922 14.7679 6.01018 12.8769 5.8256 10.5015C5.78778 10.0148 5.8487 9.40524 5.97052 8.18604" stroke="#1355FF" stroke-width="1.9" stroke-linejoin="round"/>
<path d="M19.0518 9.552H19.0641" stroke="#1355FF" stroke-width="1.9" stroke-linecap="round" stroke-linejoin="round"/>
<path d="M23.5703 9.552H29.7167" stroke="#1355FF" stroke-width="1.9" stroke-linecap="round" stroke-linejoin="round"/>
<path d="M3.41901 5.76052C3.11576 4.53558 2.96414 3.9231 3.19476 3.46718C3.27319 3.31212 3.38027 3.17362 3.51021 3.05918C3.89226 2.72266 4.51741 2.72266 5.76773 2.72266H22.9612C27.0696 2.72266 30.4001 6.08598 30.4001 10.2349C30.4001 14.3838 27.0696 17.747 22.9612 17.747H16.4753C15.3611 17.747 14.8038 17.747 14.3252 17.5562C13.9561 17.4091 13.6236 17.1817 13.3512 16.8902C12.998 16.5123 12.7911 15.9899 12.3772 14.945L11.6431 13.0918C11.2186 12.02 11.0064 11.4842 10.6138 11.0877C10.2212 10.6912 9.69053 10.4769 8.62926 10.0482L6.31817 9.11462C5.32554 8.71365 4.82923 8.51317 4.4567 8.15996C4.32611 8.03613 4.20802 7.8995 4.10418 7.7521C3.80795 7.33163 3.6783 6.80794 3.41901 5.76052Z" stroke="#1355FF" stroke-width="1.9" stroke-linejoin="round"/>
</svg>
