<svg width="24" height="25" viewBox="0 0 24 25" fill="none" xmlns="http://www.w3.org/2000/svg">
<path d="M15 13.5V14.5C15 17.3284 15 18.7426 15.8787 19.6213C16.7574 20.5 18.1716 20.5 21 20.5" stroke="#1355FF" stroke-width="1.5" stroke-linejoin="round"/>
<path d="M20.6914 18.5V22.5" stroke="#1355FF" stroke-width="1.5" stroke-linecap="round" stroke-linejoin="round"/>
<path d="M9 11.3292L8.46281 11.3889C7.65914 11.4782 7.25729 11.5229 6.93718 11.4882C5.37478 11.3189 4.1433 9.93436 4.00816 8.19526C3.98047 7.83895 4.02507 7.39263 4.11426 6.5" fill="#B7FFFD"/>
<path d="M9 11.3292L8.46281 11.3889C7.65914 11.4782 7.25729 11.5229 6.93718 11.4882C5.37478 11.3189 4.1433 9.93436 4.00816 8.19526C3.98047 7.83895 4.02507 7.39263 4.11426 6.5" stroke="#1355FF" stroke-width="1.5" stroke-linejoin="round"/>
<path d="M13.6914 7.5H13.7004" stroke="#1355FF" stroke-width="2" stroke-linecap="round" stroke-linejoin="round"/>
<path d="M17 7.5H21.5" stroke="#1355FF" stroke-width="1.5" stroke-linecap="round" stroke-linejoin="round"/>
<path d="M2.246 4.72415C2.02398 3.82732 1.91297 3.3789 2.08182 3.0451C2.13924 2.93157 2.21764 2.83017 2.31277 2.74638C2.59249 2.5 3.05019 2.5 3.9656 2.5H16.5537C19.5616 2.5 22 4.96243 22 8C22 11.0376 19.5616 13.5 16.5537 13.5H11.8051C10.9893 13.5 10.5813 13.5 10.2309 13.3603C9.96064 13.2526 9.71719 13.0861 9.51778 12.8727C9.25919 12.596 9.10768 12.2135 8.80467 11.4485L8.26723 10.0917C7.95643 9.30701 7.80103 8.91468 7.51359 8.6244C7.22614 8.33413 6.83765 8.17719 6.06065 7.86333L4.3686 7.17983C3.64185 6.88626 3.27848 6.73948 3.00574 6.48088C2.91013 6.39022 2.82367 6.29019 2.74764 6.18227C2.53076 5.87443 2.43584 5.49101 2.246 4.72415Z" fill="#B7FFFD" stroke="#1355FF" stroke-width="1.5" stroke-linejoin="round"/>
</svg>
