<svg width="17" height="17" viewBox="0 0 17 17" fill="none" xmlns="http://www.w3.org/2000/svg">
<path d="M12.2087 4.72257C12.1774 3.68694 12.0618 3.06923 11.6338 2.64169C11.0474 2.05591 10.1035 2.05591 8.21586 2.05591H5.54633C3.65867 2.05591 2.71483 2.05591 2.12841 2.64169C1.54199 3.22748 1.54199 4.17029 1.54199 6.05591V11.3892C1.54199 13.2748 1.54199 14.2176 2.12841 14.8034C2.71483 15.3892 3.65867 15.3892 5.54633 15.3892H8.21586C10.1035 15.3892 11.0474 15.3892 11.6338 14.8034C12.0618 14.3759 12.1774 13.7582 12.2087 12.7226" stroke="#666666" stroke-linecap="round" stroke-linejoin="round"/>
<path d="M13.7036 8.55051L14.4883 7.76578C14.6686 7.58551 14.7587 7.49537 14.8069 7.39818C14.8986 7.21314 14.8986 6.99593 14.8069 6.81092C14.7587 6.71368 14.6686 6.62354 14.4883 6.44327C14.308 6.26299 14.2179 6.17285 14.1207 6.12467C13.9357 6.03299 13.7185 6.03299 13.5334 6.12467C13.4362 6.17285 13.3461 6.26299 13.1658 6.44327L12.3811 7.22797M13.7036 8.55051L10.1928 12.0613L8.20898 12.7226L8.87025 10.7388L12.3811 7.22797M13.7036 8.55051L12.3811 7.22797" stroke="#666666" stroke-linecap="round" stroke-linejoin="round"/>
<path d="M3.54199 13.3893H4.20866L5.04199 11.7227L5.87533 13.3893H6.54199" stroke="#666666" stroke-linecap="round" stroke-linejoin="round"/>
<path d="M4.20898 4.72266H9.54232" stroke="#666666" stroke-linecap="round" stroke-linejoin="round"/>
<path d="M4.20898 7.3894H8.20898" stroke="#666666" stroke-linecap="round" stroke-linejoin="round"/>
</svg>
