<svg width="17" height="28" viewBox="0 0 17 28" fill="none" xmlns="http://www.w3.org/2000/svg">
<path d="M14.1375 12.7241C15.6669 12.6225 16.8852 11.3869 16.9854 9.8358C17.005 9.53225 17.005 9.21788 16.9854 8.91434C16.8852 7.36321 15.6669 6.12765 14.1375 6.02599C13.6157 5.9913 13.0709 5.99137 12.5502 6.02599C11.0207 6.12765 9.80246 7.36321 9.70221 8.91434C9.6826 9.21788 9.6826 9.53225 9.70221 9.8358C9.73872 10.4007 9.98857 10.9238 10.2827 11.3655C10.4535 11.6747 10.3408 12.0606 10.1629 12.3977C10.0346 12.6408 9.9705 12.7624 10.022 12.8501C10.0735 12.9379 10.1885 12.9407 10.4186 12.9463C10.8735 12.9574 11.1803 12.8284 11.4238 12.6489C11.5619 12.547 11.6309 12.4961 11.6785 12.4902C11.7261 12.4844 11.8198 12.523 12.0071 12.6001C12.1754 12.6694 12.3709 12.7122 12.5502 12.7241C13.0709 12.7588 13.6157 12.7588 14.1375 12.7241Z" fill="#1355FF"/>
<path d="M12.0635 10.3877H14.6229M12.0635 8.55957H13.3432" stroke="white" stroke-width="0.548447" stroke-linecap="round" stroke-linejoin="round"/>
<path d="M6.24239 8.37771L5.89963 7.60647C5.6755 7.1022 5.56344 6.85005 5.39584 6.65709C5.1858 6.41527 4.91203 6.23735 4.60574 6.14363C4.36135 6.06885 4.08543 6.06885 3.53359 6.06885C2.72632 6.06885 2.32268 6.06885 1.98385 6.22403C1.58472 6.40682 1.22425 6.80374 1.08064 7.21859C0.958722 7.57075 0.993642 7.93266 1.06349 8.65648C1.80694 16.361 6.0309 20.585 13.7354 21.3284C14.4592 21.3983 14.8211 21.4332 15.1733 21.3113C15.5881 21.1677 15.9851 20.8071 16.1678 20.4081C16.323 20.0692 16.323 19.6656 16.323 18.8583C16.323 18.3064 16.323 18.0305 16.2483 17.7861C16.1546 17.4798 15.9766 17.2061 15.7348 16.996C15.5418 16.8284 15.2897 16.7164 14.7854 16.4923L14.0142 16.1494C13.468 15.9067 13.195 15.7854 12.9175 15.759C12.652 15.7338 12.3842 15.771 12.1357 15.8678C11.8759 15.969 11.6464 16.1603 11.1873 16.5428C10.7302 16.9237 10.5017 17.1141 10.2225 17.2161C9.97504 17.3065 9.64781 17.34 9.38706 17.3016C9.09303 17.2582 8.86778 17.1379 8.41745 16.8972C7.01616 16.1484 6.24348 15.3757 5.49464 13.9744C5.25396 13.5241 5.13363 13.2989 5.09029 13.0048C5.05187 12.7441 5.08536 12.4168 5.17578 12.1694C5.27778 11.8901 5.4682 11.6616 5.84905 11.2046C6.23164 10.7455 6.42294 10.5159 6.52408 10.2562C6.62087 10.0077 6.65812 9.73991 6.63287 9.47437C6.60648 9.19689 6.48512 8.92384 6.24239 8.37771Z" fill="#1355FF" stroke="#1355FF" stroke-width="1.27692" stroke-linecap="round"/>
</svg>
