<svg width="48" height="49" viewBox="0 0 48 49" fill="none" xmlns="http://www.w3.org/2000/svg">
<path d="M31.4197 13.7055C28.4706 12.7223 26.5039 8.0729 25.8892 5.87109L13.9055 7.25365L4.84282 14.4737L3 28.4529L7.60852 37.6699L4.84282 44.1218L9.29733 45.8116L15.1346 42.5857L27.5776 44.1218L39.867 39.2061C41.7108 35.6217 45.3062 28.4529 44.9375 28.4529C17.7779 26.1179 24.6091 17.6484 31.4197 13.7055Z" fill="#21A9ED" fill-opacity="0.2"/>
<path d="M25.3791 5.59204H23.3051C22.14 5.60935 20.9798 5.65586 19.8401 5.73149C11.1644 6.30714 4.25366 13.3031 3.68502 22.0861C3.57374 23.8047 3.57374 25.5846 3.68502 27.3034C3.89213 30.5022 5.3094 33.464 6.97792 35.965C7.94671 37.7157 7.30737 39.9011 6.29826 41.8097C5.57068 43.186 5.2069 43.8742 5.499 44.3712C5.79108 44.8684 6.44354 44.8843 7.74848 44.916C10.3291 44.9787 12.0692 44.2484 13.4506 43.2317C14.234 42.655 14.6257 42.3667 14.8957 42.3336C15.1656 42.3005 15.6969 42.5188 16.7594 42.9556C17.7142 43.3482 18.8229 43.5904 19.8401 43.6579C22.7939 43.8539 25.8842 43.8543 28.8439 43.6579C37.1685 43.1056 43.9681 36.642 44.9991 28.3607" stroke="#21A9ED" stroke-width="2.25" stroke-linecap="round"/>
<path d="M31.7316 17.2831C30.43 18.0459 27.0177 19.6036 29.096 21.5528C30.1113 22.505 31.2423 23.186 32.6639 23.186H40.7761C42.1977 23.186 43.3287 22.505 44.344 21.5528C46.4223 19.6036 43.0099 18.0459 41.7084 17.2831C38.6564 15.4942 34.7836 15.4942 31.7316 17.2831Z" fill="#B7FFFD" stroke="#21A9ED" stroke-width="2.25" stroke-linecap="round"/>
<path d="M40.8596 7.66197C40.8596 9.94829 39.0062 11.8017 36.7198 11.8017C34.4334 11.8017 32.5801 9.94829 32.5801 7.66197C32.5801 5.37565 34.4334 3.52222 36.7198 3.52222C39.0062 3.52222 40.8596 5.37565 40.8596 7.66197Z" fill="#B7FFFD" stroke="#21A9ED" stroke-width="2.25" stroke-linecap="round"/>
<path d="M24.2916 25.2559H24.3103M16.0215 25.2559H16.0401" stroke="#21A9ED" stroke-width="2.25" stroke-linecap="round"/>
</svg>
