<svg width="17" height="27" viewBox="0 0 17 27" fill="none" xmlns="http://www.w3.org/2000/svg">
<path d="M1 6.21094C1 5.1754 1.83947 4.33594 2.875 4.33594H14.125C15.1605 4.33594 16 5.1754 16 6.21094V18.9999H1V6.21094Z" fill="#1355FF"/>
<path d="M16 22.75H2.875C1.83947 22.75 1 21.9106 1 20.875M1 20.875C1 19.8394 1.83947 19 2.875 19H16V7.75C16 5.98223 16 5.09835 15.4508 4.54918C14.9016 4 14.0177 4 12.25 4H6.625C3.97335 4 2.64753 4 1.82376 4.82376C1 5.64752 1 6.97335 1 9.625V20.875Z" stroke="#1355FF" stroke-width="1.40625" stroke-linecap="round" stroke-linejoin="round"/>
<path d="M15.5312 19C15.5312 19 14.5938 19.7151 14.5938 20.875C14.5938 22.0349 15.5312 22.75 15.5312 22.75" stroke="#1355FF" stroke-width="1.40625" stroke-linecap="round" stroke-linejoin="round"/>
<path d="M6.7094 13.2796C6.1199 13.6251 4.57434 14.3306 5.51568 15.2134C5.97552 15.6447 6.48777 15.9531 7.13165 15.9531H10.8059C11.4498 15.9531 11.962 15.6447 12.4219 15.2134C13.3632 14.3306 11.8176 13.6251 11.2281 13.2796C9.84581 12.4693 8.09174 12.4693 6.7094 13.2796Z" stroke="white" stroke-width="1.40625"/>
<path d="M10.8438 8.92188C10.8438 9.95741 10.0043 10.7969 8.96875 10.7969C7.93319 10.7969 7.09375 9.95741 7.09375 8.92188C7.09375 7.88634 7.93319 7.04688 8.96875 7.04688C10.0043 7.04688 10.8438 7.88634 10.8438 8.92188Z" stroke="white" stroke-width="1.40625"/>
</svg>
