<svg width="20" height="20" viewBox="0 0 20 20" fill="none" xmlns="http://www.w3.org/2000/svg">
<path d="M14.583 9.16683V6.0835C14.583 4.19788 14.583 3.25507 13.9369 2.66928C13.2908 2.0835 12.251 2.0835 10.1713 2.0835H6.49477C4.41505 2.0835 3.37518 2.0835 2.7291 2.66928C2.08301 3.25507 2.08301 4.19788 2.08301 6.0835V11.4168C2.08301 13.3024 2.08301 14.2452 2.7291 14.8311C3.37518 15.4168 4.41505 15.4168 6.49477 15.4168H9.16634" stroke="#1355FF" stroke-width="1.5" stroke-linecap="round"/>
<path d="M4.58301 5.4165H12.083" stroke="#1355FF" stroke-width="1.5" stroke-linecap="round" stroke-linejoin="round"/>
<path d="M4.58301 8.75H5.41634" stroke="#1355FF" stroke-width="1.5" stroke-linecap="round" stroke-linejoin="round"/>
<path d="M7.91699 8.75H8.75033" stroke="#1355FF" stroke-width="1.5" stroke-linecap="round" stroke-linejoin="round"/>
<path d="M11.25 8.75H12.0833" stroke="#1355FF" stroke-width="1.5" stroke-linecap="round" stroke-linejoin="round"/>
<path d="M4.58301 12.0835H5.41634" stroke="#1355FF" stroke-width="1.5" stroke-linecap="round" stroke-linejoin="round"/>
<path d="M7.91699 12.0835H8.75033" stroke="#1355FF" stroke-width="1.5" stroke-linecap="round" stroke-linejoin="round"/>
<path d="M14.5833 17.9167C16.4243 17.9167 17.9167 16.4243 17.9167 14.5833C17.9167 12.7424 16.4243 11.25 14.5833 11.25C12.7424 11.25 11.25 12.7424 11.25 14.5833C11.25 16.4243 12.7424 17.9167 14.5833 17.9167Z" stroke="#1355FF" stroke-width="1.5"/>
<path d="M15.4163 15.0002L14.583 14.5835V13.3335" stroke="#1355FF" stroke-width="1.5" stroke-linecap="round" stroke-linejoin="round"/>
</svg>
