<svg width="40" height="41" viewBox="0 0 40 41" fill="none" xmlns="http://www.w3.org/2000/svg">
<rect x="0.625" y="1.29199" width="38.75" height="38.75" fill="white"/>
<rect x="0.625" y="1.29199" width="38.75" height="38.75" stroke="#D7E8FF" stroke-width="1.25"/>
<path d="M20.8052 20.2333H20.4481V20.5905V27.4393H18.2932L18.2823 20.6243L18.2817 20.2678H17.9251H16.7849V18.538H17.9251H18.2823V18.1809V16.2589C18.2823 15.4167 18.5056 14.8427 18.915 14.4718C19.3317 14.0945 20.0059 13.8679 21.0347 13.8679H22.6684V15.655H21.465C21.1593 15.655 20.8469 15.7153 20.6462 15.98C20.4693 16.2132 20.4481 16.5275 20.4481 16.8097V18.1809V18.538H20.8052H22.6346L22.4812 20.2333H20.8052Z" fill="#171A1D" stroke="#171A1D" stroke-width="0.714286"/>
</svg>
