<svg width="33" height="33" viewBox="0 0 33 33" fill="none" xmlns="http://www.w3.org/2000/svg">
<path d="M19.0044 28.3334H16.3369C10.0499 28.3334 6.90631 28.3334 4.95316 26.3807C3 24.4282 3 21.2854 3 15V10.9257C3 8.50377 3 7.29279 3.50723 6.38412C3.8688 5.7364 4.4034 5.20193 5.05131 4.84047C5.96023 4.33337 7.17153 4.33337 9.59416 4.33337C11.1462 4.33337 11.9223 4.33337 12.6016 4.58805C14.1527 5.16953 14.7923 6.57815 15.4921 7.97755L29.656 14.5M17 11.4444L22.672 9.66671C25.4817 9.66671 26.8865 9.66671 27.8957 10.3408C28.3327 10.6327 28.7077 11.0077 28.9996 11.4444C29.5249 12.2305 29.6411 13.2566 29.6667 15" fill="#B7FFFD"/>
<path d="M19.0044 28.3334H16.3369C10.0499 28.3334 6.90631 28.3334 4.95316 26.3807C3 24.4282 3 21.2854 3 15V10.9257C3 8.50377 3 7.29279 3.50723 6.38412C3.8688 5.7364 4.4034 5.20193 5.05131 4.84047C5.96023 4.33337 7.17153 4.33337 9.59416 4.33337C11.1462 4.33337 11.9223 4.33337 12.6016 4.58805C14.1527 5.16953 14.7923 6.57815 15.4921 7.97755L16.3369 9.66671M11.0022 9.66671H22.672C25.4817 9.66671 26.8865 9.66671 27.8957 10.3408C28.3327 10.6327 28.7077 11.0077 28.9996 11.4444C29.5249 12.2305 29.6411 13.2566 29.6667 15" fill="#C6F4FF"/>
<path d="M19.0044 28.3334H16.3369C10.0499 28.3334 6.90631 28.3334 4.95316 26.3807C3 24.4282 3 21.2854 3 15V10.9257C3 8.50377 3 7.29279 3.50723 6.38412C3.8688 5.7364 4.4034 5.20193 5.05131 4.84047C5.96023 4.33337 7.17153 4.33337 9.59416 4.33337C11.1462 4.33337 11.9223 4.33337 12.6016 4.58805C14.1527 5.16953 14.7923 6.57815 15.4921 7.97755L16.3369 9.66671M11.0022 9.66671H22.672C25.4817 9.66671 26.8865 9.66671 27.8957 10.3408C28.3327 10.6327 28.7077 11.0077 28.9996 11.4444C29.5249 12.2305 29.6411 13.2566 29.6667 15" stroke="#1355FF" stroke-width="2" stroke-linecap="round"/>
<path d="M29.6673 22.4939V19.8658C29.6673 19.4525 29.3637 19.1094 28.97 19.039C27.3832 18.7553 26.066 18.1242 25.4233 17.7742C25.1603 17.6309 24.8411 17.6309 24.578 17.7742C23.9353 18.1242 22.6181 18.7553 21.0313 19.039C20.6376 19.1094 20.334 19.4525 20.334 19.8658V22.4939C20.334 25.9225 23.7239 27.7926 24.7253 28.2702C24.902 28.3545 25.0993 28.3545 25.276 28.2702C26.2774 27.7926 29.6673 25.9225 29.6673 22.4939Z" fill="white" stroke="#1355FF" stroke-width="2" stroke-linecap="round"/>
</svg>
