<svg width="25" height="25" viewBox="0 0 25 25" fill="none" xmlns="http://www.w3.org/2000/svg">
<path d="M10.8882 10.7353L9.29732 17.4176C9.25319 17.603 9.23112 17.6957 9.21527 17.787C9.11639 18.3563 9.18403 18.942 9.41005 19.4738C9.4463 19.5591 9.4889 19.6443 9.57412 19.8147C9.6303 19.9271 9.65839 19.9833 9.67103 20.0266C9.75397 20.3114 9.57232 20.6053 9.28058 20.6584C9.23614 20.6665 9.17371 20.6665 9.04885 20.6665C7.90755 20.6665 6.0236 20.6665 5.02785 20.6665C3.86423 20.6665 3.28242 20.6665 2.98609 20.2846C2.68976 19.9026 2.83087 19.3346 3.11309 18.1985L4.46647 12.7506C4.72077 11.7269 3.95143 10.7353 2.90292 10.7353C2.68039 10.7353 2.5 10.5537 2.5 10.3298V7.75592C2.5 5.29099 3.01119 4.77655 5.46053 4.77655H18.6677C19.2887 4.77655 19.757 4.63002 20.2632 4.2904C20.8544 3.89374 21.5829 3.17258 22.1191 4.17539C22.6576 5.1826 22.687 9.40965 21.8033 10.299C21.3698 10.7353 20.672 10.7353 19.2764 10.7353H10.8882ZM10.8882 10.7353H9.40791" stroke="white" stroke-width="1.5" stroke-linecap="round" stroke-linejoin="round"/>
<path d="M9.5 14.6665H10.3769C11.3276 14.6665 11.803 14.6665 12.2196 14.5767C13.4146 14.3192 14.4263 13.5293 14.966 12.4324C15.1541 12.05 15.2694 11.5889 15.5 10.6665" stroke="white" stroke-width="1.5"/>
<path d="M2.5 7.6665H4.52786C5.73068 7.6665 6.33209 7.6665 6.81539 7.3678C7.2987 7.0691 7.56766 6.53119 8.10557 5.45535L8.5 4.6665" stroke="white" stroke-width="1.5"/>
<path d="M22.5 7.6665H19.5" stroke="white" stroke-width="1.5" stroke-linecap="round"/>
</svg>
