<svg width="25" height="25" viewBox="0 0 25 25" fill="none" xmlns="http://www.w3.org/2000/svg">
<path d="M10.8882 11.0688L9.29732 17.7511C9.25319 17.9365 9.23112 18.0292 9.21527 18.1205C9.11639 18.6898 9.18403 19.2755 9.41005 19.8073C9.4463 19.8926 9.4889 19.9778 9.57412 20.1482C9.6303 20.2606 9.65839 20.3168 9.67103 20.3601C9.75397 20.6449 9.57232 20.9388 9.28058 20.9919C9.23614 21 9.17371 21 9.04885 21C7.90755 21 6.0236 21 5.02785 21C3.86423 21 3.28242 21 2.98609 20.6181C2.68976 20.2361 2.83087 19.6681 3.11309 18.532L4.46647 13.0841C4.72077 12.0604 3.95143 11.0688 2.90292 11.0688C2.68039 11.0688 2.5 10.8872 2.5 10.6633V8.08942C2.5 5.62449 3.01119 5.11005 5.46053 5.11005H18.6677C19.2887 5.11005 19.757 4.96352 20.2632 4.6239C20.8544 4.22724 21.5829 3.50608 22.1191 4.50889C22.6576 5.5161 22.687 9.74315 21.8033 10.6325C21.3698 11.0688 20.672 11.0688 19.2764 11.0688H10.8882ZM10.8882 11.0688H9.40791Z" fill="#B7FFFD"/>
<path d="M10.8882 11.0688L9.29732 17.7511C9.25319 17.9365 9.23112 18.0292 9.21527 18.1205C9.11639 18.6898 9.18403 19.2755 9.41005 19.8073C9.4463 19.8926 9.4889 19.9778 9.57412 20.1482C9.6303 20.2606 9.65839 20.3168 9.67103 20.3601C9.75397 20.6449 9.57232 20.9388 9.28058 20.9919C9.23614 21 9.17371 21 9.04885 21C7.90755 21 6.0236 21 5.02785 21C3.86423 21 3.28242 21 2.98609 20.6181C2.68976 20.2361 2.83087 19.6681 3.11309 18.532L4.46647 13.0841C4.72077 12.0604 3.95143 11.0688 2.90292 11.0688C2.68039 11.0688 2.5 10.8872 2.5 10.6633V8.08942C2.5 5.62449 3.01119 5.11005 5.46053 5.11005H18.6677C19.2887 5.11005 19.757 4.96352 20.2632 4.6239C20.8544 4.22724 21.5829 3.50608 22.1191 4.50889C22.6576 5.5161 22.687 9.74315 21.8033 10.6325C21.3698 11.0688 20.672 11.0688 19.2764 11.0688H10.8882ZM10.8882 11.0688H9.40791" stroke="#1355FF" stroke-width="1.5" stroke-linecap="round" stroke-linejoin="round"/>
<path d="M9.5 15H10.3769C11.3276 15 11.803 15 12.2196 14.9102C13.4146 14.6527 14.4263 13.8628 14.966 12.7659C15.1541 12.3835 15.2694 11.9224 15.5 11" fill="#B7FFFD"/>
<path d="M9.5 15H10.3769C11.3276 15 11.803 15 12.2196 14.9102C13.4146 14.6527 14.4263 13.8628 14.966 12.7659C15.1541 12.3835 15.2694 11.9224 15.5 11" stroke="#1355FF" stroke-width="1.5"/>
<path d="M2.5 8H4.52786C5.73068 8 6.33209 8 6.81539 7.7013C7.2987 7.4026 7.56766 6.86469 8.10557 5.78885L8.5 5" fill="#D9D9D9"/>
<path d="M2.5 8H4.52786C5.73068 8 6.33209 8 6.81539 7.7013C7.2987 7.4026 7.56766 6.86469 8.10557 5.78885L8.5 5" stroke="#1355FF" stroke-width="1.5"/>
<path d="M22.5 8H19.5Z" fill="#D9D9D9"/>
<path d="M22.5 8H19.5" stroke="#1355FF" stroke-width="1.5" stroke-linecap="round"/>
</svg>
