<svg width="33" height="33" viewBox="0 0 33 33" fill="none" xmlns="http://www.w3.org/2000/svg">
<path d="M5.54398 9.04297L10.5362 7.23535V12.0184L12.5538 13.9307L17.261 14.6662L21.4533 13.3423L22.0417 7.23535L24.4928 7.60941L27.0483 10.539L27.4847 19.2653V30.9835H20.1296H4.92383V22.6935L5.54398 9.04297Z" fill="#B7FFFD"/>
<path d="M12.9023 30.7227V27.2227C12.9023 25.9142 12.9023 25.26 13.1837 24.7727C13.368 24.4535 13.6331 24.1883 13.9523 24.0041C14.4397 23.7227 15.0939 23.7227 16.4023 23.7227C17.7108 23.7227 18.365 23.7227 18.8523 24.0041C19.1715 24.1883 19.4367 24.4535 19.6209 24.7727C19.9023 25.26 19.9023 25.9142 19.9023 27.2227V30.7227" fill="#B7FFFD"/>
<path d="M12.9023 30.7227V27.2227C12.9023 25.9142 12.9023 25.26 13.1837 24.7727C13.368 24.4535 13.6331 24.1883 13.9523 24.0041C14.4397 23.7227 15.0939 23.7227 16.4023 23.7227C17.7108 23.7227 18.365 23.7227 18.8523 24.0041C19.1715 24.1883 19.4367 24.4535 19.6209 24.7727C19.9023 25.26 19.9023 25.9142 19.9023 27.2227V30.7227" stroke="#1355FF" stroke-width="1.9" stroke-linecap="round"/>
<path d="M16.4008 6.22266V8.32266M16.4008 8.32266V10.4227M16.4008 8.32266H18.5008M16.4008 8.32266H14.3008" stroke="#1355FF" stroke-width="1.9" stroke-linecap="round"/>
<path d="M11.6209 3.54276C10.8008 4.36285 10.8008 5.68279 10.8008 8.32266C10.8008 10.9625 10.8008 12.2825 11.6209 13.1026C12.441 13.9227 13.7609 13.9227 16.4008 13.9227C19.0406 13.9227 20.3605 13.9227 21.1807 13.1026C22.0008 12.2825 22.0008 10.9625 22.0008 8.32266C22.0008 5.68279 22.0008 4.36285 21.1807 3.54276C20.3605 2.72266 19.0406 2.72266 16.4008 2.72266C13.7609 2.72266 12.441 2.72266 11.6209 3.54276Z" stroke="#1355FF" stroke-width="1.9" stroke-linecap="round" stroke-linejoin="round"/>
<path d="M5.19922 30.7229V16.6818C5.19922 12.0486 5.19922 9.73194 6.6344 8.29256C7.54653 7.37775 8.81199 7.04436 10.7992 6.92285M27.5992 30.7229V16.6818C27.5992 12.0486 27.5992 9.73194 26.1641 8.29256C25.2518 7.37775 23.9864 7.04436 21.9992 6.92285" stroke="#1355FF" stroke-width="1.9" stroke-linecap="round" stroke-linejoin="round"/>
<path d="M3.80078 30.7227H29.0008" stroke="#1355FF" stroke-width="1.9" stroke-linecap="round" stroke-linejoin="round"/>
<path d="M10.8133 18.1226H10.8008M16.4008 18.1226H16.3882M22.0023 18.1226H21.9899" stroke="#1355FF" stroke-width="1.9" stroke-linecap="round" stroke-linejoin="round"/>
</svg>
