<svg width="24" height="25" viewBox="0 0 24 25" fill="none" xmlns="http://www.w3.org/2000/svg">
<path d="M4 7.15677C4 6.69977 4.3736 6.31389 4.87248 6.25561L11 5.53981L17.1275 6.25561C17.6264 6.31389 18 6.69977 18 7.15677V15.8215C18 17.0581 17.3079 18.2098 16.163 18.8786L11.5408 21.5784C11.2113 21.7708 10.7887 21.7708 10.4592 21.5784L5.83697 18.8786C4.69208 18.2098 4 17.0581 4 15.8214V7.15677Z" fill="#3448FF"/>
<path fill-rule="evenodd" clip-rule="evenodd" d="M6.87248 4.43846C6.3736 4.49673 6 4.88261 6 5.33961V6.1239L11 5.53981L17.1275 6.25561C17.6264 6.31389 18 6.69977 18 7.15677V15.8215C18 16.3704 17.8636 16.9027 17.6117 17.3834L18.163 17.0614C19.3079 16.3927 20 15.2409 20 14.0043V5.33962C20 4.88261 19.6264 4.49673 19.1275 4.43846L13 3.72266L6.87248 4.43846Z" fill="#52B9F3"/>
<path fill-rule="evenodd" clip-rule="evenodd" d="M8.75 12.4677V11.7863C8.75 10.8454 9.58947 10.0827 10.625 10.0827C11.6605 10.0827 12.5 10.8454 12.5 11.7863V12.4677C12.9142 12.4677 13.25 12.7728 13.25 13.1491V14.8527C13.25 15.2291 12.9142 15.5342 12.5 15.5342H8.75C8.33579 15.5342 8 15.2291 8 14.8527V13.1491C8 12.7728 8.33579 12.4677 8.75 12.4677ZM11.75 11.7863V12.4677H9.5V11.7863C9.5 11.2218 10.0037 10.7641 10.625 10.7641C11.2463 10.7641 11.75 11.2218 11.75 11.7863Z" fill="white"/>
</svg>
