<svg width="20" height="21" viewBox="0 0 20 21" fill="none" xmlns="http://www.w3.org/2000/svg">
<path d="M16.875 8.84766C16.875 5.05676 13.7909 1.97266 10 1.97266C6.20911 1.97266 3.125 5.05676 3.125 8.84766C3.125 8.84766 1.25 9.68872 1.25 10.7227V11.9727C1.25 13.0066 2.09106 13.8477 3.125 13.8477H3.75C4.09515 13.8477 4.375 13.5678 4.375 13.2227V8.84766C4.375 5.74615 6.8985 3.22266 10 3.22266C13.1015 3.22266 15.625 5.74615 15.625 8.84766V13.2227C15.625 13.5678 15.9048 13.8477 16.25 13.8477H16.875C17.9089 13.8477 18.75 13.0066 18.75 11.9727V10.7227C18.75 9.68872 16.875 8.84766 16.875 8.84766Z" fill="#1355FF"/>
<path d="M12.5 7.59766H7.5C6.46447 7.59766 5.625 8.43712 5.625 9.47266V11.9727C5.625 13.0082 6.46447 13.8477 7.5 13.8477H9.375L11.3416 15.6311C11.4017 15.6915 11.4819 15.7227 11.5625 15.7227H11.5689C11.7432 15.7306 11.8875 15.585 11.8875 15.4102C11.8875 15.3448 11.8674 15.2841 11.8332 15.2341L11.25 13.8477H12.5C13.5355 13.8477 14.375 13.0082 14.375 11.9727V9.47266C14.375 8.43712 13.5355 7.59766 12.5 7.59766Z" fill="#1355FF"/>
<path d="M16.237 14.4727C15.938 16.2434 14.3545 17.5977 12.5 17.5977H11.7016C11.4851 17.2256 11.0865 16.9727 10.625 16.9727H9.375C8.68465 16.9727 8.125 17.5323 8.125 18.2227C8.125 18.913 8.68465 19.4727 9.375 19.4727H10.625C11.0865 19.4727 11.4851 19.2197 11.7016 18.8477H12.5C15.0449 18.8477 17.1909 16.9351 17.5 14.4727H16.237Z" fill="#1355FF"/>
</svg>
