<svg width="20" height="21" viewBox="0 0 20 21" fill="none" xmlns="http://www.w3.org/2000/svg">
<path d="M18.5325 16.5609L18.5014 16.5195C17.8602 15.7878 17.0724 15.2519 16.3105 14.7342C15.9995 14.5227 15.4468 14.1818 15.0558 13.9076C15.9632 12.6448 16.4493 11.135 16.4465 9.5876C16.4465 5.45219 13.0447 2.09961 8.8481 2.09961C4.65154 2.09961 1.25 5.45219 1.25 9.5876C1.25 13.723 4.65189 17.0759 8.8481 17.0759C10.4163 17.0782 11.9464 16.6002 13.2268 15.708C13.5054 16.093 13.851 16.6367 14.0659 16.9432C14.5927 17.6954 15.1371 18.4701 15.8788 19.1013L15.9209 19.1317C16.1574 19.2742 16.4298 19.3484 16.707 19.3459C17.1261 19.3446 17.5298 19.1903 17.84 18.9127L18.2987 18.4617L18.3097 18.4506C18.7981 17.9237 18.8918 17.1291 18.5325 16.5609ZM8.8481 15.1222C7.54862 15.1224 6.28929 14.6785 5.28469 13.8661C4.2801 13.0538 3.59241 11.9233 3.33879 10.6672C3.08517 9.41121 3.28133 8.10738 3.89383 6.9779C4.50633 5.84843 5.49727 4.9632 6.69782 4.47306C7.89836 3.98292 9.23422 3.91819 10.4778 4.2899C11.7213 4.66161 12.7956 5.44676 13.5176 6.51157C14.2395 7.57638 14.5645 8.85496 14.4372 10.1294C14.3098 11.4039 13.738 12.5955 12.8191 13.501C12.2988 14.0166 11.68 14.4253 10.9984 14.7036C10.3168 14.9819 9.58589 15.1242 8.8481 15.1222Z" fill="#1355FF"/>
<path d="M8.84838 10.2786C10.0801 10.2786 11.0786 9.29456 11.0786 8.0807C11.0786 6.86684 10.0801 5.88281 8.84838 5.88281C7.61666 5.88281 6.61816 6.86684 6.61816 8.0807C6.61816 9.29456 7.61666 10.2786 8.84838 10.2786Z" fill="#1355FF"/>
<path d="M12.5212 12.0905C12.4877 11.7823 12.3477 11.4947 12.1247 11.276C11.9008 11.0549 11.6072 10.9154 11.2921 10.8806C10.831 10.8324 9.68567 10.8062 8.97234 10.8062C8.25902 10.8062 6.85526 10.8324 6.39384 10.8806C6.07887 10.9154 5.78528 11.0548 5.56123 11.2757C5.3383 11.4944 5.19844 11.782 5.16509 12.0902V12.0996C5.15415 12.204 5.14766 12.2947 5.14355 12.3721C5.26983 12.5349 5.40685 12.6893 5.55371 12.8343C6.42748 13.6952 7.61249 14.1789 8.8481 14.1789C10.0837 14.1789 11.2687 13.6952 12.1425 12.8343C12.2871 12.6915 12.4221 12.5398 12.5468 12.3799C12.5417 12.3007 12.5342 12.2077 12.5229 12.1L12.5212 12.0905Z" fill="#1355FF"/>
</svg>
