<svg width="14" height="14" viewBox="0 0 14 14" fill="none" xmlns="http://www.w3.org/2000/svg">
<g clip-path="url(#clip0_2120_17338)">
<path d="M6.38694 8.69835L2.89482 12.6887H0.9942L5.50302 7.53522L5.51101 7.5261L5.50364 7.51646L0.741897 1.28972H4.70502L7.4628 4.93566L7.47378 4.95018L7.48577 4.93648L10.6762 1.28972H12.5754L8.36145 6.10625L8.35351 6.11532L8.36079 6.12494L13.3257 12.6887H9.46112L6.40985 8.69911L6.39886 8.68473L6.38694 8.69835ZM9.97719 11.552L9.96959 11.5578H9.98896H11.0633H11.0931L11.0751 11.534L4.14053 2.36553L4.1483 2.35966H4.12871H2.97598H2.94599L2.96421 2.38347L9.97719 11.552Z" fill="#0C2459" stroke="#0C2459" stroke-width="0.0296334"/>
</g>
<defs>
<clipPath id="clip0_2120_17338">
<rect width="13.7143" height="13.7143" fill="white" transform="translate(0.140625 0.142578)"/>
</clipPath>
</defs>
</svg>
