<svg width="18" height="18" viewBox="0 0 18 18" fill="none" xmlns="http://www.w3.org/2000/svg">
<g clip-path="url(#clip0_40001309_952)">
<path d="M8.98193 1.02344C11.116 1.01935 11.3857 1.02819 12.2261 1.06543C13.0724 1.10202 13.6554 1.23543 14.1675 1.43359C14.6977 1.63791 15.1495 1.91456 15.5981 2.36133C16.0467 2.80857 16.3239 3.25878 16.5308 3.78809C16.7307 4.29964 16.8665 4.88196 16.9067 5.72852C16.9466 6.56854 16.9564 6.83791 16.9604 8.97168C16.9646 11.1056 16.9562 11.3758 16.9194 12.2168C16.8826 13.0625 16.7485 13.6454 16.5503 14.1572C16.3455 14.6874 16.0703 15.1392 15.6235 15.5879C15.1767 16.0368 14.7259 16.3134 14.1968 16.5205C13.6852 16.7202 13.1025 16.857 12.2563 16.8975C11.4162 16.9373 11.1464 16.9461 9.01221 16.9502C6.87866 16.9543 6.6086 16.9462 5.76807 16.9092C4.92192 16.872 4.33845 16.7389 3.82666 16.541C3.29682 16.336 2.84548 16.0602 2.39697 15.6133C1.94815 15.1663 1.67002 14.7159 1.46338 14.1865C1.26313 13.6752 1.12787 13.0927 1.0874 12.2471C1.04732 11.4063 1.03777 11.1358 1.03369 9.00195C1.02961 6.86846 1.03797 6.59897 1.07471 5.75879C1.11207 4.91219 1.24567 4.32886 1.44385 3.81641C1.64865 3.28654 1.92427 2.8346 2.37158 2.38574C2.81825 1.9373 3.26902 1.65949 3.79834 1.45312C4.30937 1.25293 4.89196 1.11708 5.73779 1.07715C6.57834 1.03679 6.84815 1.02752 8.98193 1.02344ZM8.98486 2.65332C6.88828 2.6574 6.64173 2.66602 5.81592 2.70508C5.06202 2.74091 4.65745 2.86668 4.39111 2.9707C4.03823 3.10868 3.78982 3.27126 3.52588 3.53613C3.26223 3.80126 3.10011 4.05045 2.96338 4.4043C2.87381 4.63752 2.76725 4.97688 2.72021 5.5625L2.70361 5.8291C2.66757 6.65553 2.65949 6.90206 2.66357 8.99902C2.66738 11.0965 2.6765 11.3432 2.71533 12.1689C2.75068 12.9227 2.87734 13.3269 2.98096 13.5938C3.11891 13.9463 3.28185 14.1949 3.54639 14.459L3.74463 14.6387C3.94309 14.8016 4.14972 14.918 4.41455 15.0205C4.6812 15.1231 5.08556 15.2484 5.83936 15.2812C6.66582 15.317 6.91235 15.3244 9.00928 15.3203C11.1067 15.3165 11.3532 15.3084 12.1792 15.2695C12.9326 15.2337 13.3371 15.1067 13.603 15.0029C13.9561 14.865 14.2044 14.7016 14.4683 14.4375C14.7321 14.1724 14.894 13.9234 15.0308 13.5703C15.1336 13.3034 15.2587 12.8985 15.2915 12.1445C15.3278 11.3188 15.3346 11.072 15.3306 8.97461C15.3268 6.87781 15.3181 6.63086 15.2788 5.80469C15.2432 5.05159 15.1171 4.64729 15.0132 4.38184V4.38086C14.8753 4.02751 14.7125 3.77966 14.4478 3.51562C14.183 3.25163 13.9333 3.08991 13.5796 2.95312C13.3137 2.85018 12.9088 2.72619 12.1558 2.69336H12.1548C11.3287 2.65706 11.0819 2.64927 8.98486 2.65332ZM8.98877 4.8457C11.2761 4.84126 13.1345 6.69199 13.1392 8.97852C13.1436 11.2659 11.2923 13.1233 9.00537 13.1279C6.71854 13.1324 4.86054 11.2825 4.85596 8.99512C4.85151 6.70827 6.70195 4.8503 8.98877 4.8457ZM8.99268 6.47559C7.60606 6.47803 6.48267 7.60434 6.48486 8.99121C6.48754 10.3784 7.61481 11.5015 9.00146 11.499C10.3887 11.4963 11.5118 10.3696 11.5093 8.98242C11.5066 7.59523 10.3796 6.4731 8.99268 6.47559ZM13.1812 3.73535C13.7608 3.73439 14.2317 4.20382 14.2329 4.7832C14.2338 5.36261 13.7647 5.83371 13.1851 5.83496C12.6055 5.83609 12.1344 5.36662 12.1333 4.78711C12.1323 4.20763 12.6014 3.73648 13.1812 3.73535Z" fill="#171A1D" stroke="#171A1D" stroke-width="0.214286"/>
</g>
<defs>
<clipPath id="clip0_40001309_952">
<rect width="17.1429" height="17.1429" fill="white" transform="translate(0.425781 0.428711)"/>
</clipPath>
</defs>
</svg>
