<svg width="40" height="40" viewBox="0 0 40 40" fill="none" xmlns="http://www.w3.org/2000/svg">
<rect x="0.62207" y="0.625" width="38.75" height="38.75" fill="white"/>
<rect x="0.62207" y="0.625" width="38.75" height="38.75" stroke="#D7E8FF" stroke-width="1.25"/>
<g clip-path="url(#clip0_40000855_536)">
<path d="M22.0894 12.0293C22.5285 12.0355 22.8059 12.0468 23.2261 12.0654L23.5317 12.083C24.2172 12.1358 24.7194 12.2602 25.1675 12.4336L25.3628 12.5137C25.8107 12.7095 26.2056 12.9704 26.5981 13.3613L26.7583 13.5293C27.1147 13.9223 27.3497 14.3249 27.5308 14.7881L27.603 14.9834C27.7636 15.4491 27.8716 15.9877 27.9067 16.7285L27.9321 17.2891C27.9518 17.8194 27.9574 18.3709 27.9604 19.9717L27.9556 22.0791C27.9524 22.2985 27.9478 22.4776 27.9419 22.6543L27.9194 23.2168C27.8872 23.9569 27.7805 24.4958 27.6216 24.9619L27.5503 25.1572C27.3712 25.6209 27.1383 26.0248 26.7837 26.4189L26.6235 26.5879C26.2324 26.9808 25.8382 27.2415 25.3911 27.4395L25.1968 27.5205C24.7491 27.6953 24.2473 27.8221 23.562 27.8779L23.2563 27.8975C22.8363 27.9174 22.5588 27.9297 22.1196 27.9375L20.0122 27.9502C17.8787 27.9543 17.6086 27.9462 16.7681 27.9092V27.9082C16.0279 27.8757 15.4889 27.7709 15.0229 27.6123L14.8267 27.541C14.3628 27.3616 13.9593 27.1276 13.5649 26.7725L13.397 26.6133C13.0041 26.222 12.7421 25.828 12.5444 25.3809L12.4634 25.1865C12.2881 24.739 12.1627 24.2369 12.1069 23.5518L12.0874 23.2471C12.0473 22.4063 12.0378 22.1358 12.0337 20.002L12.0396 17.8955C12.0457 17.4564 12.0563 17.1789 12.0747 16.7588L12.0933 16.4531C12.1465 15.7672 12.2704 15.2649 12.4438 14.8164L12.5239 14.6211C12.72 14.1736 12.9802 13.7785 13.3716 13.3857L13.5396 13.2256C13.9323 12.8692 14.3352 12.6337 14.7983 12.4531L14.9937 12.3818C15.4591 12.2211 15.9975 12.1121 16.7378 12.0771L17.2993 12.0527C17.8298 12.0329 18.3814 12.0265 19.9819 12.0234L22.0894 12.0293ZM17.9233 13.666C17.7101 13.6698 17.5366 13.6753 17.3647 13.6816L16.8159 13.7051C16.2502 13.732 15.881 13.8096 15.6196 13.8906L15.3911 13.9707C15.1265 14.0741 14.9209 14.1917 14.7231 14.3555L14.5259 14.5361C14.3282 14.735 14.1873 14.9246 14.0718 15.1562L13.9634 15.4043C13.8738 15.6375 13.7672 15.9769 13.7202 16.5625L13.7036 16.8291C13.6676 17.6555 13.6595 17.9021 13.6636 19.999L13.6763 22.0605C13.6838 22.4877 13.6959 22.756 13.7153 23.1689L13.7329 23.4355C13.7823 24.0216 13.8903 24.3603 13.981 24.5938L14.0903 24.8398C14.2067 25.0712 14.3478 25.2608 14.5464 25.459L14.7446 25.6387C14.9431 25.8016 15.1497 25.918 15.4146 26.0205L15.6431 26.1006C15.9047 26.1805 16.2738 26.2566 16.8394 26.2812L17.3882 26.3027C17.9045 26.3199 18.4362 26.3234 20.0093 26.3203L22.0708 26.3076C22.498 26.3001 22.7661 26.2889 23.1792 26.2695L23.4458 26.252C24.0317 26.2024 24.3704 26.0938 24.603 26.0029L24.8501 25.8936C25.0043 25.8159 25.14 25.7274 25.272 25.6182L25.4683 25.4375C25.7321 25.1724 25.894 24.9234 26.0308 24.5703L26.1099 24.3408C26.1898 24.079 26.2669 23.71 26.2915 23.1445L26.313 22.5957C26.3302 22.0797 26.3336 21.5475 26.3306 19.9746L26.3179 17.9131C26.3141 17.6999 26.3096 17.5263 26.3032 17.3545L26.2788 16.8047C26.2432 16.0516 26.1171 15.6473 26.0132 15.3818V15.3809C25.9098 15.116 25.7922 14.9105 25.6284 14.7129L25.4478 14.5156C25.2492 14.3176 25.0594 14.1769 24.8276 14.0615L24.5796 13.9531C24.3137 13.8502 23.9088 13.7262 23.1558 13.6934H23.1548C22.3287 13.6571 22.0819 13.6493 19.9849 13.6533L17.9233 13.666ZM20.2026 15.8506C22.3909 15.9575 24.1346 17.7636 24.1392 19.9785L24.1343 20.1924C24.0309 22.3102 22.3354 24.0106 20.2183 24.1221L20.0054 24.1279C17.7185 24.1324 15.8605 22.2825 15.856 19.9951L15.8608 19.7822C15.9673 17.5939 17.7733 15.8502 19.9888 15.8457L20.2026 15.8506ZM19.7358 17.4893C18.4699 17.62 17.4828 18.6909 17.4849 19.9912L17.4985 20.248C17.6294 21.5146 18.7013 22.5014 20.0015 22.499L20.2583 22.4854C21.5248 22.3544 22.5117 21.283 22.5093 19.9824L22.4956 19.7256C22.3646 18.4592 21.293 17.4733 19.9927 17.4756L19.7358 17.4893ZM24.2886 14.7402C24.8179 14.7932 25.2318 15.24 25.2329 15.7832L25.228 15.8906C25.1786 16.3845 24.7863 16.7778 24.2925 16.8291L24.1851 16.835C23.6055 16.8361 23.1344 16.3666 23.1333 15.7871L23.1382 15.6797C23.191 15.1505 23.6377 14.7364 24.1812 14.7354L24.2886 14.7402Z" fill="#171A1D" stroke="#171A1D" stroke-width="0.214286"/>
</g>
<defs>
<clipPath id="clip0_40000855_536">
<rect width="17.1429" height="17.1429" fill="white" transform="translate(11.4258 11.4287)"/>
</clipPath>
</defs>
</svg>
