<svg width="40" height="41" viewBox="0 0 40 41" fill="none" xmlns="http://www.w3.org/2000/svg">
<rect x="0.62207" y="1.29199" width="38.75" height="38.75" fill="white"/>
<rect x="0.62207" y="1.29199" width="38.75" height="38.75" stroke="#D7E8FF" stroke-width="1.25"/>
<g clip-path="url(#clip0_2120_17349)">
<path d="M13.7159 23.8357L13.7159 23.8358C13.7513 24.5896 13.8782 24.9937 13.9819 25.2605C14.1198 25.6132 14.2825 25.8618 14.5471 26.1259C14.8122 26.389 15.0616 26.5511 15.4148 26.6878C15.6815 26.7904 16.0861 26.9152 16.84 26.948C17.6665 26.9838 17.9128 26.9917 20.0097 26.9876C22.1073 26.9838 22.3537 26.9749 23.1799 26.9361M13.7159 23.8357L23.1849 27.0431M13.7159 23.8357C13.6771 23.01 13.6682 22.7635 13.6644 20.6661V20.666M13.7159 23.8357L13.6644 20.666M23.1799 26.9361L23.1849 27.0431M23.1799 26.9361C23.1798 26.9361 23.1798 26.9361 23.1798 26.9361L23.1849 27.0431M23.1799 26.9361C23.9332 26.9002 24.3377 26.7739 24.6036 26.6701M23.1849 27.0431C23.9501 27.0067 24.3661 26.8779 24.6426 26.7699M24.6036 26.6701L24.6426 26.7699M24.6036 26.6701C24.9566 26.5322 25.2052 26.3691 25.4691 26.105M24.6036 26.6701C24.6036 26.6701 24.6036 26.6701 24.6036 26.6701L24.6426 26.7699M24.6426 26.7699L25.4691 26.105M25.4691 26.105L25.545 26.1806L25.4692 26.1049C25.4692 26.1049 25.4691 26.105 25.4691 26.105ZM25.4691 26.105C25.7329 25.84 25.8946 25.5907 26.0313 25.2376M25.4691 26.105L26.0313 25.2376M13.6644 20.666C13.6603 18.5691 13.6679 18.3225 13.704 17.4961L13.704 17.496M13.6644 20.666L13.704 17.496M13.704 17.496C13.7363 16.7426 13.8618 16.3375 13.9642 16.071M13.704 17.496L13.9642 16.071M23.1558 14.3603L23.1558 14.3603C22.3293 14.324 22.0828 14.3166 19.9854 14.3206C17.8884 14.3247 17.6421 14.3331 16.816 14.3722L23.1558 14.3603ZM23.1558 14.3603C23.9095 14.3931 24.3145 14.5175 24.5805 14.6205L24.5805 14.6205M23.1558 14.3603L24.5805 14.6205M24.5805 14.6205C24.9342 14.7573 25.1835 14.9185 25.4482 15.1824C25.7131 15.4466 25.8757 15.6947 26.0137 16.0482L26.0137 16.0484M24.5805 14.6205L26.0137 16.0484M26.0137 16.0484C26.1177 16.3138 26.2438 16.7183 26.2794 17.472L26.2794 17.4721M26.0137 16.0484L26.2794 17.4721M26.2794 17.4721C26.3187 18.2983 26.3276 18.5448 26.3314 20.6417C26.3355 22.7392 26.3278 22.9858 26.2916 23.8117L26.2916 23.8117M26.2794 17.4721L26.2916 23.8117M26.2916 23.8117C26.2587 24.5659 26.1342 24.9707 26.0313 25.2376M26.2916 23.8117L26.0313 25.2376M12.0755 17.4254L12.0755 17.4254C12.1129 16.5788 12.2459 15.9958 12.4441 15.4834C12.6489 14.9535 12.9246 14.502 13.3719 14.0532L12.0755 17.4254ZM12.0755 17.4254C12.0387 18.2659 12.0303 18.5351 12.0344 20.6692C12.0385 22.8031 12.0479 23.0728 12.088 23.9136L12.088 23.9136M12.0755 17.4254L12.088 23.9136M12.088 23.9136C12.1284 24.7594 12.2638 25.3418 12.4641 25.8532C12.6707 26.3826 12.9482 26.8331 13.3971 27.2801C13.8458 27.7273 14.2975 28.0026 14.8276 28.2077L14.8276 28.2077M12.088 23.9136L14.8276 28.2077M14.8276 28.2077C15.3395 28.4056 15.9226 28.5391 16.769 28.5763L14.8276 28.2077ZM23.2572 28.564L23.2572 28.564C22.4167 28.6039 22.1472 28.6133 20.0126 28.6173C17.8791 28.6214 17.6096 28.6133 16.7691 28.5763L23.2572 28.564ZM23.2572 28.564C24.1034 28.5236 24.6855 28.3877 25.197 28.1879L25.1971 28.1879M23.2572 28.564L25.1971 28.1879M25.1971 28.1879C25.7264 27.9808 26.1771 27.7038 26.624 27.2549C27.0708 26.8062 27.3464 26.3545 27.5512 25.8243C27.7494 25.3124 27.883 24.7293 27.9198 23.8834C27.9565 23.0424 27.9652 22.7727 27.9611 20.6388C27.957 18.5047 27.9474 18.2355 27.9076 17.3952C27.8674 16.5485 27.7314 15.9663 27.5314 15.4547C27.3246 14.9254 27.0474 14.4752 26.5988 14.0279L26.5987 14.0279M25.1971 28.1879L26.5987 14.0279M26.5987 14.0279C26.1501 13.5811 25.6983 13.3049 25.1681 13.1006C24.656 12.9024 24.0731 12.7686 23.2267 12.732M26.5987 14.0279L14.7988 13.1203M13.9642 16.071C14.1009 15.7172 14.2626 15.4684 14.5262 15.2033C14.7902 14.9383 15.0388 14.7761 15.3917 14.6381C15.6581 14.5341 16.0621 14.408 16.816 14.3722L13.9642 16.071ZM14.7988 13.1203C15.3099 12.9201 15.8926 12.7842 16.7387 12.7443L16.7437 12.8513L16.7386 12.7443C17.5791 12.7039 17.8486 12.6948 19.9824 12.6907C22.1167 12.6866 22.3862 12.6948 23.2267 12.732M14.7988 13.1203C14.2694 13.3267 13.8187 13.6045 13.3719 14.0531L14.7988 13.1203ZM23.2267 12.732C23.2268 12.732 23.2268 12.732 23.2268 12.732L23.2221 12.839L23.2267 12.732C23.2267 12.732 23.2267 12.732 23.2267 12.732ZM19.9927 18.1423L19.9928 18.1423C21.3798 18.1396 22.5068 19.2618 22.5095 20.6491C22.5122 22.0364 21.3896 23.163 20.0023 23.1657C18.6155 23.1684 17.4884 22.046 17.4857 20.6587C17.4833 19.2716 18.606 18.1448 19.9927 18.1423ZM25.2334 16.4503V16.4503C25.2323 15.8708 24.7611 15.4013 24.1813 15.4024C23.6016 15.4035 23.1324 15.8747 23.1335 16.4543C23.1346 17.0338 23.6058 17.503 24.1853 17.5018C24.765 17.5007 25.2342 17.0298 25.2334 16.4503ZM15.8563 20.6619C15.8608 22.9493 17.7186 24.7996 20.0055 24.7951C22.2926 24.7907 24.1439 22.9334 24.1395 20.6459C24.1351 18.3592 22.277 16.5079 19.9896 16.5124C17.7026 16.5168 15.8519 18.3749 15.8563 20.6619Z" fill="#171A1D" stroke="#171A1D" stroke-width="0.214286"/>
</g>
<defs>
<clipPath id="clip0_2120_17349">
<rect width="17.1429" height="17.1429" fill="white" transform="translate(11.4258 12.0957)"/>
</clipPath>
</defs>
</svg>
