<svg width="14" height="14" viewBox="0 0 14 14" fill="none" xmlns="http://www.w3.org/2000/svg">
<g clip-path="url(#clip0_2120_17350)">
<path d="M1.97215 9.53471L1.97215 9.53473C2.00042 10.1379 2.10204 10.4612 2.18494 10.6746C2.29531 10.9567 2.42544 11.1556 2.63709 11.3668L2.57653 11.4275M1.97215 9.53471L9.54733 12.1006M1.97215 9.53471C1.94108 8.87415 1.93396 8.67691 1.93092 6.99896V6.99894M1.97215 9.53471L1.93092 6.99894M2.57653 11.4275L2.63691 11.3667C2.84906 11.5772 3.04859 11.707 3.33128 11.8164L3.30035 11.8963M2.57653 11.4275C2.7971 11.6464 3.00666 11.7827 3.30035 11.8963M2.57653 11.4275C2.35638 11.2077 2.21972 10.9988 2.10505 10.7057L3.30035 11.8963M3.30035 11.8963L3.33113 11.8163C3.54446 11.8984 3.86811 11.9983 4.47143 12.0245C5.13258 12.0532 5.32962 12.0595 7.00715 12.0562C8.68527 12.0532 8.88234 12.046 9.5433 12.015M9.5433 12.015L9.54733 12.1006M9.5433 12.015C9.54328 12.015 9.54327 12.015 9.54325 12.015L9.54733 12.1006M9.5433 12.015C10.146 11.9863 10.4696 11.8853 10.6823 11.8022M9.54733 12.1006C10.1595 12.0715 10.4923 11.9684 10.7135 11.8821M10.6823 11.8022L10.7135 11.8821M10.6823 11.8022C10.9647 11.6919 11.1636 11.5614 11.3748 11.35M10.6823 11.8022C10.6823 11.8022 10.6823 11.8022 10.6823 11.8022L10.7135 11.8821M10.7135 11.8821L11.3748 11.35M11.3748 11.35C11.3747 11.3501 11.3747 11.3501 11.3747 11.3501L11.4354 11.4106L11.3748 11.35ZM11.3748 11.35C11.5858 11.138 11.7151 10.9385 11.8245 10.656L11.9045 10.687L11.8245 10.6562C11.9067 10.4427 12.0064 10.1188 12.0327 9.51547L12.0327 9.51544C12.0617 8.85472 12.0678 8.6575 12.0646 6.9795C12.0615 5.30197 12.0544 5.10472 12.0229 4.44377L12.0229 4.44374C11.9944 3.84077 11.8936 3.51718 11.8104 3.30479L11.8104 3.3047C11.7 3.02185 11.5699 2.82338 11.358 2.61207C11.1462 2.40087 10.9468 2.27192 10.6638 2.16249L10.6638 2.16248C10.451 2.08008 10.127 1.9806 9.52405 1.95434L9.52402 1.95434C8.86288 1.92528 8.66569 1.91939 6.98773 1.92263C5.31017 1.92589 5.11313 1.93262 4.45222 1.96388L11.3748 11.35ZM1.93092 6.99894C1.92765 5.32136 1.93377 5.12414 1.96261 4.463L1.96261 4.46293M1.93092 6.99894L1.96261 4.46293M1.96261 4.46293C1.98844 3.8602 2.08887 3.53614 2.17079 3.3229M1.96261 4.46293L2.17079 3.3229M0.659813 4.40643L0.659815 4.4064C0.689708 3.72912 0.796152 3.26279 0.954688 2.85283L0.659813 4.40643ZM0.659813 4.40643C0.63041 5.07886 0.623686 5.29423 0.626952 7.00151C0.630219 8.70859 0.637735 8.92438 0.669797 9.59699L0.669798 9.597M0.659813 4.40643L0.669798 9.597M0.669798 9.597C0.70215 10.2736 0.810465 10.7396 0.970677 11.1487C1.13599 11.5722 1.35799 11.9326 1.71708 12.2902C2.07601 12.6479 2.43743 12.8682 2.86149 13.0322L2.8615 13.0323L0.669798 9.597ZM9.60519 13.3173L9.60515 13.3173C8.93276 13.3492 8.71717 13.3567 7.0095 13.36C5.30269 13.3633 5.08708 13.3568 4.41466 13.3271C4.41466 13.3271 4.41465 13.3271 4.41465 13.3271L4.41842 13.2415L9.60519 13.3173ZM9.60519 13.3173C10.2821 13.285 10.7478 13.1762 11.1571 13.0165L11.1571 13.0164M9.60519 13.3173L11.1571 13.0164M11.1571 13.0164C11.5805 12.8507 11.9411 12.6292 12.2986 12.27L11.1571 13.0164ZM12.2784 1.68842L12.2784 1.68846C12.6373 2.04628 12.8591 2.40642 13.0246 2.82991C13.1846 3.23919 13.2933 3.70493 13.3255 4.38228C13.3573 5.05449 13.365 5.26985 13.3683 6.97714C13.3716 8.68423 13.3647 8.90002 13.3352 9.57281C13.3352 9.57282 13.3352 9.57283 13.3352 9.57283L13.2496 9.56909L12.2784 1.68842ZM12.2784 1.68842C11.9195 1.33102 11.5581 1.11006 11.1339 0.94661C10.7243 0.788052 10.2579 0.681003 9.58085 0.651722M12.2784 1.68842L2.83844 0.962374M2.17079 3.3229C2.28017 3.03986 2.40952 2.84079 2.62042 2.62871C2.8316 2.41676 3.03044 2.28702 3.31277 2.17663L2.17079 3.3229ZM4.39031 0.661531C3.71345 0.693465 3.24734 0.80218 2.83844 0.962374M4.39031 0.661531C5.06272 0.629247 5.27834 0.621929 6.98534 0.618662C8.69278 0.615396 8.90839 0.621923 9.58085 0.651722M4.39031 0.661531C4.3903 0.661532 4.39028 0.661533 4.39027 0.661533L4.39438 0.747149L4.39034 0.66153C4.39033 0.66153 4.39032 0.661531 4.39031 0.661531ZM2.83844 0.962374C2.41489 1.1275 2.05432 1.34974 1.69691 1.70864M2.83844 0.962374L1.69691 1.70864M9.58085 0.651722L9.57706 0.737352L9.58076 0.651718C9.58079 0.651719 9.58082 0.65172 9.58085 0.651722ZM1.69691 1.70864C1.33906 2.06773 1.11854 2.42891 0.954693 2.85281L1.69691 1.70864ZM6.99361 4.97999H6.99362C8.10329 4.97783 9.00488 5.87557 9.00705 6.98543C9.00919 8.09526 8.11109 8.99652 7.00122 8.99869C5.89179 9.0008 4.99015 8.1029 4.98801 6.99303C4.98606 5.88337 5.88419 4.98195 6.99361 4.97999ZM11.1861 3.62637V3.62633C11.1852 3.16272 10.8083 2.78714 10.3445 2.78805C9.88067 2.78895 9.50532 3.16587 9.50622 3.62952C9.50713 4.09312 9.88404 4.46848 10.3477 4.46758C10.8114 4.46668 11.1868 4.08996 11.1861 3.62637ZM3.68447 6.99559C3.68802 8.82558 5.17427 10.3058 7.00381 10.3022C8.83352 10.2987 10.3146 8.81285 10.311 6.98284C10.3075 5.15347 8.82101 3.67245 6.99105 3.676C5.16149 3.67956 3.68091 5.16604 3.68447 6.99559ZM3.3128 2.17662C3.52587 2.0934 3.84907 1.99255 4.4522 1.96388L3.3128 2.17662Z" fill="#0C2459" stroke="#0C2459" stroke-width="0.171429"/>
</g>
<defs>
<clipPath id="clip0_2120_17350">
<rect width="13.7143" height="13.7143" fill="white" transform="translate(0.140625 0.142578)"/>
</clipPath>
</defs>
</svg>
