<svg width="33" height="32" viewBox="0 0 33 32" fill="none" xmlns="http://www.w3.org/2000/svg">
<path d="M26.3335 13.3333C26.3335 8.30497 26.3335 5.79083 24.7715 4.22872C23.2094 2.66663 20.6953 2.66663 15.6669 2.66663H14.3337C9.30543 2.66663 6.7913 2.66663 5.22921 4.22871C3.6671 5.79079 3.66709 8.30492 3.66705 13.3332L3.66699 18.6665C3.66695 23.6949 3.66693 26.209 5.22903 27.7712C6.79113 29.3333 9.3053 29.3333 14.3337 29.3333H18.5" fill="#B7FFFD"/>
<path d="M14.3337 29.3333C9.3053 29.3333 6.79113 29.3333 5.22903 27.7712C3.66693 26.209 3.66695 23.6949 3.66699 18.6665L3.66705 13.3332C3.66709 8.30492 3.6671 5.79079 5.22921 4.22871C6.7913 2.66663 9.30543 2.66663 14.3337 2.66663H15.6669C20.6953 2.66663 23.2094 2.66663 24.7715 4.22872C26.0076 5.46489 26.2655 7.29727 26.3193 10.5" stroke="#1355FF" stroke-width="2" stroke-linecap="round" stroke-linejoin="round"/>
<path d="M9.66699 9.33331H20.3337M9.66699 16L15.5 16" stroke="#1355FF" stroke-width="2" stroke-linecap="round"/>
<path d="M29.8511 25.8417L29.851 25.8416C28.8546 24.0958 26.7504 22.9999 24.444 22.9999C22.1376 22.9999 20.0334 24.0958 19.037 25.8416L19.0369 25.8417C18.8015 26.2543 18.719 26.7171 18.819 27.174C18.9154 27.6148 19.1629 27.9684 19.446 28.2282C19.9994 28.7361 20.8011 29 21.5924 29H27.2956C28.0869 29 28.8886 28.7361 29.442 28.2282C29.7251 27.9684 29.9726 27.6148 30.069 27.174C30.169 26.7171 30.0865 26.2543 29.8511 25.8417Z" fill="white" stroke="#1355FF" stroke-width="2" stroke-linejoin="round"/>
<path d="M24.684 21.6667C26.5252 21.6667 28.0184 20.1747 28.0184 18.3333C28.0184 16.492 26.5252 15 24.684 15C22.843 15 21.3496 16.4919 21.3496 18.3333C21.3496 20.1747 22.843 21.6667 24.684 21.6667Z" fill="white" stroke="#1355FF" stroke-width="2"/>
</svg>
