<svg width="48" height="49" viewBox="0 0 48 49" fill="none" xmlns="http://www.w3.org/2000/svg">
<path d="M39.0008 20.8333C39.0008 13.2908 39.0008 9.51955 36.6578 7.17639C34.3146 4.83325 30.5434 4.83325 23.0008 4.83325H21.001C13.4586 4.83325 9.68744 4.83325 7.3443 7.17637C5.00114 9.51949 5.00112 13.2907 5.00106 20.8331L5.00098 28.8331C5.00092 36.3757 5.00088 40.1469 7.34404 42.4901C9.68718 44.8333 13.4584 44.8333 21.001 44.8333H27.2505" fill="#21A9ED" fill-opacity="0.1"/>
<path d="M21.001 44.8333C13.4584 44.8333 9.68718 44.8333 7.34404 42.4901C5.00088 40.1469 5.00092 36.3757 5.00098 28.8331L5.00106 20.8331C5.00112 13.2907 5.00114 9.51949 7.3443 7.17637C9.68744 4.83325 13.4586 4.83325 21.001 4.83325H23.0008C30.5434 4.83325 34.3146 4.83325 36.6578 7.17639C38.5119 9.03065 38.8988 11.7792 38.9795 16.5833" stroke="#21A9ED" stroke-width="3" stroke-linecap="round" stroke-linejoin="round"/>
<path d="M14.001 14.833H30.001M14.001 24.833L22.7505 24.833" stroke="#21A9ED" stroke-width="3" stroke-linecap="round"/>
<path d="M44.2776 39.5957L44.2775 39.5955C42.7829 36.9768 39.6266 35.333 36.167 35.333C32.7074 35.333 29.5511 36.9768 28.0564 39.5955L28.0563 39.5957C27.7032 40.2146 27.5795 40.9087 27.7294 41.5941C27.8741 42.2553 28.2454 42.7857 28.6699 43.1754C29.5 43.9373 30.7026 44.333 31.8896 44.333H40.4444C41.6314 44.333 42.834 43.9373 43.664 43.1754C44.0886 42.7857 44.4599 42.2553 44.6045 41.5941C44.7545 40.9087 44.6308 40.2146 44.2776 39.5957Z" stroke="#21A9ED" stroke-width="3" stroke-linejoin="round"/>
<path d="M36.527 33.333C39.2888 33.333 41.5286 31.0951 41.5286 28.333C41.5286 25.571 39.2888 23.333 36.527 23.333C33.7654 23.333 31.5254 25.5709 31.5254 28.333C31.5254 31.0951 33.7654 33.333 36.527 33.333Z" stroke="#21A9ED" stroke-width="3"/>
</svg>
