<svg width="40" height="41" viewBox="0 0 40 41" fill="none" xmlns="http://www.w3.org/2000/svg">
<rect x="0.62207" y="1.29199" width="38.75" height="38.75" fill="white"/>
<rect x="0.62207" y="1.29199" width="38.75" height="38.75" stroke="#D7E8FF" stroke-width="1.25"/>
<path d="M13.4987 27.4305V18.6423H15.7242V27.4305H13.4987Z" fill="#171A1D" stroke="#171A1D" stroke-width="0.714286"/>
<path d="M15.9803 15.2622L15.9803 15.265C15.981 15.4474 15.9458 15.6281 15.8767 15.7969C15.8076 15.9656 15.7059 16.1191 15.5774 16.2486C15.449 16.3781 15.2963 16.481 15.128 16.5514C14.9603 16.6217 14.7803 16.6583 14.5984 16.6592C14.4165 16.6583 14.2366 16.6217 14.0688 16.5514C13.9006 16.481 13.7479 16.3781 13.6194 16.2486C13.491 16.1191 13.3893 15.9656 13.3201 15.7969C13.251 15.6281 13.2158 15.4474 13.2165 15.265L13.2165 15.2622C13.2158 15.0798 13.251 14.899 13.3201 14.7303C13.3893 14.5615 13.491 14.408 13.6194 14.2785C13.7479 14.1491 13.9006 14.0462 14.0688 13.9757C14.2366 13.9054 14.4165 13.8688 14.5984 13.8679C14.7803 13.8688 14.9603 13.9054 15.128 13.9757C15.2963 14.0462 15.449 14.1491 15.5774 14.2785C15.7059 14.408 15.8076 14.5615 15.8767 14.7303C15.9458 14.899 15.981 15.0798 15.9803 15.2622Z" fill="#171A1D" stroke="#171A1D" stroke-width="0.714286"/>
<path d="M20.433 22.8068L20.433 22.8073L20.4394 27.439H18.3318V18.6508H20.4399V19.5703V20.824L21.1006 19.7585C21.3696 19.3247 21.7463 18.968 22.194 18.7231C22.6418 18.4782 23.1454 18.3534 23.6557 18.3609L23.6557 18.3609H23.6609C24.5923 18.3609 25.3542 18.6443 25.8839 19.186C26.4138 19.7278 26.7542 20.5722 26.7542 21.7786V27.439H24.5426V22.8068C24.5426 22.1009 24.4366 21.4772 24.1203 21.0239C23.7848 20.5429 23.2601 20.3173 22.5844 20.3173C21.9084 20.3173 21.3501 20.5486 20.969 21.0116C20.597 21.4636 20.433 22.089 20.433 22.8068Z" fill="#171A1D" stroke="#171A1D" stroke-width="0.714286"/>
</svg>
