<svg width="14" height="14" viewBox="0 0 14 14" fill="none" xmlns="http://www.w3.org/2000/svg">
<path d="M1.79841 12.4105V5.37995H3.57881V12.4105H1.79841Z" fill="#0C2459" stroke="#0C2459" stroke-width="0.571429"/>
<path d="M3.78383 2.67604L3.78384 2.6783C3.78442 2.8242 3.75626 2.96879 3.70095 3.1038C3.64565 3.23882 3.5643 3.36161 3.46154 3.46519C3.35878 3.56877 3.23662 3.65109 3.10205 3.70746C2.96782 3.76368 2.82385 3.79298 2.67833 3.79371C2.53282 3.79298 2.38886 3.76368 2.25463 3.70746C2.12005 3.65109 1.99789 3.56877 1.89513 3.46519C1.79237 3.36162 1.71102 3.23882 1.65572 3.1038C1.60042 2.96879 1.57225 2.8242 1.57284 2.6783L1.57283 2.67604C1.57225 2.53013 1.60042 2.38554 1.65572 2.25052C1.71102 2.11551 1.79237 1.99271 1.89513 1.88913C1.99789 1.78556 2.12005 1.70323 2.25463 1.64687C2.38886 1.59064 2.53282 1.56134 2.67833 1.56062C2.82385 1.56134 2.96782 1.59064 3.10205 1.64687C3.23662 1.70323 3.35878 1.78556 3.46154 1.88913C3.5643 1.99271 3.64565 2.11551 3.70095 2.25052C3.75625 2.38554 3.78442 2.53013 3.78383 2.67604Z" fill="#0C2459" stroke="#0C2459" stroke-width="0.571429"/>
<path d="M7.34564 8.71184L7.34564 8.71224L7.35076 12.4176H5.66462V5.38702H7.35116V6.12263V7.12559L7.8797 6.2732C8.09486 5.92619 8.39623 5.64082 8.75444 5.44488C9.11266 5.24894 9.51551 5.14911 9.92377 5.15511L9.92377 5.15514H9.92797C10.673 5.15514 11.2826 5.38188 11.7063 5.81518C12.1302 6.24865 12.4026 6.92416 12.4026 7.88926V12.4176H10.6333V8.71184C10.6333 8.14716 10.5485 7.6482 10.2955 7.28551C10.027 6.90072 9.60727 6.72023 9.06674 6.72023C8.52596 6.72023 8.07931 6.9053 7.77444 7.27569C7.4768 7.63728 7.34564 8.13763 7.34564 8.71184Z" fill="#0C2459" stroke="#0C2459" stroke-width="0.571429"/>
</svg>
