<svg width="18" height="18" viewBox="0 0 18 18" fill="none" xmlns="http://www.w3.org/2000/svg">
<path d="M4.72363 6.97559V15.7637H2.49805V6.97559H4.72363Z" fill="#171A1D" stroke="#171A1D" stroke-width="0.714286"/>
<path d="M3.59717 2.20117C3.77927 2.20198 3.95946 2.23826 4.12744 2.30859C4.29556 2.37901 4.44826 2.48197 4.57666 2.61133C4.70511 2.7408 4.80734 2.89471 4.87646 3.06348C4.94546 3.23203 4.98064 3.41259 4.97998 3.59473V3.59766C4.9807 3.78 4.94557 3.96114 4.87646 4.12988C4.80734 4.29865 4.70511 4.45256 4.57666 4.58203C4.44828 4.71134 4.29551 4.81437 4.12744 4.88477C3.95949 4.95508 3.77924 4.99041 3.59717 4.99121C3.41553 4.99021 3.23543 4.95495 3.06787 4.88477C2.89978 4.81432 2.74703 4.7114 2.61865 4.58203C2.49022 4.45258 2.38895 4.29863 2.31982 4.12988C2.2507 3.96111 2.21559 3.78003 2.21631 3.59766V3.59473C2.21564 3.41254 2.25078 3.23208 2.31982 3.06348C2.38895 2.89471 2.49021 2.74079 2.61865 2.61133C2.74702 2.48194 2.89977 2.37905 3.06787 2.30859C3.23543 2.23841 3.41553 2.20217 3.59717 2.20117Z" fill="#171A1D" stroke="#171A1D" stroke-width="0.714286"/>
<path d="M12.6543 6.69434H12.6602C13.5914 6.69438 14.3532 6.97795 14.8828 7.51953C15.4127 8.06138 15.7529 8.90593 15.7529 10.1123V15.7725H13.542V11.1406C13.542 10.4348 13.4354 9.81078 13.1191 9.35742C12.7836 8.87648 12.2586 8.65039 11.583 8.65039C10.9073 8.65049 10.3488 8.8819 9.96777 9.34473C9.59573 9.79672 9.43164 10.4229 9.43164 11.1406L9.4375 15.7725H7.33105V6.98438H9.43848V9.15723L10.0996 8.0918C10.3686 7.6581 10.7456 7.30154 11.1934 7.05664C11.641 6.81186 12.1442 6.68691 12.6543 6.69434Z" fill="#171A1D" stroke="#171A1D" stroke-width="0.714286"/>
</svg>
