<svg width="49" height="49" viewBox="0 0 49 49" fill="none" xmlns="http://www.w3.org/2000/svg">
<path d="M21.9269 32.1261V43.1467H9.46824L4.56181 38.8814L3.30469 24.6261L4.56181 9.49514L11.817 5.72778H30.6539L37.7701 7.96023L40.4212 13.9602L41.1212 24.6261H29.4269C25.2848 24.6261 21.9269 27.9839 21.9269 32.1261Z" fill="#21A9ED" fill-opacity="0.2"/>
<path d="M41.2135 24.6799C41.2135 15.7581 41.2135 11.2972 38.4419 8.52556C35.6701 5.75391 31.2091 5.75391 22.2874 5.75391C13.3656 5.75391 8.90465 5.75391 6.13298 8.52556C3.36133 11.2972 3.36133 15.7581 3.36133 24.6799C3.36133 33.6019 3.36133 38.0627 6.13298 40.8344C8.90465 43.606 13.3656 43.606 22.2874 43.606" stroke="#21A9ED" stroke-width="2.25" stroke-linecap="round"/>
<path d="M3.36133 18.7034H41.2135" stroke="#21A9ED" stroke-width="2.25" stroke-linecap="round"/>
<path d="M12.3262 12.7268H12.3441" stroke="#21A9ED" stroke-width="2.25" stroke-linecap="round"/>
<path d="M20.2949 12.7268H20.3129" stroke="#21A9ED" stroke-width="2.25" stroke-linecap="round"/>
<path d="M38.9244 41.7496C37.8223 42.654 36.185 42.654 32.9103 42.654C29.6356 42.654 27.9982 42.654 26.8962 41.7496C26.6944 41.584 26.5095 41.399 26.3439 41.1973C25.4395 40.0952 25.4395 38.4579 25.4395 35.1832C25.4395 31.9085 25.4395 30.2712 26.3439 29.1691C26.5095 28.9674 26.6944 28.7824 26.8962 28.6168C27.9982 27.7124 29.6356 27.7124 32.9103 27.7124C36.185 27.7124 37.8223 27.7124 38.9244 28.6168C39.1261 28.7824 39.3111 28.9674 39.4766 29.1691C40.3811 30.2712 40.3811 31.9085 40.3811 35.1832C40.3811 38.4579 40.3811 40.0952 39.4766 41.1973C39.3111 41.399 39.1261 41.584 38.9244 41.7496Z" fill="#B7FFFD" stroke="#21A9ED" stroke-width="2.25" stroke-linecap="round"/>
<path d="M40.3809 36.1793V34.1871L42.9707 30.7339C43.2216 30.3995 43.6152 30.2026 44.0333 30.2026C44.7667 30.2026 45.3614 30.7973 45.3614 31.5308V38.8356C45.3614 39.569 44.7667 40.1637 44.0333 40.1637C43.6152 40.1637 43.2216 39.9669 42.9707 39.6325L40.3809 36.1793Z" fill="#B7FFFD" stroke="#21A9ED" stroke-width="2.25" stroke-linecap="round"/>
</svg>
