<svg width="33" height="33" viewBox="0 0 33 33" fill="none" xmlns="http://www.w3.org/2000/svg">
<path d="M15.0002 25.334C15.0002 13.0674 24.7779 13.1118 29.6668 14.6674L30.3335 12.0007L29.0002 8.00065L26.3335 7.33398H21.6668L19.0002 6.66732L11.6668 3.33398L7.66683 4.00065L3.66683 7.33398L3.00016 13.334L2.3335 21.334L4.3335 26.0007L7.66683 24.6673L11.6668 23.334L15.0002 25.334Z" fill="#B7FFFD"/>
<path d="M29.6667 14.0007V12.9573C29.6667 10.3711 29.6667 9.07808 28.8856 8.27465C28.1045 7.47124 26.8475 7.47124 24.3333 7.47124H21.5619C20.3387 7.47124 20.3285 7.46886 19.2287 6.91844L14.7865 4.6955C12.9318 3.76737 12.0044 3.3033 11.0165 3.33556C10.0286 3.36781 9.13169 3.89142 7.33793 4.93866L5.70077 5.89448C4.38319 6.6637 3.72439 7.04833 3.36219 7.68817C3 8.32802 3 9.10722 3 10.6656V21.6216C3 23.6692 3 24.6931 3.45635 25.2629C3.76001 25.642 4.18555 25.8969 4.656 25.9815C5.36301 26.1084 6.22864 25.6031 7.95983 24.5923C9.13541 23.906 10.2668 23.1932 11.6732 23.3865C12.8516 23.5484 13.9467 24.292 15 24.8191" stroke="#1355FF" stroke-width="1.9" stroke-linecap="round" stroke-linejoin="round"/>
<path d="M11 3.33398V23.334" stroke="#1355FF" stroke-width="1.9" stroke-linejoin="round"/>
<path d="M20.3335 7.33398V13.334" stroke="#1355FF" stroke-width="1.9" stroke-linecap="round" stroke-linejoin="round"/>
<path d="M24.7447 29.5793C24.4557 29.85 24.0693 30.0013 23.6671 30.0013C23.265 30.0013 22.8786 29.85 22.5895 29.5793C19.9421 27.0853 16.3943 24.2993 18.1245 20.2544C19.0599 18.0674 21.3055 16.668 23.6671 16.668C26.0287 16.668 28.2743 18.0674 29.2098 20.2544C30.9378 24.2941 27.3987 27.0938 24.7447 29.5793Z" stroke="#1355FF" stroke-width="1.9"/>
<path d="M23.667 22.668H23.679" stroke="#1355FF" stroke-width="1.9" stroke-linecap="round" stroke-linejoin="round"/>
</svg>
