<svg width="20" height="21" viewBox="0 0 20 21" fill="none" xmlns="http://www.w3.org/2000/svg">
<path d="M12.5 15.4102C12.4387 16.9534 11.1526 18.2638 9.42967 18.2217C9.02883 18.2119 8.53342 18.0722 7.5426 17.7927C5.15801 17.1201 3.08796 15.9897 2.5913 13.4573C2.5 12.9918 2.5 12.468 2.5 11.4204V10.0249C2.5 8.97735 2.5 8.45355 2.5913 7.98805C3.08796 5.4557 5.15801 4.3253 7.5426 3.65268C8.53342 3.3732 9.02883 3.23345 9.42967 3.22365C11.1526 3.1815 12.4387 4.49189 12.5 6.03517" stroke="white" stroke-width="1.5" stroke-linecap="round"/>
<path d="M8.33301 10.7227H17.4997M8.33301 10.7227C8.33301 10.1392 9.99492 9.04895 10.4163 8.63934M8.33301 10.7227C8.33301 11.3062 9.99492 12.3964 10.4163 12.806" stroke="white" stroke-width="1.5" stroke-linecap="round" stroke-linejoin="round"/>
</svg>
