<svg width="33" height="32" viewBox="0 0 33 32" fill="none" xmlns="http://www.w3.org/2000/svg">
<path d="M13.0661 25.2902C14.5731 12.7321 24.5777 12.9414 29.3917 14.6158V10.8484L28.7638 7.08094L26.2521 4.56931L16.2056 3.94141H7.41493L4.9033 6.45304L4.27539 13.36L4.9033 23.4065L9.29865 25.2903L13.0661 25.2902Z" fill="#B7FFFD"/>
<path d="M29.3917 14.6158C17.3359 11.6019 13.9033 20.4763 13.694 25.2903H8.67074L4.9033 23.4065L4.27539 18.3833V12.7321V7.08094L8.04283 3.94141H17.4614L27.508 4.56931L28.7638 8.33676L29.3917 14.6158Z" fill="#B7FFFD"/>
<path d="M4.27539 7.08203L12.9569 12.001C16.1574 13.8145 17.5097 13.8145 20.7102 12.001L29.3917 7.08203" stroke="#1355FF" stroke-width="1.9" stroke-linejoin="round"/>
<path d="M20.6011 23.4062C20.6011 23.4062 21.229 23.4062 21.8569 24.662C21.8569 24.662 23.8514 21.5224 25.6243 20.8945" stroke="#1355FF" stroke-width="1.9" stroke-linecap="round" stroke-linejoin="round"/>
<path d="M29.3916 22.7791C29.3916 26.2469 26.5804 29.0581 23.1126 29.0581C19.6448 29.0581 16.8335 26.2469 16.8335 22.7791C16.8335 19.3113 19.6448 16.5 23.1126 16.5C26.5804 16.5 29.3916 19.3113 29.3916 22.7791Z" stroke="#1355FF" stroke-width="1.9" stroke-linecap="round"/>
<mask id="path-6-inside-1_5054_21302" fill="white">
<path d="M13.1711 26.2323C13.6911 26.2454 14.1232 25.8345 14.1363 25.3144C14.1494 24.7944 13.7385 24.3623 13.2184 24.3491L13.1711 26.2323ZM28.443 14.6263C28.4358 15.1465 28.8518 15.574 29.3718 15.581C29.892 15.5882 30.3194 15.1724 30.3265 14.6522L28.443 14.6263ZM13.2184 4.92943C15.6407 4.86848 18.0391 4.86849 20.4614 4.92945L20.5089 3.04633C18.0549 2.98457 15.625 2.98455 13.1711 3.04631L13.2184 4.92943ZM3.35351 12.7621C3.32682 14.016 3.32682 15.2625 3.35351 16.5165L5.23681 16.4764C5.21068 15.2492 5.21068 14.0294 5.23681 12.8022L3.35351 12.7621ZM13.1711 3.04631C11.2213 3.09538 9.65605 3.13238 8.40479 3.35064C7.11105 3.57632 6.05977 4.00916 5.17178 4.90198L6.50739 6.23036C7.04063 5.6942 7.68895 5.38768 8.7285 5.20634C9.81052 5.01759 11.2123 4.97992 13.2184 4.92943L13.1711 3.04631ZM5.23681 12.8022C5.27849 10.8447 5.30999 9.48108 5.49323 8.42416C5.66872 7.41199 5.9703 6.77037 6.50739 6.23036L5.17178 4.90198C4.28766 5.79092 3.8581 6.8283 3.6372 8.10239C3.42406 9.33173 3.39397 10.8616 3.35351 12.7621L5.23681 12.8022ZM20.4614 4.92945C22.4677 4.97993 23.8695 5.0176 24.9515 5.20635C25.991 5.38769 26.6393 5.69422 27.1725 6.23037L28.5082 4.90201C27.6202 4.00918 26.5688 3.57634 25.2751 3.35066C24.0239 3.13239 22.4587 3.09539 20.5089 3.04633L20.4614 4.92945ZM30.3265 12.7622C30.2859 10.8617 30.2559 9.33175 30.0427 8.1024C29.8219 6.82833 29.3923 5.79095 28.5082 4.90201L27.1725 6.23037C27.7096 6.77039 28.0113 7.412 28.1867 8.42419C28.3699 9.4811 28.4014 10.8447 28.4431 12.8023L30.3265 12.7622ZM13.2184 24.3491C11.2123 24.2986 9.81052 24.2609 8.7285 24.0722C7.68895 23.8908 7.04063 23.5844 6.5074 23.0482L5.17179 24.3766C6.05977 25.2694 7.11106 25.7022 8.40479 25.9279C9.65605 26.1462 11.2213 26.1832 13.1711 26.2323L13.2184 24.3491ZM3.35351 16.5165C3.39397 18.4169 3.42407 19.9468 3.63721 21.1762C3.8581 22.4503 4.28766 23.4876 5.17179 24.3766L6.5074 23.0482C5.9703 22.5082 5.66873 21.8666 5.49324 20.8544C5.31001 19.7975 5.27849 18.4338 5.23681 16.4764L3.35351 16.5165ZM29.3847 14.6393C30.3265 14.6522 30.3265 14.6522 30.3265 14.6522C30.3265 14.6519 30.3265 14.6525 30.3265 14.6522C30.3265 14.6516 30.3266 14.6497 30.3266 14.6486C30.3266 14.6463 30.3266 14.643 30.3267 14.6386C30.3269 14.63 30.327 14.6172 30.3272 14.6008C30.3276 14.5679 30.3281 14.5203 30.3287 14.4611C30.33 14.3426 30.3315 14.177 30.3324 13.9883C30.3344 13.6134 30.3344 13.1388 30.3265 12.7622L28.4431 12.8023C28.4505 13.1528 28.4507 13.6068 28.4488 13.9786C28.4478 14.1633 28.4463 14.3256 28.4451 14.4417C28.4445 14.4996 28.444 14.5461 28.4436 14.5779C28.4434 14.5938 28.4433 14.606 28.4431 14.6141C28.4431 14.6183 28.443 14.6214 28.443 14.6234C28.443 14.6244 28.443 14.6258 28.443 14.6263C28.443 14.6263 28.443 14.6263 29.3847 14.6393Z"/>
</mask>
<path d="M5.23681 12.8022L5.21659 13.752L5.25703 11.8524L5.23681 12.8022ZM30.3265 12.7622L30.3467 13.7119L30.3063 11.8124L30.3265 12.7622ZM5.23681 16.4764L5.25701 17.4262L5.21667 15.5266L5.23681 16.4764ZM13.1947 3.98787L12.245 4.01178L12.2687 4.95333L13.2184 4.92943L14.1681 4.90553L14.1444 3.96397L13.1947 3.98787ZM4.29516 12.7822L4.27494 13.732L5.21659 13.752L5.23681 12.8022L5.25702 11.8524L4.31537 11.8324L4.29516 12.7822ZM20.4852 3.98789L21.4349 4.01183L21.4586 3.07027L20.5089 3.04633L19.5592 3.02239L19.5355 3.96395L20.4852 3.98789ZM29.3847 12.7822L29.405 13.732L30.3467 13.7119L30.3265 12.7622L30.3063 11.8124L29.3645 11.8324L29.3847 12.7822ZM13.2184 24.3491L12.2688 24.3252L12.2214 26.2084L13.1711 26.2323L14.1208 26.2562L14.1681 24.373L13.2184 24.3491ZM4.29516 16.4964L4.3153 17.4461L5.25695 17.4262L5.23681 16.4764L5.21667 15.5266L4.27502 15.5466L4.29516 16.4964ZM20.4614 4.92945L21.4111 4.95339L21.4586 3.07027L20.5089 3.04633L19.5592 3.02239L19.5117 4.90551L20.4614 4.92945ZM13.1711 3.04631L12.2214 3.07021L12.2687 4.95333L13.2184 4.92943L14.1681 4.90554L14.1208 3.02242L13.1711 3.04631ZM3.35351 16.5165L3.37371 17.4662L5.25701 17.4262L5.23681 16.4764L5.2166 15.5266L3.33331 15.5667L3.35351 16.5165ZM5.23681 12.8022L5.25703 11.8524L3.37373 11.8124L3.35351 12.7621L3.33329 13.7119L5.21658 13.752L5.23681 12.8022ZM5.17178 4.90198L4.50185 5.57555L5.83746 6.90393L6.50739 6.23036L7.17731 5.55678L5.8417 4.22841L5.17178 4.90198ZM27.1725 6.23037L27.8424 6.90396L29.1781 5.5756L28.5082 4.90201L27.8383 4.22841L26.5026 5.55677L27.1725 6.23037ZM28.4431 12.8023L28.4634 13.752L30.3467 13.7119L30.3265 12.7622L30.3063 11.8124L28.4229 11.8525L28.4431 12.8023ZM6.5074 23.0482L5.83747 22.3746L4.50186 23.703L5.17179 24.3766L5.84172 25.0502L7.17733 23.7218L6.5074 23.0482ZM13.2184 4.92943L13.2662 6.82883H13.2662L13.2184 4.92943ZM5.23681 12.8022L3.33724 12.7618L3.33724 12.7618L5.23681 12.8022ZM20.5089 3.04633L20.4611 4.94573L20.4611 4.94573L20.5089 3.04633ZM30.3265 12.7622L32.2261 12.7223L32.226 12.7216L30.3265 12.7622ZM13.1711 26.2323L13.1232 28.1317L13.1234 28.1317L13.1711 26.2323ZM13.2184 24.3491L13.2666 22.4497L13.2662 22.4497L13.2184 24.3491ZM5.23681 16.4764L3.33724 16.5168L3.33724 16.5168L5.23681 16.4764ZM29.3718 15.581L29.3979 13.6812L29.3975 13.6812L29.3718 15.581ZM20.4614 4.92945L20.4136 6.82884L20.4136 6.82884L20.4614 4.92945ZM13.1711 3.04631L13.2189 4.94571L13.2189 4.94571L13.1711 3.04631ZM3.35351 12.7621L1.45394 12.7217L1.45394 12.7217L3.35351 12.7621ZM3.35351 16.5165L1.45394 16.5569L1.45394 16.5569L3.35351 16.5165ZM8.40479 3.35064L8.0783 1.4789L8.07828 1.4789L8.40479 3.35064ZM5.17178 4.90198L3.82463 3.56213L3.82463 3.56214L5.17178 4.90198ZM6.50739 6.23036L7.85454 7.5702L7.85455 7.57019L6.50739 6.23036ZM8.7285 5.20634L9.055 7.07808H9.055L8.7285 5.20634ZM5.49323 8.42416L3.62116 8.09959L3.62116 8.09961L5.49323 8.42416ZM3.6372 8.10239L1.76513 7.77781L1.76513 7.77782L3.6372 8.10239ZM24.9515 5.20635L24.625 7.07809L24.625 7.07809L24.9515 5.20635ZM27.1725 6.23037L25.8253 7.57019L25.8254 7.57023L27.1725 6.23037ZM28.5082 4.90201L29.8554 3.56218L29.8553 3.56216L28.5082 4.90201ZM25.2751 3.35066L24.9486 5.22239L24.9486 5.2224L25.2751 3.35066ZM30.0427 8.1024L28.1706 8.4268L28.1706 8.42711L30.0427 8.1024ZM28.1867 8.42419L26.3146 8.74867L26.3146 8.74873L28.1867 8.42419ZM28.4431 12.8023L30.3427 12.7621L30.3427 12.7618L28.4431 12.8023ZM8.7285 24.0722L9.055 22.2005H9.055L8.7285 24.0722ZM6.5074 23.0482L7.85467 21.7085L7.85452 21.7083L6.5074 23.0482ZM5.17179 24.3766L3.82461 25.7164L3.82468 25.7165L5.17179 24.3766ZM8.40479 25.9279L8.07829 27.7996H8.0783L8.40479 25.9279ZM3.63721 21.1762L5.50929 20.8516L5.50928 20.8516L3.63721 21.1762ZM5.49324 20.8544L3.62117 21.179L3.62117 21.179L5.49324 20.8544ZM30.3267 14.6386L32.226 14.6929L32.2263 14.6795L32.2265 14.6662L30.3267 14.6386ZM30.3272 14.6008L32.227 14.6301L32.2271 14.6226L30.3272 14.6008ZM30.3287 14.4611L28.4288 14.4409V14.4409L30.3287 14.4611ZM30.3324 13.9883L28.4324 13.9782L28.4324 13.9795L30.3324 13.9883ZM28.4488 13.9786L30.3488 13.9889L30.3488 13.9882L28.4488 13.9786ZM28.4451 14.4417L30.345 14.4623L30.345 14.4602L28.4451 14.4417ZM28.4436 14.5779L30.3434 14.6078L30.3435 14.6004L28.4436 14.5779ZM28.4431 14.6141L26.5434 14.5849L26.5431 14.5995V14.6141H28.4431ZM13.1711 26.2323L13.1234 28.1317C14.6922 28.1711 15.9962 26.9314 16.0357 25.3622L14.1363 25.3144L12.2369 25.2666C12.2502 24.7376 12.6899 24.3196 13.2188 24.3329L13.1711 26.2323ZM14.1363 25.3144L16.0357 25.3622C16.0752 23.7931 14.8352 22.4895 13.2666 22.4497L13.2184 24.3491L13.1703 26.2485C12.6417 26.2351 12.2236 25.7957 12.2369 25.2666L14.1363 25.3144ZM28.443 14.6263L26.5432 14.6002C26.5216 16.1695 27.7764 17.4596 29.3461 17.4808L29.3718 15.581L29.3975 13.6812C29.9272 13.6883 30.3501 14.1235 30.3428 14.6525L28.443 14.6263ZM29.3718 15.581L29.3457 17.4808C30.9148 17.5024 32.2051 16.2479 32.2263 14.6779L30.3265 14.6522L28.4266 14.6265C28.4338 14.0968 28.8692 13.6739 29.3979 13.6812L29.3718 15.581ZM30.3265 14.6522L30.3526 12.7524L28.4691 12.7265L28.443 14.6263L28.4169 16.5262L30.3004 16.552L30.3265 14.6522ZM13.2184 4.92943L13.2662 6.82883C15.6567 6.76868 18.0231 6.76869 20.4136 6.82884L20.4614 4.92945L20.5092 3.03005C18.055 2.96829 15.6248 2.96828 13.1706 3.03003L13.2184 4.92943ZM20.5089 3.04633L20.5567 1.14693C18.0708 1.08437 15.6091 1.08435 13.1233 1.14692L13.1711 3.04631L13.2189 4.94571C15.641 4.88475 18.039 4.88477 20.4611 4.94573L20.5089 3.04633ZM3.35351 12.7621L1.45394 12.7217C1.42668 14.0025 1.42668 15.276 1.45394 16.5569L3.35351 16.5165L5.25308 16.476C5.22697 15.249 5.22697 14.0295 5.25308 12.8026L3.35351 12.7621ZM5.23681 16.4764L7.13638 16.436C7.11083 15.2357 7.11083 14.0429 7.13638 12.8427L5.23681 12.8022L3.33724 12.7618C3.31054 14.016 3.31054 15.2627 3.33724 16.5168L5.23681 16.4764ZM13.1711 3.04631L13.1233 1.14692C11.2293 1.19457 9.50002 1.2309 8.0783 1.4789L8.40479 3.35064L8.73128 5.22237C9.81209 5.03385 11.2132 4.99618 13.2189 4.94571L13.1711 3.04631ZM8.40479 3.35064L8.07828 1.4789C6.52871 1.74921 5.07072 2.30926 3.82463 3.56213L5.17178 4.90198L6.51892 6.24183C7.04881 5.70906 7.69338 5.40343 8.7313 5.22237L8.40479 3.35064ZM6.50739 6.23036L7.85455 7.57019C8.03042 7.39336 8.27266 7.21455 9.055 7.07808L8.7285 5.20634L8.40199 3.33461C7.10523 3.56081 6.05084 3.99504 5.16023 4.89052L6.50739 6.23036ZM8.7285 5.20634L9.055 7.07808C9.96607 6.91915 11.2021 6.88077 13.2662 6.82883L13.2184 4.92943L13.1706 3.03003C11.2224 3.07906 9.65497 3.11603 8.40199 3.33461L8.7285 5.20634ZM5.23681 12.8022L7.13637 12.8427C7.17931 10.8264 7.21227 9.63145 7.3653 8.74872L5.49323 8.42416L3.62116 8.09961C3.40772 9.33072 3.37767 10.863 3.33724 12.7618L5.23681 12.8022ZM5.49323 8.42416L7.3653 8.74874C7.49485 8.00152 7.66704 7.75872 7.85454 7.5702L6.50739 6.23036L5.16024 4.89051C4.27356 5.78202 3.84258 6.82246 3.62116 8.09959L5.49323 8.42416ZM5.17178 4.90198L3.82463 3.56214C2.59018 4.80331 2.03173 6.24012 1.76513 7.77781L3.6372 8.10239L5.50927 8.42696C5.68446 7.41648 5.98514 6.77853 6.51893 6.24183L5.17178 4.90198ZM3.6372 8.10239L1.76513 7.77782C1.52188 9.18083 1.4932 10.8777 1.45394 12.7217L3.35351 12.7621L5.25308 12.8026C5.29475 10.8456 5.32625 9.48263 5.50927 8.42696L3.6372 8.10239ZM20.4614 4.92945L20.4136 6.82884C22.4779 6.88079 23.7139 6.91916 24.625 7.07809L24.9515 5.20635L25.278 3.33462C24.025 3.11605 22.4575 3.07907 20.5092 3.03005L20.4614 4.92945ZM24.9515 5.20635L24.625 7.07809C25.4073 7.21455 25.6494 7.39335 25.8253 7.57019L27.1725 6.23037L28.5197 4.89055C27.6291 3.9951 26.5748 3.56083 25.278 3.33462L24.9515 5.20635ZM28.5082 4.90201L29.8553 3.56216C28.6092 2.30926 27.1511 1.74923 25.6016 1.47893L25.2751 3.35066L24.9486 5.2224C25.9865 5.40346 26.6312 5.70911 27.161 6.24186L28.5082 4.90201ZM25.2751 3.35066L25.6016 1.47893C24.18 1.23092 22.4506 1.19459 20.5567 1.14693L20.5089 3.04633L20.4611 4.94573C22.4667 4.9962 23.8679 5.03386 24.9486 5.22239L25.2751 3.35066ZM30.3265 12.7622L32.226 12.7216C32.1867 10.8778 32.1581 9.18079 31.9147 7.77768L30.0427 8.1024L28.1706 8.42711C28.3537 9.48272 28.3851 10.8455 28.4269 12.8027L30.3265 12.7622ZM30.0427 8.1024L31.9148 7.778C31.6483 6.24013 31.0897 4.80333 29.8554 3.56218L28.5082 4.90201L27.161 6.24183C27.6948 6.77857 27.9955 7.41652 28.1706 8.4268L30.0427 8.1024ZM27.1725 6.23037L25.8254 7.57023C26.0129 7.75881 26.1851 8.00163 26.3146 8.74867L28.1867 8.42419L30.0588 8.09971C29.8374 6.82238 29.4063 5.78198 28.5196 4.89051L27.1725 6.23037ZM28.1867 8.42419L26.3146 8.74873C26.4676 9.63146 26.5006 10.8265 26.5436 12.8427L28.4431 12.8023L30.3427 12.7618C30.3023 10.863 30.2722 9.33073 30.0588 8.09965L28.1867 8.42419ZM13.2184 24.3491L13.2662 22.4497C11.2021 22.3978 9.96607 22.3594 9.055 22.2005L8.7285 24.0722L8.40199 25.9439C9.65497 26.1625 11.2224 26.1995 13.1707 26.2485L13.2184 24.3491ZM8.7285 24.0722L9.055 22.2005C8.27249 22.064 8.0304 21.8852 7.85467 21.7085L6.5074 23.0482L5.16013 24.3879C6.05086 25.2837 7.10541 25.7177 8.40199 25.9439L8.7285 24.0722ZM5.17179 24.3766L3.82468 25.7165C5.07073 26.9692 6.5287 27.5293 8.07829 27.7996L8.40479 25.9279L8.73128 24.0562C7.69342 23.8751 7.0488 23.5695 6.5189 23.0367L5.17179 24.3766ZM8.40479 25.9279L8.0783 27.7996C9.49999 28.0476 11.2293 28.084 13.1232 28.1317L13.1711 26.2323L13.2189 24.3329C11.2133 24.2824 9.81212 24.2447 8.73128 24.0562L8.40479 25.9279ZM3.35351 16.5165L1.45394 16.5569C1.4932 18.4008 1.52189 20.0977 1.76514 21.5007L3.63721 21.1762L5.50928 20.8516C5.32626 19.7959 5.29474 18.4329 5.25308 16.476L3.35351 16.5165ZM3.63721 21.1762L1.76513 21.5007C2.03173 23.0385 2.5902 24.4752 3.82461 25.7164L5.17179 24.3766L6.51897 23.0368C5.98512 22.5 5.68446 21.8621 5.50929 20.8516L3.63721 21.1762ZM6.5074 23.0482L7.85452 21.7083C7.66705 21.5198 7.49487 21.2771 7.36531 20.5298L5.49324 20.8544L3.62117 21.179C3.84259 22.4561 4.27356 23.4966 5.16028 24.3881L6.5074 23.0482ZM5.49324 20.8544L7.36532 20.5299C7.21228 19.6472 7.17931 18.4521 7.13637 16.4359L5.23681 16.4764L3.33724 16.5168C3.37767 18.4156 3.40773 19.9479 3.62117 21.179L5.49324 20.8544ZM29.3847 14.6393L29.3586 16.5391C29.8295 16.5456 30.0649 16.5488 30.1827 16.5504C30.2415 16.5512 30.271 16.5516 30.2857 16.5518C30.293 16.5519 30.2967 16.552 30.2986 16.552C30.2995 16.552 30.2999 16.552 30.3002 16.552C30.3003 16.552 30.3004 16.552 30.3004 16.552C30.3004 16.552 30.3004 16.552 30.3005 16.552C30.3005 16.552 30.3005 16.552 30.3006 16.552C30.3006 16.552 30.3007 16.552 30.3008 16.552C30.3009 16.552 30.3011 16.552 30.3012 16.552C30.6575 16.5231 31.0021 16.428 30.3265 14.6522C29.6509 12.8764 29.9954 12.7813 30.3517 12.7524C30.3518 12.7524 30.352 12.7524 30.3521 12.7524C30.3523 12.7524 30.3523 12.7524 30.3524 12.7524C30.3524 12.7524 30.3525 12.7524 30.3525 12.7524C30.3525 12.7524 30.3525 12.7524 30.3525 12.7524C30.3525 12.7524 30.3524 12.7524 30.3523 12.7524C30.3521 12.7524 30.3516 12.7524 30.3507 12.7524C30.3489 12.7523 30.3452 12.7523 30.3378 12.7522C30.3231 12.752 30.2937 12.7516 30.2348 12.7508C30.1171 12.7491 29.8817 12.7459 29.4108 12.7394L29.3847 14.6393ZM30.3265 14.6522H32.2265C32.2265 14.6522 32.2265 14.6522 32.2265 14.6522V14.6522C32.2265 14.6522 32.2265 14.6522 32.2265 14.6522V14.6522C32.2265 14.6522 32.2265 14.6522 32.2265 14.6522V14.6522C32.2265 14.6522 32.2265 14.6522 32.2265 14.6522V14.6522C32.2265 14.6522 32.2265 14.6522 32.2265 14.6522C32.2265 14.6522 32.2265 14.6522 32.2265 14.6522V14.6522C32.2265 14.6522 32.2265 14.6522 32.2265 14.6522C32.2265 14.6522 32.2265 14.6522 32.2265 14.6522V14.6522C32.2265 14.6522 32.2265 14.6522 32.2265 14.6522C32.2265 14.6522 32.2265 14.6522 32.2265 14.6522V14.6522V14.6522C32.2265 14.6522 32.2265 14.6522 32.2265 14.6522C32.2265 14.6522 32.2265 14.6522 32.2265 14.6522C32.2265 14.6522 32.2265 14.6522 32.2265 14.6522V14.6522V14.6522C32.2265 14.6522 32.2265 14.6522 32.2265 14.6522C32.2265 14.6522 32.2265 14.6522 32.2265 14.6522C32.2265 14.6522 32.2265 14.6522 32.2265 14.6522C32.2265 14.6522 32.2265 14.6522 32.2265 14.6522C32.2265 14.6522 32.2265 14.6522 32.2265 14.6522C32.2265 14.6522 32.2265 14.6522 32.2265 14.6522C32.2265 14.6522 32.2265 14.6522 32.2265 14.6522C32.2265 14.6522 32.2265 14.6522 32.2265 14.6522C32.2265 14.6522 32.2265 14.6522 32.2265 14.6522C32.2265 14.6522 32.2265 14.6522 32.2265 14.6522C32.2265 14.6522 32.2265 14.6522 32.2265 14.6522C32.2265 14.6522 32.2265 14.6522 32.2265 14.6522C32.2265 14.6522 32.2265 14.6522 32.2265 14.6522C32.2265 14.6522 32.2265 14.6522 32.2265 14.6522C32.2265 14.6522 32.2265 14.6522 32.2265 14.6522C32.2265 14.6522 32.2265 14.6522 32.2265 14.6522C32.2265 14.6522 32.2265 14.6522 32.2265 14.6522V14.6522V14.6522C32.2265 14.6522 32.2265 14.6522 32.2265 14.6522C32.2265 14.6521 32.2265 14.6521 32.2265 14.6521C32.2265 14.6521 32.2265 14.6521 32.2265 14.6521V14.6521C32.2265 14.6521 32.2265 14.6521 32.2265 14.6521C32.2265 14.6521 32.2265 14.6521 32.2265 14.6521V14.6521C32.2265 14.6521 32.2265 14.6521 32.2265 14.6521V14.6521C32.2265 14.6521 32.2265 14.6521 32.2265 14.6521C32.2265 14.6521 32.2265 14.6521 32.2265 14.6521V14.6521C32.2265 14.6521 32.2265 14.6521 32.2265 14.6521C32.2265 14.6521 32.2265 14.6521 32.2265 14.6521C32.2265 14.6521 32.2265 14.6521 32.2265 14.6521C32.2265 14.6521 32.2265 14.6521 32.2265 14.6521C32.2265 14.6521 32.2265 14.6521 32.2265 14.6521C32.2265 14.6521 32.2265 14.6521 32.2265 14.6521V14.6521C32.2265 14.6521 32.2265 14.6521 32.2265 14.6521C32.2265 14.6521 32.2265 14.6521 32.2265 14.6521C32.2265 14.6521 32.2265 14.6521 32.2265 14.6521V14.6521C32.2265 14.6521 32.2265 14.6521 32.2265 14.6521C32.2265 14.6521 32.2265 14.6521 32.2265 14.6521C30.3265 14.6521 28.4265 14.6521 28.4265 14.6521C28.4265 14.6521 28.4265 14.6521 28.4265 14.6521C28.4265 14.6521 28.4265 14.6521 28.4265 14.6521C28.4265 14.6521 28.4265 14.6521 28.4265 14.6521C28.4265 14.6521 28.4265 14.6521 28.4265 14.6521C28.4265 14.6521 28.4265 14.6521 28.4265 14.6521C28.4265 14.6521 28.4265 14.6521 28.4265 14.6521C28.4265 14.6521 28.4265 14.6521 28.4265 14.6521C28.4265 14.6521 28.4265 14.6521 28.4265 14.6521V14.6521C28.4265 14.6521 28.4265 14.6521 28.4265 14.6521V14.6521C28.4265 14.6521 28.4265 14.6521 28.4265 14.6521C28.4265 14.6521 28.4265 14.6521 28.4265 14.6521C28.4265 14.6521 28.4265 14.6521 28.4265 14.6521C28.4265 14.6521 28.4265 14.6521 28.4265 14.6521C28.4265 14.6521 28.4265 14.6521 28.4265 14.6521C28.4265 14.6521 28.4265 14.6521 28.4265 14.6521C28.4265 14.6521 28.4265 14.6521 28.4265 14.6521C28.4265 14.6521 28.4265 14.6521 28.4265 14.6521C28.4265 14.6521 28.4265 14.6521 28.4265 14.6521C28.4265 14.6521 28.4265 14.6521 28.4265 14.6521C28.4265 14.6521 28.4265 14.6521 28.4265 14.6521V14.6521C28.4265 14.6522 28.4265 14.6522 28.4265 14.6522C28.4265 14.6522 28.4265 14.6522 28.4265 14.6522V14.6522C28.4265 14.6522 28.4265 14.6522 28.4265 14.6522C28.4265 14.6522 28.4265 14.6522 28.4265 14.6522V14.6522C28.4265 14.6522 28.4265 14.6522 28.4265 14.6522C28.4265 14.6522 28.4265 14.6522 28.4265 14.6522C28.4265 14.6522 28.4265 14.6522 28.4265 14.6522C28.4265 14.6522 28.4265 14.6522 28.4265 14.6522V14.6522C28.4265 14.6522 28.4265 14.6522 28.4265 14.6522V14.6522C28.4265 14.6522 28.4265 14.6522 28.4265 14.6522V14.6522C28.4265 14.6522 28.4265 14.6522 28.4265 14.6522C28.4265 14.6522 28.4265 14.6522 28.4265 14.6522C28.4265 14.6522 28.4265 14.6522 28.4265 14.6522C28.4265 14.6522 28.4265 14.6522 28.4265 14.6522V14.6522C28.4265 14.6522 28.4265 14.6522 28.4265 14.6522V14.6522C28.4265 14.6522 28.4265 14.6522 28.4265 14.6522C28.4265 14.6522 28.4265 14.6522 28.4265 14.6522V14.6522C28.4265 14.6522 28.4265 14.6522 28.4265 14.6522V14.6522C28.4265 14.6522 28.4265 14.6522 28.4265 14.6522C28.4265 14.6522 28.4265 14.6522 28.4265 14.6522V14.6522C28.4265 14.6522 28.4265 14.6522 28.4265 14.6522C28.4265 14.6522 28.4265 14.6522 28.4265 14.6522V14.6522C28.4265 14.6522 28.4265 14.6522 28.4265 14.6522C28.4265 14.6522 28.4265 14.6522 28.4265 14.6522V14.6522C28.4265 14.6522 28.4265 14.6522 28.4265 14.6522C28.4265 14.6522 28.4265 14.6522 28.4265 14.6522V14.6522C28.4265 14.6522 28.4265 14.6522 28.4265 14.6522C28.4265 14.6522 28.4265 14.6522 28.4265 14.6522V14.6522C28.4265 14.6522 28.4265 14.6522 28.4265 14.6522C28.4265 14.6522 28.4265 14.6522 28.4265 14.6522V14.6522V14.6522C28.4265 14.6522 28.4265 14.6522 28.4265 14.6522C28.4265 14.6522 28.4265 14.6522 28.4265 14.6522V14.6522C28.4265 14.6522 28.4265 14.6522 28.4265 14.6522C28.4265 14.6522 28.4265 14.6522 28.4265 14.6522V14.6522C28.4265 14.6522 28.4265 14.6522 28.4265 14.6522C28.4265 14.6522 28.4265 14.6522 28.4265 14.6522C28.4265 14.6522 28.4265 14.6522 28.4265 14.6522V14.6522C28.4265 14.6522 28.4265 14.6522 28.4265 14.6522C28.4265 14.6522 28.4265 14.6522 28.4265 14.6522V14.6522C28.4265 14.6522 28.4265 14.6522 28.4265 14.6522C28.4265 14.6522 28.4265 14.6522 28.4265 14.6522V14.6522C28.4265 14.6522 28.4265 14.6522 28.4265 14.6522C28.4265 14.6522 28.4265 14.6522 28.4265 14.6522C28.4265 14.6522 28.4265 14.6522 28.4265 14.6522V14.6522C28.4265 14.6522 28.4265 14.6522 28.4265 14.6522C28.4265 14.6522 28.4265 14.6522 28.4265 14.6522V14.6522C28.4265 14.6522 28.4265 14.6522 28.4265 14.6522C28.4265 14.6522 28.4265 14.6522 28.4265 14.6522V14.6522C28.4265 14.6522 28.4265 14.6522 28.4265 14.6522C28.4265 14.6522 28.4265 14.6522 28.4265 14.6522V14.6522C28.4265 14.6522 28.4265 14.6522 28.4265 14.6522C28.4265 14.6522 28.4265 14.6522 28.4265 14.6522V14.6522C28.4265 14.6522 28.4265 14.6522 28.4265 14.6522V14.6522C28.4265 14.6522 28.4265 14.6522 28.4265 14.6522C28.4265 14.6522 28.4265 14.6522 28.4265 14.6522V14.6522C28.4265 14.6522 28.4265 14.6522 28.4265 14.6522V14.6522C28.4265 14.6522 28.4265 14.6522 28.4265 14.6522C28.4265 14.6522 28.4265 14.6522 28.4265 14.6522V14.6522C28.4265 14.6522 28.4265 14.6522 28.4265 14.6522V14.6522C28.4265 14.6522 28.4265 14.6522 28.4265 14.6522V14.6522C28.4265 14.6522 28.4265 14.6522 28.4265 14.6522V14.6522C28.4265 14.6522 28.4265 14.6522 28.4265 14.6522V14.6522C28.4265 14.6522 28.4265 14.6522 28.4265 14.6522V14.6522C28.4265 14.6522 28.4265 14.6522 28.4265 14.6522C28.4265 14.6522 28.4265 14.6522 28.4265 14.6522V14.6522C28.4265 14.6522 28.4265 14.6522 28.4265 14.6522C28.4265 14.6522 28.4265 14.6522 28.4265 14.6522V14.6522C28.4265 14.6522 28.4265 14.6522 28.4265 14.6522C28.4265 14.6522 28.4265 14.6522 28.4265 14.6523V14.6523V14.6523C28.4265 14.6523 28.4265 14.6523 28.4265 14.6523C28.4265 14.6523 28.4265 14.6523 28.4265 14.6523C28.4265 14.6523 28.4265 14.6523 28.4265 14.6523C28.4265 14.6523 28.4265 14.6523 28.4265 14.6523C28.4265 14.6523 28.4265 14.6523 28.4265 14.6523C28.4265 14.6523 28.4265 14.6523 28.4265 14.6523C28.4265 14.6523 28.4265 14.6523 28.4265 14.6523C28.4265 14.6523 28.4265 14.6523 28.4265 14.6523C28.4265 14.6523 28.4265 14.6523 28.4265 14.6523V14.6523C28.4265 14.6523 28.4265 14.6523 28.4265 14.6523V14.6523C28.4265 14.6523 28.4265 14.6523 28.4265 14.6523C28.4265 14.6523 28.4265 14.6523 28.4265 14.6523C28.4265 14.6523 28.4265 14.6523 28.4265 14.6523C28.4265 14.6523 28.4265 14.6523 28.4265 14.6523C28.4265 14.6523 28.4265 14.6523 28.4265 14.6523C28.4265 14.6523 28.4265 14.6523 28.4265 14.6523V14.6523C28.4265 14.6523 28.4265 14.6523 28.4265 14.6523C28.4265 14.6523 28.4265 14.6523 28.4265 14.6523C28.4265 14.6523 30.3265 14.6523 32.2265 14.6523V14.6523C32.2265 14.6523 32.2265 14.6523 32.2265 14.6523C32.2265 14.6523 32.2265 14.6523 32.2265 14.6523C32.2265 14.6523 32.2265 14.6523 32.2265 14.6523V14.6523V14.6523C32.2265 14.6523 32.2265 14.6523 32.2265 14.6523V14.6523C32.2265 14.6523 32.2265 14.6523 32.2265 14.6523C32.2265 14.6523 32.2265 14.6523 32.2265 14.6523C32.2265 14.6523 32.2265 14.6523 32.2265 14.6523C32.2265 14.6523 32.2265 14.6523 32.2265 14.6523C32.2265 14.6523 32.2265 14.6523 32.2265 14.6523V14.6523V14.6523C32.2265 14.6523 32.2265 14.6523 32.2265 14.6523V14.6523C32.2265 14.6523 32.2265 14.6523 32.2265 14.6523V14.6523C32.2265 14.6523 32.2265 14.6523 32.2265 14.6523C32.2265 14.6523 32.2265 14.6523 32.2265 14.6523C32.2265 14.6523 32.2265 14.6523 32.2265 14.6523C32.2265 14.6523 32.2265 14.6523 32.2265 14.6523C32.2265 14.6522 32.2265 14.6522 32.2265 14.6522V14.6522C32.2265 14.6522 32.2265 14.6522 32.2265 14.6522C32.2265 14.6522 32.2265 14.6522 32.2265 14.6522C32.2265 14.6522 32.2265 14.6522 32.2265 14.6522C32.2265 14.6522 32.2265 14.6522 32.2265 14.6522V14.6522V14.6522V14.6522V14.6522C32.2265 14.6522 32.2265 14.6522 32.2265 14.6522C32.2265 14.6522 32.2265 14.6522 32.2265 14.6522C32.2265 14.6522 32.2265 14.6522 32.2265 14.6522C32.2265 14.6522 32.2265 14.6522 32.2265 14.6522C32.2265 14.6522 32.2265 14.6522 32.2265 14.6522V14.6522V14.6522V14.6522V14.6522V14.6522C32.2265 14.6522 32.2265 14.6522 32.2265 14.6522C32.2265 14.6522 32.2265 14.6522 32.2265 14.6522C32.2265 14.6522 32.2265 14.6522 32.2265 14.6522C32.2265 14.6522 32.2265 14.6522 32.2265 14.6522V14.6522V14.6522C32.2265 14.6522 32.2265 14.6522 32.2265 14.6522C32.2265 14.6522 32.2265 14.6522 32.2265 14.6522C32.2265 14.6522 32.2265 14.6522 32.2265 14.6522V14.6522C32.2265 14.6522 32.2265 14.6522 32.2265 14.6522C32.2265 14.6522 32.2265 14.6522 32.2265 14.6522V14.6522V14.6522C32.2265 14.6522 32.2265 14.6522 32.2265 14.6522V14.6522C32.2265 14.6522 32.2265 14.6522 32.2265 14.6522C32.2265 14.6522 32.2265 14.6522 32.2265 14.6522V14.6522C32.2265 14.6522 32.2265 14.6522 32.2265 14.6522V14.6522C32.2265 14.6522 32.2265 14.6522 32.2265 14.6522V14.6522C32.2265 14.6522 32.2265 14.6522 32.2265 14.6522V14.6522H30.3265H28.4265V14.6522C28.4265 14.6522 28.4265 14.6522 28.4265 14.6522V14.6522C28.4265 14.6522 28.4265 14.6522 28.4265 14.6522V14.6522C28.4265 14.6522 28.4265 14.6522 28.4265 14.6522V14.6522C28.4265 14.6522 28.4265 14.6522 28.4265 14.6522C28.4265 14.6522 28.4265 14.6522 28.4265 14.6522V14.6522C28.4265 14.6522 28.4265 14.6522 28.4265 14.6522V14.6522V14.6522C28.4265 14.6522 28.4265 14.6522 28.4265 14.6522C28.4265 14.6522 28.4265 14.6522 28.4265 14.6522V14.6522C28.4265 14.6522 28.4265 14.6522 28.4265 14.6522C28.4265 14.6522 28.4265 14.6522 28.4265 14.6522C28.4265 14.6522 28.4265 14.6522 28.4265 14.6522V14.6522V14.6522C28.4265 14.6522 28.4265 14.6522 28.4265 14.6522C28.4265 14.6522 28.4265 14.6522 28.4265 14.6522C28.4265 14.6522 28.4265 14.6522 28.4265 14.6522C28.4265 14.6522 28.4265 14.6522 28.4265 14.6522V14.6522V14.6522V14.6522V14.6522V14.6522C28.4265 14.6522 28.4265 14.6522 28.4265 14.6522C28.4265 14.6522 28.4265 14.6522 28.4265 14.6522C28.4265 14.6522 28.4265 14.6522 28.4265 14.6522C28.4265 14.6522 28.4265 14.6522 28.4265 14.6522C28.4265 14.6522 28.4265 14.6522 28.4265 14.6522V14.6522V14.6522V14.6522V14.6522C28.4265 14.6522 28.4265 14.6522 28.4265 14.6522C28.4265 14.6522 28.4265 14.6522 28.4265 14.6522C28.4265 14.6522 28.4265 14.6522 28.4265 14.6522C28.4265 14.6522 28.4265 14.6522 28.4265 14.6522V14.6522C28.4265 14.6522 28.4265 14.6522 28.4265 14.6523C28.4265 14.6523 28.4265 14.6523 28.4265 14.6523C28.4265 14.6523 28.4265 14.6523 28.4265 14.6523C28.4265 14.6523 28.4265 14.6523 28.4265 14.6523C28.4265 14.6523 28.4265 14.6523 28.4265 14.6523V14.6523C28.4265 14.6523 28.4265 14.6523 28.4265 14.6523V14.6523C28.4265 14.6523 28.4265 14.6523 28.4265 14.6523V14.6523V14.6523C28.4265 14.6523 28.4265 14.6523 28.4265 14.6523C28.4265 14.6523 28.4265 14.6523 28.4265 14.6523C28.4265 14.6523 28.4265 14.6523 28.4265 14.6523C28.4265 14.6523 28.4265 14.6523 28.4265 14.6523C28.4265 14.6523 28.4265 14.6523 28.4265 14.6523V14.6523C28.4265 14.6523 28.4265 14.6523 28.4265 14.6523V14.6523V14.6523C28.4265 14.6523 28.4265 14.6523 28.4265 14.6523C28.4265 14.6523 28.4265 14.6523 28.4265 14.6523C28.4265 14.6523 28.4265 14.6523 28.4265 14.6523V14.6523C30.3265 14.6523 32.2265 14.6523 32.2265 14.6523C32.2265 14.6523 32.2265 14.6523 32.2265 14.6523C32.2265 14.6523 32.2265 14.6523 32.2265 14.6523V14.6523C32.2265 14.6523 32.2265 14.6523 32.2265 14.6523C32.2265 14.6523 32.2265 14.6523 32.2265 14.6523C32.2265 14.6523 32.2265 14.6523 32.2265 14.6523C32.2265 14.6523 32.2265 14.6523 32.2265 14.6523C32.2265 14.6523 32.2265 14.6523 32.2265 14.6523C32.2265 14.6523 32.2265 14.6523 32.2265 14.6523V14.6523C32.2265 14.6523 32.2265 14.6523 32.2265 14.6523V14.6523C32.2265 14.6523 32.2265 14.6523 32.2265 14.6523C32.2265 14.6523 32.2265 14.6523 32.2265 14.6523C32.2265 14.6523 32.2265 14.6523 32.2265 14.6523C32.2265 14.6523 32.2265 14.6523 32.2265 14.6523C32.2265 14.6523 32.2265 14.6523 32.2265 14.6523C32.2265 14.6523 32.2265 14.6523 32.2265 14.6523C32.2265 14.6523 32.2265 14.6523 32.2265 14.6523C32.2265 14.6523 32.2265 14.6523 32.2265 14.6523C32.2265 14.6523 32.2265 14.6523 32.2265 14.6523V14.6523V14.6523C32.2265 14.6522 32.2265 14.6522 32.2265 14.6522C32.2265 14.6522 32.2265 14.6522 32.2265 14.6522V14.6522C32.2265 14.6522 32.2265 14.6522 32.2265 14.6522C32.2265 14.6522 32.2265 14.6522 32.2265 14.6522V14.6522C32.2265 14.6522 32.2265 14.6522 32.2265 14.6522C32.2265 14.6522 32.2265 14.6522 32.2265 14.6522V14.6522C32.2265 14.6522 32.2265 14.6522 32.2265 14.6522V14.6522C32.2265 14.6522 32.2265 14.6522 32.2265 14.6522V14.6522C32.2265 14.6522 32.2265 14.6522 32.2265 14.6522V14.6522C32.2265 14.6522 32.2265 14.6522 32.2265 14.6522V14.6522C32.2265 14.6522 32.2265 14.6522 32.2265 14.6522V14.6522C32.2265 14.6522 32.2265 14.6522 32.2265 14.6522C32.2265 14.6522 32.2265 14.6522 32.2265 14.6522V14.6522C32.2265 14.6522 32.2265 14.6522 32.2265 14.6522V14.6522C32.2265 14.6522 32.2265 14.6522 32.2265 14.6522C32.2265 14.6522 32.2265 14.6522 32.2265 14.6522V14.6522C32.2265 14.6522 32.2265 14.6522 32.2265 14.6522V14.6522C32.2265 14.6522 32.2265 14.6522 32.2265 14.6522C32.2265 14.6522 32.2265 14.6522 32.2265 14.6522V14.6522C32.2265 14.6522 32.2265 14.6522 32.2265 14.6522C32.2265 14.6522 32.2265 14.6522 32.2265 14.6522V14.6522C32.2265 14.6522 32.2265 14.6522 32.2265 14.6522C32.2265 14.6522 32.2265 14.6522 32.2265 14.6522V14.6522C32.2265 14.6522 32.2265 14.6522 32.2265 14.6522C32.2265 14.6522 32.2265 14.6522 32.2265 14.6522V14.6522C32.2265 14.6522 32.2265 14.6522 32.2265 14.6522C32.2265 14.6522 32.2265 14.6522 32.2265 14.6522C32.2265 14.6522 32.2265 14.6522 32.2265 14.6522V14.6522C32.2265 14.6522 32.2265 14.6522 32.2265 14.6522C32.2265 14.6522 32.2265 14.6522 32.2265 14.6522V14.6522C32.2265 14.6522 32.2265 14.6522 32.2265 14.6522C32.2265 14.6522 32.2265 14.6522 32.2265 14.6522V14.6522C32.2265 14.6522 32.2265 14.6522 32.2265 14.6522C32.2265 14.6522 32.2265 14.6522 32.2265 14.6522C32.2265 14.6522 32.2265 14.6522 32.2265 14.6522V14.6522C32.2265 14.6522 32.2265 14.6522 32.2265 14.6522C32.2265 14.6522 32.2265 14.6522 32.2265 14.6522V14.6522C32.2265 14.6522 32.2265 14.6522 32.2265 14.6522C32.2265 14.6522 32.2265 14.6522 32.2265 14.6522V14.6522V14.6522C32.2265 14.6522 32.2265 14.6522 32.2265 14.6522C32.2265 14.6522 32.2265 14.6522 32.2265 14.6522V14.6522C32.2265 14.6522 32.2265 14.6522 32.2265 14.6522C32.2265 14.6522 32.2265 14.6522 32.2265 14.6522V14.6522C32.2265 14.6522 32.2265 14.6522 32.2265 14.6522C32.2265 14.6522 32.2265 14.6522 32.2265 14.6522V14.6522C32.2265 14.6522 32.2265 14.6522 32.2265 14.6522C32.2265 14.6522 32.2265 14.6522 32.2265 14.6522V14.6522C32.2265 14.6522 32.2265 14.6522 32.2265 14.6522C32.2265 14.6522 32.2265 14.6522 32.2265 14.6522V14.6522C32.2265 14.6522 32.2265 14.6522 32.2265 14.6522C32.2265 14.6522 32.2265 14.6522 32.2265 14.6522V14.6522C32.2265 14.6522 32.2265 14.6522 32.2265 14.6522V14.6522C32.2265 14.6522 32.2265 14.6522 32.2265 14.6522C32.2265 14.6522 32.2265 14.6522 32.2265 14.6522V14.6522C32.2265 14.6522 32.2265 14.6522 32.2265 14.6522V14.6522C32.2265 14.6522 32.2265 14.6522 32.2265 14.6522C32.2265 14.6522 32.2265 14.6522 32.2265 14.6522C32.2265 14.6522 32.2265 14.6522 32.2265 14.6522C32.2265 14.6522 32.2265 14.6522 32.2265 14.6522V14.6522C32.2265 14.6522 32.2265 14.6522 32.2265 14.6522V14.6522C32.2265 14.6522 32.2265 14.6522 32.2265 14.6522V14.6522C32.2265 14.6522 32.2265 14.6522 32.2265 14.6522C32.2265 14.6522 32.2265 14.6522 32.2265 14.6522C32.2265 14.6522 32.2265 14.6522 32.2265 14.6522C32.2265 14.6522 32.2265 14.6522 32.2265 14.6522V14.6522C32.2265 14.6522 32.2265 14.6522 32.2265 14.6522C32.2265 14.6522 32.2265 14.6522 32.2265 14.6522V14.6522C32.2265 14.6522 32.2265 14.6522 32.2265 14.6522C32.2265 14.6522 32.2265 14.6522 32.2265 14.6521V14.6521C32.2265 14.6521 32.2265 14.6521 32.2265 14.6521C32.2265 14.6521 32.2265 14.6521 32.2265 14.6521C32.2265 14.6521 32.2265 14.6521 32.2265 14.6521C32.2265 14.6521 32.2265 14.6521 32.2265 14.6521C32.2265 14.6521 32.2265 14.6521 32.2265 14.6521C32.2265 14.6521 32.2265 14.6521 32.2265 14.6521C32.2265 14.6521 32.2265 14.6521 32.2265 14.6521C32.2265 14.6521 32.2265 14.6521 32.2265 14.6521C32.2265 14.6521 32.2265 14.6521 32.2265 14.6521C32.2265 14.6521 32.2265 14.6521 32.2265 14.6521C32.2265 14.6521 32.2265 14.6521 32.2265 14.6521V14.6521C32.2265 14.6521 32.2265 14.6521 32.2265 14.6521V14.6521C32.2265 14.6521 32.2265 14.6521 32.2265 14.6521C32.2265 14.6521 32.2265 14.6521 32.2265 14.6521C32.2265 14.6521 32.2265 14.6521 32.2265 14.6521C32.2265 14.6521 32.2265 14.6521 32.2265 14.6521C32.2265 14.6521 32.2265 14.6521 32.2265 14.6521C32.2265 14.6521 32.2265 14.6521 32.2265 14.6521C32.2265 14.6521 32.2265 14.6521 32.2265 14.6521C32.2265 14.6521 32.2265 14.6521 32.2265 14.6521C32.2265 14.6521 30.3265 14.6521 28.4265 14.6521C28.4265 14.6521 28.4265 14.6521 28.4265 14.6521C28.4265 14.6521 28.4265 14.6521 28.4265 14.6521V14.6521C28.4265 14.6521 28.4265 14.6521 28.4265 14.6521C28.4265 14.6521 28.4265 14.6521 28.4265 14.6521C28.4265 14.6521 28.4265 14.6521 28.4265 14.6521V14.6521C28.4265 14.6521 28.4265 14.6521 28.4265 14.6521C28.4265 14.6521 28.4265 14.6521 28.4265 14.6521C28.4265 14.6521 28.4265 14.6521 28.4265 14.6521C28.4265 14.6521 28.4265 14.6521 28.4265 14.6521C28.4265 14.6521 28.4265 14.6521 28.4265 14.6521C28.4265 14.6521 28.4265 14.6521 28.4265 14.6521V14.6521C28.4265 14.6521 28.4265 14.6521 28.4265 14.6521C28.4265 14.6521 28.4265 14.6521 28.4265 14.6521V14.6521C28.4265 14.6521 28.4265 14.6521 28.4265 14.6521V14.6521C28.4265 14.6521 28.4265 14.6521 28.4265 14.6521C28.4265 14.6521 28.4265 14.6521 28.4265 14.6521V14.6521C28.4265 14.6521 28.4265 14.6521 28.4265 14.6521C28.4265 14.6521 28.4265 14.6521 28.4265 14.6522C28.4265 14.6522 28.4265 14.6522 28.4265 14.6522V14.6522V14.6522C28.4265 14.6522 28.4265 14.6522 28.4265 14.6522C28.4265 14.6522 28.4265 14.6522 28.4265 14.6522C28.4265 14.6522 28.4265 14.6522 28.4265 14.6522C28.4265 14.6522 28.4265 14.6522 28.4265 14.6522C28.4265 14.6522 28.4265 14.6522 28.4265 14.6522C28.4265 14.6522 28.4265 14.6522 28.4265 14.6522C28.4265 14.6522 28.4265 14.6522 28.4265 14.6522C28.4265 14.6522 28.4265 14.6522 28.4265 14.6522C28.4265 14.6522 28.4265 14.6522 28.4265 14.6522C28.4265 14.6522 28.4265 14.6522 28.4265 14.6522C28.4265 14.6522 28.4265 14.6522 28.4265 14.6522C28.4265 14.6522 28.4265 14.6522 28.4265 14.6522C28.4265 14.6522 28.4265 14.6522 28.4265 14.6522C28.4265 14.6522 28.4265 14.6522 28.4265 14.6522C28.4265 14.6522 28.4265 14.6522 28.4265 14.6522C28.4265 14.6522 28.4265 14.6522 28.4265 14.6522C28.4265 14.6522 28.4265 14.6522 28.4265 14.6522V14.6522V14.6522C28.4265 14.6522 28.4265 14.6522 28.4265 14.6522C28.4265 14.6522 28.4265 14.6522 28.4265 14.6522C28.4265 14.6522 28.4265 14.6522 28.4265 14.6522V14.6522V14.6522C28.4265 14.6522 28.4265 14.6522 28.4265 14.6522C28.4265 14.6522 28.4265 14.6522 28.4265 14.6522V14.6522C28.4265 14.6522 28.4265 14.6522 28.4265 14.6522C28.4265 14.6522 28.4265 14.6522 28.4265 14.6522V14.6522C28.4265 14.6522 28.4265 14.6522 28.4265 14.6522C28.4265 14.6522 28.4265 14.6522 28.4265 14.6522V14.6522C28.4265 14.6522 28.4265 14.6522 28.4265 14.6522V14.6522C28.4265 14.6522 28.4265 14.6522 28.4265 14.6522V14.6522C28.4265 14.6522 28.4265 14.6522 28.4265 14.6522V14.6522C28.4265 14.6522 28.4265 14.6522 28.4265 14.6522H30.3265ZM30.3265 14.6522H32.2265C32.2265 14.6672 32.2263 14.6795 32.2261 14.6878C32.226 14.6963 32.2258 14.7036 32.2256 14.7087C32.2255 14.714 32.2253 14.7185 32.2252 14.7218C32.2251 14.7251 32.225 14.7279 32.2249 14.73C32.2247 14.7338 32.2246 14.7367 32.2246 14.7372C32.2245 14.7375 32.2245 14.7378 32.2245 14.7375C32.2246 14.7374 32.2246 14.7368 32.2246 14.7361C32.2247 14.7348 32.2248 14.732 32.2249 14.7285C32.2251 14.725 32.2253 14.7199 32.2255 14.7137C32.2257 14.7077 32.226 14.6992 32.2262 14.6892C32.2264 14.6795 32.2266 14.6654 32.2266 14.6486H30.3266H28.4266C28.4266 14.6319 28.4268 14.6182 28.427 14.6088C28.4272 14.5991 28.4275 14.591 28.4277 14.5853C28.4279 14.5795 28.428 14.5747 28.4282 14.5716C28.4283 14.5684 28.4284 14.566 28.4285 14.565C28.4285 14.5647 28.4285 14.5645 28.4285 14.5644C28.4285 14.5643 28.4285 14.5642 28.4285 14.5642C28.4285 14.5642 28.4285 14.5641 28.4285 14.5641C28.4285 14.564 28.4285 14.5645 28.4285 14.565C28.4284 14.5658 28.4283 14.569 28.4281 14.5731C28.428 14.5752 28.4279 14.5782 28.4278 14.5816C28.4277 14.5851 28.4275 14.5897 28.4273 14.5951C28.4272 14.6004 28.427 14.6077 28.4268 14.6164C28.4267 14.6248 28.4265 14.6372 28.4265 14.6522H30.3265ZM30.3266 14.6486H32.2266C32.2266 14.648 32.2266 14.6546 32.2265 14.6629C32.2264 14.6716 32.2263 14.6817 32.226 14.6929L30.3267 14.6386L28.4275 14.5844C28.4266 14.6165 28.4266 14.6416 28.4266 14.6486H30.3266ZM30.3267 14.6386L32.2265 14.6662C32.2266 14.6621 32.2266 14.6581 32.2267 14.6551C32.2267 14.6532 32.2268 14.6477 32.2268 14.6462C32.2269 14.6407 32.2269 14.6355 32.227 14.6301L30.3272 14.6008L28.4275 14.5716C28.4273 14.5825 28.4272 14.5919 28.4271 14.599C28.427 14.6039 28.427 14.6041 28.427 14.6076C28.427 14.6087 28.4269 14.6095 28.4269 14.6102C28.4269 14.6105 28.4269 14.6107 28.4269 14.6109C28.4269 14.6109 28.4269 14.611 28.4269 14.611C28.4269 14.6111 28.4269 14.6111 28.4269 14.6111C28.4269 14.6111 28.4269 14.6111 28.4269 14.6111L30.3267 14.6386ZM30.3272 14.6008L32.2271 14.6226C32.2275 14.5887 32.228 14.54 32.2286 14.4812L30.3287 14.4611L28.4288 14.4409C28.4282 14.5007 28.4277 14.5472 28.4274 14.5791L30.3272 14.6008ZM30.3287 14.4611L32.2286 14.4812C32.2299 14.3602 32.2315 14.1906 32.2324 13.9972L30.3324 13.9883L28.4324 13.9795C28.4315 14.1634 28.4301 14.3251 28.4288 14.4409L30.3287 14.4611ZM30.3324 13.9883L32.2323 13.9985C32.2344 13.6197 32.2345 13.1248 32.2261 12.7223L30.3265 12.7622L28.4269 12.8021C28.4343 13.1528 28.4344 13.607 28.4324 13.9782L30.3324 13.9883ZM28.4431 12.8023L26.5436 12.8424C26.5504 13.1669 26.5507 13.6004 26.5488 13.9689L28.4488 13.9786L30.3488 13.9882C30.3507 13.6131 30.3507 13.1387 30.3427 12.7621L28.4431 12.8023ZM28.4488 13.9786L26.5488 13.9682C26.5478 14.1489 26.5464 14.3079 26.5452 14.4232L28.4451 14.4417L30.345 14.4602C30.3462 14.3432 30.3477 14.1778 30.3488 13.9889L28.4488 13.9786ZM28.4451 14.4417L26.5452 14.4211C26.5446 14.4796 26.5441 14.5248 26.5438 14.5553L28.4436 14.5779L30.3435 14.6004C30.3439 14.5674 30.3444 14.5197 30.345 14.4623L28.4451 14.4417ZM28.4436 14.5779L26.5439 14.5479C26.5437 14.5585 26.5436 14.5675 26.5435 14.5743C26.5434 14.5781 26.5434 14.5798 26.5434 14.5823C26.5434 14.5844 26.5434 14.585 26.5434 14.5849L28.4431 14.6141L30.3429 14.6434C30.343 14.6392 30.343 14.6352 30.3431 14.6323C30.3431 14.6296 30.3431 14.6258 30.3432 14.6236C30.3432 14.6182 30.3433 14.6132 30.3434 14.6078L28.4436 14.5779ZM28.4431 14.6141H26.5431C26.5431 14.5974 26.5434 14.5845 26.5434 14.5815C26.5435 14.5813 26.5435 14.5804 26.5434 14.5817C26.5434 14.5823 26.5434 14.5845 26.5433 14.5872C26.5433 14.5899 26.5432 14.5944 26.5431 14.6C26.5431 14.6056 26.543 14.6137 26.543 14.6234H28.443H30.343C30.343 14.6327 30.3429 14.6403 30.3429 14.6452C30.3428 14.6503 30.3427 14.6542 30.3427 14.6563C30.3427 14.6574 30.3427 14.6583 30.3427 14.6588C30.3426 14.6594 30.3426 14.6597 30.3426 14.6598C30.3426 14.6603 30.3427 14.6587 30.3427 14.6577C30.3428 14.6516 30.3431 14.6351 30.3431 14.6141H28.4431ZM28.443 14.6234H26.543C26.543 14.6234 26.543 14.6234 26.543 14.6234C26.543 14.6234 26.543 14.6235 26.543 14.6235C26.543 14.6235 26.543 14.6235 26.543 14.6235C26.543 14.6235 26.543 14.6235 26.543 14.6235C26.543 14.6235 26.543 14.6235 26.543 14.6235C26.543 14.6235 26.543 14.6235 26.543 14.6235C26.543 14.6235 26.543 14.6235 26.543 14.6235C26.543 14.6235 26.543 14.6235 26.543 14.6235C26.543 14.6235 26.543 14.6235 26.543 14.6235C26.543 14.6235 26.543 14.6235 26.543 14.6235C26.543 14.6235 26.543 14.6235 26.543 14.6235C26.543 14.6235 26.543 14.6235 26.543 14.6235C26.543 14.6235 26.543 14.6235 26.543 14.6235C26.543 14.6235 26.543 14.6235 26.543 14.6235C26.543 14.6235 26.543 14.6235 26.543 14.6235C26.543 14.6235 26.543 14.6235 26.543 14.6235C26.543 14.6235 26.543 14.6235 26.543 14.6235C26.543 14.6235 26.543 14.6235 26.543 14.6235C26.543 14.6236 26.543 14.6236 26.543 14.6236C26.543 14.6236 26.543 14.6236 26.543 14.6236C26.543 14.6236 26.543 14.6236 26.543 14.6236C26.543 14.6236 26.543 14.6236 26.543 14.6236C26.543 14.6236 26.543 14.6236 26.543 14.6236C26.543 14.6236 26.543 14.6236 26.543 14.6236C26.543 14.6236 26.543 14.6236 26.543 14.6236C26.543 14.6236 26.543 14.6236 26.543 14.6236C26.543 14.6236 26.543 14.6236 26.543 14.6236C26.543 14.6236 26.543 14.6236 26.543 14.6236C26.543 14.6236 26.543 14.6236 26.543 14.6236C26.543 14.6236 26.543 14.6236 26.543 14.6236C26.543 14.6236 26.543 14.6236 26.543 14.6236C26.543 14.6236 26.543 14.6236 26.543 14.6236C26.543 14.6236 26.543 14.6236 26.543 14.6236C26.543 14.6236 26.543 14.6236 26.543 14.6236C26.543 14.6236 26.543 14.6237 26.543 14.6237C26.543 14.6237 26.543 14.6237 26.543 14.6237C26.543 14.6237 26.543 14.6237 26.543 14.6237C26.543 14.6237 26.543 14.6237 26.543 14.6237C26.543 14.6237 26.543 14.6237 26.543 14.6237C26.543 14.6237 26.543 14.6237 26.543 14.6237C26.543 14.6237 26.543 14.6237 26.543 14.6237C26.543 14.6237 26.543 14.6237 26.543 14.6237C26.543 14.6237 26.543 14.6237 26.543 14.6237C26.543 14.6237 26.543 14.6237 26.543 14.6237C26.543 14.6237 26.543 14.6237 26.543 14.6237C26.543 14.6237 26.543 14.6237 26.543 14.6237C26.543 14.6237 26.543 14.6237 26.543 14.6237C26.543 14.6237 26.543 14.6237 26.543 14.6237C26.543 14.6237 26.543 14.6237 26.543 14.6237C26.543 14.6237 26.543 14.6237 26.543 14.6237C26.543 14.6237 26.543 14.6237 26.543 14.6238C26.543 14.6238 26.543 14.6238 26.543 14.6238C26.543 14.6238 26.543 14.6238 26.543 14.6238C26.543 14.6238 26.543 14.6238 26.543 14.6238C26.543 14.6238 26.543 14.6238 26.543 14.6238C26.543 14.6238 26.543 14.6238 26.543 14.6238C26.543 14.6238 26.543 14.6238 26.543 14.6238C26.543 14.6238 26.543 14.6238 26.543 14.6238C26.543 14.6238 26.543 14.6238 26.543 14.6238C26.543 14.6238 26.543 14.6238 26.543 14.6238C26.543 14.6238 26.543 14.6238 26.543 14.6238C26.543 14.6238 26.543 14.6238 26.543 14.6238C26.543 14.6238 26.543 14.6238 26.543 14.6238C26.543 14.6238 26.543 14.6238 26.543 14.6238C26.543 14.6238 26.543 14.6238 26.543 14.6238C26.543 14.6238 26.543 14.6238 26.543 14.6238C26.543 14.6238 26.543 14.6239 26.543 14.6239C26.543 14.6239 26.543 14.6239 26.543 14.6239C26.543 14.6239 26.543 14.6239 26.543 14.6239C26.543 14.6239 26.543 14.6239 26.543 14.6239C26.543 14.6239 26.543 14.6239 26.543 14.6239C26.543 14.6239 26.543 14.6239 26.543 14.6239C26.543 14.6239 26.543 14.6239 26.543 14.6239C26.543 14.6239 26.543 14.6239 26.543 14.6239C26.543 14.6239 26.543 14.6239 26.543 14.6239C26.543 14.6239 26.543 14.6239 26.543 14.6239C26.543 14.6239 26.543 14.6239 26.543 14.6239C26.543 14.6239 26.543 14.6239 26.543 14.6239C26.543 14.6239 26.543 14.6239 26.543 14.6239C26.543 14.6239 26.543 14.6239 26.543 14.6239C26.543 14.6239 26.543 14.6239 26.543 14.6239C26.543 14.6239 26.543 14.6239 26.543 14.6239C26.543 14.624 26.543 14.624 26.543 14.624C26.543 14.624 26.543 14.624 26.543 14.624C26.543 14.624 26.543 14.624 26.543 14.624C26.543 14.624 26.543 14.624 26.543 14.624C26.543 14.624 26.543 14.624 26.543 14.624C26.543 14.624 26.543 14.624 26.543 14.624C26.543 14.624 26.543 14.624 26.543 14.624C26.543 14.624 26.543 14.624 26.543 14.624C26.543 14.624 26.543 14.624 26.543 14.624C26.543 14.624 26.543 14.624 26.543 14.624C26.543 14.624 26.543 14.624 26.543 14.624C26.543 14.624 26.543 14.624 26.543 14.624C26.543 14.624 26.543 14.624 26.543 14.624C26.543 14.624 26.543 14.624 26.543 14.624C26.543 14.624 26.543 14.624 26.543 14.624C26.543 14.624 26.543 14.624 26.543 14.6241C26.543 14.6241 26.543 14.6241 26.543 14.6241C26.543 14.6241 26.543 14.6241 26.543 14.6241C26.543 14.6241 26.543 14.6241 26.543 14.6241C26.543 14.6241 26.543 14.6241 26.543 14.6241C26.543 14.6241 26.543 14.6241 26.543 14.6241C26.543 14.6241 26.543 14.6241 26.543 14.6241C26.543 14.6241 26.543 14.6241 26.543 14.6241C26.543 14.6241 26.543 14.6241 26.543 14.6241C26.543 14.6241 26.543 14.6241 26.543 14.6241C26.543 14.6241 26.543 14.6241 26.543 14.6241C26.543 14.6241 26.543 14.6241 26.543 14.6241C26.543 14.6241 26.543 14.6241 26.543 14.6241C26.543 14.6241 26.543 14.6241 26.543 14.6241C26.543 14.6241 26.543 14.6241 26.543 14.6241C26.543 14.6241 26.543 14.6241 26.543 14.6241C26.543 14.6242 26.543 14.6242 26.543 14.6242C26.543 14.6242 26.543 14.6242 26.543 14.6242C26.543 14.6242 26.543 14.6242 26.543 14.6242C26.543 14.6242 26.543 14.6242 26.543 14.6242C26.543 14.6242 26.543 14.6242 26.543 14.6242C26.543 14.6242 26.543 14.6242 26.543 14.6242C26.543 14.6242 26.543 14.6242 26.543 14.6242C26.543 14.6242 26.543 14.6242 26.543 14.6242C26.543 14.6242 26.543 14.6242 26.543 14.6242C26.543 14.6242 26.543 14.6242 26.543 14.6242C26.543 14.6242 26.543 14.6242 26.543 14.6242C26.543 14.6242 26.543 14.6242 26.543 14.6242C26.543 14.6242 26.543 14.6242 26.543 14.6242C26.543 14.6242 26.543 14.6242 26.543 14.6242C26.543 14.6242 26.543 14.6242 26.543 14.6242C26.543 14.6242 26.543 14.6243 26.543 14.6243C26.543 14.6243 26.543 14.6243 26.543 14.6243C26.543 14.6243 26.543 14.6243 26.543 14.6243C26.543 14.6243 26.543 14.6243 26.543 14.6243C26.543 14.6243 26.543 14.6243 26.543 14.6243C26.543 14.6243 26.543 14.6243 26.543 14.6243C26.543 14.6243 26.543 14.6243 26.543 14.6243C26.543 14.6243 26.543 14.6243 26.543 14.6243C26.543 14.6243 26.543 14.6243 26.543 14.6243C26.543 14.6243 26.543 14.6243 26.543 14.6243C26.543 14.6243 26.543 14.6243 26.543 14.6243C26.543 14.6243 26.543 14.6243 26.543 14.6243C26.543 14.6243 26.543 14.6243 26.543 14.6243C26.543 14.6243 26.543 14.6243 26.543 14.6243C26.543 14.6243 26.543 14.6243 26.543 14.6243C26.543 14.6243 26.543 14.6243 26.543 14.6244C26.543 14.6244 26.543 14.6244 26.543 14.6244C26.543 14.6244 26.543 14.6244 26.543 14.6244C26.543 14.6244 26.543 14.6244 26.543 14.6244C26.543 14.6244 26.543 14.6244 26.543 14.6244C26.543 14.6244 26.543 14.6244 26.543 14.6244C26.543 14.6244 26.543 14.6244 26.543 14.6244C26.543 14.6244 26.543 14.6244 26.543 14.6244C26.543 14.6244 26.543 14.6244 26.543 14.6244C26.543 14.6244 26.543 14.6244 26.543 14.6244C26.543 14.6244 26.543 14.6244 26.543 14.6244C26.543 14.6244 26.543 14.6244 26.543 14.6244C26.543 14.6244 26.543 14.6244 26.543 14.6244C26.543 14.6244 26.543 14.6244 26.543 14.6244C26.543 14.6244 26.543 14.6244 26.543 14.6244C26.543 14.6244 26.543 14.6244 26.543 14.6244C26.543 14.6245 26.543 14.6245 26.543 14.6245C26.543 14.6245 26.543 14.6245 26.543 14.6245C26.543 14.6245 26.543 14.6245 26.543 14.6245C26.543 14.6245 26.543 14.6245 26.543 14.6245C26.543 14.6245 26.543 14.6245 26.543 14.6245C26.543 14.6245 26.543 14.6245 26.543 14.6245C26.543 14.6245 26.543 14.6245 26.543 14.6245C26.543 14.6245 26.543 14.6245 26.543 14.6245C26.543 14.6245 26.543 14.6245 26.543 14.6245C26.543 14.6245 26.543 14.6245 26.543 14.6245C26.543 14.6245 26.543 14.6245 26.543 14.6245C26.543 14.6245 26.543 14.6245 26.543 14.6245C26.543 14.6245 26.543 14.6245 26.543 14.6245C26.543 14.6245 26.543 14.6245 26.543 14.6245C26.543 14.6245 26.543 14.6245 26.543 14.6245C26.543 14.6245 26.543 14.6246 26.543 14.6246C26.543 14.6246 26.543 14.6246 26.543 14.6246C26.543 14.6246 26.543 14.6246 26.543 14.6246C26.543 14.6246 26.543 14.6246 26.543 14.6246C26.543 14.6246 26.543 14.6246 26.543 14.6246C26.543 14.6246 26.543 14.6246 26.543 14.6246C26.543 14.6246 26.543 14.6246 26.543 14.6246C26.543 14.6246 26.543 14.6246 26.543 14.6246C26.543 14.6246 26.543 14.6246 26.543 14.6246C26.543 14.6246 26.543 14.6246 26.543 14.6246C26.543 14.6246 26.543 14.6246 26.543 14.6246C26.543 14.6246 26.543 14.6246 26.543 14.6246C26.543 14.6246 26.543 14.6246 26.543 14.6246C26.543 14.6246 26.543 14.6246 26.543 14.6246C26.543 14.6246 26.543 14.6246 26.543 14.6246C26.543 14.6246 26.543 14.6247 26.543 14.6247C26.543 14.6247 26.543 14.6247 26.543 14.6247C26.543 14.6247 26.543 14.6247 26.543 14.6247C26.543 14.6247 26.543 14.6247 26.543 14.6247C26.543 14.6247 26.543 14.6247 26.543 14.6247C26.543 14.6247 26.543 14.6247 26.543 14.6247C26.543 14.6247 26.543 14.6247 26.543 14.6247C26.543 14.6247 26.543 14.6247 26.543 14.6247C26.543 14.6247 26.543 14.6247 26.543 14.6247C26.543 14.6247 26.543 14.6247 26.543 14.6247C26.543 14.6247 26.543 14.6247 26.543 14.6247C26.543 14.6247 26.543 14.6247 26.543 14.6247C26.543 14.6247 26.543 14.6247 26.543 14.6247C26.543 14.6247 26.543 14.6247 26.543 14.6247C26.543 14.6247 26.543 14.6247 26.543 14.6247C26.543 14.6247 26.543 14.6247 26.543 14.6247C26.543 14.6248 26.543 14.6248 26.543 14.6248C26.543 14.6248 26.543 14.6248 26.543 14.6248C26.543 14.6248 26.543 14.6248 26.543 14.6248C26.543 14.6248 26.543 14.6248 26.543 14.6248C26.543 14.6248 26.543 14.6248 26.543 14.6248C26.543 14.6248 26.543 14.6248 26.543 14.6248C26.543 14.6248 26.543 14.6248 26.543 14.6248C26.543 14.6248 26.543 14.6248 26.543 14.6248C26.543 14.6248 26.543 14.6248 26.543 14.6248C26.543 14.6248 26.543 14.6248 26.543 14.6248C26.543 14.6248 26.543 14.6248 26.543 14.6248C26.543 14.6248 26.543 14.6248 26.543 14.6248C26.543 14.6248 26.543 14.6248 26.543 14.6248C26.543 14.6248 26.543 14.6248 26.543 14.6248C26.543 14.6248 26.543 14.6248 26.543 14.6248C26.543 14.6248 26.543 14.6249 26.543 14.6249C26.543 14.6249 26.543 14.6249 26.543 14.6249C26.543 14.6249 26.543 14.6249 26.543 14.6249C26.543 14.6249 26.543 14.6249 26.543 14.6249C26.543 14.6249 26.543 14.6249 26.543 14.6249C26.543 14.6249 26.543 14.6249 26.543 14.6249C26.543 14.6249 26.543 14.6249 26.543 14.6249C26.543 14.6249 26.543 14.6249 26.543 14.6249C26.543 14.6249 26.543 14.6249 26.543 14.6249C26.543 14.6249 26.543 14.6249 26.543 14.6249C26.543 14.6249 26.543 14.6249 26.543 14.6249C26.543 14.6249 26.543 14.6249 26.543 14.6249C26.543 14.6249 26.543 14.6249 26.543 14.6249C26.543 14.6249 26.543 14.6249 26.543 14.6249C26.543 14.6249 26.543 14.6249 26.543 14.6249C26.543 14.6249 26.543 14.6249 26.543 14.6249C26.543 14.625 26.543 14.625 26.543 14.625C26.543 14.625 26.543 14.625 26.543 14.625C26.543 14.625 26.543 14.625 26.543 14.625C26.543 14.625 26.543 14.625 26.543 14.625C26.543 14.625 26.543 14.625 26.543 14.625C26.543 14.625 26.543 14.625 26.543 14.625C26.543 14.625 26.543 14.625 26.543 14.625C26.543 14.625 26.543 14.625 26.543 14.625C26.543 14.625 26.543 14.625 26.543 14.625C26.543 14.625 26.543 14.625 26.543 14.625C26.543 14.625 26.543 14.625 26.543 14.625C26.543 14.625 26.543 14.625 26.543 14.625C26.543 14.625 26.543 14.625 26.543 14.625C26.543 14.625 26.543 14.625 26.543 14.625C26.543 14.625 26.543 14.625 26.543 14.625C26.543 14.625 26.543 14.625 26.543 14.625C26.543 14.6251 26.543 14.6251 26.543 14.6251C26.543 14.6251 26.543 14.6251 26.543 14.6251C26.543 14.6251 26.543 14.6251 26.543 14.6251C26.543 14.6251 26.543 14.6251 26.543 14.6251C26.543 14.6251 26.543 14.6251 26.543 14.6251C26.543 14.6251 26.543 14.6251 26.543 14.6251C26.543 14.6251 26.543 14.6251 26.543 14.6251C26.543 14.6251 26.543 14.6251 26.543 14.6251C26.543 14.6251 26.543 14.6251 26.543 14.6251C26.543 14.6251 26.543 14.6251 26.543 14.6251C26.543 14.6251 26.543 14.6251 26.543 14.6251C26.543 14.6251 26.543 14.6251 26.543 14.6251C26.543 14.6251 26.543 14.6251 26.543 14.6251C26.543 14.6251 26.543 14.6251 26.543 14.6251C26.543 14.6251 26.543 14.6251 26.543 14.6251C26.543 14.6251 26.543 14.6251 26.543 14.6251C26.543 14.6252 26.543 14.6252 26.543 14.6252C26.543 14.6252 26.543 14.6252 26.543 14.6252C26.543 14.6252 26.543 14.6252 26.543 14.6252C26.543 14.6252 26.543 14.6252 26.543 14.6252C26.543 14.6252 26.543 14.6252 26.543 14.6252C26.543 14.6252 26.543 14.6252 26.543 14.6252C26.543 14.6252 26.543 14.6252 26.543 14.6252C26.543 14.6252 26.543 14.6252 26.543 14.6252C26.543 14.6252 26.543 14.6252 26.543 14.6252C26.543 14.6252 26.543 14.6252 26.543 14.6252C26.543 14.6252 26.543 14.6252 26.543 14.6252C26.543 14.6252 26.543 14.6252 26.543 14.6252C26.543 14.6252 26.543 14.6252 26.543 14.6252C26.543 14.6252 26.543 14.6252 26.543 14.6252C26.543 14.6252 26.543 14.6252 26.543 14.6252C26.543 14.6252 26.543 14.6252 26.543 14.6252C26.543 14.6252 26.543 14.6253 26.543 14.6253C26.543 14.6253 26.543 14.6253 26.543 14.6253C26.543 14.6253 26.543 14.6253 26.543 14.6253C26.543 14.6253 26.543 14.6253 26.543 14.6253C26.543 14.6253 26.543 14.6253 26.543 14.6253C26.543 14.6253 26.543 14.6253 26.543 14.6253C26.543 14.6253 26.543 14.6253 26.543 14.6253C26.543 14.6253 26.543 14.6253 26.543 14.6253C26.543 14.6253 26.543 14.6253 26.543 14.6253C26.543 14.6253 26.543 14.6253 26.543 14.6253C26.543 14.6253 26.543 14.6253 26.543 14.6253C26.543 14.6253 26.543 14.6253 26.543 14.6253C26.543 14.6253 26.543 14.6253 26.543 14.6253C26.543 14.6253 26.543 14.6253 26.543 14.6253C26.543 14.6253 26.543 14.6253 26.543 14.6253C26.543 14.6253 26.543 14.6253 26.543 14.6253C26.543 14.6253 26.543 14.6253 26.543 14.6253C26.543 14.6254 26.543 14.6254 26.543 14.6254C26.543 14.6254 26.543 14.6254 26.543 14.6254C26.543 14.6254 26.543 14.6254 26.543 14.6254C26.543 14.6254 26.543 14.6254 26.543 14.6254C26.543 14.6254 26.543 14.6254 26.543 14.6254C26.543 14.6254 26.543 14.6254 26.543 14.6254C26.543 14.6254 26.543 14.6254 26.543 14.6254C26.543 14.6254 26.543 14.6254 26.543 14.6254C26.543 14.6254 26.543 14.6254 26.543 14.6254C26.543 14.6254 26.543 14.6254 26.543 14.6254C26.543 14.6254 26.543 14.6254 26.543 14.6254C26.543 14.6254 26.543 14.6254 26.543 14.6254C26.543 14.6254 26.543 14.6254 26.543 14.6254C26.543 14.6254 26.543 14.6254 26.543 14.6254C26.543 14.6254 26.543 14.6254 26.543 14.6254C26.543 14.6254 26.543 14.6254 26.543 14.6254C26.543 14.6254 26.543 14.6254 26.543 14.6254C26.543 14.6255 26.543 14.6255 26.543 14.6255C26.543 14.6255 26.543 14.6255 26.543 14.6255C26.543 14.6255 26.543 14.6255 26.543 14.6255C26.543 14.6255 26.543 14.6255 26.543 14.6255C26.543 14.6255 26.543 14.6255 26.543 14.6255C26.543 14.6255 26.543 14.6255 26.543 14.6255C26.543 14.6255 26.543 14.6255 26.543 14.6255C26.543 14.6255 26.543 14.6255 26.543 14.6255C26.543 14.6255 26.543 14.6255 26.543 14.6255C26.543 14.6255 26.543 14.6255 26.543 14.6255C26.543 14.6255 26.543 14.6255 26.543 14.6255C26.543 14.6255 26.543 14.6255 26.543 14.6255C26.543 14.6255 26.543 14.6255 26.543 14.6255C26.543 14.6255 26.543 14.6255 26.543 14.6255C26.543 14.6255 26.543 14.6255 26.543 14.6255C26.543 14.6255 26.543 14.6255 26.543 14.6255C26.543 14.6255 26.543 14.6255 26.543 14.6255C26.543 14.6255 26.543 14.6256 26.543 14.6256C26.543 14.6256 26.543 14.6256 26.543 14.6256C26.543 14.6256 26.543 14.6256 26.543 14.6256C26.543 14.6256 26.543 14.6256 26.543 14.6256C26.543 14.6256 26.543 14.6256 26.543 14.6256C26.543 14.6256 26.543 14.6256 26.543 14.6256C26.543 14.6256 26.543 14.6256 26.543 14.6256C26.543 14.6256 26.543 14.6256 26.543 14.6256C26.543 14.6256 26.543 14.6256 26.543 14.6256C26.543 14.6256 26.543 14.6256 26.543 14.6256C26.543 14.6256 26.543 14.6256 26.543 14.6256C26.543 14.6256 26.543 14.6256 26.543 14.6256C26.543 14.6256 26.543 14.6256 26.543 14.6256C26.543 14.6256 26.543 14.6256 26.543 14.6256C26.543 14.6256 26.543 14.6256 26.543 14.6256C26.543 14.6256 26.543 14.6256 26.543 14.6256C26.543 14.6256 26.543 14.6256 26.543 14.6256C26.543 14.6256 26.543 14.6256 26.543 14.6256C26.543 14.6256 26.543 14.6256 26.543 14.6257C26.543 14.6257 26.543 14.6257 26.543 14.6257C26.543 14.6257 26.543 14.6257 26.543 14.6257C26.543 14.6257 26.543 14.6257 26.543 14.6257C26.543 14.6257 26.543 14.6257 26.543 14.6257C26.543 14.6257 26.543 14.6257 26.543 14.6257C26.543 14.6257 26.543 14.6257 26.543 14.6257C26.543 14.6257 26.543 14.6257 26.543 14.6257C26.543 14.6257 26.543 14.6257 26.543 14.6257C26.543 14.6257 26.543 14.6257 26.543 14.6257C26.543 14.6257 26.543 14.6257 26.543 14.6257C26.543 14.6257 26.543 14.6257 26.543 14.6257C26.543 14.6257 26.543 14.6257 26.543 14.6257C26.543 14.6257 26.543 14.6257 26.543 14.6257C26.543 14.6257 26.543 14.6257 26.543 14.6257C26.543 14.6257 26.543 14.6257 26.543 14.6257C26.543 14.6257 26.543 14.6257 26.543 14.6257C26.543 14.6257 26.543 14.6257 26.543 14.6257C26.543 14.6257 26.543 14.6257 26.543 14.6257C26.543 14.6257 26.543 14.6258 26.543 14.6258C26.543 14.6258 26.543 14.6258 26.543 14.6258C26.543 14.6258 26.543 14.6258 26.543 14.6258C26.543 14.6258 26.543 14.6258 26.543 14.6258C26.543 14.6258 26.543 14.6258 26.543 14.6258C26.543 14.6258 26.543 14.6258 26.543 14.6258C26.543 14.6258 26.543 14.6258 26.543 14.6258C26.543 14.6258 26.543 14.6258 26.543 14.6258C26.543 14.6258 26.543 14.6258 26.543 14.6258C26.543 14.6258 26.543 14.6258 26.543 14.6258C26.543 14.6258 26.543 14.6258 26.543 14.6258C26.543 14.6258 26.543 14.6258 26.543 14.6258C26.543 14.6258 26.543 14.6258 26.543 14.6258C26.543 14.6258 26.543 14.6258 26.543 14.6258C26.543 14.6258 26.543 14.6258 26.543 14.6258C26.543 14.6258 26.543 14.6258 26.543 14.6258C26.543 14.6258 26.543 14.6258 26.543 14.6258C26.543 14.6258 26.543 14.6258 26.543 14.6258C26.543 14.6258 26.543 14.6258 26.543 14.6258C26.543 14.6258 26.543 14.6258 26.543 14.6258C26.543 14.6259 26.543 14.6259 26.543 14.6259C26.543 14.6259 26.543 14.6259 26.543 14.6259C26.543 14.6259 26.543 14.6259 26.543 14.6259C26.543 14.6259 26.543 14.6259 26.543 14.6259C26.543 14.6259 26.543 14.6259 26.543 14.6259C26.543 14.6259 26.543 14.6259 26.543 14.6259C26.543 14.6259 26.543 14.6259 26.543 14.6259C26.543 14.6259 26.543 14.6259 26.543 14.6259C26.543 14.6259 26.543 14.6259 26.543 14.6259C26.543 14.6259 26.543 14.6259 26.543 14.6259C26.543 14.6259 26.543 14.6259 26.543 14.6259C26.543 14.6259 26.543 14.6259 26.543 14.6259C26.543 14.6259 26.543 14.6259 26.543 14.6259C26.543 14.6259 26.543 14.6259 26.543 14.6259C26.543 14.6259 26.543 14.6259 26.543 14.6259C26.543 14.6259 26.543 14.6259 26.543 14.6259C26.543 14.6259 26.543 14.6259 26.543 14.6259C26.543 14.6259 26.543 14.6259 26.543 14.6259C26.543 14.6259 26.543 14.6259 26.543 14.6259C26.543 14.6259 26.543 14.6259 26.543 14.6259C26.543 14.6259 26.543 14.6259 26.543 14.6259C26.543 14.626 26.543 14.626 26.543 14.626C26.543 14.626 26.543 14.626 26.543 14.626C26.543 14.626 26.543 14.626 26.543 14.626C26.543 14.626 26.543 14.626 26.543 14.626C26.543 14.626 26.543 14.626 26.543 14.626C26.543 14.626 26.543 14.626 26.543 14.626C26.543 14.626 26.543 14.626 26.543 14.626C26.543 14.626 26.543 14.626 26.543 14.626C26.543 14.626 26.543 14.626 26.543 14.626C26.543 14.626 26.543 14.626 26.543 14.626C26.543 14.626 26.543 14.626 26.543 14.626C26.543 14.626 26.543 14.626 26.543 14.626C26.543 14.626 26.543 14.626 26.543 14.626C26.543 14.626 26.543 14.626 26.543 14.626C26.543 14.626 26.543 14.626 26.543 14.626C26.543 14.626 26.543 14.626 26.543 14.626C26.543 14.626 26.543 14.626 26.543 14.626C26.543 14.626 26.543 14.626 26.543 14.626C26.543 14.626 26.543 14.626 26.543 14.626C26.543 14.626 26.543 14.626 26.543 14.626C26.543 14.626 26.543 14.626 26.543 14.626C26.543 14.626 26.543 14.626 26.543 14.626C26.543 14.626 26.543 14.6261 26.543 14.6261C26.543 14.6261 26.543 14.6261 26.543 14.6261C26.543 14.6261 26.543 14.6261 26.543 14.6261C26.543 14.6261 26.543 14.6261 26.543 14.6261C26.543 14.6261 26.543 14.6261 26.543 14.6261C26.543 14.6261 26.543 14.6261 26.543 14.6261C26.543 14.6261 26.543 14.6261 26.543 14.6261C26.543 14.6261 26.543 14.6261 26.543 14.6261C26.543 14.6261 26.543 14.6261 26.543 14.6261C26.543 14.6261 26.543 14.6261 26.543 14.6261C26.543 14.6261 26.543 14.6261 26.543 14.6261C26.543 14.6261 26.543 14.6261 26.543 14.6261C26.543 14.6261 26.543 14.6261 26.543 14.6261C26.543 14.6261 26.543 14.6261 26.543 14.6261C26.543 14.6261 26.543 14.6261 26.543 14.6261C26.543 14.6261 26.543 14.6261 26.543 14.6261C26.543 14.6261 26.543 14.6261 26.543 14.6261C26.543 14.6261 26.543 14.6261 26.543 14.6261C26.543 14.6261 26.543 14.6261 26.543 14.6261C26.543 14.6261 26.543 14.6261 26.543 14.6261C26.543 14.6261 26.543 14.6261 26.543 14.6261C26.543 14.6261 26.543 14.6261 26.543 14.6261C26.543 14.6261 26.543 14.6261 26.543 14.6261C26.543 14.6261 26.543 14.6261 26.543 14.6261C26.543 14.6261 26.543 14.6262 26.543 14.6262C26.543 14.6262 26.543 14.6262 26.543 14.6262C26.543 14.6262 26.543 14.6262 26.543 14.6262C26.543 14.6262 26.543 14.6262 26.543 14.6262C26.543 14.6262 26.543 14.6262 26.543 14.6262C26.543 14.6262 26.543 14.6262 26.543 14.6262C26.543 14.6262 26.543 14.6262 26.543 14.6262C26.543 14.6262 26.543 14.6262 26.543 14.6262C26.543 14.6262 26.543 14.6262 26.543 14.6262C26.543 14.6262 26.543 14.6262 26.543 14.6262C26.543 14.6262 26.543 14.6262 26.543 14.6262C26.543 14.6262 26.543 14.6262 26.543 14.6262C26.543 14.6262 26.543 14.6262 26.543 14.6262C26.543 14.6262 26.543 14.6262 26.543 14.6262C26.543 14.6262 26.543 14.6262 26.543 14.6262C26.543 14.6262 26.543 14.6262 26.543 14.6262C26.543 14.6262 26.543 14.6262 26.543 14.6262C26.543 14.6262 26.543 14.6262 26.543 14.6262C26.543 14.6262 26.543 14.6262 26.543 14.6262C26.543 14.6262 26.543 14.6262 26.543 14.6262C26.543 14.6262 26.543 14.6262 26.543 14.6262C26.543 14.6262 26.543 14.6262 26.543 14.6262C26.543 14.6262 26.543 14.6262 26.543 14.6262C26.543 14.6262 26.543 14.6262 26.543 14.6262C26.543 14.6262 26.543 14.6262 26.543 14.6262C26.543 14.6262 26.543 14.6262 26.543 14.6262C26.543 14.6262 26.543 14.6262 26.543 14.6262C26.543 14.6262 26.543 14.6262 26.543 14.6263C26.543 14.6263 26.543 14.6263 26.543 14.6263C26.543 14.6263 26.543 14.6263 26.543 14.6263C26.543 14.6263 26.543 14.6263 26.543 14.6263C26.543 14.6263 26.543 14.6263 26.543 14.6263C26.543 14.6263 26.543 14.6263 26.543 14.6263C26.543 14.6263 26.543 14.6263 26.543 14.6263C26.543 14.6263 26.543 14.6263 26.543 14.6263C26.543 14.6263 26.543 14.6263 26.543 14.6263C26.543 14.6263 26.543 14.6263 26.543 14.6263C26.543 14.6263 26.543 14.6263 26.543 14.6263C26.543 14.6263 26.543 14.6263 26.543 14.6263C26.543 14.6263 26.543 14.6263 26.543 14.6263C26.543 14.6263 26.543 14.6263 26.543 14.6263C26.543 14.6263 26.543 14.6263 26.543 14.6263C26.543 14.6263 26.543 14.6263 26.543 14.6263C26.543 14.6263 26.543 14.6263 26.543 14.6263C26.543 14.6263 26.543 14.6263 26.543 14.6263C26.543 14.6263 26.543 14.6263 26.543 14.6263C26.543 14.6263 26.543 14.6263 26.543 14.6263C26.543 14.6263 26.543 14.6263 26.543 14.6263C26.543 14.6263 26.543 14.6263 26.543 14.6263C26.543 14.6263 26.543 14.6263 26.543 14.6263C26.543 14.6263 26.543 14.6263 26.543 14.6263C26.543 14.6263 26.543 14.6263 26.543 14.6263C26.543 14.6263 26.543 14.6263 26.543 14.6263H28.443H30.343C30.343 14.6263 30.343 14.6263 30.343 14.6263C30.343 14.6263 30.343 14.6263 30.343 14.6263C30.343 14.6263 30.343 14.6263 30.343 14.6263C30.343 14.6263 30.343 14.6263 30.343 14.6263C30.343 14.6263 30.343 14.6263 30.343 14.6263C30.343 14.6263 30.343 14.6263 30.343 14.6263C30.343 14.6263 30.343 14.6263 30.343 14.6263C30.343 14.6263 30.343 14.6263 30.343 14.6263C30.343 14.6263 30.343 14.6263 30.343 14.6263C30.343 14.6263 30.343 14.6263 30.343 14.6263C30.343 14.6263 30.343 14.6263 30.343 14.6263C30.343 14.6263 30.343 14.6263 30.343 14.6263C30.343 14.6263 30.343 14.6263 30.343 14.6263C30.343 14.6263 30.343 14.6263 30.343 14.6263C30.343 14.6263 30.343 14.6263 30.343 14.6263C30.343 14.6263 30.343 14.6263 30.343 14.6263C30.343 14.6263 30.343 14.6263 30.343 14.6263C30.343 14.6263 30.343 14.6263 30.343 14.6263C30.343 14.6263 30.343 14.6263 30.343 14.6263C30.343 14.6263 30.343 14.6263 30.343 14.6263C30.343 14.6263 30.343 14.6263 30.343 14.6263C30.343 14.6263 30.343 14.6263 30.343 14.6263C30.343 14.6263 30.343 14.6263 30.343 14.6263C30.343 14.6263 30.343 14.6263 30.343 14.6263C30.343 14.6263 30.343 14.6263 30.343 14.6263C30.343 14.6262 30.343 14.6262 30.343 14.6262C30.343 14.6262 30.343 14.6262 30.343 14.6262C30.343 14.6262 30.343 14.6262 30.343 14.6262C30.343 14.6262 30.343 14.6262 30.343 14.6262C30.343 14.6262 30.343 14.6262 30.343 14.6262C30.343 14.6262 30.343 14.6262 30.343 14.6262C30.343 14.6262 30.343 14.6262 30.343 14.6262C30.343 14.6262 30.343 14.6262 30.343 14.6262C30.343 14.6262 30.343 14.6262 30.343 14.6262C30.343 14.6262 30.343 14.6262 30.343 14.6262C30.343 14.6262 30.343 14.6262 30.343 14.6262C30.343 14.6262 30.343 14.6262 30.343 14.6262C30.343 14.6262 30.343 14.6262 30.343 14.6262C30.343 14.6262 30.343 14.6262 30.343 14.6262C30.343 14.6262 30.343 14.6262 30.343 14.6262C30.343 14.6262 30.343 14.6262 30.343 14.6262C30.343 14.6262 30.343 14.6262 30.343 14.6262C30.343 14.6262 30.343 14.6262 30.343 14.6262C30.343 14.6262 30.343 14.6262 30.343 14.6262C30.343 14.6262 30.343 14.6262 30.343 14.6262C30.343 14.6262 30.343 14.6262 30.343 14.6262C30.343 14.6262 30.343 14.6262 30.343 14.6262C30.343 14.6262 30.343 14.6262 30.343 14.6262C30.343 14.6262 30.343 14.6262 30.343 14.6262C30.343 14.6262 30.343 14.6262 30.343 14.6262C30.343 14.6262 30.343 14.6262 30.343 14.6262C30.343 14.6262 30.343 14.6262 30.343 14.6262C30.343 14.6262 30.343 14.6261 30.343 14.6261C30.343 14.6261 30.343 14.6261 30.343 14.6261C30.343 14.6261 30.343 14.6261 30.343 14.6261C30.343 14.6261 30.343 14.6261 30.343 14.6261C30.343 14.6261 30.343 14.6261 30.343 14.6261C30.343 14.6261 30.343 14.6261 30.343 14.6261C30.343 14.6261 30.343 14.6261 30.343 14.6261C30.343 14.6261 30.343 14.6261 30.343 14.6261C30.343 14.6261 30.343 14.6261 30.343 14.6261C30.343 14.6261 30.343 14.6261 30.343 14.6261C30.343 14.6261 30.343 14.6261 30.343 14.6261C30.343 14.6261 30.343 14.6261 30.343 14.6261C30.343 14.6261 30.343 14.6261 30.343 14.6261C30.343 14.6261 30.343 14.6261 30.343 14.6261C30.343 14.6261 30.343 14.6261 30.343 14.6261C30.343 14.6261 30.343 14.6261 30.343 14.6261C30.343 14.6261 30.343 14.6261 30.343 14.6261C30.343 14.6261 30.343 14.6261 30.343 14.6261C30.343 14.6261 30.343 14.6261 30.343 14.6261C30.343 14.6261 30.343 14.6261 30.343 14.6261C30.343 14.6261 30.343 14.6261 30.343 14.6261C30.343 14.6261 30.343 14.6261 30.343 14.6261C30.343 14.6261 30.343 14.6261 30.343 14.6261C30.343 14.6261 30.343 14.6261 30.343 14.6261C30.343 14.6261 30.343 14.626 30.343 14.626C30.343 14.626 30.343 14.626 30.343 14.626C30.343 14.626 30.343 14.626 30.343 14.626C30.343 14.626 30.343 14.626 30.343 14.626C30.343 14.626 30.343 14.626 30.343 14.626C30.343 14.626 30.343 14.626 30.343 14.626C30.343 14.626 30.343 14.626 30.343 14.626C30.343 14.626 30.343 14.626 30.343 14.626C30.343 14.626 30.343 14.626 30.343 14.626C30.343 14.626 30.343 14.626 30.343 14.626C30.343 14.626 30.343 14.626 30.343 14.626C30.343 14.626 30.343 14.626 30.343 14.626C30.343 14.626 30.343 14.626 30.343 14.626C30.343 14.626 30.343 14.626 30.343 14.626C30.343 14.626 30.343 14.626 30.343 14.626C30.343 14.626 30.343 14.626 30.343 14.626C30.343 14.626 30.343 14.626 30.343 14.626C30.343 14.626 30.343 14.626 30.343 14.626C30.343 14.626 30.343 14.626 30.343 14.626C30.343 14.626 30.343 14.626 30.343 14.626C30.343 14.626 30.343 14.626 30.343 14.626C30.343 14.626 30.343 14.626 30.343 14.626C30.343 14.626 30.343 14.626 30.343 14.6259C30.343 14.6259 30.343 14.6259 30.343 14.6259C30.343 14.6259 30.343 14.6259 30.343 14.6259C30.343 14.6259 30.343 14.6259 30.343 14.6259C30.343 14.6259 30.343 14.6259 30.343 14.6259C30.343 14.6259 30.343 14.6259 30.343 14.6259C30.343 14.6259 30.343 14.6259 30.343 14.6259C30.343 14.6259 30.343 14.6259 30.343 14.6259C30.343 14.6259 30.343 14.6259 30.343 14.6259C30.343 14.6259 30.343 14.6259 30.343 14.6259C30.343 14.6259 30.343 14.6259 30.343 14.6259C30.343 14.6259 30.343 14.6259 30.343 14.6259C30.343 14.6259 30.343 14.6259 30.343 14.6259C30.343 14.6259 30.343 14.6259 30.343 14.6259C30.343 14.6259 30.343 14.6259 30.343 14.6259C30.343 14.6259 30.343 14.6259 30.343 14.6259C30.343 14.6259 30.343 14.6259 30.343 14.6259C30.343 14.6259 30.343 14.6259 30.343 14.6259C30.343 14.6259 30.343 14.6259 30.343 14.6259C30.343 14.6259 30.343 14.6259 30.343 14.6259C30.343 14.6259 30.343 14.6259 30.343 14.6259C30.343 14.6259 30.343 14.6259 30.343 14.6258C30.343 14.6258 30.343 14.6258 30.343 14.6258C30.343 14.6258 30.343 14.6258 30.343 14.6258C30.343 14.6258 30.343 14.6258 30.343 14.6258C30.343 14.6258 30.343 14.6258 30.343 14.6258C30.343 14.6258 30.343 14.6258 30.343 14.6258C30.343 14.6258 30.343 14.6258 30.343 14.6258C30.343 14.6258 30.343 14.6258 30.343 14.6258C30.343 14.6258 30.343 14.6258 30.343 14.6258C30.343 14.6258 30.343 14.6258 30.343 14.6258C30.343 14.6258 30.343 14.6258 30.343 14.6258C30.343 14.6258 30.343 14.6258 30.343 14.6258C30.343 14.6258 30.343 14.6258 30.343 14.6258C30.343 14.6258 30.343 14.6258 30.343 14.6258C30.343 14.6258 30.343 14.6258 30.343 14.6258C30.343 14.6258 30.343 14.6258 30.343 14.6258C30.343 14.6258 30.343 14.6258 30.343 14.6258C30.343 14.6258 30.343 14.6258 30.343 14.6258C30.343 14.6258 30.343 14.6258 30.343 14.6258C30.343 14.6258 30.343 14.6258 30.343 14.6258C30.343 14.6258 30.343 14.6257 30.343 14.6257C30.343 14.6257 30.343 14.6257 30.343 14.6257C30.343 14.6257 30.343 14.6257 30.343 14.6257C30.343 14.6257 30.343 14.6257 30.343 14.6257C30.343 14.6257 30.343 14.6257 30.343 14.6257C30.343 14.6257 30.343 14.6257 30.343 14.6257C30.343 14.6257 30.343 14.6257 30.343 14.6257C30.343 14.6257 30.343 14.6257 30.343 14.6257C30.343 14.6257 30.343 14.6257 30.343 14.6257C30.343 14.6257 30.343 14.6257 30.343 14.6257C30.343 14.6257 30.343 14.6257 30.343 14.6257C30.343 14.6257 30.343 14.6257 30.343 14.6257C30.343 14.6257 30.343 14.6257 30.343 14.6257C30.343 14.6257 30.343 14.6257 30.343 14.6257C30.343 14.6257 30.343 14.6257 30.343 14.6257C30.343 14.6257 30.343 14.6257 30.343 14.6257C30.343 14.6257 30.343 14.6257 30.343 14.6257C30.343 14.6257 30.343 14.6257 30.343 14.6257C30.343 14.6257 30.343 14.6257 30.343 14.6257C30.343 14.6256 30.343 14.6256 30.343 14.6256C30.343 14.6256 30.343 14.6256 30.343 14.6256C30.343 14.6256 30.343 14.6256 30.343 14.6256C30.343 14.6256 30.343 14.6256 30.343 14.6256C30.343 14.6256 30.343 14.6256 30.343 14.6256C30.343 14.6256 30.343 14.6256 30.343 14.6256C30.343 14.6256 30.343 14.6256 30.343 14.6256C30.343 14.6256 30.343 14.6256 30.343 14.6256C30.343 14.6256 30.343 14.6256 30.343 14.6256C30.343 14.6256 30.343 14.6256 30.343 14.6256C30.343 14.6256 30.343 14.6256 30.343 14.6256C30.343 14.6256 30.343 14.6256 30.343 14.6256C30.343 14.6256 30.343 14.6256 30.343 14.6256C30.343 14.6256 30.343 14.6256 30.343 14.6256C30.343 14.6256 30.343 14.6256 30.343 14.6256C30.343 14.6256 30.343 14.6256 30.343 14.6256C30.343 14.6256 30.343 14.6256 30.343 14.6256C30.343 14.6256 30.343 14.6256 30.343 14.6256C30.343 14.6256 30.343 14.6255 30.343 14.6255C30.343 14.6255 30.343 14.6255 30.343 14.6255C30.343 14.6255 30.343 14.6255 30.343 14.6255C30.343 14.6255 30.343 14.6255 30.343 14.6255C30.343 14.6255 30.343 14.6255 30.343 14.6255C30.343 14.6255 30.343 14.6255 30.343 14.6255C30.343 14.6255 30.343 14.6255 30.343 14.6255C30.343 14.6255 30.343 14.6255 30.343 14.6255C30.343 14.6255 30.343 14.6255 30.343 14.6255C30.343 14.6255 30.343 14.6255 30.343 14.6255C30.343 14.6255 30.343 14.6255 30.343 14.6255C30.343 14.6255 30.343 14.6255 30.343 14.6255C30.343 14.6255 30.343 14.6255 30.343 14.6255C30.343 14.6255 30.343 14.6255 30.343 14.6255C30.343 14.6255 30.343 14.6255 30.343 14.6255C30.343 14.6255 30.343 14.6255 30.343 14.6255C30.343 14.6255 30.343 14.6255 30.343 14.6255C30.343 14.6255 30.343 14.6255 30.343 14.6254C30.343 14.6254 30.343 14.6254 30.343 14.6254C30.343 14.6254 30.343 14.6254 30.343 14.6254C30.343 14.6254 30.343 14.6254 30.343 14.6254C30.343 14.6254 30.343 14.6254 30.343 14.6254C30.343 14.6254 30.343 14.6254 30.343 14.6254C30.343 14.6254 30.343 14.6254 30.343 14.6254C30.343 14.6254 30.343 14.6254 30.343 14.6254C30.343 14.6254 30.343 14.6254 30.343 14.6254C30.343 14.6254 30.343 14.6254 30.343 14.6254C30.343 14.6254 30.343 14.6254 30.343 14.6254C30.343 14.6254 30.343 14.6254 30.343 14.6254C30.343 14.6254 30.343 14.6254 30.343 14.6254C30.343 14.6254 30.343 14.6254 30.343 14.6254C30.343 14.6254 30.343 14.6254 30.343 14.6254C30.343 14.6254 30.343 14.6254 30.343 14.6254C30.343 14.6254 30.343 14.6254 30.343 14.6254C30.343 14.6254 30.343 14.6254 30.343 14.6253C30.343 14.6253 30.343 14.6253 30.343 14.6253C30.343 14.6253 30.343 14.6253 30.343 14.6253C30.343 14.6253 30.343 14.6253 30.343 14.6253C30.343 14.6253 30.343 14.6253 30.343 14.6253C30.343 14.6253 30.343 14.6253 30.343 14.6253C30.343 14.6253 30.343 14.6253 30.343 14.6253C30.343 14.6253 30.343 14.6253 30.343 14.6253C30.343 14.6253 30.343 14.6253 30.343 14.6253C30.343 14.6253 30.343 14.6253 30.343 14.6253C30.343 14.6253 30.343 14.6253 30.343 14.6253C30.343 14.6253 30.343 14.6253 30.343 14.6253C30.343 14.6253 30.343 14.6253 30.343 14.6253C30.343 14.6253 30.343 14.6253 30.343 14.6253C30.343 14.6253 30.343 14.6253 30.343 14.6253C30.343 14.6253 30.343 14.6253 30.343 14.6253C30.343 14.6253 30.343 14.6253 30.343 14.6253C30.343 14.6253 30.343 14.6252 30.343 14.6252C30.343 14.6252 30.343 14.6252 30.343 14.6252C30.343 14.6252 30.343 14.6252 30.343 14.6252C30.343 14.6252 30.343 14.6252 30.343 14.6252C30.343 14.6252 30.343 14.6252 30.343 14.6252C30.343 14.6252 30.343 14.6252 30.343 14.6252C30.343 14.6252 30.343 14.6252 30.343 14.6252C30.343 14.6252 30.343 14.6252 30.343 14.6252C30.343 14.6252 30.343 14.6252 30.343 14.6252C30.343 14.6252 30.343 14.6252 30.343 14.6252C30.343 14.6252 30.343 14.6252 30.343 14.6252C30.343 14.6252 30.343 14.6252 30.343 14.6252C30.343 14.6252 30.343 14.6252 30.343 14.6252C30.343 14.6252 30.343 14.6252 30.343 14.6252C30.343 14.6252 30.343 14.6252 30.343 14.6252C30.343 14.6252 30.343 14.6252 30.343 14.6252C30.343 14.6252 30.343 14.6252 30.343 14.6251C30.343 14.6251 30.343 14.6251 30.343 14.6251C30.343 14.6251 30.343 14.6251 30.343 14.6251C30.343 14.6251 30.343 14.6251 30.343 14.6251C30.343 14.6251 30.343 14.6251 30.343 14.6251C30.343 14.6251 30.343 14.6251 30.343 14.6251C30.343 14.6251 30.343 14.6251 30.343 14.6251C30.343 14.6251 30.343 14.6251 30.343 14.6251C30.343 14.6251 30.343 14.6251 30.343 14.6251C30.343 14.6251 30.343 14.6251 30.343 14.6251C30.343 14.6251 30.343 14.6251 30.343 14.6251C30.343 14.6251 30.343 14.6251 30.343 14.6251C30.343 14.6251 30.343 14.6251 30.343 14.6251C30.343 14.6251 30.343 14.6251 30.343 14.6251C30.343 14.6251 30.343 14.6251 30.343 14.6251C30.343 14.6251 30.343 14.6251 30.343 14.6251C30.343 14.6251 30.343 14.6251 30.343 14.625C30.343 14.625 30.343 14.625 30.343 14.625C30.343 14.625 30.343 14.625 30.343 14.625C30.343 14.625 30.343 14.625 30.343 14.625C30.343 14.625 30.343 14.625 30.343 14.625C30.343 14.625 30.343 14.625 30.343 14.625C30.343 14.625 30.343 14.625 30.343 14.625C30.343 14.625 30.343 14.625 30.343 14.625C30.343 14.625 30.343 14.625 30.343 14.625C30.343 14.625 30.343 14.625 30.343 14.625C30.343 14.625 30.343 14.625 30.343 14.625C30.343 14.625 30.343 14.625 30.343 14.625C30.343 14.625 30.343 14.625 30.343 14.625C30.343 14.625 30.343 14.625 30.343 14.625C30.343 14.625 30.343 14.625 30.343 14.625C30.343 14.625 30.343 14.625 30.343 14.625C30.343 14.625 30.343 14.625 30.343 14.6249C30.343 14.6249 30.343 14.6249 30.343 14.6249C30.343 14.6249 30.343 14.6249 30.343 14.6249C30.343 14.6249 30.343 14.6249 30.343 14.6249C30.343 14.6249 30.343 14.6249 30.343 14.6249C30.343 14.6249 30.343 14.6249 30.343 14.6249C30.343 14.6249 30.343 14.6249 30.343 14.6249C30.343 14.6249 30.343 14.6249 30.343 14.6249C30.343 14.6249 30.343 14.6249 30.343 14.6249C30.343 14.6249 30.343 14.6249 30.343 14.6249C30.343 14.6249 30.343 14.6249 30.343 14.6249C30.343 14.6249 30.343 14.6249 30.343 14.6249C30.343 14.6249 30.343 14.6249 30.343 14.6249C30.343 14.6249 30.343 14.6249 30.343 14.6249C30.343 14.6249 30.343 14.6249 30.343 14.6249C30.343 14.6249 30.343 14.6249 30.343 14.6249C30.343 14.6249 30.343 14.6248 30.343 14.6248C30.343 14.6248 30.343 14.6248 30.343 14.6248C30.343 14.6248 30.343 14.6248 30.343 14.6248C30.343 14.6248 30.343 14.6248 30.343 14.6248C30.343 14.6248 30.343 14.6248 30.343 14.6248C30.343 14.6248 30.343 14.6248 30.343 14.6248C30.343 14.6248 30.343 14.6248 30.343 14.6248C30.343 14.6248 30.343 14.6248 30.343 14.6248C30.343 14.6248 30.343 14.6248 30.343 14.6248C30.343 14.6248 30.343 14.6248 30.343 14.6248C30.343 14.6248 30.343 14.6248 30.343 14.6248C30.343 14.6248 30.343 14.6248 30.343 14.6248C30.343 14.6248 30.343 14.6248 30.343 14.6248C30.343 14.6248 30.343 14.6248 30.343 14.6248C30.343 14.6248 30.343 14.6248 30.343 14.6248C30.343 14.6248 30.343 14.6248 30.343 14.6247C30.343 14.6247 30.343 14.6247 30.343 14.6247C30.343 14.6247 30.343 14.6247 30.343 14.6247C30.343 14.6247 30.343 14.6247 30.343 14.6247C30.343 14.6247 30.343 14.6247 30.343 14.6247C30.343 14.6247 30.343 14.6247 30.343 14.6247C30.343 14.6247 30.343 14.6247 30.343 14.6247C30.343 14.6247 30.343 14.6247 30.343 14.6247C30.343 14.6247 30.343 14.6247 30.343 14.6247C30.343 14.6247 30.343 14.6247 30.343 14.6247C30.343 14.6247 30.343 14.6247 30.343 14.6247C30.343 14.6247 30.343 14.6247 30.343 14.6247C30.343 14.6247 30.343 14.6247 30.343 14.6247C30.343 14.6247 30.343 14.6247 30.343 14.6247C30.343 14.6247 30.343 14.6247 30.343 14.6247C30.343 14.6247 30.343 14.6247 30.343 14.6247C30.343 14.6247 30.343 14.6246 30.343 14.6246C30.343 14.6246 30.343 14.6246 30.343 14.6246C30.343 14.6246 30.343 14.6246 30.343 14.6246C30.343 14.6246 30.343 14.6246 30.343 14.6246C30.343 14.6246 30.343 14.6246 30.343 14.6246C30.343 14.6246 30.343 14.6246 30.343 14.6246C30.343 14.6246 30.343 14.6246 30.343 14.6246C30.343 14.6246 30.343 14.6246 30.343 14.6246C30.343 14.6246 30.343 14.6246 30.343 14.6246C30.343 14.6246 30.343 14.6246 30.343 14.6246C30.343 14.6246 30.343 14.6246 30.343 14.6246C30.343 14.6246 30.343 14.6246 30.343 14.6246C30.343 14.6246 30.343 14.6246 30.343 14.6246C30.343 14.6246 30.343 14.6246 30.343 14.6246C30.343 14.6246 30.343 14.6246 30.343 14.6246C30.343 14.6246 30.343 14.6245 30.343 14.6245C30.343 14.6245 30.343 14.6245 30.343 14.6245C30.343 14.6245 30.343 14.6245 30.343 14.6245C30.343 14.6245 30.343 14.6245 30.343 14.6245C30.343 14.6245 30.343 14.6245 30.343 14.6245C30.343 14.6245 30.343 14.6245 30.343 14.6245C30.343 14.6245 30.343 14.6245 30.343 14.6245C30.343 14.6245 30.343 14.6245 30.343 14.6245C30.343 14.6245 30.343 14.6245 30.343 14.6245C30.343 14.6245 30.343 14.6245 30.343 14.6245C30.343 14.6245 30.343 14.6245 30.343 14.6245C30.343 14.6245 30.343 14.6245 30.343 14.6245C30.343 14.6245 30.343 14.6245 30.343 14.6245C30.343 14.6245 30.343 14.6245 30.343 14.6245C30.343 14.6245 30.343 14.6245 30.343 14.6245C30.343 14.6245 30.343 14.6245 30.343 14.6244C30.343 14.6244 30.343 14.6244 30.343 14.6244C30.343 14.6244 30.343 14.6244 30.343 14.6244C30.343 14.6244 30.343 14.6244 30.343 14.6244C30.343 14.6244 30.343 14.6244 30.343 14.6244C30.343 14.6244 30.343 14.6244 30.343 14.6244C30.343 14.6244 30.343 14.6244 30.343 14.6244C30.343 14.6244 30.343 14.6244 30.343 14.6244C30.343 14.6244 30.343 14.6244 30.343 14.6244C30.343 14.6244 30.343 14.6244 30.343 14.6244C30.343 14.6244 30.343 14.6244 30.343 14.6244C30.343 14.6244 30.343 14.6244 30.343 14.6244C30.343 14.6244 30.343 14.6244 30.343 14.6244C30.343 14.6244 30.343 14.6244 30.343 14.6244C30.343 14.6244 30.343 14.6244 30.343 14.6244C30.343 14.6244 30.343 14.6244 30.343 14.6244C30.343 14.6243 30.343 14.6243 30.343 14.6243C30.343 14.6243 30.343 14.6243 30.343 14.6243C30.343 14.6243 30.343 14.6243 30.343 14.6243C30.343 14.6243 30.343 14.6243 30.343 14.6243C30.343 14.6243 30.343 14.6243 30.343 14.6243C30.343 14.6243 30.343 14.6243 30.343 14.6243C30.343 14.6243 30.343 14.6243 30.343 14.6243C30.343 14.6243 30.343 14.6243 30.343 14.6243C30.343 14.6243 30.343 14.6243 30.343 14.6243C30.343 14.6243 30.343 14.6243 30.343 14.6243C30.343 14.6243 30.343 14.6243 30.343 14.6243C30.343 14.6243 30.343 14.6243 30.343 14.6243C30.343 14.6243 30.343 14.6243 30.343 14.6243C30.343 14.6243 30.343 14.6243 30.343 14.6243C30.343 14.6243 30.343 14.6243 30.343 14.6243C30.343 14.6243 30.343 14.6242 30.343 14.6242C30.343 14.6242 30.343 14.6242 30.343 14.6242C30.343 14.6242 30.343 14.6242 30.343 14.6242C30.343 14.6242 30.343 14.6242 30.343 14.6242C30.343 14.6242 30.343 14.6242 30.343 14.6242C30.343 14.6242 30.343 14.6242 30.343 14.6242C30.343 14.6242 30.343 14.6242 30.343 14.6242C30.343 14.6242 30.343 14.6242 30.343 14.6242C30.343 14.6242 30.343 14.6242 30.343 14.6242C30.343 14.6242 30.343 14.6242 30.343 14.6242C30.343 14.6242 30.343 14.6242 30.343 14.6242C30.343 14.6242 30.343 14.6242 30.343 14.6242C30.343 14.6242 30.343 14.6242 30.343 14.6242C30.343 14.6242 30.343 14.6242 30.343 14.6242C30.343 14.6242 30.343 14.6242 30.343 14.6242C30.343 14.6242 30.343 14.6242 30.343 14.6241C30.343 14.6241 30.343 14.6241 30.343 14.6241C30.343 14.6241 30.343 14.6241 30.343 14.6241C30.343 14.6241 30.343 14.6241 30.343 14.6241C30.343 14.6241 30.343 14.6241 30.343 14.6241C30.343 14.6241 30.343 14.6241 30.343 14.6241C30.343 14.6241 30.343 14.6241 30.343 14.6241C30.343 14.6241 30.343 14.6241 30.343 14.6241C30.343 14.6241 30.343 14.6241 30.343 14.6241C30.343 14.6241 30.343 14.6241 30.343 14.6241C30.343 14.6241 30.343 14.6241 30.343 14.6241C30.343 14.6241 30.343 14.6241 30.343 14.6241C30.343 14.6241 30.343 14.6241 30.343 14.6241C30.343 14.6241 30.343 14.6241 30.343 14.6241C30.343 14.6241 30.343 14.6241 30.343 14.6241C30.343 14.6241 30.343 14.6241 30.343 14.6241C30.343 14.624 30.343 14.624 30.343 14.624C30.343 14.624 30.343 14.624 30.343 14.624C30.343 14.624 30.343 14.624 30.343 14.624C30.343 14.624 30.343 14.624 30.343 14.624C30.343 14.624 30.343 14.624 30.343 14.624C30.343 14.624 30.343 14.624 30.343 14.624C30.343 14.624 30.343 14.624 30.343 14.624C30.343 14.624 30.343 14.624 30.343 14.624C30.343 14.624 30.343 14.624 30.343 14.624C30.343 14.624 30.343 14.624 30.343 14.624C30.343 14.624 30.343 14.624 30.343 14.624C30.343 14.624 30.343 14.624 30.343 14.624C30.343 14.624 30.343 14.624 30.343 14.624C30.343 14.624 30.343 14.624 30.343 14.624C30.343 14.624 30.343 14.624 30.343 14.624C30.343 14.624 30.343 14.624 30.343 14.6239C30.343 14.6239 30.343 14.6239 30.343 14.6239C30.343 14.6239 30.343 14.6239 30.343 14.6239C30.343 14.6239 30.343 14.6239 30.343 14.6239C30.343 14.6239 30.343 14.6239 30.343 14.6239C30.343 14.6239 30.343 14.6239 30.343 14.6239C30.343 14.6239 30.343 14.6239 30.343 14.6239C30.343 14.6239 30.343 14.6239 30.343 14.6239C30.343 14.6239 30.343 14.6239 30.343 14.6239C30.343 14.6239 30.343 14.6239 30.343 14.6239C30.343 14.6239 30.343 14.6239 30.343 14.6239C30.343 14.6239 30.343 14.6239 30.343 14.6239C30.343 14.6239 30.343 14.6239 30.343 14.6239C30.343 14.6239 30.343 14.6239 30.343 14.6239C30.343 14.6239 30.343 14.6239 30.343 14.6239C30.343 14.6239 30.343 14.6239 30.343 14.6239C30.343 14.6239 30.343 14.6238 30.343 14.6238C30.343 14.6238 30.343 14.6238 30.343 14.6238C30.343 14.6238 30.343 14.6238 30.343 14.6238C30.343 14.6238 30.343 14.6238 30.343 14.6238C30.343 14.6238 30.343 14.6238 30.343 14.6238C30.343 14.6238 30.343 14.6238 30.343 14.6238C30.343 14.6238 30.343 14.6238 30.343 14.6238C30.343 14.6238 30.343 14.6238 30.343 14.6238C30.343 14.6238 30.343 14.6238 30.343 14.6238C30.343 14.6238 30.343 14.6238 30.343 14.6238C30.343 14.6238 30.343 14.6238 30.343 14.6238C30.343 14.6238 30.343 14.6238 30.343 14.6238C30.343 14.6238 30.343 14.6238 30.343 14.6238C30.343 14.6238 30.343 14.6238 30.343 14.6238C30.343 14.6238 30.343 14.6238 30.343 14.6238C30.343 14.6238 30.343 14.6238 30.343 14.6238C30.343 14.6237 30.343 14.6237 30.343 14.6237C30.343 14.6237 30.343 14.6237 30.343 14.6237C30.343 14.6237 30.343 14.6237 30.343 14.6237C30.343 14.6237 30.343 14.6237 30.343 14.6237C30.343 14.6237 30.343 14.6237 30.343 14.6237C30.343 14.6237 30.343 14.6237 30.343 14.6237C30.343 14.6237 30.343 14.6237 30.343 14.6237C30.343 14.6237 30.343 14.6237 30.343 14.6237C30.343 14.6237 30.343 14.6237 30.343 14.6237C30.343 14.6237 30.343 14.6237 30.343 14.6237C30.343 14.6237 30.343 14.6237 30.343 14.6237C30.343 14.6237 30.343 14.6237 30.343 14.6237C30.343 14.6237 30.343 14.6237 30.343 14.6237C30.343 14.6237 30.343 14.6237 30.343 14.6237C30.343 14.6237 30.343 14.6237 30.343 14.6237C30.343 14.6237 30.343 14.6237 30.343 14.6237C30.343 14.6237 30.343 14.6236 30.343 14.6236C30.343 14.6236 30.343 14.6236 30.343 14.6236C30.343 14.6236 30.343 14.6236 30.343 14.6236C30.343 14.6236 30.343 14.6236 30.343 14.6236C30.343 14.6236 30.343 14.6236 30.343 14.6236C30.343 14.6236 30.343 14.6236 30.343 14.6236C30.343 14.6236 30.343 14.6236 30.343 14.6236C30.343 14.6236 30.343 14.6236 30.343 14.6236C30.343 14.6236 30.343 14.6236 30.343 14.6236C30.343 14.6236 30.343 14.6236 30.343 14.6236C30.343 14.6236 30.343 14.6236 30.343 14.6236C30.343 14.6236 30.343 14.6236 30.343 14.6236C30.343 14.6236 30.343 14.6236 30.343 14.6236C30.343 14.6236 30.343 14.6236 30.343 14.6236C30.343 14.6236 30.343 14.6236 30.343 14.6236C30.343 14.6236 30.343 14.6236 30.343 14.6236C30.343 14.6236 30.343 14.6236 30.343 14.6235C30.343 14.6235 30.343 14.6235 30.343 14.6235C30.343 14.6235 30.343 14.6235 30.343 14.6235C30.343 14.6235 30.343 14.6235 30.343 14.6235C30.343 14.6235 30.343 14.6235 30.343 14.6235C30.343 14.6235 30.343 14.6235 30.343 14.6235C30.343 14.6235 30.343 14.6235 30.343 14.6235C30.343 14.6235 30.343 14.6235 30.343 14.6235C30.343 14.6235 30.343 14.6235 30.343 14.6235C30.343 14.6235 30.343 14.6235 30.343 14.6235C30.343 14.6235 30.343 14.6235 30.343 14.6235C30.343 14.6235 30.343 14.6235 30.343 14.6235C30.343 14.6235 30.343 14.6235 30.343 14.6235C30.343 14.6235 30.343 14.6235 30.343 14.6235C30.343 14.6235 30.343 14.6235 30.343 14.6235C30.343 14.6235 30.343 14.6235 30.343 14.6235C30.343 14.6235 30.343 14.6235 30.343 14.6235C30.343 14.6235 30.343 14.6234 30.343 14.6234C30.343 14.6234 30.343 14.6234 30.343 14.6234H28.443ZM28.443 14.6263C28.9819 12.8044 30.3215 14.9111 28.4177 16.5262C28.4176 16.5262 28.4174 16.5262 28.4173 16.5262C28.4172 16.5262 28.4171 16.5262 28.4171 16.5262C28.4171 16.5262 28.417 16.5262 28.417 16.5262C28.417 16.5262 28.417 16.5262 28.417 16.5262C28.417 16.5262 28.417 16.5262 28.4172 16.5262C28.4174 16.5262 28.4178 16.5262 28.4188 16.5262C28.4206 16.5262 28.4243 16.5263 28.4316 16.5264C28.4463 16.5266 28.4758 16.527 28.5346 16.5278C28.6523 16.5294 28.8878 16.5326 29.3586 16.5391L29.3847 14.6393L29.4108 12.7394C28.94 12.733 28.7045 12.7297 28.5868 12.7281C28.528 12.7273 28.4985 12.7269 28.4838 12.7267C28.4764 12.7266 28.4728 12.7266 28.4709 12.7265C28.47 12.7265 28.4695 12.7265 28.4693 12.7265C28.4692 12.7265 28.4691 12.7265 28.4691 12.7265C28.4691 12.7265 28.469 12.7265 28.469 12.7265C28.469 12.7265 28.469 12.7265 28.4689 12.7265C28.4689 12.7265 28.4688 12.7265 28.4687 12.7265C28.4686 12.7265 28.4684 12.7265 28.4683 12.7265C26.5645 14.3415 27.9041 16.4483 28.443 14.6263Z" fill="#1355FF" mask="url(#path-6-inside-1_5054_21302)"/>
</svg>
