<svg width="48" height="49" viewBox="0 0 48 49" fill="none" xmlns="http://www.w3.org/2000/svg">
<circle cx="23.7064" cy="24.6933" r="20.6361" fill="#21A9ED" fill-opacity="0.2"/>
<path d="M29.7821 4.94778C27.8312 4.33499 25.7549 4.00464 23.6016 4.00464C12.2237 4.00464 3 13.2283 3 24.6063C3 35.9842 12.2237 45.2079 23.6016 45.2079C34.9795 45.2079 44.2033 35.9842 44.2033 24.6063C44.2033 22.453 43.8728 20.3769 43.2602 18.4258" stroke="#21A9ED" stroke-width="2.25" stroke-linecap="round"/>
<path d="M29.7829 20.4859C29.7829 23.8994 27.0159 26.6664 23.6024 26.6664C20.1889 26.6664 17.4219 23.8994 17.4219 20.4859C17.4219 17.0725 20.1889 14.3054 23.6024 14.3054C27.0159 14.3054 29.7829 17.0725 29.7829 20.4859Z" stroke="#21A9ED" stroke-width="2.25" stroke-linecap="round" stroke-linejoin="round"/>
<path d="M10.21 40.0577L11.3645 38.0373C13.1985 34.828 16.6116 32.8472 20.3082 32.8472H26.8939C30.5905 32.8472 34.0035 34.828 35.8375 38.0373L36.992 40.0577" stroke="#21A9ED" stroke-width="2.25" stroke-linecap="round"/>
<path d="M44.6833 7.28316L44.368 6.7361C44.1296 6.32236 44.0105 6.1155 43.8076 6.03301C43.6048 5.95052 43.3754 6.01561 42.9167 6.14579L42.1374 6.36529C41.8445 6.43284 41.5372 6.39452 41.2698 6.25711L41.0546 6.13298C40.8253 5.9861 40.6489 5.76954 40.5513 5.51498L40.338 4.87801C40.1978 4.4565 40.1277 4.24574 39.9607 4.12519C39.7938 4.00464 39.5721 4.00464 39.1286 4.00464H38.4167C37.9733 4.00464 37.7515 4.00464 37.5846 4.12519C37.4177 4.24574 37.3476 4.4565 37.2073 4.87801L36.9941 5.51498C36.8964 5.76954 36.72 5.9861 36.4907 6.13298L36.2756 6.25711C36.0081 6.39452 35.7008 6.43284 35.408 6.36529L34.6287 6.14579C34.1699 6.01561 33.9405 5.95052 33.7377 6.03301C33.5349 6.1155 33.4157 6.32236 33.1773 6.7361L32.8621 7.28316C32.6386 7.67097 32.5269 7.86488 32.5486 8.0713C32.5702 8.27772 32.7198 8.44407 33.019 8.77676L33.6774 9.51291C33.8384 9.71664 33.9526 10.0717 33.9526 10.391C33.9526 10.7104 33.8384 11.0653 33.6775 11.2691L33.019 12.0053C32.7198 12.338 32.5702 12.5043 32.5486 12.7108C32.5269 12.9172 32.6386 13.1111 32.8621 13.4989L33.1773 14.0459C33.4157 14.4596 33.5349 14.6666 33.7377 14.749C33.9405 14.8315 34.1699 14.7664 34.6287 14.6362L35.4079 14.4167C35.7009 14.3492 36.0082 14.3875 36.2757 14.525L36.4908 14.6491C36.7201 14.796 36.8964 15.0125 36.994 15.2671L37.2073 15.9041C37.3476 16.3256 37.4177 16.5364 37.5846 16.6569C37.7515 16.7775 37.9733 16.7775 38.4167 16.7775H39.1286C39.5721 16.7775 39.7938 16.7775 39.9607 16.6569C40.1277 16.5364 40.1978 16.3256 40.338 15.9041L40.5513 15.2671C40.6489 15.0125 40.8252 14.796 41.0546 14.6491L41.2697 14.525C41.5371 14.3875 41.8445 14.3492 42.1374 14.4167L42.9167 14.6362C43.3754 14.7664 43.6048 14.8315 43.8076 14.749C44.0105 14.6666 44.1296 14.4596 44.368 14.0459L44.6833 13.4989C44.9067 13.1111 45.0184 12.9172 44.9968 12.7108C44.9751 12.5043 44.8255 12.338 44.5264 12.0053L43.8679 11.2691C43.7069 11.0653 43.5927 10.7104 43.5927 10.391C43.5927 10.0717 43.707 9.71664 43.8679 9.51291L44.5264 8.77676C44.8255 8.44407 44.9751 8.27772 44.9968 8.0713C45.0184 7.86488 44.9067 7.67097 44.6833 7.28316Z" fill="#B7FFFD" stroke="#21A9ED" stroke-width="2.25" stroke-linecap="round"/>
<path d="M40.0308 10.386C40.0308 11.0962 39.4551 11.6719 38.7449 11.6719C38.0347 11.6719 37.459 11.0962 37.459 10.386C37.459 9.67582 38.0347 9.1001 38.7449 9.1001C39.4551 9.1001 40.0308 9.67582 40.0308 10.386Z" fill="#21A9ED"/>
</svg>
