<svg width="24" height="25" viewBox="0 0 24 25" fill="none" xmlns="http://www.w3.org/2000/svg">
<path d="M15.59 18.2405C14.9612 18.6617 13.3126 19.5218 14.3167 20.598C14.8072 21.1237 15.3536 21.4997 16.0404 21.4997H18H19.9596C20.6464 21.4997 21.1928 21.1237 21.6833 20.598C22.6874 19.5218 21.0388 18.6617 20.41 18.2405C18.9355 17.2528 17.0645 17.2528 15.59 18.2405Z" fill="white" stroke="white" stroke-width="1.5"/>
<path d="M20 12.9998C20 14.1044 19.1046 14.9998 18 14.9998C16.8954 14.9998 16 14.1044 16 12.9998C16 11.8952 16.8954 10.9998 18 10.9998C19.1046 10.9998 20 11.8952 20 12.9998Z" fill="white" stroke="white" stroke-width="1.5"/>
<path d="M10 6.49976H15M10 3.49976H18" stroke="white" stroke-width="1.5" stroke-linecap="round" stroke-linejoin="round"/>
<path d="M7 9.99976V14.4998C7 15.4426 7 15.914 6.70711 16.2069C6.41421 16.4998 5.94281 16.4998 5 16.4998H4C3.05719 16.4998 2.58579 16.4998 2.29289 16.2069C2 15.914 2 15.4426 2 14.4998V11.9998C2 11.057 2 10.5856 2.29289 10.2926C2.58579 9.99976 3.05719 9.99976 4 9.99976H7ZM7 9.99976H12H7Z" fill="white"/>
<path d="M7 9.99976V14.4998C7 15.4426 7 15.914 6.70711 16.2069C6.41421 16.4998 5.94281 16.4998 5 16.4998H4C3.05719 16.4998 2.58579 16.4998 2.29289 16.2069C2 15.914 2 15.4426 2 14.4998V11.9998C2 11.057 2 10.5856 2.29289 10.2926C2.58579 9.99976 3.05719 9.99976 4 9.99976H7ZM7 9.99976H12" stroke="white" stroke-width="1.5" stroke-linecap="round" stroke-linejoin="round"/>
<path d="M6.5 5.49976C6.5 6.60433 5.60457 7.49976 4.5 7.49976C3.39543 7.49976 2.5 6.60433 2.5 5.49976C2.5 4.39519 3.39543 3.49976 4.5 3.49976C5.60457 3.49976 6.5 4.39519 6.5 5.49976Z" fill="white" stroke="white" stroke-width="1.5"/>
</svg>
