<svg width="248" height="202" viewBox="0 0 248 202" fill="none" xmlns="http://www.w3.org/2000/svg">
<path d="M150.07 185.221C162.34 178.596 196.8 154.367 205.228 108.974H166.327C158.381 108.974 151.939 101.662 151.939 92.6418V16.3325C151.939 7.31177 158.387 0 166.334 0H233.577C241.524 0 247.965 7.31177 247.965 16.3325V66.321H247.958C247.009 159.15 178.914 192.806 155.844 201.546C151.747 203.099 147.327 200.539 146.041 195.857L146.007 195.74C144.859 191.573 146.605 187.094 150.077 185.221H150.07Z" fill="#1355FF" fill-opacity="0.05"/>
<path d="M4.42076 185.221C16.6912 178.596 51.1514 154.367 59.5792 108.974H20.6782C12.7316 108.974 6.29054 101.662 6.29054 92.6418V16.3325C6.29054 7.31177 12.7316 0 20.6782 0H87.9214C95.868 0 102.309 7.31177 102.309 16.3325V66.321H102.302V66.3288C101.354 159.15 33.2579 192.806 10.1882 201.546C6.09119 203.099 1.67109 200.539 0.385618 195.857L0.351247 195.74C-0.796741 191.573 0.9493 187.094 4.42076 185.221Z" fill="#1355FF" fill-opacity="0.05"/>
</svg>
