<svg width="50" height="40" viewBox="0 0 50 40" fill="none" xmlns="http://www.w3.org/2000/svg">
<path d="M29.7168 36.6775C32.1466 35.3656 38.9704 30.5676 40.6393 21.5791H32.9361C31.3625 21.5791 30.0871 20.1312 30.0871 18.3449V3.23416C30.0871 1.44788 31.3639 0 32.9375 0H46.253C47.8265 0 49.102 1.44788 49.102 3.23416V13.1329H49.1006C48.9128 31.5149 35.4285 38.1794 30.8602 39.9101C30.049 40.2176 29.1737 39.7107 28.9191 38.7836L28.9123 38.7604C28.685 37.9353 29.0308 37.0483 29.7182 36.6775H29.7168Z" fill="#1355FF"/>
<path d="M0.875398 36.6775C3.30518 35.3656 10.129 30.5676 11.7979 21.5791H4.09469C2.52112 21.5791 1.24565 20.1312 1.24565 18.3449V3.23416C1.24565 1.44788 2.52112 0 4.09469 0H17.4102C18.9838 0 20.2592 1.44788 20.2592 3.23416V13.1329H20.2579V13.1344C20.07 31.5149 6.58573 38.1794 2.01747 39.9101C1.20618 40.2176 0.330909 39.7107 0.07636 38.7836L0.0695539 38.7604C-0.157771 37.9353 0.18798 37.0483 0.875398 36.6775Z" fill="#1355FF"/>
</svg>
