<svg width="48" height="49" viewBox="0 0 48 49" fill="none" xmlns="http://www.w3.org/2000/svg">
<path d="M41.1964 19.7514C23.7228 24.7439 22.1179 12.1389 23.4996 5.2124H13.641L8.77113 7.35046L6.98828 12.2203V29.0867V39.064L10.5437 44.7138L21.0061 45.8151L37.1582 44.7138L41.1964 38.2897C41.1352 32.1714 41.0495 19.8983 41.1964 19.7514Z" fill="#21A9ED" fill-opacity="0.2"/>
<path d="M41.0664 19.3186V29.3955C41.0664 36.9958 41.0664 40.7962 38.7053 43.1572C36.3441 45.5185 32.5439 45.5185 24.9434 45.5185H22.928C15.3276 45.5185 11.5272 45.5185 9.16623 43.1572C6.80501 40.7962 6.80501 36.9958 6.80501 29.3955V21.3339C6.80501 13.7335 6.80501 9.93327 9.16623 7.57209C11.5272 5.21094 15.3276 5.21094 22.928 5.21094H23.9357" stroke="#21A9ED" stroke-width="2.25" stroke-linecap="round"/>
<path d="M14.5029 19.8508H15.9771" stroke="#21A9ED" stroke-width="2.25" stroke-linecap="round"/>
<path d="M14.5029 24.2734H20.3995" stroke="#21A9ED" stroke-width="2.25" stroke-linecap="round"/>
<path d="M11.5547 43.4372C13.1334 40.567 15.2736 33.1461 19.3769 33.1461C22.2128 33.1461 22.9473 36.7618 25.7265 36.7618C30.508 36.7618 29.8148 28.6958 35.1409 28.6958" stroke="#21A9ED" stroke-width="2.25" stroke-linecap="round"/>
<path d="M33.7144 18.2227C29.6539 18.2227 26.3623 14.931 26.3623 10.8706C26.3623 6.81018 29.6539 3.51855 33.7144 3.51855C37.7748 3.51855 41.0664 6.81018 41.0664 10.8706C41.0664 14.931 37.7748 18.2227 33.7144 18.2227Z" fill="#B7FFFD" stroke="#21A9ED" stroke-width="2.25" stroke-linecap="round"/>
<path d="M33.7148 7.92969V10.8705L32.2444 12.3409" stroke="#21A9ED" stroke-width="2.25" stroke-linecap="round"/>
</svg>
