<svg width="19" height="25" viewBox="0 0 19 25" fill="none" xmlns="http://www.w3.org/2000/svg">
<path d="M9.5 21C14.1944 21 18 17.1944 18 12.5C18 7.80558 14.1944 4 9.5 4C4.80558 4 1 7.80558 1 12.5C1 17.1944 4.80558 21 9.5 21Z" fill="#1355FF" stroke="#1355FF" stroke-width="1.275" stroke-linecap="round" stroke-linejoin="round"/>
<path d="M8.53838 10.965C8.53838 10.2415 8.53838 9.87971 8.29979 9.65494C8.06128 9.43018 7.67728 9.43018 6.90933 9.43018C6.14139 9.43018 5.75742 9.43018 5.51885 9.65494C5.28027 9.87971 5.28027 10.2415 5.28027 10.965C5.28027 11.6885 5.28027 12.0503 5.51885 12.275C5.75742 12.4998 6.14139 12.4998 6.90933 12.4998C7.67728 12.4998 8.06128 12.4998 8.29979 12.275C8.53838 12.0503 8.53838 11.6885 8.53838 10.965ZM8.53838 10.965V12.5525C8.53838 13.9596 7.51383 15.1528 6.0948 15.5694M13.7218 10.965C13.7218 10.2415 13.7218 9.87971 13.4832 9.65494C13.2446 9.43018 12.8606 9.43018 12.0927 9.43018C11.3248 9.43018 10.9407 9.43018 10.7022 9.65494C10.4636 9.87971 10.4636 10.2415 10.4636 10.965C10.4636 11.6885 10.4636 12.0503 10.7022 12.275C10.9407 12.4998 11.3248 12.4998 12.0927 12.4998C12.8606 12.4998 13.2446 12.4998 13.4832 12.275C13.7218 12.0503 13.7218 11.6885 13.7218 10.965ZM13.7218 10.965V12.5525C13.7218 13.9596 12.6972 15.1528 11.2782 15.5694" stroke="white" stroke-width="1.275" stroke-linecap="round"/>
</svg>
