<svg width="32" height="33" viewBox="0 0 32 33" fill="none" xmlns="http://www.w3.org/2000/svg">
<path d="M17.2494 3.85636L29.2826 13.3563C29.7357 13.7139 30 14.2593 30 14.8365C30 15.8783 29.1557 16.7226 28.1139 16.7226H27.2V21.6226C27.2 25.5824 27.2 27.5622 25.9698 28.7924C24.7396 30.0226 22.7598 30.0226 18.8 30.0226H13.2C9.2402 30.0226 7.2603 30.0226 6.03015 28.7924C4.8 27.5622 4.8 25.5824 4.8 21.6226V16.7226H3.88602C2.84441 16.7226 2 15.8783 2 14.8365C2 14.2593 2.26432 13.7139 2.71736 13.3563L14.7506 3.85636C15.1064 3.57542 15.5465 3.42261 16 3.42261C16.4535 3.42261 16.8936 3.57542 17.2494 3.85636Z" fill="#B7FFFD" stroke="#1355FF" stroke-width="1.9" stroke-linecap="round" stroke-linejoin="round"/>
<path d="M19.5 30.0224V23.7224C19.5 22.414 19.5 21.7598 19.2186 21.2724C19.0344 20.9532 18.7692 20.6881 18.45 20.5038C17.9627 20.2224 17.3084 20.2224 16 20.2224C14.6916 20.2224 14.0373 20.2224 13.55 20.5038C13.2308 20.6881 12.9657 20.9532 12.7813 21.2724C12.5 21.7598 12.5 22.414 12.5 23.7224V30.0224" stroke="#1355FF" stroke-width="1.9" stroke-linecap="round" stroke-linejoin="round"/>
</svg>
