<svg width="17" height="17" viewBox="0 0 17 17" fill="none" xmlns="http://www.w3.org/2000/svg">
<path d="M1.87598 4.72257C1.87598 3.69561 1.87598 3.18213 2.10713 2.80493C2.23647 2.59386 2.41393 2.4164 2.625 2.28706C3.0022 2.05591 3.51568 2.05591 4.54264 2.05591C5.5696 2.05591 6.08308 2.05591 6.46029 2.28706C6.67136 2.4164 6.84882 2.59386 6.97818 2.80493C7.20931 3.18213 7.20931 3.69561 7.20931 4.72257C7.20931 5.74953 7.20931 6.26301 6.97818 6.64022C6.84882 6.85129 6.67136 7.02875 6.46029 7.15809C6.08308 7.38924 5.5696 7.38924 4.54264 7.38924C3.51568 7.38924 3.0022 7.38924 2.625 7.15809C2.41393 7.02875 2.23647 6.85129 2.10713 6.64022C1.87598 6.26301 1.87598 5.74953 1.87598 4.72257Z" stroke="#666666"/>
<path d="M2.72977 10.5772C3.42767 9.87925 3.77663 9.53032 4.19006 9.43105C4.42139 9.37552 4.66259 9.37552 4.89393 9.43105C5.30736 9.53032 5.65631 9.87925 6.35422 10.5772C7.05213 11.2751 7.40106 11.624 7.50033 12.0375C7.55586 12.2688 7.55586 12.51 7.50033 12.7413C7.40106 13.1548 7.05213 13.5037 6.35422 14.2016C5.65631 14.8995 5.30736 15.2485 4.89393 15.3477C4.66259 15.4033 4.42139 15.4033 4.19006 15.3477C3.77663 15.2485 3.42767 14.8995 2.72977 14.2016C2.03186 13.5037 1.68291 13.1548 1.58365 12.7413C1.52811 12.51 1.52811 12.2688 1.58365 12.0375C1.68291 11.624 2.03186 11.2751 2.72977 10.5772Z" stroke="#666666"/>
<path d="M9.54199 12.7226C9.54199 11.6956 9.54199 11.1821 9.77313 10.8049C9.90246 10.5938 10.0799 10.4164 10.291 10.287C10.6682 10.0559 11.1817 10.0559 12.2087 10.0559C13.2356 10.0559 13.7491 10.0559 14.1263 10.287C14.3374 10.4164 14.5149 10.5938 14.6442 10.8049C14.8753 11.1821 14.8753 11.6956 14.8753 12.7226C14.8753 13.7495 14.8753 14.263 14.6442 14.6402C14.5149 14.8513 14.3374 15.0288 14.1263 15.1581C13.7491 15.3892 13.2356 15.3892 12.2087 15.3892C11.1817 15.3892 10.6682 15.3892 10.291 15.1581C10.0799 15.0288 9.90246 14.8513 9.77313 14.6402C9.54199 14.263 9.54199 13.7495 9.54199 12.7226Z" stroke="#666666"/>
<path d="M12.2087 2.05591V7.38924M14.8753 4.72257H9.54199" stroke="#666666" stroke-linecap="round" stroke-linejoin="round"/>
</svg>
