<svg width="48" height="49" viewBox="0 0 48 49" fill="none" xmlns="http://www.w3.org/2000/svg">
<path d="M32.3806 45.3878C28.6091 36.408 35.1656 33.7492 38.9153 33.5423L33.7279 31.2449L30.585 32.2551L25.534 36.2959L20.4829 33.5423L17.1155 31.2449L9.03385 34.6122L7.57465 38.6531L7.0127 45.3878C15.5061 45.4626 32.4705 45.5674 32.3806 45.3878Z" fill="#21A9ED" fill-opacity="0.2"/>
<path d="M35.7388 31.667C32.6255 31.667 30.1016 34.2163 30.1016 37.3611C30.1016 39.1594 30.8062 40.5574 32.2155 41.8064C33.209 42.6866 34.4124 44.1488 35.1348 45.3339C35.4814 45.9023 35.9714 45.9023 36.3429 45.3339C37.1019 44.1723 38.2687 42.6866 39.2622 41.8064C40.6715 40.5574 41.3761 39.1594 41.3761 37.3611C41.3761 34.2163 38.8522 31.667 35.7388 31.667Z" fill="#B7FFFD" stroke="#21A9ED" stroke-width="2.25" stroke-linecap="round"/>
<path d="M35.7383 37.3042H35.7539" stroke="#21A9ED" stroke-width="3.40934" stroke-linecap="round"/>
<path d="M35.8408 14.5304C32.789 13.3838 28.9953 12.7043 24.8843 12.7043C20.7732 12.7043 16.9795 13.3838 13.9277 14.5304" stroke="#21A9ED" stroke-width="2.25" stroke-linecap="round"/>
<path d="M15.6974 14.5305L14.3653 11.9511C13.3083 9.90449 12.7799 8.88119 13.1127 7.97672C13.4455 7.07228 14.4697 6.7485 16.5181 6.10093L23.7689 3.8087C24.2637 3.65222 24.5113 3.57397 24.7652 3.57397C25.0192 3.57397 25.2668 3.65222 25.7617 3.8087L33.5006 6.25527C35.3459 6.83858 36.2684 7.13024 36.6201 7.94902C36.972 8.76782 36.594 9.74361 35.8382 11.6952L34.74 14.5305" stroke="#21A9ED" stroke-width="2.25" stroke-linecap="round"/>
<path d="M15.7539 14.5305V17.6808C15.7539 20.9554 17.4366 23.99 20.1868 25.6748L21.1263 26.2503C23.4394 27.6674 26.3293 27.6674 28.6424 26.2503L29.582 25.6748C32.332 23.99 34.0148 20.9554 34.0148 17.6808V14.5305" stroke="#21A9ED" stroke-width="2.25" stroke-linecap="round"/>
<path d="M28 32.0208C25.7103 34.0205 26.2542 36.1478 24.8839 36.1478C23.5136 36.1478 22.3688 35.148 20.0792 33.1482L17.5796 30.9653M17.5796 30.9653L19.4057 25.4871M17.5796 30.9653L14.4129 32.0208C12.5903 32.6283 11.6791 32.9322 10.8701 33.4017C10.0782 33.8613 9.36002 34.4374 8.73954 35.1107C8.10567 35.7986 6.62305 43.7479 6.62305 45.574H28" stroke="#21A9ED" stroke-width="2.25" stroke-linecap="round"/>
</svg>
