<svg width="33" height="33" viewBox="0 0 33 33" fill="none" xmlns="http://www.w3.org/2000/svg">
<path d="M16.7992 2.72266H8.39922C4.92442 2.72266 4.19922 3.44786 4.19922 6.92266V30.7227H20.9992V6.92266C20.9992 3.44786 20.274 2.72266 16.7992 2.72266Z" fill="#B7FFFD" stroke="#1355FF" stroke-width="1.9" stroke-linejoin="round"/>
<path d="M25.199 11.1226H20.999V30.7226H29.399V15.3226C29.399 11.8478 28.6738 11.1226 25.199 11.1226Z" fill="#B7FFFD" stroke="#1355FF" stroke-width="1.9" stroke-linejoin="round"/>
<path d="M16.0986 30.7228V25.1228C16.0986 23.8028 16.0986 23.1429 15.6886 22.7328C15.2785 22.3228 14.6186 22.3228 13.2986 22.3228H11.8986C10.5787 22.3228 9.91874 22.3228 9.50868 22.7328C9.09863 23.1429 9.09863 23.8028 9.09863 25.1228V30.7228" stroke="#1355FF" stroke-width="1.9" stroke-linejoin="round"/>
<path d="M11.1992 8.32275H13.9992M11.1992 12.5228H13.9992M11.1992 16.7228H13.9992" stroke="#1355FF" stroke-width="1.9" stroke-linecap="round" stroke-linejoin="round"/>
</svg>
