<svg width="33" height="33" viewBox="0 0 33 33" fill="none" xmlns="http://www.w3.org/2000/svg">
<path d="M20.7502 22.3235H6.74765C4.42762 22.3235 2.54688 24.2036 2.54688 26.5231C2.54688 28.8424 4.42762 30.7227 6.74765 30.7227H20.7502C23.0703 30.7227 24.9511 28.8424 24.9511 26.5231C24.9511 24.2036 23.0703 22.3235 20.7502 22.3235Z" fill="#B7FFFD" stroke="#1355FF" stroke-width="1.9"/>
<path d="M12.0038 5.46094L6.49602 5.89551L4.97754 9.95154V16.3255L6.49602 18.3536H15.7698L18.7395 16.3255L19.1017 11.4726L15.7698 7.63373L12.0038 5.46094Z" fill="#B7FFFD"/>
<path d="M17.4052 9.18187L15.068 7.01711C14.2722 6.28004 13.8743 5.91151 13.3814 5.71835C12.8886 5.5252 11.7361 5.5252 10.6512 5.5252H10.6567C8.01635 5.5252 6.69616 5.5252 5.87591 6.34523C5.05566 7.16524 5.05566 8.48505 5.05566 11.1247V12.5245C5.05566 15.164 5.05566 16.4838 5.87591 17.3039C6.69616 18.1239 8.01635 18.1239 10.6567 18.1239H13.8985C16.1126 18.1239 17.2196 18.1239 17.9783 17.5332C18.161 17.3911 18.3252 17.2269 18.4673 17.0443C19.0583 16.2858 19.0583 15.179 19.0583 12.9657C19.0583 11.952 18.9129 11.1124 18.7461 10.6511C18.521 10.2153 18.1491 9.87081 17.4052 9.18187ZM17.4052 9.18187C17.4052 9.18187 21.663 4.46131 22.3015 3.87336C23.009 3.30751 23.3937 2.72268 25.8301 2.73107C26.2935 2.72185 26.8383 2.72268 27.4601 2.72268M27.4601 7.6194V8.32493M27.3928 16.0185V16.6401C27.3928 16.7711 27.4265 16.7073 27.4265 16.7073C27.5972 16.7141 28.0986 16.8416 28.0986 16.8416C28.0986 16.8416 29.6277 17.312 29.5437 18.9918C29.4975 19.9157 28.7657 20.6763 27.8801 20.8732C26.903 21.0906 25.7461 20.5877 25.3596 19.5294M27.4601 11.8274V12.5245" stroke="#1355FF" stroke-width="1.9" stroke-linecap="round"/>
<path d="M13.7413 26.5229H13.7539M8.14648 26.5229H8.15904M19.336 26.5229H19.3486" stroke="#1355FF" stroke-width="1.9" stroke-linecap="round" stroke-linejoin="round"/>
</svg>
