<svg width="48" height="49" viewBox="0 0 48 49" fill="none" xmlns="http://www.w3.org/2000/svg">
<path d="M36.5992 3.66699C41.1451 3.66699 44.9992 7.47816 44.9992 12.1018C44.9992 16.7992 41.0823 20.0955 37.4644 22.337C37.2007 22.4878 36.9027 22.567 36.5992 22.567C36.2958 22.567 35.9978 22.4878 35.734 22.337C32.1229 20.0737 28.1992 16.8154 28.1992 12.1018C28.1992 7.47816 32.0533 3.66699 36.5992 3.66699Z" fill="#D3EEFB" fill-opacity="0.2" stroke="#21A9ED" stroke-width="2.25" stroke-linecap="round"/>
<path d="M36.6006 12.0669H36.6195" stroke="#21A9ED" stroke-width="4.2" stroke-linecap="round" stroke-linejoin="round"/>
<path d="M9.3 45.6669C12.7794 45.6669 15.6 42.8463 15.6 39.3669C15.6 35.8875 12.7794 33.0669 9.3 33.0669C5.82061 33.0669 3 35.8875 3 39.3669C3 42.8463 5.82061 45.6669 9.3 45.6669Z" fill="#B7FFFD" stroke="#21A9ED" stroke-width="2.25" stroke-linecap="round"/>
<path d="M21.8994 14.167H18.7494C14.6901 14.167 11.3994 16.9876 11.3994 20.467C11.3994 23.9465 14.6901 26.767 18.7494 26.767H25.0494C29.1087 26.767 32.3994 29.5875 32.3994 33.067C32.3994 36.5465 29.1087 39.367 25.0494 39.367H21.8994" stroke="#21A9ED" stroke-width="2.25" stroke-linecap="round"/>
</svg>
