<svg width="24" height="25" viewBox="0 0 24 25" fill="none" xmlns="http://www.w3.org/2000/svg">
<path d="M14 3.5H10C6.22876 3.5 4.34315 3.5 3.17157 4.67157C2 5.84315 2 7.72876 2 11.5C2 15.2712 2 17.1569 3.17157 18.3284C4.34315 19.5 6.22876 19.5 10 19.5H14C17.7712 19.5 19.6569 19.5 20.8284 18.3284C22 17.1569 22 15.2712 22 11.5C22 7.72876 22 5.84315 20.8284 4.67157C19.6569 3.5 17.7712 3.5 14 3.5Z" fill="white" stroke="white" stroke-width="1.5" stroke-linecap="round"/>
<path d="M16.9 16C16.9 15.1163 17.6163 14.4 18.5 14.4M13.7 16C13.7 13.349 15.849 11.2 18.5 11.2M10.5 16C10.5 11.5817 14.0817 8 18.5 8" stroke="white" stroke-width="1.5" stroke-linecap="round"/>
<path d="M18 19.5L19 21.5" stroke="white" stroke-width="1.5" stroke-linecap="round" stroke-linejoin="round"/>
<path d="M6 19.5L5 21.5" stroke="white" stroke-width="1.5" stroke-linecap="round" stroke-linejoin="round"/>
</svg>
