<svg width="24" height="25" viewBox="0 0 24 25" fill="none" xmlns="http://www.w3.org/2000/svg">
<path d="M14 3.1665H10C6.22876 3.1665 4.34315 3.1665 3.17157 4.33807C2 5.50965 2 7.39526 2 11.1665C2 14.9377 2 16.8234 3.17157 17.9949C4.34315 19.1665 6.22876 19.1665 10 19.1665H14C17.7712 19.1665 19.6569 19.1665 20.8284 17.9949C22 16.8234 22 14.9377 22 11.1665C22 7.39526 22 5.50965 20.8284 4.33807C19.6569 3.1665 17.7712 3.1665 14 3.1665Z" fill="#B7FFFD" stroke="#1355FF" stroke-width="1.5" stroke-linecap="round"/>
<path d="M16.9 15.6665C16.9 14.7828 17.6163 14.0665 18.5 14.0665M13.7 15.6665C13.7 13.0155 15.849 10.8665 18.5 10.8665M10.5 15.6665C10.5 11.2482 14.0817 7.6665 18.5 7.6665" stroke="#1355FF" stroke-width="1.5" stroke-linecap="round"/>
<path d="M18 19.1665L19 21.1665" stroke="#1355FF" stroke-width="1.5" stroke-linecap="round" stroke-linejoin="round"/>
<path d="M6 19.1665L5 21.1665" stroke="#1355FF" stroke-width="1.5" stroke-linecap="round" stroke-linejoin="round"/>
</svg>
