<svg width="24" height="25" viewBox="0 0 24 25" fill="none" xmlns="http://www.w3.org/2000/svg">
<path d="M15.59 17.907C14.9612 18.3282 13.3126 19.1883 14.3167 20.2645C14.8072 20.7902 15.3536 21.1662 16.0404 21.1662H18H19.9596C20.6464 21.1662 21.1928 20.7902 21.6833 20.2645C22.6874 19.1883 21.0388 18.3282 20.41 17.907C18.9355 16.9193 17.0645 16.9193 15.59 17.907Z" fill="#B7FFFD" stroke="#1355FF" stroke-width="1.5"/>
<path d="M20 12.6663C20 13.7709 19.1046 14.6663 18 14.6663C16.8954 14.6663 16 13.7709 16 12.6663C16 11.5617 16.8954 10.6663 18 10.6663C19.1046 10.6663 20 11.5617 20 12.6663Z" fill="#B7FFFD" stroke="#1355FF" stroke-width="1.5"/>
<path d="M10 6.16626H15M10 3.16626H18" stroke="#1355FF" stroke-width="1.5" stroke-linecap="round" stroke-linejoin="round"/>
<path d="M7 9.66626V14.1663C7 15.1091 7 15.5805 6.70711 15.8734C6.41421 16.1663 5.94281 16.1663 5 16.1663H4C3.05719 16.1663 2.58579 16.1663 2.29289 15.8734C2 15.5805 2 15.1091 2 14.1663V11.6663C2 10.7235 2 10.2521 2.29289 9.95915C2.58579 9.66626 3.05719 9.66626 4 9.66626H7ZM7 9.66626H12H7Z" fill="#B7FFFD"/>
<path d="M7 9.66626V14.1663C7 15.1091 7 15.5805 6.70711 15.8734C6.41421 16.1663 5.94281 16.1663 5 16.1663H4C3.05719 16.1663 2.58579 16.1663 2.29289 15.8734C2 15.5805 2 15.1091 2 14.1663V11.6663C2 10.7235 2 10.2521 2.29289 9.95915C2.58579 9.66626 3.05719 9.66626 4 9.66626H7ZM7 9.66626H12" stroke="#1355FF" stroke-width="1.5" stroke-linecap="round" stroke-linejoin="round"/>
<path d="M6.5 5.16626C6.5 6.27083 5.60457 7.16626 4.5 7.16626C3.39543 7.16626 2.5 6.27083 2.5 5.16626C2.5 4.06169 3.39543 3.16626 4.5 3.16626C5.60457 3.16626 6.5 4.06169 6.5 5.16626Z" fill="#B7FFFD" stroke="#1355FF" stroke-width="1.5"/>
</svg>
