<svg width="49" height="49" viewBox="0 0 49 49" fill="none" xmlns="http://www.w3.org/2000/svg">
<path d="M22.3538 36.7474C20.114 39.1311 22.3239 42.1952 23.7088 43.4293H18.9229H11.2478L6.19131 39.2758L4.92773 28.2598L5.55963 12.458L9.7123 7.76287L31.3831 6.31812L39.5097 9.4783L41.4962 12.458L42.8596 23.1182L41.4962 29.5239C28.584 26.9053 22.0835 36.4766 22.3538 36.7474Z" fill="#21A9ED" fill-opacity="0.2"/>
<path d="M33.9357 3.66699V9.52583M14.4062 3.66699V9.52583" stroke="#21A9ED" stroke-width="2.25" stroke-linecap="round"/>
<path d="M42.4491 27.1201C42.4491 27.1201 42.4536 26.2034 42.4536 25.1666C42.4536 16.418 42.4536 12.0436 39.7367 9.32577C37.0195 6.60791 32.6465 6.60791 23.9006 6.60791C15.1547 6.60791 10.7817 6.60791 8.06467 9.32577C5.34766 12.0436 5.34766 16.418 5.34766 25.1666C5.34766 33.9154 5.34766 38.2896 8.06467 41.0075C10.343 43.2866 13.7857 43.6545 19.9947 43.7139" stroke="#21A9ED" stroke-width="2.25" stroke-linecap="round"/>
<path d="M5.34766 16.3728H42.4536" stroke="#21A9ED" stroke-width="2.25" stroke-linecap="round"/>
<path d="M13.1582 33.9492H15.1111M20.97 26.1375H30.7347M13.1582 26.1375H15.1111" stroke="#21A9ED" stroke-width="2.25" stroke-linecap="round"/>
<path d="M43.9611 37.8991C44.258 38.3155 44.4064 38.5235 44.4064 38.8316C44.4064 39.1398 44.258 39.3478 43.9611 39.7642C42.6273 41.6347 39.2206 45.667 34.6417 45.667C30.0628 45.667 26.6561 41.6347 25.3222 39.7642C25.0254 39.3478 24.877 39.1398 24.877 38.8316C24.877 38.5235 25.0254 38.3155 25.3222 37.8991C26.6561 36.0286 30.0628 31.9963 34.6417 31.9963C39.2206 31.9963 42.6273 36.0286 43.9611 37.8991Z" fill="#B7FFFD" stroke="#21A9ED" stroke-width="2.25" stroke-linecap="round"/>
<path d="M34.6426 38.8315H34.6602" stroke="#21A9ED" stroke-width="5.25" stroke-linecap="round"/>
</svg>
