<svg width="158" height="72" viewBox="0 0 158 72" fill="none" xmlns="http://www.w3.org/2000/svg">
<path d="M68.6069 6.99396V5.46411H75.0177V9.61649H73.5607V6.99396H68.6069Z" fill="#91908C"/>
<path d="M68.6069 13.3438V11.814H75.0177V15.9663H73.5607V13.3438H68.6069Z" fill="#91908C"/>
<path d="M68.6069 20.9495V19.4197H75.0177V23.5721H73.5607V20.9495H68.6069Z" fill="#91908C"/>
<path d="M68.6069 26.9742V25.4443H75.0177V29.5967H73.5607V26.9742H68.6069Z" fill="#91908C"/>
<path d="M68.6069 33.3814V31.8516H75.0177V36.0039H73.5607V33.3814H68.6069Z" fill="#91908C"/>
<path d="M48.0224 20.5948L47.0996 18.6653H65.807V39.0506H63.542V33.2622H52.4685V31.081H63.542V26.551H51.5457V25.0409H63.542V20.5948H48.0224Z" fill="#91908C"/>
<path d="M63.46 0.82666V2.99628H77.1704V38.013H78.9467V0.82666H63.46Z" fill="#91908C"/>
<path d="M95.2513 41.4771V30.2532C96.4397 30.2532 96.9569 31.427 97.0669 32.0138C97.0486 34.508 97.0229 39.4964 97.0669 39.4964C96.8468 41.257 95.7648 41.5505 95.2513 41.4771Z" fill="#25945F"/>
<path d="M88.594 28.9878V30.2532C83.7523 30.2532 83.587 27.2272 83.697 27.3923C82.9488 23.2988 89.2907 21.5419 92.5552 21.1751C92.5002 21.6519 92.4232 22.5835 92.5552 22.4955C81.8155 25.9287 85.4395 28.2542 88.594 28.9878Z" fill="#25945F"/>
<path d="M90.5286 20.768L89.4309 20.3729C89.8254 19.4816 91.4891 17.6829 94.9899 17.6072C94.9927 17.5762 94.998 17.5715 95.0068 17.6069C95.0012 17.607 94.9955 17.6071 94.9899 17.6072C94.9817 17.6995 94.9959 18.0244 95.0068 18.2215C93.8799 18.4118 91.4066 19.1874 90.5286 20.768Z" fill="#25945F"/>
<path d="M96.3679 17.8703V16.8605C104.992 14.8687 107.569 18.2215 107.621 18.2215C109.472 21.1666 106.184 24.4968 104.308 25.7938C104.01 25.4082 103.435 24.6474 103.52 24.6895C111.681 17.3273 102.152 17.0758 96.3679 17.8703Z" fill="#25945F"/>
<path d="M107.621 24.6895L108.256 23.9459C117.44 27.519 110.987 31.144 111.049 31.3302C109.857 32.1918 103.147 34.7091 99.9413 35.86L99.0725 34.3087C102.589 32.9569 109.634 30.2532 109.684 30.2532C113.984 28.2499 110.1 25.7093 107.621 24.6895Z" fill="#25945F"/>
<path d="M0.0283033 47.9579C1.03779 47.9957 1.83028 48.0145 2.40578 48.0145C2.95769 48.0145 3.56622 47.9957 4.23134 47.9579C4.25021 48.0334 4.25965 48.0853 4.25965 48.1136C4.25965 48.1655 4.25021 48.2244 4.23134 48.2905C3.82095 48.3093 3.53791 48.3612 3.38224 48.4461C3.23129 48.5263 3.15582 48.6325 3.15582 48.7646C3.15582 48.8023 3.16053 48.8471 3.16997 48.899C3.18412 48.9462 4.14172 51.3119 6.04275 55.996H6.11351L7.4933 52.3166L6.24795 49.1608C6.04983 48.6513 5.57575 48.3612 4.82571 48.2905C4.80684 48.2056 4.79741 48.1466 4.79741 48.1136C4.79741 48.0664 4.80684 48.0145 4.82571 47.9579C5.49084 47.9957 6.22908 48.0145 7.04045 48.0145C7.78577 48.0145 8.49099 47.9957 9.15612 47.9579C9.17499 48.0334 9.18442 48.0853 9.18442 48.1136C9.18442 48.1655 9.17499 48.2244 9.15612 48.2905C8.58533 48.3093 8.21503 48.3542 8.04521 48.4249C7.88011 48.491 7.79756 48.6183 7.79756 48.807C7.79756 48.8117 7.83058 48.9297 7.89662 49.1608L10.5076 55.996H10.5784L13.161 49.0688C13.1893 48.9981 13.2035 48.9061 13.2035 48.7929C13.2035 48.6419 13.1115 48.5334 12.9275 48.4674C12.7436 48.3966 12.444 48.3376 12.0289 48.2905C12.01 48.1867 12.0006 48.123 12.0006 48.0994C12.0006 48.0617 12.01 48.0145 12.0289 47.9579C12.6091 47.9862 13.1634 48.0004 13.6917 48.0004C14.2059 48.0004 14.713 47.9862 15.213 47.9579C15.2319 48.0145 15.2413 48.0617 15.2413 48.0994C15.2413 48.1749 15.2319 48.2386 15.213 48.2905C14.8781 48.3235 14.5998 48.3943 14.3781 48.5028C14.1611 48.6112 13.9913 48.7999 13.8686 49.0688L10.2741 58.5646H9.95568L7.82586 53.1728L5.80925 58.5646H5.49084L1.60621 49.1608C1.39865 48.6608 0.872685 48.3707 0.0283033 48.2905C0.00943443 48.2056 0 48.1466 0 48.1136C0 48.0664 0.00943443 48.0145 0.0283033 47.9579ZM15.7225 47.9579C16.7791 47.9957 17.5999 48.0145 18.1849 48.0145C18.7698 48.0145 19.5906 47.9957 20.6473 47.9579C20.6661 48.0334 20.6756 48.0853 20.6756 48.1136C20.6756 48.1655 20.6661 48.2244 20.6473 48.2905C20.4303 48.3093 20.2534 48.3306 20.1166 48.3542C19.9845 48.373 19.8194 48.406 19.6213 48.4532C19.4279 48.5004 19.2793 48.5688 19.1755 48.6584C19.0717 48.7433 19.0175 48.8471 19.0127 48.9698C18.9514 50.5736 18.9208 52.0666 18.9208 53.4488C18.9208 54.4582 18.9467 55.772 18.9986 57.39C19.0033 57.5126 19.0576 57.6188 19.1613 57.7084C19.2651 57.7933 19.4137 57.8594 19.6071 57.9065C19.8052 57.9537 19.9703 57.9891 20.1024 58.0127C20.2392 58.0315 20.4161 58.0504 20.6331 58.0693C20.652 58.1259 20.6614 58.1896 20.6614 58.2603C20.6614 58.2981 20.652 58.3452 20.6331 58.4018C19.8312 58.3735 19.0104 58.3594 18.1707 58.3594C17.3216 58.3594 16.5008 58.3735 15.7083 58.4018C15.6895 58.3452 15.68 58.2981 15.68 58.2603C15.68 58.1801 15.6895 58.1164 15.7083 58.0693C15.8498 58.0551 15.9631 58.0433 16.048 58.0339C16.1329 58.0245 16.2485 58.0079 16.3947 57.9844C16.5456 57.9608 16.6659 57.9348 16.7556 57.9065C16.8499 57.8735 16.9466 57.8334 17.0457 57.7862C17.1447 57.7391 17.2178 57.6825 17.265 57.6164C17.3169 57.5504 17.3428 57.4749 17.3428 57.39C17.3995 55.9135 17.4278 54.4252 17.4278 52.9251C17.4278 51.3968 17.4042 50.0783 17.357 48.9698C17.3523 48.8471 17.298 48.7433 17.1943 48.6584C17.0905 48.5688 16.9395 48.5004 16.7414 48.4532C16.548 48.406 16.3829 48.373 16.2461 48.3542C16.114 48.3306 15.9395 48.3093 15.7225 48.2905C15.7036 48.2056 15.6942 48.1466 15.6942 48.1136C15.6942 48.0664 15.7036 48.0145 15.7225 47.9579ZM21.7369 47.9579C22.7936 47.9957 23.6144 48.0145 24.1993 48.0145C24.7843 48.0145 25.6051 47.9957 26.6617 47.9579C26.6806 48.0334 26.69 48.0853 26.69 48.1136C26.69 48.1466 26.6806 48.2056 26.6617 48.2905C26.4447 48.3093 26.2678 48.3306 26.131 48.3542C25.9989 48.373 25.8338 48.406 25.6357 48.4532C25.4423 48.5004 25.2937 48.5688 25.1899 48.6584C25.0862 48.7433 25.0319 48.8471 25.0272 48.9698C24.9659 50.5736 24.9352 52.0666 24.9352 53.4488C24.9352 54.1611 24.9612 55.6541 25.013 57.9277H27.1995C27.8929 57.8806 28.5132 57.7792 29.0604 57.6235C29.6076 57.4678 30.0628 57.2697 30.426 57.0291C30.794 56.7838 31.0959 56.5315 31.3318 56.272C31.5723 56.0078 31.7799 55.713 31.9544 55.3875C32.0771 55.4347 32.1573 55.4984 32.195 55.5786C32.0016 55.9371 31.8506 56.2272 31.7421 56.4489C31.6384 56.6706 31.5228 56.9631 31.3954 57.3263C31.2728 57.6848 31.1926 58.0292 31.1549 58.3594H25.013C23.7347 58.3594 22.6379 58.3735 21.7228 58.4018C21.7039 58.3452 21.6945 58.2981 21.6945 58.2603C21.6945 58.2273 21.7039 58.1636 21.7228 58.0693C21.9398 58.0504 22.1143 58.0315 22.2464 58.0127C22.3832 57.9891 22.5483 57.9537 22.7417 57.9065C22.9398 57.8594 23.0908 57.7933 23.1946 57.7084C23.2983 57.6188 23.3526 57.5126 23.3573 57.39C23.4139 55.9135 23.4422 54.4252 23.4422 52.9251C23.4422 51.3968 23.4186 50.0783 23.3714 48.9698C23.3667 48.8471 23.3125 48.7433 23.2087 48.6584C23.1049 48.5688 22.954 48.5004 22.7559 48.4532C22.5624 48.406 22.3973 48.373 22.2605 48.3542C22.1285 48.3306 21.9539 48.3093 21.7369 48.2905C21.7181 48.2056 21.7086 48.1466 21.7086 48.1136C21.7086 48.0664 21.7181 48.0145 21.7369 47.9579ZM33.0441 47.9579C34.1008 47.9957 34.9216 48.0145 35.5065 48.0145C36.0914 48.0145 36.9122 47.9957 37.9689 47.9579C37.9877 48.0334 37.9972 48.0853 37.9972 48.1136C37.9972 48.1466 37.9877 48.2056 37.9689 48.2905C37.7519 48.3093 37.575 48.3306 37.4382 48.3542C37.3061 48.373 37.141 48.406 36.9429 48.4532C36.7495 48.5004 36.6009 48.5688 36.4971 48.6584C36.3933 48.7433 36.3391 48.8471 36.3344 48.9698C36.273 50.5736 36.2424 52.0666 36.2424 53.4488C36.2424 54.1611 36.2683 55.6541 36.3202 57.9277H38.5066C39.2001 57.8806 39.8204 57.7792 40.3676 57.6235C40.9148 57.4678 41.37 57.2697 41.7332 57.0291C42.1012 56.7838 42.4031 56.5315 42.6389 56.272C42.8795 56.0078 43.0871 55.713 43.2616 55.3875C43.3842 55.4347 43.4644 55.4984 43.5022 55.5786C43.3088 55.9371 43.1578 56.2272 43.0493 56.4489C42.9455 56.6706 42.83 56.9631 42.7026 57.3263C42.58 57.6848 42.4998 58.0292 42.462 58.3594H36.3202C35.0418 58.3594 33.9451 58.3735 33.0299 58.4018C33.0111 58.3452 33.0016 58.2981 33.0016 58.2603C33.0016 58.2273 33.0111 58.1636 33.0299 58.0693C33.2469 58.0504 33.4215 58.0315 33.5536 58.0127C33.6904 57.9891 33.8555 57.9537 34.0489 57.9065C34.247 57.8594 34.3979 57.7933 34.5017 57.7084C34.6055 57.6188 34.6597 57.5126 34.6645 57.39C34.7211 55.9135 34.7494 54.4252 34.7494 52.9251C34.7494 51.3968 34.7258 50.0783 34.6786 48.9698C34.6739 48.8471 34.6196 48.7433 34.5159 48.6584C34.4121 48.5688 34.2611 48.5004 34.063 48.4532C33.8696 48.406 33.7045 48.373 33.5677 48.3542C33.4356 48.3306 33.2611 48.3093 33.0441 48.2905C33.0252 48.2056 33.0158 48.1466 33.0158 48.1136C33.0158 48.0664 33.0252 48.0145 33.0441 47.9579ZM44.3513 47.9579C45.4079 47.9957 46.2287 48.0145 46.8137 48.0145C47.3986 48.0145 48.2194 47.9957 49.276 47.9579C49.2949 48.0334 49.3043 48.0853 49.3043 48.1136C49.3043 48.1655 49.2949 48.2244 49.276 48.2905C49.059 48.3093 48.8822 48.3306 48.7454 48.3542C48.6133 48.373 48.4482 48.406 48.25 48.4532C48.0566 48.5004 47.908 48.5688 47.8043 48.6584C47.7005 48.7433 47.6462 48.8471 47.6415 48.9698C47.5802 50.5736 47.5495 52.0666 47.5495 53.4488C47.5495 54.4582 47.5755 55.772 47.6274 57.39C47.6321 57.5126 47.6863 57.6188 47.7901 57.7084C47.8939 57.7933 48.0425 57.8594 48.2359 57.9065C48.434 57.9537 48.5991 57.9891 48.7312 58.0127C48.868 58.0315 49.0449 58.0504 49.2619 58.0693C49.2808 58.1259 49.2902 58.1896 49.2902 58.2603C49.2902 58.2981 49.2808 58.3452 49.2619 58.4018C48.46 58.3735 47.6392 58.3594 46.7995 58.3594C45.9504 58.3594 45.1296 58.3735 44.3371 58.4018C44.3182 58.3452 44.3088 58.2981 44.3088 58.2603C44.3088 58.1801 44.3182 58.1164 44.3371 58.0693C44.4786 58.0551 44.5918 58.0433 44.6768 58.0339C44.7617 58.0245 44.8772 58.0079 45.0235 57.9844C45.1744 57.9608 45.2947 57.9348 45.3843 57.9065C45.4787 57.8735 45.5754 57.8334 45.6744 57.7862C45.7735 57.7391 45.8466 57.6825 45.8938 57.6164C45.9457 57.5504 45.9716 57.4749 45.9716 57.39C46.0282 55.9135 46.0565 54.4252 46.0565 52.9251C46.0565 51.3968 46.033 50.0783 45.9858 48.9698C45.9811 48.8471 45.9268 48.7433 45.823 48.6584C45.7193 48.5688 45.5683 48.5004 45.3702 48.4532C45.1768 48.406 45.0117 48.373 44.8749 48.3542C44.7428 48.3306 44.5683 48.3093 44.3513 48.2905C44.3324 48.2056 44.323 48.1466 44.323 48.1136C44.323 48.0664 44.3324 48.0145 44.3513 47.9579ZM57.1727 50.951C56.9934 50.0877 56.6632 49.4179 56.182 48.9415C55.7056 48.465 55.1325 48.2268 54.4626 48.2268C53.8069 48.2268 53.2975 48.3825 52.9342 48.6938C52.5757 49.0051 52.3965 49.4203 52.3965 49.9391C52.3965 50.2269 52.4224 50.4651 52.4743 50.6538C52.5262 50.8425 52.6323 51.0265 52.7927 51.2057C52.9531 51.3803 53.1866 51.5359 53.4932 51.6727C53.7999 51.8048 54.2008 51.9322 54.6961 52.0548C54.965 52.1209 55.1985 52.1822 55.3966 52.2388C55.5995 52.2954 55.8212 52.3732 56.0618 52.4723C56.3071 52.5714 56.517 52.6775 56.6915 52.7907C56.8708 52.9039 57.0477 53.0454 57.2222 53.2153C57.4014 53.3804 57.5453 53.5643 57.6538 53.7672C57.767 53.97 57.8567 54.2106 57.9227 54.4889C57.9935 54.7625 58.0288 55.062 58.0288 55.3875C58.0288 55.8215 57.9486 56.2225 57.7883 56.5904C57.6279 56.9536 57.418 57.2603 57.1585 57.5103C56.8991 57.7603 56.5995 57.9726 56.2599 58.1471C55.9202 58.3216 55.5759 58.449 55.2268 58.5292C54.8777 58.6094 54.531 58.6495 54.1867 58.6495C53.1394 58.6495 52.0238 58.3782 50.8398 57.8358C50.8634 57.3263 50.8752 57.0126 50.8752 56.8947C50.8752 56.1258 50.8115 55.3592 50.6841 54.595C50.736 54.562 50.7879 54.5455 50.8398 54.5455C50.9058 54.5455 50.9648 54.562 51.0167 54.595C51.1158 55.2036 51.2785 55.7413 51.5049 56.2083C51.7361 56.6753 52.0002 57.0456 52.2974 57.3192C52.5946 57.5881 52.9012 57.791 53.2173 57.9277C53.538 58.0598 53.8612 58.1259 54.1867 58.1259C54.9273 58.1259 55.4957 57.9348 55.8919 57.5527C56.2929 57.1659 56.4934 56.6565 56.4934 56.0244C56.4934 55.3875 56.3448 54.9087 56.0476 54.588C55.7551 54.2625 55.1938 53.9983 54.3636 53.7955C53.3258 53.536 52.5144 53.1539 51.9295 52.6492C51.3493 52.1397 51.0591 51.4675 51.0591 50.6326C51.0591 50.1939 51.1299 49.8023 51.2714 49.458C51.4177 49.1089 51.604 48.8306 51.8304 48.623C52.0616 48.4108 52.3304 48.2362 52.6371 48.0994C52.9437 47.9579 53.2456 47.8612 53.5428 47.8093C53.8447 47.7527 54.1513 47.7244 54.4626 47.7244C55.3966 47.7244 56.3684 47.9414 57.3779 48.3754C57.3496 48.6537 57.3354 48.9438 57.3354 49.2457C57.3354 49.9533 57.392 50.5217 57.5052 50.951C57.4439 50.9746 57.392 50.9864 57.3496 50.9864C57.3024 50.9864 57.2434 50.9746 57.1727 50.951ZM70.1709 52.2317C70.1521 52.1562 70.1426 52.102 70.1426 52.069C70.1426 52.0124 70.1521 51.9558 70.1709 51.8991C70.8078 51.9275 71.2229 51.9416 71.4163 51.9416C71.8644 51.9416 72.4399 51.9275 73.1428 51.8991C73.1617 51.9558 73.1711 52.0029 73.1711 52.0407C73.1711 52.0642 73.1617 52.1279 73.1428 52.2317C72.8267 52.2694 72.5885 52.3402 72.4281 52.444C72.2725 52.5478 72.1333 52.6987 72.0107 52.8968C71.8125 53.2035 71.5437 53.6799 71.204 54.3262C70.8644 54.9677 70.5012 55.5691 70.1143 56.1305C70.1757 56.2012 70.2912 56.3546 70.4611 56.5904C70.6356 56.8216 70.7771 57.0008 70.8856 57.1282C70.9988 57.2555 71.1498 57.3806 71.3385 57.5032C71.5319 57.6211 71.7276 57.6801 71.9258 57.6801C72.1805 57.6801 72.3857 57.6023 72.5413 57.4466C72.7017 57.2862 72.8433 57.0551 72.9659 56.7532C73.1216 56.7532 73.2324 56.7815 73.2985 56.8381C73.2419 57.0787 73.1735 57.2886 73.0933 57.4678C73.0178 57.6471 72.9117 57.8287 72.7749 58.0127C72.6381 58.1919 72.4517 58.3311 72.2159 58.4301C71.9847 58.5292 71.7135 58.5787 71.4021 58.5787C71.2748 58.5787 71.171 58.574 71.0908 58.5646C71.0153 58.5599 70.8974 58.5316 70.737 58.4797C70.5813 58.4325 70.4375 58.3641 70.3054 58.2745C70.1733 58.1801 70.0153 58.0386 69.8313 57.8499C69.6521 57.6565 69.4752 57.4254 69.3006 57.1565C68.9751 57.4584 68.6614 57.7108 68.3595 57.9136C68.0576 58.1117 67.777 58.258 67.5175 58.3523C67.2581 58.4419 67.0364 58.5009 66.8524 58.5292C66.6684 58.5622 66.475 58.5787 66.2722 58.5787C65.8759 58.5787 65.5174 58.5221 65.1966 58.4089C64.8806 58.2957 64.6211 58.1518 64.4183 57.9773C64.2155 57.798 64.0456 57.5928 63.9088 57.3617C63.772 57.1258 63.6753 56.8923 63.6187 56.6612C63.5621 56.43 63.5338 56.1989 63.5338 55.9677C63.5338 55.7932 63.5503 55.6116 63.5834 55.4229C63.6211 55.2342 63.6919 55.0196 63.7956 54.779C63.8994 54.5337 64.0338 54.3002 64.199 54.0785C64.3641 53.8568 64.5905 53.6304 64.8782 53.3992C65.166 53.1634 65.4962 52.9582 65.8688 52.7836C65.6424 52.5619 65.4655 52.3803 65.3382 52.2388C65.2155 52.0973 65.0881 51.9298 64.9561 51.7364C64.8287 51.5383 64.7367 51.3354 64.6801 51.1279C64.6282 50.9156 64.6023 50.6797 64.6023 50.4203C64.6023 49.8259 64.8311 49.3259 65.2886 48.9202C65.7462 48.5098 66.3052 48.3046 66.9656 48.3046C67.6024 48.3046 68.1048 48.465 68.4727 48.7858C68.8407 49.1066 69.0247 49.5877 69.0247 50.2293C69.0247 50.7481 68.8784 51.1868 68.586 51.5454C68.2935 51.9039 67.8642 52.2435 67.2982 52.5643C67.8171 53.0879 68.2463 53.5643 68.586 53.9936C68.9256 54.4229 69.3384 54.9889 69.8242 55.6918C70.5082 54.6399 70.888 53.7082 70.9634 52.8968C70.9729 52.8402 70.9752 52.7671 70.9705 52.6775C70.9705 52.5548 70.9092 52.4581 70.7865 52.3874C70.6639 52.3166 70.4587 52.2647 70.1709 52.2317ZM68.9964 56.6612C68.5812 55.9866 68.1803 55.404 67.7935 54.9134C67.4067 54.4181 66.8996 53.8426 66.2722 53.1869C65.8901 53.352 65.5669 53.6516 65.3028 54.0856C65.0386 54.5196 64.9065 55.0314 64.9065 55.621C64.9065 56.2343 65.0952 56.7036 65.4726 57.0291C65.85 57.3546 66.3335 57.5174 66.9231 57.5174C67.7722 57.5174 68.4633 57.232 68.9964 56.6612ZM66.9231 52.2176C67.2581 52.043 67.5553 51.7907 67.8147 51.4604C68.0789 51.1255 68.2109 50.7246 68.2109 50.2576C68.2109 49.8189 68.0977 49.491 67.8713 49.274C67.6449 49.0523 67.3666 48.9415 67.0364 48.9415C66.6543 48.9415 66.3594 49.0806 66.1519 49.3589C65.9443 49.6372 65.8405 49.9863 65.8405 50.4061C65.8405 51.0194 66.2014 51.6232 66.9231 52.2176ZM83.6575 47.7244C84.0301 47.7244 84.4004 47.7504 84.7684 47.8022C85.141 47.8494 85.4972 47.9084 85.8368 47.9791C86.1812 48.0452 86.5067 48.1112 86.8133 48.1773C87.1199 48.2433 87.3959 48.2905 87.6412 48.3188C87.5846 48.4886 87.5563 48.7881 87.5563 49.2174C87.5563 50.0524 87.6813 50.7764 87.9313 51.3897C87.903 51.4746 87.8157 51.5265 87.6695 51.5454L87.3652 50.8944C87.2143 50.5689 87.0326 50.2481 86.8204 49.9321C86.6081 49.6113 86.3534 49.3259 86.0562 49.0759C85.759 48.8212 85.4123 48.616 85.016 48.4603C84.6245 48.3046 84.1716 48.2268 83.6575 48.2268C83.2141 48.2268 82.8202 48.2999 82.4758 48.4461C82.1315 48.5924 81.8296 48.7905 81.5701 49.0405C81.3107 49.2858 81.0913 49.5736 80.9121 49.9038C80.7328 50.2293 80.5866 50.576 80.4734 50.9439C80.3649 51.3119 80.2847 51.6892 80.2328 52.076C80.1856 52.4629 80.162 52.8379 80.162 53.2011C80.162 53.8049 80.2398 54.3828 80.3955 54.9347C80.5559 55.4866 80.8036 55.9748 81.1385 56.3994C81.4734 56.8192 81.898 57.1541 82.4121 57.4041C82.931 57.6542 83.549 57.7792 84.266 57.7792C85.6387 57.7792 86.6765 57.3499 87.3794 56.4914C87.4548 56.4914 87.5162 56.5126 87.5633 56.555C87.6152 56.5975 87.6412 56.6494 87.6412 56.7107C87.4147 57.0456 87.1388 57.3357 86.8133 57.581C86.4925 57.8263 86.1505 58.0292 85.7873 58.1896C85.4241 58.3452 85.0561 58.4608 84.6835 58.5363C84.3155 58.6117 83.9735 58.6495 83.6575 58.6495C83.3131 58.6495 82.9405 58.6117 82.5395 58.5363C82.1432 58.4655 81.7446 58.3452 81.3437 58.1754C80.9474 58.0056 80.5653 57.7839 80.1974 57.5103C79.8342 57.232 79.511 56.8923 79.228 56.4914C78.945 56.0857 78.7185 55.6116 78.5487 55.0691C78.3789 54.5266 78.294 53.904 78.294 53.2011C78.294 52.4935 78.3789 51.8685 78.5487 51.326C78.7185 50.7788 78.945 50.3024 79.228 49.8967C79.5158 49.491 79.8436 49.1514 80.2115 48.8778C80.5842 48.5995 80.9687 48.3754 81.3649 48.2056C81.7612 48.031 82.1574 47.9084 82.5536 47.8376C82.9499 47.7621 83.3178 47.7244 83.6575 47.7244ZM94.6745 47.7173C95.0378 47.7173 95.4198 47.7551 95.8208 47.8305C96.2265 47.906 96.6251 48.031 97.0166 48.2056C97.4129 48.3754 97.7902 48.6018 98.1488 48.8848C98.512 49.1632 98.8304 49.5052 99.104 49.9108C99.3776 50.3165 99.5946 50.7906 99.755 51.3331C99.9201 51.8756 100.003 52.4982 100.003 53.2011C100.003 53.9087 99.9224 54.5361 99.762 55.0833C99.6017 55.6257 99.3847 56.0998 99.1111 56.5055C98.8375 56.9065 98.5191 57.2461 98.1558 57.5244C97.7973 57.798 97.4176 58.0197 97.0166 58.1896C96.6204 58.3547 96.2147 58.4726 95.7996 58.5433C95.3845 58.6188 94.9882 58.6566 94.6108 58.6566C94.2523 58.6566 93.8702 58.6188 93.4646 58.5433C93.0636 58.4726 92.665 58.3547 92.2687 58.1896C91.8725 58.0197 91.4928 57.798 91.1295 57.5244C90.771 57.2461 90.4526 56.9065 90.1743 56.5055C89.9007 56.0998 89.6814 55.6257 89.5162 55.0833C89.3559 54.5361 89.2757 53.9087 89.2757 53.2011C89.2757 52.4746 89.3606 51.8355 89.5304 51.2836C89.7002 50.7269 89.9243 50.2458 90.2026 49.8401C90.4856 49.4344 90.8111 49.0971 91.1791 48.8282C91.5517 48.5546 91.9362 48.3353 92.3324 48.1702C92.7334 48.0051 93.1344 47.8895 93.5353 47.8235C93.941 47.7527 94.3207 47.7173 94.6745 47.7173ZM94.6391 48.2268C94.1957 48.2268 93.8018 48.2999 93.4575 48.4461C93.1131 48.5924 92.8112 48.7905 92.5518 49.0405C92.2923 49.2858 92.073 49.5736 91.8937 49.9038C91.7145 50.2293 91.5682 50.576 91.455 50.9439C91.3465 51.3119 91.2663 51.6892 91.2144 52.076C91.1673 52.4629 91.1437 52.8379 91.1437 53.2011C91.1437 53.5502 91.1673 53.9134 91.2144 54.2908C91.2616 54.6682 91.3395 55.0408 91.4479 55.4088C91.5564 55.772 91.698 56.1187 91.8725 56.4489C92.0518 56.7791 92.2711 57.0692 92.5306 57.3192C92.79 57.5692 93.0919 57.7697 93.4363 57.9207C93.7853 58.0669 94.1863 58.14 94.6391 58.14C95.0826 58.14 95.4765 58.0693 95.8208 57.9277C96.1652 57.7815 96.4671 57.5858 96.7265 57.3405C96.986 57.0904 97.203 56.8027 97.3775 56.4772C97.5567 56.147 97.7006 55.8003 97.8091 55.4371C97.9223 55.0691 98.0025 54.6941 98.0497 54.312C98.1016 53.9299 98.1275 53.5596 98.1275 53.2011C98.1275 52.8379 98.1016 52.4629 98.0497 52.076C98.0025 51.6892 97.9223 51.3119 97.8091 50.9439C97.7006 50.576 97.5567 50.2293 97.3775 49.9038C97.1982 49.5736 96.9789 49.2858 96.7194 49.0405C96.46 48.7905 96.1581 48.5924 95.8137 48.4461C95.4694 48.2999 95.0778 48.2268 94.6391 48.2268ZM101.637 47.9579C102.524 47.9957 103.64 48.0145 104.984 48.0145L107.722 55.43H107.758L110.609 48.0145H111.423C112.008 48.0145 112.833 47.9957 113.9 47.9579C113.918 48.0334 113.928 48.0853 113.928 48.1136C113.928 48.1466 113.918 48.2056 113.9 48.2905C113.73 48.3046 113.593 48.3188 113.489 48.3329C113.385 48.3471 113.246 48.3707 113.072 48.4037C112.902 48.4367 112.765 48.4768 112.661 48.524C112.557 48.5664 112.466 48.6278 112.385 48.708C112.305 48.7834 112.263 48.8707 112.258 48.9698C112.211 50.0783 112.187 51.3968 112.187 52.9251C112.187 54.4771 112.218 55.9654 112.279 57.39C112.284 57.5126 112.338 57.6188 112.442 57.7084C112.546 57.7933 112.694 57.8594 112.888 57.9065C113.086 57.9537 113.251 57.9891 113.383 58.0127C113.52 58.0315 113.697 58.0504 113.914 58.0693C113.933 58.1447 113.942 58.2084 113.942 58.2603C113.942 58.2981 113.933 58.3452 113.914 58.4018C113.116 58.3735 112.296 58.3594 111.451 58.3594C110.602 58.3594 109.781 58.3735 108.989 58.4018C108.97 58.3452 108.961 58.2981 108.961 58.2603C108.961 58.1801 108.97 58.1164 108.989 58.0693C109.206 58.0504 109.38 58.0315 109.513 58.0127C109.649 57.9891 109.814 57.9537 110.008 57.9065C110.206 57.8594 110.357 57.7933 110.461 57.7084C110.564 57.6188 110.619 57.5126 110.623 57.39C110.671 55.9182 110.694 54.6045 110.694 53.4488C110.694 52.3402 110.671 51.0784 110.623 49.6632H110.567L107.333 58.1825H107.262L103.816 49.4934H103.739C103.701 50.6397 103.682 51.9581 103.682 53.4488C103.682 54.5431 103.706 55.8215 103.753 57.2838C103.762 57.7131 104.283 57.9749 105.317 58.0693C105.34 58.1495 105.352 58.2131 105.352 58.2603C105.352 58.3075 105.34 58.3547 105.317 58.4018C104.567 58.3735 103.897 58.3594 103.307 58.3594C102.93 58.3594 102.298 58.3735 101.411 58.4018C101.387 58.3547 101.375 58.3075 101.375 58.2603C101.375 58.1801 101.387 58.1164 101.411 58.0693C102.453 57.9702 102.974 57.7084 102.974 57.2838C103.031 55.8121 103.059 54.3592 103.059 52.9251C103.059 51.8921 103.045 50.7953 103.017 49.6349C103.012 49.4368 103 49.2717 102.982 49.1396C102.963 49.0028 102.927 48.8848 102.875 48.7858C102.824 48.6867 102.769 48.6089 102.713 48.5523C102.656 48.4957 102.569 48.4461 102.451 48.4037C102.333 48.3565 102.217 48.3235 102.104 48.3046C101.996 48.281 101.84 48.2551 101.637 48.2268C101.618 48.1891 101.609 48.1466 101.609 48.0994C101.609 48.0428 101.618 47.9957 101.637 47.9579ZM116.687 53.562C116.687 53.2223 116.664 51.668 116.617 48.899C116.603 48.7905 116.546 48.6985 116.447 48.623C116.352 48.5428 116.213 48.4815 116.029 48.4391C115.845 48.3966 115.694 48.366 115.577 48.3471C115.463 48.3282 115.303 48.3093 115.095 48.2905C115.076 48.2056 115.067 48.1466 115.067 48.1136C115.067 48.0853 115.076 48.0334 115.095 47.9579C115.218 47.9626 115.51 47.9744 115.973 47.9933C116.435 48.0074 116.791 48.0145 117.041 48.0145C117.253 48.0145 117.654 48.0051 118.244 47.9862C118.834 47.9673 119.258 47.9579 119.518 47.9579C120.725 47.9579 121.648 48.2386 122.284 48.7999C122.921 49.3613 123.24 50.109 123.24 51.043C123.24 51.9298 122.954 52.6539 122.383 53.2153C121.813 53.7766 121.001 54.0573 119.949 54.0573C119.317 54.0573 118.749 53.9252 118.244 53.661C118.244 54.812 118.258 56.055 118.287 57.39C118.291 57.5126 118.346 57.6188 118.449 57.7084C118.553 57.7933 118.702 57.8594 118.895 57.9065C119.093 57.9537 119.258 57.9891 119.39 58.0127C119.527 58.0315 119.704 58.0504 119.921 58.0693C119.94 58.1636 119.949 58.2273 119.949 58.2603C119.949 58.2981 119.94 58.3452 119.921 58.4018C119.119 58.3735 118.298 58.3594 117.459 58.3594C116.61 58.3594 115.789 58.3735 114.996 58.4018C114.977 58.3452 114.968 58.2981 114.968 58.2603C114.968 58.1801 114.977 58.1164 114.996 58.0693C115.213 58.0504 115.388 58.0315 115.52 58.0127C115.657 57.9891 115.822 57.9537 116.015 57.9065C116.213 57.8594 116.364 57.7933 116.468 57.7084C116.572 57.6188 116.626 57.5126 116.631 57.39C116.669 56.1777 116.687 54.9017 116.687 53.562ZM118.287 48.4461C118.258 50.1443 118.244 51.7246 118.244 53.1869C118.631 53.3615 119.015 53.4488 119.397 53.4488C120.063 53.4488 120.563 53.2341 120.898 52.8049C121.232 52.3756 121.4 51.7836 121.4 51.0288C121.4 49.2882 120.539 48.4178 118.817 48.4178C118.709 48.4178 118.532 48.4273 118.287 48.4461ZM129.353 47.8518C129.424 47.7999 129.499 47.7669 129.58 47.7527L133.45 57.4183C133.497 57.5362 133.575 57.6376 133.684 57.7226C133.792 57.8027 133.926 57.8664 134.087 57.9136C134.252 57.9561 134.393 57.9891 134.511 58.0127C134.634 58.0315 134.783 58.0504 134.957 58.0693C134.976 58.1447 134.985 58.2084 134.985 58.2603C134.985 58.3169 134.976 58.3688 134.957 58.416C133.938 58.3782 133.176 58.3594 132.672 58.3594C132.125 58.3594 131.332 58.3782 130.294 58.416C130.275 58.3594 130.266 58.3028 130.266 58.2462C130.266 58.1848 130.275 58.1259 130.294 58.0693C131.247 57.9655 131.724 57.7862 131.724 57.5315C131.724 57.4513 131.714 57.3688 131.695 57.2838L130.669 54.6516C130.358 54.6422 129.938 54.6375 129.41 54.6375C129.16 54.6375 128.511 54.6469 127.464 54.6658L126.381 57.4183V57.5032C126.381 57.5504 126.388 57.5952 126.403 57.6376C126.421 57.6801 126.45 57.7178 126.487 57.7509C126.53 57.7839 126.57 57.8122 126.608 57.8358C126.645 57.8594 126.697 57.8829 126.763 57.9065C126.834 57.9254 126.893 57.9419 126.94 57.9561C126.992 57.9655 127.061 57.9773 127.145 57.9914C127.235 58.0056 127.304 58.0174 127.351 58.0268C127.398 58.0315 127.466 58.0386 127.556 58.048C127.65 58.0575 127.716 58.0645 127.754 58.0693C127.773 58.1447 127.782 58.2084 127.782 58.2603C127.782 58.2886 127.773 58.3405 127.754 58.416C126.697 58.3782 126.103 58.3594 125.971 58.3594C125.716 58.3594 125.06 58.3782 124.004 58.416C123.985 58.3594 123.976 58.3028 123.976 58.2462C123.976 58.1848 123.985 58.1259 124.004 58.0693C124.985 57.9561 125.544 57.7155 125.681 57.3475L128.723 49.6773L128.568 49.2599C128.837 49.0806 129.023 48.8872 129.127 48.6796C129.235 48.4721 129.311 48.1961 129.353 47.8518ZM129.41 54.0856C129.844 54.0856 130.186 54.0809 130.436 54.0714L129.091 50.5901H129.063L127.712 54.0573C128.155 54.0761 128.721 54.0856 129.41 54.0856ZM135.828 47.9579C136.601 47.9957 137.578 48.0145 138.757 48.0145C142.092 52.194 143.885 54.4205 144.135 54.6941C144.385 54.963 144.51 55.0974 144.51 55.0974H144.566C144.585 54.1917 144.594 53.4629 144.594 52.911C144.594 51.8213 144.571 50.5406 144.524 49.0688C144.514 48.6443 143.991 48.3848 142.953 48.2905C142.934 48.1867 142.925 48.123 142.925 48.0994C142.925 48.0617 142.934 48.0145 142.953 47.9579C143.712 47.9862 144.385 48.0004 144.969 48.0004C145.347 48.0004 145.979 47.9862 146.866 47.9579C146.885 48.0145 146.894 48.0617 146.894 48.0994C146.894 48.1749 146.885 48.2386 146.866 48.2905C145.833 48.3848 145.311 48.6443 145.302 49.0688C145.245 50.5453 145.217 52.0006 145.217 53.4346C145.217 55.6281 145.241 57.2791 145.288 58.3877L145.161 58.4018L138.127 49.7481H138.056C138.028 50.9699 138.014 52.2034 138.014 53.4488C138.014 54.5431 138.038 55.8215 138.085 57.2838C138.094 57.7131 138.615 57.9749 139.648 58.0693C139.672 58.1495 139.684 58.2131 139.684 58.2603C139.684 58.3075 139.672 58.3547 139.648 58.4018C138.898 58.3735 138.229 58.3594 137.639 58.3594C137.262 58.3594 136.629 58.3735 135.743 58.4018C135.719 58.3547 135.707 58.3075 135.707 58.2603C135.707 58.1801 135.719 58.1164 135.743 58.0693C136.785 57.9702 137.306 57.7084 137.306 57.2838C137.363 55.8121 137.391 54.3592 137.391 52.9251C137.391 51.3685 137.372 50.017 137.335 48.8707C136.938 48.5263 136.436 48.3329 135.828 48.2905C135.799 48.2292 135.785 48.1749 135.785 48.1277C135.785 48.057 135.799 48.0004 135.828 47.9579ZM147.361 47.9579C148.427 47.9957 149.283 48.0145 149.93 48.0145C150.812 48.0145 151.609 47.9957 152.321 47.9579C152.34 48.0334 152.35 48.0853 152.35 48.1136C152.35 48.1655 152.34 48.2244 152.321 48.2905C151.769 48.3141 151.364 48.3636 151.104 48.4391C150.849 48.5145 150.722 48.6372 150.722 48.807C150.722 48.8683 150.762 48.9745 150.842 49.1254L153.015 53.0242H153.071L155.449 49.0688C155.505 48.9745 155.534 48.8778 155.534 48.7787C155.534 48.6325 155.439 48.5263 155.251 48.4603C155.067 48.3895 154.788 48.3329 154.416 48.2905C154.397 48.1867 154.387 48.123 154.387 48.0994C154.387 48.0617 154.397 48.0145 154.416 47.9579C155.024 47.9862 155.576 48.0004 156.071 48.0004C156.604 48.0004 157.14 47.9862 157.678 47.9579C157.697 48.0145 157.706 48.0617 157.706 48.0994C157.706 48.1749 157.697 48.2386 157.678 48.2905C157.333 48.3235 157.043 48.3943 156.807 48.5028C156.571 48.6112 156.369 48.7999 156.199 49.0688L153.262 53.8096C153.262 54.8285 153.286 56.022 153.333 57.39C153.338 57.5126 153.392 57.6188 153.496 57.7084C153.6 57.7933 153.748 57.8594 153.942 57.9065C154.14 57.9537 154.305 57.9891 154.437 58.0127C154.574 58.0315 154.751 58.0504 154.968 58.0693C154.986 58.1259 154.996 58.1896 154.996 58.2603C154.996 58.2981 154.986 58.3452 154.968 58.4018C154.175 58.3735 153.354 58.3594 152.505 58.3594C151.661 58.3594 150.84 58.3735 150.043 58.4018C150.024 58.3452 150.015 58.2981 150.015 58.2603C150.015 58.1801 150.024 58.1164 150.043 58.0693C150.26 58.0504 150.434 58.0315 150.566 58.0127C150.703 57.9891 150.868 57.9537 151.062 57.9065C151.26 57.8594 151.411 57.7933 151.515 57.7084C151.618 57.6188 151.673 57.5126 151.677 57.39C151.725 56.206 151.755 55.0125 151.769 53.8096L149.003 48.9698C148.819 48.7386 148.592 48.5759 148.323 48.4815C148.055 48.3872 147.734 48.3235 147.361 48.2905C147.342 48.2056 147.333 48.1466 147.333 48.1136C147.333 48.0664 147.342 48.0145 147.361 47.9579Z" fill="#8C8781"/>
<path d="M9.13373 63.8556C9.32006 63.8556 9.50521 63.8686 9.68918 63.8945C9.87551 63.9181 10.0536 63.9476 10.2234 63.983C10.3956 64.016 10.5583 64.049 10.7116 64.082C10.8649 64.1151 11.0029 64.1386 11.1256 64.1528C11.0973 64.2377 11.0831 64.3875 11.0831 64.6021C11.0831 65.0196 11.1456 65.3816 11.2706 65.6883C11.2565 65.7307 11.2128 65.7567 11.1397 65.7661L10.9876 65.4406C10.9121 65.2779 10.8213 65.1175 10.7152 64.9594C10.609 64.7991 10.4817 64.6564 10.3331 64.5314C10.1845 64.404 10.0111 64.3014 9.813 64.2236C9.61724 64.1457 9.39081 64.1068 9.13373 64.1068C8.91202 64.1068 8.71507 64.1434 8.54289 64.2165C8.37072 64.2896 8.21976 64.3887 8.09004 64.5137C7.96032 64.6363 7.85064 64.7802 7.76102 64.9453C7.67139 65.108 7.59827 65.2814 7.54166 65.4654C7.48742 65.6493 7.44732 65.838 7.42138 66.0314C7.39779 66.2248 7.386 66.4123 7.386 66.594C7.386 66.8959 7.42491 67.1848 7.50275 67.4607C7.58294 67.7367 7.70677 67.9808 7.87423 68.1931C8.04169 68.403 8.25396 68.5705 8.51105 68.6955C8.7705 68.8205 9.07948 68.883 9.43799 68.883C10.1243 68.883 10.6432 68.6684 10.9947 68.2391C11.0324 68.2391 11.0631 68.2497 11.0867 68.2709C11.1126 68.2922 11.1256 68.3181 11.1256 68.3488C11.0124 68.5162 10.8744 68.6613 10.7116 68.7839C10.5512 68.9066 10.3802 69.008 10.1986 69.0882C10.017 69.166 9.83305 69.2238 9.64672 69.2615C9.46275 69.2993 9.29175 69.3182 9.13373 69.3182C8.96155 69.3182 8.77522 69.2993 8.57473 69.2615C8.37661 69.2262 8.17731 69.166 7.97683 69.0811C7.7787 68.9962 7.58766 68.8853 7.40369 68.7485C7.22207 68.6094 7.06051 68.4396 6.91899 68.2391C6.77748 68.0362 6.66426 67.7992 6.57935 67.528C6.49444 67.2567 6.45199 66.9454 6.45199 66.594C6.45199 66.2402 6.49444 65.9277 6.57935 65.6564C6.66426 65.3828 6.77748 65.1446 6.91899 64.9418C7.06287 64.7389 7.22679 64.5691 7.41076 64.4323C7.59709 64.2931 7.78932 64.1811 7.98744 64.0962C8.18556 64.0089 8.38369 63.9476 8.58181 63.9122C8.77993 63.8745 8.96391 63.8556 9.13373 63.8556ZM14.6423 63.8521C14.8239 63.8521 15.0149 63.8709 15.2154 63.9087C15.4182 63.9464 15.6175 64.0089 15.8133 64.0962C16.0114 64.1811 16.2001 64.2943 16.3794 64.4358C16.561 64.575 16.7202 64.746 16.857 64.9488C16.9938 65.1517 17.1023 65.3887 17.1825 65.6599C17.265 65.9312 17.3063 66.2425 17.3063 66.594C17.3063 66.9477 17.2662 67.2614 17.186 67.535C17.1058 67.8063 16.9973 68.0433 16.8605 68.2462C16.7237 68.4466 16.5645 68.6165 16.3829 68.7556C16.2037 68.8924 16.0138 69.0033 15.8133 69.0882C15.6152 69.1707 15.4123 69.2297 15.2048 69.2651C14.9972 69.3028 14.7991 69.3217 14.6104 69.3217C14.4312 69.3217 14.2401 69.3028 14.0373 69.2651C13.8368 69.2297 13.6375 69.1707 13.4394 69.0882C13.2412 69.0033 13.0514 68.8924 12.8698 68.7556C12.6905 68.6165 12.5313 68.4466 12.3921 68.2462C12.2553 68.0433 12.1457 67.8063 12.0631 67.535C11.9829 67.2614 11.9428 66.9477 11.9428 66.594C11.9428 66.2307 11.9853 65.9111 12.0702 65.6352C12.1551 65.3569 12.2671 65.1163 12.4063 64.9134C12.5478 64.7106 12.7106 64.542 12.8945 64.4075C13.0809 64.2707 13.2731 64.1611 13.4712 64.0785C13.6717 63.996 13.8722 63.9382 14.0727 63.9051C14.2755 63.8698 14.4654 63.8521 14.6423 63.8521ZM14.6246 64.1068C14.4029 64.1068 14.2059 64.1434 14.0337 64.2165C13.8616 64.2896 13.7106 64.3887 13.5809 64.5137C13.4512 64.6363 13.3415 64.7802 13.2519 64.9453C13.1622 65.108 13.0891 65.2814 13.0325 65.4654C12.9783 65.6493 12.9382 65.838 12.9122 66.0314C12.8886 66.2248 12.8768 66.4123 12.8768 66.594C12.8768 66.7685 12.8886 66.9501 12.9122 67.1388C12.9358 67.3275 12.9747 67.5138 13.029 67.6978C13.0832 67.8794 13.154 68.0528 13.2412 68.2179C13.3309 68.383 13.4405 68.528 13.5703 68.653C13.7 68.778 13.8509 68.8783 14.0231 68.9537C14.1977 69.0269 14.3981 69.0634 14.6246 69.0634C14.8463 69.0634 15.0432 69.028 15.2154 68.9573C15.3876 68.8842 15.5385 68.7863 15.6682 68.6636C15.798 68.5386 15.9065 68.3948 15.9937 68.232C16.0834 68.0669 16.1553 67.8936 16.2095 67.7119C16.2662 67.528 16.3063 67.3405 16.3298 67.1494C16.3558 66.9584 16.3688 66.7732 16.3688 66.594C16.3688 66.4123 16.3558 66.2248 16.3298 66.0314C16.3063 65.838 16.2662 65.6493 16.2095 65.4654C16.1553 65.2814 16.0834 65.108 15.9937 64.9453C15.9041 64.7802 15.7944 64.6363 15.6647 64.5137C15.535 64.3887 15.384 64.2896 15.2119 64.2165C15.0397 64.1434 14.8439 64.1068 14.6246 64.1068ZM18.1236 63.9724C18.567 63.9912 19.1248 64.0007 19.797 64.0007L21.1662 67.7084H21.1839L22.6096 64.0007H23.0165C23.309 64.0007 23.7217 63.9912 24.2548 63.9724C24.2642 64.0101 24.2689 64.036 24.2689 64.0502C24.2689 64.0667 24.2642 64.0962 24.2548 64.1386C24.1699 64.1457 24.1015 64.1528 24.0496 64.1599C23.9977 64.167 23.9281 64.1787 23.8408 64.1953C23.7559 64.2118 23.6875 64.2318 23.6356 64.2554C23.5837 64.2766 23.5377 64.3073 23.4976 64.3474C23.4576 64.3851 23.4363 64.4288 23.434 64.4783C23.4104 65.0326 23.3986 65.6918 23.3986 66.456C23.3986 67.232 23.4139 67.9761 23.4446 68.6884C23.4469 68.7497 23.4741 68.8028 23.526 68.8476C23.5778 68.8901 23.6521 68.9231 23.7488 68.9467C23.8479 68.9703 23.9305 68.9879 23.9965 68.9997C24.0649 69.0092 24.1533 69.0186 24.2618 69.028C24.2713 69.0658 24.276 69.0976 24.276 69.1236C24.276 69.1424 24.2713 69.166 24.2618 69.1943C23.8632 69.1802 23.4528 69.1731 23.0306 69.1731C22.6061 69.1731 22.1957 69.1802 21.7995 69.1943C21.79 69.166 21.7853 69.1424 21.7853 69.1236C21.7853 69.0835 21.79 69.0516 21.7995 69.028C21.9079 69.0186 21.9952 69.0092 22.0613 68.9997C22.1297 68.9879 22.2122 68.9703 22.3089 68.9467C22.408 68.9231 22.4834 68.8901 22.5353 68.8476C22.5872 68.8028 22.6143 68.7497 22.6167 68.6884C22.6403 67.9525 22.6521 67.2956 22.6521 66.7178C22.6521 66.1635 22.6403 65.5326 22.6167 64.825H22.5884L20.9716 69.0846H20.9362L19.2132 64.7401H19.1743C19.1555 65.3132 19.146 65.9725 19.146 66.7178C19.146 67.265 19.1578 67.9042 19.1814 68.6353C19.1861 68.85 19.4467 68.9809 19.9633 69.028C19.9751 69.0681 19.981 69.1 19.981 69.1236C19.981 69.1472 19.9751 69.1707 19.9633 69.1943C19.5883 69.1802 19.2533 69.1731 18.9585 69.1731C18.7698 69.1731 18.4538 69.1802 18.0103 69.1943C17.9986 69.1707 17.9927 69.1472 17.9927 69.1236C17.9927 69.0835 17.9986 69.0516 18.0103 69.028C18.5316 68.9785 18.7922 68.8476 18.7922 68.6353C18.8205 67.8994 18.8347 67.173 18.8347 66.456C18.8347 65.9394 18.8276 65.3911 18.8135 64.8109C18.8111 64.7118 18.8052 64.6292 18.7958 64.5632C18.7863 64.4948 18.7686 64.4358 18.7427 64.3863C18.7167 64.3368 18.6896 64.2979 18.6613 64.2695C18.633 64.2412 18.5894 64.2165 18.5304 64.1953C18.4715 64.1717 18.4137 64.1552 18.3571 64.1457C18.3028 64.1339 18.225 64.121 18.1236 64.1068C18.1141 64.0879 18.1094 64.0667 18.1094 64.0431C18.1094 64.0148 18.1141 63.9912 18.1236 63.9724ZM24.881 63.9724C25.3244 63.9912 25.8822 64.0007 26.5544 64.0007L27.9236 67.7084H27.9413L29.367 64.0007H29.7739C30.0664 64.0007 30.4791 63.9912 31.0122 63.9724C31.0216 64.0101 31.0263 64.036 31.0263 64.0502C31.0263 64.0667 31.0216 64.0962 31.0122 64.1386C30.9273 64.1457 30.8589 64.1528 30.807 64.1599C30.7551 64.167 30.6855 64.1787 30.5982 64.1953C30.5133 64.2118 30.4449 64.2318 30.393 64.2554C30.3411 64.2766 30.2952 64.3073 30.2551 64.3474C30.215 64.3851 30.1937 64.4288 30.1914 64.4783C30.1678 65.0326 30.156 65.6918 30.156 66.456C30.156 67.232 30.1713 67.9761 30.202 68.6884C30.2043 68.7497 30.2315 68.8028 30.2834 68.8476C30.3353 68.8901 30.4095 68.9231 30.5063 68.9467C30.6053 68.9703 30.6879 68.9879 30.7539 68.9997C30.8223 69.0092 30.9108 69.0186 31.0192 69.028C31.0287 69.0658 31.0334 69.0976 31.0334 69.1236C31.0334 69.1424 31.0287 69.166 31.0192 69.1943C30.6206 69.1802 30.2102 69.1731 29.7881 69.1731C29.3635 69.1731 28.9531 69.1802 28.5569 69.1943C28.5474 69.166 28.5427 69.1424 28.5427 69.1236C28.5427 69.0835 28.5474 69.0516 28.5569 69.028C28.6654 69.0186 28.7526 69.0092 28.8187 68.9997C28.8871 68.9879 28.9696 68.9703 29.0663 68.9467C29.1654 68.9231 29.2409 68.8901 29.2927 68.8476C29.3446 68.8028 29.3718 68.7497 29.3741 68.6884C29.3977 67.9525 29.4095 67.2956 29.4095 66.7178C29.4095 66.1635 29.3977 65.5326 29.3741 64.825H29.3458L27.729 69.0846H27.6936L25.9706 64.7401H25.9317C25.9129 65.3132 25.9034 65.9725 25.9034 66.7178C25.9034 67.265 25.9152 67.9042 25.9388 68.6353C25.9435 68.85 26.2042 68.9809 26.7207 69.028C26.7325 69.0681 26.7384 69.1 26.7384 69.1236C26.7384 69.1472 26.7325 69.1707 26.7207 69.1943C26.3457 69.1802 26.0107 69.1731 25.7159 69.1731C25.5272 69.1731 25.2112 69.1802 24.7678 69.1943C24.756 69.1707 24.7501 69.1472 24.7501 69.1236C24.7501 69.0835 24.756 69.0516 24.7678 69.028C25.289 68.9785 25.5496 68.8476 25.5496 68.6353C25.5779 67.8994 25.5921 67.173 25.5921 66.456C25.5921 65.9394 25.585 65.3911 25.5709 64.8109C25.5685 64.7118 25.5626 64.6292 25.5532 64.5632C25.5437 64.4948 25.5261 64.4358 25.5001 64.3863C25.4742 64.3368 25.447 64.2979 25.4187 64.2695C25.3904 64.2412 25.3468 64.2165 25.2878 64.1953C25.2289 64.1717 25.1711 64.1552 25.1145 64.1457C25.0602 64.1339 24.9824 64.121 24.881 64.1068C24.8715 64.0879 24.8668 64.0667 24.8668 64.0431C24.8668 64.0148 24.8715 63.9912 24.881 63.9724ZM31.5676 63.9724C32.096 63.9912 32.5087 64.0007 32.8059 64.0007C34.8296 63.9889 35.9499 63.9794 36.1669 63.9724C36.1976 64.2082 36.2577 64.4323 36.3473 64.6446C36.437 64.8545 36.5514 65.0786 36.6905 65.3168C36.6717 65.3569 36.6304 65.3887 36.5667 65.4123C36.4818 65.2519 36.3792 65.1092 36.2589 64.9842C36.1386 64.8592 35.9865 64.7413 35.8025 64.6304C35.6209 64.5196 35.3933 64.4288 35.1197 64.358C34.8484 64.2872 34.5383 64.2401 34.1892 64.2165H33.2128C33.1821 65.2142 33.1668 65.9654 33.1668 66.4701H34.1751C34.2435 66.4701 34.3071 66.4654 34.3661 66.456C34.4274 66.4442 34.484 66.4253 34.5359 66.3994C34.5878 66.3711 34.6338 66.3451 34.6739 66.3215C34.7164 66.2956 34.7588 66.2579 34.8013 66.2083C34.8437 66.1564 34.8791 66.114 34.9074 66.081C34.9357 66.0456 34.9699 65.9925 35.01 65.9218C35.0501 65.851 35.0808 65.7956 35.102 65.7555C35.1232 65.7154 35.1551 65.6529 35.1975 65.568C35.2423 65.4831 35.2765 65.4194 35.3001 65.3769C35.3732 65.4052 35.4181 65.4359 35.4346 65.4689C35.3355 65.6434 35.2518 65.8368 35.1834 66.0491C35.115 66.2614 35.0808 66.4383 35.0808 66.5798C35.0808 66.9147 35.1987 67.2839 35.4346 67.6872C35.4157 67.7249 35.3709 67.7568 35.3001 67.7827C35.2742 67.7355 35.2376 67.6683 35.1904 67.581C35.1456 67.4914 35.1103 67.423 35.0843 67.3758C35.0584 67.3287 35.023 67.2685 34.9782 67.1954C34.9334 67.1223 34.8933 67.0657 34.8579 67.0256C34.8249 66.9855 34.7812 66.9407 34.727 66.8911C34.6751 66.8416 34.6232 66.8051 34.5713 66.7815C34.5194 66.7555 34.4593 66.7343 34.3909 66.7178C34.3248 66.6989 34.2529 66.6895 34.1751 66.6895H33.1668C33.1668 67.0645 33.1797 67.8204 33.2057 68.9573H34.3343C34.6833 68.9337 34.9935 68.8865 35.2647 68.8158C35.5383 68.745 35.7659 68.6542 35.9476 68.5433C36.1315 68.4325 36.2837 68.3146 36.404 68.1896C36.5242 68.0645 36.6268 67.9219 36.7117 67.7615C36.7754 67.7851 36.8167 67.8157 36.8356 67.8535C36.8238 67.877 36.7931 67.9336 36.7436 68.0233C36.6941 68.1129 36.661 68.1742 36.6445 68.2072C36.628 68.2379 36.5997 68.2933 36.5596 68.3735C36.5219 68.4514 36.4936 68.515 36.4747 68.5646C36.4558 68.6117 36.4334 68.6719 36.4075 68.745C36.3839 68.8181 36.3639 68.8901 36.3473 68.9608C36.3332 69.0292 36.3214 69.1 36.312 69.1731H33.2057C32.5665 69.1731 32.0181 69.1802 31.5605 69.1943C31.5511 69.166 31.5464 69.1424 31.5464 69.1236C31.5464 69.1071 31.5511 69.0752 31.5605 69.028C31.669 69.0186 31.7563 69.0092 31.8224 68.9997C31.8908 68.9879 31.9733 68.9703 32.07 68.9467C32.1691 68.9231 32.2445 68.8901 32.2964 68.8476C32.3483 68.8028 32.3754 68.7497 32.3778 68.6884C32.4061 67.9502 32.4203 67.206 32.4203 66.456C32.4203 65.6918 32.4085 65.0326 32.3849 64.4783C32.3825 64.417 32.3554 64.3651 32.3035 64.3226C32.2516 64.2778 32.1761 64.2436 32.0771 64.22C31.9804 64.1964 31.8978 64.1799 31.8294 64.1705C31.7634 64.1587 31.6761 64.1481 31.5676 64.1386C31.5582 64.0962 31.5535 64.0667 31.5535 64.0502C31.5535 64.036 31.5582 64.0101 31.5676 63.9724ZM37.2566 63.9724C37.766 63.9912 38.1764 64.0007 38.4878 64.0007C38.6057 64.0007 38.7956 63.996 39.0574 63.9865C39.3192 63.9771 39.5209 63.9724 39.6624 63.9724C40.186 63.9724 40.5976 64.1044 40.8971 64.3686C41.199 64.6328 41.35 64.976 41.35 65.3981C41.35 65.7378 41.2497 66.042 41.0492 66.3109C40.8488 66.5774 40.5752 66.7685 40.2284 66.8841C40.3865 67.1671 40.6035 67.4879 40.8794 67.8464C41.1459 68.2025 41.3995 68.482 41.6401 68.6849C41.883 68.8877 42.1436 69.0021 42.4219 69.028C42.4314 69.0658 42.4361 69.0953 42.4361 69.1165C42.4361 69.1401 42.4314 69.166 42.4219 69.1943C42.2804 69.1872 42.1295 69.1825 41.9691 69.1802C41.8087 69.1778 41.6294 69.1766 41.4313 69.1766C41.2356 69.1766 41.0846 69.1755 40.9785 69.1731C40.344 68.4349 39.8345 67.7084 39.4501 66.9937C39.2779 66.9937 39.0798 66.9666 38.8557 66.9124C38.8557 67.3699 38.8687 67.962 38.8946 68.6884C38.897 68.7497 38.9241 68.8028 38.976 68.8476C39.0279 68.8901 39.1022 68.9231 39.1989 68.9467C39.298 68.9703 39.3805 68.9879 39.4466 68.9997C39.515 69.0092 39.6034 69.0186 39.7119 69.028C39.7213 69.0752 39.7261 69.1071 39.7261 69.1236C39.7261 69.1424 39.7213 69.166 39.7119 69.1943C39.3109 69.1802 38.9005 69.1731 38.4807 69.1731C38.0562 69.1731 37.6458 69.1802 37.2495 69.1943C37.2401 69.166 37.2354 69.1424 37.2354 69.1236C37.2354 69.0835 37.2401 69.0516 37.2495 69.028C37.3203 69.021 37.3769 69.0151 37.4193 69.0104C37.4618 69.0056 37.5196 68.9974 37.5927 68.9856C37.6682 68.9738 37.7283 68.9608 37.7731 68.9467C37.8203 68.9302 37.8686 68.9101 37.9182 68.8865C37.9677 68.8629 38.0043 68.8346 38.0279 68.8016C38.0538 68.7686 38.0668 68.7309 38.0668 68.6884C38.0951 67.9502 38.1092 67.206 38.1092 66.456C38.1092 65.6918 38.0974 65.0326 38.0738 64.4783C38.0715 64.417 38.0444 64.3651 37.9925 64.3226C37.9406 64.2778 37.8651 64.2436 37.766 64.22C37.6693 64.1964 37.5868 64.1799 37.5184 64.1705C37.4524 64.1587 37.3651 64.1481 37.2566 64.1386C37.2472 64.0962 37.2424 64.0667 37.2424 64.0502C37.2424 64.036 37.2472 64.0101 37.2566 63.9724ZM38.9017 64.2165H38.8946C38.8687 65.0868 38.8557 65.8958 38.8557 66.6435C39.0208 66.6977 39.1883 66.7249 39.3581 66.7249C39.5138 66.7249 39.6529 66.6989 39.7756 66.647C39.9006 66.5928 40.0032 66.522 40.0834 66.4348C40.1636 66.3475 40.2296 66.2449 40.2815 66.127C40.3358 66.009 40.3735 65.8899 40.3947 65.7696C40.4183 65.6493 40.4301 65.5255 40.4301 65.3981C40.4301 65.0467 40.3334 64.7601 40.14 64.5384C39.9489 64.3144 39.6765 64.2023 39.3227 64.2023C39.1482 64.2023 39.0079 64.207 38.9017 64.2165ZM45.6237 63.8556C45.8101 63.8556 45.9952 63.8686 46.1792 63.8945C46.3655 63.9181 46.5436 63.9476 46.7134 63.983C46.8856 64.016 47.0483 64.049 47.2017 64.082C47.355 64.1151 47.4929 64.1386 47.6156 64.1528C47.5873 64.2377 47.5731 64.3875 47.5731 64.6021C47.5731 65.0196 47.6356 65.3816 47.7606 65.6883C47.7465 65.7307 47.7029 65.7567 47.6297 65.7661L47.4776 65.4406C47.4021 65.2779 47.3113 65.1175 47.2052 64.9594C47.0991 64.7991 46.9717 64.6564 46.8231 64.5314C46.6745 64.404 46.5012 64.3014 46.303 64.2236C46.1073 64.1457 45.8808 64.1068 45.6237 64.1068C45.402 64.1068 45.2051 64.1434 45.0329 64.2165C44.8607 64.2896 44.7098 64.3887 44.5801 64.5137C44.4503 64.6363 44.3407 64.7802 44.251 64.9453C44.1614 65.108 44.0883 65.2814 44.0317 65.4654C43.9774 65.6493 43.9373 65.838 43.9114 66.0314C43.8878 66.2248 43.876 66.4123 43.876 66.594C43.876 66.8959 43.9149 67.1848 43.9928 67.4607C44.073 67.7367 44.1968 67.9808 44.3643 68.1931C44.5317 68.403 44.744 68.5705 45.0011 68.6955C45.2605 68.8205 45.5695 68.883 45.928 68.883C46.6144 68.883 47.1333 68.6684 47.4847 68.2391C47.5224 68.2391 47.5531 68.2497 47.5767 68.2709C47.6026 68.2922 47.6156 68.3181 47.6156 68.3488C47.5024 68.5162 47.3644 68.6613 47.2017 68.7839C47.0413 68.9066 46.8703 69.008 46.6887 69.0882C46.507 69.166 46.3231 69.2238 46.1367 69.2615C45.9528 69.2993 45.7818 69.3182 45.6237 69.3182C45.4516 69.3182 45.2652 69.2993 45.0648 69.2615C44.8666 69.2262 44.6673 69.166 44.4669 69.0811C44.2687 68.9962 44.0777 68.8853 43.8937 68.7485C43.7121 68.6094 43.5505 68.4396 43.409 68.2391C43.2675 68.0362 43.1543 67.7992 43.0694 67.528C42.9845 67.2567 42.942 66.9454 42.942 66.594C42.942 66.2402 42.9845 65.9277 43.0694 65.6564C43.1543 65.3828 43.2675 65.1446 43.409 64.9418C43.5529 64.7389 43.7168 64.5691 43.9008 64.4323C44.0871 64.2931 44.2793 64.1811 44.4775 64.0962C44.6756 64.0089 44.8737 63.9476 45.0718 63.9122C45.27 63.8745 45.4539 63.8556 45.6237 63.8556ZM48.2383 63.9724C48.7666 63.9912 49.177 64.0007 49.4695 64.0007C49.7619 64.0007 50.1723 63.9912 50.7007 63.9724C50.7101 64.0101 50.7148 64.036 50.7148 64.0502C50.7148 64.0761 50.7101 64.1056 50.7007 64.1386C50.5922 64.1481 50.5037 64.1587 50.4353 64.1705C50.3693 64.1799 50.2867 64.1964 50.1877 64.22C50.091 64.2436 50.0167 64.2778 49.9648 64.3226C49.9129 64.3651 49.8858 64.417 49.8834 64.4783C49.8527 65.2802 49.8374 66.0267 49.8374 66.7178C49.8374 67.2225 49.8504 67.8794 49.8763 68.6884C49.8787 68.7497 49.9058 68.8028 49.9577 68.8476C50.0096 68.8901 50.0839 68.9231 50.1806 68.9467C50.2796 68.9703 50.3622 68.9879 50.4282 68.9997C50.4966 69.0092 50.5851 69.0186 50.6936 69.028C50.703 69.0563 50.7077 69.0882 50.7077 69.1236C50.7077 69.1424 50.703 69.166 50.6936 69.1943C50.2926 69.1802 49.8822 69.1731 49.4624 69.1731C49.0378 69.1731 48.6274 69.1802 48.2312 69.1943C48.2218 69.166 48.217 69.1424 48.217 69.1236C48.217 69.0835 48.2218 69.0516 48.2312 69.028C48.302 69.021 48.3586 69.0151 48.401 69.0104C48.4435 69.0056 48.5013 68.9974 48.5744 68.9856C48.6498 68.9738 48.71 68.9608 48.7548 68.9467C48.802 68.9302 48.8503 68.9101 48.8999 68.8865C48.9494 68.8629 48.9859 68.8346 49.0095 68.8016C49.0355 68.7686 49.0484 68.7309 49.0484 68.6884C49.0768 67.9502 49.0909 67.206 49.0909 66.456C49.0909 65.6918 49.0791 65.0326 49.0555 64.4783C49.0532 64.417 49.026 64.3651 48.9742 64.3226C48.9223 64.2778 48.8468 64.2436 48.7477 64.22C48.651 64.1964 48.5685 64.1799 48.5001 64.1705C48.434 64.1587 48.3468 64.1481 48.2383 64.1386C48.2288 64.0962 48.2241 64.0667 48.2241 64.0502C48.2241 64.0266 48.2288 64.0007 48.2383 63.9724ZM53.768 63.9193C53.8034 63.8934 53.8411 63.8768 53.8812 63.8698L55.8165 68.7026C55.8401 68.7615 55.879 68.8122 55.9332 68.8547C55.9875 68.8948 56.0547 68.9266 56.1349 68.9502C56.2174 68.9714 56.2882 68.9879 56.3472 68.9997C56.4085 69.0092 56.4828 69.0186 56.5701 69.028C56.5795 69.0658 56.5842 69.0976 56.5842 69.1236C56.5842 69.1519 56.5795 69.1778 56.5701 69.2014C56.0606 69.1825 55.6797 69.1731 55.4273 69.1731C55.1537 69.1731 54.7575 69.1825 54.2386 69.2014C54.2291 69.1731 54.2244 69.1448 54.2244 69.1165C54.2244 69.0858 54.2291 69.0563 54.2386 69.028C54.715 68.9762 54.9532 68.8865 54.9532 68.7592C54.9532 68.7191 54.9485 68.6778 54.9391 68.6353L54.4261 67.3192C54.2704 67.3145 54.0605 67.3122 53.7963 67.3122C53.6713 67.3122 53.347 67.3169 52.8234 67.3263L52.2821 68.7026V68.745C52.2821 68.7686 52.2856 68.791 52.2927 68.8122C52.3021 68.8335 52.3163 68.8523 52.3352 68.8688C52.3564 68.8853 52.3764 68.8995 52.3953 68.9113C52.4142 68.9231 52.4401 68.9349 52.4731 68.9467C52.5085 68.9561 52.538 68.9644 52.5616 68.9714C52.5875 68.9762 52.6217 68.982 52.6642 68.9891C52.709 68.9962 52.7432 69.0021 52.7668 69.0068C52.7904 69.0092 52.8246 69.0127 52.8694 69.0174C52.9166 69.0221 52.9496 69.0257 52.9685 69.028C52.9779 69.0658 52.9826 69.0976 52.9826 69.1236C52.9826 69.1377 52.9779 69.1637 52.9685 69.2014C52.4401 69.1825 52.1429 69.1731 52.0769 69.1731C51.9495 69.1731 51.6217 69.1825 51.0934 69.2014C51.0839 69.1731 51.0792 69.1448 51.0792 69.1165C51.0792 69.0858 51.0839 69.0563 51.0934 69.028C51.584 68.9714 51.8634 68.8511 51.9318 68.6672L53.4532 64.8321L53.3753 64.6233C53.5098 64.5337 53.6029 64.437 53.6548 64.3332C53.7091 64.2295 53.7468 64.0915 53.768 63.9193ZM53.7963 67.0362C54.0133 67.0362 54.1843 67.0338 54.3093 67.0291L53.6371 65.2885H53.623L52.9472 67.022C53.1689 67.0315 53.452 67.0362 53.7963 67.0362ZM57.0052 63.9724C57.5335 63.9912 57.9439 64.0007 58.2364 64.0007C58.5289 64.0007 58.9393 63.9912 59.4676 63.9724C59.477 64.0101 59.4818 64.036 59.4818 64.0502C59.4818 64.0667 59.477 64.0962 59.4676 64.1386C59.3591 64.1481 59.2707 64.1587 59.2023 64.1705C59.1362 64.1799 59.0537 64.1964 58.9546 64.22C58.8579 64.2436 58.7836 64.2778 58.7317 64.3226C58.6798 64.3651 58.6527 64.417 58.6503 64.4783C58.6197 65.2802 58.6043 66.0267 58.6043 66.7178C58.6043 67.0739 58.6173 67.8204 58.6433 68.9573H59.7365C60.0832 68.9337 60.3934 68.883 60.667 68.8052C60.9406 68.7273 61.1682 68.6283 61.3498 68.508C61.5337 68.3853 61.6847 68.2591 61.8026 68.1294C61.9229 67.9973 62.0267 67.8499 62.114 67.6872C62.1753 67.7108 62.2154 67.7426 62.2342 67.7827C62.1375 67.962 62.0621 68.107 62.0078 68.2179C61.9559 68.3287 61.8981 68.4749 61.8345 68.6566C61.7731 68.8358 61.733 69.008 61.7142 69.1731H58.6433C58.0041 69.1731 57.4557 69.1802 56.9981 69.1943C56.9887 69.166 56.984 69.1424 56.984 69.1236C56.984 69.1071 56.9887 69.0752 56.9981 69.028C57.1066 69.0186 57.1939 69.0092 57.2599 68.9997C57.3283 68.9879 57.4109 68.9703 57.5076 68.9467C57.6067 68.9231 57.6821 68.8901 57.734 68.8476C57.7859 68.8028 57.813 68.7497 57.8154 68.6884C57.8437 67.9502 57.8578 67.206 57.8578 66.456C57.8578 65.6918 57.8461 65.0326 57.8225 64.4783C57.8201 64.417 57.793 64.3651 57.7411 64.3226C57.6892 64.2778 57.6137 64.2436 57.5147 64.22C57.418 64.1964 57.3354 64.1799 57.267 64.1705C57.201 64.1587 57.1137 64.1481 57.0052 64.1386C56.9958 64.0962 56.9911 64.0667 56.9911 64.0502C56.9911 64.0266 56.9958 64.0007 57.0052 63.9724ZM65.3795 66.7744C65.3795 66.6046 65.3677 65.8274 65.3441 64.4429C65.337 64.3887 65.3087 64.3427 65.2592 64.3049C65.212 64.2648 65.1424 64.2342 65.0504 64.2129C64.9584 64.1917 64.883 64.1764 64.824 64.167C64.7674 64.1575 64.6872 64.1481 64.5834 64.1386C64.574 64.0962 64.5693 64.0667 64.5693 64.0502C64.5693 64.036 64.574 64.0101 64.5834 63.9724C64.6447 63.9747 64.791 63.9806 65.0221 63.9901C65.2533 63.9971 65.4313 64.0007 65.5563 64.0007C65.6625 64.0007 65.863 63.996 66.1578 63.9865C66.4526 63.9771 66.6649 63.9724 66.7946 63.9724C67.3984 63.9724 67.8595 64.1127 68.1779 64.3934C68.4964 64.6741 68.6556 65.0479 68.6556 65.5149C68.6556 65.9583 68.5129 66.3204 68.2275 66.601C67.9421 66.8817 67.5364 67.022 67.0104 67.022C66.6944 67.022 66.4102 66.956 66.1578 66.8239C66.1578 67.3994 66.1649 68.0209 66.179 68.6884C66.1814 68.7497 66.2085 68.8028 66.2604 68.8476C66.3123 68.8901 66.3866 68.9231 66.4833 68.9467C66.5823 68.9703 66.6649 68.9879 66.7309 68.9997C66.7993 69.0092 66.8878 69.0186 66.9963 69.028C67.0057 69.0752 67.0104 69.1071 67.0104 69.1236C67.0104 69.1424 67.0057 69.166 66.9963 69.1943C66.5953 69.1802 66.1849 69.1731 65.7651 69.1731C65.3405 69.1731 64.9301 69.1802 64.5339 69.1943C64.5245 69.166 64.5197 69.1424 64.5197 69.1236C64.5197 69.0835 64.5245 69.0516 64.5339 69.028C64.6424 69.0186 64.7297 69.0092 64.7957 68.9997C64.8641 68.9879 64.9466 68.9703 65.0434 68.9467C65.1424 68.9231 65.2179 68.8901 65.2698 68.8476C65.3217 68.8028 65.3488 68.7497 65.3511 68.6884C65.37 68.0822 65.3795 67.4442 65.3795 66.7744ZM66.179 64.2165C66.1649 65.0656 66.1578 65.8557 66.1578 66.5869C66.3512 66.6742 66.5434 66.7178 66.7345 66.7178C67.067 66.7178 67.317 66.6105 67.4845 66.3958C67.652 66.1812 67.7357 65.8852 67.7357 65.5078C67.7357 64.6375 67.3053 64.2023 66.4444 64.2023C66.3901 64.2023 66.3017 64.207 66.179 64.2165ZM69.1898 63.9724C69.6992 63.9912 70.1096 64.0007 70.421 64.0007C70.5389 64.0007 70.7288 63.996 70.9906 63.9865C71.2524 63.9771 71.454 63.9724 71.5956 63.9724C72.1192 63.9724 72.5308 64.1044 72.8303 64.3686C73.1322 64.6328 73.2831 64.976 73.2831 65.3981C73.2831 65.7378 73.1829 66.042 72.9824 66.3109C72.7819 66.5774 72.5083 66.7685 72.1616 66.8841C72.3197 67.1671 72.5366 67.4879 72.8126 67.8464C73.0791 68.2025 73.3327 68.482 73.5733 68.6849C73.8162 68.8877 74.0768 69.0021 74.3551 69.028C74.3646 69.0658 74.3693 69.0953 74.3693 69.1165C74.3693 69.1401 74.3646 69.166 74.3551 69.1943C74.2136 69.1872 74.0627 69.1825 73.9023 69.1802C73.7419 69.1778 73.5626 69.1766 73.3645 69.1766C73.1688 69.1766 73.0178 69.1755 72.9117 69.1731C72.2772 68.4349 71.7677 67.7084 71.3833 66.9937C71.2111 66.9937 71.013 66.9666 70.7889 66.9124C70.7889 67.3699 70.8019 67.962 70.8278 68.6884C70.8302 68.7497 70.8573 68.8028 70.9092 68.8476C70.9611 68.8901 71.0354 68.9231 71.1321 68.9467C71.2312 68.9703 71.3137 68.9879 71.3798 68.9997C71.4482 69.0092 71.5366 69.0186 71.6451 69.028C71.6545 69.0752 71.6592 69.1071 71.6592 69.1236C71.6592 69.1424 71.6545 69.166 71.6451 69.1943C71.2441 69.1802 70.8337 69.1731 70.4139 69.1731C69.9894 69.1731 69.579 69.1802 69.1827 69.1943C69.1733 69.166 69.1686 69.1424 69.1686 69.1236C69.1686 69.0835 69.1733 69.0516 69.1827 69.028C69.2535 69.021 69.3101 69.0151 69.3525 69.0104C69.395 69.0056 69.4528 68.9974 69.5259 68.9856C69.6014 68.9738 69.6615 68.9608 69.7063 68.9467C69.7535 68.9302 69.8018 68.9101 69.8514 68.8865C69.9009 68.8629 69.9375 68.8346 69.961 68.8016C69.987 68.7686 70 68.7309 70 68.6884C70.0283 67.9502 70.0424 67.206 70.0424 66.456C70.0424 65.6918 70.0306 65.0326 70.007 64.4783C70.0047 64.417 69.9776 64.3651 69.9257 64.3226C69.8738 64.2778 69.7983 64.2436 69.6992 64.22C69.6025 64.1964 69.52 64.1799 69.4516 64.1705C69.3855 64.1587 69.2983 64.1481 69.1898 64.1386C69.1803 64.0962 69.1756 64.0667 69.1756 64.0502C69.1756 64.036 69.1803 64.0101 69.1898 63.9724ZM70.8349 64.2165H70.8278C70.8019 65.0868 70.7889 65.8958 70.7889 66.6435C70.954 66.6977 71.1215 66.7249 71.2913 66.7249C71.447 66.7249 71.5861 66.6989 71.7088 66.647C71.8338 66.5928 71.9364 66.522 72.0166 66.4348C72.0968 66.3475 72.1628 66.2449 72.2147 66.127C72.2689 66.009 72.3067 65.8899 72.3279 65.7696C72.3515 65.6493 72.3633 65.5255 72.3633 65.3981C72.3633 65.0467 72.2666 64.7601 72.0732 64.5384C71.8821 64.3144 71.6097 64.2023 71.2559 64.2023C71.0814 64.2023 70.941 64.207 70.8349 64.2165ZM77.5746 63.8521C77.7562 63.8521 77.9473 63.8709 78.1478 63.9087C78.3506 63.9464 78.5499 64.0089 78.7457 64.0962C78.9438 64.1811 79.1325 64.2943 79.3117 64.4358C79.4934 64.575 79.6526 64.746 79.7894 64.9488C79.9262 65.1517 80.0347 65.3887 80.1149 65.6599C80.1974 65.9312 80.2387 66.2425 80.2387 66.594C80.2387 66.9477 80.1986 67.2614 80.1184 67.535C80.0382 67.8063 79.9297 68.0433 79.7929 68.2462C79.6561 68.4466 79.4969 68.6165 79.3153 68.7556C79.136 68.8924 78.9462 69.0033 78.7457 69.0882C78.5476 69.1707 78.3447 69.2297 78.1372 69.2651C77.9296 69.3028 77.7315 69.3217 77.5428 69.3217C77.3635 69.3217 77.1725 69.3028 76.9696 69.2651C76.7692 69.2297 76.5699 69.1707 76.3717 69.0882C76.1736 69.0033 75.9838 68.8924 75.8021 68.7556C75.6229 68.6165 75.4637 68.4466 75.3245 68.2462C75.1877 68.0433 75.078 67.8063 74.9955 67.535C74.9153 67.2614 74.8752 66.9477 74.8752 66.594C74.8752 66.2307 74.9177 65.9111 75.0026 65.6352C75.0875 65.3569 75.1995 65.1163 75.3387 64.9134C75.4802 64.7106 75.6429 64.542 75.8269 64.4075C76.0132 64.2707 76.2055 64.1611 76.4036 64.0785C76.6041 63.996 76.8045 63.9382 77.005 63.9051C77.2079 63.8698 77.3977 63.8521 77.5746 63.8521ZM77.5569 64.1068C77.3352 64.1068 77.1383 64.1434 76.9661 64.2165C76.7939 64.2896 76.643 64.3887 76.5133 64.5137C76.3835 64.6363 76.2739 64.7802 76.1842 64.9453C76.0946 65.108 76.0215 65.2814 75.9649 65.4654C75.9106 65.6493 75.8705 65.838 75.8446 66.0314C75.821 66.2248 75.8092 66.4123 75.8092 66.594C75.8092 66.7685 75.821 66.9501 75.8446 67.1388C75.8682 67.3275 75.9071 67.5138 75.9613 67.6978C76.0156 67.8794 76.0864 68.0528 76.1736 68.2179C76.2632 68.383 76.3729 68.528 76.5026 68.653C76.6324 68.778 76.7833 68.8783 76.9555 68.9537C77.13 69.0269 77.3305 69.0634 77.5569 69.0634C77.7787 69.0634 77.9756 69.028 78.1478 68.9573C78.32 68.8842 78.4709 68.7863 78.6006 68.6636C78.7304 68.5386 78.8388 68.3948 78.9261 68.232C79.0157 68.0669 79.0877 67.8936 79.1419 67.7119C79.1985 67.528 79.2386 67.3405 79.2622 67.1494C79.2882 66.9584 79.3011 66.7732 79.3011 66.594C79.3011 66.4123 79.2882 66.2248 79.2622 66.0314C79.2386 65.838 79.1985 65.6493 79.1419 65.4654C79.0877 65.2814 79.0157 65.108 78.9261 64.9453C78.8365 64.7802 78.7268 64.6363 78.5971 64.5137C78.4674 64.3887 78.3164 64.2896 78.1442 64.2165C77.9721 64.1434 77.7763 64.1068 77.5569 64.1068ZM81.8237 66.7744C81.8237 66.6046 81.8119 65.8274 81.7883 64.4429C81.7812 64.3887 81.7529 64.3427 81.7034 64.3049C81.6562 64.2648 81.5866 64.2342 81.4946 64.2129C81.4027 64.1917 81.3272 64.1764 81.2682 64.167C81.2116 64.1575 81.1314 64.1481 81.0276 64.1386C81.0182 64.0962 81.0135 64.0667 81.0135 64.0502C81.0135 64.036 81.0182 64.0101 81.0276 63.9724C81.089 63.9747 81.2352 63.9806 81.4663 63.9901C81.6975 63.9971 81.8756 64.0007 82.0006 64.0007C82.1067 64.0007 82.3072 63.996 82.602 63.9865C82.8968 63.9771 83.1091 63.9724 83.2388 63.9724C83.8426 63.9724 84.3037 64.1127 84.6222 64.3934C84.9406 64.6741 85.0998 65.0479 85.0998 65.5149C85.0998 65.9583 84.9571 66.3204 84.6717 66.601C84.3863 66.8817 83.9806 67.022 83.4546 67.022C83.1386 67.022 82.8544 66.956 82.602 66.8239C82.602 67.3994 82.6091 68.0209 82.6232 68.6884C82.6256 68.7497 82.6527 68.8028 82.7046 68.8476C82.7565 68.8901 82.8308 68.9231 82.9275 68.9467C83.0266 68.9703 83.1091 68.9879 83.1752 68.9997C83.2436 69.0092 83.332 69.0186 83.4405 69.028C83.4499 69.0752 83.4546 69.1071 83.4546 69.1236C83.4546 69.1424 83.4499 69.166 83.4405 69.1943C83.0395 69.1802 82.6291 69.1731 82.2093 69.1731C81.7848 69.1731 81.3744 69.1802 80.9781 69.1943C80.9687 69.166 80.964 69.1424 80.964 69.1236C80.964 69.0835 80.9687 69.0516 80.9781 69.028C81.0866 69.0186 81.1739 69.0092 81.2399 68.9997C81.3083 68.9879 81.3909 68.9703 81.4876 68.9467C81.5866 68.9231 81.6621 68.8901 81.714 68.8476C81.7659 68.8028 81.793 68.7497 81.7954 68.6884C81.8142 68.0822 81.8237 67.4442 81.8237 66.7744ZM82.6232 64.2165C82.6091 65.0656 82.602 65.8557 82.602 66.5869C82.7954 66.6742 82.9876 66.7178 83.1787 66.7178C83.5113 66.7178 83.7613 66.6105 83.9287 66.3958C84.0962 66.1812 84.1799 65.8852 84.1799 65.5078C84.1799 64.6375 83.7495 64.2023 82.8886 64.2023C82.8343 64.2023 82.7459 64.207 82.6232 64.2165ZM85.634 63.9724C86.1623 63.9912 86.5751 64.0007 86.8723 64.0007C88.896 63.9889 90.0163 63.9794 90.2333 63.9724C90.2639 64.2082 90.3241 64.4323 90.4137 64.6446C90.5033 64.8545 90.6177 65.0786 90.7569 65.3168C90.738 65.3569 90.6967 65.3887 90.6331 65.4123C90.5482 65.2519 90.4456 65.1092 90.3253 64.9842C90.205 64.8592 90.0528 64.7413 89.8689 64.6304C89.6873 64.5196 89.4597 64.4288 89.1861 64.358C88.9148 64.2872 88.6047 64.2401 88.2556 64.2165H87.2791C87.2485 65.2142 87.2331 65.9654 87.2331 66.4701H88.2414C88.3098 66.4701 88.3735 66.4654 88.4325 66.456C88.4938 66.4442 88.5504 66.4253 88.6023 66.3994C88.6542 66.3711 88.7002 66.3451 88.7403 66.3215C88.7827 66.2956 88.8252 66.2579 88.8676 66.2083C88.9101 66.1564 88.9455 66.114 88.9738 66.081C89.0021 66.0456 89.0363 65.9925 89.0764 65.9218C89.1165 65.851 89.1471 65.7956 89.1684 65.7555C89.1896 65.7154 89.2214 65.6529 89.2639 65.568C89.3087 65.4831 89.3429 65.4194 89.3665 65.3769C89.4396 65.4052 89.4844 65.4359 89.5009 65.4689C89.4019 65.6434 89.3181 65.8368 89.2497 66.0491C89.1813 66.2614 89.1471 66.4383 89.1471 66.5798C89.1471 66.9147 89.2651 67.2839 89.5009 67.6872C89.4821 67.7249 89.4373 67.7568 89.3665 67.7827C89.3405 67.7355 89.304 67.6683 89.2568 67.581C89.212 67.4914 89.1766 67.423 89.1507 67.3758C89.1247 67.3287 89.0894 67.2685 89.0445 67.1954C88.9997 67.1223 88.9596 67.0657 88.9243 67.0256C88.8912 66.9855 88.8476 66.9407 88.7934 66.8911C88.7415 66.8416 88.6896 66.8051 88.6377 66.7815C88.5858 66.7555 88.5257 66.7343 88.4573 66.7178C88.3912 66.6989 88.3193 66.6895 88.2414 66.6895H87.2331C87.2331 67.0645 87.2461 67.8204 87.2721 68.9573H88.4006C88.7497 68.9337 89.0599 68.8865 89.3311 68.8158C89.6047 68.745 89.8323 68.6542 90.0139 68.5433C90.1979 68.4325 90.35 68.3146 90.4703 68.1896C90.5906 68.0645 90.6932 67.9219 90.7781 67.7615C90.8418 67.7851 90.8831 67.8157 90.9019 67.8535C90.8902 67.877 90.8595 67.9336 90.81 68.0233C90.7604 68.1129 90.7274 68.1742 90.7109 68.2072C90.6944 68.2379 90.6661 68.2933 90.626 68.3735C90.5883 68.4514 90.56 68.515 90.5411 68.5646C90.5222 68.6117 90.4998 68.6719 90.4739 68.745C90.4503 68.8181 90.4302 68.8901 90.4137 68.9608C90.3996 69.0292 90.3878 69.1 90.3783 69.1731H87.2721C86.6329 69.1731 86.0845 69.1802 85.6269 69.1943C85.6175 69.166 85.6128 69.1424 85.6128 69.1236C85.6128 69.1071 85.6175 69.0752 85.6269 69.028C85.7354 69.0186 85.8227 69.0092 85.8887 68.9997C85.9571 68.9879 86.0397 68.9703 86.1364 68.9467C86.2354 68.9231 86.3109 68.8901 86.3628 68.8476C86.4147 68.8028 86.4418 68.7497 86.4442 68.6884C86.4725 67.9502 86.4866 67.206 86.4866 66.456C86.4866 65.6918 86.4748 65.0326 86.4513 64.4783C86.4489 64.417 86.4218 64.3651 86.3699 64.3226C86.318 64.2778 86.2425 64.2436 86.1435 64.22C86.0468 64.1964 85.9642 64.1799 85.8958 64.1705C85.8298 64.1587 85.7425 64.1481 85.634 64.1386C85.6246 64.0962 85.6198 64.0667 85.6198 64.0502C85.6198 64.036 85.6246 64.0101 85.634 63.9724ZM91.323 63.9724C91.8324 63.9912 92.2428 64.0007 92.5542 64.0007C92.6721 64.0007 92.862 63.996 93.1238 63.9865C93.3856 63.9771 93.5872 63.9724 93.7287 63.9724C94.2524 63.9724 94.6639 64.1044 94.9635 64.3686C95.2654 64.6328 95.4163 64.976 95.4163 65.3981C95.4163 65.7378 95.3161 66.042 95.1156 66.3109C94.9151 66.5774 94.6415 66.7685 94.2948 66.8841C94.4528 67.1671 94.6698 67.4879 94.9458 67.8464C95.2123 68.2025 95.4659 68.482 95.7064 68.6849C95.9494 68.8877 96.21 69.0021 96.4883 69.028C96.4977 69.0658 96.5025 69.0953 96.5025 69.1165C96.5025 69.1401 96.4977 69.166 96.4883 69.1943C96.3468 69.1872 96.1958 69.1825 96.0355 69.1802C95.8751 69.1778 95.6958 69.1766 95.4977 69.1766C95.3019 69.1766 95.151 69.1755 95.0448 69.1731C94.4104 68.4349 93.9009 67.7084 93.5165 66.9937C93.3443 66.9937 93.1462 66.9666 92.9221 66.9124C92.9221 67.3699 92.9351 67.962 92.961 68.6884C92.9634 68.7497 92.9905 68.8028 93.0424 68.8476C93.0943 68.8901 93.1686 68.9231 93.2653 68.9467C93.3643 68.9703 93.4469 68.9879 93.5129 68.9997C93.5813 69.0092 93.6698 69.0186 93.7783 69.028C93.7877 69.0752 93.7924 69.1071 93.7924 69.1236C93.7924 69.1424 93.7877 69.166 93.7783 69.1943C93.3773 69.1802 92.9669 69.1731 92.5471 69.1731C92.1225 69.1731 91.7121 69.1802 91.3159 69.1943C91.3065 69.166 91.3017 69.1424 91.3017 69.1236C91.3017 69.0835 91.3065 69.0516 91.3159 69.028C91.3866 69.021 91.4433 69.0151 91.4857 69.0104C91.5282 69.0056 91.5859 68.9974 91.6591 68.9856C91.7345 68.9738 91.7947 68.9608 91.8395 68.9467C91.8867 68.9302 91.935 68.9101 91.9846 68.8865C92.0341 68.8629 92.0706 68.8346 92.0942 68.8016C92.1202 68.7686 92.1331 68.7309 92.1331 68.6884C92.1614 67.9502 92.1756 67.206 92.1756 66.456C92.1756 65.6918 92.1638 65.0326 92.1402 64.4783C92.1379 64.417 92.1107 64.3651 92.0588 64.3226C92.007 64.2778 91.9315 64.2436 91.8324 64.22C91.7357 64.1964 91.6532 64.1799 91.5848 64.1705C91.5187 64.1587 91.4315 64.1481 91.323 64.1386C91.3135 64.0962 91.3088 64.0667 91.3088 64.0502C91.3088 64.036 91.3135 64.0101 91.323 63.9724ZM92.9681 64.2165H92.961C92.9351 65.0868 92.9221 65.8958 92.9221 66.6435C93.0872 66.6977 93.2547 66.7249 93.4245 66.7249C93.5801 66.7249 93.7193 66.6989 93.842 66.647C93.967 66.5928 94.0696 66.522 94.1498 66.4348C94.2299 66.3475 94.296 66.2449 94.3479 66.127C94.4021 66.009 94.4399 65.8899 94.4611 65.7696C94.4847 65.6493 94.4965 65.5255 94.4965 65.3981C94.4965 65.0467 94.3998 64.7601 94.2064 64.5384C94.0153 64.3144 93.7429 64.2023 93.3891 64.2023C93.2146 64.2023 93.0742 64.207 92.9681 64.2165ZM97.0968 63.9724C97.3539 63.9818 97.6747 63.9889 98.0591 63.9936C98.4436 63.9983 98.8953 64.0007 99.4142 64.0007C99.9331 64.0007 100.385 63.9983 100.769 63.9936C101.156 63.9889 101.479 63.9818 101.739 63.9724C101.753 64.0738 101.77 64.1717 101.792 64.266C101.813 64.358 101.848 64.4606 101.898 64.5738L102.004 64.8144L102.262 65.3168C102.246 65.3545 102.204 65.3864 102.138 65.4123C102.058 65.2637 101.96 65.1222 101.845 64.9877C101.729 64.8533 101.582 64.7318 101.402 64.6233C101.226 64.5148 101.009 64.424 100.751 64.3509C100.497 64.2778 100.189 64.2283 99.8281 64.2023C99.8163 64.4972 99.8069 64.8309 99.7998 65.2036C99.7951 65.5739 99.7927 65.9866 99.7927 66.4418C99.7927 66.8994 99.7951 67.3145 99.7998 67.6872C99.8069 68.0598 99.8163 68.3936 99.8281 68.6884C99.8305 68.745 99.8529 68.7934 99.8953 68.8335C99.9378 68.8712 99.9956 68.903 100.069 68.929C100.144 68.9549 100.23 68.9762 100.327 68.9927C100.426 69.0068 100.532 69.0186 100.645 69.028C100.655 69.0681 100.66 69.1 100.66 69.1236C100.66 69.1448 100.655 69.1684 100.645 69.1943C100.249 69.1802 99.8387 69.1731 99.4142 69.1731C98.992 69.1731 98.5816 69.1802 98.183 69.1943C98.1735 69.1684 98.1688 69.1448 98.1688 69.1236C98.1688 69.1 98.1735 69.0681 98.183 69.028L98.3528 69.0104C98.4141 69.0033 98.4825 68.9938 98.558 68.982C98.6335 68.9679 98.703 68.949 98.7667 68.9254C98.8328 68.9019 98.8882 68.8724 98.933 68.837C98.9778 68.8016 99.0002 68.758 99.0002 68.7061V68.6884C99.012 68.2568 99.0215 67.8546 99.0285 67.482C99.0356 67.1093 99.0391 66.7626 99.0391 66.4418C99.0391 66.1234 99.0356 65.7791 99.0285 65.4088C99.0215 65.0361 99.012 64.634 99.0002 64.2023C98.6606 64.2212 98.3646 64.2672 98.1122 64.3403C97.8622 64.4111 97.6452 64.5007 97.4612 64.6092C97.2773 64.7153 97.124 64.838 97.0013 64.9771C96.8787 65.1139 96.7772 65.259 96.697 65.4123C96.631 65.3864 96.5897 65.3545 96.5732 65.3168L96.7324 65.016L96.8067 64.8639C96.8374 64.8002 96.868 64.7354 96.8987 64.6693C96.9294 64.6033 96.9577 64.5349 96.9836 64.4641C97.0119 64.391 97.0355 64.3144 97.0544 64.2342C97.0732 64.1516 97.0874 64.0644 97.0968 63.9724ZM102.312 63.9724C102.845 63.9912 103.273 64.0007 103.596 64.0007C104.037 64.0007 104.436 63.9912 104.792 63.9724C104.801 64.0101 104.806 64.036 104.806 64.0502C104.806 64.0761 104.801 64.1056 104.792 64.1386C104.516 64.1504 104.313 64.1752 104.183 64.2129C104.056 64.2507 103.992 64.312 103.992 64.3969C103.992 64.4276 104.012 64.4806 104.052 64.5561L105.139 66.5055H105.167L106.356 64.5278C106.384 64.4806 106.398 64.4323 106.398 64.3828C106.398 64.3096 106.351 64.2566 106.256 64.2236C106.164 64.1882 106.025 64.1599 105.839 64.1386C105.83 64.0868 105.825 64.0549 105.825 64.0431C105.825 64.0243 105.83 64.0007 105.839 63.9724C106.143 63.9865 106.419 63.9936 106.667 63.9936C106.933 63.9936 107.201 63.9865 107.47 63.9724C107.479 64.0007 107.484 64.0243 107.484 64.0431C107.484 64.0809 107.479 64.1127 107.47 64.1386C107.298 64.1552 107.153 64.1905 107.035 64.2448C106.917 64.299 106.815 64.3934 106.731 64.5278L105.262 66.8982C105.262 67.4077 105.274 68.0044 105.298 68.6884C105.3 68.7497 105.327 68.8028 105.379 68.8476C105.431 68.8901 105.505 68.9231 105.602 68.9467C105.701 68.9703 105.784 68.9879 105.85 68.9997C105.918 69.0092 106.006 69.0186 106.115 69.028C106.124 69.0563 106.129 69.0882 106.129 69.1236C106.129 69.1424 106.124 69.166 106.115 69.1943C105.719 69.1802 105.308 69.1731 104.884 69.1731C104.462 69.1731 104.051 69.1802 103.653 69.1943C103.643 69.166 103.638 69.1424 103.638 69.1236C103.638 69.0835 103.643 69.0516 103.653 69.028C103.761 69.0186 103.848 69.0092 103.914 68.9997C103.983 68.9879 104.065 68.9703 104.162 68.9467C104.261 68.9231 104.337 68.8901 104.388 68.8476C104.44 68.8028 104.467 68.7497 104.47 68.6884C104.493 68.0964 104.509 67.4997 104.516 66.8982L103.133 64.4783C103.041 64.3627 102.927 64.2813 102.793 64.2342C102.658 64.187 102.498 64.1552 102.312 64.1386C102.302 64.0962 102.298 64.0667 102.298 64.0502C102.298 64.0266 102.302 64.0007 102.312 63.9724ZM113.046 65.4689C112.956 65.0373 112.791 64.7024 112.55 64.4641C112.312 64.2259 112.026 64.1068 111.691 64.1068C111.363 64.1068 111.108 64.1846 110.927 64.3403C110.747 64.496 110.658 64.7035 110.658 64.963C110.658 65.1069 110.671 65.226 110.697 65.3203C110.723 65.4147 110.776 65.5066 110.856 65.5963C110.936 65.6835 111.053 65.7614 111.206 65.8298C111.359 65.8958 111.56 65.9595 111.807 66.0208C111.942 66.0538 112.059 66.0845 112.158 66.1128C112.259 66.1411 112.37 66.18 112.49 66.2296C112.613 66.2791 112.718 66.3322 112.805 66.3888C112.895 66.4454 112.983 66.5161 113.071 66.601C113.16 66.6836 113.232 66.7756 113.286 66.877C113.343 66.9784 113.388 67.0987 113.421 67.2379C113.456 67.3747 113.474 67.5244 113.474 67.6872C113.474 67.9042 113.434 68.1046 113.354 68.2886C113.273 68.4702 113.168 68.6235 113.039 68.7485C112.909 68.8736 112.759 68.9797 112.589 69.067C112.42 69.1542 112.247 69.2179 112.073 69.258C111.898 69.2981 111.725 69.3182 111.553 69.3182C111.029 69.3182 110.471 69.1825 109.879 68.9113C109.891 68.6566 109.897 68.4997 109.897 68.4407C109.897 68.0563 109.865 67.673 109.801 67.2909C109.827 67.2744 109.853 67.2662 109.879 67.2662C109.912 67.2662 109.942 67.2744 109.968 67.2909C110.017 67.5952 110.099 67.8641 110.212 68.0976C110.327 68.3311 110.46 68.5162 110.608 68.653C110.757 68.7875 110.91 68.8889 111.068 68.9573C111.228 69.0233 111.39 69.0563 111.553 69.0563C111.923 69.0563 112.207 68.9608 112.405 68.7698C112.606 68.5764 112.706 68.3216 112.706 68.0056C112.706 67.6872 112.632 67.4478 112.483 67.2874C112.337 67.1246 112.056 66.9926 111.641 66.8911C111.122 66.7614 110.717 66.5704 110.424 66.318C110.134 66.0633 109.989 65.7272 109.989 65.3097C109.989 65.0903 110.024 64.8946 110.095 64.7224C110.168 64.5479 110.261 64.4087 110.375 64.3049C110.49 64.1988 110.625 64.1115 110.778 64.0431C110.931 63.9724 111.082 63.924 111.231 63.8981C111.382 63.8698 111.535 63.8556 111.691 63.8556C112.158 63.8556 112.644 63.9641 113.148 64.1811C113.134 64.3203 113.127 64.4653 113.127 64.6163C113.127 64.9701 113.155 65.2543 113.212 65.4689C113.181 65.4807 113.155 65.4866 113.134 65.4866C113.111 65.4866 113.081 65.4807 113.046 65.4689ZM114.185 63.9724C114.713 63.9912 115.126 64.0007 115.423 64.0007C117.447 63.9889 118.567 63.9794 118.784 63.9724C118.815 64.2082 118.875 64.4323 118.965 64.6446C119.054 64.8545 119.169 65.0786 119.308 65.3168C119.289 65.3569 119.248 65.3887 119.184 65.4123C119.099 65.2519 118.997 65.1092 118.876 64.9842C118.756 64.8592 118.604 64.7413 118.42 64.6304C118.238 64.5196 118.011 64.4288 117.737 64.358C117.466 64.2872 117.156 64.2401 116.807 64.2165H115.83C115.799 65.2142 115.784 65.9654 115.784 66.4701H116.792C116.861 66.4701 116.924 66.4654 116.983 66.456C117.045 66.4442 117.101 66.4253 117.153 66.3994C117.205 66.3711 117.251 66.3451 117.291 66.3215C117.334 66.2956 117.376 66.2579 117.419 66.2083C117.461 66.1564 117.496 66.114 117.525 66.081C117.553 66.0456 117.587 65.9925 117.627 65.9218C117.667 65.851 117.698 65.7956 117.719 65.7555C117.741 65.7154 117.772 65.6529 117.815 65.568C117.86 65.4831 117.894 65.4194 117.917 65.3769C117.991 65.4052 118.035 65.4359 118.052 65.4689C117.953 65.6434 117.869 65.8368 117.801 66.0491C117.732 66.2614 117.698 66.4383 117.698 66.5798C117.698 66.9147 117.816 67.2839 118.052 67.6872C118.033 67.7249 117.988 67.7568 117.917 67.7827C117.891 67.7355 117.855 67.6683 117.808 67.581C117.763 67.4914 117.728 67.423 117.702 67.3758C117.676 67.3287 117.64 67.2685 117.595 67.1954C117.551 67.1223 117.511 67.0657 117.475 67.0256C117.442 66.9855 117.399 66.9407 117.344 66.8911C117.292 66.8416 117.241 66.8051 117.189 66.7815C117.137 66.7555 117.077 66.7343 117.008 66.7178C116.942 66.6989 116.87 66.6895 116.792 66.6895H115.784C115.784 67.0645 115.797 67.8204 115.823 68.9573H116.952C117.301 68.9337 117.611 68.8865 117.882 68.8158C118.156 68.745 118.383 68.6542 118.565 68.5433C118.749 68.4325 118.901 68.3146 119.021 68.1896C119.142 68.0645 119.244 67.9219 119.329 67.7615C119.393 67.7851 119.434 67.8157 119.453 67.8535C119.441 67.877 119.41 67.9336 119.361 68.0233C119.311 68.1129 119.278 68.1742 119.262 68.2072C119.245 68.2379 119.217 68.2933 119.177 68.3735C119.139 68.4514 119.111 68.515 119.092 68.5646C119.073 68.6117 119.051 68.6719 119.025 68.745C119.001 68.8181 118.981 68.8901 118.965 68.9608C118.951 69.0292 118.939 69.1 118.929 69.1731H115.823C115.184 69.1731 114.635 69.1802 114.178 69.1943C114.168 69.166 114.164 69.1424 114.164 69.1236C114.164 69.1071 114.168 69.0752 114.178 69.028C114.286 69.0186 114.374 69.0092 114.44 68.9997C114.508 68.9879 114.591 68.9703 114.687 68.9467C114.786 68.9231 114.862 68.8901 114.914 68.8476C114.966 68.8028 114.993 68.7497 114.995 68.6884C115.023 67.9502 115.038 67.206 115.038 66.456C115.038 65.6918 115.026 65.0326 115.002 64.4783C115 64.417 114.973 64.3651 114.921 64.3226C114.869 64.2778 114.793 64.2436 114.694 64.22C114.598 64.1964 114.515 64.1799 114.447 64.1705C114.381 64.1587 114.293 64.1481 114.185 64.1386C114.176 64.0962 114.171 64.0667 114.171 64.0502C114.171 64.036 114.176 64.0101 114.185 63.9724ZM119.874 63.9724C120.383 63.9912 120.794 64.0007 121.105 64.0007C121.223 64.0007 121.413 63.996 121.675 63.9865C121.937 63.9771 122.138 63.9724 122.28 63.9724C122.803 63.9724 123.215 64.1044 123.514 64.3686C123.816 64.6328 123.967 64.976 123.967 65.3981C123.967 65.7378 123.867 66.042 123.667 66.3109C123.466 66.5774 123.192 66.7685 122.846 66.8841C123.004 67.1671 123.221 67.4879 123.497 67.8464C123.763 68.2025 124.017 68.482 124.257 68.6849C124.5 68.8877 124.761 69.0021 125.039 69.028C125.049 69.0658 125.053 69.0953 125.053 69.1165C125.053 69.1401 125.049 69.166 125.039 69.1943C124.898 69.1872 124.747 69.1825 124.586 69.1802C124.426 69.1778 124.247 69.1766 124.049 69.1766C123.853 69.1766 123.702 69.1755 123.596 69.1731C122.961 68.4349 122.452 67.7084 122.067 66.9937C121.895 66.9937 121.697 66.9666 121.473 66.9124C121.473 67.3699 121.486 67.962 121.512 68.6884C121.514 68.7497 121.541 68.8028 121.593 68.8476C121.645 68.8901 121.72 68.9231 121.816 68.9467C121.915 68.9703 121.998 68.9879 122.064 68.9997C122.132 69.0092 122.221 69.0186 122.329 69.028C122.339 69.0752 122.343 69.1071 122.343 69.1236C122.343 69.1424 122.339 69.166 122.329 69.1943C121.928 69.1802 121.518 69.1731 121.098 69.1731C120.673 69.1731 120.263 69.1802 119.867 69.1943C119.857 69.166 119.853 69.1424 119.853 69.1236C119.853 69.0835 119.857 69.0516 119.867 69.028C119.938 69.021 119.994 69.0151 120.037 69.0104C120.079 69.0056 120.137 68.9974 120.21 68.9856C120.285 68.9738 120.346 68.9608 120.39 68.9467C120.438 68.9302 120.486 68.9101 120.536 68.8865C120.585 68.8629 120.622 68.8346 120.645 68.8016C120.671 68.7686 120.684 68.7309 120.684 68.6884C120.712 67.9502 120.727 67.206 120.727 66.456C120.727 65.6918 120.715 65.0326 120.691 64.4783C120.689 64.417 120.662 64.3651 120.61 64.3226C120.558 64.2778 120.482 64.2436 120.383 64.22C120.287 64.1964 120.204 64.1799 120.136 64.1705C120.07 64.1587 119.982 64.1481 119.874 64.1386C119.864 64.0962 119.86 64.0667 119.86 64.0502C119.86 64.036 119.864 64.0101 119.874 63.9724ZM121.519 64.2165H121.512C121.486 65.0868 121.473 65.8958 121.473 66.6435C121.638 66.6977 121.806 66.7249 121.975 66.7249C122.131 66.7249 122.27 66.6989 122.393 66.647C122.518 66.5928 122.621 66.522 122.701 66.4348C122.781 66.3475 122.847 66.2449 122.899 66.127C122.953 66.009 122.991 65.8899 123.012 65.7696C123.036 65.6493 123.047 65.5255 123.047 65.3981C123.047 65.0467 122.951 64.7601 122.757 64.5384C122.566 64.3144 122.294 64.2023 121.94 64.2023C121.766 64.2023 121.625 64.207 121.519 64.2165ZM125.103 63.9724C125.636 63.9912 126.056 64.0007 126.362 64.0007C126.808 64.0007 127.207 63.9912 127.558 63.9724C127.568 64.0101 127.572 64.036 127.572 64.0502C127.572 64.0761 127.568 64.1056 127.558 64.1386C127.247 64.1481 127.036 64.1717 126.925 64.2094C126.816 64.2448 126.762 64.3073 126.762 64.3969C126.762 64.3993 126.779 64.4582 126.812 64.5738L128.284 67.9914H128.319L129.699 64.5278C129.713 64.4924 129.72 64.4464 129.72 64.3898C129.72 64.312 129.677 64.2566 129.593 64.2236C129.508 64.1905 129.361 64.1622 129.154 64.1386C129.144 64.0868 129.14 64.0549 129.14 64.0431C129.14 64.0243 129.144 64.0007 129.154 63.9724C129.458 63.9865 129.733 63.9936 129.978 63.9936C130.247 63.9936 130.516 63.9865 130.785 63.9724C130.794 64.0007 130.799 64.0243 130.799 64.0431C130.799 64.0809 130.794 64.1127 130.785 64.1386C130.608 64.1552 130.461 64.1917 130.343 64.2483C130.227 64.3026 130.137 64.3957 130.074 64.5278L128.16 69.2757H127.993L125.938 64.5738C125.829 64.3262 125.551 64.1811 125.103 64.1386C125.094 64.0962 125.089 64.0667 125.089 64.0502C125.089 64.0266 125.094 64.0007 125.103 63.9724ZM131.04 63.9724C131.568 63.9912 131.978 64.0007 132.271 64.0007C132.563 64.0007 132.974 63.9912 133.502 63.9724C133.511 64.0101 133.516 64.036 133.516 64.0502C133.516 64.0761 133.511 64.1056 133.502 64.1386C133.393 64.1481 133.305 64.1587 133.237 64.1705C133.171 64.1799 133.088 64.1964 132.989 64.22C132.892 64.2436 132.818 64.2778 132.766 64.3226C132.714 64.3651 132.687 64.417 132.685 64.4783C132.654 65.2802 132.639 66.0267 132.639 66.7178C132.639 67.2225 132.652 67.8794 132.678 68.6884C132.68 68.7497 132.707 68.8028 132.759 68.8476C132.811 68.8901 132.885 68.9231 132.982 68.9467C133.081 68.9703 133.163 68.9879 133.23 68.9997C133.298 69.0092 133.386 69.0186 133.495 69.028C133.504 69.0563 133.509 69.0882 133.509 69.1236C133.509 69.1424 133.504 69.166 133.495 69.1943C133.094 69.1802 132.684 69.1731 132.264 69.1731C131.839 69.1731 131.429 69.1802 131.032 69.1943C131.023 69.166 131.018 69.1424 131.018 69.1236C131.018 69.0835 131.023 69.0516 131.032 69.028C131.103 69.021 131.16 69.0151 131.202 69.0104C131.245 69.0056 131.303 68.9974 131.376 68.9856C131.451 68.9738 131.511 68.9608 131.556 68.9467C131.603 68.9302 131.652 68.9101 131.701 68.8865C131.751 68.8629 131.787 68.8346 131.811 68.8016C131.837 68.7686 131.85 68.7309 131.85 68.6884C131.878 67.9502 131.892 67.206 131.892 66.456C131.892 65.6918 131.88 65.0326 131.857 64.4783C131.854 64.417 131.827 64.3651 131.775 64.3226C131.724 64.2778 131.648 64.2436 131.549 64.22C131.452 64.1964 131.37 64.1799 131.301 64.1705C131.235 64.1587 131.148 64.1481 131.04 64.1386C131.03 64.0962 131.025 64.0667 131.025 64.0502C131.025 64.0266 131.03 64.0007 131.04 63.9724ZM136.923 63.8556C137.109 63.8556 137.295 63.8686 137.479 63.8945C137.665 63.9181 137.843 63.9476 138.013 63.983C138.185 64.016 138.348 64.049 138.501 64.082C138.654 64.1151 138.792 64.1386 138.915 64.1528C138.887 64.2377 138.872 64.3875 138.872 64.6021C138.872 65.0196 138.935 65.3816 139.06 65.6883C139.046 65.7307 139.002 65.7567 138.929 65.7661L138.777 65.4406C138.701 65.2779 138.611 65.1175 138.505 64.9594C138.398 64.7991 138.271 64.6564 138.122 64.5314C137.974 64.404 137.801 64.3014 137.602 64.2236C137.407 64.1457 137.18 64.1068 136.923 64.1068C136.701 64.1068 136.504 64.1434 136.332 64.2165C136.16 64.2896 136.009 64.3887 135.879 64.5137C135.75 64.6363 135.64 64.7802 135.55 64.9453C135.461 65.108 135.388 65.2814 135.331 65.4654C135.277 65.6493 135.237 65.838 135.211 66.0314C135.187 66.2248 135.175 66.4123 135.175 66.594C135.175 66.8959 135.214 67.1848 135.292 67.4607C135.372 67.7367 135.496 67.9808 135.664 68.1931C135.831 68.403 136.043 68.5705 136.3 68.6955C136.56 68.8205 136.869 68.883 137.227 68.883C137.914 68.883 138.433 68.6684 138.784 68.2391C138.822 68.2391 138.852 68.2497 138.876 68.2709C138.902 68.2922 138.915 68.3181 138.915 68.3488C138.802 68.5162 138.664 68.6613 138.501 68.7839C138.341 68.9066 138.17 69.008 137.988 69.0882C137.806 69.166 137.622 69.2238 137.436 69.2615C137.252 69.2993 137.081 69.3182 136.923 69.3182C136.751 69.3182 136.565 69.2993 136.364 69.2615C136.166 69.2262 135.967 69.166 135.766 69.0811C135.568 68.9962 135.377 68.8853 135.193 68.7485C135.011 68.6094 134.85 68.4396 134.708 68.2391C134.567 68.0362 134.454 67.7992 134.369 67.528C134.284 67.2567 134.241 66.9454 134.241 66.594C134.241 66.2402 134.284 65.9277 134.369 65.6564C134.454 65.3828 134.567 65.1446 134.708 64.9418C134.852 64.7389 135.016 64.5691 135.2 64.4323C135.386 64.2931 135.579 64.1811 135.777 64.0962C135.975 64.0089 136.173 63.9476 136.371 63.9122C136.569 63.8745 136.753 63.8556 136.923 63.8556ZM139.538 63.9724C140.066 63.9912 140.479 64.0007 140.776 64.0007C142.8 63.9889 143.92 63.9794 144.137 63.9724C144.168 64.2082 144.228 64.4323 144.317 64.6446C144.407 64.8545 144.521 65.0786 144.661 65.3168C144.642 65.3569 144.6 65.3887 144.537 65.4123C144.452 65.2519 144.349 65.1092 144.229 64.9842C144.109 64.8592 143.956 64.7413 143.773 64.6304C143.591 64.5196 143.363 64.4288 143.09 64.358C142.818 64.2872 142.508 64.2401 142.159 64.2165H141.183C141.152 65.2142 141.137 65.9654 141.137 66.4701H142.145C142.213 66.4701 142.277 66.4654 142.336 66.456C142.397 66.4442 142.454 66.4253 142.506 66.3994C142.558 66.3711 142.604 66.3451 142.644 66.3215C142.686 66.2956 142.729 66.2579 142.771 66.2083C142.814 66.1564 142.849 66.114 142.877 66.081C142.906 66.0456 142.94 65.9925 142.98 65.9218C143.02 65.851 143.051 65.7956 143.072 65.7555C143.093 65.7154 143.125 65.6529 143.168 65.568C143.212 65.4831 143.247 65.4194 143.27 65.3769C143.343 65.4052 143.388 65.4359 143.405 65.4689C143.306 65.6434 143.222 65.8368 143.153 66.0491C143.085 66.2614 143.051 66.4383 143.051 66.5798C143.051 66.9147 143.169 67.2839 143.405 67.6872C143.386 67.7249 143.341 67.7568 143.27 67.7827C143.244 67.7355 143.208 67.6683 143.16 67.581C143.116 67.4914 143.08 67.423 143.054 67.3758C143.028 67.3287 142.993 67.2685 142.948 67.1954C142.903 67.1223 142.863 67.0657 142.828 67.0256C142.795 66.9855 142.751 66.9407 142.697 66.8911C142.645 66.8416 142.593 66.8051 142.541 66.7815C142.489 66.7555 142.429 66.7343 142.361 66.7178C142.295 66.6989 142.223 66.6895 142.145 66.6895H141.137C141.137 67.0645 141.15 67.8204 141.176 68.9573H142.304C142.653 68.9337 142.964 68.8865 143.235 68.8158C143.508 68.745 143.736 68.6542 143.918 68.5433C144.102 68.4325 144.254 68.3146 144.374 68.1896C144.494 68.0645 144.597 67.9219 144.682 67.7615C144.745 67.7851 144.787 67.8157 144.806 67.8535C144.794 67.877 144.763 67.9336 144.714 68.0233C144.664 68.1129 144.631 68.1742 144.615 68.2072C144.598 68.2379 144.57 68.2933 144.53 68.3735C144.492 68.4514 144.464 68.515 144.445 68.5646C144.426 68.6117 144.403 68.6719 144.377 68.745C144.354 68.8181 144.334 68.8901 144.317 68.9608C144.303 69.0292 144.291 69.1 144.282 69.1731H141.176C140.537 69.1731 139.988 69.1802 139.531 69.1943C139.521 69.166 139.516 69.1424 139.516 69.1236C139.516 69.1071 139.521 69.0752 139.531 69.028C139.639 69.0186 139.726 69.0092 139.792 68.9997C139.861 68.9879 139.943 68.9703 140.04 68.9467C140.139 68.9231 140.215 68.8901 140.266 68.8476C140.318 68.8028 140.345 68.7497 140.348 68.6884C140.376 67.9502 140.39 67.206 140.39 66.456C140.39 65.6918 140.378 65.0326 140.355 64.4783C140.353 64.417 140.325 64.3651 140.274 64.3226C140.222 64.2778 140.146 64.2436 140.047 64.22C139.95 64.1964 139.868 64.1799 139.799 64.1705C139.733 64.1587 139.646 64.1481 139.538 64.1386C139.528 64.0962 139.523 64.0667 139.523 64.0502C139.523 64.036 139.528 64.0101 139.538 63.9724ZM148.63 65.4689C148.54 65.0373 148.375 64.7024 148.135 64.4641C147.897 64.2259 147.61 64.1068 147.275 64.1068C146.947 64.1068 146.692 64.1846 146.511 64.3403C146.332 64.496 146.242 64.7035 146.242 64.963C146.242 65.1069 146.255 65.226 146.281 65.3203C146.307 65.4147 146.36 65.5066 146.44 65.5963C146.52 65.6835 146.637 65.7614 146.79 65.8298C146.944 65.8958 147.144 65.9595 147.392 66.0208C147.526 66.0538 147.643 66.0845 147.742 66.1128C147.843 66.1411 147.954 66.18 148.075 66.2296C148.197 66.2791 148.302 66.3322 148.389 66.3888C148.479 66.4454 148.568 66.5161 148.655 66.601C148.744 66.6836 148.816 66.7756 148.871 66.877C148.927 66.9784 148.972 67.0987 149.005 67.2379C149.04 67.3747 149.058 67.5244 149.058 67.6872C149.058 67.9042 149.018 68.1046 148.938 68.2886C148.858 68.4702 148.753 68.6235 148.623 68.7485C148.493 68.8736 148.343 68.9797 148.174 69.067C148.004 69.1542 147.832 69.2179 147.657 69.258C147.483 69.2981 147.309 69.3182 147.137 69.3182C146.613 69.3182 146.056 69.1825 145.464 68.9113C145.475 68.6566 145.481 68.4997 145.481 68.4407C145.481 68.0563 145.449 67.673 145.386 67.2909C145.412 67.2744 145.438 67.2662 145.464 67.2662C145.497 67.2662 145.526 67.2744 145.552 67.2909C145.602 67.5952 145.683 67.8641 145.796 68.0976C145.912 68.3311 146.044 68.5162 146.192 68.653C146.341 68.7875 146.494 68.8889 146.652 68.9573C146.813 69.0233 146.974 69.0563 147.137 69.0563C147.507 69.0563 147.792 68.9608 147.99 68.7698C148.19 68.5764 148.29 68.3216 148.29 68.0056C148.29 67.6872 148.216 67.4478 148.068 67.2874C147.921 67.1246 147.641 66.9926 147.226 66.8911C146.707 66.7614 146.301 66.5704 146.008 66.318C145.718 66.0633 145.573 65.7272 145.573 65.3097C145.573 65.0903 145.609 64.8946 145.679 64.7224C145.753 64.5479 145.846 64.4087 145.959 64.3049C146.075 64.1988 146.209 64.1115 146.362 64.0431C146.516 63.9724 146.667 63.924 146.815 63.8981C146.966 63.8698 147.119 63.8556 147.275 63.8556C147.742 63.8556 148.228 63.9641 148.733 64.1811C148.719 64.3203 148.711 64.4653 148.711 64.6163C148.711 64.9701 148.74 65.2543 148.796 65.4689C148.766 65.4807 148.74 65.4866 148.719 65.4866C148.695 65.4866 148.665 65.4807 148.63 65.4689Z" fill="#8C8781"/>
</svg>
