<svg width="17" height="17" viewBox="0 0 17 17" fill="none" xmlns="http://www.w3.org/2000/svg">
<path d="M7.54633 14.7227H6.6123C4.22213 14.7227 3.02705 14.7227 2.28452 13.9661C1.54199 13.2095 1.54199 11.9917 1.54199 9.55607C1.54199 7.12048 1.54199 5.90268 2.28452 5.14604C3.02705 4.3894 4.22213 4.3894 6.6123 4.3894H9.14746C11.5376 4.3894 12.7327 4.3894 13.4753 5.14604C14.0465 5.7282 14.1783 6.58334 14.2087 8.05607" stroke="#666666" stroke-linecap="round" stroke-linejoin="round"/>
<path d="M12.776 13.2894L11.876 12.6894V11.1894M8.87598 12.3894C8.87598 14.0463 10.2191 15.3894 11.876 15.3894C13.5328 15.3894 14.876 14.0463 14.876 12.3894C14.876 10.7325 13.5328 9.3894 11.876 9.3894C10.2191 9.3894 8.87598 10.7325 8.87598 12.3894Z" stroke="#666666" stroke-linecap="round" stroke-linejoin="round"/>
<path d="M10.876 4.38924L10.8098 4.1832C10.4797 3.1565 10.3147 2.64315 9.92191 2.34953C9.52904 2.05591 9.00731 2.05591 7.96371 2.05591H7.78824C6.74467 2.05591 6.22288 2.05591 5.83005 2.34953C5.43722 2.64315 5.27222 3.1565 4.9422 4.1832L4.87598 4.38924" stroke="#666666" stroke-linecap="round" stroke-linejoin="round"/>
</svg>
