<svg width="40" height="41" viewBox="0 0 40 41" fill="none" xmlns="http://www.w3.org/2000/svg">
<rect x="0.62207" y="1.29199" width="38.75" height="38.75" fill="white"/>
<rect x="0.62207" y="1.29199" width="38.75" height="38.75" stroke="#D7E8FF" stroke-width="1.25"/>
<path d="M19.2334 22.7901L14.8683 27.7779H12.4925L18.1285 21.3361L18.1385 21.3247L18.1293 21.3127L12.1771 13.5293H17.131L20.5783 18.0867L20.592 18.1048L20.607 18.0877L24.595 13.5293H26.9691L21.7016 19.5499L21.6916 19.5613L21.7007 19.5733L27.9069 27.7779H23.0762L19.2621 22.791L19.2483 22.773L19.2334 22.7901ZM23.7212 26.3571L23.7268 26.3644H23.736H25.0789H25.1161L25.0936 26.3347L16.4254 14.874L16.4199 14.8667H16.4106H14.9697H14.9322L14.955 14.8965L23.7212 26.3571Z" fill="#171A1D" stroke="#171A1D" stroke-width="0.0370417"/>
</svg>
