<svg width="14" height="14" viewBox="0 0 14 14" fill="none" xmlns="http://www.w3.org/2000/svg">
<g clip-path="url(#clip0_2120_17334)">
<path d="M13.0197 3.81085C12.9519 3.5397 12.8136 3.29126 12.619 3.09063C12.4244 2.89 12.1803 2.74428 11.9114 2.66818C10.9287 2.42822 6.99788 2.42822 6.99788 2.42822C6.99788 2.42822 3.06711 2.42822 2.08442 2.69104C1.81546 2.76713 1.57135 2.91285 1.37673 3.11348C1.18212 3.31412 1.0439 3.56255 0.976031 3.8337C0.796183 4.831 0.70821 5.84269 0.713217 6.85606C0.706806 7.87705 0.794785 8.89646 0.976031 9.90126C1.05085 10.164 1.19217 10.403 1.38633 10.5951C1.58049 10.7873 1.82093 10.9261 2.08442 10.9982C3.06711 11.261 6.99788 11.261 6.99788 11.261C6.99788 11.261 10.9287 11.261 11.9114 10.9982C12.1803 10.9221 12.4244 10.7764 12.619 10.5758C12.8136 10.3751 12.9519 10.1267 13.0197 9.85556C13.1982 8.86577 13.2862 7.86179 13.2826 6.85606C13.289 5.83506 13.201 4.81565 13.0197 3.81085Z" stroke="#0C2459" stroke-width="1.28" stroke-linecap="round" stroke-linejoin="round"/>
<path d="M5.71289 8.17469C5.71289 8.4201 5.97776 8.57417 6.19108 8.45286L8.50893 7.13471C8.72468 7.01201 8.72467 6.70107 8.50893 6.57838L6.19108 5.26023C5.97775 5.13891 5.71289 5.29298 5.71289 5.53839V8.17469Z" stroke="#0C2459" stroke-width="1.28" stroke-linecap="round" stroke-linejoin="round"/>
</g>
<defs>
<clipPath id="clip0_2120_17334">
<rect width="13.712" height="13.712" fill="white" transform="translate(0.142578 0.142578)"/>
</clipPath>
</defs>
</svg>
