<svg width="40" height="41" viewBox="0 0 40 41" fill="none" xmlns="http://www.w3.org/2000/svg">
<rect x="0.625" y="1.29199" width="38.7471" height="38.7471" fill="white"/>
<rect x="0.625" y="1.29199" width="38.7471" height="38.7471" stroke="#D7E8FF" stroke-width="1.25"/>
<g clip-path="url(#clip0_2120_17333)">
<path d="M27.5252 16.6809C27.4403 16.342 27.2675 16.0314 27.0243 15.7806C26.781 15.5299 26.4759 15.3477 26.1397 15.2526C24.9113 14.9526 19.9978 14.9526 19.9978 14.9526C19.9978 14.9526 15.0844 14.9526 13.856 15.2812C13.5198 15.3763 13.2147 15.5584 12.9714 15.8092C12.7281 16.06 12.5554 16.3706 12.4705 16.7095C12.2457 17.9561 12.1358 19.2207 12.142 20.4874C12.134 21.7637 12.244 23.0379 12.4705 24.2939C12.5641 24.6223 12.7407 24.9211 12.9834 25.1613C13.2261 25.4015 13.5267 25.575 13.856 25.6651C15.0844 25.9937 19.9978 25.9937 19.9978 25.9937C19.9978 25.9937 24.9113 25.9937 26.1397 25.6651C26.4759 25.57 26.781 25.3879 27.0243 25.1371C27.2675 24.8863 27.4403 24.5757 27.5252 24.2368C27.7482 22.9996 27.8582 21.7446 27.8537 20.4874C27.8617 19.2112 27.7517 17.9369 27.5252 16.6809Z" stroke="#171A1D" stroke-width="1.6" stroke-linecap="round" stroke-linejoin="round"/>
<path d="M18.3916 22.1358C18.3916 22.4426 18.7227 22.6352 18.9893 22.4836L21.8867 20.8359C22.1563 20.6825 22.1563 20.2938 21.8867 20.1405L18.9893 18.4928C18.7227 18.3411 18.3916 18.5337 18.3916 18.8405V22.1358Z" stroke="#171A1D" stroke-width="1.6" stroke-linecap="round" stroke-linejoin="round"/>
</g>
<defs>
<clipPath id="clip0_2120_17333">
<rect width="17.14" height="17.14" fill="white" transform="translate(11.4287 12.0957)"/>
</clipPath>
</defs>
</svg>
