<svg width="18" height="18" viewBox="0 0 18 18" fill="none" xmlns="http://www.w3.org/2000/svg">
<g clip-path="url(#clip0_40001309_936)">
<path d="M16.5252 5.01442C16.4403 4.67548 16.2675 4.36493 16.0243 4.11414C15.781 3.86335 15.4759 3.6812 15.1397 3.58608C13.9113 3.28613 8.99784 3.28613 8.99784 3.28613C8.99784 3.28613 4.08438 3.28613 2.85601 3.61465C2.51981 3.70977 2.21467 3.89192 1.9714 4.14271C1.72814 4.3935 1.55536 4.70405 1.47053 5.04298C1.24572 6.2896 1.13575 7.55421 1.14201 8.82092C1.134 10.0972 1.24397 11.3714 1.47053 12.6274C1.56405 12.9558 1.7407 13.2546 1.9834 13.4948C2.2261 13.735 2.52665 13.9085 2.85601 13.9986C4.08438 14.3271 8.99784 14.3271 8.99784 14.3271C8.99784 14.3271 13.9113 14.3271 15.1397 13.9986C15.4759 13.9035 15.781 13.7214 16.0243 13.4706C16.2675 13.2198 16.4403 12.9092 16.5252 12.5703C16.7482 11.3331 16.8582 10.0781 16.8537 8.82092C16.8617 7.54468 16.7517 6.27042 16.5252 5.01442Z" stroke="#171A1D" stroke-width="1.6" stroke-linecap="round" stroke-linejoin="round"/>
<path d="M7.3916 10.4693C7.3916 10.7761 7.72268 10.9687 7.98934 10.817L10.8867 9.16936C11.1563 9.01599 11.1563 8.62731 10.8867 8.47395L7.98934 6.82626C7.72268 6.67461 7.3916 6.8672 7.3916 7.17397V10.4693Z" stroke="#171A1D" stroke-width="1.6" stroke-linecap="round" stroke-linejoin="round"/>
</g>
<defs>
<clipPath id="clip0_40001309_936">
<rect width="17.14" height="17.14" fill="white" transform="translate(0.428711 0.428711)"/>
</clipPath>
</defs>
</svg>
