<svg width="33" height="33" viewBox="0 0 33 33" fill="none" xmlns="http://www.w3.org/2000/svg">
<path d="M7.80513 2.63755L4.52437 4.3325L2.611 9.4718L2.11914 16.0873L2.611 24.9991L5.78207 29.2636L9.82791 30.4665H17.2088L26.9407 29.2636L29.5104 26.858L30.5492 20.9533V10.4559L29.5651 5.37129L24.9725 2.63755L16.9902 2.2002L7.80513 2.63755Z" fill="#B7FFFD"/>
<path d="M11.4571 6.06018C8.65034 6.06018 6.375 8.33552 6.375 11.1423C6.375 13.0234 7.39701 14.6658 8.91606 15.5445V22.1635C8.91606 22.9944 8.91606 23.4099 9.0708 23.7834C9.22554 24.1571 9.51931 24.4508 10.1069 25.0384L11.4571 26.3886L13.5999 24.2458C13.6987 24.147 13.7482 24.0975 13.7892 24.0439C13.8968 23.9032 13.9658 23.7367 13.9892 23.5609C13.9982 23.4941 13.9982 23.4241 13.9982 23.2844C13.9982 23.1712 13.9982 23.1147 13.9922 23.0597C13.9765 22.9156 13.9301 22.7766 13.8562 22.6518C13.828 22.6043 13.7941 22.559 13.7262 22.4686L12.4735 20.7983L13.185 19.8497C13.588 19.3123 13.7895 19.0437 13.8939 18.7307C13.9982 18.4177 13.9982 18.0819 13.9982 17.4103V15.5445C15.5172 14.6658 16.5392 13.0234 16.5392 11.1423C16.5392 8.33552 14.2639 6.06018 11.4571 6.06018Z" fill="white" stroke="#1355FF" stroke-width="1.5" stroke-linejoin="round"/>
<path d="M11.457 11.1422H11.466" stroke="#1355FF" stroke-width="1.5" stroke-linecap="round" stroke-linejoin="round"/>
<path d="M17.5547 18.2572H23.6532C24.6004 18.2572 25.074 18.2572 25.4476 18.4119C25.9457 18.6182 26.3415 19.014 26.5478 19.5121C26.7025 19.8857 26.7025 20.3593 26.7025 21.3065C26.7025 22.2537 26.7025 22.7272 26.5478 23.1009C26.3415 23.5989 25.9457 23.9947 25.4476 24.201C25.074 24.3557 24.6004 24.3557 23.6532 24.3557H17.5547" stroke="#1355FF" stroke-width="1.5" stroke-linecap="round"/>
<path d="M19.5879 9.10941H23.6536C24.6008 9.10941 25.0743 9.10941 25.448 9.26415C25.946 9.47047 26.3418 9.86621 26.5481 10.3643C26.7028 10.7379 26.7028 11.2115 26.7028 12.1587C26.7028 13.1059 26.7028 13.5794 26.5481 13.953C26.3418 14.4511 25.946 14.8469 25.448 15.0532C25.0743 15.2079 24.6008 15.2079 23.6536 15.2079H19.5879" stroke="#1355FF" stroke-width="1.5" stroke-linecap="round"/>
<path d="M2.53906 16.2244C2.53906 9.62471 2.53906 6.32488 4.58931 4.27461C6.63957 2.22437 9.9394 2.22437 16.5391 2.22437C23.1387 2.22437 26.4385 2.22437 28.4889 4.27461C30.5391 6.32488 30.5391 9.62471 30.5391 16.2244C30.5391 22.824 30.5391 26.1238 28.4889 28.1742C26.4385 30.2244 23.1387 30.2244 16.5391 30.2244C9.9394 30.2244 6.63957 30.2244 4.58931 28.1742C2.53906 26.1238 2.53906 22.824 2.53906 16.2244Z" stroke="#1355FF" stroke-width="1.5" stroke-linecap="round" stroke-linejoin="round"/>
</svg>
