<svg width="33" height="32" viewBox="0 0 33 32" fill="none" xmlns="http://www.w3.org/2000/svg">
<path d="M16.3349 19.8889L8.55707 17.5556L7.7793 10.5556L10.8904 5.11111L15.5571 2L23.3349 2.77778L28.0015 6.66667L29.5571 12.8889L27.2237 19.8889H21.0015C19.1349 21.7556 17.1126 20.6667 16.3349 19.8889Z" fill="white"/>
<path d="M6.22287 17.5555H2.33398V26.8889L8.55621 28.4444L14.0007 30L17.8895 28.4444L24.1118 24.5555L27.2229 22.2222L28.0007 20.6667L25.6673 19.1111L22.5562 19.8889L17.1118 21.4444L16.334 19.8889H13.2229L10.1118 19.1111L6.22287 17.5555Z" fill="#B7FFFD"/>
<path d="M27.6034 19.1111C28.8337 17.3474 29.5551 15.2023 29.5551 12.8889C29.5551 6.87513 24.68 2 18.6662 2C12.6525 2 7.77734 6.87511 7.77734 12.8889C7.77734 14.5589 8.15331 16.1411 8.82521 17.5556" stroke="#1355FF" stroke-width="2.33333" stroke-linecap="round" stroke-linejoin="round"/>
<path d="M19.4447 7.83329C18.156 7.83329 17.1113 8.61679 17.1113 9.58329C17.1113 10.5498 18.156 11.3333 19.4447 11.3333C20.7334 11.3333 21.778 12.1168 21.778 13.0833C21.778 14.0498 20.7334 14.8333 19.4447 14.8333M19.4447 7.83329C20.4606 7.83329 21.3249 8.32026 21.6452 8.99996M19.4447 7.83329V6.66663M19.4447 14.8333C18.4287 14.8333 17.5645 14.3463 17.2441 13.6666M19.4447 14.8333V16" stroke="#1355FF" stroke-width="1.75" stroke-linecap="round"/>
<path d="M3.11133 17.5555H6.8366C7.29417 17.5555 7.74545 17.6587 8.1547 17.8567L11.3311 19.3936C11.7404 19.5916 12.1917 19.6946 12.6492 19.6946H14.271C15.8397 19.6946 17.1113 20.9252 17.1113 22.4431C17.1113 22.5044 17.0693 22.5584 17.0084 22.5752L13.0558 23.6681C12.3468 23.8641 11.5875 23.7958 10.928 23.4766L7.53239 21.8338M17.1113 21.4444L24.2557 19.2494C25.5222 18.8547 26.8913 19.3227 27.6846 20.4213C28.2583 21.2156 28.0246 22.3532 27.189 22.8354L15.4981 29.5808C14.7545 30.0098 13.8772 30.1145 13.0594 29.8718L3.11133 26.9198" stroke="#1355FF" stroke-width="2.33333" stroke-linecap="round" stroke-linejoin="round"/>
</svg>
