<svg width="33" height="32" viewBox="0 0 33 32" fill="none" xmlns="http://www.w3.org/2000/svg">
<path d="M12.135 2.42126L14.9303 5.91536L16.3279 8.01182H26.1114C30.0248 8.57087 30.5373 11.9718 30.3043 13.6024L26.8102 15C25.1331 13.3228 22.8503 14.3012 21.9185 15C15.7689 15 17.4926 23.3858 19.1232 27.5787H12.135L5.84566 26.8799L3.05038 24.0847L2.35156 19.8917V10.1083L3.05038 3.8189L6.54448 2.42126H12.135Z" fill="#B7FFFD"/>
<path d="M19.1278 27.5787H16.3317C9.74142 27.5787 6.44626 27.5787 4.39892 25.5319C2.35156 23.4852 2.35156 20.1908 2.35156 13.6024V9.33156C2.35156 6.7928 2.35156 5.52341 2.88325 4.57092C3.26226 3.89196 3.82265 3.33171 4.5018 2.95281C5.45456 2.42126 6.72428 2.42126 9.26375 2.42126C10.8907 2.42126 11.7042 2.42126 12.4163 2.68823C14.0421 3.29775 14.7126 4.7743 15.4462 6.24119L16.3317 8.01182M10.7397 8.01182H22.9723C25.9176 8.01182 27.3901 8.01182 28.448 8.71845C28.906 9.02436 29.2991 9.41745 29.6051 9.87527C30.1558 10.6992 30.2775 11.7749 30.3043 13.6024" stroke="#1355FF" stroke-width="2" stroke-linecap="round"/>
<path d="M28.9073 20.7348V18.3734C28.9073 18.0021 28.6345 17.6938 28.2808 17.6306C26.8551 17.3756 25.6716 16.8086 25.0942 16.4942C24.8578 16.3654 24.571 16.3654 24.3346 16.4942C23.7572 16.8086 22.5737 17.3756 21.148 17.6306C20.7943 17.6938 20.5215 18.0021 20.5215 18.3734V20.7348C20.5215 23.8152 23.5672 25.4955 24.467 25.9246C24.6257 26.0003 24.803 26.0003 24.9618 25.9246C25.8616 25.4955 28.9073 23.8152 28.9073 20.7348Z" fill="white" stroke="#1355FF" stroke-width="2" stroke-linecap="round"/>
<path d="M14.0261 15H8.43555M11.2308 20.5906H8.43555" stroke="#1355FF" stroke-width="2" stroke-linecap="round" stroke-linejoin="round"/>
</svg>
