<svg width="33" height="32" viewBox="0 0 33 32" fill="none" xmlns="http://www.w3.org/2000/svg">
<path d="M29.2198 18.3349C19.9316 16.7224 19.1645 23.6391 19.942 27.299H15.9968H9.14341L4.22515 26.0752L2.77399 23.3338L2.12891 17.6093L2.77399 9.38532L6.64417 7.20837H15.9968H25.2689L28.0909 8.57897L29.2198 12.4491C29.2197 14.4648 29.2197 18.4639 29.2198 18.3349Z" fill="#B7FFFD"/>
<path d="M29.1433 18.3414V15.8473C29.1433 11.7322 29.1433 9.67461 27.7797 8.39621C26.4159 7.1178 24.2212 7.1178 19.8318 7.1178H11.8505C7.46106 7.1178 5.26632 7.1178 3.9027 8.39621C2.53906 9.67461 2.53906 11.7322 2.53906 15.8473V18.3414C2.53906 22.4566 2.53906 24.5141 3.9027 25.7925C5.26632 27.0709 7.46106 27.0709 11.8505 27.0709H19.8318" stroke="#1355FF" stroke-width="1.99531" stroke-linecap="round" stroke-linejoin="round"/>
<path d="M11.8516 17.0944H19.8328M15.8422 13.1038V21.085" stroke="#1355FF" stroke-width="1.99531" stroke-linecap="round" stroke-linejoin="round"/>
<path d="M22.4915 7.11783C22.4915 3.81625 21.8025 3.1272 18.5009 3.1272H13.1801C9.8785 3.1272 9.18945 3.81625 9.18945 7.11783" stroke="#1355FF" stroke-width="1.99531" stroke-linecap="round" stroke-linejoin="round"/>
<path d="M26.1061 28.8728C28.554 28.8728 30.5384 26.8884 30.5384 24.4405C30.5384 21.9926 28.554 20.0082 26.1061 20.0082C23.6582 20.0082 21.6738 21.9926 21.6738 24.4405C21.6738 26.8884 23.6582 28.8728 26.1061 28.8728Z" fill="white" stroke="#1355FF" stroke-width="1.59625"/>
<path d="M26.1016 26.3916H26.1067" stroke="#1355FF" stroke-width="1.59625" stroke-linecap="round" stroke-linejoin="round"/>
<path d="M26.1074 24.4404V22.6675" stroke="#1355FF" stroke-width="1.59625" stroke-linecap="round" stroke-linejoin="round"/>
</svg>
