<svg width="33" height="33" viewBox="0 0 33 33" fill="none" xmlns="http://www.w3.org/2000/svg">
<path d="M5.66732 25H18.334C18.334 17.5333 24.1118 15.2222 27.0007 15V8.99998L25.6673 4.99998L21.0007 4.33331H11.0007L5.00065 4.99998L3.00065 6.99998L2.33398 10.3333V15L3.00065 22.3333L5.66732 25Z" fill="#B7FFFD"/>
<path d="M25.6667 25.0999H25.6751H25.6667ZM25.6758 22.9999V20.8999V22.9999ZM30.3333 22.9999C30.3333 25.5773 28.244 27.6666 25.6667 27.6666C23.0893 27.6666 21 25.5773 21 22.9999C21 20.4226 23.0893 18.3333 25.6667 18.3333C28.244 18.3333 30.3333 20.4226 30.3333 22.9999Z" fill="white"/>
<path d="M25.6667 25.0999H25.6751M25.6758 22.9999V20.8999M30.3333 22.9999C30.3333 25.5773 28.244 27.6666 25.6667 27.6666C23.0893 27.6666 21 25.5773 21 22.9999C21 20.4226 23.0893 18.3333 25.6667 18.3333C28.244 18.3333 30.3333 20.4226 30.3333 22.9999Z" stroke="#1355FF" stroke-width="1.55556" stroke-linecap="round"/>
<path d="M18.3427 25H12.4746C7.69426 25 5.3041 25 3.81904 23.4866C2.33398 21.9734 2.33398 19.5378 2.33398 14.6666C2.33398 9.79546 2.33398 7.35987 3.81904 5.84659C5.3041 4.33331 7.69426 4.33331 12.4746 4.33331H17.5449C22.3252 4.33331 24.7155 4.33331 26.2005 5.84659C27.3431 7.0109 27.201 11.7212 27.2618 14.6666" stroke="#1355FF" stroke-width="2" stroke-linecap="round" stroke-linejoin="round"/>
<path d="M8.1875 18.5124V16.8183M12.4229 18.5124V15.9712M16.6583 18.5124V14.277" stroke="#1355FF" stroke-width="2" stroke-linecap="round" stroke-linejoin="round"/>
<path d="M7.33398 12.9947C9.15953 13.0555 13.2991 12.78 15.6536 9.0431M14.1107 8.59163L15.6994 8.33593C15.8931 8.31128 16.1774 8.46415 16.2472 8.64638L16.6673 10.0343" stroke="#1355FF" stroke-width="2" stroke-linecap="round" stroke-linejoin="round"/>
</svg>
