<svg width="33" height="32" viewBox="0 0 33 32" fill="none" xmlns="http://www.w3.org/2000/svg">
<path d="M17.726 8.39699C16.5354 7.60346 16.0545 4.83319 15.9629 3.54724L11.6642 4.53925L5.65722 8.39699L2.95703 16.4981L5.9327 23.6072L7.53114 27.4098L5.9327 30H10.0112L12.6013 28.512L15.1364 28.7876L21.3087 27.9609L27.4259 23.6072L29.3547 18.2616C24.7437 18.28 15.5327 18.3057 15.5768 18.2616C12.6008 17.7656 13.2073 13.2466 13.2073 13.1915C13.3175 7.90094 17.7814 8.56226 17.726 8.39699Z" fill="#B7FFFD"/>
<path d="M26.9111 16.7593V14.5454C26.9111 12.4581 26.9111 11.4144 26.2627 10.766C25.6142 10.1176 24.5706 10.1176 22.4833 10.1176H19.5314C17.4441 10.1176 16.4004 10.1176 15.752 10.766C15.1035 11.4144 15.1035 12.4581 15.1035 14.5454C15.1035 15.2331 15.1035 15.577 15.2159 15.8482C15.3657 16.2098 15.653 16.4971 16.0146 16.647C16.2859 16.7593 16.6297 16.7593 17.3174 16.7593" fill="white"/>
<path d="M26.9111 16.7593V14.5454C26.9111 12.4581 26.9111 11.4144 26.2627 10.766C25.6142 10.1176 24.5706 10.1176 22.4833 10.1176H19.5314C17.4441 10.1176 16.4004 10.1176 15.752 10.766C15.1035 11.4144 15.1035 12.4581 15.1035 14.5454C15.1035 15.2331 15.1035 15.577 15.2159 15.8482C15.3657 16.2098 15.653 16.4971 16.0146 16.647C16.2859 16.7593 16.6297 16.7593 17.3174 16.7593" stroke="#1355FF" stroke-width="1.5" stroke-linecap="round" stroke-linejoin="round"/>
<path d="M19.1613 10.1176L21.3753 16.7593L19.1613 10.1176ZM17.3164 10.4865V16.7593V10.4865Z" fill="white"/>
<path d="M19.1613 10.1176L21.3753 16.7593M17.3164 10.4865V16.7593" stroke="#1355FF" stroke-width="1.5" stroke-linecap="round" stroke-linejoin="round"/>
<path d="M21.0059 14.5455H22.8508C23.4621 14.5455 23.9578 15.0412 23.9578 15.6525C23.9578 16.2638 23.4621 16.7595 22.8508 16.7595H21.3748" fill="white"/>
<path d="M21.0059 14.5455H22.8508C23.4621 14.5455 23.9578 15.0412 23.9578 15.6525C23.9578 16.2638 23.4621 16.7595 22.8508 16.7595H21.3748" stroke="#1355FF" stroke-width="1.5" stroke-linecap="round" stroke-linejoin="round"/>
<path d="M23.5897 5.3209V4.58292C23.5897 3.15641 22.4333 2 21.0067 2C19.5802 2 18.4238 3.15641 18.4238 4.58292V5.3209C18.4238 6.74741 19.5802 7.90382 21.0067 7.90382C22.4333 7.90382 23.5897 6.74741 23.5897 5.3209Z" fill="white" stroke="#1355FF" stroke-width="1.5" stroke-linecap="round" stroke-linejoin="round"/>
<path d="M15.9135 3.61499C8.95654 3.94284 3.41992 9.44433 3.41992 16.1819C3.41992 19.5203 4.77886 22.5538 6.99556 24.8049C7.48361 25.3006 7.80947 25.9778 7.67796 26.6747C7.46091 27.8144 6.96906 28.8772 6.24888 29.7632C8.14373 30.1157 10.114 29.7983 11.8037 28.8996C12.401 28.582 12.6997 28.4231 12.9104 28.3909C13.1212 28.3587 13.4231 28.4155 14.0269 28.5288C14.8656 28.6864 15.7171 28.7652 16.571 28.7642C23.6338 28.7642 29.3973 23.4358 29.7089 16.7517" stroke="#1355FF" stroke-width="1.5" stroke-linecap="round" stroke-linejoin="round"/>
</svg>
