<svg width="33" height="33" viewBox="0 0 33 33" fill="none" xmlns="http://www.w3.org/2000/svg">
<path d="M30.3025 16.045C16.3511 19.4303 14.8292 8.30836 15.8122 2.32422L10.0417 4.1195L3.88633 10.0182L2.47559 17.9686L3.88633 22.072L7.47677 27.3295L5.03985 30.92H7.47677L12.4773 29.3812H17.3501L24.5311 27.3295L29.5322 21.3026C29.8743 19.5929 30.5073 16.1477 30.3025 16.045Z" fill="#B7FFFD"/>
<path d="M30.5244 15.9129C30.5244 23.3094 24.2555 29.3063 16.5244 29.3063C15.6154 29.3076 14.7089 29.2234 13.816 29.0558C13.1733 28.935 12.8519 28.8747 12.6276 28.909C12.4032 28.9433 12.0853 29.1124 11.4494 29.4505C9.65061 30.4071 7.55314 30.7449 5.53597 30.3697C6.30265 29.4267 6.82626 28.2952 7.05731 27.0823C7.19731 26.3403 6.85041 25.6195 6.33086 25.0919C3.97108 22.6956 2.52441 19.4667 2.52441 15.9129C2.52441 8.51653 8.79331 2.51953 16.5244 2.51953" stroke="#1355FF" stroke-width="1.5" stroke-linecap="round" stroke-linejoin="round"/>
<path d="M24.9242 8.11953L26.3242 6.71953L24.9242 8.11953ZM30.5242 8.11953C30.5242 11.2123 28.017 13.7195 24.9242 13.7195C21.8315 13.7195 19.3242 11.2123 19.3242 8.11953C19.3242 5.02674 21.8315 2.51953 24.9242 2.51953C28.017 2.51953 30.5242 5.02674 30.5242 8.11953Z" fill="white"/>
<path d="M24.9242 8.11953L26.3242 6.71953M30.5242 8.11953C30.5242 11.2123 28.017 13.7195 24.9242 13.7195C21.8315 13.7195 19.3242 11.2123 19.3242 8.11953C19.3242 5.02674 21.8315 2.51953 24.9242 2.51953C28.017 2.51953 30.5242 5.02674 30.5242 8.11953Z" stroke="#1355FF" stroke-width="1.5" stroke-linecap="round"/>
<path d="M16.5185 16.5195H16.5311M10.9248 16.5195H10.9374" stroke="#1355FF" stroke-width="1.5" stroke-linecap="round" stroke-linejoin="round"/>
</svg>
