<svg width="33" height="33" viewBox="0 0 33 33" fill="none" xmlns="http://www.w3.org/2000/svg">
<path d="M6.15217 8.09692H21.4249V17.006H25.2431V18.2787V26.5515L22.6976 29.7333L17.6067 30.3697H6.78853L2.97035 28.4606L2.33398 24.006V17.6424L2.97035 10.006L6.15217 8.09692Z" fill="#B7FFFD"/>
<path d="M25.2063 14.977C25.2431 16.1025 25.2431 17.403 25.2431 18.9151C25.2431 24.3148 25.2431 27.0148 23.5656 28.6922C21.8882 30.3697 19.1882 30.3697 13.7885 30.3697C8.38881 30.3697 5.68894 30.3697 4.01146 28.6922C2.33398 27.0148 2.33398 24.3148 2.33398 18.9151C2.33398 13.5154 2.33398 10.8155 4.01146 9.13805C5.68894 7.46057 8.38881 7.46057 13.7885 7.46057C15.3007 7.46057 16.6011 7.46057 17.7266 7.49742" stroke="#1355FF" stroke-width="2" stroke-linecap="round" stroke-linejoin="round"/>
<path d="M21.4258 10.006V4.15145C21.4258 3.67766 21.4258 3.44078 21.4881 3.24906C21.614 2.8616 21.9178 2.55781 22.3052 2.43192C22.4969 2.36963 22.7338 2.36963 23.2076 2.36963H26.5167C28.6255 2.36963 30.3349 4.07909 30.3349 6.18781C30.3349 8.29659 28.6255 10.006 26.5167 10.006H21.4258ZM21.4258 10.006V16.3696V10.006Z" fill="white"/>
<path d="M21.4258 10.006V4.15145C21.4258 3.67766 21.4258 3.44078 21.4881 3.24906C21.614 2.8616 21.9178 2.55781 22.3052 2.43192C22.4969 2.36963 22.7338 2.36963 23.2076 2.36963H26.5167C28.6255 2.36963 30.3349 4.07909 30.3349 6.18781C30.3349 8.29659 28.6255 10.006 26.5167 10.006H21.4258ZM21.4258 10.006V16.3696" stroke="#1355FF" stroke-width="2" stroke-linecap="round" stroke-linejoin="round"/>
<path d="M10.5764 21.9052C9.83328 22.3647 7.88489 23.3029 9.07159 24.477C9.65129 25.0505 10.2969 25.4607 11.1086 25.4607H15.7405C16.5522 25.4607 17.1978 25.0505 17.7775 24.477C18.9642 23.3029 17.0158 22.3647 16.2727 21.9052C14.5301 20.8277 12.319 20.8277 10.5764 21.9052Z" stroke="#1355FF" stroke-width="2" stroke-linecap="round" stroke-linejoin="round"/>
<path d="M15.9698 15.0968C15.9698 16.5027 14.8302 17.6423 13.4244 17.6423C12.0186 17.6423 10.8789 16.5027 10.8789 15.0968C10.8789 13.691 12.0186 12.5514 13.4244 12.5514C14.8302 12.5514 15.9698 13.691 15.9698 15.0968Z" stroke="#1355FF" stroke-width="2"/>
</svg>
