<svg width="33" height="33" viewBox="0 0 33 33" fill="none" xmlns="http://www.w3.org/2000/svg">
<path d="M27.709 29.6196H7.58398V23.4946L11.084 21.3071L15.459 19.9946L19.834 20.4321L24.6465 21.3071L27.709 24.3696V29.6196Z" fill="#B7FFFD"/>
<path d="M16.3327 17.3696C18.91 17.3696 20.9993 15.2803 20.9993 12.7029C20.9993 10.1256 18.91 8.03625 16.3327 8.03625C13.7554 8.03625 11.666 10.1256 11.666 12.7029C11.666 15.2803 13.7554 17.3696 16.3327 17.3696Z" fill="#B7FFFD" stroke="#1355FF" stroke-width="2"/>
<path d="M25.084 11.3462C25.084 11.0101 25.084 10.8421 25.1386 10.6923C25.2973 10.2572 25.7159 10.0884 26.1351 9.91156C26.6065 9.71274 26.8421 9.61337 27.0756 9.59587C27.3408 9.57604 27.6063 9.62893 27.8329 9.74667C28.1333 9.90271 28.3428 10.1993 28.5573 10.4405C29.5479 11.5545 30.0431 12.1116 30.2243 12.7259C30.3706 13.2215 30.3706 13.7399 30.2243 14.2355C29.96 15.1314 29.1249 15.8825 28.5068 16.5776C28.1906 16.9331 28.0325 17.111 27.8329 17.2147C27.6063 17.3324 27.3408 17.3853 27.0756 17.3655C26.8421 17.348 26.6065 17.2486 26.1351 17.0498C25.7159 16.873 25.2973 16.7042 25.1386 16.269C25.084 16.1193 25.084 15.9513 25.084 15.6152V11.3462Z" fill="white" stroke="#1355FF" stroke-width="2"/>
<path d="M7.58398 11.3462C7.58398 10.9231 7.57115 10.5428 7.20169 10.2453C7.06731 10.1371 6.88915 10.0619 6.53284 9.91162C6.06149 9.7129 5.82582 9.61354 5.5923 9.59605C4.89169 9.54355 4.51475 9.98628 4.11072 10.4407C3.12017 11.5546 2.6249 12.1116 2.44367 12.7258C2.29742 13.2215 2.29742 13.7399 2.44367 14.2355C2.70799 15.1313 3.54308 15.8823 4.1612 16.5775C4.55084 17.0156 4.92304 17.4154 5.5923 17.3653C5.82582 17.3478 6.06149 17.2484 6.53284 17.0497C6.88915 16.8994 7.06731 16.8242 7.20169 16.716C7.57115 16.4185 7.58398 16.0383 7.58398 15.6151V11.3462Z" fill="white" stroke="#1355FF" stroke-width="2"/>
<path d="M25.084 11.1474C25.084 6.85186 21.1665 3.36963 16.334 3.36963C11.5015 3.36963 7.58398 6.85186 7.58398 11.1474" stroke="#1355FF" stroke-width="2" stroke-linecap="square" stroke-linejoin="round"/>
<path d="M27.2242 29.814V26.6569C27.2242 24.7244 26.3542 22.8294 24.5958 22.0279C22.451 21.0502 19.8787 20.4807 17.1131 20.4807C14.3474 20.4807 11.7752 21.0502 9.63034 22.0279C7.87193 22.8294 7.00195 24.7244 7.00195 26.6569V29.814" stroke="#1355FF" stroke-width="2" stroke-linecap="round" stroke-linejoin="round"/>
</svg>
