<svg width="17" height="17" viewBox="0 0 17 17" fill="none" xmlns="http://www.w3.org/2000/svg">
<path d="M7.78159 7.11567L6.721 11.5705C6.69158 11.6941 6.67687 11.7559 6.6663 11.8168C6.60038 12.1963 6.64547 12.5868 6.79615 12.9413C6.82032 12.9982 6.84872 13.055 6.90553 13.1686C6.94299 13.2435 6.96171 13.281 6.97014 13.3099C7.02543 13.4997 6.90433 13.6957 6.70984 13.7311C6.68021 13.7365 6.63859 13.7365 6.55535 13.7365C5.79449 13.7365 4.53852 13.7365 3.87469 13.7365C3.09894 13.7365 2.71107 13.7365 2.51351 13.4819C2.31596 13.2272 2.41003 12.8485 2.59818 12.0911L3.50043 8.4592C3.66997 7.77674 3.15707 7.11567 2.45807 7.11567C2.30971 7.11567 2.18945 6.9946 2.18945 6.84534V5.12942C2.18945 3.48613 2.53025 3.14317 4.16314 3.14317H12.9679C13.3819 3.14317 13.6941 3.04548 14.0316 2.81907C14.4257 2.55463 14.9114 2.07386 15.2689 2.7424C15.6279 3.41387 15.6475 6.2319 15.0583 6.8248C14.7693 7.11567 14.3041 7.11567 13.3737 7.11567H7.78159ZM7.78159 7.11567H6.79473" stroke="#1355FF" stroke-linecap="round" stroke-linejoin="round"/>
<path d="M6.85547 9.73649H7.44006C8.07387 9.73649 8.3908 9.73649 8.66854 9.67662C9.4652 9.50496 10.1397 8.97836 10.4995 8.24709C10.6249 7.99216 10.7017 7.68476 10.8555 7.06982" stroke="#1355FF"/>
<path d="M2.18945 5.06982H3.54136C4.34324 5.06982 4.74418 5.06982 5.06638 4.87069C5.38859 4.67156 5.56789 4.31295 5.9265 3.59572L6.18945 3.06982" stroke="#1355FF"/>
<path d="M15.5215 5.06982H13.5215" stroke="#1355FF" stroke-linecap="round"/>
</svg>
