<svg width="401" height="287" viewBox="0 0 401 287" fill="none" xmlns="http://www.w3.org/2000/svg">
<rect x="0.826836" y="0.899101" width="398.581" height="284.581" rx="15.2904" fill="white" fill-opacity="0.8" stroke="#F1F1F1" stroke-width="1.4193"></rect>
<path d="M17.2582 71.2812V70.1412H17.7502C18.1742 70.1412 18.5102 70.0172 18.7582 69.7692C19.0062 69.5132 19.1302 69.1692 19.1302 68.7372V62.3412H20.3182V68.7132C20.3182 69.2332 20.2102 69.6852 19.9942 70.0692C19.7862 70.4532 19.4902 70.7532 19.1062 70.9692C18.7222 71.1772 18.2702 71.2812 17.7502 71.2812H17.2582ZM24.4431 71.4253C23.9791 71.4253 23.5591 71.3172 23.1831 71.1012C22.8151 70.8852 22.5271 70.5852 22.3191 70.2012C22.1191 69.8092 22.0191 69.3612 22.0191 68.8572V64.8132H23.1351V68.7372C23.1351 69.0572 23.1991 69.3372 23.3271 69.5772C23.4631 69.8172 23.6471 70.0052 23.8791 70.1412C24.1191 70.2772 24.3911 70.3452 24.6951 70.3452C24.9991 70.3452 25.2671 70.2772 25.4991 70.1412C25.7391 70.0052 25.9231 69.8092 26.0511 69.5532C26.1871 69.2972 26.2551 68.9932 26.2551 68.6412V64.8132H27.3831V71.2812H26.2911V70.0212L26.4711 70.1292C26.3191 70.5372 26.0591 70.8572 25.6911 71.0892C25.3311 71.3132 24.9151 71.4253 24.4431 71.4253ZM29.112 71.2812V62.1972H30.228V71.2812H29.112ZM32.3077 73.9213C32.1637 73.9213 32.0197 73.9093 31.8757 73.8853C31.7317 73.8613 31.5957 73.8213 31.4677 73.7653V72.7693C31.5557 72.7853 31.6637 72.8013 31.7917 72.8173C31.9277 72.8413 32.0597 72.8533 32.1877 72.8533C32.5637 72.8533 32.8477 72.7693 33.0397 72.6013C33.2397 72.4413 33.4277 72.1613 33.6037 71.7613L34.0117 70.7892L33.9877 71.7613L31.2277 64.8132H32.4397L34.5877 70.3332H34.2277L36.3637 64.8132H37.5997L34.6837 72.0493C34.5477 72.3933 34.3717 72.7053 34.1557 72.9853C33.9477 73.2733 33.6917 73.5013 33.3877 73.6693C33.0837 73.8373 32.7237 73.9213 32.3077 73.9213ZM44.1587 71.4253C43.4467 71.4253 42.8227 71.2332 42.2867 70.8492C41.7587 70.4572 41.3467 69.9172 41.0507 69.2292C40.7547 68.5332 40.6067 67.7252 40.6067 66.8052C40.6067 65.8852 40.7547 65.0812 41.0507 64.3932C41.3467 63.6972 41.7587 63.1572 42.2867 62.7732C42.8147 62.3892 43.4347 62.1972 44.1467 62.1972C44.8587 62.1972 45.4787 62.3892 46.0067 62.7732C46.5347 63.1572 46.9467 63.6972 47.2427 64.3932C47.5467 65.0812 47.6987 65.8852 47.6987 66.8052C47.6987 67.7252 47.5507 68.5332 47.2547 69.2292C46.9587 69.9252 46.5427 70.4652 46.0067 70.8492C45.4787 71.2332 44.8627 71.4253 44.1587 71.4253ZM44.1587 70.3332C44.6387 70.3332 45.0547 70.1892 45.4067 69.9012C45.7587 69.6052 46.0307 69.1932 46.2227 68.6652C46.4227 68.1372 46.5227 67.5172 46.5227 66.8052C46.5227 66.0932 46.4227 65.4732 46.2227 64.9453C46.0307 64.4172 45.7547 64.0092 45.3947 63.7212C45.0427 63.4332 44.6267 63.2892 44.1467 63.2892C43.6667 63.2892 43.2507 63.4332 42.8987 63.7212C42.5467 64.0092 42.2707 64.4172 42.0707 64.9453C41.8787 65.4732 41.7827 66.0932 41.7827 66.8052C41.7827 67.5092 41.8787 68.1252 42.0707 68.6532C42.2707 69.1812 42.5467 69.5932 42.8987 69.8892C43.2587 70.1852 43.6787 70.3332 44.1587 70.3332ZM52.0983 71.4253C51.5223 71.4253 51.0103 71.2972 50.5623 71.0412C50.1223 70.7852 49.7743 70.4372 49.5183 69.9972C49.2623 69.5492 49.1343 69.0412 49.1343 68.4732C49.1343 68.1612 49.1703 67.8532 49.2423 67.5492C49.3143 67.2452 49.4303 66.9372 49.5903 66.6252C49.7503 66.3132 49.9543 65.9892 50.2023 65.6532L52.7223 62.3412H54.1383L51.0543 66.3492L50.8383 66.3252C50.9583 66.1652 51.0903 66.0412 51.2343 65.9532C51.3863 65.8652 51.5463 65.8012 51.7143 65.7612C51.8903 65.7212 52.0743 65.7012 52.2663 65.7012C52.7943 65.7012 53.2663 65.8252 53.6823 66.0732C54.1063 66.3132 54.4383 66.6452 54.6783 67.0692C54.9263 67.4932 55.0503 67.9812 55.0503 68.5332C55.0503 69.0852 54.9223 69.5812 54.6663 70.0212C54.4103 70.4532 54.0583 70.7972 53.6103 71.0532C53.1703 71.3012 52.6663 71.4253 52.0983 71.4253ZM52.0983 70.3692C52.4343 70.3692 52.7343 70.2932 52.9983 70.1412C53.2623 69.9812 53.4703 69.7612 53.6223 69.4812C53.7823 69.2012 53.8623 68.8892 53.8623 68.5452C53.8623 68.1852 53.7863 67.8732 53.6343 67.6092C53.4823 67.3372 53.2743 67.1212 53.0103 66.9612C52.7463 66.8012 52.4423 66.7212 52.0983 66.7212C51.7623 66.7212 51.4583 66.8012 51.1863 66.9612C50.9143 67.1212 50.7023 67.3372 50.5503 67.6092C50.3983 67.8732 50.3223 68.1852 50.3223 68.5452C50.3223 68.8892 50.3983 69.2012 50.5503 69.4812C50.7103 69.7612 50.9223 69.9812 51.1863 70.1412C51.4583 70.2932 51.7623 70.3692 52.0983 70.3692Z" fill="#0C2459" data-index="0"></path>
<path d="M17.0629 107.281V106.141H17.5549C17.9789 106.141 18.3149 106.017 18.5629 105.769C18.8109 105.513 18.9349 105.169 18.9349 104.737V98.3412H20.1229V104.713C20.1229 105.233 20.0149 105.685 19.7989 106.069C19.5909 106.453 19.2949 106.753 18.9109 106.969C18.5269 107.177 18.0749 107.281 17.5549 107.281H17.0629ZM24.2478 107.425C23.7838 107.425 23.3638 107.317 22.9878 107.101C22.6198 106.885 22.3318 106.585 22.1238 106.201C21.9238 105.809 21.8238 105.361 21.8238 104.857V100.813H22.9398V104.737C22.9398 105.057 23.0038 105.337 23.1318 105.577C23.2678 105.817 23.4518 106.005 23.6838 106.141C23.9238 106.277 24.1958 106.345 24.4998 106.345C24.8038 106.345 25.0718 106.277 25.3038 106.141C25.5438 106.005 25.7278 105.809 25.8558 105.553C25.9918 105.297 26.0598 104.993 26.0598 104.641V100.813H27.1878V107.281H26.0958V106.021L26.2758 106.129C26.1238 106.537 25.8638 106.857 25.4958 107.089C25.1358 107.313 24.7198 107.425 24.2478 107.425ZM28.9167 107.281V98.1972H30.0327V107.281H28.9167ZM32.1124 109.921C31.9684 109.921 31.8244 109.909 31.6804 109.885C31.5364 109.861 31.4004 109.821 31.2724 109.765V108.769C31.3604 108.785 31.4684 108.801 31.5964 108.817C31.7324 108.841 31.8644 108.853 31.9924 108.853C32.3684 108.853 32.6524 108.769 32.8444 108.601C33.0444 108.441 33.2324 108.161 33.4084 107.761L33.8164 106.789L33.7924 107.761L31.0324 100.813H32.2444L34.3924 106.333H34.0324L36.1684 100.813H37.4044L34.4884 108.049C34.3524 108.393 34.1764 108.705 33.9604 108.985C33.7524 109.273 33.4964 109.501 33.1924 109.669C32.8884 109.837 32.5284 109.921 32.1124 109.921ZM43.9634 107.425C43.2514 107.425 42.6274 107.233 42.0914 106.849C41.5634 106.457 41.1514 105.917 40.8554 105.229C40.5594 104.533 40.4114 103.725 40.4114 102.805C40.4114 101.885 40.5594 101.081 40.8554 100.393C41.1514 99.6972 41.5634 99.1572 42.0914 98.7732C42.6194 98.3892 43.2394 98.1972 43.9514 98.1972C44.6634 98.1972 45.2834 98.3892 45.8114 98.7732C46.3394 99.1572 46.7514 99.6972 47.0474 100.393C47.3514 101.081 47.5034 101.885 47.5034 102.805C47.5034 103.725 47.3554 104.533 47.0594 105.229C46.7634 105.925 46.3474 106.465 45.8114 106.849C45.2834 107.233 44.6674 107.425 43.9634 107.425ZM43.9634 106.333C44.4434 106.333 44.8594 106.189 45.2114 105.901C45.5634 105.605 45.8354 105.193 46.0274 104.665C46.2274 104.137 46.3274 103.517 46.3274 102.805C46.3274 102.093 46.2274 101.473 46.0274 100.945C45.8354 100.417 45.5594 100.009 45.1994 99.7212C44.8474 99.4332 44.4314 99.2892 43.9514 99.2892C43.4714 99.2892 43.0554 99.4332 42.7034 99.7212C42.3514 100.009 42.0754 100.417 41.8754 100.945C41.6834 101.473 41.5874 102.093 41.5874 102.805C41.5874 103.509 41.6834 104.125 41.8754 104.653C42.0754 105.181 42.3514 105.593 42.7034 105.889C43.0634 106.185 43.4834 106.333 43.9634 106.333ZM49.215 107.281L53.139 99.3612H48.759V98.3412H54.375V99.3612L50.487 107.281H49.215Z" fill="#0C2459" data-index="1"></path>
<path d="M17.0766 143.281V142.141H17.5686C17.9926 142.141 18.3286 142.017 18.5766 141.769C18.8246 141.513 18.9486 141.169 18.9486 140.737V134.341H20.1366V140.713C20.1366 141.233 20.0286 141.685 19.8126 142.069C19.6046 142.453 19.3086 142.753 18.9246 142.969C18.5406 143.177 18.0886 143.281 17.5686 143.281H17.0766ZM24.2615 143.425C23.7975 143.425 23.3775 143.317 23.0015 143.101C22.6335 142.885 22.3455 142.585 22.1375 142.201C21.9375 141.809 21.8375 141.361 21.8375 140.857V136.813H22.9535V140.737C22.9535 141.057 23.0175 141.337 23.1455 141.577C23.2815 141.817 23.4655 142.005 23.6975 142.141C23.9375 142.277 24.2095 142.345 24.5135 142.345C24.8175 142.345 25.0855 142.277 25.3175 142.141C25.5575 142.005 25.7415 141.809 25.8695 141.553C26.0055 141.297 26.0735 140.993 26.0735 140.641V136.813H27.2015V143.281H26.1095V142.021L26.2895 142.129C26.1375 142.537 25.8775 142.857 25.5095 143.089C25.1495 143.313 24.7335 143.425 24.2615 143.425ZM28.9304 143.281V134.197H30.0464V143.281H28.9304ZM32.1261 145.921C31.9821 145.921 31.8381 145.909 31.6941 145.885C31.5501 145.861 31.4141 145.821 31.2861 145.765V144.769C31.3741 144.785 31.4821 144.801 31.6101 144.817C31.7461 144.841 31.8781 144.853 32.0061 144.853C32.3821 144.853 32.6661 144.769 32.8581 144.601C33.0581 144.441 33.2461 144.161 33.4221 143.761L33.8301 142.789L33.8061 143.761L31.0461 136.813H32.2581L34.4061 142.333H34.0461L36.1821 136.813H37.4181L34.5021 144.049C34.3661 144.393 34.1901 144.705 33.9741 144.985C33.7661 145.273 33.5101 145.501 33.2061 145.669C32.9021 145.837 32.5421 145.921 32.1261 145.921ZM43.9771 143.425C43.2651 143.425 42.6411 143.233 42.1051 142.849C41.5771 142.457 41.1651 141.917 40.8691 141.229C40.5731 140.533 40.4251 139.725 40.4251 138.805C40.4251 137.885 40.5731 137.081 40.8691 136.393C41.1651 135.697 41.5771 135.157 42.1051 134.773C42.6331 134.389 43.2531 134.197 43.9651 134.197C44.6771 134.197 45.2971 134.389 45.8251 134.773C46.3531 135.157 46.7651 135.697 47.0611 136.393C47.3651 137.081 47.5171 137.885 47.5171 138.805C47.5171 139.725 47.3691 140.533 47.0731 141.229C46.7771 141.925 46.3611 142.465 45.8251 142.849C45.2971 143.233 44.6811 143.425 43.9771 143.425ZM43.9771 142.333C44.4571 142.333 44.8731 142.189 45.2251 141.901C45.5771 141.605 45.8491 141.193 46.0411 140.665C46.2411 140.137 46.3411 139.517 46.3411 138.805C46.3411 138.093 46.2411 137.473 46.0411 136.945C45.8491 136.417 45.5731 136.009 45.2131 135.721C44.8611 135.433 44.4451 135.289 43.9651 135.289C43.4851 135.289 43.0691 135.433 42.7171 135.721C42.3651 136.009 42.0891 136.417 41.8891 136.945C41.6971 137.473 41.6011 138.093 41.6011 138.805C41.6011 139.509 41.6971 140.125 41.8891 140.653C42.0891 141.181 42.3651 141.593 42.7171 141.889C43.0771 142.185 43.4971 142.333 43.9771 142.333ZM52.0847 143.425C51.4847 143.425 50.9527 143.305 50.4887 143.065C50.0327 142.825 49.6727 142.501 49.4087 142.093C49.1527 141.677 49.0247 141.213 49.0247 140.701C49.0247 140.125 49.1847 139.621 49.5047 139.189C49.8247 138.757 50.2647 138.449 50.8247 138.265L50.8007 138.565C50.3767 138.397 50.0447 138.129 49.8047 137.761C49.5727 137.385 49.4567 136.981 49.4567 136.549C49.4567 136.093 49.5687 135.689 49.7927 135.337C50.0247 134.985 50.3367 134.709 50.7287 134.509C51.1287 134.301 51.5807 134.197 52.0847 134.197C52.5887 134.197 53.0367 134.297 53.4287 134.497C53.8207 134.697 54.1287 134.977 54.3527 135.337C54.5847 135.689 54.7007 136.093 54.7007 136.549C54.7007 137.005 54.5767 137.413 54.3287 137.773C54.0887 138.133 53.7687 138.401 53.3687 138.577L53.3327 138.265C53.9007 138.449 54.3447 138.761 54.6647 139.201C54.9847 139.633 55.1447 140.133 55.1447 140.701C55.1447 141.213 55.0127 141.677 54.7487 142.093C54.4927 142.501 54.1327 142.825 53.6687 143.065C53.2127 143.305 52.6847 143.425 52.0847 143.425ZM52.0847 142.405C52.4607 142.405 52.7887 142.333 53.0687 142.189C53.3487 142.045 53.5647 141.845 53.7167 141.589C53.8767 141.325 53.9567 141.025 53.9567 140.689C53.9567 140.345 53.8767 140.045 53.7167 139.789C53.5647 139.525 53.3487 139.325 53.0687 139.189C52.7887 139.045 52.4607 138.973 52.0847 138.973C51.7087 138.973 51.3767 139.045 51.0887 139.189C50.8087 139.325 50.5927 139.525 50.4407 139.789C50.2887 140.045 50.2127 140.345 50.2127 140.689C50.2127 141.025 50.2887 141.325 50.4407 141.589C50.5927 141.845 50.8087 142.045 51.0887 142.189C51.3767 142.333 51.7087 142.405 52.0847 142.405ZM52.0847 137.953C52.3567 137.953 52.5967 137.893 52.8047 137.773C53.0207 137.653 53.1927 137.493 53.3207 137.293C53.4487 137.085 53.5127 136.845 53.5127 136.573C53.5127 136.301 53.4487 136.065 53.3207 135.865C53.1927 135.665 53.0207 135.509 52.8047 135.397C52.5967 135.277 52.3567 135.217 52.0847 135.217C51.8047 135.217 51.5567 135.277 51.3407 135.397C51.1247 135.509 50.9527 135.665 50.8247 135.865C50.6967 136.065 50.6327 136.301 50.6327 136.573C50.6327 136.845 50.6967 137.085 50.8247 137.293C50.9527 137.493 51.1247 137.653 51.3407 137.773C51.5567 137.893 51.8047 137.953 52.0847 137.953Z" fill="#0C2459" data-index="2"></path>
<path d="M17.2582 179.281V178.141H17.7502C18.1742 178.141 18.5102 178.017 18.7582 177.769C19.0062 177.513 19.1302 177.169 19.1302 176.737V170.341H20.3182V176.713C20.3182 177.233 20.2102 177.685 19.9942 178.069C19.7862 178.453 19.4902 178.753 19.1062 178.969C18.7222 179.177 18.2702 179.281 17.7502 179.281H17.2582ZM24.4431 179.425C23.9791 179.425 23.5591 179.317 23.1831 179.101C22.8151 178.885 22.5271 178.585 22.3191 178.201C22.1191 177.809 22.0191 177.361 22.0191 176.857V172.813H23.1351V176.737C23.1351 177.057 23.1991 177.337 23.3271 177.577C23.4631 177.817 23.6471 178.005 23.8791 178.141C24.1191 178.277 24.3911 178.345 24.6951 178.345C24.9991 178.345 25.2671 178.277 25.4991 178.141C25.7391 178.005 25.9231 177.809 26.0511 177.553C26.1871 177.297 26.2551 176.993 26.2551 176.641V172.813H27.3831V179.281H26.2911V178.021L26.4711 178.129C26.3191 178.537 26.0591 178.857 25.6911 179.089C25.3311 179.313 24.9151 179.425 24.4431 179.425ZM29.112 179.281V170.197H30.228V179.281H29.112ZM32.3077 181.921C32.1637 181.921 32.0197 181.909 31.8757 181.885C31.7317 181.861 31.5957 181.821 31.4677 181.765V180.769C31.5557 180.785 31.6637 180.801 31.7917 180.817C31.9277 180.841 32.0597 180.853 32.1877 180.853C32.5637 180.853 32.8477 180.769 33.0397 180.601C33.2397 180.441 33.4277 180.161 33.6037 179.761L34.0117 178.789L33.9877 179.761L31.2277 172.813H32.4397L34.5877 178.333H34.2277L36.3637 172.813H37.5997L34.6837 180.049C34.5477 180.393 34.3717 180.705 34.1557 180.985C33.9477 181.273 33.6917 181.501 33.3877 181.669C33.0837 181.837 32.7237 181.921 32.3077 181.921ZM44.1587 179.425C43.4467 179.425 42.8227 179.233 42.2867 178.849C41.7587 178.457 41.3467 177.917 41.0507 177.229C40.7547 176.533 40.6067 175.725 40.6067 174.805C40.6067 173.885 40.7547 173.081 41.0507 172.393C41.3467 171.697 41.7587 171.157 42.2867 170.773C42.8147 170.389 43.4347 170.197 44.1467 170.197C44.8587 170.197 45.4787 170.389 46.0067 170.773C46.5347 171.157 46.9467 171.697 47.2427 172.393C47.5467 173.081 47.6987 173.885 47.6987 174.805C47.6987 175.725 47.5507 176.533 47.2547 177.229C46.9587 177.925 46.5427 178.465 46.0067 178.849C45.4787 179.233 44.8627 179.425 44.1587 179.425ZM44.1587 178.333C44.6387 178.333 45.0547 178.189 45.4067 177.901C45.7587 177.605 46.0307 177.193 46.2227 176.665C46.4227 176.137 46.5227 175.517 46.5227 174.805C46.5227 174.093 46.4227 173.473 46.2227 172.945C46.0307 172.417 45.7547 172.009 45.3947 171.721C45.0427 171.433 44.6267 171.289 44.1467 171.289C43.6667 171.289 43.2507 171.433 42.8987 171.721C42.5467 172.009 42.2707 172.417 42.0707 172.945C41.8787 173.473 41.7827 174.093 41.7827 174.805C41.7827 175.509 41.8787 176.125 42.0707 176.653C42.2707 177.181 42.5467 177.593 42.8987 177.889C43.2587 178.185 43.6787 178.333 44.1587 178.333ZM50.0223 179.281L53.1063 175.261L53.3223 175.285C53.2023 175.445 53.0703 175.573 52.9263 175.669C52.7823 175.757 52.6223 175.821 52.4463 175.861C52.2783 175.901 52.0943 175.921 51.8943 175.921C51.3663 175.921 50.8903 175.801 50.4663 175.561C50.0503 175.313 49.7183 174.977 49.4703 174.553C49.2303 174.121 49.1103 173.629 49.1103 173.077C49.1103 172.525 49.2383 172.033 49.4943 171.601C49.7503 171.169 50.1023 170.829 50.5503 170.581C50.9983 170.325 51.5023 170.197 52.0623 170.197C52.6383 170.197 53.1463 170.325 53.5863 170.581C54.0343 170.829 54.3863 171.177 54.6423 171.625C54.8983 172.065 55.0263 172.573 55.0263 173.149C55.0263 173.461 54.9903 173.769 54.9183 174.073C54.8463 174.377 54.7303 174.685 54.5703 174.997C54.4183 175.309 54.2143 175.633 53.9583 175.969L51.4383 179.281H50.0223ZM52.0623 174.889C52.4063 174.889 52.7103 174.813 52.9743 174.661C53.2463 174.501 53.4583 174.285 53.6103 174.013C53.7623 173.733 53.8383 173.421 53.8383 173.077C53.8383 172.717 53.7583 172.401 53.5983 172.129C53.4463 171.857 53.2383 171.641 52.9743 171.481C52.7103 171.321 52.4063 171.241 52.0623 171.241C51.7263 171.241 51.4263 171.321 51.1623 171.481C50.8983 171.641 50.6863 171.857 50.5263 172.129C50.3743 172.401 50.2983 172.717 50.2983 173.077C50.2983 173.421 50.3743 173.733 50.5263 174.013C50.6783 174.285 50.8863 174.501 51.1503 174.661C51.4223 174.813 51.7263 174.889 52.0623 174.889Z" fill="#0C2459" data-index="3"></path>
<path d="M17.059 215.281V214.141H17.551C17.975 214.141 18.311 214.017 18.559 213.769C18.807 213.513 18.931 213.169 18.931 212.737V206.341H20.119V212.713C20.119 213.233 20.011 213.685 19.795 214.069C19.587 214.453 19.291 214.753 18.907 214.969C18.523 215.177 18.071 215.281 17.551 215.281H17.059ZM24.2439 215.425C23.7799 215.425 23.3599 215.317 22.9839 215.101C22.6159 214.885 22.3279 214.585 22.1199 214.201C21.9199 213.809 21.8199 213.361 21.8199 212.857V208.813H22.9359V212.737C22.9359 213.057 22.9999 213.337 23.1279 213.577C23.2639 213.817 23.4479 214.005 23.6799 214.141C23.9199 214.277 24.1919 214.345 24.4959 214.345C24.7999 214.345 25.0679 214.277 25.2999 214.141C25.5399 214.005 25.7239 213.809 25.8519 213.553C25.9879 213.297 26.0559 212.993 26.0559 212.641V208.813H27.1839V215.281H26.0919V214.021L26.2719 214.129C26.1199 214.537 25.8599 214.857 25.4919 215.089C25.1319 215.313 24.7159 215.425 24.2439 215.425ZM28.9128 215.281V206.197H30.0288V215.281H28.9128ZM32.1085 217.921C31.9645 217.921 31.8205 217.909 31.6765 217.885C31.5325 217.861 31.3965 217.821 31.2685 217.765V216.769C31.3565 216.785 31.4645 216.801 31.5925 216.817C31.7285 216.841 31.8605 216.853 31.9885 216.853C32.3645 216.853 32.6485 216.769 32.8405 216.601C33.0405 216.441 33.2285 216.161 33.4045 215.761L33.8125 214.789L33.7885 215.761L31.0285 208.813H32.2405L34.3885 214.333H34.0285L36.1645 208.813H37.4005L34.4845 216.049C34.3485 216.393 34.1725 216.705 33.9565 216.985C33.7485 217.273 33.4925 217.501 33.1885 217.669C32.8845 217.837 32.5245 217.921 32.1085 217.921ZM41.7395 215.281V207.361H40.0475V206.341H42.9275V215.281H41.7395ZM48.5415 215.425C47.8295 215.425 47.2055 215.233 46.6695 214.849C46.1415 214.457 45.7295 213.917 45.4335 213.229C45.1375 212.533 44.9895 211.725 44.9895 210.805C44.9895 209.885 45.1375 209.081 45.4335 208.393C45.7295 207.697 46.1415 207.157 46.6695 206.773C47.1975 206.389 47.8175 206.197 48.5295 206.197C49.2415 206.197 49.8615 206.389 50.3895 206.773C50.9175 207.157 51.3295 207.697 51.6255 208.393C51.9295 209.081 52.0815 209.885 52.0815 210.805C52.0815 211.725 51.9335 212.533 51.6375 213.229C51.3415 213.925 50.9255 214.465 50.3895 214.849C49.8615 215.233 49.2455 215.425 48.5415 215.425ZM48.5415 214.333C49.0215 214.333 49.4375 214.189 49.7895 213.901C50.1415 213.605 50.4135 213.193 50.6055 212.665C50.8055 212.137 50.9055 211.517 50.9055 210.805C50.9055 210.093 50.8055 209.473 50.6055 208.945C50.4135 208.417 50.1375 208.009 49.7775 207.721C49.4255 207.433 49.0095 207.289 48.5295 207.289C48.0495 207.289 47.6335 207.433 47.2815 207.721C46.9295 208.009 46.6535 208.417 46.4535 208.945C46.2615 209.473 46.1655 210.093 46.1655 210.805C46.1655 211.509 46.2615 212.125 46.4535 212.653C46.6535 213.181 46.9295 213.593 47.2815 213.889C47.6415 214.185 48.0615 214.333 48.5415 214.333Z" fill="#0C2459" data-index="4"></path>
<path d="M54.6713 264.475C54.166 264.475 53.7232 264.339 53.3428 264.066C52.9681 263.788 52.6758 263.405 52.4657 262.917C52.2557 262.423 52.1506 261.85 52.1506 261.197C52.1506 260.544 52.2557 259.973 52.4657 259.485C52.6758 258.991 52.9681 258.608 53.3428 258.335C53.7175 258.063 54.1575 257.927 54.6628 257.927C55.1681 257.927 55.608 258.063 55.9827 258.335C56.3574 258.608 56.6498 258.991 56.8599 259.485C57.0756 259.973 57.1835 260.544 57.1835 261.197C57.1835 261.85 57.0784 262.423 56.8684 262.917C56.6583 263.411 56.3631 263.794 55.9827 264.066C55.608 264.339 55.1709 264.475 54.6713 264.475ZM54.6713 263.7C55.0119 263.7 55.3071 263.598 55.5569 263.394C55.8067 263.184 55.9998 262.891 56.136 262.517C56.2779 262.142 56.3489 261.702 56.3489 261.197C56.3489 260.691 56.2779 260.251 56.136 259.877C55.9998 259.502 55.8039 259.212 55.5484 259.008C55.2986 258.804 55.0034 258.702 54.6628 258.702C54.3222 258.702 54.0269 258.804 53.7771 259.008C53.5273 259.212 53.3315 259.502 53.1896 259.877C53.0533 260.251 52.9852 260.691 52.9852 261.197C52.9852 261.696 53.0533 262.133 53.1896 262.508C53.3315 262.883 53.5273 263.175 53.7771 263.385C54.0326 263.595 54.3307 263.7 54.6713 263.7ZM58.6791 264.373V263.351H59.5051V264.373H58.6791ZM63.5364 264.475C63.0311 264.475 62.5883 264.339 62.2079 264.066C61.8332 263.788 61.5408 263.405 61.3308 262.917C61.1207 262.423 61.0157 261.85 61.0157 261.197C61.0157 260.544 61.1207 259.973 61.3308 259.485C61.5408 258.991 61.8332 258.608 62.2079 258.335C62.5826 258.063 63.0226 257.927 63.5278 257.927C64.0331 257.927 64.4731 258.063 64.8478 258.335C65.2225 258.608 65.5149 258.991 65.7249 259.485C65.9406 259.973 66.0485 260.544 66.0485 261.197C66.0485 261.85 65.9435 262.423 65.7334 262.917C65.5234 263.411 65.2282 263.794 64.8478 264.066C64.4731 264.339 64.036 264.475 63.5364 264.475ZM63.5364 263.7C63.877 263.7 64.1722 263.598 64.422 263.394C64.6718 263.184 64.8648 262.891 65.0011 262.517C65.143 262.142 65.214 261.702 65.214 261.197C65.214 260.691 65.143 260.251 65.0011 259.877C64.8648 259.502 64.669 259.212 64.4135 259.008C64.1637 258.804 63.8685 258.702 63.5278 258.702C63.1872 258.702 62.892 258.804 62.6422 259.008C62.3924 259.212 62.1965 259.502 62.0546 259.877C61.9184 260.251 61.8502 260.691 61.8502 261.197C61.8502 261.696 61.9184 262.133 62.0546 262.508C62.1965 262.883 62.3924 263.175 62.6422 263.385C62.8977 263.595 63.1957 263.7 63.5364 263.7Z" fill="#0C2459" data-index="5"></path>

<path d="M152.178 264.373V258.753H150.977V258.029H153.021V264.373H152.178ZM154.851 264.373V263.351H155.677V264.373H154.851ZM159.708 264.475C159.203 264.475 158.76 264.339 158.38 264.066C158.005 263.788 157.712 263.405 157.502 262.917C157.292 262.423 157.187 261.85 157.187 261.197C157.187 260.544 157.292 259.973 157.502 259.485C157.712 258.991 158.005 258.608 158.38 258.335C158.754 258.063 159.194 257.927 159.699 257.927C160.205 257.927 160.645 258.063 161.019 258.335C161.394 258.608 161.686 258.991 161.897 259.485C162.112 259.973 162.22 260.544 162.22 261.197C162.22 261.85 162.115 262.423 161.905 262.917C161.695 263.411 161.4 263.794 161.019 264.066C160.645 264.339 160.208 264.475 159.708 264.475ZM159.708 263.7C160.049 263.7 160.344 263.598 160.594 263.394C160.843 263.184 161.036 262.891 161.173 262.517C161.315 262.142 161.386 261.702 161.386 261.197C161.386 260.691 161.315 260.251 161.173 259.877C161.036 259.502 160.841 259.212 160.585 259.008C160.335 258.804 160.04 258.702 159.699 258.702C159.359 258.702 159.064 258.804 158.814 259.008C158.564 259.212 158.368 259.502 158.226 259.877C158.09 260.251 158.022 260.691 158.022 261.197C158.022 261.696 158.09 262.133 158.226 262.508C158.368 262.883 158.564 263.175 158.814 263.385C159.069 263.595 159.367 263.7 159.708 263.7Z" fill="#0C2459" data-index="7"></path>
<path d="M199.198 264.373V258.753H197.997V258.029H200.041V264.373H199.198ZM201.871 264.373V263.351H202.697V264.373H201.871ZM206.191 264.475C205.862 264.475 205.553 264.418 205.263 264.305C204.974 264.186 204.721 264.018 204.505 263.802C204.295 263.581 204.142 263.323 204.045 263.028L204.727 262.738C204.846 263.05 205.039 263.294 205.306 263.47C205.578 263.641 205.873 263.726 206.191 263.726C206.453 263.726 206.682 263.669 206.881 263.556C207.086 263.436 207.244 263.275 207.358 263.07C207.472 262.86 207.528 262.627 207.528 262.372C207.528 262.105 207.469 261.869 207.35 261.665C207.236 261.461 207.08 261.302 206.881 261.188C206.682 261.069 206.455 261.009 206.2 261.009C205.939 261.009 205.7 261.069 205.485 261.188C205.269 261.307 205.113 261.458 205.016 261.639L204.343 261.495L204.829 258.029H208.116V258.753H205.144L205.468 258.429L205.093 261.12L204.803 260.95C204.991 260.711 205.209 260.541 205.459 260.439C205.714 260.331 205.99 260.277 206.285 260.277C206.699 260.277 207.063 260.371 207.375 260.558C207.687 260.745 207.931 260.995 208.107 261.307C208.283 261.62 208.371 261.974 208.371 262.372C208.371 262.769 208.275 263.127 208.082 263.445C207.895 263.763 207.636 264.015 207.307 264.203C206.983 264.384 206.611 264.475 206.191 264.475Z" fill="#0C2459" data-index="8"></path>
<path d="M243.824 264.373V263.794L245.578 261.895C245.925 261.526 246.2 261.222 246.404 260.984C246.614 260.745 246.768 260.532 246.864 260.345C246.961 260.158 247.009 259.959 247.009 259.749C247.009 259.403 246.907 259.136 246.702 258.948C246.498 258.761 246.228 258.667 245.893 258.667C245.553 258.667 245.263 258.767 245.025 258.966C244.786 259.159 244.622 259.434 244.531 259.792L243.773 259.596C243.847 259.255 243.983 258.96 244.182 258.71C244.38 258.46 244.627 258.267 244.923 258.131C245.218 257.995 245.541 257.927 245.893 257.927C246.279 257.927 246.617 258.003 246.907 258.157C247.202 258.304 247.432 258.511 247.597 258.778C247.767 259.045 247.852 259.354 247.852 259.706C247.852 259.939 247.804 260.166 247.707 260.388C247.611 260.609 247.469 260.845 247.282 261.094C247.094 261.339 246.85 261.622 246.549 261.946L244.982 263.649H247.988V264.373H243.824ZM249.399 264.373V263.351H250.225V264.373H249.399ZM254.256 264.475C253.751 264.475 253.308 264.339 252.928 264.066C252.553 263.788 252.261 263.405 252.05 262.917C251.84 262.423 251.735 261.85 251.735 261.197C251.735 260.544 251.84 259.973 252.05 259.485C252.261 258.991 252.553 258.608 252.928 258.335C253.302 258.063 253.742 257.927 254.248 257.927C254.753 257.927 255.193 258.063 255.568 258.335C255.942 258.608 256.235 258.991 256.445 259.485C256.66 259.973 256.768 260.544 256.768 261.197C256.768 261.85 256.663 262.423 256.453 262.917C256.243 263.411 255.948 263.794 255.568 264.066C255.193 264.339 254.756 264.475 254.256 264.475ZM254.256 263.7C254.597 263.7 254.892 263.598 255.142 263.394C255.392 263.184 255.585 262.891 255.721 262.517C255.863 262.142 255.934 261.702 255.934 261.197C255.934 260.691 255.863 260.251 255.721 259.877C255.585 259.502 255.389 259.212 255.133 259.008C254.883 258.804 254.588 258.702 254.248 258.702C253.907 258.702 253.612 258.804 253.362 259.008C253.112 259.212 252.916 259.502 252.774 259.877C252.638 260.251 252.57 260.691 252.57 261.197C252.57 261.696 252.638 262.133 252.774 262.508C252.916 262.883 253.112 263.175 253.362 263.385C253.617 263.595 253.915 263.7 254.256 263.7Z" fill="#0C2459" data-index="9"></path>
<path d="M292.346 264.373V263.794L294.1 261.895C294.447 261.526 294.722 261.222 294.926 260.984C295.136 260.745 295.29 260.532 295.386 260.345C295.483 260.158 295.531 259.959 295.531 259.749C295.531 259.403 295.429 259.136 295.224 258.948C295.02 258.761 294.75 258.667 294.415 258.667C294.075 258.667 293.785 258.767 293.547 258.966C293.308 259.159 293.144 259.434 293.053 259.792L292.295 259.596C292.369 259.255 292.505 258.96 292.704 258.71C292.902 258.46 293.149 258.267 293.444 258.131C293.74 257.995 294.063 257.927 294.415 257.927C294.801 257.927 295.139 258.003 295.429 258.157C295.724 258.304 295.954 258.511 296.118 258.778C296.289 259.045 296.374 259.354 296.374 259.706C296.374 259.939 296.326 260.166 296.229 260.388C296.133 260.609 295.991 260.845 295.803 261.094C295.616 261.339 295.372 261.622 295.071 261.946L293.504 263.649H296.51V264.373H292.346ZM297.921 264.373V263.351H298.747V264.373H297.921ZM302.241 264.475C301.912 264.475 301.603 264.418 301.313 264.305C301.024 264.186 300.771 264.018 300.555 263.802C300.345 263.581 300.192 263.323 300.095 263.028L300.777 262.738C300.896 263.05 301.089 263.294 301.356 263.47C301.628 263.641 301.924 263.726 302.241 263.726C302.503 263.726 302.733 263.669 302.931 263.556C303.136 263.436 303.295 263.275 303.408 263.07C303.522 262.86 303.578 262.627 303.578 262.372C303.578 262.105 303.519 261.869 303.4 261.665C303.286 261.461 303.13 261.302 302.931 261.188C302.733 261.069 302.505 261.009 302.25 261.009C301.989 261.009 301.75 261.069 301.535 261.188C301.319 261.307 301.163 261.458 301.066 261.639L300.394 261.495L300.879 258.029H304.166V258.753H301.194L301.518 258.429L301.143 261.12L300.853 260.95C301.041 260.711 301.259 260.541 301.509 260.439C301.765 260.331 302.04 260.277 302.335 260.277C302.75 260.277 303.113 260.371 303.425 260.558C303.737 260.745 303.981 260.995 304.157 261.307C304.333 261.62 304.421 261.974 304.421 262.372C304.421 262.769 304.325 263.127 304.132 263.445C303.945 263.763 303.686 264.015 303.357 264.203C303.033 264.384 302.662 264.475 302.241 264.475Z" fill="#0C2459" data-index="10"></path>
<path d="M342.445 264.475C342.11 264.475 341.798 264.416 341.508 264.296C341.219 264.177 340.969 264.01 340.759 263.794C340.549 263.573 340.393 263.311 340.29 263.011L340.997 262.721C341.116 263.039 341.304 263.286 341.559 263.462C341.815 263.638 342.11 263.726 342.445 263.726C342.706 263.726 342.939 263.675 343.143 263.573C343.348 263.47 343.507 263.323 343.62 263.13C343.739 262.937 343.799 262.704 343.799 262.431C343.799 262.153 343.739 261.921 343.62 261.733C343.507 261.54 343.348 261.393 343.143 261.29C342.939 261.188 342.703 261.137 342.436 261.137C342.351 261.137 342.258 261.143 342.155 261.154C342.059 261.165 341.977 261.182 341.908 261.205L341.73 260.822L343.424 258.753H340.614V258.029H344.37V258.727L342.752 260.72L342.7 260.498C343.081 260.51 343.416 260.598 343.705 260.762C343.995 260.927 344.222 261.151 344.387 261.435C344.551 261.713 344.634 262.04 344.634 262.414C344.634 262.8 344.54 263.15 344.352 263.462C344.165 263.774 343.907 264.021 343.578 264.203C343.248 264.384 342.871 264.475 342.445 264.475ZM346.076 264.373V263.351H346.902V264.373H346.076ZM350.933 264.475C350.428 264.475 349.985 264.339 349.604 264.066C349.23 263.788 348.937 263.405 348.727 262.917C348.517 262.423 348.412 261.85 348.412 261.197C348.412 260.544 348.517 259.973 348.727 259.485C348.937 258.991 349.23 258.608 349.604 258.335C349.979 258.063 350.419 257.927 350.924 257.927C351.43 257.927 351.87 258.063 352.244 258.335C352.619 258.608 352.911 258.991 353.121 259.485C353.337 259.973 353.445 260.544 353.445 261.197C353.445 261.85 353.34 262.423 353.13 262.917C352.92 263.411 352.625 263.794 352.244 264.066C351.87 264.339 351.433 264.475 350.933 264.475ZM350.933 263.7C351.274 263.7 351.569 263.598 351.819 263.394C352.068 263.184 352.261 262.891 352.398 262.517C352.54 262.142 352.611 261.702 352.611 261.197C352.611 260.691 352.54 260.251 352.398 259.877C352.261 259.502 352.066 259.212 351.81 259.008C351.56 258.804 351.265 258.702 350.924 258.702C350.584 258.702 350.289 258.804 350.039 259.008C349.789 259.212 349.593 259.502 349.451 259.877C349.315 260.251 349.247 260.691 349.247 261.197C349.247 261.696 349.315 262.133 349.451 262.508C349.593 262.883 349.789 263.175 350.039 263.385C350.294 263.595 350.592 263.7 350.933 263.7Z" fill="#0C2459" data-index="11"></path>
<path d="M16.7731 36.0625V24.1425H18.9491V36.0625H16.7731ZM21.0658 36.0625V27.3585H23.0338V29.0705L22.8738 28.7665C23.0765 28.2438 23.4072 27.8492 23.8658 27.5825C24.3352 27.3052 24.8792 27.1665 25.4978 27.1665C26.1378 27.1665 26.7032 27.3052 27.1938 27.5825C27.6952 27.8598 28.0845 28.2492 28.3618 28.7505C28.6392 29.2412 28.7778 29.8118 28.7778 30.4625V36.0625H26.6818V30.9585C26.6818 30.5745 26.6072 30.2438 26.4578 29.9665C26.3085 29.6892 26.1005 29.4758 25.8338 29.3265C25.5778 29.1665 25.2738 29.0865 24.9218 29.0865C24.5805 29.0865 24.2765 29.1665 24.0098 29.3265C23.7432 29.4758 23.5352 29.6892 23.3858 29.9665C23.2365 30.2438 23.1618 30.5745 23.1618 30.9585V36.0625H21.0658ZM34.7422 36.2545C33.8782 36.2545 33.0996 36.0572 32.4062 35.6625C31.7236 35.2572 31.1849 34.7132 30.7902 34.0305C30.3956 33.3372 30.1982 32.5585 30.1982 31.6945C30.1982 30.8305 30.3956 30.0572 30.7902 29.3745C31.1849 28.6918 31.7236 28.1532 32.4062 27.7585C33.0996 27.3638 33.8782 27.1665 34.7422 27.1665C35.3609 27.1665 35.9369 27.2785 36.4702 27.5025C37.0036 27.7158 37.4622 28.0145 37.8462 28.3985C38.2409 28.7718 38.5236 29.2198 38.6942 29.7425L36.8542 30.5425C36.6942 30.1052 36.4222 29.7532 36.0382 29.4865C35.6649 29.2198 35.2329 29.0865 34.7422 29.0865C34.2836 29.0865 33.8729 29.1985 33.5102 29.4225C33.1582 29.6465 32.8809 29.9558 32.6782 30.3505C32.4756 30.7452 32.3742 31.1985 32.3742 31.7105C32.3742 32.2225 32.4756 32.6758 32.6782 33.0705C32.8809 33.4652 33.1582 33.7745 33.5102 33.9985C33.8729 34.2225 34.2836 34.3345 34.7422 34.3345C35.2436 34.3345 35.6809 34.2012 36.0542 33.9345C36.4276 33.6678 36.6942 33.3105 36.8542 32.8625L38.6942 33.6945C38.5236 34.1852 38.2462 34.6278 37.8622 35.0225C37.4782 35.4065 37.0196 35.7105 36.4862 35.9345C35.9529 36.1478 35.3716 36.2545 34.7422 36.2545ZM40.2846 36.0625V27.3585H42.3806V36.0625H40.2846ZM40.2846 26.3825V24.1425H42.3806V26.3825H40.2846ZM48.3638 36.2545C47.5212 36.2545 46.7692 36.0572 46.1078 35.6625C45.4465 35.2572 44.9238 34.7078 44.5398 34.0145C44.1558 33.3212 43.9638 32.5532 43.9638 31.7105C43.9638 30.8572 44.1558 30.0892 44.5398 29.4065C44.9238 28.7238 45.4465 28.1798 46.1078 27.7745C46.7798 27.3692 47.5265 27.1665 48.3478 27.1665C49.0092 27.1665 49.5958 27.2998 50.1078 27.5665C50.6305 27.8225 51.0412 28.1852 51.3398 28.6545L51.0198 29.0865V23.9505H53.1158V36.0625H51.1318V34.3825L51.3558 34.7985C51.0572 35.2678 50.6412 35.6305 50.1078 35.8865C49.5745 36.1318 48.9932 36.2545 48.3638 36.2545ZM48.5878 34.3345C49.0678 34.3345 49.4892 34.2225 49.8518 33.9985C50.2145 33.7745 50.4972 33.4652 50.6998 33.0705C50.9132 32.6758 51.0198 32.2225 51.0198 31.7105C51.0198 31.2092 50.9132 30.7612 50.6998 30.3665C50.4972 29.9612 50.2145 29.6465 49.8518 29.4225C49.4892 29.1985 49.0678 29.0865 48.5878 29.0865C48.1185 29.0865 47.6972 29.2038 47.3238 29.4385C46.9505 29.6625 46.6572 29.9718 46.4438 30.3665C46.2412 30.7505 46.1398 31.1985 46.1398 31.7105C46.1398 32.2225 46.2412 32.6758 46.4438 33.0705C46.6572 33.4652 46.9505 33.7745 47.3238 33.9985C47.6972 34.2225 48.1185 34.3345 48.5878 34.3345ZM59.1938 36.2545C58.2978 36.2545 57.5138 36.0518 56.8418 35.6465C56.1698 35.2412 55.6472 34.6918 55.2738 33.9985C54.9005 33.3052 54.7138 32.5372 54.7138 31.6945C54.7138 30.8198 54.9005 30.0465 55.2738 29.3745C55.6578 28.6918 56.1752 28.1532 56.8258 27.7585C57.4872 27.3638 58.2232 27.1665 59.0338 27.1665C59.7165 27.1665 60.3138 27.2785 60.8258 27.5025C61.3485 27.7265 61.7912 28.0358 62.1538 28.4305C62.5165 28.8252 62.7938 29.2785 62.9858 29.7905C63.1778 30.2918 63.2738 30.8358 63.2738 31.4225C63.2738 31.5718 63.2632 31.7265 63.2418 31.8865C63.2312 32.0465 63.2045 32.1852 63.1618 32.3025H56.4418V30.7025H61.9778L60.9858 31.4545C61.0818 30.9638 61.0552 30.5265 60.9058 30.1425C60.7672 29.7585 60.5325 29.4545 60.2018 29.2305C59.8818 29.0065 59.4925 28.8945 59.0338 28.8945C58.5965 28.8945 58.2072 29.0065 57.8658 29.2305C57.5245 29.4438 57.2632 29.7638 57.0818 30.1905C56.9112 30.6065 56.8472 31.1132 56.8898 31.7105C56.8472 32.2438 56.9165 32.7185 57.0978 33.1345C57.2898 33.5398 57.5672 33.8545 57.9298 34.0785C58.3032 34.3025 58.7298 34.4145 59.2098 34.4145C59.6898 34.4145 60.0952 34.3132 60.4258 34.1105C60.7672 33.9078 61.0338 33.6358 61.2258 33.2945L62.9218 34.1265C62.7512 34.5425 62.4845 34.9105 62.1218 35.2305C61.7592 35.5505 61.3272 35.8012 60.8258 35.9825C60.3352 36.1638 59.7912 36.2545 59.1938 36.2545ZM64.8627 36.0625V27.3585H66.8307V29.0705L66.6707 28.7665C66.8734 28.2438 67.2041 27.8492 67.6627 27.5825C68.1321 27.3052 68.6761 27.1665 69.2947 27.1665C69.9347 27.1665 70.5001 27.3052 70.9907 27.5825C71.4921 27.8598 71.8814 28.2492 72.1587 28.7505C72.4361 29.2412 72.5747 29.8118 72.5747 30.4625V36.0625H70.4787V30.9585C70.4787 30.5745 70.4041 30.2438 70.2547 29.9665C70.1054 29.6892 69.8974 29.4758 69.6307 29.3265C69.3747 29.1665 69.0707 29.0865 68.7187 29.0865C68.3774 29.0865 68.0734 29.1665 67.8067 29.3265C67.5401 29.4758 67.3321 29.6892 67.1827 29.9665C67.0334 30.2438 66.9587 30.5745 66.9587 30.9585V36.0625H64.8627ZM78.3151 36.1585C77.3338 36.1585 76.5711 35.8918 76.0271 35.3585C75.4938 34.8145 75.2271 34.0518 75.2271 33.0705V29.2305H73.7231V27.3585H73.8831C74.3098 27.3585 74.6404 27.2465 74.8751 27.0225C75.1098 26.7985 75.2271 26.4732 75.2271 26.0465V25.3745H77.3231V27.3585H79.3231V29.2305H77.3231V32.9585C77.3231 33.2465 77.3711 33.4918 77.4671 33.6945C77.5738 33.8972 77.7338 34.0518 77.9471 34.1585C78.1711 34.2652 78.4538 34.3185 78.7951 34.3185C78.8698 34.3185 78.9551 34.3132 79.0511 34.3025C79.1578 34.2918 79.2591 34.2812 79.3551 34.2705V36.0625C79.2058 36.0838 79.0351 36.1052 78.8431 36.1265C78.6511 36.1478 78.4751 36.1585 78.3151 36.1585ZM89.8482 36.2545C88.9736 36.2545 88.1576 36.0998 87.4002 35.7905C86.6429 35.4812 85.9816 35.0492 85.4162 34.4945C84.8509 33.9398 84.4082 33.2892 84.0882 32.5425C83.7789 31.7852 83.6242 30.9692 83.6242 30.0945C83.6242 29.2092 83.7789 28.3932 84.0882 27.6465C84.3976 26.8998 84.8349 26.2492 85.4002 25.6945C85.9656 25.1398 86.6269 24.7132 87.3842 24.4145C88.1416 24.1052 88.9629 23.9505 89.8482 23.9505C90.7336 23.9505 91.5549 24.1052 92.3122 24.4145C93.0696 24.7238 93.7309 25.1558 94.2962 25.7105C94.8616 26.2545 95.2989 26.8998 95.6082 27.6465C95.9282 28.3932 96.0882 29.2092 96.0882 30.0945C96.0882 30.9692 95.9282 31.7852 95.6082 32.5425C95.2882 33.2892 94.8456 33.9398 94.2802 34.4945C93.7149 35.0492 93.0536 35.4812 92.2962 35.7905C91.5496 36.0998 90.7336 36.2545 89.8482 36.2545ZM89.8482 34.2705C90.4349 34.2705 90.9736 34.1692 91.4642 33.9665C91.9549 33.7532 92.3816 33.4598 92.7442 33.0865C93.1176 32.7132 93.4002 32.2705 93.5922 31.7585C93.7949 31.2465 93.8962 30.6918 93.8962 30.0945C93.8962 29.4972 93.7949 28.9478 93.5922 28.4465C93.4002 27.9345 93.1176 27.4918 92.7442 27.1185C92.3816 26.7345 91.9549 26.4412 91.4642 26.2385C90.9736 26.0358 90.4349 25.9345 89.8482 25.9345C89.2722 25.9345 88.7389 26.0358 88.2482 26.2385C87.7576 26.4412 87.3256 26.7345 86.9522 27.1185C86.5896 27.4918 86.3069 27.9345 86.1042 28.4465C85.9016 28.9478 85.8002 29.4972 85.8002 30.0945C85.8002 30.6918 85.9016 31.2465 86.1042 31.7585C86.3069 32.2705 86.5896 32.7132 86.9522 33.0865C87.3256 33.4598 87.7576 33.7532 88.2482 33.9665C88.7389 34.1692 89.2722 34.2705 89.8482 34.2705ZM100.471 36.0625L97.0471 27.3585H99.3351L101.815 34.2065H100.967L103.463 27.3585H105.751L102.327 36.0625H100.471ZM110.881 36.2545C109.985 36.2545 109.201 36.0518 108.529 35.6465C107.857 35.2412 107.335 34.6918 106.961 33.9985C106.588 33.3052 106.401 32.5372 106.401 31.6945C106.401 30.8198 106.588 30.0465 106.961 29.3745C107.345 28.6918 107.863 28.1532 108.513 27.7585C109.175 27.3638 109.911 27.1665 110.721 27.1665C111.404 27.1665 112.001 27.2785 112.513 27.5025C113.036 27.7265 113.479 28.0358 113.841 28.4305C114.204 28.8252 114.481 29.2785 114.673 29.7905C114.865 30.2918 114.961 30.8358 114.961 31.4225C114.961 31.5718 114.951 31.7265 114.929 31.8865C114.919 32.0465 114.892 32.1852 114.849 32.3025H108.129V30.7025H113.665L112.673 31.4545C112.769 30.9638 112.743 30.5265 112.593 30.1425C112.455 29.7585 112.22 29.4545 111.889 29.2305C111.569 29.0065 111.18 28.8945 110.721 28.8945C110.284 28.8945 109.895 29.0065 109.553 29.2305C109.212 29.4438 108.951 29.7638 108.769 30.1905C108.599 30.6065 108.535 31.1132 108.577 31.7105C108.535 32.2438 108.604 32.7185 108.785 33.1345C108.977 33.5398 109.255 33.8545 109.617 34.0785C109.991 34.3025 110.417 34.4145 110.897 34.4145C111.377 34.4145 111.783 34.3132 112.113 34.1105C112.455 33.9078 112.721 33.6358 112.913 33.2945L114.609 34.1265C114.439 34.5425 114.172 34.9105 113.809 35.2305C113.447 35.5505 113.015 35.8012 112.513 35.9825C112.023 36.1638 111.479 36.2545 110.881 36.2545ZM116.55 36.0625V27.3585H118.518V29.2945L118.358 29.0065C118.561 28.3558 118.876 27.9025 119.302 27.6465C119.74 27.3905 120.262 27.2625 120.87 27.2625H121.382V29.1185H120.63C120.033 29.1185 119.553 29.3052 119.19 29.6785C118.828 30.0412 118.646 30.5532 118.646 31.2145V36.0625H116.55ZM125.159 36.0625L121.735 27.3585H124.023L126.503 34.2065H125.655L128.151 27.3585H130.439L127.015 36.0625H125.159ZM131.597 36.0625V27.3585H133.693V36.0625H131.597ZM131.597 26.3825V24.1425H133.693V26.3825H131.597ZM139.756 36.2545C138.86 36.2545 138.076 36.0518 137.404 35.6465C136.732 35.2412 136.21 34.6918 135.836 33.9985C135.463 33.3052 135.276 32.5372 135.276 31.6945C135.276 30.8198 135.463 30.0465 135.836 29.3745C136.22 28.6918 136.738 28.1532 137.388 27.7585C138.05 27.3638 138.786 27.1665 139.596 27.1665C140.279 27.1665 140.876 27.2785 141.388 27.5025C141.911 27.7265 142.354 28.0358 142.716 28.4305C143.079 28.8252 143.356 29.2785 143.548 29.7905C143.74 30.2918 143.836 30.8358 143.836 31.4225C143.836 31.5718 143.826 31.7265 143.804 31.8865C143.794 32.0465 143.767 32.1852 143.724 32.3025H137.004V30.7025H142.54L141.548 31.4545C141.644 30.9638 141.618 30.5265 141.468 30.1425C141.33 29.7585 141.095 29.4545 140.764 29.2305C140.444 29.0065 140.055 28.8945 139.596 28.8945C139.159 28.8945 138.77 29.0065 138.428 29.2305C138.087 29.4438 137.826 29.7638 137.644 30.1905C137.474 30.6065 137.41 31.1132 137.452 31.7105C137.41 32.2438 137.479 32.7185 137.66 33.1345C137.852 33.5398 138.13 33.8545 138.492 34.0785C138.866 34.3025 139.292 34.4145 139.772 34.4145C140.252 34.4145 140.658 34.3132 140.988 34.1105C141.33 33.9078 141.596 33.6358 141.788 33.2945L143.484 34.1265C143.314 34.5425 143.047 34.9105 142.684 35.2305C142.322 35.5505 141.89 35.8012 141.388 35.9825C140.898 36.1638 140.354 36.2545 139.756 36.2545ZM147.617 36.0625L144.625 27.3585H146.833L149.025 33.9665L148.257 33.9505L150.593 27.3585H152.449L154.769 33.9505L154.001 33.9665L156.193 27.3585H158.401L155.409 36.0625H153.537L151.169 29.1665H151.873L149.473 36.0625H147.617Z" fill="#0C2459" data-index="12"></path>
<line x1="15.6211" y1="48.2233" x2="361.358" y2="48.2233" stroke="#F2F4F7" stroke-width="0.709648"></line>
<line x1="104.594" y1="246.111" x2="104.594" y2="56.4364" stroke="#EAECF0" stroke-width="0.709648"></line>
<line x1="152.934" y1="246.111" x2="152.934" y2="56.4364" stroke="#EAECF0" stroke-width="0.709648"></line>
<line x1="201.282" y1="246.111" x2="201.282" y2="56.4364" stroke="#EAECF0" stroke-width="0.709648"></line>
<line x1="249.628" y1="246.111" x2="249.628" y2="56.4364" stroke="#EAECF0" stroke-width="0.709648"></line>
<line x1="297.965" y1="246.111" x2="297.965" y2="56.4364" stroke="#EAECF0" stroke-width="0.709648"></line>
<line x1="346.315" y1="246.111" x2="346.315" y2="56.4364" stroke="#EAECF0" stroke-width="0.709648"></line>
<path d="M69.6016 58.2812H376.998C377.781 58.2812 378.417 58.9167 378.417 59.7005V75.277C378.417 76.0609 377.781 76.6963 376.998 76.6963H69.6016V58.2812Z" fill="#F44236" data-index="13"></path>
<path d="M69.6016 96.9473H318.176C318.959 96.9473 319.595 97.5827 319.595 98.3666V113.943C319.595 114.727 318.959 115.362 318.176 115.362H69.6016V96.9473Z" fill="#205CF2" data-index="14"></path>
<path d="M69.6016 135.623H279.574C280.358 135.623 280.993 136.258 280.993 137.042V152.619C280.993 153.403 280.358 154.038 279.574 154.038H69.6016V135.623Z" fill="#EA1E63" data-index="15" style="opacity: 1;"></path>
<path d="M69.3906 173.896H341.896C342.679 173.896 343.315 174.532 343.315 175.316V190.659C343.315 191.443 342.679 192.078 341.896 192.078H69.3906V173.896Z" fill="#205CF2" data-index="16" style="opacity: 1;"></path>
<path d="M69.6016 212.965H318.176C318.959 212.965 319.595 213.6 319.595 214.384V229.961C319.595 230.744 318.959 231.38 318.176 231.38H69.6016V212.965Z" fill="#86CCDA" data-index="17" style="opacity: 1;"></path>
</svg>