<svg width="32" height="33" viewBox="0 0 32 33" fill="none" xmlns="http://www.w3.org/2000/svg">
<path d="M28.1283 13.6699L25.8266 17.2658L18.9804 29.8133L14.7452 30.6045H13.1162L11.6269 26.8812L9.53259 25.9038L5.53006 26.3692L3.43572 25.2522L2.31873 21.9013L4.97157 17.8522L4.69233 15.1063L1.75977 11.3365L4.45948 7.14779L10.1376 8.34787L12.1386 4.91382L14.32 3.09766H18.0594L19.7854 6.47796L22.4466 8.34787L26.3302 7.05323L30.142 11.3685L28.1283 13.6699Z" fill="#B7FFFD"/>
<path d="M23.2421 21.0529V23.8524V21.0529ZM23.2547 26.652H23.2421H23.2547ZM30.241 23.8524C30.241 27.7178 27.1074 30.8513 23.2421 30.8513C19.3767 30.8513 16.2432 27.7178 16.2432 23.8524C16.2432 19.9871 19.3767 16.8535 23.2421 16.8535C27.1074 16.8535 30.241 19.9871 30.241 23.8524Z" fill="white"/>
<path d="M23.2421 21.0529V23.8524M23.2547 26.652H23.2421M30.241 23.8524C30.241 27.7178 27.1074 30.8513 23.2421 30.8513C19.3767 30.8513 16.2432 27.7178 16.2432 23.8524C16.2432 19.9871 19.3767 16.8535 23.2421 16.8535C27.1074 16.8535 30.241 19.9871 30.241 23.8524Z" stroke="#1355FF" stroke-width="2.09967" stroke-linecap="round"/>
<path d="M27.7659 14.132C28.4378 13.3762 29.5969 12.234 29.535 11.7688C29.5826 11.3164 29.3376 10.8914 28.8478 10.0414L28.157 8.84231C27.6345 7.93549 27.3732 7.48207 26.9286 7.30128C26.4842 7.12047 25.9814 7.26315 24.9759 7.54848L23.2677 8.02958C22.6258 8.17761 21.9524 8.09364 21.3661 7.79247L20.8946 7.5204C20.392 7.19846 20.0054 6.7238 19.7914 6.16586L19.3239 4.76973C19.0166 3.84586 18.8629 3.38391 18.497 3.11969C18.1311 2.85547 17.6451 2.85547 16.6732 2.85547H15.1128C14.1407 2.85547 13.6547 2.85547 13.289 3.11969C12.9231 3.38391 12.7694 3.84586 12.462 4.76973L11.9946 6.16586C11.7806 6.7238 11.394 7.19846 10.8913 7.5204L10.4197 7.79247C9.83365 8.09364 9.16008 8.17761 8.51814 8.02958L6.81014 7.54848C5.80467 7.26315 5.30187 7.12047 4.8573 7.30128C4.41273 7.48207 4.15153 7.93549 3.62899 8.84231L2.93806 10.0414C2.44829 10.8914 2.20347 11.3164 2.25092 11.7688C2.29851 12.2213 2.62634 12.5859 3.28199 13.3151L4.7253 14.9285C5.07791 15.3751 5.32847 16.1533 5.32847 16.8529C5.32847 17.5531 5.07805 18.3311 4.7253 18.7778L3.28199 20.3913C2.62634 21.1205 2.29851 21.4851 2.25092 21.9375C2.20347 22.3901 2.44829 22.815 2.93806 23.665L3.62899 24.864C4.15153 25.7708 4.41273 26.2243 4.8573 26.4051C5.30187 26.5859 5.80467 26.4433 6.81014 26.1579L8.51814 25.6767C9.16022 25.5287 9.83379 25.6128 10.42 25.914L10.8915 26.1861C11.3941 26.5081 11.7806 26.9826 11.9945 27.5406L12.462 28.9368C12.7694 29.8607 12.9394 30.341 13.2194 30.5431C13.3034 30.6038 13.6393 30.879 14.4624 30.8538" stroke="#1355FF" stroke-width="2.09967" stroke-linecap="round"/>
<path d="M19.2663 13.2801C18.0905 12.3227 17.1666 11.9531 15.8229 11.9531C13.3032 11.9867 11.002 14.0681 11.002 16.7739C11.002 18.2657 11.4555 19.2095 12.3121 20.2006" stroke="#1355FF" stroke-width="2.09967" stroke-linecap="round"/>
</svg>
