<svg width="33" height="33" viewBox="0 0 33 33" fill="none" xmlns="http://www.w3.org/2000/svg">
<path d="M7.72946 23.6455H7.73917H7.72946ZM7.74001 21.2175V18.7895V21.2175ZM13.1249 21.2175C13.1249 24.1974 10.7093 26.613 7.72946 26.613C4.7496 26.613 2.33398 24.1974 2.33398 21.2175C2.33398 18.2376 4.7496 15.822 7.72946 15.822C10.7093 15.822 13.1249 18.2376 13.1249 21.2175Z" fill="white"/>
<path d="M7.72946 23.6455H7.73917M7.74001 21.2175V18.7895M13.1249 21.2175C13.1249 24.1974 10.7093 26.613 7.72946 26.613C4.7496 26.613 2.33398 24.1974 2.33398 21.2175C2.33398 18.2376 4.7496 15.822 7.72946 15.822C10.7093 15.822 13.1249 18.2376 13.1249 21.2175Z" stroke="#1355FF" stroke-width="2" stroke-linecap="round"/>
<path d="M13.8432 28.8907C18.8005 18.6219 12.0727 12.8087 8.08908 11.1858H4.10547L5.43334 8.53005L8.5317 4.98907L12.9579 2.77595L17.3842 2.33333L22.253 3.21857L28.4497 8.08743L30.2202 12.9563V20.0382L28.0071 23.5792L24.0235 27.5628L18.2694 29.3333L13.8432 28.8907Z" fill="#B7FFFD"/>
<path d="M7.79405 11.2447L4.4082 11.0386C6.83519 4.63284 13.8033 0.984348 20.597 2.79834C27.8329 4.73042 32.1309 12.1276 30.1968 19.3203C28.2627 26.5131 20.829 30.7777 13.5931 28.8457" stroke="#1355FF" stroke-width="2" stroke-linecap="round" stroke-linejoin="round"/>
<path d="M17.1719 10.4265V15.822L19.8696 18.5197" stroke="#1355FF" stroke-width="2" stroke-linecap="round" stroke-linejoin="round"/>
</svg>
