<svg width="33" height="33" viewBox="0 0 33 33" fill="none" xmlns="http://www.w3.org/2000/svg">
<path d="M6.13281 30.3333V7.93329C6.13281 5.29342 6.13281 3.97348 6.95292 3.15339C7.77301 2.33328 9.09295 2.33328 11.7328 2.33328H20.1328C22.7727 2.33328 24.0926 2.33328 24.9127 3.15339C25.7328 3.97348 25.7328 5.29342 25.7328 7.93329V30.3333" fill="#B7FFFD"/>
<path d="M6.13281 30.3333V7.93329C6.13281 5.29342 6.13281 3.97348 6.95292 3.15339C7.77301 2.33328 9.09295 2.33328 11.7328 2.33328H20.1328C22.7727 2.33328 24.0926 2.33328 24.9127 3.15339C25.7328 3.97348 25.7328 5.29342 25.7328 7.93329V30.3333" stroke="#1355FF" stroke-width="1.9" stroke-linecap="round"/>
<path d="M3.33398 30.3332H28.534" stroke="#1355FF" stroke-width="1.9" stroke-linecap="round" stroke-linejoin="round"/>
<path d="M21.5344 17.276V15.6504C21.5344 14.732 21.5344 14.2728 21.3144 13.9732C21.0944 13.6736 20.5969 13.5281 19.602 13.2372C18.9223 13.0385 18.323 12.799 17.8443 12.5804C17.1916 12.2824 16.8652 12.1334 16.6344 12.1334C16.4035 12.1334 16.0772 12.2824 15.4245 12.5804C14.9457 12.799 14.3465 13.0385 13.6668 13.2372C12.6719 13.5281 12.1744 13.6736 11.9544 13.9732C11.7344 14.2728 11.7344 14.732 11.7344 15.6504V17.276C11.7344 20.4262 14.4908 22.3162 15.8689 23.0643C16.1994 23.2437 16.3647 23.3334 16.6344 23.3334C16.9041 23.3334 17.0693 23.2437 17.3999 23.0643C18.778 22.3162 21.5344 20.4262 21.5344 17.276Z" fill="white" stroke="#1355FF" stroke-width="1.9" stroke-linecap="round"/>
</svg>
