<svg width="33" height="33" viewBox="0 0 33 33" fill="none" xmlns="http://www.w3.org/2000/svg">
<path d="M17.3672 27.7216C16.9379 27.7654 16.5021 27.7878 16.0612 27.7878C9.03217 27.7878 3.33398 22.0895 3.33398 15.0605C3.33398 8.03146 9.03217 2.33328 16.0612 2.33328C23.0902 2.33328 28.7885 8.03146 28.7885 15.0605C28.7885 15.9322 28.7008 16.7835 28.5339 17.606" fill="#B7FFFD"/>
<path d="M17.3672 27.7216C16.9379 27.7654 16.5021 27.7878 16.0612 27.7878C9.03216 27.7878 3.33398 22.0895 3.33398 15.0605C3.33398 8.03146 9.03216 2.33328 16.0612 2.33328C23.0902 2.33328 28.7885 8.03146 28.7885 15.0605C28.7885 15.9322 28.7008 16.7835 28.5339 17.606" stroke="#1355FF" stroke-width="1.9" stroke-linecap="round"/>
<path d="M28.7899 24.7592V22.2505C28.7899 21.856 28.5001 21.5285 28.1243 21.4613C26.6096 21.1905 25.3523 20.5881 24.7389 20.254C24.4877 20.1172 24.1831 20.1172 23.9319 20.254C23.3185 20.5881 22.0612 21.1905 20.5465 21.4613C20.1707 21.5285 19.8809 21.856 19.8809 22.2505V24.7592C19.8809 28.0319 23.1166 29.817 24.0726 30.2729C24.2412 30.3533 24.4296 30.3533 24.5982 30.2729C25.5542 29.817 28.7899 28.0319 28.7899 24.7592Z" fill="white" stroke="#1355FF" stroke-width="1.9" stroke-linecap="round"/>
<path d="M16.0605 9.9696V15.0605L17.9696 16.9696" fill="#B7FFFD"/>
<path d="M16.0605 9.9696V15.0605L17.9696 16.9696" stroke="#1355FF" stroke-width="1.9" stroke-linecap="round"/>
</svg>
