<svg width="33" height="33" viewBox="0 0 33 33" fill="none" xmlns="http://www.w3.org/2000/svg">
<path d="M14.3955 10.5542V2.36963H10.9494L5.78014 2.8004L2.76475 6.67732L2.33398 14.0004L2.76475 20.0312L5.78014 23.4773L10.0878 24.3389H16.5494H23.4417L26.8878 23.9081L29.4724 21.7542L30.334 17.4466V12.7081L28.1801 12.2773C27.8355 13.3112 26.8878 13.8568 26.4571 14.0004H18.7032C15.6017 13.6558 14.5391 11.5594 14.3955 10.5542Z" fill="#B7FFFD"/>
<path d="M14.7383 20.2897H17.4952" stroke="#1355FF" stroke-width="2" stroke-linecap="round" stroke-linejoin="round"/>
<path d="M16.1191 24.425V29.9389" stroke="#1355FF" stroke-width="2"/>
<path d="M10.6055 29.939H21.6332" stroke="#1355FF" stroke-width="2" stroke-linecap="round"/>
<path d="M13.9648 2.37122H11.9832C8.36412 2.38273 6.40941 2.49015 4.97913 3.49164C4.38639 3.90668 3.87083 4.42223 3.4558 5.01497C2.33398 6.61708 2.33398 8.87722 2.33398 13.3975C2.33398 17.9178 2.33398 20.1779 3.4558 21.7801C3.87083 22.3729 4.38639 22.8884 4.97913 23.3035C6.58125 24.4252 8.84138 24.4252 13.3617 24.4252H18.8755C23.3958 24.4252 25.6559 24.4252 27.2581 23.3035C27.8508 22.8884 28.3664 22.3729 28.7814 21.7801C29.7829 20.3498 29.8903 18.395 29.9018 14.776V12.7083" stroke="#1355FF" stroke-width="2" stroke-linecap="round"/>
<path d="M26.4576 5.32823L26.5444 5.26558C28.0026 4.21277 28.7318 3.68636 29.3178 3.94054C29.9038 4.19471 29.9038 5.03737 29.9038 6.72269V7.6658C29.9038 9.35112 29.9038 10.1938 29.3178 10.448C28.7318 10.7021 28.0026 10.1757 26.5444 9.12291L26.4576 9.06025M20.9438 12.0189H21.633C23.9073 12.0189 25.0445 12.0189 25.751 11.4006C26.4576 10.7824 26.4576 9.78738 26.4576 7.79732V6.59117C26.4576 4.60111 26.4576 3.6061 25.751 2.98786C25.0445 2.36963 23.9073 2.36963 21.633 2.36963H20.9438C18.6694 2.36963 17.5322 2.36963 16.8257 2.98786C16.1191 3.6061 16.1191 4.60111 16.1191 6.59117V7.79732C16.1191 9.78738 16.1191 10.7824 16.8257 11.4006C17.5322 12.0189 18.6694 12.0189 20.9438 12.0189Z" fill="white"/>
<path d="M26.4576 5.32823L26.5444 5.26558C28.0026 4.21277 28.7318 3.68636 29.3178 3.94054C29.9038 4.19471 29.9038 5.03737 29.9038 6.72269V7.6658C29.9038 9.35112 29.9038 10.1938 29.3178 10.448C28.7318 10.7021 28.0026 10.1757 26.5444 9.12291L26.4576 9.06025M20.9438 12.0189H21.633C23.9073 12.0189 25.0445 12.0189 25.751 11.4006C26.4576 10.7824 26.4576 9.78738 26.4576 7.79732V6.59117C26.4576 4.60111 26.4576 3.6061 25.751 2.98786C25.0445 2.36963 23.9073 2.36963 21.633 2.36963H20.9438C18.6694 2.36963 17.5322 2.36963 16.8257 2.98786C16.1191 3.6061 16.1191 4.60111 16.1191 6.59117V7.79732C16.1191 9.78738 16.1191 10.7824 16.8257 11.4006C17.5322 12.0189 18.6694 12.0189 20.9438 12.0189Z" stroke="#1355FF" stroke-width="2" stroke-linecap="round"/>
</svg>
