<svg width="33" height="33" viewBox="0 0 33 33" fill="none" xmlns="http://www.w3.org/2000/svg">
<path d="M11.8824 8.69769H18.2454V15.0607H21.4269C23.9721 17.6059 26.3052 17.818 27.1536 17.6059V22.6963L25.881 23.9689H2.33789V17.6059L6.1557 15.0607L11.8824 8.69769Z" fill="#B7FFFD"/>
<path d="M18.8705 23.9689C18.8705 25.3746 20.0101 26.5141 21.4157 26.5141C22.8214 26.5141 23.9609 25.3746 23.9609 23.9689C23.9609 22.5632 22.8214 21.4237 21.4157 21.4237C20.0101 21.4237 18.8705 22.5632 18.8705 23.9689Z" fill="white" stroke="#1355FF" stroke-width="2"/>
<path d="M6.14592 23.9689C6.14592 25.3746 7.28541 26.5141 8.69112 26.5141C10.0968 26.5141 11.2363 25.3746 11.2363 23.9689C11.2363 22.5632 10.0968 21.4237 8.69112 21.4237C7.28541 21.4237 6.14592 22.5632 6.14592 23.9689Z" fill="white" stroke="#1355FF" stroke-width="2"/>
<path d="M27.7791 17.6059C27.7791 18.5985 27.8046 18.9294 27.774 21.7546C27.7283 22.6709 27.5757 23.4344 23.9591 23.9689M7.41752 15.0607H21.4261M18.8709 15.0607V8.69769M11.2479 23.9689H18.8777M6.16643 23.9689C5.72687 23.9334 4.82447 23.9888 4.07593 23.9689C3.21336 23.9461 2.51991 23.7993 2.39736 22.8999C2.32101 22.5945 2.32101 20.762 2.36682 19.0821C2.54995 15.7988 5.83072 16.2778 7.55509 14.7298C8.59277 13.7983 9.37542 12.0574 10.3934 10.683C11.3547 9.3849 12.316 8.86568 13.4606 8.75878C14.0709 8.69769 14.7576 8.69769 14.7576 8.69769L19.5172 8.69769" stroke="#1355FF" stroke-width="2" stroke-linecap="round"/>
<path d="M30.3368 10.1017V7.95158C30.3368 7.61343 30.0884 7.33277 29.7663 7.27518C28.4681 7.04305 27.3905 6.52678 26.8648 6.24044C26.6495 6.12318 26.3884 6.12318 26.1732 6.24044C25.6474 6.52678 24.5698 7.04305 23.2717 7.27518C22.9495 7.33277 22.7012 7.61343 22.7012 7.95158V10.1017C22.7012 12.9065 25.4744 14.4365 26.2937 14.8272C26.4383 14.8962 26.5997 14.8962 26.7442 14.8272C27.5635 14.4365 30.3368 12.9065 30.3368 10.1017Z" fill="white" stroke="#1355FF" stroke-width="2" stroke-linecap="round"/>
</svg>
