<svg width="33" height="33" viewBox="0 0 33 33" fill="none" xmlns="http://www.w3.org/2000/svg">
<path d="M25.0013 30.3697C27.9468 30.3697 30.3346 27.9819 30.3346 25.0363C30.3346 22.0908 27.9468 19.703 25.0013 19.703C22.0558 19.703 19.668 22.0908 19.668 25.0363C19.668 27.9819 22.0558 30.3697 25.0013 30.3697Z" fill="white" stroke="#1355FF" stroke-width="2"/>
<path d="M22.8672 25.0363H27.1339M22.8672 25.0363C22.8672 24.6629 23.9308 23.9652 24.2005 23.703M22.8672 25.0363C22.8672 25.4098 23.9308 26.1075 24.2005 26.3697" stroke="#1355FF" stroke-width="1.33333" stroke-linecap="round" stroke-linejoin="round"/>
<path d="M11.0007 28.3696L17.0007 29.0363C16.4673 16.7696 24.7784 16.3696 29.0006 17.703V16.3696V11.703L26.334 7.70296L22.334 4.36963L17.6673 2.36963H13.0007L7.66732 5.0363L3.66732 9.70296L2.33398 17.703L4.33398 23.0363L11.0007 28.3696Z" fill="#B7FFFD"/>
<path d="M17.0007 28.9704C16.5621 29.014 16.1173 29.0363 15.6673 29.0363C8.30352 29.0363 2.33398 23.0667 2.33398 15.703C2.33398 8.33916 8.30352 2.36963 15.6673 2.36963C23.031 2.36963 29.0006 8.33916 29.0006 15.703C29.0006 16.153 28.9784 16.5978 28.9348 17.0363" stroke="#1355FF" stroke-width="2" stroke-linecap="round"/>
<path d="M9.66797 22.3696C11.5379 20.4111 14.3629 19.5751 17.0013 19.9617M18.9948 12.3696C18.9948 14.2105 17.5002 15.7029 15.6566 15.7029C13.8132 15.7029 12.3186 14.2105 12.3186 12.3696C12.3186 10.5286 13.8132 9.03625 15.6566 9.03625C17.5002 9.03625 18.9948 10.5286 18.9948 12.3696Z" stroke="#1355FF" stroke-width="2" stroke-linecap="round"/>
</svg>
