<svg width="33" height="33" viewBox="0 0 33 33" fill="none" xmlns="http://www.w3.org/2000/svg">
<path d="M23.0003 16.3307C23.0003 20.0126 20.0155 22.9974 16.3337 22.9974C12.6518 22.9974 9.66699 20.0126 9.66699 16.3307C9.66699 12.6488 12.6518 9.66406 16.3337 9.66406C20.0155 9.66406 23.0003 12.6488 23.0003 16.3307Z" fill="#B7FFFD" stroke="#1355FF" stroke-width="2" stroke-linecap="round"/>
<path d="M25.1948 6.3706C24.6652 6.85795 24.3333 7.55688 24.3333 8.33333C24.3333 9.80609 25.5272 11 27 11C27.5057 11 27.9785 10.8592 28.3815 10.6147C29.1519 10.1472 29.6667 9.30036 29.6667 8.33333C29.6667 6.86057 28.4728 5.66667 27 5.66667C26.3037 5.66667 25.6697 5.93355 25.1948 6.3706ZM25.1948 6.3706C22.8392 4.27388 19.7351 3 16.3333 3C8.96953 3 3 8.96953 3 16.3333C3 23.6971 8.96953 29.6667 16.3333 29.6667C23.6971 29.6667 29.6667 23.6971 29.6667 16.3333C29.6667 15.8833 29.6444 15.4385 29.6008 15" stroke="#1355FF" stroke-width="2" stroke-linecap="round"/>
</svg>
