<svg width="33" height="33" viewBox="0 0 33 33" fill="none" xmlns="http://www.w3.org/2000/svg">
<path d="M23.5003 16.3307C23.5003 20.0126 20.5155 22.9974 16.8337 22.9974C13.1518 22.9974 10.167 20.0126 10.167 16.3307C10.167 12.6488 13.1518 9.66406 16.8337 9.66406C20.5155 9.66406 23.5003 12.6488 23.5003 16.3307Z" fill="#B7FFFD" stroke="#1355FF" stroke-width="2" stroke-linecap="round"/>
<path d="M14.167 16.9987C14.167 16.9987 14.8337 16.9987 15.5003 18.332C15.5003 18.332 17.6179 14.9987 19.5003 14.332" stroke="#1355FF" stroke-width="2" stroke-linecap="round" stroke-linejoin="round"/>
<path d="M28.8335 15.2444V11.3737C28.8335 9.18705 28.8335 8.09371 28.2947 7.38039C27.7559 6.66705 26.5376 6.32075 24.1011 5.62813C22.4364 5.15493 20.969 4.58484 19.7966 4.06439C18.198 3.3548 17.3988 3 16.8335 3C16.2682 3 15.469 3.3548 13.8704 4.06439C12.698 4.58484 11.2306 5.15492 9.56594 5.62813C7.1294 6.32075 5.91112 6.66705 5.37231 7.38039C4.8335 8.09371 4.8335 9.18705 4.8335 11.3737V15.2444C4.8335 22.7447 11.5839 27.2447 14.9588 29.0259C15.7683 29.4531 16.173 29.6667 16.8335 29.6667C17.494 29.6667 17.8987 29.4531 18.7082 29.0259C22.0831 27.2447 28.8335 22.7447 28.8335 15.2444Z" stroke="#1355FF" stroke-width="2" stroke-linecap="round"/>
</svg>
