<svg width="33" height="33" viewBox="0 0 33 33" fill="none" xmlns="http://www.w3.org/2000/svg">
<path d="M29.5003 17.2458V15.4157C29.5003 13.2357 29.5003 12.1457 29.0943 11.1656C28.6883 10.1854 27.9177 9.41469 26.3762 7.8732L25.2911 6.78826C23.7497 5.24676 22.979 4.47601 21.9989 4.07004C21.0187 3.66406 19.9287 3.66406 17.7487 3.66406H15.9186C13.7386 3.66406 12.6486 3.66406 11.6685 4.07004C10.6884 4.47601 9.91762 5.24676 8.37613 6.78826L7.29119 7.8732C5.74969 9.4147 4.97894 10.1854 4.57297 11.1656C4.16699 12.1457 4.16699 13.2357 4.16699 15.4157V17.2458C4.16699 19.4258 4.16699 20.5158 4.57297 21.4959C4.97894 22.4761 5.74969 23.2467 7.29119 24.7882L8.37613 25.8733C9.91762 27.4147 10.6884 28.1854 11.6685 28.5914C12.6486 28.9974 13.7386 28.9974 15.9186 28.9974H17.7487C19.9287 28.9974 21.0187 28.9974 21.9989 28.5914C22.979 28.1854 23.7497 27.4147 25.2911 25.8733L26.3762 24.7882C27.9177 23.2467 28.6883 22.4761 29.0943 21.4959C29.5003 20.5158 29.5003 19.4258 29.5003 17.2458Z" fill="#B7FFFD" stroke="#1355FF" stroke-width="2" stroke-linecap="round" stroke-linejoin="round"/>
<path d="M16.8335 21.6641V15.6641" stroke="#1355FF" stroke-width="2" stroke-linecap="round" stroke-linejoin="round"/>
<path d="M16.8335 11.0133V11" stroke="#1355FF" stroke-width="2.4" stroke-linecap="round" stroke-linejoin="round"/>
</svg>
