<svg width="33" height="33" viewBox="0 0 33 33" fill="none" xmlns="http://www.w3.org/2000/svg">
<path d="M13.2843 11.3008C9.14022 11.3008 5.78076 14.3084 5.78076 18.0185H13.2843V11.3008Z" fill="#B7FFFD" stroke="#1355FF" stroke-width="2"/>
<path d="M3.71271 21.8961C5.36426 25.1521 9.02807 27.4164 13.2826 27.4164V18.0117H6.82956C4.87779 18.0117 3.90191 18.0117 3.30855 18.9707C2.71519 19.9296 3.0477 20.5851 3.71271 21.8961Z" fill="#B7FFFD" stroke="#1355FF" stroke-width="2"/>
<path d="M17.2859 29.5636C22.7907 28.0363 26.7891 23.442 26.7891 18.0117H13.2827V26.0729C13.2827 28.0377 13.2827 29.0201 14.0835 29.6249C14.8844 30.2299 15.6848 30.0077 17.2859 29.5636Z" fill="#B7FFFD" stroke="#1355FF" stroke-width="2"/>
<path d="M29.1878 14.0444C27.6044 8.95121 23.0507 4.96573 17.3027 3.67813C15.6367 3.30493 14.8036 3.11833 14.0432 3.72341C13.2827 4.32849 13.2827 5.30813 13.2827 7.26743V18.0156H25.7386C27.7118 18.0156 28.6983 18.0156 29.3056 17.1966C29.913 16.3774 29.6712 15.5998 29.1878 14.0444Z" fill="#B7FFFD" stroke="#1355FF" stroke-width="2"/>
</svg>
