<svg width="33" height="33" viewBox="0 0 33 33" fill="none" xmlns="http://www.w3.org/2000/svg">
<path d="M25.2913 14.6201C25.0344 14.8639 24.6909 15 24.3335 15C23.976 15 23.6325 14.8639 23.3756 14.6201C21.0223 12.3756 17.8687 9.86815 19.4067 6.2278C20.2381 4.25949 22.2343 3 24.3335 3C26.4327 3 28.4287 4.25949 29.2603 6.2278C30.7963 9.86356 27.6504 12.3833 25.2913 14.6201Z" fill="#B7FFFD" stroke="#1355FF" stroke-width="2"/>
<path d="M24.3335 8.33203H24.3455" stroke="#1355FF" stroke-width="2.66667" stroke-linecap="round" stroke-linejoin="round"/>
<path d="M7 29.6641C9.20914 29.6641 11 27.8732 11 25.6641C11 23.4549 9.20914 21.6641 7 21.6641C4.79086 21.6641 3 23.4549 3 25.6641C3 27.8732 4.79086 29.6641 7 29.6641Z" fill="#B7FFFD" stroke="#1355FF" stroke-width="2" stroke-linecap="round" stroke-linejoin="round"/>
<path d="M15.0002 9.66406H13.0002C10.4228 9.66406 8.3335 11.4549 8.3335 13.6641C8.3335 15.8733 10.4228 17.6641 13.0002 17.6641H17.0002C19.5775 17.6641 21.6668 19.4549 21.6668 21.6641C21.6668 23.8733 19.5775 25.6641 17.0002 25.6641H15.0002" stroke="#1355FF" stroke-width="2" stroke-linecap="round" stroke-linejoin="round"/>
</svg>
