<svg width="33" height="33" viewBox="0 0 33 33" fill="none" xmlns="http://www.w3.org/2000/svg">
<path d="M13.3609 6.66406H11.972C8.04363 6.66406 6.07945 6.66406 4.85906 7.83564C3.63867 9.00721 3.63867 10.8928 3.63867 14.6641V19.9974C3.63867 23.7686 3.63867 25.6542 4.85906 26.8258C6.07945 27.9974 8.04363 27.9974 11.972 27.9974H17.5808C21.5092 27.9974 23.4734 27.9974 24.6938 26.8258C25.4844 26.0667 25.7628 25.0079 25.8608 23.3307" stroke="#1355FF" stroke-width="2" stroke-linecap="round" stroke-linejoin="round"/>
<path d="M22.3891 9.9987V5.80343C22.3891 5.54308 22.609 5.33203 22.8802 5.33203C23.0103 5.33203 23.1352 5.3817 23.2274 5.4701L29.5368 11.5273C29.8514 11.8291 30.0279 12.2385 30.0279 12.6654C30.0279 13.0922 29.8514 13.5016 29.5368 13.8034L23.2274 19.8606C23.1352 19.9491 23.0103 19.9987 22.8802 19.9987C22.609 19.9987 22.3891 19.7876 22.3891 19.5272V15.332H18.3211C12.6668 15.332 10.5835 19.9987 10.5835 19.9987V16.6654C10.5835 12.9835 13.6926 9.9987 17.5279 9.9987H22.3891Z" fill="#B7FFFD" stroke="#1355FF" stroke-width="2" stroke-linecap="round" stroke-linejoin="round"/>
</svg>
