<svg width="33" height="32" viewBox="0 0 33 32" fill="none" xmlns="http://www.w3.org/2000/svg">
<path d="M3.84148 20.8442C3.88676 20.4133 4.19904 20.066 4.82362 19.3714L6.19838 17.8345C6.53442 17.409 6.77288 16.668 6.77288 16.001C6.77288 15.3346 6.53434 14.5933 6.19834 14.168L4.82362 12.631C4.19904 11.9365 3.88675 11.5892 3.84148 11.1582C3.7962 10.7272 4.02948 10.3224 4.49603 9.51274L5.15414 8.37061C5.65187 7.50684 5.90072 7.07494 6.32416 6.90273C6.7476 6.7305 7.22648 6.86641 8.18427 7.1382L9.81124 7.59646C10.4227 7.73746 11.0643 7.65748 11.6226 7.37061L12.0718 7.11145C12.5505 6.8048 12.9188 6.35266 13.1226 5.82121L13.5679 4.49136C13.8607 3.61134 14.0071 3.17133 14.3555 2.91965C14.7041 2.66797 15.167 2.66797 16.0927 2.66797H17.5791C18.505 2.66797 18.9679 2.66797 19.3163 2.91965C19.6649 3.17133 19.8113 3.61134 20.1041 4.49136L20.5493 5.82121C20.7531 6.35266 21.1214 6.8048 21.6002 7.11145L22.0494 7.37061C22.6077 7.65748 23.2493 7.73746 23.8607 7.59646L25.4877 7.1382C26.4454 6.86641 26.9243 6.7305 27.3478 6.90273C27.7713 7.07494 28.0201 7.50684 28.5178 8.37061L29.1759 9.51274C29.6425 10.3224 29.8757 10.7272 29.8305 11.1582C29.7851 11.5892 29.4729 11.9365 28.8483 12.631L27.4735 14.168C27.1377 14.5933 26.899 15.3346 26.899 16.001C26.899 16.668 27.1375 17.409 27.4735 17.8345L28.8483 19.3714C29.4729 20.066 29.7851 20.4133 29.8305 20.8442C29.8757 21.2753 29.6425 21.6801 29.1759 22.4897L28.5178 23.6318C28.0201 24.4956 27.7713 24.9276 27.3478 25.0997C26.9243 25.272 26.4454 25.1361 25.4877 24.8642L23.8607 24.406C23.2491 24.2649 22.6075 24.345 22.0491 24.632L21.6001 24.8912C21.1213 25.1978 20.7531 25.6498 20.5494 26.1813L20.1041 27.5113C19.8113 28.3913 19.6649 28.8313 19.3163 29.0829C18.9679 29.3346 18.505 29.3346 17.5791 29.3346H16.0927C15.167 29.3346 14.7041 29.3346 14.3555 29.0829C14.0071 28.8313 13.8607 28.3913 13.5679 27.5113" stroke="#1355FF" stroke-width="2" stroke-linecap="round"/>
<path d="M4.48293 25.0371C5.92293 23.5971 10.8189 18.7491 11.2989 18.1891C11.8064 17.5971 11.3949 16.7971 11.6397 14.3171C11.7582 13.1171 12.0163 12.2181 12.7549 11.5491C13.6349 10.7171 14.355 10.7171 16.835 10.6611C18.995 10.7171 19.251 10.4771 19.475 11.0371C19.635 11.4371 19.155 11.6771 18.579 12.3171C17.299 13.5971 16.547 14.2371 16.475 14.6371C15.955 16.3971 18.003 17.4371 19.123 16.3171C19.5465 15.8935 21.507 13.9171 21.699 13.7571C21.843 13.6291 22.1877 13.6353 22.355 13.8371C22.499 13.9786 22.515 13.9971 22.499 14.6371C22.4842 15.2295 22.4907 16.0801 22.4926 16.9571C22.4949 18.0935 22.435 19.3571 21.955 19.9971C20.995 21.4371 19.395 21.5171 17.955 21.5811C16.595 21.6611 15.475 21.5171 15.123 21.7731C14.835 21.9171 13.3149 23.5171 11.4749 25.3571L8.19493 28.6371C5.47493 30.7971 2.48293 27.4371 4.48293 25.0371Z" fill="#B7FFFD" stroke="#1355FF" stroke-width="2" stroke-linecap="round"/>
</svg>
