<svg width="33" height="32" viewBox="0 0 33 32" fill="none" xmlns="http://www.w3.org/2000/svg">
<path d="M4.3335 14.668C4.3335 9.66833 4.3335 7.1685 5.60671 5.41606C6.01791 4.8501 6.51563 4.35238 7.08159 3.94118C8.83403 2.66797 11.3339 2.66797 16.3335 2.66797C21.3331 2.66797 23.833 2.66797 25.5854 3.94118C26.1514 4.35238 26.6491 4.8501 27.0603 5.41606C28.3335 7.1685 28.3335 9.66833 28.3335 14.668V17.3346C28.3335 22.3342 28.3335 24.8341 27.0603 26.5865C26.6491 27.1525 26.1514 27.6502 25.5854 28.0614C23.833 29.3346 21.3331 29.3346 16.3335 29.3346C11.3339 29.3346 8.83403 29.3346 7.08159 28.0614C6.51563 27.6502 6.01791 27.1525 5.60671 26.5865C4.3335 24.8341 4.3335 22.3342 4.3335 17.3346V14.668Z" fill="#D9D9D9"/>
<path d="M4.3335 14.668C4.3335 9.66833 4.3335 7.1685 5.60671 5.41606C6.01791 4.8501 6.51563 4.35238 7.08159 3.94118C8.83403 2.66797 11.3339 2.66797 16.3335 2.66797C21.3331 2.66797 23.833 2.66797 25.5854 3.94118C26.1514 4.35238 26.6491 4.8501 27.0603 5.41606C28.3335 7.1685 28.3335 9.66833 28.3335 14.668V17.3346C28.3335 22.3342 28.3335 24.8341 27.0603 26.5865C26.6491 27.1525 26.1514 27.6502 25.5854 28.0614C23.833 29.3346 21.3331 29.3346 16.3335 29.3346C11.3339 29.3346 8.83403 29.3346 7.08159 28.0614C6.51563 27.6502 6.01791 27.1525 5.60671 26.5865C4.3335 24.8341 4.3335 22.3342 4.3335 17.3346V14.668Z" fill="#B7FFFD"/>
<path d="M4.3335 14.668C4.3335 9.66833 4.3335 7.1685 5.60671 5.41606C6.01791 4.8501 6.51563 4.35238 7.08159 3.94118C8.83403 2.66797 11.3339 2.66797 16.3335 2.66797C21.3331 2.66797 23.833 2.66797 25.5854 3.94118C26.1514 4.35238 26.6491 4.8501 27.0603 5.41606C28.3335 7.1685 28.3335 9.66833 28.3335 14.668V17.3346C28.3335 22.3342 28.3335 24.8341 27.0603 26.5865C26.6491 27.1525 26.1514 27.6502 25.5854 28.0614C23.833 29.3346 21.3331 29.3346 16.3335 29.3346C11.3339 29.3346 8.83403 29.3346 7.08159 28.0614C6.51563 27.6502 6.01791 27.1525 5.60671 26.5865C4.3335 24.8341 4.3335 22.3342 4.3335 17.3346V14.668Z" stroke="#1355FF" stroke-width="2" stroke-linecap="round" stroke-linejoin="round"/>
<path d="M20.3337 12.668H9.66699M13.667 19.3346H9.66699" stroke="#1355FF" stroke-width="2" stroke-linecap="round" stroke-linejoin="round"/>
</svg>
