<svg width="20" height="20" viewBox="0 0 20 20" fill="none" xmlns="http://www.w3.org/2000/svg">
<path opacity="0.4" d="M2.10547 10.7899C2.10547 9.91786 2.81239 9.21094 3.68442 9.21094H16.316C17.188 9.21094 17.8949 9.91786 17.8949 10.7899V13.9478C17.8949 15.6918 16.4811 17.1057 14.737 17.1057H5.26336C3.51931 17.1057 2.10547 15.6918 2.10547 13.9478V10.7899Z" fill="#1355FF"/>
<path d="M3.68359 7.63168C3.68359 6.75965 4.39051 6.05273 5.26254 6.05273H14.7362C15.6083 6.05273 16.3152 6.75965 16.3152 7.63168V9.21063H3.68359V7.63168Z" fill="#1355FF"/>
<path opacity="0.4" d="M5.26367 4.47348C5.26367 3.60145 5.97059 2.89453 6.84262 2.89453H13.1584C14.0304 2.89453 14.7374 3.60145 14.7374 4.47348V6.05243H5.26367V4.47348Z" fill="#1355FF"/>
<path fill-rule="evenodd" clip-rule="evenodd" d="M7.83008 11.5784C7.83008 11.2514 8.09517 10.9863 8.42218 10.9863H11.5801C11.9071 10.9863 12.1722 11.2514 12.1722 11.5784C12.1722 11.9054 11.9071 12.1705 11.5801 12.1705H8.42218C8.09517 12.1705 7.83008 11.9054 7.83008 11.5784Z" fill="#1355FF"/>
</svg>
