<svg width="33" height="33" viewBox="0 0 33 33" fill="none" xmlns="http://www.w3.org/2000/svg">
<path d="M21.8335 28.3809C19.0335 20.7809 25.0002 18.7142 28.3335 18.3809L24.3335 11.8809L20.3335 4.88086L16.8335 3.38086H13.8335L11.3335 5.88086L5.3335 15.8809L2.3335 22.8809L4.8335 26.8809L12.3335 28.3809H21.8335Z" fill="#B7FFFD"/>
<path d="M26.8413 28.7001C29.121 28.7001 30.9692 26.852 30.9692 24.5722C30.9692 22.2925 29.121 20.4443 26.8413 20.4443C24.5615 20.4443 22.7134 22.2925 22.7134 24.5722C22.7134 26.852 24.5615 28.7001 26.8413 28.7001Z" stroke="#1355FF" stroke-width="1.2" stroke-linecap="round" stroke-linejoin="round"/>
<path d="M26.8408 20.4443V24.5722L30.2772 26.8614" stroke="#1355FF" stroke-linecap="round" stroke-linejoin="round"/>
<path d="M27.9791 17.7709C27.3282 16.5372 25.8666 14.4573 24.9231 12.7878C21.7459 7.166 20.1575 4.35511 17.9776 3.63155C16.7784 3.23349 15.4866 3.23349 14.2875 3.63155C12.1076 4.35511 10.5191 7.166 7.34203 12.7878C4.16495 18.4095 2.57641 21.2204 3.05295 23.5107C3.31511 24.7708 3.961 25.9136 4.89803 26.7756C6.60131 28.3424 9.77839 28.3424 16.1325 28.3424C18.2062 28.3424 19.9415 28.3424 21.3977 28.2879" stroke="#1355FF" stroke-width="1.9" stroke-linecap="round"/>
<path d="M16.1216 21.1025H16.1334" stroke="#1355FF" stroke-width="1.9" stroke-linecap="round" stroke-linejoin="round"/>
<path d="M16.1323 17.1538V11.8887" stroke="#1355FF" stroke-width="1.9" stroke-linecap="round" stroke-linejoin="round"/>
</svg>
