<svg width="33" height="32" viewBox="0 0 33 32" fill="none" xmlns="http://www.w3.org/2000/svg">
<path d="M16.3337 9C19.7431 9 22.6337 11.8231 22.6337 15.2481C22.6337 18.7275 19.6961 21.1694 16.9826 22.8296C16.7849 22.9413 16.5612 23 16.3337 23C16.1062 23 15.8825 22.9413 15.6848 22.8296C12.9764 21.1531 10.0337 18.7395 10.0337 15.2481C10.0337 11.8231 12.9243 9 16.3337 9Z" fill="#B7FFFD" stroke="#1355FF" stroke-width="1.9"/>
<path d="M27.5335 14.6L30.3335 16C30.3335 8.26801 24.0654 2 16.3335 2C10.5926 2 5.65878 5.45547 3.49842 10.4M5.1335 17.4L2.3335 16C2.3335 23.7319 8.60151 30 16.3335 30C22.0743 30 27.0082 26.5445 29.1686 21.6" stroke="#1355FF" stroke-width="1.9" stroke-linecap="round" stroke-linejoin="round"/>
<path d="M16.3335 15.2998H16.3461" stroke="#1355FF" stroke-width="1.9" stroke-linecap="round" stroke-linejoin="round"/>
</svg>
