<svg width="33" height="32" viewBox="0 0 33 32" fill="none" xmlns="http://www.w3.org/2000/svg">
<path d="M28.9676 6.78049L30.3335 3.36585L29.6506 2H26.2359H17.3579H7.79691L4.38228 4.04878L2.3335 10.1951L5.74813 16.3415L13.2603 17.7073L18.7237 16.3415L20.7725 14.2927L21.4554 11.561L25.553 8.82927L28.9676 6.78049Z" fill="#B7FFFD"/>
<path d="M11.8945 17.0244V18.3903C11.8945 22.2534 11.8945 24.185 10.6944 25.3852C9.49418 26.5854 7.56259 26.5854 3.69941 26.5854" stroke="#1355FF" stroke-width="1.9" stroke-linejoin="round"/>
<path d="M4.12061 23.8535V29.3169" stroke="#1355FF" stroke-width="1.9" stroke-linecap="round" stroke-linejoin="round"/>
<path d="M20.0897 14.0589L20.8234 14.1404C21.9211 14.2624 22.47 14.3234 22.9072 14.276C25.0412 14.0448 26.7232 12.1537 26.9078 9.77837C26.9456 9.2917 26.8847 8.68209 26.7629 7.46289" stroke="#1355FF" stroke-width="1.9" stroke-linejoin="round"/>
<path d="M13.6816 8.83008H13.6693" stroke="#1355FF" stroke-width="1.9" stroke-linecap="round" stroke-linejoin="round"/>
<path d="M9.1626 8.83008H3.01626" stroke="#1355FF" stroke-width="1.9" stroke-linecap="round" stroke-linejoin="round"/>
<path d="M29.3144 5.03786C29.6176 3.81293 29.7693 3.20045 29.5386 2.74453C29.4602 2.58946 29.3531 2.45096 29.2232 2.33652C28.8411 2 28.216 2 26.9657 2H9.77217C5.66381 2 2.33332 5.36332 2.33332 9.5122C2.33332 13.6611 5.66381 17.0244 9.77217 17.0244H16.2581C17.3723 17.0244 17.9296 17.0244 18.4082 16.8336C18.7773 16.6865 19.1098 16.4591 19.3822 16.1676C19.7354 15.7897 19.9423 15.2672 20.3562 14.2223L21.0903 12.3691C21.5148 11.2974 21.727 10.7615 22.1196 10.365C22.5122 9.96857 23.0429 9.75421 24.1041 9.32552L26.4152 8.39196C27.4079 7.99099 27.9042 7.79051 28.2767 7.4373C28.4073 7.31347 28.5254 7.17684 28.6292 7.02944C28.9254 6.60898 29.0551 6.08528 29.3144 5.03786Z" stroke="#1355FF" stroke-width="1.9" stroke-linejoin="round"/>
</svg>
