<svg width="48" height="48" viewBox="0 0 48 48" fill="none" xmlns="http://www.w3.org/2000/svg">
<circle cx="36.6055" cy="36.7129" r="8.29688" fill="white"/>
<path d="M43.576 27.2831C28.8014 21.1664 25.1084 31.8705 25.1087 37.9872L20.7728 36.1806L15.9772 34.506L12.1712 35.7239L7.60398 38.6165H4.78753L3.11289 36.1806L2.65625 24.3059V12.5833L5.24472 8.39673L12.3247 3.67727L16.9675 2.99219L25.9497 7.25497L32.1916 9.76694L40.7171 9.15794L44.5992 11.8983L45.3409 23.0485C44.7919 24.4992 43.6704 27.3772 43.576 27.2831Z" fill="#B7FFFD"/>
<path d="M41.4597 37.7894L42.7575 38.1384C43.7516 38.4057 44.2489 38.5395 44.6599 38.2245M44.6599 38.2245C44.6601 38.2243 44.6597 38.2245 44.6599 38.2245ZM44.6599 38.2245C45.0706 37.9093 45.0715 37.4689 45.0715 36.5895C45.0715 31.9503 41.3106 28.1895 36.6715 28.1895C34.8306 28.1895 33.1279 28.7817 31.7438 29.7859M31.8715 35.3895L30.5851 35.0424C29.5922 34.7744 29.0959 34.6404 28.6848 34.954C28.6837 34.9548 28.6822 34.9559 28.6814 34.9567C28.2715 35.2719 28.2715 35.711 28.2715 36.5895C28.2715 41.2286 32.0324 44.9895 36.6715 44.9895C38.451 44.9895 40.1014 44.4361 41.4597 43.4919" stroke="#1355FF" stroke-width="2.25" stroke-linecap="round" stroke-linejoin="round"/>
<path d="M45.0742 23.9902V18.147C45.0742 14.0738 45.0742 12.0372 43.844 10.7718C42.6139 9.50641 40.634 9.50641 36.6742 9.50641H32.3092C30.3826 9.50641 30.3667 9.50267 28.6344 8.63575L21.638 5.13463C18.7168 3.67282 17.2562 2.94191 15.7002 2.99271C14.1442 3.04351 12.7316 3.8682 9.90646 5.51761L7.32794 7.02301C5.25274 8.23454 4.21513 8.84033 3.64466 9.84808C3.07422 10.8558 3.07422 12.0831 3.07422 14.5376V31.7932C3.07422 35.0182 3.07422 36.6308 3.79296 37.5283C4.27124 38.1253 4.94145 38.5269 5.68242 38.66C6.79596 38.8599 8.15933 38.064 10.8859 36.472C12.7375 35.3911 14.5195 34.2685 16.7344 34.573C18.5905 34.8279 20.3152 35.9991 21.9742 36.8292" stroke="#1355FF" stroke-width="2.25" stroke-linecap="round" stroke-linejoin="round"/>
<path d="M15.6738 2.99023V34.4902" stroke="#1355FF" stroke-width="2.25" stroke-linejoin="round"/>
<path d="M30.375 9.29004V22.94" stroke="#1355FF" stroke-width="2.25" stroke-linecap="round" stroke-linejoin="round"/>
</svg>
