<svg width="29" height="29" viewBox="0 0 29 29" fill="none" xmlns="http://www.w3.org/2000/svg">
<g clip-path="url(#clip0_40000924_4747)">
<path d="M14.1027 18.7118C13.4824 21.9257 16.1536 24.9345 17.5668 26.0372C16.9546 27.0485 15.0023 27.1195 14.1027 27.0286L9.09887 25.4075L5.50391 20.7558V13.7781L7.61861 10.536L9.09887 13.3552L11.143 14.5534L12.1296 13.7781L11.143 10.536L12.4821 5.95471L14.667 2.92407L17.5668 7.50527C18.8321 8.79746 21.3627 11.3959 21.3627 11.4523C23.2234 13.0875 23.1717 14.7649 22.9133 15.3992C22.326 15.1172 21.1936 14.5534 21.3627 14.5534C20.1222 13.482 18.8254 14.107 18.332 14.5534C17.6977 14.8353 16.4149 15.3992 16.3586 15.3992C13.4688 15.6106 14.0323 18.5708 14.1027 18.7118Z" fill="#B7FFFD"/>
<path d="M14.8528 26.8877C9.47757 26.8877 5.12012 22.5001 5.12012 17.0877C5.12012 14.535 6.29402 11.9824 7.82643 9.73769C8.14091 11.5752 9.49981 15.1277 12.4196 14.6377C9.20546 7.90019 14.8528 2.3877 14.8528 2.3877C14.8528 2.3877 15.4611 6.67519 20.9357 10.9627C21.4426 11.3597 21.8851 11.7688 22.2701 12.1877" fill="#B7FFFD"/>
<path d="M14.8528 26.8877C9.47757 26.8877 5.12012 22.5001 5.12012 17.0877C5.12012 14.535 6.29402 11.9824 7.82643 9.73769C8.14091 11.5752 9.49981 15.1277 12.4196 14.6377C9.20546 7.90019 14.8528 2.3877 14.8528 2.3877C14.8528 2.3877 15.4611 6.67519 20.9357 10.9627C21.4426 11.3597 21.8851 11.7688 22.2701 12.1877" stroke="#1355FF" stroke-width="1.75" stroke-linecap="round"/>
<path d="M24.0789 19.8293V17.4147C24.0789 17.035 23.8 16.7198 23.4382 16.6551C21.9804 16.3944 20.7702 15.8146 20.1797 15.4931C19.938 15.3614 19.6448 15.3614 19.4031 15.4931C18.8126 15.8146 17.6025 16.3944 16.1446 16.6551C15.7828 16.7198 15.5039 17.035 15.5039 17.4147V19.8293C15.5039 22.9793 18.6183 24.6973 19.5384 25.1362C19.7008 25.2137 19.882 25.2137 20.0444 25.1362C20.9645 24.6973 24.0789 22.9793 24.0789 19.8293Z" fill="#B7FFFD" stroke="#1355FF" stroke-width="1.75" stroke-linecap="round"/>
</g>
<defs>
<clipPath id="clip0_40000924_4747">
<rect width="28" height="28" fill="white" transform="translate(0.599609 0.722656)"/>
</clipPath>
</defs>
</svg>
