<svg width="48" height="48" viewBox="0 0 48 48" fill="none" xmlns="http://www.w3.org/2000/svg">
<path d="M23.149 30.84C22.0855 36.3496 26.6649 41.5076 29.0874 43.398C28.038 45.1315 24.6912 45.2532 23.149 45.0974L14.571 42.3184L8.4082 34.344V22.3823L12.0334 16.8244L14.571 21.6574L18.0752 23.7113L19.7665 22.3823L18.0752 16.8244L20.3708 8.97077L24.1164 3.77539L29.0874 11.6289C31.2565 13.844 35.5947 18.2986 35.5947 18.3952C38.7845 21.1984 38.6959 24.0739 38.2529 25.1613C37.246 24.678 35.3048 23.7113 35.5947 23.7113C33.4682 21.8748 31.245 22.9461 30.3993 23.7113C29.3118 24.1946 27.1128 25.1613 27.0162 25.1613C22.0624 25.5238 23.0283 30.5984 23.149 30.84Z" fill="#B7FFFD"/>
<path d="M24.4345 44.8554C15.2199 44.8554 7.75 37.3339 7.75 28.0554C7.75 23.6795 9.76241 19.3036 12.3894 15.4555C12.9285 18.6054 15.258 24.6954 20.2634 23.8554C14.7534 12.3055 24.4345 2.85547 24.4345 2.85547C24.4345 2.85547 25.4774 10.2055 34.8625 17.5554C35.7315 18.236 36.49 18.9374 37.15 19.6554" stroke="#1355FF" stroke-width="2.25" stroke-linecap="round" stroke-linejoin="round"/>
<path d="M40.2508 32.7543V28.6149C40.2508 27.9639 39.7726 27.4236 39.1525 27.3127C36.6533 26.8659 34.5787 25.8719 33.5665 25.3207C33.1521 25.0949 32.6494 25.0949 32.2351 25.3207C31.2229 25.8719 29.1483 26.8659 26.6491 27.3127C26.029 27.4236 25.5508 27.9639 25.5508 28.6149V32.7543C25.5508 38.1542 30.8898 41.0994 32.4671 41.8519C32.7454 41.9846 33.0562 41.9846 33.3344 41.8519C34.9117 41.0994 40.2508 38.1542 40.2508 32.7543Z" fill="white" stroke="#1355FF" stroke-width="2.25" stroke-linecap="round"/>
</svg>
