<svg width="48" height="48" viewBox="0 0 48 48" fill="none" xmlns="http://www.w3.org/2000/svg">
<path d="M26.5178 33.135C25.2423 35.769 26.1617 37.6419 26.7809 38.249C11.3274 41.7461 6.02639 23.7205 6.02639 23.0698C5.03816 3.30511 25.7911 2.90994 25.9887 3.00876C37.7685 4.669 41.5384 15.2106 41.9508 20.2738L41.0248 23.7205C39.0356 23.7034 35.0366 23.6793 34.9543 23.7205C31.5384 23.7205 29.9642 25.2639 29.604 26.0356C28.558 28.4021 26.4763 33.135 26.5178 33.135Z" fill="#B7FFFD"/>
<path d="M31.5506 36.1789H31.0643C29.4923 36.1789 28.7063 36.1789 28.3713 35.6606C28.0362 35.1424 28.3555 34.4204 28.9939 32.9763L30.9134 28.6349C31.4939 27.3219 31.7841 26.6654 32.3472 26.2975C32.9103 25.9297 33.6249 25.9297 35.0543 25.9297H37.268C39.0043 25.9297 39.8725 25.9297 40.1999 26.4969C40.5273 27.0641 40.0967 27.8218 39.2352 29.3373L38.0995 31.3352C37.6712 32.0885 37.4571 32.4652 37.4601 32.7736C37.464 33.1743 37.6771 33.5435 38.0213 33.7457C38.2862 33.9013 38.7177 33.9013 39.5809 33.9013C40.6721 33.9013 41.2177 33.9013 41.5019 34.0902C41.871 34.3356 42.0643 34.7747 41.9966 35.2144C41.9444 35.5528 41.5774 35.9586 40.8434 36.7702L34.9789 43.2551C33.827 44.5288 33.2511 45.1657 32.8643 44.9642C32.4776 44.7625 32.6633 43.9224 33.0347 42.2421L33.7624 38.9506C34.0452 37.6711 34.1866 37.0314 33.8465 36.6052C33.5064 36.1789 32.8545 36.1789 31.5506 36.1789Z" fill="white" stroke="#1355FF" stroke-width="2.0003" stroke-linejoin="round"/>
<path d="M24.061 13.7862V20.9653M24.0933 28.1443H24.061M42.0087 20.9653C42.0087 11.0531 33.9731 3.01758 24.061 3.01758C14.1488 3.01758 6.11328 11.0531 6.11328 20.9653C6.11328 30.8774 14.1488 38.913 24.061 38.913" stroke="#1355FF" stroke-width="2.0003" stroke-linecap="round"/>
</svg>
