<svg width="48" height="48" viewBox="0 0 48 48" fill="none" xmlns="http://www.w3.org/2000/svg">
<path d="M26.4722 24.5444C19.6032 29.3436 21.281 37.5826 22.9785 41.1022H18.4746L13.2697 40.7648L11.2977 37.6012L7.18046 31.3668L2.82812 22.4271L4.00431 19.2511L11.2977 7.13538L15.4143 2.7832H27.2948L35.764 4.5475L45.1743 21.2508C44.8606 22.8976 44.2097 26.1442 44.1156 25.956C35.2935 17.8396 26.7068 24.0739 26.4722 24.5444Z" fill="#B7FFFD"/>
<path d="M45.0742 34.7148C45.0742 40.5138 40.3732 45.2148 34.5742 45.2148C28.7753 45.2148 24.0742 40.5138 24.0742 34.7148C24.0742 28.9159 28.7753 24.2148 34.5742 24.2148C40.3732 24.2148 45.0742 28.9159 45.0742 34.7148Z" fill="white" stroke="#1355FF" stroke-width="2.25" stroke-linecap="round"/>
<path d="M30.4329 18.4295C29.1605 16.2387 26.7886 14.7656 24.0727 14.7656C20.0134 14.7656 16.7227 18.0563 16.7227 22.1156C16.7227 24.3536 17.7228 26.3578 19.3005 27.7058" stroke="#1355FF" stroke-width="2.25" stroke-linecap="round"/>
<path d="M45.0406 21.5688C44.9902 20.4348 44.2277 19.0526 42.5345 16.1341L38.4947 9.17091C36.8082 6.26398 35.965 4.81051 34.5782 4.01268C33.1916 3.21484 31.5086 3.21484 28.1425 3.21484H20.0059C16.6398 3.21484 14.9569 3.21484 13.5702 4.01268C12.1835 4.81051 11.3402 6.26396 9.65375 9.17088L5.614 16.134C3.92081 19.0526 3.07422 20.5117 3.07422 22.1148C3.07422 23.718 3.92081 25.1771 5.614 28.0956L9.65375 35.0588C11.3402 37.9656 12.1835 39.4193 13.5702 40.2171C14.8762 40.8468 15.6682 41.0148 19.0342 41.0148" stroke="#1355FF" stroke-width="2.25" stroke-linecap="round"/>
<path d="M30.9316 39.1363C31.6582 37.8802 33.0164 37.0351 34.5718 37.0351C36.1272 37.0351 37.4853 37.8802 38.2119 39.1363M36.652 30.876C36.652 32.0248 35.7206 32.9561 34.5719 32.9561C33.423 32.9561 32.4917 32.0248 32.4917 30.876C32.4917 29.7272 33.423 28.7959 34.5719 28.7959C35.7206 28.7959 36.652 29.7272 36.652 30.876Z" fill="white"/>
<path d="M30.9316 39.1363C31.6582 37.8802 33.0164 37.0351 34.5718 37.0351C36.1272 37.0351 37.4853 37.8802 38.2119 39.1363M36.652 30.876C36.652 32.0248 35.7206 32.9561 34.5719 32.9561C33.423 32.9561 32.4917 32.0248 32.4917 30.876C32.4917 29.7272 33.423 28.7959 34.5719 28.7959C35.7206 28.7959 36.652 29.7272 36.652 30.876Z" stroke="#1355FF" stroke-width="2.25" stroke-linecap="round"/>
</svg>
