<svg width="48" height="48" viewBox="0 0 48 48" fill="none" xmlns="http://www.w3.org/2000/svg">
<path d="M44.7052 23.1359C23.7781 28.2139 21.4953 11.5309 22.9698 2.55469L14.314 5.24762L5.08097 14.0956L2.96484 26.0212L5.08097 32.1764L10.4666 40.0626L6.81124 45.4484H10.4666L17.9674 43.1402H25.2766L36.0481 40.0626L43.5497 31.0223C44.0629 28.4576 45.0125 23.2899 44.7052 23.1359Z" fill="#B7FFFD"/>
<path d="M45.0352 22.9377C45.0352 34.0324 35.6318 43.0278 24.0352 43.0278C22.6716 43.0297 21.3119 42.9035 19.9725 42.6521C19.0084 42.4709 18.5264 42.3804 18.1899 42.4318C17.8533 42.4833 17.3764 42.737 16.4226 43.2441C13.7245 44.679 10.5783 45.1858 7.55249 44.623C8.70251 43.2084 9.48793 41.5112 9.83449 39.6917C10.0445 38.5787 9.52416 37.4977 8.74483 36.7062C5.20515 33.1118 3.03516 28.2684 3.03516 22.9377C3.03516 11.8432 12.4385 2.84766 24.0352 2.84766" stroke="#1355FF" stroke-width="2.25" stroke-linecap="round" stroke-linejoin="round"/>
<path d="M36.6363 11.2477L38.7363 9.14766L36.6363 11.2477ZM45.0363 11.2477C45.0363 15.8868 41.2754 19.6477 36.6363 19.6477C31.9972 19.6477 28.2363 15.8868 28.2363 11.2477C28.2363 6.60846 31.9972 2.84766 36.6363 2.84766C41.2754 2.84766 45.0363 6.60846 45.0363 11.2477Z" fill="white"/>
<path d="M36.6363 11.2477L38.7363 9.14766M45.0363 11.2477C45.0363 15.8868 41.2754 19.6477 36.6363 19.6477C31.9972 19.6477 28.2363 15.8868 28.2363 11.2477C28.2363 6.60846 31.9972 2.84766 36.6363 2.84766C41.2754 2.84766 45.0363 6.60846 45.0363 11.2477Z" stroke="#1355FF" stroke-width="2.25" stroke-linecap="round"/>
<path d="M24.0234 23.8477H24.0423M15.6328 23.8477H15.6517" stroke="#1355FF" stroke-width="2.25" stroke-linecap="round" stroke-linejoin="round"/>
</svg>
