<svg width="48" height="48" viewBox="0 0 48 48" fill="none" xmlns="http://www.w3.org/2000/svg">
<path d="M9.10024 26.9337C9.50582 28.2517 12.3107 32.2141 13.6625 34.0305C19.8721 33.5659 32.3168 32.6619 32.4182 32.7633C33.2292 32.8647 36.727 30.0175 38.3745 28.5812L40.022 24.1456L40.7824 17.3022L36.3468 8.55779L28.6163 3.61523H20.1253L13.6625 6.65692L7.19922 15.6547C7.6639 18.8652 8.69465 25.6157 9.10024 26.9337Z" fill="#B7FFFD"/>
<path d="M9.60118 28.2C8.07761 25.6972 7.20117 22.7648 7.20117 19.6296C7.20117 10.4453 14.7228 3 24.0012 3C33.2796 3 40.8012 10.4453 40.8012 19.6296C40.8012 22.7648 39.9248 25.6972 38.4011 28.2" stroke="#1355FF" stroke-width="3.15" stroke-linecap="round"/>
<path d="M14.3064 34.7056C14.1134 34.1248 14.017 33.8343 14.0282 33.5991C14.052 33.1014 14.3657 32.6644 14.8286 32.4845C15.0475 32.3994 15.3525 32.3994 15.9626 32.3994H32.042C32.6522 32.3994 32.9572 32.3994 33.176 32.4845C33.639 32.6644 33.9528 33.1014 33.9765 33.5991C33.9876 33.8343 33.8912 34.1248 33.6983 34.7056C33.3417 35.7792 33.1634 36.3161 32.8885 36.7506C32.3125 37.6612 31.4095 38.3145 30.3666 38.5751C29.8687 38.6994 29.3048 38.6994 28.1774 38.6994H19.8273C18.6997 38.6994 18.136 38.6994 17.6382 38.5751C16.5953 38.3145 15.6922 37.6612 15.1162 36.7506C14.8412 36.3161 14.6629 35.7792 14.3064 34.7056Z" fill="#B7FFFD" stroke="#1355FF" stroke-width="3.15"/>
<path d="M30.3012 38.6992L30.0296 40.0571C29.7327 41.542 29.5842 42.2843 29.2514 42.8711C28.7371 43.7781 27.9034 44.4614 26.913 44.788C26.2725 44.9992 25.5155 44.9992 24.0012 44.9992C22.4869 44.9992 21.7298 44.9992 21.0893 44.788C20.099 44.4614 19.2653 43.7781 18.7509 42.8711C18.4182 42.2843 18.2697 41.542 17.9727 40.0571L17.7012 38.6992" fill="#B7FFFD"/>
<path d="M30.3012 38.6992L30.0296 40.0571C29.7327 41.542 29.5842 42.2843 29.2514 42.8711C28.7371 43.7781 27.9034 44.4614 26.913 44.788C26.2725 44.9992 25.5155 44.9992 24.0012 44.9992C22.4869 44.9992 21.7298 44.9992 21.0893 44.788C20.099 44.4614 19.2653 43.7781 18.7509 42.8711C18.4182 42.2843 18.2697 41.542 17.9727 40.0571L17.7012 38.6992" stroke="#1355FF" stroke-width="3.15"/>
<path d="M31.3523 18.7494V13.4994C27.1523 13.4994 24.0023 11.3994 24.0023 11.3994C24.0023 11.3994 20.8523 13.4994 16.6523 13.4994V18.7494C16.6523 26.0994 24.0023 28.1994 24.0023 28.1994C24.0023 28.1994 31.3523 26.0994 31.3523 18.7494Z" fill="white" stroke="#1355FF" stroke-width="3.15" stroke-linecap="round" stroke-linejoin="round"/>
</svg>
