<svg width="33" height="32" viewBox="0 0 33 32" fill="none" xmlns="http://www.w3.org/2000/svg">
<path d="M25.1263 29.9997C28.0718 29.9997 30.4596 27.6119 30.4596 24.6663C30.4596 21.7208 28.0718 19.333 25.1263 19.333C22.1808 19.333 19.793 21.7208 19.793 24.6663C19.793 27.6119 22.1808 29.9997 25.1263 29.9997Z" fill="white" stroke="#1355FF" stroke-width="2"/>
<path d="M22.9941 24.6663H27.2608M22.9941 24.6663C22.9941 24.2929 24.0578 23.5952 24.3275 23.333M22.9941 24.6663C22.9941 25.0398 24.0578 25.7375 24.3275 25.9997" stroke="#1355FF" stroke-width="1.33333" stroke-linecap="round" stroke-linejoin="round"/>
<path d="M11.1266 28L17.1266 28.6667C16.5933 16.4 24.9044 16 29.1266 17.3333V16V11.3333L26.46 7.33333L22.46 4L17.7933 2H13.1266L7.79329 4.66667L3.79329 9.33333L2.45996 17.3333L4.45996 22.6667L11.1266 28Z" fill="#B7FFFD"/>
<path d="M17.1266 28.6008C16.6881 28.6444 16.2433 28.6667 15.7933 28.6667C8.42949 28.6667 2.45996 22.6971 2.45996 15.3333C2.45996 7.96953 8.42949 2 15.7933 2C23.157 2 29.1266 7.96953 29.1266 15.3333C29.1266 15.7833 29.1044 16.2281 29.0608 16.6667" stroke="#1355FF" stroke-width="2" stroke-linecap="round"/>
<path d="M9.79297 22.0003C11.6629 20.0418 14.4879 19.2058 17.1263 19.5925M19.1198 12.0003C19.1198 13.8413 17.6252 15.3337 15.7816 15.3337C13.9382 15.3337 12.4436 13.8413 12.4436 12.0003C12.4436 10.1594 13.9382 8.66699 15.7816 8.66699C17.6252 8.66699 19.1198 10.1594 19.1198 12.0003Z" stroke="#1355FF" stroke-width="2" stroke-linecap="round"/>
</svg>
