<svg width="48" height="48" viewBox="0 0 48 48" fill="none" xmlns="http://www.w3.org/2000/svg">
<path d="M38.9997 21.75V19.5V15L37.5 12L33.7497 14.25L33 7.5L30.75 6.75L27.75 8.25V5.25L24.75 3L21.75 4.5L21 9H17.25L15 12.75V23.25L14.25 25.5L9.75 21L6 20.25L3 22.5L4.5 27L10.5 36.75L17.25 43.5L25.5 45L26.25 42.75C25.05 40.95 24.25 38 24 36.75L23.9997 30.75C23.3997 26.55 26.2497 24.5 27.7497 24L33.7497 21.75C36.1497 21.15 38.2497 21.5 38.9997 21.75Z" fill="#B7FFFD"/>
<path d="M33.1477 34.5L33.5884 34.9408C34.3627 35.7151 34.75 36.1023 35.2187 36.0763C35.6874 36.0504 36.0293 35.6227 36.7132 34.7675L39.4468 31.35M26.8477 31.254V32.0646C26.8477 34.5886 26.8477 35.8505 27.1593 37.0055C27.544 38.4318 28.2738 39.7471 29.287 40.8414C30.1073 41.7274 31.19 42.4172 33.3551 43.7969C34.3245 44.4145 34.8092 44.7234 35.3243 44.8671C35.9606 45.0443 36.6347 45.0443 37.271 44.8671C37.7861 44.7234 38.2708 44.4145 39.2402 43.7969C41.4053 42.4172 42.488 41.7274 43.3083 40.8414C44.3215 39.7471 45.0513 38.4318 45.436 37.0055C45.7477 35.8505 45.7477 34.5886 45.7477 32.0646V31.254C45.7477 29.6824 45.7477 28.8966 45.4499 28.233C45.2661 27.8237 45.003 27.453 44.675 27.1416C44.143 26.6366 43.3894 26.3606 41.8816 25.8087L38.7862 24.6758C37.5556 24.2253 36.9403 24 36.2977 24C35.6551 24 35.0398 24.2253 33.8092 24.6758L30.7138 25.8087C29.206 26.3606 28.4523 26.6366 27.9203 27.1416C27.5923 27.453 27.3292 27.8237 27.1454 28.233C26.8477 28.8966 26.8477 29.6824 26.8477 31.254Z" fill="white"/>
<path d="M33.1477 34.5L33.5884 34.9408C34.3627 35.7151 34.75 36.1023 35.2187 36.0763C35.6874 36.0504 36.0293 35.6227 36.7132 34.7675L39.4468 31.35M26.8477 31.254V32.0646C26.8477 34.5886 26.8477 35.8505 27.1593 37.0055C27.544 38.4318 28.2738 39.7471 29.287 40.8414C30.1073 41.7274 31.19 42.4172 33.3551 43.7969C34.3245 44.4145 34.8092 44.7234 35.3243 44.8671C35.9606 45.0443 36.6347 45.0443 37.271 44.8671C37.7861 44.7234 38.2708 44.4145 39.2402 43.7969C41.4053 42.4172 42.488 41.7274 43.3083 40.8414C44.3215 39.7471 45.0513 38.4318 45.436 37.0055C45.7477 35.8505 45.7477 34.5886 45.7477 32.0646V31.254C45.7477 29.6824 45.7477 28.8966 45.4499 28.233C45.2661 27.8237 45.003 27.453 44.675 27.1416C44.143 26.6366 43.3894 26.3606 41.8816 25.8087L38.7862 24.6758C37.5556 24.2253 36.9403 24 36.2977 24C35.6551 24 35.0398 24.2253 33.8092 24.6758L30.7138 25.8087C29.206 26.3606 28.4523 26.6366 27.9203 27.1416C27.5923 27.453 27.3292 27.8237 27.1454 28.233C26.8477 28.8966 26.8477 29.6824 26.8477 31.254Z" stroke="#1355FF" stroke-width="2.25" stroke-linecap="round" stroke-linejoin="round"/>
<path d="M33.5095 15.4091V18.75M33.5095 15.4091C33.5095 13.8276 34.8395 12.5455 36.4798 12.5455C38.1203 12.5455 39.45 13.8276 39.45 15.4091V18.75M33.5095 15.4091V9.68184C33.5095 8.10029 32.1798 6.8182 30.5393 6.8182C28.899 6.8182 27.569 8.10029 27.569 9.68184M27.569 9.68184V18.75M27.569 9.68184V5.86364C27.569 4.28209 26.2393 3 24.5988 3C22.9585 3 21.6286 4.28209 21.6286 5.86364V11.5909M21.6286 11.5909C21.6286 10.0094 20.2988 8.72729 18.6584 8.72729C17.018 8.72729 15.6882 10.0094 15.6882 11.5909V25.3398C15.6882 26.2134 14.5699 26.6279 13.961 25.9801L9.14935 20.859C8.33122 19.8928 6.94847 19.5658 5.75945 20.057C3.64196 20.9319 3.14516 24.0216 4.52144 25.8026C6.87642 28.8506 9.28934 33.0121 11.2373 36.6815C13.8809 41.6614 19.0986 45 24.901 45M21.6286 11.5909V18.75" stroke="#1355FF" stroke-width="2.25" stroke-linecap="round" stroke-linejoin="round"/>
</svg>
